G04 #@! TF.GenerationSoftware,KiCad,Pcbnew,(5.1.4)-1*
G04 #@! TF.CreationDate,2020-03-27T03:49:37-04:00*
G04 #@! TF.ProjectId,gantry_x_motor_breakout,67616e74-7279-45f7-985f-6d6f746f725f,rev?*
G04 #@! TF.SameCoordinates,Original*
G04 #@! TF.FileFunction,Legend,Top*
G04 #@! TF.FilePolarity,Positive*
%FSLAX46Y46*%
G04 Gerber Fmt 4.6, Leading zero omitted, Abs format (unit mm)*
G04 Created by KiCad (PCBNEW (5.1.4)-1) date 2020-03-27 03:49:37*
%MOMM*%
%LPD*%
G04 APERTURE LIST*
%ADD10C,0.254000*%
%ADD11C,0.120000*%
%ADD12O,1.829200X1.829200*%
%ADD13R,1.829200X1.829200*%
%ADD14O,1.802000X2.052000*%
%ADD15C,0.100000*%
%ADD16C,1.802000*%
%ADD17C,6.502000*%
G04 APERTURE END LIST*
D10*
X145458815Y-47422000D02*
G75*
G03X145458815Y-47422000I-538815J0D01*
G01*
X89480961Y-112827000D02*
G75*
G03X89480961Y-112827000I-567961J0D01*
G01*
D11*
X85320000Y-116155000D02*
X85320000Y-113615000D01*
X85320000Y-116155000D02*
X87860000Y-116155000D01*
X85570000Y-115905000D02*
X85570000Y-106555000D01*
X119130000Y-115905000D02*
X85570000Y-115905000D01*
X119130000Y-106555000D02*
X119130000Y-115905000D01*
X85570000Y-106555000D02*
X119130000Y-106555000D01*
X141220000Y-43860000D02*
X143760000Y-43860000D01*
X141220000Y-43860000D02*
X141220000Y-46400000D01*
X141470000Y-44110000D02*
X150820000Y-44110000D01*
X141470000Y-72590000D02*
X141470000Y-44110000D01*
X150820000Y-72590000D02*
X141470000Y-72590000D01*
X150820000Y-44110000D02*
X150820000Y-72590000D01*
%LPC*%
D12*
X113780000Y-109960000D03*
X113780000Y-112500000D03*
X111240000Y-109960000D03*
X111240000Y-112500000D03*
X108700000Y-109960000D03*
X108700000Y-112500000D03*
X106160000Y-109960000D03*
X106160000Y-112500000D03*
X103620000Y-109960000D03*
X103620000Y-112500000D03*
X101080000Y-109960000D03*
X101080000Y-112500000D03*
X98540000Y-109960000D03*
X98540000Y-112500000D03*
X96000000Y-109960000D03*
X96000000Y-112500000D03*
X93460000Y-109960000D03*
X93460000Y-112500000D03*
X90920000Y-109960000D03*
D13*
X90920000Y-112500000D03*
D12*
X147415000Y-67240000D03*
X144875000Y-67240000D03*
X147415000Y-64700000D03*
X144875000Y-64700000D03*
X147415000Y-62160000D03*
X144875000Y-62160000D03*
X147415000Y-59620000D03*
X144875000Y-59620000D03*
X147415000Y-57080000D03*
X144875000Y-57080000D03*
X147415000Y-54540000D03*
X144875000Y-54540000D03*
X147415000Y-52000000D03*
X144875000Y-52000000D03*
X147415000Y-49460000D03*
D13*
X144875000Y-49460000D03*
D14*
X146250000Y-124000000D03*
X148750000Y-124000000D03*
X151250000Y-124000000D03*
D15*
G36*
X154411975Y-122975276D02*
G01*
X154437699Y-122979092D01*
X154462925Y-122985411D01*
X154487411Y-122994172D01*
X154510920Y-123005291D01*
X154533226Y-123018661D01*
X154554114Y-123034152D01*
X154573383Y-123051617D01*
X154590848Y-123070886D01*
X154606339Y-123091774D01*
X154619709Y-123114080D01*
X154630828Y-123137589D01*
X154639589Y-123162075D01*
X154645908Y-123187301D01*
X154649724Y-123213025D01*
X154651000Y-123239000D01*
X154651000Y-124761000D01*
X154649724Y-124786975D01*
X154645908Y-124812699D01*
X154639589Y-124837925D01*
X154630828Y-124862411D01*
X154619709Y-124885920D01*
X154606339Y-124908226D01*
X154590848Y-124929114D01*
X154573383Y-124948383D01*
X154554114Y-124965848D01*
X154533226Y-124981339D01*
X154510920Y-124994709D01*
X154487411Y-125005828D01*
X154462925Y-125014589D01*
X154437699Y-125020908D01*
X154411975Y-125024724D01*
X154386000Y-125026000D01*
X153114000Y-125026000D01*
X153088025Y-125024724D01*
X153062301Y-125020908D01*
X153037075Y-125014589D01*
X153012589Y-125005828D01*
X152989080Y-124994709D01*
X152966774Y-124981339D01*
X152945886Y-124965848D01*
X152926617Y-124948383D01*
X152909152Y-124929114D01*
X152893661Y-124908226D01*
X152880291Y-124885920D01*
X152869172Y-124862411D01*
X152860411Y-124837925D01*
X152854092Y-124812699D01*
X152850276Y-124786975D01*
X152849000Y-124761000D01*
X152849000Y-123239000D01*
X152850276Y-123213025D01*
X152854092Y-123187301D01*
X152860411Y-123162075D01*
X152869172Y-123137589D01*
X152880291Y-123114080D01*
X152893661Y-123091774D01*
X152909152Y-123070886D01*
X152926617Y-123051617D01*
X152945886Y-123034152D01*
X152966774Y-123018661D01*
X152989080Y-123005291D01*
X153012589Y-122994172D01*
X153037075Y-122985411D01*
X153062301Y-122979092D01*
X153088025Y-122975276D01*
X153114000Y-122974000D01*
X154386000Y-122974000D01*
X154411975Y-122975276D01*
X154411975Y-122975276D01*
G37*
D16*
X153750000Y-124000000D03*
D17*
X134500000Y-84500000D03*
X113850000Y-94150000D03*
X90850000Y-94150000D03*
X165500000Y-115500000D03*
X165500000Y-84500000D03*
X134500000Y-115500000D03*
X160650000Y-67350000D03*
X160650000Y-49350000D03*
M02*
