G04 #@! TF.GenerationSoftware,KiCad,Pcbnew,(5.1.4)-1*
G04 #@! TF.CreationDate,2020-03-27T03:49:37-04:00*
G04 #@! TF.ProjectId,gantry_x_motor_breakout,67616e74-7279-45f7-985f-6d6f746f725f,rev?*
G04 #@! TF.SameCoordinates,Original*
G04 #@! TF.FileFunction,Legend,Bot*
G04 #@! TF.FilePolarity,Positive*
%FSLAX46Y46*%
G04 Gerber Fmt 4.6, Leading zero omitted, Abs format (unit mm)*
G04 Created by KiCad (PCBNEW (5.1.4)-1) date 2020-03-27 03:49:37*
%MOMM*%
%LPD*%
G04 APERTURE LIST*
%ADD10C,0.254000*%
%ADD11C,0.317500*%
%ADD12C,0.381000*%
%ADD13C,0.120000*%
%ADD14O,1.829200X1.829200*%
%ADD15R,1.829200X1.829200*%
%ADD16O,1.802000X2.052000*%
%ADD17C,0.100000*%
%ADD18C,1.802000*%
%ADD19C,6.502000*%
G04 APERTURE END LIST*
D10*
X156692952Y-112143619D02*
X156692952Y-112869333D01*
X156741333Y-113014476D01*
X156838095Y-113111238D01*
X156983238Y-113159619D01*
X157080000Y-113159619D01*
X155725333Y-113159619D02*
X156209142Y-113159619D01*
X156209142Y-112143619D01*
X154806095Y-113062857D02*
X154854476Y-113111238D01*
X154999619Y-113159619D01*
X155096380Y-113159619D01*
X155241523Y-113111238D01*
X155338285Y-113014476D01*
X155386666Y-112917714D01*
X155435047Y-112724190D01*
X155435047Y-112579047D01*
X155386666Y-112385523D01*
X155338285Y-112288761D01*
X155241523Y-112192000D01*
X155096380Y-112143619D01*
X154999619Y-112143619D01*
X154854476Y-112192000D01*
X154806095Y-112240380D01*
X154080380Y-112143619D02*
X154080380Y-112869333D01*
X154128761Y-113014476D01*
X154225523Y-113111238D01*
X154370666Y-113159619D01*
X154467428Y-113159619D01*
X153112761Y-113159619D02*
X153596571Y-113159619D01*
X153596571Y-112143619D01*
X152193523Y-113062857D02*
X152241904Y-113111238D01*
X152387047Y-113159619D01*
X152483809Y-113159619D01*
X152628952Y-113111238D01*
X152725714Y-113014476D01*
X152774095Y-112917714D01*
X152822476Y-112724190D01*
X152822476Y-112579047D01*
X152774095Y-112385523D01*
X152725714Y-112288761D01*
X152628952Y-112192000D01*
X152483809Y-112143619D01*
X152387047Y-112143619D01*
X152241904Y-112192000D01*
X152193523Y-112240380D01*
X151467809Y-112143619D02*
X151467809Y-112869333D01*
X151516190Y-113014476D01*
X151612952Y-113111238D01*
X151758095Y-113159619D01*
X151854857Y-113159619D01*
X150500190Y-113159619D02*
X150984000Y-113159619D01*
X150984000Y-112143619D01*
X149580952Y-113062857D02*
X149629333Y-113111238D01*
X149774476Y-113159619D01*
X149871238Y-113159619D01*
X150016380Y-113111238D01*
X150113142Y-113014476D01*
X150161523Y-112917714D01*
X150209904Y-112724190D01*
X150209904Y-112579047D01*
X150161523Y-112385523D01*
X150113142Y-112288761D01*
X150016380Y-112192000D01*
X149871238Y-112143619D01*
X149774476Y-112143619D01*
X149629333Y-112192000D01*
X149580952Y-112240380D01*
X148855238Y-112143619D02*
X148855238Y-112869333D01*
X148903619Y-113014476D01*
X149000380Y-113111238D01*
X149145523Y-113159619D01*
X149242285Y-113159619D01*
X147887619Y-113159619D02*
X148371428Y-113159619D01*
X148371428Y-112143619D01*
X146968380Y-113062857D02*
X147016761Y-113111238D01*
X147161904Y-113159619D01*
X147258666Y-113159619D01*
X147403809Y-113111238D01*
X147500571Y-113014476D01*
X147548952Y-112917714D01*
X147597333Y-112724190D01*
X147597333Y-112579047D01*
X147548952Y-112385523D01*
X147500571Y-112288761D01*
X147403809Y-112192000D01*
X147258666Y-112143619D01*
X147161904Y-112143619D01*
X147016761Y-112192000D01*
X146968380Y-112240380D01*
D11*
X156706809Y-111242523D02*
X156706809Y-109972523D01*
X156162523Y-111182047D02*
X156041571Y-111242523D01*
X155799666Y-111242523D01*
X155678714Y-111182047D01*
X155618238Y-111061095D01*
X155618238Y-111000619D01*
X155678714Y-110879666D01*
X155799666Y-110819190D01*
X155981095Y-110819190D01*
X156102047Y-110758714D01*
X156162523Y-110637761D01*
X156162523Y-110577285D01*
X156102047Y-110456333D01*
X155981095Y-110395857D01*
X155799666Y-110395857D01*
X155678714Y-110456333D01*
X155073952Y-111242523D02*
X155073952Y-109972523D01*
X154529666Y-111242523D02*
X154529666Y-110577285D01*
X154590142Y-110456333D01*
X154711095Y-110395857D01*
X154892523Y-110395857D01*
X155013476Y-110456333D01*
X155073952Y-110516809D01*
X153380619Y-111242523D02*
X153380619Y-110577285D01*
X153441095Y-110456333D01*
X153562047Y-110395857D01*
X153803952Y-110395857D01*
X153924904Y-110456333D01*
X153380619Y-111182047D02*
X153501571Y-111242523D01*
X153803952Y-111242523D01*
X153924904Y-111182047D01*
X153985380Y-111061095D01*
X153985380Y-110940142D01*
X153924904Y-110819190D01*
X153803952Y-110758714D01*
X153501571Y-110758714D01*
X153380619Y-110698238D01*
X152231571Y-111242523D02*
X152231571Y-110577285D01*
X152292047Y-110456333D01*
X152413000Y-110395857D01*
X152654904Y-110395857D01*
X152775857Y-110456333D01*
X152231571Y-111182047D02*
X152352523Y-111242523D01*
X152654904Y-111242523D01*
X152775857Y-111182047D01*
X152836333Y-111061095D01*
X152836333Y-110940142D01*
X152775857Y-110819190D01*
X152654904Y-110758714D01*
X152352523Y-110758714D01*
X152231571Y-110698238D01*
X151626809Y-110395857D02*
X151626809Y-111242523D01*
X151626809Y-110516809D02*
X151566333Y-110456333D01*
X151445380Y-110395857D01*
X151263952Y-110395857D01*
X151143000Y-110456333D01*
X151082523Y-110577285D01*
X151082523Y-111242523D01*
X148844904Y-110033000D02*
X148965857Y-109972523D01*
X149147285Y-109972523D01*
X149328714Y-110033000D01*
X149449666Y-110153952D01*
X149510142Y-110274904D01*
X149570619Y-110516809D01*
X149570619Y-110698238D01*
X149510142Y-110940142D01*
X149449666Y-111061095D01*
X149328714Y-111182047D01*
X149147285Y-111242523D01*
X149026333Y-111242523D01*
X148844904Y-111182047D01*
X148784428Y-111121571D01*
X148784428Y-110698238D01*
X149026333Y-110698238D01*
X148058714Y-111242523D02*
X148179666Y-111182047D01*
X148240142Y-111121571D01*
X148300619Y-111000619D01*
X148300619Y-110637761D01*
X148240142Y-110516809D01*
X148179666Y-110456333D01*
X148058714Y-110395857D01*
X147877285Y-110395857D01*
X147756333Y-110456333D01*
X147695857Y-110516809D01*
X147635380Y-110637761D01*
X147635380Y-111000619D01*
X147695857Y-111121571D01*
X147756333Y-111182047D01*
X147877285Y-111242523D01*
X148058714Y-111242523D01*
X147212047Y-110395857D02*
X146909666Y-111242523D01*
X146607285Y-110395857D01*
X144793000Y-109972523D02*
X144793000Y-110879666D01*
X144853476Y-111061095D01*
X144974428Y-111182047D01*
X145155857Y-111242523D01*
X145276809Y-111242523D01*
X143643952Y-111242523D02*
X143643952Y-110577285D01*
X143704428Y-110456333D01*
X143825380Y-110395857D01*
X144067285Y-110395857D01*
X144188238Y-110456333D01*
X143643952Y-111182047D02*
X143764904Y-111242523D01*
X144067285Y-111242523D01*
X144188238Y-111182047D01*
X144248714Y-111061095D01*
X144248714Y-110940142D01*
X144188238Y-110819190D01*
X144067285Y-110758714D01*
X143764904Y-110758714D01*
X143643952Y-110698238D01*
X143039190Y-110395857D02*
X143039190Y-111242523D01*
X143039190Y-110516809D02*
X142978714Y-110456333D01*
X142857761Y-110395857D01*
X142676333Y-110395857D01*
X142555380Y-110456333D01*
X142494904Y-110577285D01*
X142494904Y-111242523D01*
X140983000Y-110093476D02*
X140922523Y-110033000D01*
X140801571Y-109972523D01*
X140499190Y-109972523D01*
X140378238Y-110033000D01*
X140317761Y-110093476D01*
X140257285Y-110214428D01*
X140257285Y-110335380D01*
X140317761Y-110516809D01*
X141043476Y-111242523D01*
X140257285Y-111242523D01*
X139471095Y-109972523D02*
X139350142Y-109972523D01*
X139229190Y-110033000D01*
X139168714Y-110093476D01*
X139108238Y-110214428D01*
X139047761Y-110456333D01*
X139047761Y-110758714D01*
X139108238Y-111000619D01*
X139168714Y-111121571D01*
X139229190Y-111182047D01*
X139350142Y-111242523D01*
X139471095Y-111242523D01*
X139592047Y-111182047D01*
X139652523Y-111121571D01*
X139713000Y-111000619D01*
X139773476Y-110758714D01*
X139773476Y-110456333D01*
X139713000Y-110214428D01*
X139652523Y-110093476D01*
X139592047Y-110033000D01*
X139471095Y-109972523D01*
X138563952Y-110093476D02*
X138503476Y-110033000D01*
X138382523Y-109972523D01*
X138080142Y-109972523D01*
X137959190Y-110033000D01*
X137898714Y-110093476D01*
X137838238Y-110214428D01*
X137838238Y-110335380D01*
X137898714Y-110516809D01*
X138624428Y-111242523D01*
X137838238Y-111242523D01*
X137052047Y-109972523D02*
X136931095Y-109972523D01*
X136810142Y-110033000D01*
X136749666Y-110093476D01*
X136689190Y-110214428D01*
X136628714Y-110456333D01*
X136628714Y-110758714D01*
X136689190Y-111000619D01*
X136749666Y-111121571D01*
X136810142Y-111182047D01*
X136931095Y-111242523D01*
X137052047Y-111242523D01*
X137173000Y-111182047D01*
X137233476Y-111121571D01*
X137293952Y-111000619D01*
X137354428Y-110758714D01*
X137354428Y-110456333D01*
X137293952Y-110214428D01*
X137233476Y-110093476D01*
X137173000Y-110033000D01*
X137052047Y-109972523D01*
D12*
X168103928Y-107047500D02*
X168285357Y-106956785D01*
X168557500Y-106956785D01*
X168829642Y-107047500D01*
X169011071Y-107228928D01*
X169101785Y-107410357D01*
X169192500Y-107773214D01*
X169192500Y-108045357D01*
X169101785Y-108408214D01*
X169011071Y-108589642D01*
X168829642Y-108771071D01*
X168557500Y-108861785D01*
X168376071Y-108861785D01*
X168103928Y-108771071D01*
X168013214Y-108680357D01*
X168013214Y-108045357D01*
X168376071Y-108045357D01*
X166380357Y-108861785D02*
X166380357Y-107863928D01*
X166471071Y-107682500D01*
X166652500Y-107591785D01*
X167015357Y-107591785D01*
X167196785Y-107682500D01*
X166380357Y-108771071D02*
X166561785Y-108861785D01*
X167015357Y-108861785D01*
X167196785Y-108771071D01*
X167287500Y-108589642D01*
X167287500Y-108408214D01*
X167196785Y-108226785D01*
X167015357Y-108136071D01*
X166561785Y-108136071D01*
X166380357Y-108045357D01*
X165473214Y-107591785D02*
X165473214Y-108861785D01*
X165473214Y-107773214D02*
X165382500Y-107682500D01*
X165201071Y-107591785D01*
X164928928Y-107591785D01*
X164747500Y-107682500D01*
X164656785Y-107863928D01*
X164656785Y-108861785D01*
X164021785Y-107591785D02*
X163296071Y-107591785D01*
X163749642Y-106956785D02*
X163749642Y-108589642D01*
X163658928Y-108771071D01*
X163477500Y-108861785D01*
X163296071Y-108861785D01*
X162661071Y-108861785D02*
X162661071Y-107591785D01*
X162661071Y-107954642D02*
X162570357Y-107773214D01*
X162479642Y-107682500D01*
X162298214Y-107591785D01*
X162116785Y-107591785D01*
X161663214Y-107591785D02*
X161209642Y-108861785D01*
X160756071Y-107591785D02*
X161209642Y-108861785D01*
X161391071Y-109315357D01*
X161481785Y-109406071D01*
X161663214Y-109496785D01*
X158760357Y-106956785D02*
X158306785Y-108861785D01*
X157943928Y-107501071D01*
X157581071Y-108861785D01*
X157127500Y-106956785D01*
X156401785Y-108861785D02*
X156401785Y-107591785D01*
X156401785Y-106956785D02*
X156492500Y-107047500D01*
X156401785Y-107138214D01*
X156311071Y-107047500D01*
X156401785Y-106956785D01*
X156401785Y-107138214D01*
X155494642Y-108861785D02*
X155494642Y-107591785D01*
X155494642Y-107954642D02*
X155403928Y-107773214D01*
X155313214Y-107682500D01*
X155131785Y-107591785D01*
X154950357Y-107591785D01*
X154315357Y-108861785D02*
X154315357Y-107591785D01*
X154315357Y-106956785D02*
X154406071Y-107047500D01*
X154315357Y-107138214D01*
X154224642Y-107047500D01*
X154315357Y-106956785D01*
X154315357Y-107138214D01*
X153408214Y-107591785D02*
X153408214Y-108861785D01*
X153408214Y-107773214D02*
X153317500Y-107682500D01*
X153136071Y-107591785D01*
X152863928Y-107591785D01*
X152682500Y-107682500D01*
X152591785Y-107863928D01*
X152591785Y-108861785D01*
X150868214Y-107591785D02*
X150868214Y-109133928D01*
X150958928Y-109315357D01*
X151049642Y-109406071D01*
X151231071Y-109496785D01*
X151503214Y-109496785D01*
X151684642Y-109406071D01*
X150868214Y-108771071D02*
X151049642Y-108861785D01*
X151412500Y-108861785D01*
X151593928Y-108771071D01*
X151684642Y-108680357D01*
X151775357Y-108498928D01*
X151775357Y-107954642D01*
X151684642Y-107773214D01*
X151593928Y-107682500D01*
X151412500Y-107591785D01*
X151049642Y-107591785D01*
X150868214Y-107682500D01*
X147874642Y-107863928D02*
X147602500Y-107954642D01*
X147511785Y-108045357D01*
X147421071Y-108226785D01*
X147421071Y-108498928D01*
X147511785Y-108680357D01*
X147602500Y-108771071D01*
X147783928Y-108861785D01*
X148509642Y-108861785D01*
X148509642Y-106956785D01*
X147874642Y-106956785D01*
X147693214Y-107047500D01*
X147602500Y-107138214D01*
X147511785Y-107319642D01*
X147511785Y-107501071D01*
X147602500Y-107682500D01*
X147693214Y-107773214D01*
X147874642Y-107863928D01*
X148509642Y-107863928D01*
X146604642Y-108861785D02*
X146604642Y-107591785D01*
X146604642Y-107954642D02*
X146513928Y-107773214D01*
X146423214Y-107682500D01*
X146241785Y-107591785D01*
X146060357Y-107591785D01*
X144699642Y-108771071D02*
X144881071Y-108861785D01*
X145243928Y-108861785D01*
X145425357Y-108771071D01*
X145516071Y-108589642D01*
X145516071Y-107863928D01*
X145425357Y-107682500D01*
X145243928Y-107591785D01*
X144881071Y-107591785D01*
X144699642Y-107682500D01*
X144608928Y-107863928D01*
X144608928Y-108045357D01*
X145516071Y-108226785D01*
X142976071Y-108861785D02*
X142976071Y-107863928D01*
X143066785Y-107682500D01*
X143248214Y-107591785D01*
X143611071Y-107591785D01*
X143792500Y-107682500D01*
X142976071Y-108771071D02*
X143157500Y-108861785D01*
X143611071Y-108861785D01*
X143792500Y-108771071D01*
X143883214Y-108589642D01*
X143883214Y-108408214D01*
X143792500Y-108226785D01*
X143611071Y-108136071D01*
X143157500Y-108136071D01*
X142976071Y-108045357D01*
X142068928Y-108861785D02*
X142068928Y-106956785D01*
X141887500Y-108136071D02*
X141343214Y-108861785D01*
X141343214Y-107591785D02*
X142068928Y-108317500D01*
X140254642Y-108861785D02*
X140436071Y-108771071D01*
X140526785Y-108680357D01*
X140617500Y-108498928D01*
X140617500Y-107954642D01*
X140526785Y-107773214D01*
X140436071Y-107682500D01*
X140254642Y-107591785D01*
X139982500Y-107591785D01*
X139801071Y-107682500D01*
X139710357Y-107773214D01*
X139619642Y-107954642D01*
X139619642Y-108498928D01*
X139710357Y-108680357D01*
X139801071Y-108771071D01*
X139982500Y-108861785D01*
X140254642Y-108861785D01*
X137986785Y-107591785D02*
X137986785Y-108861785D01*
X138803214Y-107591785D02*
X138803214Y-108589642D01*
X138712500Y-108771071D01*
X138531071Y-108861785D01*
X138258928Y-108861785D01*
X138077500Y-108771071D01*
X137986785Y-108680357D01*
X137351785Y-107591785D02*
X136626071Y-107591785D01*
X137079642Y-106956785D02*
X137079642Y-108589642D01*
X136988928Y-108771071D01*
X136807500Y-108861785D01*
X136626071Y-108861785D01*
D13*
X156600000Y-121250000D02*
X156600000Y-122500000D01*
X155350000Y-121250000D02*
X156600000Y-121250000D01*
X144450000Y-126750000D02*
X150000000Y-126750000D01*
X144450000Y-123800000D02*
X144450000Y-126750000D01*
X143700000Y-123800000D02*
X144450000Y-123800000D01*
X155550000Y-126750000D02*
X150000000Y-126750000D01*
X155550000Y-123800000D02*
X155550000Y-126750000D01*
X156300000Y-123800000D02*
X155550000Y-123800000D01*
X143700000Y-121550000D02*
X145500000Y-121550000D01*
X143700000Y-122300000D02*
X143700000Y-121550000D01*
X145500000Y-122300000D02*
X143700000Y-122300000D01*
X145500000Y-121550000D02*
X145500000Y-122300000D01*
X154500000Y-121550000D02*
X156300000Y-121550000D01*
X154500000Y-122300000D02*
X154500000Y-121550000D01*
X156300000Y-122300000D02*
X154500000Y-122300000D01*
X156300000Y-121550000D02*
X156300000Y-122300000D01*
X147000000Y-121550000D02*
X153000000Y-121550000D01*
X147000000Y-122300000D02*
X147000000Y-121550000D01*
X153000000Y-122300000D02*
X147000000Y-122300000D01*
X153000000Y-121550000D02*
X153000000Y-122300000D01*
X143690000Y-121540000D02*
X156310000Y-121540000D01*
X143690000Y-127510000D02*
X143690000Y-121540000D01*
X156310000Y-127510000D02*
X143690000Y-127510000D01*
X156310000Y-121540000D02*
X156310000Y-127510000D01*
%LPC*%
D14*
X113780000Y-109960000D03*
X113780000Y-112500000D03*
X111240000Y-109960000D03*
X111240000Y-112500000D03*
X108700000Y-109960000D03*
X108700000Y-112500000D03*
X106160000Y-109960000D03*
X106160000Y-112500000D03*
X103620000Y-109960000D03*
X103620000Y-112500000D03*
X101080000Y-109960000D03*
X101080000Y-112500000D03*
X98540000Y-109960000D03*
X98540000Y-112500000D03*
X96000000Y-109960000D03*
X96000000Y-112500000D03*
X93460000Y-109960000D03*
X93460000Y-112500000D03*
X90920000Y-109960000D03*
D15*
X90920000Y-112500000D03*
D14*
X147415000Y-67240000D03*
X144875000Y-67240000D03*
X147415000Y-64700000D03*
X144875000Y-64700000D03*
X147415000Y-62160000D03*
X144875000Y-62160000D03*
X147415000Y-59620000D03*
X144875000Y-59620000D03*
X147415000Y-57080000D03*
X144875000Y-57080000D03*
X147415000Y-54540000D03*
X144875000Y-54540000D03*
X147415000Y-52000000D03*
X144875000Y-52000000D03*
X147415000Y-49460000D03*
D15*
X144875000Y-49460000D03*
D16*
X146250000Y-124000000D03*
X148750000Y-124000000D03*
X151250000Y-124000000D03*
D17*
G36*
X154411975Y-122975276D02*
G01*
X154437699Y-122979092D01*
X154462925Y-122985411D01*
X154487411Y-122994172D01*
X154510920Y-123005291D01*
X154533226Y-123018661D01*
X154554114Y-123034152D01*
X154573383Y-123051617D01*
X154590848Y-123070886D01*
X154606339Y-123091774D01*
X154619709Y-123114080D01*
X154630828Y-123137589D01*
X154639589Y-123162075D01*
X154645908Y-123187301D01*
X154649724Y-123213025D01*
X154651000Y-123239000D01*
X154651000Y-124761000D01*
X154649724Y-124786975D01*
X154645908Y-124812699D01*
X154639589Y-124837925D01*
X154630828Y-124862411D01*
X154619709Y-124885920D01*
X154606339Y-124908226D01*
X154590848Y-124929114D01*
X154573383Y-124948383D01*
X154554114Y-124965848D01*
X154533226Y-124981339D01*
X154510920Y-124994709D01*
X154487411Y-125005828D01*
X154462925Y-125014589D01*
X154437699Y-125020908D01*
X154411975Y-125024724D01*
X154386000Y-125026000D01*
X153114000Y-125026000D01*
X153088025Y-125024724D01*
X153062301Y-125020908D01*
X153037075Y-125014589D01*
X153012589Y-125005828D01*
X152989080Y-124994709D01*
X152966774Y-124981339D01*
X152945886Y-124965848D01*
X152926617Y-124948383D01*
X152909152Y-124929114D01*
X152893661Y-124908226D01*
X152880291Y-124885920D01*
X152869172Y-124862411D01*
X152860411Y-124837925D01*
X152854092Y-124812699D01*
X152850276Y-124786975D01*
X152849000Y-124761000D01*
X152849000Y-123239000D01*
X152850276Y-123213025D01*
X152854092Y-123187301D01*
X152860411Y-123162075D01*
X152869172Y-123137589D01*
X152880291Y-123114080D01*
X152893661Y-123091774D01*
X152909152Y-123070886D01*
X152926617Y-123051617D01*
X152945886Y-123034152D01*
X152966774Y-123018661D01*
X152989080Y-123005291D01*
X153012589Y-122994172D01*
X153037075Y-122985411D01*
X153062301Y-122979092D01*
X153088025Y-122975276D01*
X153114000Y-122974000D01*
X154386000Y-122974000D01*
X154411975Y-122975276D01*
X154411975Y-122975276D01*
G37*
D18*
X153750000Y-124000000D03*
D19*
X134500000Y-84500000D03*
X113850000Y-94150000D03*
X90850000Y-94150000D03*
X165500000Y-115500000D03*
X165500000Y-84500000D03*
X134500000Y-115500000D03*
X160650000Y-67350000D03*
X160650000Y-49350000D03*
M02*
