G04 #@! TF.GenerationSoftware,KiCad,Pcbnew,(5.1.4)-1*
G04 #@! TF.CreationDate,2020-03-27T03:49:38-04:00*
G04 #@! TF.ProjectId,gantry_x_motor_breakout,67616e74-7279-45f7-985f-6d6f746f725f,rev?*
G04 #@! TF.SameCoordinates,Original*
G04 #@! TF.FileFunction,Profile,NP*
%FSLAX46Y46*%
G04 Gerber Fmt 4.6, Leading zero omitted, Abs format (unit mm)*
G04 Created by KiCad (PCBNEW (5.1.4)-1) date 2020-03-27 03:49:38*
%MOMM*%
%LPD*%
G04 APERTURE LIST*
%ADD10C,0.304799*%
G04 APERTURE END LIST*
D10*
X157500000Y-123150000D02*
G75*
G02X159500000Y-121150000I2000000J0D01*
G01*
X129409291Y-121149999D02*
X140500001Y-121150000D01*
X165149999Y-43850000D02*
X142150000Y-43850000D01*
X144500001Y-128150000D02*
X155499999Y-128150000D01*
X124850000Y-88650000D02*
X86350000Y-88650000D01*
X128850000Y-83764213D02*
X128850000Y-84650000D01*
X170695455Y-78571151D02*
G75*
G02X171150000Y-79409291I-545455J-838140D01*
G01*
X128850000Y-83764213D02*
G75*
G02X129142894Y-83057107I1000000J-1D01*
G01*
X141150000Y-74850001D02*
G75*
G02X137150001Y-78850000I-3999999J0D01*
G01*
X140500001Y-121150000D02*
G75*
G02X142500001Y-123150000I0J-2000000D01*
G01*
X85350000Y-89650000D02*
X85350000Y-115149999D01*
X165149999Y-43850000D02*
G75*
G02X166149999Y-44850000I0J-1000000D01*
G01*
X144500001Y-128150000D02*
G75*
G02X142500001Y-126150000I0J2000000D01*
G01*
X128850000Y-84650000D02*
G75*
G02X124850000Y-88650000I-4000000J0D01*
G01*
X159500000Y-121150000D02*
X166235786Y-121150000D01*
X171150000Y-116235787D02*
X171150000Y-79409291D01*
X142500001Y-123150000D02*
X142500001Y-126150000D01*
X86350000Y-116149999D02*
G75*
G02X85350000Y-115149999I0J1000000D01*
G01*
X166942893Y-120857106D02*
G75*
G02X166235786Y-121150000I-707107J707107D01*
G01*
X120189746Y-116149999D02*
G75*
G02X128571151Y-120695454I0J-10000001D01*
G01*
X166150000Y-70189746D02*
X166149999Y-44850000D01*
X155000000Y-100000000D02*
G75*
G03X155000000Y-100000000I-5000000J0D01*
G01*
X157499999Y-126150000D02*
X157500000Y-123150000D01*
X129409291Y-121149999D02*
G75*
G02X128571151Y-120695454I0J999999D01*
G01*
X86350000Y-116149999D02*
X120189746Y-116149999D01*
X157499999Y-126150000D02*
G75*
G02X155499999Y-128150000I-2000000J0D01*
G01*
X137150001Y-78850000D02*
X133764214Y-78850000D01*
X133057107Y-79142893D02*
G75*
G02X133764214Y-78850000I707107J-707107D01*
G01*
X141150001Y-44850001D02*
G75*
G02X142150000Y-43850000I1000000J1D01*
G01*
X166942893Y-120857106D02*
X170857106Y-116942893D01*
X171150000Y-116235787D02*
G75*
G02X170857106Y-116942893I-1000000J1D01*
G01*
X85350000Y-89650000D02*
G75*
G02X86350000Y-88650000I1000000J0D01*
G01*
X141150001Y-44850001D02*
X141150000Y-74850001D01*
X133057107Y-79142893D02*
X129142894Y-83057107D01*
X170695455Y-78571151D02*
G75*
G02X166150000Y-70189746I5454545J8381405D01*
G01*
M02*
