G04 #@! TF.GenerationSoftware,KiCad,Pcbnew,(5.1.4)-1*
G04 #@! TF.CreationDate,2020-03-27T16:02:32-04:00*
G04 #@! TF.ProjectId,RGB_endstop_breakout,5247425f-656e-4647-9374-6f705f627265,rev?*
G04 #@! TF.SameCoordinates,PX8e18f40PY6422c40*
G04 #@! TF.FileFunction,Copper,L2,Bot*
G04 #@! TF.FilePolarity,Positive*
%FSLAX46Y46*%
G04 Gerber Fmt 4.6, Leading zero omitted, Abs format (unit mm)*
G04 Created by KiCad (PCBNEW (5.1.4)-1) date 2020-03-27 16:02:32*
%MOMM*%
%LPD*%
G04 APERTURE LIST*
%ADD10O,2.000000X1.700000*%
%ADD11C,0.100000*%
%ADD12C,1.700000*%
%ADD13O,1.950000X1.700000*%
%ADD14O,1.727200X1.727200*%
%ADD15R,1.727200X1.727200*%
%ADD16C,10.600000*%
%ADD17C,0.800000*%
%ADD18C,0.762000*%
G04 APERTURE END LIST*
D10*
X-10160000Y8890000D03*
D11*
G36*
X-9385496Y7238796D02*
G01*
X-9361227Y7235196D01*
X-9337429Y7229235D01*
X-9314329Y7220970D01*
X-9292151Y7210480D01*
X-9271107Y7197867D01*
X-9251402Y7183253D01*
X-9233223Y7166777D01*
X-9216747Y7148598D01*
X-9202133Y7128893D01*
X-9189520Y7107849D01*
X-9179030Y7085671D01*
X-9170765Y7062571D01*
X-9164804Y7038773D01*
X-9161204Y7014504D01*
X-9160000Y6990000D01*
X-9160000Y5790000D01*
X-9161204Y5765496D01*
X-9164804Y5741227D01*
X-9170765Y5717429D01*
X-9179030Y5694329D01*
X-9189520Y5672151D01*
X-9202133Y5651107D01*
X-9216747Y5631402D01*
X-9233223Y5613223D01*
X-9251402Y5596747D01*
X-9271107Y5582133D01*
X-9292151Y5569520D01*
X-9314329Y5559030D01*
X-9337429Y5550765D01*
X-9361227Y5544804D01*
X-9385496Y5541204D01*
X-9410000Y5540000D01*
X-10910000Y5540000D01*
X-10934504Y5541204D01*
X-10958773Y5544804D01*
X-10982571Y5550765D01*
X-11005671Y5559030D01*
X-11027849Y5569520D01*
X-11048893Y5582133D01*
X-11068598Y5596747D01*
X-11086777Y5613223D01*
X-11103253Y5631402D01*
X-11117867Y5651107D01*
X-11130480Y5672151D01*
X-11140970Y5694329D01*
X-11149235Y5717429D01*
X-11155196Y5741227D01*
X-11158796Y5765496D01*
X-11160000Y5790000D01*
X-11160000Y6990000D01*
X-11158796Y7014504D01*
X-11155196Y7038773D01*
X-11149235Y7062571D01*
X-11140970Y7085671D01*
X-11130480Y7107849D01*
X-11117867Y7128893D01*
X-11103253Y7148598D01*
X-11086777Y7166777D01*
X-11068598Y7183253D01*
X-11048893Y7197867D01*
X-11027849Y7210480D01*
X-11005671Y7220970D01*
X-10982571Y7229235D01*
X-10958773Y7235196D01*
X-10934504Y7238796D01*
X-10910000Y7240000D01*
X-9410000Y7240000D01*
X-9385496Y7238796D01*
X-9385496Y7238796D01*
G37*
D12*
X-10160000Y6390000D03*
D13*
X-10160000Y-1390000D03*
X-10160000Y-3890000D03*
X-10160000Y-6390000D03*
D11*
G36*
X-9410496Y-8041204D02*
G01*
X-9386227Y-8044804D01*
X-9362429Y-8050765D01*
X-9339329Y-8059030D01*
X-9317151Y-8069520D01*
X-9296107Y-8082133D01*
X-9276402Y-8096747D01*
X-9258223Y-8113223D01*
X-9241747Y-8131402D01*
X-9227133Y-8151107D01*
X-9214520Y-8172151D01*
X-9204030Y-8194329D01*
X-9195765Y-8217429D01*
X-9189804Y-8241227D01*
X-9186204Y-8265496D01*
X-9185000Y-8290000D01*
X-9185000Y-9490000D01*
X-9186204Y-9514504D01*
X-9189804Y-9538773D01*
X-9195765Y-9562571D01*
X-9204030Y-9585671D01*
X-9214520Y-9607849D01*
X-9227133Y-9628893D01*
X-9241747Y-9648598D01*
X-9258223Y-9666777D01*
X-9276402Y-9683253D01*
X-9296107Y-9697867D01*
X-9317151Y-9710480D01*
X-9339329Y-9720970D01*
X-9362429Y-9729235D01*
X-9386227Y-9735196D01*
X-9410496Y-9738796D01*
X-9435000Y-9740000D01*
X-10885000Y-9740000D01*
X-10909504Y-9738796D01*
X-10933773Y-9735196D01*
X-10957571Y-9729235D01*
X-10980671Y-9720970D01*
X-11002849Y-9710480D01*
X-11023893Y-9697867D01*
X-11043598Y-9683253D01*
X-11061777Y-9666777D01*
X-11078253Y-9648598D01*
X-11092867Y-9628893D01*
X-11105480Y-9607849D01*
X-11115970Y-9585671D01*
X-11124235Y-9562571D01*
X-11130196Y-9538773D01*
X-11133796Y-9514504D01*
X-11135000Y-9490000D01*
X-11135000Y-8290000D01*
X-11133796Y-8265496D01*
X-11130196Y-8241227D01*
X-11124235Y-8217429D01*
X-11115970Y-8194329D01*
X-11105480Y-8172151D01*
X-11092867Y-8151107D01*
X-11078253Y-8131402D01*
X-11061777Y-8113223D01*
X-11043598Y-8096747D01*
X-11023893Y-8082133D01*
X-11002849Y-8069520D01*
X-10980671Y-8059030D01*
X-10957571Y-8050765D01*
X-10933773Y-8044804D01*
X-10909504Y-8041204D01*
X-10885000Y-8040000D01*
X-9435000Y-8040000D01*
X-9410496Y-8041204D01*
X-9410496Y-8041204D01*
G37*
D12*
X-10160000Y-8890000D03*
D13*
X-17780000Y-1390000D03*
X-17780000Y-3890000D03*
X-17780000Y-6390000D03*
D11*
G36*
X-17030496Y-8041204D02*
G01*
X-17006227Y-8044804D01*
X-16982429Y-8050765D01*
X-16959329Y-8059030D01*
X-16937151Y-8069520D01*
X-16916107Y-8082133D01*
X-16896402Y-8096747D01*
X-16878223Y-8113223D01*
X-16861747Y-8131402D01*
X-16847133Y-8151107D01*
X-16834520Y-8172151D01*
X-16824030Y-8194329D01*
X-16815765Y-8217429D01*
X-16809804Y-8241227D01*
X-16806204Y-8265496D01*
X-16805000Y-8290000D01*
X-16805000Y-9490000D01*
X-16806204Y-9514504D01*
X-16809804Y-9538773D01*
X-16815765Y-9562571D01*
X-16824030Y-9585671D01*
X-16834520Y-9607849D01*
X-16847133Y-9628893D01*
X-16861747Y-9648598D01*
X-16878223Y-9666777D01*
X-16896402Y-9683253D01*
X-16916107Y-9697867D01*
X-16937151Y-9710480D01*
X-16959329Y-9720970D01*
X-16982429Y-9729235D01*
X-17006227Y-9735196D01*
X-17030496Y-9738796D01*
X-17055000Y-9740000D01*
X-18505000Y-9740000D01*
X-18529504Y-9738796D01*
X-18553773Y-9735196D01*
X-18577571Y-9729235D01*
X-18600671Y-9720970D01*
X-18622849Y-9710480D01*
X-18643893Y-9697867D01*
X-18663598Y-9683253D01*
X-18681777Y-9666777D01*
X-18698253Y-9648598D01*
X-18712867Y-9628893D01*
X-18725480Y-9607849D01*
X-18735970Y-9585671D01*
X-18744235Y-9562571D01*
X-18750196Y-9538773D01*
X-18753796Y-9514504D01*
X-18755000Y-9490000D01*
X-18755000Y-8290000D01*
X-18753796Y-8265496D01*
X-18750196Y-8241227D01*
X-18744235Y-8217429D01*
X-18735970Y-8194329D01*
X-18725480Y-8172151D01*
X-18712867Y-8151107D01*
X-18698253Y-8131402D01*
X-18681777Y-8113223D01*
X-18663598Y-8096747D01*
X-18643893Y-8082133D01*
X-18622849Y-8069520D01*
X-18600671Y-8059030D01*
X-18577571Y-8050765D01*
X-18553773Y-8044804D01*
X-18529504Y-8041204D01*
X-18505000Y-8040000D01*
X-17055000Y-8040000D01*
X-17030496Y-8041204D01*
X-17030496Y-8041204D01*
G37*
D12*
X-17780000Y-8890000D03*
D14*
X10160000Y2540000D03*
X12700000Y2540000D03*
X10160000Y0D03*
X12700000Y0D03*
X10160000Y-2540000D03*
D15*
X12700000Y-2540000D03*
D16*
X0Y-10000000D03*
X0Y10000000D03*
D17*
X8255000Y-4572000D03*
X9271000Y-4572000D03*
X10287000Y-4572000D03*
X508000Y254000D03*
X1524000Y254000D03*
X2540000Y254000D03*
D18*
X10287000Y-4572000D02*
X8255000Y-4572000D01*
X8255000Y-4572000D02*
X3429000Y254000D01*
X3429000Y254000D02*
X2286000Y254000D01*
X1397000Y254000D02*
X508000Y254000D01*
X2286000Y254000D02*
X1397000Y254000D01*
M02*
