G04 #@! TF.GenerationSoftware,KiCad,Pcbnew,(5.1.4)-1*
G04 #@! TF.CreationDate,2020-03-27T16:02:33-04:00*
G04 #@! TF.ProjectId,RGB_endstop_breakout,5247425f-656e-4647-9374-6f705f627265,rev?*
G04 #@! TF.SameCoordinates,PX8e18f40PY6422c40*
G04 #@! TF.FileFunction,Profile,NP*
%FSLAX46Y46*%
G04 Gerber Fmt 4.6, Leading zero omitted, Abs format (unit mm)*
G04 Created by KiCad (PCBNEW (5.1.4)-1) date 2020-03-27 16:02:33*
%MOMM*%
%LPD*%
G04 APERTURE LIST*
%ADD10C,0.304799*%
G04 APERTURE END LIST*
D10*
X-8616844Y-12000000D02*
G75*
G02X-6802771Y-13157894I1J-2000000D01*
G01*
X7499999Y-10000000D02*
G75*
G02X-6802771Y-13157894I-7499999J0D01*
G01*
X-23750000Y-12000000D02*
G75*
G02X-24000000Y-11750000I0J250000D01*
G01*
X-8616843Y-12000000D02*
X-23750000Y-12000000D01*
X-23750000Y1999999D02*
X-15000000Y1999999D01*
X-24000000Y1749999D02*
G75*
G02X-23750000Y1999999I250000J0D01*
G01*
X-24000000Y-11750000D02*
X-24000000Y1749999D01*
X-13000000Y3999999D02*
X-13000000Y11750000D01*
X-13000000Y3999999D02*
G75*
G02X-15000000Y1999999I-2000000J0D01*
G01*
X15999998Y-7749999D02*
G75*
G02X15750000Y-7999999I-249999J-1D01*
G01*
X15749999Y8000000D02*
G75*
G02X15999999Y7750000I0J-250000D01*
G01*
X9500000Y8000000D02*
X15750000Y8000000D01*
X9500000Y8000000D02*
G75*
G02X7500000Y10000000I0J2000000D01*
G01*
X-6802830Y13157769D02*
G75*
G02X7500000Y10000000I6802830J-3157769D01*
G01*
X-12750000Y12000000D02*
X-8616843Y12000000D01*
X-13000000Y11750000D02*
G75*
G02X-12750000Y12000000I250000J0D01*
G01*
X15999999Y7750000D02*
X15999999Y-7749999D01*
X-6802771Y13157894D02*
G75*
G02X-8616843Y12000000I-1814072J842105D01*
G01*
X7499999Y-10000000D02*
G75*
G02X9500000Y-7999999I2000001J0D01*
G01*
X15750000Y-7999999D02*
X9500000Y-7999999D01*
M02*
