G04 #@! TF.GenerationSoftware,KiCad,Pcbnew,(5.1.4)-1*
G04 #@! TF.CreationDate,2020-03-27T16:02:32-04:00*
G04 #@! TF.ProjectId,RGB_endstop_breakout,5247425f-656e-4647-9374-6f705f627265,rev?*
G04 #@! TF.SameCoordinates,PX8e18f40PY6422c40*
G04 #@! TF.FileFunction,Legend,Top*
G04 #@! TF.FilePolarity,Positive*
%FSLAX46Y46*%
G04 Gerber Fmt 4.6, Leading zero omitted, Abs format (unit mm)*
G04 Created by KiCad (PCBNEW (5.1.4)-1) date 2020-03-27 16:02:32*
%MOMM*%
%LPD*%
G04 APERTURE LIST*
%ADD10C,0.254000*%
%ADD11C,0.476250*%
%ADD12C,0.120000*%
%ADD13O,2.102000X1.802000*%
%ADD14C,0.100000*%
%ADD15C,1.802000*%
%ADD16O,2.052000X1.802000*%
%ADD17O,1.829200X1.829200*%
%ADD18R,1.829200X1.829200*%
%ADD19C,10.702000*%
G04 APERTURE END LIST*
D10*
X13223634Y-4445000D02*
G75*
G03X13223634Y-4445000I-523634J0D01*
G01*
D11*
X-22569715Y-9534071D02*
X-21118286Y-9534071D01*
X-21844000Y-10259785D02*
X-21844000Y-8808357D01*
X-21317858Y-4671785D02*
X-21952858Y-3764642D01*
X-22406429Y-4671785D02*
X-22406429Y-2766785D01*
X-21680715Y-2766785D01*
X-21499286Y-2857500D01*
X-21408572Y-2948214D01*
X-21317858Y-3129642D01*
X-21317858Y-3401785D01*
X-21408572Y-3583214D01*
X-21499286Y-3673928D01*
X-21680715Y-3764642D01*
X-22406429Y-3764642D01*
X-21408572Y-6032500D02*
X-21590000Y-5941785D01*
X-21862143Y-5941785D01*
X-22134286Y-6032500D01*
X-22315715Y-6213928D01*
X-22406429Y-6395357D01*
X-22497143Y-6758214D01*
X-22497143Y-7030357D01*
X-22406429Y-7393214D01*
X-22315715Y-7574642D01*
X-22134286Y-7756071D01*
X-21862143Y-7846785D01*
X-21680715Y-7846785D01*
X-21408572Y-7756071D01*
X-21317858Y-7665357D01*
X-21317858Y-7030357D01*
X-21680715Y-7030357D01*
X-21834929Y-498928D02*
X-21562786Y-589642D01*
X-21472072Y-680357D01*
X-21381358Y-861785D01*
X-21381358Y-1133928D01*
X-21472072Y-1315357D01*
X-21562786Y-1406071D01*
X-21744215Y-1496785D01*
X-22469929Y-1496785D01*
X-22469929Y408215D01*
X-21834929Y408215D01*
X-21653500Y317500D01*
X-21562786Y226786D01*
X-21472072Y45358D01*
X-21472072Y-136071D01*
X-21562786Y-317500D01*
X-21653500Y-408214D01*
X-21834929Y-498928D01*
X-22469929Y-498928D01*
D12*
X-12910000Y3540000D02*
X-11660000Y3540000D01*
X-12910000Y4790000D02*
X-12910000Y3540000D01*
X-7410000Y10690000D02*
X-7410000Y7640000D01*
X-10360000Y10690000D02*
X-7410000Y10690000D01*
X-10360000Y11440000D02*
X-10360000Y10690000D01*
X-7410000Y4590000D02*
X-7410000Y7640000D01*
X-10360000Y4590000D02*
X-7410000Y4590000D01*
X-10360000Y3840000D02*
X-10360000Y4590000D01*
X-12610000Y11440000D02*
X-12610000Y9640000D01*
X-11860000Y11440000D02*
X-12610000Y11440000D01*
X-11860000Y9640000D02*
X-11860000Y11440000D01*
X-12610000Y9640000D02*
X-11860000Y9640000D01*
X-12610000Y5640000D02*
X-12610000Y3840000D01*
X-11860000Y5640000D02*
X-12610000Y5640000D01*
X-11860000Y3840000D02*
X-11860000Y5640000D01*
X-12610000Y3840000D02*
X-11860000Y3840000D01*
X-12610000Y8140000D02*
X-12610000Y7140000D01*
X-11860000Y8140000D02*
X-12610000Y8140000D01*
X-11860000Y7140000D02*
X-11860000Y8140000D01*
X-12610000Y7140000D02*
X-11860000Y7140000D01*
X-12620000Y11450000D02*
X-12620000Y3830000D01*
X-6650000Y11450000D02*
X-12620000Y11450000D01*
X-6650000Y3830000D02*
X-6650000Y11450000D01*
X-12620000Y3830000D02*
X-6650000Y3830000D01*
X-12910000Y-11740000D02*
X-11660000Y-11740000D01*
X-12910000Y-10490000D02*
X-12910000Y-11740000D01*
X-7410000Y410000D02*
X-7410000Y-5140000D01*
X-10360000Y410000D02*
X-7410000Y410000D01*
X-10360000Y1160000D02*
X-10360000Y410000D01*
X-7410000Y-10690000D02*
X-7410000Y-5140000D01*
X-10360000Y-10690000D02*
X-7410000Y-10690000D01*
X-10360000Y-11440000D02*
X-10360000Y-10690000D01*
X-12610000Y1160000D02*
X-12610000Y-640000D01*
X-11860000Y1160000D02*
X-12610000Y1160000D01*
X-11860000Y-640000D02*
X-11860000Y1160000D01*
X-12610000Y-640000D02*
X-11860000Y-640000D01*
X-12610000Y-9640000D02*
X-12610000Y-11440000D01*
X-11860000Y-9640000D02*
X-12610000Y-9640000D01*
X-11860000Y-11440000D02*
X-11860000Y-9640000D01*
X-12610000Y-11440000D02*
X-11860000Y-11440000D01*
X-12610000Y-2140000D02*
X-12610000Y-8140000D01*
X-11860000Y-2140000D02*
X-12610000Y-2140000D01*
X-11860000Y-8140000D02*
X-11860000Y-2140000D01*
X-12610000Y-8140000D02*
X-11860000Y-8140000D01*
X-12620000Y1170000D02*
X-12620000Y-11450000D01*
X-6650000Y1170000D02*
X-12620000Y1170000D01*
X-6650000Y-11450000D02*
X-6650000Y1170000D01*
X-12620000Y-11450000D02*
X-6650000Y-11450000D01*
X-20530000Y-11740000D02*
X-19280000Y-11740000D01*
X-20530000Y-10490000D02*
X-20530000Y-11740000D01*
X-15030000Y410000D02*
X-15030000Y-5140000D01*
X-17980000Y410000D02*
X-15030000Y410000D01*
X-17980000Y1160000D02*
X-17980000Y410000D01*
X-15030000Y-10690000D02*
X-15030000Y-5140000D01*
X-17980000Y-10690000D02*
X-15030000Y-10690000D01*
X-17980000Y-11440000D02*
X-17980000Y-10690000D01*
X-20230000Y1160000D02*
X-20230000Y-640000D01*
X-19480000Y1160000D02*
X-20230000Y1160000D01*
X-19480000Y-640000D02*
X-19480000Y1160000D01*
X-20230000Y-640000D02*
X-19480000Y-640000D01*
X-20230000Y-9640000D02*
X-20230000Y-11440000D01*
X-19480000Y-9640000D02*
X-20230000Y-9640000D01*
X-19480000Y-11440000D02*
X-19480000Y-9640000D01*
X-20230000Y-11440000D02*
X-19480000Y-11440000D01*
X-20230000Y-2140000D02*
X-20230000Y-8140000D01*
X-19480000Y-2140000D02*
X-20230000Y-2140000D01*
X-19480000Y-8140000D02*
X-19480000Y-2140000D01*
X-20230000Y-8140000D02*
X-19480000Y-8140000D01*
X-20240000Y1170000D02*
X-20240000Y-11450000D01*
X-14270000Y1170000D02*
X-20240000Y1170000D01*
X-14270000Y-11450000D02*
X-14270000Y1170000D01*
X-20240000Y-11450000D02*
X-14270000Y-11450000D01*
X16355000Y-8140000D02*
X13815000Y-8140000D01*
X16355000Y-8140000D02*
X16355000Y-5600000D01*
X16105000Y-7890000D02*
X6755000Y-7890000D01*
X16105000Y7890000D02*
X16105000Y-7890000D01*
X6755000Y7890000D02*
X16105000Y7890000D01*
X6755000Y-7890000D02*
X6755000Y7890000D01*
%LPC*%
D13*
X-10160000Y8890000D03*
D14*
G36*
X-9348025Y7289724D02*
G01*
X-9322301Y7285908D01*
X-9297075Y7279589D01*
X-9272589Y7270828D01*
X-9249080Y7259709D01*
X-9226774Y7246339D01*
X-9205886Y7230848D01*
X-9186617Y7213383D01*
X-9169152Y7194114D01*
X-9153661Y7173226D01*
X-9140291Y7150920D01*
X-9129172Y7127411D01*
X-9120411Y7102925D01*
X-9114092Y7077699D01*
X-9110276Y7051975D01*
X-9109000Y7026000D01*
X-9109000Y5754000D01*
X-9110276Y5728025D01*
X-9114092Y5702301D01*
X-9120411Y5677075D01*
X-9129172Y5652589D01*
X-9140291Y5629080D01*
X-9153661Y5606774D01*
X-9169152Y5585886D01*
X-9186617Y5566617D01*
X-9205886Y5549152D01*
X-9226774Y5533661D01*
X-9249080Y5520291D01*
X-9272589Y5509172D01*
X-9297075Y5500411D01*
X-9322301Y5494092D01*
X-9348025Y5490276D01*
X-9374000Y5489000D01*
X-10946000Y5489000D01*
X-10971975Y5490276D01*
X-10997699Y5494092D01*
X-11022925Y5500411D01*
X-11047411Y5509172D01*
X-11070920Y5520291D01*
X-11093226Y5533661D01*
X-11114114Y5549152D01*
X-11133383Y5566617D01*
X-11150848Y5585886D01*
X-11166339Y5606774D01*
X-11179709Y5629080D01*
X-11190828Y5652589D01*
X-11199589Y5677075D01*
X-11205908Y5702301D01*
X-11209724Y5728025D01*
X-11211000Y5754000D01*
X-11211000Y7026000D01*
X-11209724Y7051975D01*
X-11205908Y7077699D01*
X-11199589Y7102925D01*
X-11190828Y7127411D01*
X-11179709Y7150920D01*
X-11166339Y7173226D01*
X-11150848Y7194114D01*
X-11133383Y7213383D01*
X-11114114Y7230848D01*
X-11093226Y7246339D01*
X-11070920Y7259709D01*
X-11047411Y7270828D01*
X-11022925Y7279589D01*
X-10997699Y7285908D01*
X-10971975Y7289724D01*
X-10946000Y7291000D01*
X-9374000Y7291000D01*
X-9348025Y7289724D01*
X-9348025Y7289724D01*
G37*
D15*
X-10160000Y6390000D03*
D16*
X-10160000Y-1390000D03*
X-10160000Y-3890000D03*
X-10160000Y-6390000D03*
D14*
G36*
X-9373025Y-7990276D02*
G01*
X-9347301Y-7994092D01*
X-9322075Y-8000411D01*
X-9297589Y-8009172D01*
X-9274080Y-8020291D01*
X-9251774Y-8033661D01*
X-9230886Y-8049152D01*
X-9211617Y-8066617D01*
X-9194152Y-8085886D01*
X-9178661Y-8106774D01*
X-9165291Y-8129080D01*
X-9154172Y-8152589D01*
X-9145411Y-8177075D01*
X-9139092Y-8202301D01*
X-9135276Y-8228025D01*
X-9134000Y-8254000D01*
X-9134000Y-9526000D01*
X-9135276Y-9551975D01*
X-9139092Y-9577699D01*
X-9145411Y-9602925D01*
X-9154172Y-9627411D01*
X-9165291Y-9650920D01*
X-9178661Y-9673226D01*
X-9194152Y-9694114D01*
X-9211617Y-9713383D01*
X-9230886Y-9730848D01*
X-9251774Y-9746339D01*
X-9274080Y-9759709D01*
X-9297589Y-9770828D01*
X-9322075Y-9779589D01*
X-9347301Y-9785908D01*
X-9373025Y-9789724D01*
X-9399000Y-9791000D01*
X-10921000Y-9791000D01*
X-10946975Y-9789724D01*
X-10972699Y-9785908D01*
X-10997925Y-9779589D01*
X-11022411Y-9770828D01*
X-11045920Y-9759709D01*
X-11068226Y-9746339D01*
X-11089114Y-9730848D01*
X-11108383Y-9713383D01*
X-11125848Y-9694114D01*
X-11141339Y-9673226D01*
X-11154709Y-9650920D01*
X-11165828Y-9627411D01*
X-11174589Y-9602925D01*
X-11180908Y-9577699D01*
X-11184724Y-9551975D01*
X-11186000Y-9526000D01*
X-11186000Y-8254000D01*
X-11184724Y-8228025D01*
X-11180908Y-8202301D01*
X-11174589Y-8177075D01*
X-11165828Y-8152589D01*
X-11154709Y-8129080D01*
X-11141339Y-8106774D01*
X-11125848Y-8085886D01*
X-11108383Y-8066617D01*
X-11089114Y-8049152D01*
X-11068226Y-8033661D01*
X-11045920Y-8020291D01*
X-11022411Y-8009172D01*
X-10997925Y-8000411D01*
X-10972699Y-7994092D01*
X-10946975Y-7990276D01*
X-10921000Y-7989000D01*
X-9399000Y-7989000D01*
X-9373025Y-7990276D01*
X-9373025Y-7990276D01*
G37*
D15*
X-10160000Y-8890000D03*
D16*
X-17780000Y-1390000D03*
X-17780000Y-3890000D03*
X-17780000Y-6390000D03*
D14*
G36*
X-16993025Y-7990276D02*
G01*
X-16967301Y-7994092D01*
X-16942075Y-8000411D01*
X-16917589Y-8009172D01*
X-16894080Y-8020291D01*
X-16871774Y-8033661D01*
X-16850886Y-8049152D01*
X-16831617Y-8066617D01*
X-16814152Y-8085886D01*
X-16798661Y-8106774D01*
X-16785291Y-8129080D01*
X-16774172Y-8152589D01*
X-16765411Y-8177075D01*
X-16759092Y-8202301D01*
X-16755276Y-8228025D01*
X-16754000Y-8254000D01*
X-16754000Y-9526000D01*
X-16755276Y-9551975D01*
X-16759092Y-9577699D01*
X-16765411Y-9602925D01*
X-16774172Y-9627411D01*
X-16785291Y-9650920D01*
X-16798661Y-9673226D01*
X-16814152Y-9694114D01*
X-16831617Y-9713383D01*
X-16850886Y-9730848D01*
X-16871774Y-9746339D01*
X-16894080Y-9759709D01*
X-16917589Y-9770828D01*
X-16942075Y-9779589D01*
X-16967301Y-9785908D01*
X-16993025Y-9789724D01*
X-17019000Y-9791000D01*
X-18541000Y-9791000D01*
X-18566975Y-9789724D01*
X-18592699Y-9785908D01*
X-18617925Y-9779589D01*
X-18642411Y-9770828D01*
X-18665920Y-9759709D01*
X-18688226Y-9746339D01*
X-18709114Y-9730848D01*
X-18728383Y-9713383D01*
X-18745848Y-9694114D01*
X-18761339Y-9673226D01*
X-18774709Y-9650920D01*
X-18785828Y-9627411D01*
X-18794589Y-9602925D01*
X-18800908Y-9577699D01*
X-18804724Y-9551975D01*
X-18806000Y-9526000D01*
X-18806000Y-8254000D01*
X-18804724Y-8228025D01*
X-18800908Y-8202301D01*
X-18794589Y-8177075D01*
X-18785828Y-8152589D01*
X-18774709Y-8129080D01*
X-18761339Y-8106774D01*
X-18745848Y-8085886D01*
X-18728383Y-8066617D01*
X-18709114Y-8049152D01*
X-18688226Y-8033661D01*
X-18665920Y-8020291D01*
X-18642411Y-8009172D01*
X-18617925Y-8000411D01*
X-18592699Y-7994092D01*
X-18566975Y-7990276D01*
X-18541000Y-7989000D01*
X-17019000Y-7989000D01*
X-16993025Y-7990276D01*
X-16993025Y-7990276D01*
G37*
D15*
X-17780000Y-8890000D03*
D17*
X10160000Y2540000D03*
X12700000Y2540000D03*
X10160000Y0D03*
X12700000Y0D03*
X10160000Y-2540000D03*
D18*
X12700000Y-2540000D03*
D19*
X0Y-10000000D03*
X0Y10000000D03*
M02*
