%MOIN*%
%OFA0B0*%
%FSLAX46Y46*%
%IPPOS*%
%LPD*%
%ADD10C,0.01*%
%ADD11C,0.015000000000000001*%
%ADD12C,0.0047244094488188976*%
%ADD13C,0.005905511811023622*%
%ADD14C,0.25596850393700787*%
%ADD15C,0.16148031496062995*%
%ADD16R,0.15360629921259844X0.15360629921259844*%
%ADD17C,0.0039370078740157488*%
%ADD18C,0.041401574803149613*%
%ADD19O,0.082740157480314963X0.070929133858267726*%
%ADD20C,0.070929133858267726*%
%ADD21O,0.070929133858267726X0.080771653543307093*%
%ADD22C,0.086677165354330718*%
%ADD23R,0.086677165354330718X0.086677165354330718*%
%ADD24O,0.072000000000000008X0.072000000000000008*%
%ADD25R,0.072000000000000008X0.072000000000000008*%
%ADD36C,0.01*%
%ADD37C,0.029527559055118113*%
%ADD38C,0.0047244094488188976*%
%ADD39C,0.0039370078740157488*%
%ADD40C,0.24023622047244098*%
%ADD41C,0.4213385826771654*%
%ADD42C,0.041417322834645671*%
%ADD43O,0.082755905511811029X0.070944881889763792*%
%ADD44C,0.070944881889763792*%
%ADD45O,0.07201574803149606X0.07201574803149606*%
%ADD46R,0.07201574803149606X0.07201574803149606*%
%ADD47C,0.00984251968503937*%
%ADD48C,0.01*%
%ADD49C,0.018750000000000003*%
%ADD50C,0.0047244094488188976*%
%ADD51O,0.082755905511811029X0.070944881889763792*%
%ADD52C,0.0039370078740157488*%
%ADD53C,0.070944881889763792*%
%ADD54O,0.080787401574803158X0.070944881889763792*%
%ADD55O,0.07201574803149606X0.07201574803149606*%
%ADD56R,0.07201574803149606X0.07201574803149606*%
%ADD57C,0.4213385826771654*%
%ADD58C,0.00984251968503937*%
%ADD59O,0.070929133858267726X0.070929133858267726*%
%ADD60R,0.070929133858267726X0.070929133858267726*%
%ADD61C,0.0039370078740157488*%
%ADD62C,0.0728976377952756*%
%ADD63C,0.09258267716535433*%
%ADD64C,0.047307086614173231*%
%ADD65C,0.01*%
%ADD66C,0.0047244094488188976*%
%ADD67O,0.082740157480314963X0.070929133858267726*%
%ADD68C,0.0039370078740157488*%
%ADD69C,0.070929133858267726*%
%ADD70O,0.080771653543307093X0.070929133858267726*%
%ADD71O,0.072000000000000008X0.072000000000000008*%
%ADD72R,0.072000000000000008X0.072000000000000008*%
%ADD73C,0.42132283464566928*%
%ADD74C,0.01199996062992126*%
%ADD75C,0.0047244094488188976*%
%ADD76C,0.15163779527559057*%
%ADD77C,0.0728976377952756*%
%ADD78C,0.082740157480314963*%
%ADD79O,0.070929133858267726X0.070929133858267726*%
%ADD80R,0.070929133858267726X0.070929133858267726*%
%ADD81C,0.01*%
%ADD82C,0.0047244094488188976*%
%ADD83O,0.082740157480314963X0.070929133858267726*%
%ADD84C,0.0039370078740157488*%
%ADD85C,0.070929133858267726*%
%ADD86O,0.080771653543307093X0.070929133858267726*%
%ADD87O,0.072000000000000008X0.072000000000000008*%
%ADD88R,0.072000000000000008X0.072000000000000008*%
%ADD89C,0.42132283464566928*%
D10*
X0003782086Y0001919291D02*
G75*
G03X0003782086Y0001919291I-0000025000D01*
G01*
X0003450181Y0000718577D02*
X0003410181Y0000718577D01*
X0003410181Y0000733815D01*
X0003412086Y0000737624D01*
X0003413991Y0000739529D01*
X0003417800Y0000741434D01*
X0003423515Y0000741434D01*
X0003427324Y0000739529D01*
X0003429229Y0000737624D01*
X0003431134Y0000733815D01*
X0003431134Y0000718577D01*
X0003429229Y0000771910D02*
X0003429229Y0000758577D01*
X0003450181Y0000758577D02*
X0003410181Y0000758577D01*
X0003410181Y0000777624D01*
X0003438753Y0000790958D02*
X0003438753Y0000810005D01*
X0003450181Y0000787148D02*
X0003410181Y0000800481D01*
X0003450181Y0000813815D01*
X0003450181Y0000827148D02*
X0003410181Y0000827148D01*
X0003450181Y0000850005D01*
X0003410181Y0000850005D01*
X0003230181Y0000712624D02*
X0003190181Y0000712624D01*
X0003209229Y0000712624D02*
X0003209229Y0000735481D01*
X0003230181Y0000735481D02*
X0003190181Y0000735481D01*
X0003209229Y0000767862D02*
X0003209229Y0000754529D01*
X0003230181Y0000754529D02*
X0003190181Y0000754529D01*
X0003190181Y0000773577D01*
X0003218753Y0000786910D02*
X0003218753Y0000805958D01*
X0003230181Y0000783100D02*
X0003190181Y0000796434D01*
X0003230181Y0000809767D01*
X0003230181Y0000823100D02*
X0003190181Y0000823100D01*
X0003230181Y0000845958D01*
X0003190181Y0000845958D01*
X0002995181Y0000722386D02*
X0002955181Y0000722386D01*
X0002974229Y0000722386D02*
X0002974229Y0000745243D01*
X0002995181Y0000745243D02*
X0002955181Y0000745243D01*
X0002974229Y0000764291D02*
X0002974229Y0000777624D01*
X0002995181Y0000783338D02*
X0002995181Y0000764291D01*
X0002955181Y0000764291D01*
X0002955181Y0000783338D01*
X0002983753Y0000798577D02*
X0002983753Y0000817624D01*
X0002995181Y0000794767D02*
X0002955181Y0000808100D01*
X0002995181Y0000821434D01*
X0002955181Y0000829053D02*
X0002955181Y0000851910D01*
X0002995181Y0000840481D02*
X0002955181Y0000840481D01*
D11*
X0002922086Y0001524291D02*
X0003702086Y0001524291D01*
X0003062086Y0001219291D02*
X0003842086Y0001219291D01*
X0003282086Y0001524291D02*
X0003282086Y0001219291D01*
X0002884229Y0001557148D02*
X0002855658Y0001557148D01*
X0002855658Y0001617148D01*
X0002904229Y0001557148D02*
X0002904229Y0001617148D01*
X0002932800Y0001557148D02*
X0002932800Y0001617148D01*
X0002952800Y0001574291D01*
X0002972800Y0001617148D01*
X0002972800Y0001557148D01*
X0003047086Y0001580005D02*
X0003092800Y0001580005D01*
X0003167086Y0001557148D02*
X0003167086Y0001617148D01*
X0003167086Y0001588577D02*
X0003201372Y0001588577D01*
X0003201372Y0001557148D02*
X0003201372Y0001617148D01*
X0003249943Y0001588577D02*
X0003229943Y0001588577D01*
X0003229943Y0001557148D02*
X0003229943Y0001617148D01*
X0003258515Y0001617148D01*
X0003278515Y0001574291D02*
X0003307086Y0001574291D01*
X0003272800Y0001557148D02*
X0003292800Y0001617148D01*
X0003312800Y0001557148D01*
X0003332800Y0001557148D02*
X0003332800Y0001617148D01*
X0003367086Y0001557148D01*
X0003367086Y0001617148D01*
X0003441372Y0001580005D02*
X0003487086Y0001580005D01*
X0003561372Y0001557148D02*
X0003561372Y0001617148D01*
X0003584229Y0001617148D01*
X0003589943Y0001614291D01*
X0003592800Y0001611434D01*
X0003595658Y0001605719D01*
X0003595658Y0001597148D01*
X0003592800Y0001591434D01*
X0003589943Y0001588577D01*
X0003584229Y0001585719D01*
X0003561372Y0001585719D01*
X0003641372Y0001588577D02*
X0003621372Y0001588577D01*
X0003621372Y0001557148D02*
X0003621372Y0001617148D01*
X0003649943Y0001617148D01*
X0003669943Y0001574291D02*
X0003698515Y0001574291D01*
X0003664229Y0001557148D02*
X0003684229Y0001617148D01*
X0003704229Y0001557148D01*
X0003724229Y0001557148D02*
X0003724229Y0001617148D01*
X0003758515Y0001557148D01*
X0003758515Y0001617148D01*
D12*
X0003188779Y0001313779D02*
X0003188779Y0001424803D01*
X0003188779Y0001424803D02*
X0003121850Y0001475984D01*
X0003188779Y0001313779D02*
X0003121850Y0001262598D01*
X0003121850Y0001475984D02*
X0002778543Y0001475984D01*
X0002778543Y0001262598D02*
X0002778543Y0001475984D01*
X0003121850Y0001262598D02*
X0002778543Y0001262598D01*
X0003075343Y0000724212D02*
X0003088829Y0000724212D01*
X0003075343Y0000764370D02*
X0003088829Y0000764370D01*
X0003525343Y0000724212D02*
X0003538829Y0000724212D01*
X0003525343Y0000764370D02*
X0003538829Y0000764370D01*
X0003300343Y0000724212D02*
X0003313829Y0000724212D01*
X0003300343Y0000764370D02*
X0003313829Y0000764370D01*
X0003323818Y0000882086D02*
X0003373031Y0000882086D01*
X0003323818Y0000931299D02*
X0003323818Y0000882086D01*
X0003540354Y0001163582D02*
X0003540354Y0001043503D01*
X0003424212Y0001163582D02*
X0003540354Y0001163582D01*
X0003424212Y0001193110D02*
X0003424212Y0001163582D01*
X0003540354Y0000923425D02*
X0003540354Y0001043503D01*
X0003424212Y0000923425D02*
X0003540354Y0000923425D01*
X0003424212Y0000893897D02*
X0003424212Y0000923425D01*
X0003335629Y0001193110D02*
X0003335629Y0001122244D01*
X0003365157Y0001193110D02*
X0003335629Y0001193110D01*
X0003365157Y0001122244D02*
X0003365157Y0001193110D01*
X0003335629Y0001122244D02*
X0003365157Y0001122244D01*
X0003335629Y0000964763D02*
X0003335629Y0000893897D01*
X0003365157Y0000964763D02*
X0003335629Y0000964763D01*
X0003365157Y0000893897D02*
X0003365157Y0000964763D01*
X0003335629Y0000893897D02*
X0003365157Y0000893897D01*
X0003335629Y0001063188D02*
X0003335629Y0001023818D01*
X0003365157Y0001063188D02*
X0003335629Y0001063188D01*
X0003365157Y0001023818D02*
X0003365157Y0001063188D01*
X0003335629Y0001023818D02*
X0003365157Y0001023818D01*
X0003335236Y0001193503D02*
X0003335236Y0000893503D01*
X0003570275Y0001193503D02*
X0003335236Y0001193503D01*
X0003570275Y0000893503D02*
X0003570275Y0001193503D01*
X0003335236Y0000893503D02*
X0003570275Y0000893503D01*
X0003598818Y0000882086D02*
X0003648031Y0000882086D01*
X0003598818Y0000931299D02*
X0003598818Y0000882086D01*
X0003815354Y0001163582D02*
X0003815354Y0001043503D01*
X0003699212Y0001163582D02*
X0003815354Y0001163582D01*
X0003699212Y0001193110D02*
X0003699212Y0001163582D01*
X0003815354Y0000923425D02*
X0003815354Y0001043503D01*
X0003699212Y0000923425D02*
X0003815354Y0000923425D01*
X0003699212Y0000893897D02*
X0003699212Y0000923425D01*
X0003610629Y0001193110D02*
X0003610629Y0001122244D01*
X0003640157Y0001193110D02*
X0003610629Y0001193110D01*
X0003640157Y0001122244D02*
X0003640157Y0001193110D01*
X0003610629Y0001122244D02*
X0003640157Y0001122244D01*
X0003610629Y0000964763D02*
X0003610629Y0000893897D01*
X0003640157Y0000964763D02*
X0003610629Y0000964763D01*
X0003640157Y0000893897D02*
X0003640157Y0000964763D01*
X0003610629Y0000893897D02*
X0003640157Y0000893897D01*
X0003610629Y0001063188D02*
X0003610629Y0001023818D01*
X0003640157Y0001063188D02*
X0003610629Y0001063188D01*
X0003640157Y0001023818D02*
X0003640157Y0001063188D01*
X0003610629Y0001023818D02*
X0003640157Y0001023818D01*
X0003610236Y0001193503D02*
X0003610236Y0000893503D01*
X0003845275Y0001193503D02*
X0003610236Y0001193503D01*
X0003845275Y0000893503D02*
X0003845275Y0001193503D01*
X0003610236Y0000893503D02*
X0003845275Y0000893503D01*
X0003048818Y0000882086D02*
X0003098031Y0000882086D01*
X0003048818Y0000931299D02*
X0003048818Y0000882086D01*
X0003265354Y0001163582D02*
X0003265354Y0001043503D01*
X0003149212Y0001163582D02*
X0003265354Y0001163582D01*
X0003149212Y0001193110D02*
X0003149212Y0001163582D01*
X0003265354Y0000923425D02*
X0003265354Y0001043503D01*
X0003149212Y0000923425D02*
X0003265354Y0000923425D01*
X0003149212Y0000893897D02*
X0003149212Y0000923425D01*
X0003060629Y0001193110D02*
X0003060629Y0001122244D01*
X0003090157Y0001193110D02*
X0003060629Y0001193110D01*
X0003090157Y0001122244D02*
X0003090157Y0001193110D01*
X0003060629Y0001122244D02*
X0003090157Y0001122244D01*
X0003060629Y0000964763D02*
X0003060629Y0000893897D01*
X0003090157Y0000964763D02*
X0003060629Y0000964763D01*
X0003090157Y0000893897D02*
X0003090157Y0000964763D01*
X0003060629Y0000893897D02*
X0003090157Y0000893897D01*
X0003060629Y0001063188D02*
X0003060629Y0001023818D01*
X0003090157Y0001063188D02*
X0003060629Y0001063188D01*
X0003090157Y0001023818D02*
X0003090157Y0001063188D01*
X0003060629Y0001023818D02*
X0003090157Y0001023818D01*
X0003060236Y0001193503D02*
X0003060236Y0000893503D01*
X0003295275Y0001193503D02*
X0003060236Y0001193503D01*
X0003295275Y0000893503D02*
X0003295275Y0001193503D01*
X0003060236Y0000893503D02*
X0003295275Y0000893503D01*
X0003844291Y0001236023D02*
X0003844291Y0001285236D01*
X0003795078Y0001236023D02*
X0003844291Y0001236023D01*
X0003365944Y0001452559D02*
X0003584448Y0001452559D01*
X0003365944Y0001336417D02*
X0003365944Y0001452559D01*
X0003336417Y0001336417D02*
X0003365944Y0001336417D01*
X0003802952Y0001452559D02*
X0003584448Y0001452559D01*
X0003802952Y0001336417D02*
X0003802952Y0001452559D01*
X0003832480Y0001336417D02*
X0003802952Y0001336417D01*
X0003336417Y0001247834D02*
X0003407283Y0001247834D01*
X0003336417Y0001277362D02*
X0003336417Y0001247834D01*
X0003407283Y0001277362D02*
X0003336417Y0001277362D01*
X0003407283Y0001247834D02*
X0003407283Y0001277362D01*
X0003761614Y0001247834D02*
X0003832480Y0001247834D01*
X0003761614Y0001277362D02*
X0003761614Y0001247834D01*
X0003832480Y0001277362D02*
X0003761614Y0001277362D01*
X0003832480Y0001247834D02*
X0003832480Y0001277362D01*
X0003466338Y0001247834D02*
X0003702559Y0001247834D01*
X0003466338Y0001277362D02*
X0003466338Y0001247834D01*
X0003702559Y0001277362D02*
X0003466338Y0001277362D01*
X0003702559Y0001247834D02*
X0003702559Y0001277362D01*
X0003336023Y0001247440D02*
X0003832874Y0001247440D01*
X0003336023Y0001482480D02*
X0003336023Y0001247440D01*
X0003832874Y0001482480D02*
X0003336023Y0001482480D01*
X0003832874Y0001247440D02*
X0003832874Y0001482480D01*
X0002739960Y0001167519D02*
X0002739960Y0001151771D01*
X0002765157Y0001167519D02*
X0002739960Y0001167519D01*
X0003014763Y0000930511D02*
X0002749409Y0000930511D01*
X0003014763Y0001158070D02*
X0002749409Y0001158070D01*
X0002749409Y0001158070D02*
X0002749409Y0000930511D01*
X0003014763Y0001158070D02*
X0003014763Y0000930511D01*
X0002970669Y0001158070D02*
X0002970669Y0000930511D01*
X0002769881Y0001158070D02*
X0002769881Y0000930511D01*
X0003877559Y0002058070D02*
X0003877559Y0001958070D01*
X0003877559Y0002058070D02*
X0003777559Y0002058070D01*
X0003867716Y0002048228D02*
X0003867716Y0001680118D01*
X0002746456Y0002048228D02*
X0003867716Y0002048228D01*
X0002746456Y0001680118D02*
X0002746456Y0002048228D01*
X0003867716Y0001680118D02*
X0002746456Y0001680118D01*
X0003147440Y0000848228D02*
X0003050590Y0000848228D01*
X0003147440Y0000790354D02*
X0003147440Y0000848228D01*
X0003050590Y0000790354D02*
X0003147440Y0000790354D01*
X0003597440Y0000848228D02*
X0003500590Y0000848228D01*
X0003597440Y0000790354D02*
X0003597440Y0000848228D01*
X0003500590Y0000790354D02*
X0003597440Y0000790354D01*
X0003372440Y0000848228D02*
X0003275590Y0000848228D01*
X0003372440Y0000790354D02*
X0003372440Y0000848228D01*
X0003275590Y0000790354D02*
X0003372440Y0000790354D01*
D13*
X0003217069Y0001365073D02*
X0003262064Y0001365073D01*
X0002705258Y0001365073D02*
X0002750253Y0001365073D01*
X0002727755Y0001342575D02*
X0002727755Y0001387570D01*
%LPC*%
D14*
X0003661417Y0002421259D03*
X0002952755Y0002421259D03*
D15*
X0002885236Y0001369291D03*
D16*
X0003082086Y0001369291D03*
D17*
G36*
X0003129868Y0000764942D02*
G01*
X0003130873Y0000764793D01*
X0003131858Y0000764546D01*
X0003132815Y0000764204D01*
X0003133733Y0000763769D01*
X0003134604Y0000763247D01*
X0003135420Y0000762642D01*
X0003136173Y0000761960D01*
X0003136855Y0000761207D01*
X0003137460Y0000760392D01*
X0003137982Y0000759520D01*
X0003138416Y0000758602D01*
X0003138759Y0000757646D01*
X0003139005Y0000756660D01*
X0003139154Y0000755656D01*
X0003139204Y0000754641D01*
X0003139204Y0000733940D01*
X0003139154Y0000732926D01*
X0003139005Y0000731921D01*
X0003138759Y0000730936D01*
X0003138416Y0000729980D01*
X0003137982Y0000729061D01*
X0003137460Y0000728190D01*
X0003136855Y0000727374D01*
X0003136173Y0000726622D01*
X0003135420Y0000725940D01*
X0003134604Y0000725334D01*
X0003133733Y0000724812D01*
X0003132815Y0000724378D01*
X0003131858Y0000724036D01*
X0003130873Y0000723789D01*
X0003129868Y0000723640D01*
X0003128854Y0000723590D01*
X0003104216Y0000723590D01*
X0003103202Y0000723640D01*
X0003102197Y0000723789D01*
X0003101211Y0000724036D01*
X0003100255Y0000724378D01*
X0003099337Y0000724812D01*
X0003098466Y0000725334D01*
X0003097650Y0000725940D01*
X0003096897Y0000726622D01*
X0003096215Y0000727374D01*
X0003095610Y0000728190D01*
X0003095088Y0000729061D01*
X0003094654Y0000729980D01*
X0003094311Y0000730936D01*
X0003094065Y0000731921D01*
X0003093915Y0000732926D01*
X0003093866Y0000733940D01*
X0003093866Y0000754641D01*
X0003093915Y0000755656D01*
X0003094065Y0000756660D01*
X0003094311Y0000757646D01*
X0003094654Y0000758602D01*
X0003095088Y0000759520D01*
X0003095610Y0000760392D01*
X0003096215Y0000761207D01*
X0003096897Y0000761960D01*
X0003097650Y0000762642D01*
X0003098466Y0000763247D01*
X0003099337Y0000763769D01*
X0003100255Y0000764204D01*
X0003101211Y0000764546D01*
X0003102197Y0000764793D01*
X0003103202Y0000764942D01*
X0003104216Y0000764992D01*
X0003128854Y0000764992D01*
X0003129868Y0000764942D01*
X0003129868Y0000764942D01*
G37*
D18*
X0003116535Y0000744291D03*
D17*
G36*
X0003060971Y0000764942D02*
G01*
X0003061975Y0000764793D01*
X0003062961Y0000764546D01*
X0003063917Y0000764204D01*
X0003064835Y0000763769D01*
X0003065707Y0000763247D01*
X0003066522Y0000762642D01*
X0003067275Y0000761960D01*
X0003067957Y0000761207D01*
X0003068562Y0000760392D01*
X0003069084Y0000759520D01*
X0003069519Y0000758602D01*
X0003069861Y0000757646D01*
X0003070108Y0000756660D01*
X0003070257Y0000755656D01*
X0003070307Y0000754641D01*
X0003070307Y0000733940D01*
X0003070257Y0000732926D01*
X0003070108Y0000731921D01*
X0003069861Y0000730936D01*
X0003069519Y0000729980D01*
X0003069084Y0000729061D01*
X0003068562Y0000728190D01*
X0003067957Y0000727374D01*
X0003067275Y0000726622D01*
X0003066522Y0000725940D01*
X0003065707Y0000725334D01*
X0003064835Y0000724812D01*
X0003063917Y0000724378D01*
X0003062961Y0000724036D01*
X0003061975Y0000723789D01*
X0003060971Y0000723640D01*
X0003059956Y0000723590D01*
X0003035318Y0000723590D01*
X0003034304Y0000723640D01*
X0003033299Y0000723789D01*
X0003032314Y0000724036D01*
X0003031357Y0000724378D01*
X0003030439Y0000724812D01*
X0003029568Y0000725334D01*
X0003028752Y0000725940D01*
X0003028000Y0000726622D01*
X0003027317Y0000727374D01*
X0003026712Y0000728190D01*
X0003026190Y0000729061D01*
X0003025756Y0000729980D01*
X0003025414Y0000730936D01*
X0003025167Y0000731921D01*
X0003025018Y0000732926D01*
X0003024968Y0000733940D01*
X0003024968Y0000754641D01*
X0003025018Y0000755656D01*
X0003025167Y0000756660D01*
X0003025414Y0000757646D01*
X0003025756Y0000758602D01*
X0003026190Y0000759520D01*
X0003026712Y0000760392D01*
X0003027317Y0000761207D01*
X0003028000Y0000761960D01*
X0003028752Y0000762642D01*
X0003029568Y0000763247D01*
X0003030439Y0000763769D01*
X0003031357Y0000764204D01*
X0003032314Y0000764546D01*
X0003033299Y0000764793D01*
X0003034304Y0000764942D01*
X0003035318Y0000764992D01*
X0003059956Y0000764992D01*
X0003060971Y0000764942D01*
X0003060971Y0000764942D01*
G37*
D18*
X0003047637Y0000744291D03*
D17*
G36*
X0003579868Y0000764942D02*
G01*
X0003580873Y0000764793D01*
X0003581858Y0000764546D01*
X0003582815Y0000764204D01*
X0003583733Y0000763769D01*
X0003584604Y0000763247D01*
X0003585420Y0000762642D01*
X0003586173Y0000761960D01*
X0003586855Y0000761207D01*
X0003587460Y0000760392D01*
X0003587982Y0000759520D01*
X0003588416Y0000758602D01*
X0003588759Y0000757646D01*
X0003589005Y0000756660D01*
X0003589154Y0000755656D01*
X0003589204Y0000754641D01*
X0003589204Y0000733940D01*
X0003589154Y0000732926D01*
X0003589005Y0000731921D01*
X0003588759Y0000730936D01*
X0003588416Y0000729980D01*
X0003587982Y0000729061D01*
X0003587460Y0000728190D01*
X0003586855Y0000727374D01*
X0003586173Y0000726622D01*
X0003585420Y0000725940D01*
X0003584604Y0000725334D01*
X0003583733Y0000724812D01*
X0003582815Y0000724378D01*
X0003581858Y0000724036D01*
X0003580873Y0000723789D01*
X0003579868Y0000723640D01*
X0003578854Y0000723590D01*
X0003554216Y0000723590D01*
X0003553202Y0000723640D01*
X0003552197Y0000723789D01*
X0003551211Y0000724036D01*
X0003550255Y0000724378D01*
X0003549337Y0000724812D01*
X0003548466Y0000725334D01*
X0003547650Y0000725940D01*
X0003546897Y0000726622D01*
X0003546215Y0000727374D01*
X0003545610Y0000728190D01*
X0003545088Y0000729061D01*
X0003544654Y0000729980D01*
X0003544311Y0000730936D01*
X0003544065Y0000731921D01*
X0003543915Y0000732926D01*
X0003543866Y0000733940D01*
X0003543866Y0000754641D01*
X0003543915Y0000755656D01*
X0003544065Y0000756660D01*
X0003544311Y0000757646D01*
X0003544654Y0000758602D01*
X0003545088Y0000759520D01*
X0003545610Y0000760392D01*
X0003546215Y0000761207D01*
X0003546897Y0000761960D01*
X0003547650Y0000762642D01*
X0003548466Y0000763247D01*
X0003549337Y0000763769D01*
X0003550255Y0000764204D01*
X0003551211Y0000764546D01*
X0003552197Y0000764793D01*
X0003553202Y0000764942D01*
X0003554216Y0000764992D01*
X0003578854Y0000764992D01*
X0003579868Y0000764942D01*
X0003579868Y0000764942D01*
G37*
D18*
X0003566535Y0000744291D03*
D17*
G36*
X0003510971Y0000764942D02*
G01*
X0003511975Y0000764793D01*
X0003512961Y0000764546D01*
X0003513917Y0000764204D01*
X0003514835Y0000763769D01*
X0003515707Y0000763247D01*
X0003516522Y0000762642D01*
X0003517275Y0000761960D01*
X0003517957Y0000761207D01*
X0003518562Y0000760392D01*
X0003519084Y0000759520D01*
X0003519519Y0000758602D01*
X0003519861Y0000757646D01*
X0003520108Y0000756660D01*
X0003520257Y0000755656D01*
X0003520307Y0000754641D01*
X0003520307Y0000733940D01*
X0003520257Y0000732926D01*
X0003520108Y0000731921D01*
X0003519861Y0000730936D01*
X0003519519Y0000729980D01*
X0003519084Y0000729061D01*
X0003518562Y0000728190D01*
X0003517957Y0000727374D01*
X0003517275Y0000726622D01*
X0003516522Y0000725940D01*
X0003515707Y0000725334D01*
X0003514835Y0000724812D01*
X0003513917Y0000724378D01*
X0003512961Y0000724036D01*
X0003511975Y0000723789D01*
X0003510971Y0000723640D01*
X0003509956Y0000723590D01*
X0003485318Y0000723590D01*
X0003484304Y0000723640D01*
X0003483299Y0000723789D01*
X0003482314Y0000724036D01*
X0003481357Y0000724378D01*
X0003480439Y0000724812D01*
X0003479568Y0000725334D01*
X0003478752Y0000725940D01*
X0003478000Y0000726622D01*
X0003477317Y0000727374D01*
X0003476712Y0000728190D01*
X0003476190Y0000729061D01*
X0003475756Y0000729980D01*
X0003475414Y0000730936D01*
X0003475167Y0000731921D01*
X0003475018Y0000732926D01*
X0003474968Y0000733940D01*
X0003474968Y0000754641D01*
X0003475018Y0000755656D01*
X0003475167Y0000756660D01*
X0003475414Y0000757646D01*
X0003475756Y0000758602D01*
X0003476190Y0000759520D01*
X0003476712Y0000760392D01*
X0003477317Y0000761207D01*
X0003478000Y0000761960D01*
X0003478752Y0000762642D01*
X0003479568Y0000763247D01*
X0003480439Y0000763769D01*
X0003481357Y0000764204D01*
X0003482314Y0000764546D01*
X0003483299Y0000764793D01*
X0003484304Y0000764942D01*
X0003485318Y0000764992D01*
X0003509956Y0000764992D01*
X0003510971Y0000764942D01*
X0003510971Y0000764942D01*
G37*
D18*
X0003497637Y0000744291D03*
D17*
G36*
X0003354868Y0000764942D02*
G01*
X0003355873Y0000764793D01*
X0003356858Y0000764546D01*
X0003357815Y0000764204D01*
X0003358733Y0000763769D01*
X0003359604Y0000763247D01*
X0003360420Y0000762642D01*
X0003361173Y0000761960D01*
X0003361855Y0000761207D01*
X0003362460Y0000760392D01*
X0003362982Y0000759520D01*
X0003363416Y0000758602D01*
X0003363759Y0000757646D01*
X0003364005Y0000756660D01*
X0003364154Y0000755656D01*
X0003364204Y0000754641D01*
X0003364204Y0000733940D01*
X0003364154Y0000732926D01*
X0003364005Y0000731921D01*
X0003363759Y0000730936D01*
X0003363416Y0000729980D01*
X0003362982Y0000729061D01*
X0003362460Y0000728190D01*
X0003361855Y0000727374D01*
X0003361173Y0000726622D01*
X0003360420Y0000725940D01*
X0003359604Y0000725334D01*
X0003358733Y0000724812D01*
X0003357815Y0000724378D01*
X0003356858Y0000724036D01*
X0003355873Y0000723789D01*
X0003354868Y0000723640D01*
X0003353854Y0000723590D01*
X0003329216Y0000723590D01*
X0003328202Y0000723640D01*
X0003327197Y0000723789D01*
X0003326211Y0000724036D01*
X0003325255Y0000724378D01*
X0003324337Y0000724812D01*
X0003323466Y0000725334D01*
X0003322650Y0000725940D01*
X0003321897Y0000726622D01*
X0003321215Y0000727374D01*
X0003320610Y0000728190D01*
X0003320088Y0000729061D01*
X0003319654Y0000729980D01*
X0003319311Y0000730936D01*
X0003319065Y0000731921D01*
X0003318915Y0000732926D01*
X0003318866Y0000733940D01*
X0003318866Y0000754641D01*
X0003318915Y0000755656D01*
X0003319065Y0000756660D01*
X0003319311Y0000757646D01*
X0003319654Y0000758602D01*
X0003320088Y0000759520D01*
X0003320610Y0000760392D01*
X0003321215Y0000761207D01*
X0003321897Y0000761960D01*
X0003322650Y0000762642D01*
X0003323466Y0000763247D01*
X0003324337Y0000763769D01*
X0003325255Y0000764204D01*
X0003326211Y0000764546D01*
X0003327197Y0000764793D01*
X0003328202Y0000764942D01*
X0003329216Y0000764992D01*
X0003353854Y0000764992D01*
X0003354868Y0000764942D01*
X0003354868Y0000764942D01*
G37*
D18*
X0003341535Y0000744291D03*
D17*
G36*
X0003285971Y0000764942D02*
G01*
X0003286975Y0000764793D01*
X0003287961Y0000764546D01*
X0003288917Y0000764204D01*
X0003289835Y0000763769D01*
X0003290707Y0000763247D01*
X0003291522Y0000762642D01*
X0003292275Y0000761960D01*
X0003292957Y0000761207D01*
X0003293562Y0000760392D01*
X0003294084Y0000759520D01*
X0003294519Y0000758602D01*
X0003294861Y0000757646D01*
X0003295108Y0000756660D01*
X0003295257Y0000755656D01*
X0003295307Y0000754641D01*
X0003295307Y0000733940D01*
X0003295257Y0000732926D01*
X0003295108Y0000731921D01*
X0003294861Y0000730936D01*
X0003294519Y0000729980D01*
X0003294084Y0000729061D01*
X0003293562Y0000728190D01*
X0003292957Y0000727374D01*
X0003292275Y0000726622D01*
X0003291522Y0000725940D01*
X0003290707Y0000725334D01*
X0003289835Y0000724812D01*
X0003288917Y0000724378D01*
X0003287961Y0000724036D01*
X0003286975Y0000723789D01*
X0003285971Y0000723640D01*
X0003284956Y0000723590D01*
X0003260318Y0000723590D01*
X0003259304Y0000723640D01*
X0003258299Y0000723789D01*
X0003257314Y0000724036D01*
X0003256357Y0000724378D01*
X0003255439Y0000724812D01*
X0003254568Y0000725334D01*
X0003253752Y0000725940D01*
X0003253000Y0000726622D01*
X0003252317Y0000727374D01*
X0003251712Y0000728190D01*
X0003251190Y0000729061D01*
X0003250756Y0000729980D01*
X0003250414Y0000730936D01*
X0003250167Y0000731921D01*
X0003250018Y0000732926D01*
X0003249968Y0000733940D01*
X0003249968Y0000754641D01*
X0003250018Y0000755656D01*
X0003250167Y0000756660D01*
X0003250414Y0000757646D01*
X0003250756Y0000758602D01*
X0003251190Y0000759520D01*
X0003251712Y0000760392D01*
X0003252317Y0000761207D01*
X0003253000Y0000761960D01*
X0003253752Y0000762642D01*
X0003254568Y0000763247D01*
X0003255439Y0000763769D01*
X0003256357Y0000764204D01*
X0003257314Y0000764546D01*
X0003258299Y0000764793D01*
X0003259304Y0000764942D01*
X0003260318Y0000764992D01*
X0003284956Y0000764992D01*
X0003285971Y0000764942D01*
X0003285971Y0000764942D01*
G37*
D18*
X0003272637Y0000744291D03*
D19*
X0003432086Y0001092716D03*
D17*
G36*
X0003464048Y0001029705D02*
G01*
X0003465060Y0001029555D01*
X0003466053Y0001029306D01*
X0003467017Y0001028961D01*
X0003467942Y0001028524D01*
X0003468820Y0001027997D01*
X0003469643Y0001027388D01*
X0003470401Y0001026700D01*
X0003471089Y0001025942D01*
X0003471698Y0001025120D01*
X0003472225Y0001024242D01*
X0003472662Y0001023316D01*
X0003473007Y0001022353D01*
X0003473256Y0001021360D01*
X0003473406Y0001020347D01*
X0003473456Y0001019325D01*
X0003473456Y0000969257D01*
X0003473406Y0000968235D01*
X0003473256Y0000967222D01*
X0003473007Y0000966229D01*
X0003472662Y0000965265D01*
X0003472225Y0000964340D01*
X0003471698Y0000963462D01*
X0003471089Y0000962640D01*
X0003470401Y0000961881D01*
X0003469643Y0000961194D01*
X0003468820Y0000960584D01*
X0003467942Y0000960058D01*
X0003467017Y0000959620D01*
X0003466053Y0000959275D01*
X0003465060Y0000959027D01*
X0003464048Y0000958877D01*
X0003463025Y0000958826D01*
X0003401147Y0000958826D01*
X0003400124Y0000958877D01*
X0003399112Y0000959027D01*
X0003398119Y0000959275D01*
X0003397155Y0000959620D01*
X0003396230Y0000960058D01*
X0003395352Y0000960584D01*
X0003394530Y0000961194D01*
X0003393771Y0000961881D01*
X0003393084Y0000962640D01*
X0003392474Y0000963462D01*
X0003391948Y0000964340D01*
X0003391510Y0000965265D01*
X0003391165Y0000966229D01*
X0003390916Y0000967222D01*
X0003390766Y0000968235D01*
X0003390716Y0000969257D01*
X0003390716Y0001019325D01*
X0003390766Y0001020347D01*
X0003390916Y0001021360D01*
X0003391165Y0001022353D01*
X0003391510Y0001023316D01*
X0003391948Y0001024242D01*
X0003392474Y0001025120D01*
X0003393084Y0001025942D01*
X0003393771Y0001026700D01*
X0003394530Y0001027388D01*
X0003395352Y0001027997D01*
X0003396230Y0001028524D01*
X0003397155Y0001028961D01*
X0003398119Y0001029306D01*
X0003399112Y0001029555D01*
X0003400124Y0001029705D01*
X0003401147Y0001029755D01*
X0003463025Y0001029755D01*
X0003464048Y0001029705D01*
X0003464048Y0001029705D01*
G37*
D20*
X0003432086Y0000994291D03*
D19*
X0003707086Y0001092716D03*
D17*
G36*
X0003739048Y0001029705D02*
G01*
X0003740060Y0001029555D01*
X0003741053Y0001029306D01*
X0003742017Y0001028961D01*
X0003742942Y0001028524D01*
X0003743820Y0001027997D01*
X0003744643Y0001027388D01*
X0003745401Y0001026700D01*
X0003746089Y0001025942D01*
X0003746698Y0001025120D01*
X0003747225Y0001024242D01*
X0003747662Y0001023316D01*
X0003748007Y0001022353D01*
X0003748256Y0001021360D01*
X0003748406Y0001020347D01*
X0003748456Y0001019325D01*
X0003748456Y0000969257D01*
X0003748406Y0000968235D01*
X0003748256Y0000967222D01*
X0003748007Y0000966229D01*
X0003747662Y0000965265D01*
X0003747225Y0000964340D01*
X0003746698Y0000963462D01*
X0003746089Y0000962640D01*
X0003745401Y0000961881D01*
X0003744643Y0000961194D01*
X0003743820Y0000960584D01*
X0003742942Y0000960058D01*
X0003742017Y0000959620D01*
X0003741053Y0000959275D01*
X0003740060Y0000959027D01*
X0003739048Y0000958877D01*
X0003738025Y0000958826D01*
X0003676147Y0000958826D01*
X0003675124Y0000958877D01*
X0003674112Y0000959027D01*
X0003673119Y0000959275D01*
X0003672155Y0000959620D01*
X0003671230Y0000960058D01*
X0003670352Y0000960584D01*
X0003669530Y0000961194D01*
X0003668771Y0000961881D01*
X0003668084Y0000962640D01*
X0003667474Y0000963462D01*
X0003666948Y0000964340D01*
X0003666510Y0000965265D01*
X0003666165Y0000966229D01*
X0003665916Y0000967222D01*
X0003665766Y0000968235D01*
X0003665716Y0000969257D01*
X0003665716Y0001019325D01*
X0003665766Y0001020347D01*
X0003665916Y0001021360D01*
X0003666165Y0001022353D01*
X0003666510Y0001023316D01*
X0003666948Y0001024242D01*
X0003667474Y0001025120D01*
X0003668084Y0001025942D01*
X0003668771Y0001026700D01*
X0003669530Y0001027388D01*
X0003670352Y0001027997D01*
X0003671230Y0001028524D01*
X0003672155Y0001028961D01*
X0003673119Y0001029306D01*
X0003674112Y0001029555D01*
X0003675124Y0001029705D01*
X0003676147Y0001029755D01*
X0003738025Y0001029755D01*
X0003739048Y0001029705D01*
X0003739048Y0001029705D01*
G37*
D20*
X0003707086Y0000994291D03*
D19*
X0003157086Y0001092716D03*
D17*
G36*
X0003189048Y0001029705D02*
G01*
X0003190060Y0001029555D01*
X0003191053Y0001029306D01*
X0003192017Y0001028961D01*
X0003192942Y0001028524D01*
X0003193820Y0001027997D01*
X0003194643Y0001027388D01*
X0003195401Y0001026700D01*
X0003196089Y0001025942D01*
X0003196698Y0001025120D01*
X0003197225Y0001024242D01*
X0003197662Y0001023316D01*
X0003198007Y0001022353D01*
X0003198256Y0001021360D01*
X0003198406Y0001020347D01*
X0003198456Y0001019325D01*
X0003198456Y0000969257D01*
X0003198406Y0000968235D01*
X0003198256Y0000967222D01*
X0003198007Y0000966229D01*
X0003197662Y0000965265D01*
X0003197225Y0000964340D01*
X0003196698Y0000963462D01*
X0003196089Y0000962640D01*
X0003195401Y0000961881D01*
X0003194643Y0000961194D01*
X0003193820Y0000960584D01*
X0003192942Y0000960058D01*
X0003192017Y0000959620D01*
X0003191053Y0000959275D01*
X0003190060Y0000959027D01*
X0003189048Y0000958877D01*
X0003188025Y0000958826D01*
X0003126147Y0000958826D01*
X0003125124Y0000958877D01*
X0003124112Y0000959027D01*
X0003123119Y0000959275D01*
X0003122155Y0000959620D01*
X0003121230Y0000960058D01*
X0003120352Y0000960584D01*
X0003119530Y0000961194D01*
X0003118771Y0000961881D01*
X0003118084Y0000962640D01*
X0003117474Y0000963462D01*
X0003116948Y0000964340D01*
X0003116510Y0000965265D01*
X0003116165Y0000966229D01*
X0003115916Y0000967222D01*
X0003115766Y0000968235D01*
X0003115716Y0000969257D01*
X0003115716Y0001019325D01*
X0003115766Y0001020347D01*
X0003115916Y0001021360D01*
X0003116165Y0001022353D01*
X0003116510Y0001023316D01*
X0003116948Y0001024242D01*
X0003117474Y0001025120D01*
X0003118084Y0001025942D01*
X0003118771Y0001026700D01*
X0003119530Y0001027388D01*
X0003120352Y0001027997D01*
X0003121230Y0001028524D01*
X0003122155Y0001028961D01*
X0003123119Y0001029306D01*
X0003124112Y0001029555D01*
X0003125124Y0001029705D01*
X0003126147Y0001029755D01*
X0003188025Y0001029755D01*
X0003189048Y0001029705D01*
X0003189048Y0001029705D01*
G37*
D20*
X0003157086Y0000994291D03*
D21*
X0003436811Y0001344291D03*
X0003535236Y0001344291D03*
X0003633661Y0001344291D03*
D17*
G36*
X0003758142Y0001384626D02*
G01*
X0003759155Y0001384476D01*
X0003760148Y0001384228D01*
X0003761112Y0001383883D01*
X0003762037Y0001383445D01*
X0003762915Y0001382919D01*
X0003763737Y0001382309D01*
X0003764496Y0001381622D01*
X0003765183Y0001380863D01*
X0003765793Y0001380041D01*
X0003766319Y0001379163D01*
X0003766757Y0001378238D01*
X0003767102Y0001377274D01*
X0003767350Y0001376281D01*
X0003767500Y0001375268D01*
X0003767551Y0001374246D01*
X0003767551Y0001314336D01*
X0003767500Y0001313313D01*
X0003767350Y0001312301D01*
X0003767102Y0001311308D01*
X0003766757Y0001310344D01*
X0003766319Y0001309419D01*
X0003765793Y0001308541D01*
X0003765183Y0001307719D01*
X0003764496Y0001306960D01*
X0003763737Y0001306273D01*
X0003762915Y0001305663D01*
X0003762037Y0001305137D01*
X0003761112Y0001304699D01*
X0003760148Y0001304354D01*
X0003759155Y0001304105D01*
X0003758142Y0001303955D01*
X0003757120Y0001303905D01*
X0003707052Y0001303905D01*
X0003706030Y0001303955D01*
X0003705017Y0001304105D01*
X0003704024Y0001304354D01*
X0003703061Y0001304699D01*
X0003702135Y0001305137D01*
X0003701257Y0001305663D01*
X0003700435Y0001306273D01*
X0003699677Y0001306960D01*
X0003698989Y0001307719D01*
X0003698379Y0001308541D01*
X0003697853Y0001309419D01*
X0003697416Y0001310344D01*
X0003697071Y0001311308D01*
X0003696822Y0001312301D01*
X0003696672Y0001313313D01*
X0003696622Y0001314336D01*
X0003696622Y0001374246D01*
X0003696672Y0001375268D01*
X0003696822Y0001376281D01*
X0003697071Y0001377274D01*
X0003697416Y0001378238D01*
X0003697853Y0001379163D01*
X0003698379Y0001380041D01*
X0003698989Y0001380863D01*
X0003699677Y0001381622D01*
X0003700435Y0001382309D01*
X0003701257Y0001382919D01*
X0003702135Y0001383445D01*
X0003703061Y0001383883D01*
X0003704024Y0001384228D01*
X0003705017Y0001384476D01*
X0003706030Y0001384626D01*
X0003707052Y0001384677D01*
X0003757120Y0001384677D01*
X0003758142Y0001384626D01*
X0003758142Y0001384626D01*
G37*
D20*
X0003732086Y0001344291D03*
D22*
X0002882086Y0000994291D03*
D23*
X0002882086Y0001094291D03*
D24*
X0002957086Y0001814173D03*
X0002957086Y0001914173D03*
X0003057086Y0001814173D03*
X0003057086Y0001914173D03*
X0003157086Y0001814173D03*
X0003157086Y0001914173D03*
X0003257086Y0001814173D03*
X0003257086Y0001914173D03*
X0003357086Y0001814173D03*
X0003357086Y0001914173D03*
X0003457086Y0001814173D03*
X0003457086Y0001914173D03*
X0003557086Y0001814173D03*
X0003557086Y0001914173D03*
X0003657086Y0001814173D03*
D25*
X0003657086Y0001914173D03*
D17*
G36*
X0003060971Y0000839942D02*
G01*
X0003061975Y0000839793D01*
X0003062961Y0000839546D01*
X0003063917Y0000839204D01*
X0003064835Y0000838769D01*
X0003065707Y0000838247D01*
X0003066522Y0000837642D01*
X0003067275Y0000836960D01*
X0003067957Y0000836207D01*
X0003068562Y0000835392D01*
X0003069084Y0000834520D01*
X0003069519Y0000833602D01*
X0003069861Y0000832646D01*
X0003070108Y0000831660D01*
X0003070257Y0000830656D01*
X0003070307Y0000829641D01*
X0003070307Y0000808940D01*
X0003070257Y0000807926D01*
X0003070108Y0000806921D01*
X0003069861Y0000805936D01*
X0003069519Y0000804980D01*
X0003069084Y0000804061D01*
X0003068562Y0000803190D01*
X0003067957Y0000802374D01*
X0003067275Y0000801622D01*
X0003066522Y0000800940D01*
X0003065707Y0000800334D01*
X0003064835Y0000799812D01*
X0003063917Y0000799378D01*
X0003062961Y0000799036D01*
X0003061975Y0000798789D01*
X0003060971Y0000798640D01*
X0003059956Y0000798590D01*
X0003035318Y0000798590D01*
X0003034304Y0000798640D01*
X0003033299Y0000798789D01*
X0003032314Y0000799036D01*
X0003031357Y0000799378D01*
X0003030439Y0000799812D01*
X0003029568Y0000800334D01*
X0003028752Y0000800940D01*
X0003028000Y0000801622D01*
X0003027317Y0000802374D01*
X0003026712Y0000803190D01*
X0003026190Y0000804061D01*
X0003025756Y0000804980D01*
X0003025414Y0000805936D01*
X0003025167Y0000806921D01*
X0003025018Y0000807926D01*
X0003024968Y0000808940D01*
X0003024968Y0000829641D01*
X0003025018Y0000830656D01*
X0003025167Y0000831660D01*
X0003025414Y0000832646D01*
X0003025756Y0000833602D01*
X0003026190Y0000834520D01*
X0003026712Y0000835392D01*
X0003027317Y0000836207D01*
X0003028000Y0000836960D01*
X0003028752Y0000837642D01*
X0003029568Y0000838247D01*
X0003030439Y0000838769D01*
X0003031357Y0000839204D01*
X0003032314Y0000839546D01*
X0003033299Y0000839793D01*
X0003034304Y0000839942D01*
X0003035318Y0000839992D01*
X0003059956Y0000839992D01*
X0003060971Y0000839942D01*
X0003060971Y0000839942D01*
G37*
D18*
X0003047637Y0000819291D03*
D17*
G36*
X0003129868Y0000839942D02*
G01*
X0003130873Y0000839793D01*
X0003131858Y0000839546D01*
X0003132815Y0000839204D01*
X0003133733Y0000838769D01*
X0003134604Y0000838247D01*
X0003135420Y0000837642D01*
X0003136173Y0000836960D01*
X0003136855Y0000836207D01*
X0003137460Y0000835392D01*
X0003137982Y0000834520D01*
X0003138416Y0000833602D01*
X0003138759Y0000832646D01*
X0003139005Y0000831660D01*
X0003139154Y0000830656D01*
X0003139204Y0000829641D01*
X0003139204Y0000808940D01*
X0003139154Y0000807926D01*
X0003139005Y0000806921D01*
X0003138759Y0000805936D01*
X0003138416Y0000804980D01*
X0003137982Y0000804061D01*
X0003137460Y0000803190D01*
X0003136855Y0000802374D01*
X0003136173Y0000801622D01*
X0003135420Y0000800940D01*
X0003134604Y0000800334D01*
X0003133733Y0000799812D01*
X0003132815Y0000799378D01*
X0003131858Y0000799036D01*
X0003130873Y0000798789D01*
X0003129868Y0000798640D01*
X0003128854Y0000798590D01*
X0003104216Y0000798590D01*
X0003103202Y0000798640D01*
X0003102197Y0000798789D01*
X0003101211Y0000799036D01*
X0003100255Y0000799378D01*
X0003099337Y0000799812D01*
X0003098466Y0000800334D01*
X0003097650Y0000800940D01*
X0003096897Y0000801622D01*
X0003096215Y0000802374D01*
X0003095610Y0000803190D01*
X0003095088Y0000804061D01*
X0003094654Y0000804980D01*
X0003094311Y0000805936D01*
X0003094065Y0000806921D01*
X0003093915Y0000807926D01*
X0003093866Y0000808940D01*
X0003093866Y0000829641D01*
X0003093915Y0000830656D01*
X0003094065Y0000831660D01*
X0003094311Y0000832646D01*
X0003094654Y0000833602D01*
X0003095088Y0000834520D01*
X0003095610Y0000835392D01*
X0003096215Y0000836207D01*
X0003096897Y0000836960D01*
X0003097650Y0000837642D01*
X0003098466Y0000838247D01*
X0003099337Y0000838769D01*
X0003100255Y0000839204D01*
X0003101211Y0000839546D01*
X0003102197Y0000839793D01*
X0003103202Y0000839942D01*
X0003104216Y0000839992D01*
X0003128854Y0000839992D01*
X0003129868Y0000839942D01*
X0003129868Y0000839942D01*
G37*
D18*
X0003116535Y0000819291D03*
D17*
G36*
X0003510971Y0000839942D02*
G01*
X0003511975Y0000839793D01*
X0003512961Y0000839546D01*
X0003513917Y0000839204D01*
X0003514835Y0000838769D01*
X0003515707Y0000838247D01*
X0003516522Y0000837642D01*
X0003517275Y0000836960D01*
X0003517957Y0000836207D01*
X0003518562Y0000835392D01*
X0003519084Y0000834520D01*
X0003519519Y0000833602D01*
X0003519861Y0000832646D01*
X0003520108Y0000831660D01*
X0003520257Y0000830656D01*
X0003520307Y0000829641D01*
X0003520307Y0000808940D01*
X0003520257Y0000807926D01*
X0003520108Y0000806921D01*
X0003519861Y0000805936D01*
X0003519519Y0000804980D01*
X0003519084Y0000804061D01*
X0003518562Y0000803190D01*
X0003517957Y0000802374D01*
X0003517275Y0000801622D01*
X0003516522Y0000800940D01*
X0003515707Y0000800334D01*
X0003514835Y0000799812D01*
X0003513917Y0000799378D01*
X0003512961Y0000799036D01*
X0003511975Y0000798789D01*
X0003510971Y0000798640D01*
X0003509956Y0000798590D01*
X0003485318Y0000798590D01*
X0003484304Y0000798640D01*
X0003483299Y0000798789D01*
X0003482314Y0000799036D01*
X0003481357Y0000799378D01*
X0003480439Y0000799812D01*
X0003479568Y0000800334D01*
X0003478752Y0000800940D01*
X0003478000Y0000801622D01*
X0003477317Y0000802374D01*
X0003476712Y0000803190D01*
X0003476190Y0000804061D01*
X0003475756Y0000804980D01*
X0003475414Y0000805936D01*
X0003475167Y0000806921D01*
X0003475018Y0000807926D01*
X0003474968Y0000808940D01*
X0003474968Y0000829641D01*
X0003475018Y0000830656D01*
X0003475167Y0000831660D01*
X0003475414Y0000832646D01*
X0003475756Y0000833602D01*
X0003476190Y0000834520D01*
X0003476712Y0000835392D01*
X0003477317Y0000836207D01*
X0003478000Y0000836960D01*
X0003478752Y0000837642D01*
X0003479568Y0000838247D01*
X0003480439Y0000838769D01*
X0003481357Y0000839204D01*
X0003482314Y0000839546D01*
X0003483299Y0000839793D01*
X0003484304Y0000839942D01*
X0003485318Y0000839992D01*
X0003509956Y0000839992D01*
X0003510971Y0000839942D01*
X0003510971Y0000839942D01*
G37*
D18*
X0003497637Y0000819291D03*
D17*
G36*
X0003579868Y0000839942D02*
G01*
X0003580873Y0000839793D01*
X0003581858Y0000839546D01*
X0003582815Y0000839204D01*
X0003583733Y0000838769D01*
X0003584604Y0000838247D01*
X0003585420Y0000837642D01*
X0003586173Y0000836960D01*
X0003586855Y0000836207D01*
X0003587460Y0000835392D01*
X0003587982Y0000834520D01*
X0003588416Y0000833602D01*
X0003588759Y0000832646D01*
X0003589005Y0000831660D01*
X0003589154Y0000830656D01*
X0003589204Y0000829641D01*
X0003589204Y0000808940D01*
X0003589154Y0000807926D01*
X0003589005Y0000806921D01*
X0003588759Y0000805936D01*
X0003588416Y0000804980D01*
X0003587982Y0000804061D01*
X0003587460Y0000803190D01*
X0003586855Y0000802374D01*
X0003586173Y0000801622D01*
X0003585420Y0000800940D01*
X0003584604Y0000800334D01*
X0003583733Y0000799812D01*
X0003582815Y0000799378D01*
X0003581858Y0000799036D01*
X0003580873Y0000798789D01*
X0003579868Y0000798640D01*
X0003578854Y0000798590D01*
X0003554216Y0000798590D01*
X0003553202Y0000798640D01*
X0003552197Y0000798789D01*
X0003551211Y0000799036D01*
X0003550255Y0000799378D01*
X0003549337Y0000799812D01*
X0003548466Y0000800334D01*
X0003547650Y0000800940D01*
X0003546897Y0000801622D01*
X0003546215Y0000802374D01*
X0003545610Y0000803190D01*
X0003545088Y0000804061D01*
X0003544654Y0000804980D01*
X0003544311Y0000805936D01*
X0003544065Y0000806921D01*
X0003543915Y0000807926D01*
X0003543866Y0000808940D01*
X0003543866Y0000829641D01*
X0003543915Y0000830656D01*
X0003544065Y0000831660D01*
X0003544311Y0000832646D01*
X0003544654Y0000833602D01*
X0003545088Y0000834520D01*
X0003545610Y0000835392D01*
X0003546215Y0000836207D01*
X0003546897Y0000836960D01*
X0003547650Y0000837642D01*
X0003548466Y0000838247D01*
X0003549337Y0000838769D01*
X0003550255Y0000839204D01*
X0003551211Y0000839546D01*
X0003552197Y0000839793D01*
X0003553202Y0000839942D01*
X0003554216Y0000839992D01*
X0003578854Y0000839992D01*
X0003579868Y0000839942D01*
X0003579868Y0000839942D01*
G37*
D18*
X0003566535Y0000819291D03*
D17*
G36*
X0003285971Y0000839942D02*
G01*
X0003286975Y0000839793D01*
X0003287961Y0000839546D01*
X0003288917Y0000839204D01*
X0003289835Y0000838769D01*
X0003290707Y0000838247D01*
X0003291522Y0000837642D01*
X0003292275Y0000836960D01*
X0003292957Y0000836207D01*
X0003293562Y0000835392D01*
X0003294084Y0000834520D01*
X0003294519Y0000833602D01*
X0003294861Y0000832646D01*
X0003295108Y0000831660D01*
X0003295257Y0000830656D01*
X0003295307Y0000829641D01*
X0003295307Y0000808940D01*
X0003295257Y0000807926D01*
X0003295108Y0000806921D01*
X0003294861Y0000805936D01*
X0003294519Y0000804980D01*
X0003294084Y0000804061D01*
X0003293562Y0000803190D01*
X0003292957Y0000802374D01*
X0003292275Y0000801622D01*
X0003291522Y0000800940D01*
X0003290707Y0000800334D01*
X0003289835Y0000799812D01*
X0003288917Y0000799378D01*
X0003287961Y0000799036D01*
X0003286975Y0000798789D01*
X0003285971Y0000798640D01*
X0003284956Y0000798590D01*
X0003260318Y0000798590D01*
X0003259304Y0000798640D01*
X0003258299Y0000798789D01*
X0003257314Y0000799036D01*
X0003256357Y0000799378D01*
X0003255439Y0000799812D01*
X0003254568Y0000800334D01*
X0003253752Y0000800940D01*
X0003253000Y0000801622D01*
X0003252317Y0000802374D01*
X0003251712Y0000803190D01*
X0003251190Y0000804061D01*
X0003250756Y0000804980D01*
X0003250414Y0000805936D01*
X0003250167Y0000806921D01*
X0003250018Y0000807926D01*
X0003249968Y0000808940D01*
X0003249968Y0000829641D01*
X0003250018Y0000830656D01*
X0003250167Y0000831660D01*
X0003250414Y0000832646D01*
X0003250756Y0000833602D01*
X0003251190Y0000834520D01*
X0003251712Y0000835392D01*
X0003252317Y0000836207D01*
X0003253000Y0000836960D01*
X0003253752Y0000837642D01*
X0003254568Y0000838247D01*
X0003255439Y0000838769D01*
X0003256357Y0000839204D01*
X0003257314Y0000839546D01*
X0003258299Y0000839793D01*
X0003259304Y0000839942D01*
X0003260318Y0000839992D01*
X0003284956Y0000839992D01*
X0003285971Y0000839942D01*
X0003285971Y0000839942D01*
G37*
D18*
X0003272637Y0000819291D03*
D17*
G36*
X0003354868Y0000839942D02*
G01*
X0003355873Y0000839793D01*
X0003356858Y0000839546D01*
X0003357815Y0000839204D01*
X0003358733Y0000838769D01*
X0003359604Y0000838247D01*
X0003360420Y0000837642D01*
X0003361173Y0000836960D01*
X0003361855Y0000836207D01*
X0003362460Y0000835392D01*
X0003362982Y0000834520D01*
X0003363416Y0000833602D01*
X0003363759Y0000832646D01*
X0003364005Y0000831660D01*
X0003364154Y0000830656D01*
X0003364204Y0000829641D01*
X0003364204Y0000808940D01*
X0003364154Y0000807926D01*
X0003364005Y0000806921D01*
X0003363759Y0000805936D01*
X0003363416Y0000804980D01*
X0003362982Y0000804061D01*
X0003362460Y0000803190D01*
X0003361855Y0000802374D01*
X0003361173Y0000801622D01*
X0003360420Y0000800940D01*
X0003359604Y0000800334D01*
X0003358733Y0000799812D01*
X0003357815Y0000799378D01*
X0003356858Y0000799036D01*
X0003355873Y0000798789D01*
X0003354868Y0000798640D01*
X0003353854Y0000798590D01*
X0003329216Y0000798590D01*
X0003328202Y0000798640D01*
X0003327197Y0000798789D01*
X0003326211Y0000799036D01*
X0003325255Y0000799378D01*
X0003324337Y0000799812D01*
X0003323466Y0000800334D01*
X0003322650Y0000800940D01*
X0003321897Y0000801622D01*
X0003321215Y0000802374D01*
X0003320610Y0000803190D01*
X0003320088Y0000804061D01*
X0003319654Y0000804980D01*
X0003319311Y0000805936D01*
X0003319065Y0000806921D01*
X0003318915Y0000807926D01*
X0003318866Y0000808940D01*
X0003318866Y0000829641D01*
X0003318915Y0000830656D01*
X0003319065Y0000831660D01*
X0003319311Y0000832646D01*
X0003319654Y0000833602D01*
X0003320088Y0000834520D01*
X0003320610Y0000835392D01*
X0003321215Y0000836207D01*
X0003321897Y0000836960D01*
X0003322650Y0000837642D01*
X0003323466Y0000838247D01*
X0003324337Y0000838769D01*
X0003325255Y0000839204D01*
X0003326211Y0000839546D01*
X0003327197Y0000839793D01*
X0003328202Y0000839942D01*
X0003329216Y0000839992D01*
X0003353854Y0000839992D01*
X0003354868Y0000839942D01*
X0003354868Y0000839942D01*
G37*
D18*
X0003341535Y0000819291D03*
G04 next file*
%LPD*%
G04 #@! TF.GenerationSoftware,KiCad,Pcbnew,(5.1.4)-1*
G04 #@! TF.CreationDate,2020-03-27T16:01:53-04:00*
G04 #@! TF.ProjectId,heatbed_breakout,68656174-6265-4645-9f62-7265616b6f75,rev?*
G04 #@! TF.SameCoordinates,PX8b91fb0PY68e7780*
G04 #@! TF.FileFunction,Legend,Top*
G04 #@! TF.FilePolarity,Positive*
G04 Gerber Fmt 4.6, Leading zero omitted, Abs format (unit mm)*
G04 Created by KiCad (PCBNEW (5.1.4)-1) date 2020-03-27 16:01:53*
G04 APERTURE LIST*
G04 APERTURE END LIST*
D36*
X0001248386Y0003454724D02*
G75*
G03X0001248386Y0003454724I-0000022008D01*
G01*
D37*
X0003061023Y0003799212D02*
X0003061023Y0003346456D01*
X0002765748Y0003799212D02*
X0002765748Y0003346456D01*
D38*
X0003143307Y0003610679D02*
X0003143307Y0003597194D01*
X0003183464Y0003610679D02*
X0003183464Y0003597194D01*
X0003046653Y0003126141D02*
X0002997440Y0003126141D01*
X0003046653Y0003076929D02*
X0003046653Y0003126141D01*
X0002830118Y0002844645D02*
X0002830118Y0002964724D01*
X0002946259Y0002844645D02*
X0002830118Y0002844645D01*
X0002946259Y0002815118D02*
X0002946259Y0002844645D01*
X0002830118Y0003084803D02*
X0002830118Y0002964724D01*
X0002946259Y0003084803D02*
X0002830118Y0003084803D01*
X0002946259Y0003114330D02*
X0002946259Y0003084803D01*
X0003034842Y0002815118D02*
X0003034842Y0002885984D01*
X0003005314Y0002815118D02*
X0003034842Y0002815118D01*
X0003005314Y0002885984D02*
X0003005314Y0002815118D01*
X0003034842Y0002885984D02*
X0003005314Y0002885984D01*
X0003034842Y0003043464D02*
X0003034842Y0003114330D01*
X0003005314Y0003043464D02*
X0003034842Y0003043464D01*
X0003005314Y0003114330D02*
X0003005314Y0003043464D01*
X0003034842Y0003114330D02*
X0003005314Y0003114330D01*
X0003034842Y0002945039D02*
X0003034842Y0002984409D01*
X0003005314Y0002945039D02*
X0003034842Y0002945039D01*
X0003005314Y0002984409D02*
X0003005314Y0002945039D01*
X0003034842Y0002984409D02*
X0003005314Y0002984409D01*
X0003035236Y0002814724D02*
X0003035236Y0003114724D01*
X0002800196Y0002814724D02*
X0003035236Y0002814724D01*
X0002800196Y0003114724D02*
X0002800196Y0002814724D01*
X0003035236Y0003114724D02*
X0002800196Y0003114724D01*
X0000967913Y0003310039D02*
X0000967913Y0003410039D01*
X0000967913Y0003310039D02*
X0001067913Y0003310039D01*
X0000977755Y0003319881D02*
X0000977755Y0003687992D01*
X0002599015Y0003319881D02*
X0000977755Y0003319881D01*
X0002599015Y0003687992D02*
X0002599015Y0003319881D01*
X0000977755Y0003687992D02*
X0002599015Y0003687992D01*
X0003192322Y0003338582D02*
X0003192322Y0003435433D01*
X0003134448Y0003338582D02*
X0003192322Y0003338582D01*
X0003134448Y0003435433D02*
X0003134448Y0003338582D01*
%LPC*%
D39*
G36*
X0003011835Y0003764687D02*
G01*
X0003014167Y0003764341D01*
X0003016454Y0003763768D01*
X0003018673Y0003762974D01*
X0003020804Y0003761966D01*
X0003022827Y0003760754D01*
X0003024720Y0003759350D01*
X0003026467Y0003757766D01*
X0003028050Y0003756019D01*
X0003029455Y0003754126D01*
X0003030667Y0003752104D01*
X0003031675Y0003749972D01*
X0003032469Y0003747753D01*
X0003033042Y0003745466D01*
X0003033388Y0003743134D01*
X0003033503Y0003740779D01*
X0003033503Y0003548590D01*
X0003033388Y0003546235D01*
X0003033042Y0003543903D01*
X0003032469Y0003541616D01*
X0003031675Y0003539397D01*
X0003030667Y0003537265D01*
X0003029455Y0003535243D01*
X0003028050Y0003533350D01*
X0003026467Y0003531603D01*
X0003024720Y0003530020D01*
X0003022827Y0003528615D01*
X0003020804Y0003527403D01*
X0003018673Y0003526395D01*
X0003016454Y0003525601D01*
X0003014167Y0003525028D01*
X0003011835Y0003524682D01*
X0003009480Y0003524566D01*
X0002817291Y0003524566D01*
X0002814936Y0003524682D01*
X0002812604Y0003525028D01*
X0002810317Y0003525601D01*
X0002808097Y0003526395D01*
X0002805966Y0003527403D01*
X0002803944Y0003528615D01*
X0002802050Y0003530020D01*
X0002800304Y0003531603D01*
X0002798720Y0003533350D01*
X0002797316Y0003535243D01*
X0002796104Y0003537265D01*
X0002795096Y0003539397D01*
X0002794302Y0003541616D01*
X0002793729Y0003543903D01*
X0002793383Y0003546235D01*
X0002793267Y0003548590D01*
X0002793267Y0003740779D01*
X0002793383Y0003743134D01*
X0002793729Y0003745466D01*
X0002794302Y0003747753D01*
X0002795096Y0003749972D01*
X0002796104Y0003752104D01*
X0002797316Y0003754126D01*
X0002798720Y0003756019D01*
X0002800304Y0003757766D01*
X0002802050Y0003759350D01*
X0002803944Y0003760754D01*
X0002805966Y0003761966D01*
X0002808097Y0003762974D01*
X0002810317Y0003763768D01*
X0002812604Y0003764341D01*
X0002814936Y0003764687D01*
X0002817291Y0003764803D01*
X0003009480Y0003764803D01*
X0003011835Y0003764687D01*
X0003011835Y0003764687D01*
G37*
D40*
X0002913385Y0003644685D03*
D39*
G36*
X0003011835Y0003483191D02*
G01*
X0003014167Y0003482845D01*
X0003016454Y0003482272D01*
X0003018673Y0003481478D01*
X0003020804Y0003480470D01*
X0003022827Y0003479258D01*
X0003024720Y0003477853D01*
X0003026467Y0003476270D01*
X0003028050Y0003474523D01*
X0003029455Y0003472630D01*
X0003030667Y0003470608D01*
X0003031675Y0003468476D01*
X0003032469Y0003466257D01*
X0003033042Y0003463970D01*
X0003033388Y0003461638D01*
X0003033503Y0003459283D01*
X0003033503Y0003267094D01*
X0003033388Y0003264739D01*
X0003033042Y0003262407D01*
X0003032469Y0003260120D01*
X0003031675Y0003257901D01*
X0003030667Y0003255769D01*
X0003029455Y0003253747D01*
X0003028050Y0003251854D01*
X0003026467Y0003250107D01*
X0003024720Y0003248523D01*
X0003022827Y0003247119D01*
X0003020804Y0003245907D01*
X0003018673Y0003244899D01*
X0003016454Y0003244105D01*
X0003014167Y0003243532D01*
X0003011835Y0003243186D01*
X0003009480Y0003243070D01*
X0002817291Y0003243070D01*
X0002814936Y0003243186D01*
X0002812604Y0003243532D01*
X0002810317Y0003244105D01*
X0002808097Y0003244899D01*
X0002805966Y0003245907D01*
X0002803944Y0003247119D01*
X0002802050Y0003248523D01*
X0002800304Y0003250107D01*
X0002798720Y0003251854D01*
X0002797316Y0003253747D01*
X0002796104Y0003255769D01*
X0002795096Y0003257901D01*
X0002794302Y0003260120D01*
X0002793729Y0003262407D01*
X0002793383Y0003264739D01*
X0002793267Y0003267094D01*
X0002793267Y0003459283D01*
X0002793383Y0003461638D01*
X0002793729Y0003463970D01*
X0002794302Y0003466257D01*
X0002795096Y0003468476D01*
X0002796104Y0003470608D01*
X0002797316Y0003472630D01*
X0002798720Y0003474523D01*
X0002800304Y0003476270D01*
X0002802050Y0003477853D01*
X0002803944Y0003479258D01*
X0002805966Y0003480470D01*
X0002808097Y0003481478D01*
X0002810317Y0003482272D01*
X0002812604Y0003482845D01*
X0002814936Y0003483191D01*
X0002817291Y0003483307D01*
X0003009480Y0003483307D01*
X0003011835Y0003483191D01*
X0003011835Y0003483191D01*
G37*
D40*
X0002913385Y0003363188D03*
D41*
X0003450787Y0003503937D03*
X0000694881Y0003503937D03*
D39*
G36*
X0003174755Y0003592115D02*
G01*
X0003175760Y0003591966D01*
X0003176745Y0003591719D01*
X0003177702Y0003591377D01*
X0003178621Y0003590942D01*
X0003179492Y0003590420D01*
X0003180308Y0003589815D01*
X0003181061Y0003589132D01*
X0003181744Y0003588379D01*
X0003182349Y0003587563D01*
X0003182871Y0003586692D01*
X0003183306Y0003585773D01*
X0003183648Y0003584816D01*
X0003183895Y0003583831D01*
X0003184044Y0003582825D01*
X0003184094Y0003581811D01*
X0003184094Y0003557165D01*
X0003184044Y0003556150D01*
X0003183895Y0003555145D01*
X0003183648Y0003554159D01*
X0003183306Y0003553202D01*
X0003182871Y0003552284D01*
X0003182349Y0003551412D01*
X0003181744Y0003550596D01*
X0003181061Y0003549843D01*
X0003180308Y0003549161D01*
X0003179492Y0003548556D01*
X0003178621Y0003548033D01*
X0003177702Y0003547599D01*
X0003176745Y0003547256D01*
X0003175760Y0003547009D01*
X0003174755Y0003546860D01*
X0003173740Y0003546811D01*
X0003153031Y0003546811D01*
X0003152016Y0003546860D01*
X0003151011Y0003547009D01*
X0003150025Y0003547256D01*
X0003149069Y0003547599D01*
X0003148150Y0003548033D01*
X0003147278Y0003548556D01*
X0003146462Y0003549161D01*
X0003145709Y0003549843D01*
X0003145027Y0003550596D01*
X0003144422Y0003551412D01*
X0003143899Y0003552284D01*
X0003143465Y0003553202D01*
X0003143123Y0003554159D01*
X0003142876Y0003555145D01*
X0003142727Y0003556150D01*
X0003142677Y0003557165D01*
X0003142677Y0003581811D01*
X0003142727Y0003582825D01*
X0003142876Y0003583831D01*
X0003143123Y0003584816D01*
X0003143465Y0003585773D01*
X0003143899Y0003586692D01*
X0003144422Y0003587563D01*
X0003145027Y0003588379D01*
X0003145709Y0003589132D01*
X0003146462Y0003589815D01*
X0003147278Y0003590420D01*
X0003148150Y0003590942D01*
X0003149069Y0003591377D01*
X0003150025Y0003591719D01*
X0003151011Y0003591966D01*
X0003152016Y0003592115D01*
X0003153031Y0003592165D01*
X0003173740Y0003592165D01*
X0003174755Y0003592115D01*
X0003174755Y0003592115D01*
G37*
D42*
X0003163385Y0003569488D03*
D39*
G36*
X0003174755Y0003661013D02*
G01*
X0003175760Y0003660864D01*
X0003176745Y0003660617D01*
X0003177702Y0003660274D01*
X0003178621Y0003659840D01*
X0003179492Y0003659317D01*
X0003180308Y0003658712D01*
X0003181061Y0003658030D01*
X0003181744Y0003657277D01*
X0003182349Y0003656461D01*
X0003182871Y0003655589D01*
X0003183306Y0003654671D01*
X0003183648Y0003653714D01*
X0003183895Y0003652728D01*
X0003184044Y0003651723D01*
X0003184094Y0003650708D01*
X0003184094Y0003626062D01*
X0003184044Y0003625048D01*
X0003183895Y0003624042D01*
X0003183648Y0003623057D01*
X0003183306Y0003622100D01*
X0003182871Y0003621182D01*
X0003182349Y0003620310D01*
X0003181744Y0003619494D01*
X0003181061Y0003618741D01*
X0003180308Y0003618058D01*
X0003179492Y0003617453D01*
X0003178621Y0003616931D01*
X0003177702Y0003616496D01*
X0003176745Y0003616154D01*
X0003175760Y0003615907D01*
X0003174755Y0003615758D01*
X0003173740Y0003615708D01*
X0003153031Y0003615708D01*
X0003152016Y0003615758D01*
X0003151011Y0003615907D01*
X0003150025Y0003616154D01*
X0003149069Y0003616496D01*
X0003148150Y0003616931D01*
X0003147278Y0003617453D01*
X0003146462Y0003618058D01*
X0003145709Y0003618741D01*
X0003145027Y0003619494D01*
X0003144422Y0003620310D01*
X0003143899Y0003621182D01*
X0003143465Y0003622100D01*
X0003143123Y0003623057D01*
X0003142876Y0003624042D01*
X0003142727Y0003625048D01*
X0003142677Y0003626062D01*
X0003142677Y0003650708D01*
X0003142727Y0003651723D01*
X0003142876Y0003652728D01*
X0003143123Y0003653714D01*
X0003143465Y0003654671D01*
X0003143899Y0003655589D01*
X0003144422Y0003656461D01*
X0003145027Y0003657277D01*
X0003145709Y0003658030D01*
X0003146462Y0003658712D01*
X0003147278Y0003659317D01*
X0003148150Y0003659840D01*
X0003149069Y0003660274D01*
X0003150025Y0003660617D01*
X0003151011Y0003660864D01*
X0003152016Y0003661013D01*
X0003153031Y0003661062D01*
X0003173740Y0003661062D01*
X0003174755Y0003661013D01*
X0003174755Y0003661013D01*
G37*
D42*
X0003163385Y0003638385D03*
D43*
X0002938385Y0002915511D03*
D39*
G36*
X0002970353Y0003049359D02*
G01*
X0002971366Y0003049208D01*
X0002972359Y0003048960D01*
X0002973323Y0003048615D01*
X0002974248Y0003048177D01*
X0002975127Y0003047651D01*
X0002975949Y0003047041D01*
X0002976707Y0003046353D01*
X0002977395Y0003045595D01*
X0002978005Y0003044772D01*
X0002978531Y0003043894D01*
X0002978969Y0003042968D01*
X0002979314Y0003042004D01*
X0002979563Y0003041011D01*
X0002979713Y0003039999D01*
X0002979763Y0003038976D01*
X0002979763Y0002988897D01*
X0002979713Y0002987875D01*
X0002979563Y0002986862D01*
X0002979314Y0002985869D01*
X0002978969Y0002984905D01*
X0002978531Y0002983979D01*
X0002978005Y0002983101D01*
X0002977395Y0002982278D01*
X0002976707Y0002981520D01*
X0002975949Y0002980832D01*
X0002975127Y0002980222D01*
X0002974248Y0002979696D01*
X0002973323Y0002979258D01*
X0002972359Y0002978913D01*
X0002971366Y0002978665D01*
X0002970353Y0002978514D01*
X0002969330Y0002978464D01*
X0002907440Y0002978464D01*
X0002906418Y0002978514D01*
X0002905405Y0002978665D01*
X0002904412Y0002978913D01*
X0002903448Y0002979258D01*
X0002902522Y0002979696D01*
X0002901644Y0002980222D01*
X0002900822Y0002980832D01*
X0002900063Y0002981520D01*
X0002899376Y0002982278D01*
X0002898766Y0002983101D01*
X0002898239Y0002983979D01*
X0002897802Y0002984905D01*
X0002897457Y0002985869D01*
X0002897208Y0002986862D01*
X0002897058Y0002987875D01*
X0002897007Y0002988897D01*
X0002897007Y0003038976D01*
X0002897058Y0003039999D01*
X0002897208Y0003041011D01*
X0002897457Y0003042004D01*
X0002897802Y0003042968D01*
X0002898239Y0003043894D01*
X0002898766Y0003044772D01*
X0002899376Y0003045595D01*
X0002900063Y0003046353D01*
X0002900822Y0003047041D01*
X0002901644Y0003047651D01*
X0002902522Y0003048177D01*
X0002903448Y0003048615D01*
X0002904412Y0003048960D01*
X0002905405Y0003049208D01*
X0002906418Y0003049359D01*
X0002907440Y0003049409D01*
X0002969330Y0003049409D01*
X0002970353Y0003049359D01*
X0002970353Y0003049359D01*
G37*
D44*
X0002938385Y0003013937D03*
D45*
X0002388385Y0003553937D03*
X0002388385Y0003453937D03*
X0002288385Y0003553937D03*
X0002288385Y0003453937D03*
X0002188385Y0003553937D03*
X0002188385Y0003453937D03*
X0002088385Y0003553937D03*
X0002088385Y0003453937D03*
X0001988385Y0003553937D03*
X0001988385Y0003453937D03*
X0001888385Y0003553937D03*
X0001888385Y0003453937D03*
X0001788385Y0003553937D03*
X0001788385Y0003453937D03*
X0001688385Y0003553937D03*
X0001688385Y0003453937D03*
X0001588385Y0003553937D03*
X0001588385Y0003453937D03*
X0001488385Y0003553937D03*
X0001488385Y0003453937D03*
X0001388385Y0003553937D03*
X0001388385Y0003453937D03*
X0001288385Y0003553937D03*
X0001288385Y0003453937D03*
X0001188385Y0003553937D03*
D46*
X0001188385Y0003453937D03*
D39*
G36*
X0003174755Y0003461013D02*
G01*
X0003175760Y0003460864D01*
X0003176745Y0003460617D01*
X0003177702Y0003460274D01*
X0003178621Y0003459840D01*
X0003179492Y0003459317D01*
X0003180308Y0003458712D01*
X0003181061Y0003458030D01*
X0003181744Y0003457277D01*
X0003182349Y0003456461D01*
X0003182871Y0003455589D01*
X0003183306Y0003454671D01*
X0003183648Y0003453714D01*
X0003183895Y0003452728D01*
X0003184044Y0003451723D01*
X0003184094Y0003450708D01*
X0003184094Y0003426062D01*
X0003184044Y0003425048D01*
X0003183895Y0003424042D01*
X0003183648Y0003423057D01*
X0003183306Y0003422100D01*
X0003182871Y0003421182D01*
X0003182349Y0003420310D01*
X0003181744Y0003419494D01*
X0003181061Y0003418741D01*
X0003180308Y0003418058D01*
X0003179492Y0003417453D01*
X0003178621Y0003416931D01*
X0003177702Y0003416496D01*
X0003176745Y0003416154D01*
X0003175760Y0003415907D01*
X0003174755Y0003415758D01*
X0003173740Y0003415708D01*
X0003153031Y0003415708D01*
X0003152016Y0003415758D01*
X0003151011Y0003415907D01*
X0003150025Y0003416154D01*
X0003149069Y0003416496D01*
X0003148150Y0003416931D01*
X0003147278Y0003417453D01*
X0003146462Y0003418058D01*
X0003145709Y0003418741D01*
X0003145027Y0003419494D01*
X0003144422Y0003420310D01*
X0003143899Y0003421182D01*
X0003143465Y0003422100D01*
X0003143123Y0003423057D01*
X0003142876Y0003424042D01*
X0003142727Y0003425048D01*
X0003142677Y0003426062D01*
X0003142677Y0003450708D01*
X0003142727Y0003451723D01*
X0003142876Y0003452728D01*
X0003143123Y0003453714D01*
X0003143465Y0003454671D01*
X0003143899Y0003455589D01*
X0003144422Y0003456461D01*
X0003145027Y0003457277D01*
X0003145709Y0003458030D01*
X0003146462Y0003458712D01*
X0003147278Y0003459317D01*
X0003148150Y0003459840D01*
X0003149069Y0003460274D01*
X0003150025Y0003460617D01*
X0003151011Y0003460864D01*
X0003152016Y0003461013D01*
X0003153031Y0003461062D01*
X0003173740Y0003461062D01*
X0003174755Y0003461013D01*
X0003174755Y0003461013D01*
G37*
D42*
X0003163385Y0003438385D03*
D39*
G36*
X0003174755Y0003392115D02*
G01*
X0003175760Y0003391966D01*
X0003176745Y0003391719D01*
X0003177702Y0003391377D01*
X0003178621Y0003390942D01*
X0003179492Y0003390420D01*
X0003180308Y0003389815D01*
X0003181061Y0003389132D01*
X0003181744Y0003388379D01*
X0003182349Y0003387563D01*
X0003182871Y0003386692D01*
X0003183306Y0003385773D01*
X0003183648Y0003384816D01*
X0003183895Y0003383831D01*
X0003184044Y0003382825D01*
X0003184094Y0003381811D01*
X0003184094Y0003357165D01*
X0003184044Y0003356150D01*
X0003183895Y0003355145D01*
X0003183648Y0003354159D01*
X0003183306Y0003353202D01*
X0003182871Y0003352284D01*
X0003182349Y0003351412D01*
X0003181744Y0003350596D01*
X0003181061Y0003349843D01*
X0003180308Y0003349161D01*
X0003179492Y0003348556D01*
X0003178621Y0003348033D01*
X0003177702Y0003347599D01*
X0003176745Y0003347256D01*
X0003175760Y0003347009D01*
X0003174755Y0003346860D01*
X0003173740Y0003346811D01*
X0003153031Y0003346811D01*
X0003152016Y0003346860D01*
X0003151011Y0003347009D01*
X0003150025Y0003347256D01*
X0003149069Y0003347599D01*
X0003148150Y0003348033D01*
X0003147278Y0003348556D01*
X0003146462Y0003349161D01*
X0003145709Y0003349843D01*
X0003145027Y0003350596D01*
X0003144422Y0003351412D01*
X0003143899Y0003352284D01*
X0003143465Y0003353202D01*
X0003143123Y0003354159D01*
X0003142876Y0003355145D01*
X0003142727Y0003356150D01*
X0003142677Y0003357165D01*
X0003142677Y0003381811D01*
X0003142727Y0003382825D01*
X0003142876Y0003383831D01*
X0003143123Y0003384816D01*
X0003143465Y0003385773D01*
X0003143899Y0003386692D01*
X0003144422Y0003387563D01*
X0003145027Y0003388379D01*
X0003145709Y0003389132D01*
X0003146462Y0003389815D01*
X0003147278Y0003390420D01*
X0003148150Y0003390942D01*
X0003149069Y0003391377D01*
X0003150025Y0003391719D01*
X0003151011Y0003391966D01*
X0003152016Y0003392115D01*
X0003153031Y0003392165D01*
X0003173740Y0003392165D01*
X0003174755Y0003392115D01*
X0003174755Y0003392115D01*
G37*
D42*
X0003163385Y0003369488D03*
G04 next file*
%LPD*%
G04 #@! TF.GenerationSoftware,KiCad,Pcbnew,(5.1.4)-1*
G04 #@! TF.CreationDate,2020-03-27T16:00:02-04:00*
G04 #@! TF.ProjectId,Placeholder Board,506c6163-6568-46f6-9c64-657220426f61,rev?*
G04 #@! TF.SameCoordinates,PX9157080PY695f190*
G04 #@! TF.FileFunction,Legend,Top*
G04 #@! TF.FilePolarity,Positive*
G04 Gerber Fmt 4.6, Leading zero omitted, Abs format (unit mm)*
G04 Created by KiCad (PCBNEW (5.1.4)-1) date 2020-03-27 16:00:02*
G04 APERTURE LIST*
G04 APERTURE END LIST*
D47*
X0001971316Y0000426040D02*
X0001971316Y0000383858D01*
X0001968503Y0000375421D01*
X0001962879Y0000369797D01*
X0001954443Y0000366985D01*
X0001948818Y0000366985D01*
X0002027559Y0000366985D02*
X0001999437Y0000366985D01*
X0001999437Y0000426040D01*
X0002080989Y0000372609D02*
X0002078177Y0000369797D01*
X0002069741Y0000366985D01*
X0002064116Y0000366985D01*
X0002055680Y0000369797D01*
X0002050056Y0000375421D01*
X0002047244Y0000381046D01*
X0002044431Y0000392294D01*
X0002044431Y0000400731D01*
X0002047244Y0000411979D01*
X0002050056Y0000417604D01*
X0002055680Y0000423228D01*
X0002064116Y0000426040D01*
X0002069741Y0000426040D01*
X0002078177Y0000423228D01*
X0002080989Y0000420416D01*
X0002123172Y0000426040D02*
X0002123172Y0000383858D01*
X0002120359Y0000375421D01*
X0002114735Y0000369797D01*
X0002106299Y0000366985D01*
X0002100674Y0000366985D01*
X0002179415Y0000366985D02*
X0002151293Y0000366985D01*
X0002151293Y0000426040D01*
X0002232845Y0000372609D02*
X0002230033Y0000369797D01*
X0002221597Y0000366985D01*
X0002215972Y0000366985D01*
X0002207536Y0000369797D01*
X0002201912Y0000375421D01*
X0002199100Y0000381046D01*
X0002196287Y0000392294D01*
X0002196287Y0000400731D01*
X0002199100Y0000411979D01*
X0002201912Y0000417604D01*
X0002207536Y0000423228D01*
X0002215972Y0000426040D01*
X0002221597Y0000426040D01*
X0002230033Y0000423228D01*
X0002232845Y0000420416D01*
X0002275028Y0000426040D02*
X0002275028Y0000383858D01*
X0002272215Y0000375421D01*
X0002266591Y0000369797D01*
X0002258155Y0000366985D01*
X0002252530Y0000366985D01*
X0002331271Y0000366985D02*
X0002303149Y0000366985D01*
X0002303149Y0000426040D01*
X0002384701Y0000372609D02*
X0002381889Y0000369797D01*
X0002373453Y0000366985D01*
X0002367829Y0000366985D01*
X0002359392Y0000369797D01*
X0002353768Y0000375421D01*
X0002350956Y0000381046D01*
X0002348143Y0000392294D01*
X0002348143Y0000400731D01*
X0002350956Y0000411979D01*
X0002353768Y0000417604D01*
X0002359392Y0000423228D01*
X0002367829Y0000426040D01*
X0002373453Y0000426040D01*
X0002381889Y0000423228D01*
X0002384701Y0000420416D01*
X0002426884Y0000426040D02*
X0002426884Y0000383858D01*
X0002424071Y0000375421D01*
X0002418447Y0000369797D01*
X0002410011Y0000366985D01*
X0002404386Y0000366985D01*
X0002483127Y0000366985D02*
X0002455005Y0000366985D01*
X0002455005Y0000426040D01*
X0002536557Y0000372609D02*
X0002533745Y0000369797D01*
X0002525309Y0000366985D01*
X0002519685Y0000366985D01*
X0002511248Y0000369797D01*
X0002505624Y0000375421D01*
X0002502812Y0000381046D01*
X0002500000Y0000392294D01*
X0002500000Y0000400731D01*
X0002502812Y0000411979D01*
X0002505624Y0000417604D01*
X0002511248Y0000423228D01*
X0002519685Y0000426040D01*
X0002525309Y0000426040D01*
X0002533745Y0000423228D01*
X0002536557Y0000420416D01*
%LPC*%
G04 next file*
%LPD*%
G04 #@! TF.GenerationSoftware,KiCad,Pcbnew,(5.1.4)-1*
G04 #@! TF.CreationDate,2020-03-27T16:02:32-04:00*
G04 #@! TF.ProjectId,RGB_endstop_breakout,5247425f-656e-4647-9374-6f705f627265,rev?*
G04 #@! TF.SameCoordinates,PX8e18f40PY6422c40*
G04 #@! TF.FileFunction,Legend,Top*
G04 #@! TF.FilePolarity,Positive*
G04 Gerber Fmt 4.6, Leading zero omitted, Abs format (unit mm)*
G04 Created by KiCad (PCBNEW (5.1.4)-1) date 2020-03-27 16:02:32*
G04 APERTURE LIST*
G04 APERTURE END LIST*
D48*
X0000266786Y0001119881D02*
G75*
G03X0000266786Y0001119881I0000020615D01*
G01*
D49*
X0001675973Y0001320238D02*
X0001618830Y0001320238D01*
X0001647401Y0001348810D02*
X0001647401Y0001291667D01*
X0001626687Y0001128810D02*
X0001651687Y0001093096D01*
X0001669544Y0001128810D02*
X0001669544Y0001053810D01*
X0001640973Y0001053810D01*
X0001633830Y0001057381D01*
X0001630258Y0001060953D01*
X0001626687Y0001068096D01*
X0001626687Y0001078810D01*
X0001630258Y0001085953D01*
X0001633830Y0001089524D01*
X0001640973Y0001093096D01*
X0001669544Y0001093096D01*
X0001630258Y0001182381D02*
X0001637401Y0001178810D01*
X0001648115Y0001178810D01*
X0001658830Y0001182381D01*
X0001665973Y0001189524D01*
X0001669544Y0001196667D01*
X0001673115Y0001210953D01*
X0001673115Y0001221667D01*
X0001669544Y0001235953D01*
X0001665973Y0001243096D01*
X0001658830Y0001250239D01*
X0001648115Y0001253810D01*
X0001640973Y0001253810D01*
X0001630258Y0001250239D01*
X0001626687Y0001246667D01*
X0001626687Y0001221667D01*
X0001640973Y0001221667D01*
X0001647044Y0000964524D02*
X0001636330Y0000968096D01*
X0001632758Y0000971667D01*
X0001629187Y0000978810D01*
X0001629187Y0000989524D01*
X0001632758Y0000996667D01*
X0001636330Y0001000238D01*
X0001643473Y0001003810D01*
X0001672044Y0001003810D01*
X0001672044Y0000928810D01*
X0001647044Y0000928810D01*
X0001639901Y0000932381D01*
X0001636330Y0000935953D01*
X0001632758Y0000943096D01*
X0001632758Y0000950238D01*
X0001636330Y0000957381D01*
X0001639901Y0000960953D01*
X0001647044Y0000964524D01*
X0001672044Y0000964524D01*
D50*
X0001295669Y0000805511D02*
X0001246456Y0000805511D01*
X0001295669Y0000756299D02*
X0001295669Y0000805511D01*
X0001079133Y0000524015D02*
X0001079133Y0000644094D01*
X0001195275Y0000524015D02*
X0001079133Y0000524015D01*
X0001195275Y0000494488D02*
X0001195275Y0000524015D01*
X0001079133Y0000764173D02*
X0001079133Y0000644094D01*
X0001195275Y0000764173D02*
X0001079133Y0000764173D01*
X0001195275Y0000793700D02*
X0001195275Y0000764173D01*
X0001283858Y0000494488D02*
X0001283858Y0000565354D01*
X0001254330Y0000494488D02*
X0001283858Y0000494488D01*
X0001254330Y0000565354D02*
X0001254330Y0000494488D01*
X0001283858Y0000565354D02*
X0001254330Y0000565354D01*
X0001283858Y0000722834D02*
X0001283858Y0000793700D01*
X0001254330Y0000722834D02*
X0001283858Y0000722834D01*
X0001254330Y0000793700D02*
X0001254330Y0000722834D01*
X0001283858Y0000793700D02*
X0001254330Y0000793700D01*
X0001283858Y0000624409D02*
X0001283858Y0000663779D01*
X0001254330Y0000624409D02*
X0001283858Y0000624409D01*
X0001254330Y0000663779D02*
X0001254330Y0000624409D01*
X0001283858Y0000663779D02*
X0001254330Y0000663779D01*
X0001284251Y0000494094D02*
X0001284251Y0000794094D01*
X0001049212Y0000494094D02*
X0001284251Y0000494094D01*
X0001049212Y0000794094D02*
X0001049212Y0000494094D01*
X0001284251Y0000794094D02*
X0001049212Y0000794094D01*
X0001295669Y0001407086D02*
X0001246456Y0001407086D01*
X0001295669Y0001357873D02*
X0001295669Y0001407086D01*
X0001079133Y0000928740D02*
X0001079133Y0001147244D01*
X0001195275Y0000928740D02*
X0001079133Y0000928740D01*
X0001195275Y0000899212D02*
X0001195275Y0000928740D01*
X0001079133Y0001365748D02*
X0001079133Y0001147244D01*
X0001195275Y0001365748D02*
X0001079133Y0001365748D01*
X0001195275Y0001395275D02*
X0001195275Y0001365748D01*
X0001283858Y0000899212D02*
X0001283858Y0000970078D01*
X0001254330Y0000899212D02*
X0001283858Y0000899212D01*
X0001254330Y0000970078D02*
X0001254330Y0000899212D01*
X0001283858Y0000970078D02*
X0001254330Y0000970078D01*
X0001283858Y0001324409D02*
X0001283858Y0001395275D01*
X0001254330Y0001324409D02*
X0001283858Y0001324409D01*
X0001254330Y0001395275D02*
X0001254330Y0001324409D01*
X0001283858Y0001395275D02*
X0001254330Y0001395275D01*
X0001283858Y0001029133D02*
X0001283858Y0001265354D01*
X0001254330Y0001029133D02*
X0001283858Y0001029133D01*
X0001254330Y0001265354D02*
X0001254330Y0001029133D01*
X0001283858Y0001265354D02*
X0001254330Y0001265354D01*
X0001284251Y0000898818D02*
X0001284251Y0001395669D01*
X0001049212Y0000898818D02*
X0001284251Y0000898818D01*
X0001049212Y0001395669D02*
X0001049212Y0000898818D01*
X0001284251Y0001395669D02*
X0001049212Y0001395669D01*
X0001595669Y0001407086D02*
X0001546456Y0001407086D01*
X0001595669Y0001357873D02*
X0001595669Y0001407086D01*
X0001379133Y0000928740D02*
X0001379133Y0001147244D01*
X0001495275Y0000928740D02*
X0001379133Y0000928740D01*
X0001495275Y0000899212D02*
X0001495275Y0000928740D01*
X0001379133Y0001365748D02*
X0001379133Y0001147244D01*
X0001495275Y0001365748D02*
X0001379133Y0001365748D01*
X0001495275Y0001395275D02*
X0001495275Y0001365748D01*
X0001583858Y0000899212D02*
X0001583858Y0000970078D01*
X0001554330Y0000899212D02*
X0001583858Y0000899212D01*
X0001554330Y0000970078D02*
X0001554330Y0000899212D01*
X0001583858Y0000970078D02*
X0001554330Y0000970078D01*
X0001583858Y0001324409D02*
X0001583858Y0001395275D01*
X0001554330Y0001324409D02*
X0001583858Y0001324409D01*
X0001554330Y0001395275D02*
X0001554330Y0001324409D01*
X0001583858Y0001395275D02*
X0001554330Y0001395275D01*
X0001583858Y0001029133D02*
X0001583858Y0001265354D01*
X0001554330Y0001029133D02*
X0001583858Y0001029133D01*
X0001554330Y0001265354D02*
X0001554330Y0001029133D01*
X0001583858Y0001265354D02*
X0001554330Y0001265354D01*
X0001584251Y0000898818D02*
X0001584251Y0001395669D01*
X0001349212Y0000898818D02*
X0001584251Y0000898818D01*
X0001349212Y0001395669D02*
X0001349212Y0000898818D01*
X0001584251Y0001395669D02*
X0001349212Y0001395669D01*
X0000143503Y0001265354D02*
X0000243503Y0001265354D01*
X0000143503Y0001265354D02*
X0000143503Y0001165354D01*
X0000153346Y0001255511D02*
X0000521456Y0001255511D01*
X0000153346Y0000634251D02*
X0000153346Y0001255511D01*
X0000521456Y0000634251D02*
X0000153346Y0000634251D01*
X0000521456Y0001255511D02*
X0000521456Y0000634251D01*
%LPC*%
D51*
X0001187401Y0000594881D03*
D52*
G36*
X0001155434Y0000657884D02*
G01*
X0001154421Y0000658035D01*
X0001153428Y0000658283D01*
X0001152464Y0000658628D01*
X0001151538Y0000659066D01*
X0001150660Y0000659592D01*
X0001149838Y0000660202D01*
X0001149079Y0000660890D01*
X0001148391Y0000661649D01*
X0001147781Y0000662471D01*
X0001147255Y0000663349D01*
X0001146817Y0000664275D01*
X0001146472Y0000665239D01*
X0001146224Y0000666232D01*
X0001146073Y0000667245D01*
X0001146023Y0000668267D01*
X0001146023Y0000718346D01*
X0001146073Y0000719369D01*
X0001146224Y0000720381D01*
X0001146472Y0000721374D01*
X0001146817Y0000722339D01*
X0001147255Y0000723264D01*
X0001147781Y0000724142D01*
X0001148391Y0000724965D01*
X0001149079Y0000725723D01*
X0001149838Y0000726411D01*
X0001150660Y0000727021D01*
X0001151538Y0000727547D01*
X0001152464Y0000727985D01*
X0001153428Y0000728330D01*
X0001154421Y0000728579D01*
X0001155434Y0000728729D01*
X0001156456Y0000728779D01*
X0001218346Y0000728779D01*
X0001219369Y0000728729D01*
X0001220381Y0000728579D01*
X0001221375Y0000728330D01*
X0001222339Y0000727985D01*
X0001223264Y0000727547D01*
X0001224142Y0000727021D01*
X0001224965Y0000726411D01*
X0001225723Y0000725723D01*
X0001226411Y0000724965D01*
X0001227021Y0000724142D01*
X0001227547Y0000723264D01*
X0001227985Y0000722338D01*
X0001228330Y0000721374D01*
X0001228579Y0000720381D01*
X0001228729Y0000719369D01*
X0001228779Y0000718346D01*
X0001228779Y0000668267D01*
X0001228729Y0000667245D01*
X0001228579Y0000666232D01*
X0001228330Y0000665239D01*
X0001227985Y0000664275D01*
X0001227547Y0000663349D01*
X0001227021Y0000662471D01*
X0001226411Y0000661649D01*
X0001225723Y0000660890D01*
X0001224965Y0000660202D01*
X0001224142Y0000659592D01*
X0001223264Y0000659066D01*
X0001222338Y0000658628D01*
X0001221375Y0000658283D01*
X0001220381Y0000658035D01*
X0001219369Y0000657884D01*
X0001218346Y0000657834D01*
X0001156456Y0000657834D01*
X0001155434Y0000657884D01*
X0001155434Y0000657884D01*
G37*
D53*
X0001187401Y0000693307D03*
D54*
X0001187401Y0000999606D03*
X0001187401Y0001098031D03*
X0001187401Y0001196456D03*
D52*
G36*
X0001156418Y0001259459D02*
G01*
X0001155405Y0001259609D01*
X0001154412Y0001259858D01*
X0001153448Y0001260203D01*
X0001152522Y0001260641D01*
X0001151644Y0001261167D01*
X0001150822Y0001261777D01*
X0001150063Y0001262465D01*
X0001149376Y0001263223D01*
X0001148766Y0001264046D01*
X0001148239Y0001264924D01*
X0001147802Y0001265849D01*
X0001147457Y0001266813D01*
X0001147208Y0001267807D01*
X0001147058Y0001268819D01*
X0001147007Y0001269842D01*
X0001147007Y0001319921D01*
X0001147058Y0001320943D01*
X0001147208Y0001321956D01*
X0001147457Y0001322949D01*
X0001147802Y0001323913D01*
X0001148239Y0001324839D01*
X0001148766Y0001325717D01*
X0001149376Y0001326539D01*
X0001150063Y0001327298D01*
X0001150822Y0001327986D01*
X0001151644Y0001328596D01*
X0001152522Y0001329122D01*
X0001153448Y0001329560D01*
X0001154412Y0001329905D01*
X0001155405Y0001330153D01*
X0001156418Y0001330304D01*
X0001157440Y0001330354D01*
X0001217362Y0001330354D01*
X0001218384Y0001330304D01*
X0001219397Y0001330153D01*
X0001220390Y0001329905D01*
X0001221354Y0001329560D01*
X0001222280Y0001329122D01*
X0001223158Y0001328596D01*
X0001223980Y0001327986D01*
X0001224739Y0001327298D01*
X0001225427Y0001326539D01*
X0001226036Y0001325717D01*
X0001226563Y0001324839D01*
X0001227001Y0001323913D01*
X0001227346Y0001322949D01*
X0001227594Y0001321956D01*
X0001227745Y0001320943D01*
X0001227795Y0001319921D01*
X0001227795Y0001269842D01*
X0001227745Y0001268819D01*
X0001227594Y0001267807D01*
X0001227346Y0001266813D01*
X0001227001Y0001265849D01*
X0001226563Y0001264924D01*
X0001226036Y0001264046D01*
X0001225427Y0001263223D01*
X0001224739Y0001262465D01*
X0001223980Y0001261777D01*
X0001223158Y0001261167D01*
X0001222280Y0001260641D01*
X0001221354Y0001260203D01*
X0001220390Y0001259858D01*
X0001219397Y0001259609D01*
X0001218384Y0001259459D01*
X0001217362Y0001259409D01*
X0001157440Y0001259409D01*
X0001156418Y0001259459D01*
X0001156418Y0001259459D01*
G37*
D53*
X0001187401Y0001294881D03*
D54*
X0001487401Y0000999606D03*
X0001487401Y0001098031D03*
X0001487401Y0001196456D03*
D52*
G36*
X0001456418Y0001259459D02*
G01*
X0001455405Y0001259609D01*
X0001454412Y0001259858D01*
X0001453448Y0001260203D01*
X0001452522Y0001260641D01*
X0001451644Y0001261167D01*
X0001450822Y0001261777D01*
X0001450063Y0001262465D01*
X0001449376Y0001263223D01*
X0001448766Y0001264046D01*
X0001448239Y0001264924D01*
X0001447802Y0001265849D01*
X0001447457Y0001266813D01*
X0001447208Y0001267807D01*
X0001447058Y0001268819D01*
X0001447007Y0001269842D01*
X0001447007Y0001319921D01*
X0001447058Y0001320943D01*
X0001447208Y0001321956D01*
X0001447457Y0001322949D01*
X0001447802Y0001323913D01*
X0001448239Y0001324839D01*
X0001448766Y0001325717D01*
X0001449376Y0001326539D01*
X0001450063Y0001327298D01*
X0001450822Y0001327986D01*
X0001451644Y0001328596D01*
X0001452522Y0001329122D01*
X0001453448Y0001329560D01*
X0001454412Y0001329905D01*
X0001455405Y0001330153D01*
X0001456418Y0001330304D01*
X0001457440Y0001330354D01*
X0001517362Y0001330354D01*
X0001518384Y0001330304D01*
X0001519397Y0001330153D01*
X0001520390Y0001329905D01*
X0001521354Y0001329560D01*
X0001522280Y0001329122D01*
X0001523158Y0001328596D01*
X0001523980Y0001327986D01*
X0001524739Y0001327298D01*
X0001525427Y0001326539D01*
X0001526036Y0001325717D01*
X0001526563Y0001324839D01*
X0001527001Y0001323913D01*
X0001527346Y0001322949D01*
X0001527594Y0001321956D01*
X0001527745Y0001320943D01*
X0001527795Y0001319921D01*
X0001527795Y0001269842D01*
X0001527745Y0001268819D01*
X0001527594Y0001267807D01*
X0001527346Y0001266813D01*
X0001527001Y0001265849D01*
X0001526563Y0001264924D01*
X0001526036Y0001264046D01*
X0001525427Y0001263223D01*
X0001524739Y0001262465D01*
X0001523980Y0001261777D01*
X0001523158Y0001261167D01*
X0001522280Y0001260641D01*
X0001521354Y0001260203D01*
X0001520390Y0001259858D01*
X0001519397Y0001259609D01*
X0001518384Y0001259459D01*
X0001517362Y0001259409D01*
X0001457440Y0001259409D01*
X0001456418Y0001259459D01*
X0001456418Y0001259459D01*
G37*
D53*
X0001487401Y0001294881D03*
D55*
X0000387401Y0000844881D03*
X0000287401Y0000844881D03*
X0000387401Y0000944881D03*
X0000287401Y0000944881D03*
X0000387401Y0001044881D03*
D56*
X0000287401Y0001044881D03*
D57*
X0000787401Y0001338582D03*
X0000787401Y0000551181D03*
G04 next file*
%LPD*%
G04 #@! TF.GenerationSoftware,KiCad,Pcbnew,(5.1.4)-1*
G04 #@! TF.CreationDate,2020-03-27T15:28:26-04:00*
G04 #@! TF.ProjectId,USB Adapter,55534220-4164-4617-9074-65722e6b6963,rev?*
G04 #@! TF.SameCoordinates,PX6521e48PY3c8eee0*
G04 #@! TF.FileFunction,Legend,Top*
G04 #@! TF.FilePolarity,Positive*
G04 Gerber Fmt 4.6, Leading zero omitted, Abs format (unit mm)*
G04 Created by KiCad (PCBNEW (5.1.4)-1) date 2020-03-27 15:28:26*
G04 APERTURE LIST*
G04 APERTURE END LIST*
D58*
X0002958858Y0000206692D02*
X0003323031Y0000206692D01*
X0002958858Y0000423228D02*
X0002958858Y0000206692D01*
X0003323031Y0000423228D02*
X0002958858Y0000423228D01*
%LPC*%
D59*
X0003610826Y0000164960D03*
X0003610826Y0000264960D03*
X0003610826Y0000364960D03*
D60*
X0003610826Y0000464960D03*
D59*
X0003010826Y0000164960D03*
D60*
X0003110826Y0000164960D03*
D59*
X0003010826Y0000464960D03*
D60*
X0003110826Y0000464960D03*
D61*
G36*
X0003179656Y0000380849D02*
G01*
X0003181425Y0000380586D01*
X0003183160Y0000380152D01*
X0003184844Y0000379549D01*
X0003186461Y0000378785D01*
X0003187995Y0000377865D01*
X0003189431Y0000376800D01*
X0003190756Y0000375599D01*
X0003191957Y0000374274D01*
X0003193023Y0000372837D01*
X0003193942Y0000371303D01*
X0003194707Y0000369686D01*
X0003195309Y0000368002D01*
X0003195744Y0000366267D01*
X0003196006Y0000364498D01*
X0003196094Y0000362712D01*
X0003196094Y0000267208D01*
X0003196006Y0000265422D01*
X0003195744Y0000263653D01*
X0003195309Y0000261918D01*
X0003194707Y0000260234D01*
X0003193942Y0000258617D01*
X0003193023Y0000257083D01*
X0003191957Y0000255647D01*
X0003190756Y0000254322D01*
X0003189431Y0000253120D01*
X0003187995Y0000252055D01*
X0003186461Y0000251136D01*
X0003184844Y0000250371D01*
X0003183160Y0000249768D01*
X0003181425Y0000249334D01*
X0003179656Y0000249072D01*
X0003177870Y0000248984D01*
X0003141421Y0000248984D01*
X0003139634Y0000249072D01*
X0003137865Y0000249334D01*
X0003136130Y0000249768D01*
X0003134447Y0000250371D01*
X0003132830Y0000251136D01*
X0003131296Y0000252055D01*
X0003129859Y0000253120D01*
X0003128534Y0000254322D01*
X0003127333Y0000255647D01*
X0003126268Y0000257083D01*
X0003125348Y0000258617D01*
X0003124584Y0000260234D01*
X0003123981Y0000261918D01*
X0003123547Y0000263653D01*
X0003123284Y0000265422D01*
X0003123196Y0000267208D01*
X0003123196Y0000362712D01*
X0003123284Y0000364498D01*
X0003123547Y0000366267D01*
X0003123981Y0000368002D01*
X0003124584Y0000369686D01*
X0003125348Y0000371303D01*
X0003126268Y0000372837D01*
X0003127333Y0000374274D01*
X0003128534Y0000375599D01*
X0003129859Y0000376800D01*
X0003131296Y0000377865D01*
X0003132830Y0000378785D01*
X0003134447Y0000379549D01*
X0003136130Y0000380152D01*
X0003137865Y0000380586D01*
X0003139634Y0000380849D01*
X0003141421Y0000380937D01*
X0003177870Y0000380937D01*
X0003179656Y0000380849D01*
X0003179656Y0000380849D01*
G37*
D62*
X0003159645Y0000314960D03*
D61*
G36*
X0003407500Y0000484172D02*
G01*
X0003409747Y0000483838D01*
X0003411951Y0000483286D01*
X0003414089Y0000482521D01*
X0003416143Y0000481550D01*
X0003418091Y0000480382D01*
X0003419915Y0000479029D01*
X0003421598Y0000477504D01*
X0003423124Y0000475821D01*
X0003424477Y0000473996D01*
X0003425644Y0000472048D01*
X0003426616Y0000469995D01*
X0003427381Y0000467856D01*
X0003427933Y0000465653D01*
X0003428266Y0000463406D01*
X0003428377Y0000461137D01*
X0003428377Y0000385318D01*
X0003428266Y0000383050D01*
X0003427933Y0000380803D01*
X0003427381Y0000378600D01*
X0003426616Y0000376461D01*
X0003425644Y0000374408D01*
X0003424477Y0000372459D01*
X0003423124Y0000370635D01*
X0003421598Y0000368952D01*
X0003419915Y0000367427D01*
X0003418091Y0000366073D01*
X0003416143Y0000364906D01*
X0003414089Y0000363935D01*
X0003411951Y0000363169D01*
X0003409747Y0000362617D01*
X0003407500Y0000362284D01*
X0003405232Y0000362173D01*
X0003358940Y0000362173D01*
X0003356672Y0000362284D01*
X0003354425Y0000362617D01*
X0003352222Y0000363169D01*
X0003350083Y0000363935D01*
X0003348030Y0000364906D01*
X0003346081Y0000366073D01*
X0003344257Y0000367427D01*
X0003342574Y0000368952D01*
X0003341049Y0000370635D01*
X0003339696Y0000372459D01*
X0003338528Y0000374408D01*
X0003337557Y0000376461D01*
X0003336791Y0000378600D01*
X0003336240Y0000380803D01*
X0003335906Y0000383050D01*
X0003335795Y0000385318D01*
X0003335795Y0000461137D01*
X0003335906Y0000463406D01*
X0003336240Y0000465653D01*
X0003336791Y0000467856D01*
X0003337557Y0000469995D01*
X0003338528Y0000472048D01*
X0003339696Y0000473996D01*
X0003341049Y0000475821D01*
X0003342574Y0000477504D01*
X0003344257Y0000479029D01*
X0003346081Y0000480382D01*
X0003348030Y0000481550D01*
X0003350083Y0000482521D01*
X0003352222Y0000483286D01*
X0003354425Y0000483838D01*
X0003356672Y0000484172D01*
X0003358940Y0000484283D01*
X0003405232Y0000484283D01*
X0003407500Y0000484172D01*
X0003407500Y0000484172D01*
G37*
D63*
X0003382086Y0000423228D03*
D61*
G36*
X0003407500Y0000267636D02*
G01*
X0003409747Y0000267303D01*
X0003411951Y0000266751D01*
X0003414089Y0000265986D01*
X0003416143Y0000265015D01*
X0003418091Y0000263847D01*
X0003419915Y0000262494D01*
X0003421598Y0000260968D01*
X0003423124Y0000259285D01*
X0003424477Y0000257461D01*
X0003425644Y0000255513D01*
X0003426616Y0000253459D01*
X0003427381Y0000251321D01*
X0003427933Y0000249117D01*
X0003428266Y0000246871D01*
X0003428377Y0000244602D01*
X0003428377Y0000168783D01*
X0003428266Y0000166514D01*
X0003427933Y0000164267D01*
X0003427381Y0000162064D01*
X0003426616Y0000159925D01*
X0003425644Y0000157872D01*
X0003424477Y0000155924D01*
X0003423124Y0000154099D01*
X0003421598Y0000152417D01*
X0003419915Y0000150891D01*
X0003418091Y0000149538D01*
X0003416143Y0000148370D01*
X0003414089Y0000147399D01*
X0003411951Y0000146634D01*
X0003409747Y0000146082D01*
X0003407500Y0000145749D01*
X0003405232Y0000145637D01*
X0003358940Y0000145637D01*
X0003356672Y0000145749D01*
X0003354425Y0000146082D01*
X0003352222Y0000146634D01*
X0003350083Y0000147399D01*
X0003348030Y0000148370D01*
X0003346081Y0000149538D01*
X0003344257Y0000150891D01*
X0003342574Y0000152417D01*
X0003341049Y0000154099D01*
X0003339696Y0000155924D01*
X0003338528Y0000157872D01*
X0003337557Y0000159925D01*
X0003336791Y0000162064D01*
X0003336240Y0000164267D01*
X0003335906Y0000166514D01*
X0003335795Y0000168783D01*
X0003335795Y0000244602D01*
X0003335906Y0000246871D01*
X0003336240Y0000249117D01*
X0003336791Y0000251321D01*
X0003337557Y0000253459D01*
X0003338528Y0000255513D01*
X0003339696Y0000257461D01*
X0003341049Y0000259285D01*
X0003342574Y0000260968D01*
X0003344257Y0000262494D01*
X0003346081Y0000263847D01*
X0003348030Y0000265015D01*
X0003350083Y0000265986D01*
X0003352222Y0000266751D01*
X0003354425Y0000267303D01*
X0003356672Y0000267636D01*
X0003358940Y0000267748D01*
X0003405232Y0000267748D01*
X0003407500Y0000267636D01*
X0003407500Y0000267636D01*
G37*
D63*
X0003382086Y0000206692D03*
D61*
G36*
X0003509245Y0000421234D02*
G01*
X0003510393Y0000421064D01*
X0003511519Y0000420782D01*
X0003512612Y0000420391D01*
X0003513661Y0000419894D01*
X0003514657Y0000419298D01*
X0003515589Y0000418606D01*
X0003516449Y0000417827D01*
X0003517228Y0000416967D01*
X0003517920Y0000416035D01*
X0003518516Y0000415039D01*
X0003519013Y0000413990D01*
X0003519404Y0000412897D01*
X0003519686Y0000411771D01*
X0003519856Y0000410623D01*
X0003519913Y0000409464D01*
X0003519913Y0000385811D01*
X0003519856Y0000384651D01*
X0003519686Y0000383503D01*
X0003519404Y0000382377D01*
X0003519013Y0000381285D01*
X0003518516Y0000380235D01*
X0003517920Y0000379240D01*
X0003517228Y0000378308D01*
X0003516449Y0000377448D01*
X0003515589Y0000376668D01*
X0003514657Y0000375977D01*
X0003513661Y0000375380D01*
X0003512612Y0000374884D01*
X0003511519Y0000374493D01*
X0003510393Y0000374211D01*
X0003509245Y0000374041D01*
X0003508086Y0000373984D01*
X0003449000Y0000373984D01*
X0003447840Y0000374041D01*
X0003446692Y0000374211D01*
X0003445566Y0000374493D01*
X0003444474Y0000374884D01*
X0003443424Y0000375380D01*
X0003442429Y0000375977D01*
X0003441497Y0000376668D01*
X0003440637Y0000377448D01*
X0003439857Y0000378308D01*
X0003439166Y0000379240D01*
X0003438569Y0000380235D01*
X0003438073Y0000381285D01*
X0003437682Y0000382377D01*
X0003437400Y0000383503D01*
X0003437230Y0000384651D01*
X0003437173Y0000385811D01*
X0003437173Y0000409464D01*
X0003437230Y0000410623D01*
X0003437400Y0000411771D01*
X0003437682Y0000412897D01*
X0003438073Y0000413990D01*
X0003438569Y0000415039D01*
X0003439166Y0000416035D01*
X0003439857Y0000416967D01*
X0003440637Y0000417827D01*
X0003441497Y0000418606D01*
X0003442429Y0000419298D01*
X0003443424Y0000419894D01*
X0003444474Y0000420391D01*
X0003445566Y0000420782D01*
X0003446692Y0000421064D01*
X0003447840Y0000421234D01*
X0003449000Y0000421291D01*
X0003508086Y0000421291D01*
X0003509245Y0000421234D01*
X0003509245Y0000421234D01*
G37*
D64*
X0003478543Y0000397637D03*
D61*
G36*
X0003509245Y0000366116D02*
G01*
X0003510393Y0000365945D01*
X0003511519Y0000365663D01*
X0003512612Y0000365272D01*
X0003513661Y0000364776D01*
X0003514657Y0000364180D01*
X0003515589Y0000363488D01*
X0003516449Y0000362709D01*
X0003517228Y0000361849D01*
X0003517920Y0000360917D01*
X0003518516Y0000359921D01*
X0003519013Y0000358872D01*
X0003519404Y0000357779D01*
X0003519686Y0000356653D01*
X0003519856Y0000355505D01*
X0003519913Y0000354346D01*
X0003519913Y0000330692D01*
X0003519856Y0000329533D01*
X0003519686Y0000328385D01*
X0003519404Y0000327259D01*
X0003519013Y0000326167D01*
X0003518516Y0000325117D01*
X0003517920Y0000324122D01*
X0003517228Y0000323190D01*
X0003516449Y0000322330D01*
X0003515589Y0000321550D01*
X0003514657Y0000320859D01*
X0003513661Y0000320262D01*
X0003512612Y0000319766D01*
X0003511519Y0000319375D01*
X0003510393Y0000319093D01*
X0003509245Y0000318923D01*
X0003508086Y0000318866D01*
X0003449000Y0000318866D01*
X0003447840Y0000318923D01*
X0003446692Y0000319093D01*
X0003445566Y0000319375D01*
X0003444474Y0000319766D01*
X0003443424Y0000320262D01*
X0003442429Y0000320859D01*
X0003441497Y0000321550D01*
X0003440637Y0000322330D01*
X0003439857Y0000323190D01*
X0003439166Y0000324122D01*
X0003438569Y0000325117D01*
X0003438073Y0000326167D01*
X0003437682Y0000327259D01*
X0003437400Y0000328385D01*
X0003437230Y0000329533D01*
X0003437173Y0000330692D01*
X0003437173Y0000354346D01*
X0003437230Y0000355505D01*
X0003437400Y0000356653D01*
X0003437682Y0000357779D01*
X0003438073Y0000358872D01*
X0003438569Y0000359921D01*
X0003439166Y0000360917D01*
X0003439857Y0000361849D01*
X0003440637Y0000362709D01*
X0003441497Y0000363488D01*
X0003442429Y0000364180D01*
X0003443424Y0000364776D01*
X0003444474Y0000365272D01*
X0003445566Y0000365663D01*
X0003446692Y0000365945D01*
X0003447840Y0000366116D01*
X0003449000Y0000366173D01*
X0003508086Y0000366173D01*
X0003509245Y0000366116D01*
X0003509245Y0000366116D01*
G37*
D64*
X0003478543Y0000342519D03*
D61*
G36*
X0003509245Y0000310998D02*
G01*
X0003510393Y0000310827D01*
X0003511519Y0000310545D01*
X0003512612Y0000310154D01*
X0003513661Y0000309658D01*
X0003514657Y0000309061D01*
X0003515589Y0000308370D01*
X0003516449Y0000307591D01*
X0003517228Y0000306731D01*
X0003517920Y0000305798D01*
X0003518516Y0000304803D01*
X0003519013Y0000303754D01*
X0003519404Y0000302661D01*
X0003519686Y0000301535D01*
X0003519856Y0000300387D01*
X0003519913Y0000299228D01*
X0003519913Y0000275574D01*
X0003519856Y0000274415D01*
X0003519686Y0000273267D01*
X0003519404Y0000272141D01*
X0003519013Y0000271048D01*
X0003518516Y0000269999D01*
X0003517920Y0000269004D01*
X0003517228Y0000268071D01*
X0003516449Y0000267212D01*
X0003515589Y0000266432D01*
X0003514657Y0000265741D01*
X0003513661Y0000265144D01*
X0003512612Y0000264648D01*
X0003511519Y0000264257D01*
X0003510393Y0000263975D01*
X0003509245Y0000263805D01*
X0003508086Y0000263748D01*
X0003449000Y0000263748D01*
X0003447840Y0000263805D01*
X0003446692Y0000263975D01*
X0003445566Y0000264257D01*
X0003444474Y0000264648D01*
X0003443424Y0000265144D01*
X0003442429Y0000265741D01*
X0003441497Y0000266432D01*
X0003440637Y0000267212D01*
X0003439857Y0000268071D01*
X0003439166Y0000269004D01*
X0003438569Y0000269999D01*
X0003438073Y0000271048D01*
X0003437682Y0000272141D01*
X0003437400Y0000273267D01*
X0003437230Y0000274415D01*
X0003437173Y0000275574D01*
X0003437173Y0000299228D01*
X0003437230Y0000300387D01*
X0003437400Y0000301535D01*
X0003437682Y0000302661D01*
X0003438073Y0000303754D01*
X0003438569Y0000304803D01*
X0003439166Y0000305798D01*
X0003439857Y0000306731D01*
X0003440637Y0000307591D01*
X0003441497Y0000308370D01*
X0003442429Y0000309061D01*
X0003443424Y0000309658D01*
X0003444474Y0000310154D01*
X0003445566Y0000310545D01*
X0003446692Y0000310827D01*
X0003447840Y0000310998D01*
X0003449000Y0000311055D01*
X0003508086Y0000311055D01*
X0003509245Y0000310998D01*
X0003509245Y0000310998D01*
G37*
D64*
X0003478543Y0000287401D03*
D61*
G36*
X0003509245Y0000255880D02*
G01*
X0003510393Y0000255709D01*
X0003511519Y0000255427D01*
X0003512612Y0000255036D01*
X0003513661Y0000254540D01*
X0003514657Y0000253943D01*
X0003515589Y0000253252D01*
X0003516449Y0000252473D01*
X0003517228Y0000251613D01*
X0003517920Y0000250680D01*
X0003518516Y0000249685D01*
X0003519013Y0000248636D01*
X0003519404Y0000247543D01*
X0003519686Y0000246417D01*
X0003519856Y0000245269D01*
X0003519913Y0000244110D01*
X0003519913Y0000220456D01*
X0003519856Y0000219297D01*
X0003519686Y0000218149D01*
X0003519404Y0000217023D01*
X0003519013Y0000215930D01*
X0003518516Y0000214881D01*
X0003517920Y0000213886D01*
X0003517228Y0000212953D01*
X0003516449Y0000212093D01*
X0003515589Y0000211314D01*
X0003514657Y0000210623D01*
X0003513661Y0000210026D01*
X0003512612Y0000209530D01*
X0003511519Y0000209139D01*
X0003510393Y0000208857D01*
X0003509245Y0000208686D01*
X0003508086Y0000208629D01*
X0003449000Y0000208629D01*
X0003447840Y0000208686D01*
X0003446692Y0000208857D01*
X0003445566Y0000209139D01*
X0003444474Y0000209530D01*
X0003443424Y0000210026D01*
X0003442429Y0000210623D01*
X0003441497Y0000211314D01*
X0003440637Y0000212093D01*
X0003439857Y0000212953D01*
X0003439166Y0000213886D01*
X0003438569Y0000214881D01*
X0003438073Y0000215930D01*
X0003437682Y0000217023D01*
X0003437400Y0000218149D01*
X0003437230Y0000219297D01*
X0003437173Y0000220456D01*
X0003437173Y0000244110D01*
X0003437230Y0000245269D01*
X0003437400Y0000246417D01*
X0003437682Y0000247543D01*
X0003438073Y0000248636D01*
X0003438569Y0000249685D01*
X0003439166Y0000250680D01*
X0003439857Y0000251613D01*
X0003440637Y0000252473D01*
X0003441497Y0000253252D01*
X0003442429Y0000253943D01*
X0003443424Y0000254540D01*
X0003444474Y0000255036D01*
X0003445566Y0000255427D01*
X0003446692Y0000255709D01*
X0003447840Y0000255880D01*
X0003449000Y0000255937D01*
X0003508086Y0000255937D01*
X0003509245Y0000255880D01*
X0003509245Y0000255880D01*
G37*
D64*
X0003478543Y0000232283D03*
G04 next file*
%LPD*%
G04 #@! TF.GenerationSoftware,KiCad,Pcbnew,(5.1.4)-1*
G04 #@! TF.CreationDate,2020-03-27T16:03:36-04:00*
G04 #@! TF.ProjectId,y-z_motor_endstop_breakout,792d7a5f-6d6f-4746-9f72-5f656e647374,rev?*
G04 #@! TF.SameCoordinates,PX8a48640PY6422c40*
G04 #@! TF.FileFunction,Legend,Top*
G04 #@! TF.FilePolarity,Positive*
G04 Gerber Fmt 4.6, Leading zero omitted, Abs format (unit mm)*
G04 Created by KiCad (PCBNEW (5.1.4)-1) date 2020-03-27 16:03:36*
G04 APERTURE LIST*
G04 APERTURE END LIST*
D65*
X0002487874Y0002265944D02*
G75*
G03X0002487874Y0002265944I0000020000D01*
G01*
D66*
X0001499606Y0002580314D02*
X0001548818Y0002580314D01*
X0001499606Y0002629527D02*
X0001499606Y0002580314D01*
X0001716141Y0002861811D02*
X0001716141Y0002741732D01*
X0001600000Y0002861811D02*
X0001716141Y0002861811D01*
X0001600000Y0002891338D02*
X0001600000Y0002861811D01*
X0001716141Y0002621653D02*
X0001716141Y0002741732D01*
X0001600000Y0002621653D02*
X0001716141Y0002621653D01*
X0001600000Y0002592125D02*
X0001600000Y0002621653D01*
X0001511417Y0002891338D02*
X0001511417Y0002820472D01*
X0001540944Y0002891338D02*
X0001511417Y0002891338D01*
X0001540944Y0002820472D02*
X0001540944Y0002891338D01*
X0001511417Y0002820472D02*
X0001540944Y0002820472D01*
X0001511417Y0002662992D02*
X0001511417Y0002592125D01*
X0001540944Y0002662992D02*
X0001511417Y0002662992D01*
X0001540944Y0002592125D02*
X0001540944Y0002662992D01*
X0001511417Y0002592125D02*
X0001540944Y0002592125D01*
X0001511417Y0002761417D02*
X0001511417Y0002722047D01*
X0001540944Y0002761417D02*
X0001511417Y0002761417D01*
X0001540944Y0002722047D02*
X0001540944Y0002761417D01*
X0001511417Y0002722047D02*
X0001540944Y0002722047D01*
X0001511023Y0002891732D02*
X0001511023Y0002591732D01*
X0001746062Y0002891732D02*
X0001511023Y0002891732D01*
X0001746062Y0002591732D02*
X0001746062Y0002891732D01*
X0001511023Y0002591732D02*
X0001746062Y0002591732D01*
X0001499606Y0001978740D02*
X0001548818Y0001978740D01*
X0001499606Y0002027952D02*
X0001499606Y0001978740D01*
X0001716141Y0002457086D02*
X0001716141Y0002238582D01*
X0001600000Y0002457086D02*
X0001716141Y0002457086D01*
X0001600000Y0002486614D02*
X0001600000Y0002457086D01*
X0001716141Y0002020078D02*
X0001716141Y0002238582D01*
X0001600000Y0002020078D02*
X0001716141Y0002020078D01*
X0001600000Y0001990551D02*
X0001600000Y0002020078D01*
X0001511417Y0002486614D02*
X0001511417Y0002415748D01*
X0001540944Y0002486614D02*
X0001511417Y0002486614D01*
X0001540944Y0002415748D02*
X0001540944Y0002486614D01*
X0001511417Y0002415748D02*
X0001540944Y0002415748D01*
X0001511417Y0002061417D02*
X0001511417Y0001990551D01*
X0001540944Y0002061417D02*
X0001511417Y0002061417D01*
X0001540944Y0001990551D02*
X0001540944Y0002061417D01*
X0001511417Y0001990551D02*
X0001540944Y0001990551D01*
X0001511417Y0002356692D02*
X0001511417Y0002120472D01*
X0001540944Y0002356692D02*
X0001511417Y0002356692D01*
X0001540944Y0002120472D02*
X0001540944Y0002356692D01*
X0001511417Y0002120472D02*
X0001540944Y0002120472D01*
X0001511023Y0002487007D02*
X0001511023Y0001990157D01*
X0001746062Y0002487007D02*
X0001511023Y0002487007D01*
X0001746062Y0001990157D02*
X0001746062Y0002487007D01*
X0001511023Y0001990157D02*
X0001746062Y0001990157D01*
X0002651771Y0002120472D02*
X0002551771Y0002120472D01*
X0002651771Y0002120472D02*
X0002651771Y0002220472D01*
X0002641929Y0002130314D02*
X0002273818Y0002130314D01*
X0002641929Y0002751574D02*
X0002641929Y0002130314D01*
X0002273818Y0002751574D02*
X0002641929Y0002751574D01*
X0002273818Y0002130314D02*
X0002273818Y0002751574D01*
%LPC*%
D67*
X0001607874Y0002790944D03*
D68*
G36*
X0001575912Y0002657105D02*
G01*
X0001574899Y0002657255D01*
X0001573906Y0002657504D01*
X0001572942Y0002657849D01*
X0001572017Y0002658286D01*
X0001571139Y0002658813D01*
X0001570317Y0002659422D01*
X0001569559Y0002660110D01*
X0001568871Y0002660868D01*
X0001568261Y0002661690D01*
X0001567735Y0002662568D01*
X0001567297Y0002663494D01*
X0001566953Y0002664457D01*
X0001566704Y0002665450D01*
X0001566554Y0002666463D01*
X0001566503Y0002667485D01*
X0001566503Y0002717553D01*
X0001566554Y0002718575D01*
X0001566704Y0002719588D01*
X0001566953Y0002720581D01*
X0001567297Y0002721545D01*
X0001567735Y0002722470D01*
X0001568261Y0002723348D01*
X0001568871Y0002724170D01*
X0001569559Y0002724929D01*
X0001570317Y0002725616D01*
X0001571139Y0002726226D01*
X0001572017Y0002726752D01*
X0001572942Y0002727190D01*
X0001573906Y0002727535D01*
X0001574899Y0002727783D01*
X0001575912Y0002727934D01*
X0001576934Y0002727984D01*
X0001638813Y0002727984D01*
X0001639835Y0002727934D01*
X0001640848Y0002727783D01*
X0001641841Y0002727535D01*
X0001642805Y0002727190D01*
X0001643730Y0002726752D01*
X0001644608Y0002726226D01*
X0001645430Y0002725616D01*
X0001646189Y0002724929D01*
X0001646876Y0002724170D01*
X0001647486Y0002723348D01*
X0001648012Y0002722470D01*
X0001648450Y0002721545D01*
X0001648794Y0002720581D01*
X0001649043Y0002719588D01*
X0001649193Y0002718575D01*
X0001649244Y0002717553D01*
X0001649244Y0002667485D01*
X0001649193Y0002666463D01*
X0001649043Y0002665450D01*
X0001648794Y0002664457D01*
X0001648450Y0002663494D01*
X0001648012Y0002662568D01*
X0001647486Y0002661690D01*
X0001646876Y0002660868D01*
X0001646189Y0002660110D01*
X0001645430Y0002659422D01*
X0001644608Y0002658813D01*
X0001643730Y0002658286D01*
X0001642805Y0002657849D01*
X0001641841Y0002657504D01*
X0001640848Y0002657255D01*
X0001639835Y0002657105D01*
X0001638813Y0002657055D01*
X0001576934Y0002657055D01*
X0001575912Y0002657105D01*
X0001575912Y0002657105D01*
G37*
D69*
X0001607874Y0002692519D03*
D70*
X0001607874Y0002386220D03*
X0001607874Y0002287795D03*
X0001607874Y0002189370D03*
D68*
G36*
X0001576896Y0002055530D02*
G01*
X0001575884Y0002055680D01*
X0001574891Y0002055929D01*
X0001573927Y0002056274D01*
X0001573001Y0002056711D01*
X0001572123Y0002057238D01*
X0001571301Y0002057847D01*
X0001570543Y0002058535D01*
X0001569855Y0002059293D01*
X0001569246Y0002060116D01*
X0001568719Y0002060994D01*
X0001568282Y0002061919D01*
X0001567937Y0002062883D01*
X0001567688Y0002063876D01*
X0001567538Y0002064888D01*
X0001567488Y0002065911D01*
X0001567488Y0002115978D01*
X0001567538Y0002117001D01*
X0001567688Y0002118013D01*
X0001567937Y0002119006D01*
X0001568282Y0002119970D01*
X0001568719Y0002120895D01*
X0001569246Y0002121773D01*
X0001569855Y0002122595D01*
X0001570543Y0002123354D01*
X0001571301Y0002124041D01*
X0001572123Y0002124651D01*
X0001573001Y0002125177D01*
X0001573927Y0002125615D01*
X0001574891Y0002125960D01*
X0001575884Y0002126209D01*
X0001576896Y0002126359D01*
X0001577918Y0002126409D01*
X0001637829Y0002126409D01*
X0001638851Y0002126359D01*
X0001639864Y0002126209D01*
X0001640856Y0002125960D01*
X0001641820Y0002125615D01*
X0001642746Y0002125177D01*
X0001643624Y0002124651D01*
X0001644446Y0002124041D01*
X0001645204Y0002123354D01*
X0001645892Y0002122595D01*
X0001646501Y0002121773D01*
X0001647028Y0002120895D01*
X0001647465Y0002119970D01*
X0001647810Y0002119006D01*
X0001648059Y0002118013D01*
X0001648209Y0002117001D01*
X0001648259Y0002115978D01*
X0001648259Y0002065911D01*
X0001648209Y0002064888D01*
X0001648059Y0002063876D01*
X0001647810Y0002062883D01*
X0001647465Y0002061919D01*
X0001647028Y0002060994D01*
X0001646501Y0002060116D01*
X0001645892Y0002059293D01*
X0001645204Y0002058535D01*
X0001644446Y0002057847D01*
X0001643624Y0002057238D01*
X0001642746Y0002056711D01*
X0001641820Y0002056274D01*
X0001640856Y0002055929D01*
X0001639864Y0002055680D01*
X0001638851Y0002055530D01*
X0001637829Y0002055480D01*
X0001577918Y0002055480D01*
X0001576896Y0002055530D01*
X0001576896Y0002055530D01*
G37*
D69*
X0001607874Y0002090944D03*
D71*
X0002407874Y0002540944D03*
X0002507874Y0002540944D03*
X0002407874Y0002440944D03*
X0002507874Y0002440944D03*
X0002407874Y0002340944D03*
D72*
X0002507874Y0002340944D03*
D73*
X0002007874Y0002047244D03*
X0002007874Y0002834645D03*
G04 next file*
%LPD*%
G04 #@! TF.GenerationSoftware,KiCad,Pcbnew,(5.1.4)-1*
G04 #@! TF.CreationDate,2020-03-27T15:32:05-04:00*
G04 #@! TF.ProjectId,Encoder Daughterboard,456e636f-6465-4722-9044-617567687465,rev?*
G04 #@! TF.SameCoordinates,PX9d739e0PY5e78920*
G04 #@! TF.FileFunction,Legend,Top*
G04 #@! TF.FilePolarity,Positive*
G04 Gerber Fmt 4.6, Leading zero omitted, Abs format (unit mm)*
G04 Created by KiCad (PCBNEW (5.1.4)-1) date 2020-03-27 15:32:05*
G04 APERTURE LIST*
G04 APERTURE END LIST*
D74*
X0002057086Y0000726377D02*
G75*
G02X0002019685Y0000763779J0000037401D01*
G01*
X0002468503Y0000763779D02*
X0002468503Y0001204724D01*
X0002019685Y0001204724D02*
G75*
G02X0002057086Y0001242125I0000037401D01*
G01*
X0002431102Y0001242125D02*
X0002057086Y0001242125D01*
X0002468503Y0000763779D02*
G75*
G02X0002431102Y0000726377I-0000037401D01*
G01*
X0002019685Y0001204724D02*
X0002019685Y0000763779D01*
X0002244094Y0000880905D02*
G75*
G03X0002244094Y0000880905J0000103346D01*
G01*
X0002057086Y0000726377D02*
X0002431102Y0000726377D01*
X0002431102Y0001242125D02*
G75*
G02X0002468503Y0001204724J-0000037401D01*
G01*
D75*
X0002446456Y0001586614D02*
X0002446456Y0001534251D01*
X0002394094Y0001586614D02*
X0002446456Y0001586614D01*
X0002446456Y0001484251D02*
X0002446456Y0001381889D01*
X0002344094Y0001484251D02*
X0002446456Y0001484251D01*
X0002344094Y0001586614D02*
X0002344094Y0001484251D01*
X0002446456Y0001381889D02*
X0002041732Y0001381889D01*
X0002344094Y0001586614D02*
X0002041732Y0001586614D01*
X0002041732Y0001586614D02*
X0002041732Y0001381889D01*
%LPC*%
D76*
X0002503937Y0000984251D03*
X0001984251Y0000984251D03*
D77*
X0002401574Y0001259842D03*
X0002322834Y0001259842D03*
X0002244094Y0001259842D03*
X0002165354Y0001259842D03*
X0002086614Y0001259842D03*
D78*
X0002342519Y0000688976D03*
X0002244094Y0000688976D03*
X0002145669Y0000688976D03*
D79*
X0002094094Y0001434251D03*
X0002094094Y0001534251D03*
X0002194094Y0001434251D03*
X0002194094Y0001534251D03*
X0002294094Y0001434251D03*
X0002294094Y0001534251D03*
X0002394094Y0001434251D03*
D80*
X0002394094Y0001534251D03*
G04 next file*
%LPD*%
G04 #@! TF.GenerationSoftware,KiCad,Pcbnew,(5.1.4)-1*
G04 #@! TF.CreationDate,2020-03-27T16:03:36-04:00*
G04 #@! TF.ProjectId,y-z_motor_endstop_breakout,792d7a5f-6d6f-4746-9f72-5f656e647374,rev?*
G04 #@! TF.SameCoordinates,PX8a48640PY6422c40*
G04 #@! TF.FileFunction,Legend,Top*
G04 #@! TF.FilePolarity,Positive*
G04 Gerber Fmt 4.6, Leading zero omitted, Abs format (unit mm)*
G04 Created by KiCad (PCBNEW (5.1.4)-1) date 2020-03-27 16:03:36*
G04 APERTURE LIST*
G04 APERTURE END LIST*
D81*
X0000425511Y0002615944D02*
G75*
G03X0000425511Y0002615944I-0000020000D01*
G01*
D82*
X0001413779Y0002301574D02*
X0001364566Y0002301574D01*
X0001413779Y0002252362D02*
X0001413779Y0002301574D01*
X0001197244Y0002020078D02*
X0001197244Y0002140157D01*
X0001313385Y0002020078D02*
X0001197244Y0002020078D01*
X0001313385Y0001990551D02*
X0001313385Y0002020078D01*
X0001197244Y0002260236D02*
X0001197244Y0002140157D01*
X0001313385Y0002260236D02*
X0001197244Y0002260236D01*
X0001313385Y0002289763D02*
X0001313385Y0002260236D01*
X0001401968Y0001990551D02*
X0001401968Y0002061417D01*
X0001372440Y0001990551D02*
X0001401968Y0001990551D01*
X0001372440Y0002061417D02*
X0001372440Y0001990551D01*
X0001401968Y0002061417D02*
X0001372440Y0002061417D01*
X0001401968Y0002218897D02*
X0001401968Y0002289763D01*
X0001372440Y0002218897D02*
X0001401968Y0002218897D01*
X0001372440Y0002289763D02*
X0001372440Y0002218897D01*
X0001401968Y0002289763D02*
X0001372440Y0002289763D01*
X0001401968Y0002120472D02*
X0001401968Y0002159842D01*
X0001372440Y0002120472D02*
X0001401968Y0002120472D01*
X0001372440Y0002159842D02*
X0001372440Y0002120472D01*
X0001401968Y0002159842D02*
X0001372440Y0002159842D01*
X0001402362Y0001990157D02*
X0001402362Y0002290157D01*
X0001167322Y0001990157D02*
X0001402362Y0001990157D01*
X0001167322Y0002290157D02*
X0001167322Y0001990157D01*
X0001402362Y0002290157D02*
X0001167322Y0002290157D01*
X0001413779Y0002903149D02*
X0001364566Y0002903149D01*
X0001413779Y0002853937D02*
X0001413779Y0002903149D01*
X0001197244Y0002424803D02*
X0001197244Y0002643307D01*
X0001313385Y0002424803D02*
X0001197244Y0002424803D01*
X0001313385Y0002395275D02*
X0001313385Y0002424803D01*
X0001197244Y0002861811D02*
X0001197244Y0002643307D01*
X0001313385Y0002861811D02*
X0001197244Y0002861811D01*
X0001313385Y0002891338D02*
X0001313385Y0002861811D01*
X0001401968Y0002395275D02*
X0001401968Y0002466141D01*
X0001372440Y0002395275D02*
X0001401968Y0002395275D01*
X0001372440Y0002466141D02*
X0001372440Y0002395275D01*
X0001401968Y0002466141D02*
X0001372440Y0002466141D01*
X0001401968Y0002820472D02*
X0001401968Y0002891338D01*
X0001372440Y0002820472D02*
X0001401968Y0002820472D01*
X0001372440Y0002891338D02*
X0001372440Y0002820472D01*
X0001401968Y0002891338D02*
X0001372440Y0002891338D01*
X0001401968Y0002525196D02*
X0001401968Y0002761417D01*
X0001372440Y0002525196D02*
X0001401968Y0002525196D01*
X0001372440Y0002761417D02*
X0001372440Y0002525196D01*
X0001401968Y0002761417D02*
X0001372440Y0002761417D01*
X0001402362Y0002394881D02*
X0001402362Y0002891732D01*
X0001167322Y0002394881D02*
X0001402362Y0002394881D01*
X0001167322Y0002891732D02*
X0001167322Y0002394881D01*
X0001402362Y0002891732D02*
X0001167322Y0002891732D01*
X0000261614Y0002761417D02*
X0000361614Y0002761417D01*
X0000261614Y0002761417D02*
X0000261614Y0002661417D01*
X0000271456Y0002751574D02*
X0000639566Y0002751574D01*
X0000271456Y0002130314D02*
X0000271456Y0002751574D01*
X0000639566Y0002130314D02*
X0000271456Y0002130314D01*
X0000639566Y0002751574D02*
X0000639566Y0002130314D01*
%LPC*%
D83*
X0001305511Y0002090944D03*
D84*
G36*
X0001337473Y0002224784D02*
G01*
X0001338486Y0002224634D01*
X0001339479Y0002224385D01*
X0001340442Y0002224040D01*
X0001341368Y0002223602D01*
X0001342246Y0002223076D01*
X0001343068Y0002222466D01*
X0001343826Y0002221779D01*
X0001344514Y0002221021D01*
X0001345123Y0002220198D01*
X0001345650Y0002219320D01*
X0001346087Y0002218395D01*
X0001346432Y0002217431D01*
X0001346681Y0002216438D01*
X0001346831Y0002215426D01*
X0001346881Y0002214403D01*
X0001346881Y0002164336D01*
X0001346831Y0002163313D01*
X0001346681Y0002162301D01*
X0001346432Y0002161308D01*
X0001346087Y0002160344D01*
X0001345650Y0002159419D01*
X0001345123Y0002158541D01*
X0001344514Y0002157719D01*
X0001343826Y0002156960D01*
X0001343068Y0002156273D01*
X0001342246Y0002155663D01*
X0001341368Y0002155137D01*
X0001340442Y0002154699D01*
X0001339479Y0002154354D01*
X0001338486Y0002154105D01*
X0001337473Y0002153955D01*
X0001336451Y0002153905D01*
X0001274572Y0002153905D01*
X0001273550Y0002153955D01*
X0001272537Y0002154105D01*
X0001271544Y0002154354D01*
X0001270580Y0002154699D01*
X0001269655Y0002155137D01*
X0001268777Y0002155663D01*
X0001267955Y0002156273D01*
X0001267196Y0002156960D01*
X0001266509Y0002157719D01*
X0001265899Y0002158541D01*
X0001265373Y0002159419D01*
X0001264935Y0002160344D01*
X0001264590Y0002161308D01*
X0001264342Y0002162301D01*
X0001264191Y0002163313D01*
X0001264141Y0002164336D01*
X0001264141Y0002214403D01*
X0001264191Y0002215426D01*
X0001264342Y0002216438D01*
X0001264590Y0002217431D01*
X0001264935Y0002218395D01*
X0001265373Y0002219320D01*
X0001265899Y0002220198D01*
X0001266509Y0002221021D01*
X0001267196Y0002221779D01*
X0001267955Y0002222466D01*
X0001268777Y0002223076D01*
X0001269655Y0002223602D01*
X0001270580Y0002224040D01*
X0001271544Y0002224385D01*
X0001272537Y0002224634D01*
X0001273550Y0002224784D01*
X0001274572Y0002224834D01*
X0001336451Y0002224834D01*
X0001337473Y0002224784D01*
X0001337473Y0002224784D01*
G37*
D85*
X0001305511Y0002189370D03*
D86*
X0001305511Y0002495669D03*
X0001305511Y0002594094D03*
X0001305511Y0002692519D03*
D84*
G36*
X0001336489Y0002826359D02*
G01*
X0001337501Y0002826209D01*
X0001338494Y0002825960D01*
X0001339458Y0002825615D01*
X0001340383Y0002825177D01*
X0001341261Y0002824651D01*
X0001342084Y0002824041D01*
X0001342842Y0002823354D01*
X0001343529Y0002822595D01*
X0001344139Y0002821773D01*
X0001344665Y0002820895D01*
X0001345103Y0002819970D01*
X0001345448Y0002819006D01*
X0001345697Y0002818013D01*
X0001345847Y0002817001D01*
X0001345897Y0002815978D01*
X0001345897Y0002765911D01*
X0001345847Y0002764888D01*
X0001345697Y0002763876D01*
X0001345448Y0002762883D01*
X0001345103Y0002761919D01*
X0001344665Y0002760994D01*
X0001344139Y0002760116D01*
X0001343529Y0002759293D01*
X0001342842Y0002758535D01*
X0001342084Y0002757847D01*
X0001341261Y0002757238D01*
X0001340383Y0002756711D01*
X0001339458Y0002756274D01*
X0001338494Y0002755929D01*
X0001337501Y0002755680D01*
X0001336489Y0002755530D01*
X0001335466Y0002755480D01*
X0001275556Y0002755480D01*
X0001274534Y0002755530D01*
X0001273521Y0002755680D01*
X0001272528Y0002755929D01*
X0001271565Y0002756274D01*
X0001270639Y0002756711D01*
X0001269761Y0002757238D01*
X0001268939Y0002757847D01*
X0001268181Y0002758535D01*
X0001267493Y0002759293D01*
X0001266883Y0002760116D01*
X0001266357Y0002760994D01*
X0001265919Y0002761919D01*
X0001265575Y0002762883D01*
X0001265326Y0002763876D01*
X0001265176Y0002764888D01*
X0001265125Y0002765911D01*
X0001265125Y0002815978D01*
X0001265176Y0002817001D01*
X0001265326Y0002818013D01*
X0001265575Y0002819006D01*
X0001265919Y0002819970D01*
X0001266357Y0002820895D01*
X0001266883Y0002821773D01*
X0001267493Y0002822595D01*
X0001268181Y0002823354D01*
X0001268939Y0002824041D01*
X0001269761Y0002824651D01*
X0001270639Y0002825177D01*
X0001271565Y0002825615D01*
X0001272528Y0002825960D01*
X0001273521Y0002826209D01*
X0001274534Y0002826359D01*
X0001275556Y0002826409D01*
X0001335466Y0002826409D01*
X0001336489Y0002826359D01*
X0001336489Y0002826359D01*
G37*
D85*
X0001305511Y0002790944D03*
D87*
X0000505511Y0002340944D03*
X0000405511Y0002340944D03*
X0000505511Y0002440944D03*
X0000405511Y0002440944D03*
X0000505511Y0002540944D03*
D88*
X0000405511Y0002540944D03*
D89*
X0000905511Y0002834645D03*
X0000905511Y0002047244D03*
M02*