%
M48
METRIC,000.000
T01C0.50
%
T01
X037750Y065919
X037750Y064919
X037750Y063919
X037750Y062919
X037750Y061919
X037750Y060919
X036250Y060598
X036250Y061598
X036250Y062598
X036250Y063598
X036250Y064598
X036250Y065598
X020688Y081250
X021688Y081250
X022688Y081250
X023688Y081250
X024688Y081250
X025688Y081250
X024842Y079526
X023858Y079700
X022860Y079745
X021864Y079664
X020887Y079456
X048688Y081250
X049688Y081250
X050688Y081250
X051688Y081250
X052688Y081250
X053688Y081250
X053418Y079360
X052451Y079609
X051459Y079734
X050460Y079730
X049470Y079594
X048506Y079334
X077422Y067250
X076422Y067250
X075422Y067250
X074422Y067250
X073422Y067250
X073340Y070750
X074340Y070750
X075340Y070750
X076340Y070750
X077340Y070750
X069250Y063884
X069250Y062884
X069250Y061884
X069250Y060884
X069250Y059884
X069250Y058884
X067249Y059241
X067249Y060241
X067249Y061241
X067249Y062241
X067249Y063241
X067249Y064241
X069250Y030884
X069250Y029884
X069250Y028884
X069250Y027884
X069250Y026884
X066774Y026636
X066774Y027636
X066774Y028636
X066774Y029636
X066774Y030636
X066774Y031636
X076654Y016750
X077654Y016750
X078654Y016750
X079654Y016750
X080654Y016750
X080930Y013329
X079930Y013329
X078930Y013329
X077930Y013329
X076930Y013329
X086654Y016750
X087654Y016750
X088654Y016750
X089654Y016750
X090654Y016750
X090930Y013329
X089930Y013329
X088930Y013329
X087930Y013329
X086930Y013329
X044250Y026568
X044250Y027568
X044250Y028568
X044250Y029568
X044250Y030568
X044250Y031568
X047224Y031029
X047224Y030029
X047224Y029029
X047224Y028029
X047224Y027029
X021871Y041518
X020888Y041697
X019890Y041746
X018894Y041668
X017915Y041464
X018947Y045394
X019832Y044929
X020768Y044580
X021741Y044353
X022736Y044256
X051940Y044309
X052922Y044495
X053872Y044803
X049628Y044372
X050622Y044261
X054696Y041759
X053696Y041759
X052696Y041759
X051696Y041759
X050696Y041759
X049696Y041735
X059025Y012789
X058025Y012789
X057025Y012789
X056025Y012789
X055025Y012789
X054622Y015225
X055622Y015225
X056622Y015225
X057622Y015225
X058622Y015225
X059622Y015225
M30