%
M48
METRIC,000.000
T10C0.40
T11C0.95
T12C1.00
T13C1.02
T14C1.10
T15C2.70
T16C3.20
T17C4.50
T18C5.30
T19C0.80
T20C0.90
T21C1.35
T22C1.25
T23C2.25
%
T10
X080317Y020810
X080317Y018905
X086032Y018905
X091747Y018905
X080350Y084555
X019492Y023746
X018476Y023746
X017460Y023746
X011745Y028572
X010729Y028572
X009713Y028572
T11
X087294Y034144
X089793Y034144
X092295Y034144
X094795Y034144
X037780Y025389
X037780Y027888
X037780Y030390
X037780Y032890
X030160Y025389
X030160Y027888
X030160Y030390
X030160Y032890
X040839Y053110
X040840Y055609
X040840Y058111
X040840Y060610
X033160Y070890
X033160Y068390
X033160Y065888
X033160Y063389
T12
X087175Y027754
X087175Y025255
X094160Y027754
X094160Y025255
X080190Y027754
X080190Y025255
X074635Y076554
X074635Y074054
X030159Y015110
X030160Y017609
X076475Y011809
X091715Y011809
X091715Y009270
X091715Y006730
X091715Y004190
X076475Y004190
X079015Y004190
X079015Y011809
X040840Y068390
X040840Y070890
X060810Y038970
X058269Y038970
X055730Y038970
X053190Y038970
X060810Y036430
X058269Y036430
X055730Y036430
X053190Y036430
X033160Y055609
X033160Y053110
T13
X075110Y048620
X075110Y046080
X077650Y048620
X077650Y046080
X080190Y048620
X080190Y046080
X082730Y048620
X082730Y046080
X085270Y048620
X085270Y046080
X087810Y048620
X087810Y046080
X090350Y048620
X090350Y046080
X092890Y048620
X092890Y046080
X030185Y090270
X030185Y087730
X032725Y090270
X032725Y087730
X035265Y090270
X035265Y087730
X037805Y090270
X037805Y087730
X040345Y090270
X040345Y087730
X042885Y090270
X042885Y087730
X045425Y090270
X045425Y087730
X047965Y090270
X047965Y087730
X050504Y090270
X050504Y087730
X053045Y090270
X053045Y087730
X055585Y090270
X055585Y087730
X058125Y090270
X058125Y087730
X060665Y090270
X060665Y087730
X009840Y021460
X009840Y024000
X009840Y026540
X007300Y021460
X007300Y024000
X007300Y026540
X063700Y059460
X063700Y062000
X063700Y064539
X061160Y059460
X061160Y062000
X061160Y064539
X010300Y064540
X010300Y062000
X010300Y059460
X012840Y064540
X012840Y062000
X012840Y059460
T14
X073205Y027795
X073205Y025255
X061000Y032000
X058998Y032000
X057000Y032000
X055001Y032000
X052999Y032000
T15
X073283Y034780
X078285Y034780
T16
X075000Y061500
X092999Y061500
T17
X074000Y092573
X074000Y085426
T18
X017650Y089000
X087649Y089000
X020000Y014000
X020000Y033999
X051000Y071999
X051000Y052000
X023000Y052000
X023000Y071999
T19
X087905Y010100
X087905Y008701
X087905Y007298
X087905Y005899
T20
X080254Y008650
X080254Y007349
T21
X086180Y010750
X085629Y010750
X086180Y005249
X085629Y005249
T22
X059499Y017499
X057000Y017499
X054500Y017499
T23
X063598Y025000
X050401Y025000
M30