%MOIN*%
%OFA0B0*%
%FSLAX46Y46*%
%IPPOS*%
%LPD*%
%ADD10C,0.0125*%
%ADD11C,0.018750000000000003*%
%ADD12C,0.25596850393700787*%
%ADD13C,0.16148031496062995*%
%ADD14R,0.15360629921259844X0.15360629921259844*%
%ADD15O,0.082740157480314963X0.070929133858267726*%
%ADD16C,0.0039370078740157488*%
%ADD17C,0.070929133858267726*%
%ADD18O,0.070929133858267726X0.080771653543307093*%
%ADD19C,0.086677165354330718*%
%ADD20R,0.086677165354330718X0.086677165354330718*%
%ADD21O,0.072000000000000008X0.072000000000000008*%
%ADD22R,0.072000000000000008X0.072000000000000008*%
%ADD33C,0.014763779527559057*%
%ADD34C,0.018750000000000003*%
%ADD35C,0.0039370078740157488*%
%ADD36C,0.24023622047244098*%
%ADD37C,0.12212598425196851*%
%ADD38C,0.4213385826771654*%
%ADD39O,0.082755905511811029X0.070944881889763792*%
%ADD40C,0.070944881889763792*%
%ADD41O,0.07201574803149606X0.07201574803149606*%
%ADD42R,0.07201574803149606X0.07201574803149606*%
%ADD43C,0.0125*%
%ADD44C,0.018750000000000003*%
%ADD45O,0.082755905511811029X0.070944881889763792*%
%ADD46C,0.0039370078740157488*%
%ADD47C,0.070944881889763792*%
%ADD48O,0.080787401574803158X0.070944881889763792*%
%ADD49O,0.07201574803149606X0.07201574803149606*%
%ADD50R,0.07201574803149606X0.07201574803149606*%
%ADD51C,0.4213385826771654*%
%ADD52C,0.0047244094488188976*%
%ADD53O,0.070929133858267726X0.070929133858267726*%
%ADD54R,0.070929133858267726X0.070929133858267726*%
%ADD55C,0.0039370078740157488*%
%ADD56C,0.0728976377952756*%
%ADD57C,0.09258267716535433*%
%ADD58C,0.047307086614173231*%
%ADD59C,0.0125*%
%ADD60O,0.082740157480314963X0.070929133858267726*%
%ADD61C,0.0039370078740157488*%
%ADD62C,0.070929133858267726*%
%ADD63O,0.080771653543307093X0.070929133858267726*%
%ADD64O,0.072000000000000008X0.072000000000000008*%
%ADD65R,0.072000000000000008X0.072000000000000008*%
%ADD66C,0.42132283464566928*%
%ADD67C,0.15163779527559057*%
%ADD68C,0.0728976377952756*%
%ADD69C,0.082740157480314963*%
%ADD70O,0.070929133858267726X0.070929133858267726*%
%ADD71R,0.070929133858267726X0.070929133858267726*%
%ADD72C,0.0125*%
%ADD73O,0.082740157480314963X0.070929133858267726*%
%ADD74C,0.0039370078740157488*%
%ADD75C,0.070929133858267726*%
%ADD76O,0.080771653543307093X0.070929133858267726*%
%ADD77O,0.072000000000000008X0.072000000000000008*%
%ADD78R,0.072000000000000008X0.072000000000000008*%
%ADD79C,0.42132283464566928*%
D10*
X0003796372Y0002071672D02*
X0003796372Y0002121672D01*
X0003774943Y0002074053D02*
X0003770181Y0002071672D01*
X0003760658Y0002071672D01*
X0003755896Y0002074053D01*
X0003753515Y0002078815D01*
X0003753515Y0002081196D01*
X0003755896Y0002085958D01*
X0003760658Y0002088338D01*
X0003767800Y0002088338D01*
X0003772562Y0002090719D01*
X0003774943Y0002095481D01*
X0003774943Y0002097862D01*
X0003772562Y0002102624D01*
X0003767800Y0002105005D01*
X0003760658Y0002105005D01*
X0003755896Y0002102624D01*
X0003732086Y0002071672D02*
X0003732086Y0002121672D01*
X0003710658Y0002071672D02*
X0003710658Y0002097862D01*
X0003713038Y0002102624D01*
X0003717800Y0002105005D01*
X0003724943Y0002105005D01*
X0003729705Y0002102624D01*
X0003732086Y0002100243D01*
X0003665419Y0002071672D02*
X0003665419Y0002097862D01*
X0003667800Y0002102624D01*
X0003672562Y0002105005D01*
X0003682086Y0002105005D01*
X0003686848Y0002102624D01*
X0003665419Y0002074053D02*
X0003670181Y0002071672D01*
X0003682086Y0002071672D01*
X0003686848Y0002074053D01*
X0003689229Y0002078815D01*
X0003689229Y0002083577D01*
X0003686848Y0002088338D01*
X0003682086Y0002090719D01*
X0003670181Y0002090719D01*
X0003665419Y0002093100D01*
X0003620181Y0002071672D02*
X0003620181Y0002097862D01*
X0003622562Y0002102624D01*
X0003627324Y0002105005D01*
X0003636848Y0002105005D01*
X0003641610Y0002102624D01*
X0003620181Y0002074053D02*
X0003624943Y0002071672D01*
X0003636848Y0002071672D01*
X0003641610Y0002074053D01*
X0003643991Y0002078815D01*
X0003643991Y0002083577D01*
X0003641610Y0002088338D01*
X0003636848Y0002090719D01*
X0003624943Y0002090719D01*
X0003620181Y0002093100D01*
X0003596372Y0002105005D02*
X0003596372Y0002071672D01*
X0003596372Y0002100243D02*
X0003593991Y0002102624D01*
X0003589229Y0002105005D01*
X0003582086Y0002105005D01*
X0003577324Y0002102624D01*
X0003574943Y0002097862D01*
X0003574943Y0002071672D01*
X0003486848Y0002119291D02*
X0003491610Y0002121672D01*
X0003498753Y0002121672D01*
X0003505896Y0002119291D01*
X0003510658Y0002114529D01*
X0003513038Y0002109767D01*
X0003515419Y0002100243D01*
X0003515419Y0002093100D01*
X0003513038Y0002083577D01*
X0003510658Y0002078815D01*
X0003505896Y0002074053D01*
X0003498753Y0002071672D01*
X0003493991Y0002071672D01*
X0003486848Y0002074053D01*
X0003484467Y0002076434D01*
X0003484467Y0002093100D01*
X0003493991Y0002093100D01*
X0003455896Y0002071672D02*
X0003460658Y0002074053D01*
X0003463038Y0002076434D01*
X0003465419Y0002081196D01*
X0003465419Y0002095481D01*
X0003463038Y0002100243D01*
X0003460658Y0002102624D01*
X0003455896Y0002105005D01*
X0003448753Y0002105005D01*
X0003443991Y0002102624D01*
X0003441610Y0002100243D01*
X0003439229Y0002095481D01*
X0003439229Y0002081196D01*
X0003441610Y0002076434D01*
X0003443991Y0002074053D01*
X0003448753Y0002071672D01*
X0003455896Y0002071672D01*
X0003422562Y0002105005D02*
X0003410658Y0002071672D01*
X0003398753Y0002105005D01*
X0003136848Y0002121672D02*
X0003136848Y0002085958D01*
X0003139229Y0002078815D01*
X0003143991Y0002074053D01*
X0003151134Y0002071672D01*
X0003155896Y0002071672D01*
X0003091610Y0002071672D02*
X0003091610Y0002097862D01*
X0003093991Y0002102624D01*
X0003098753Y0002105005D01*
X0003108277Y0002105005D01*
X0003113038Y0002102624D01*
X0003091610Y0002074053D02*
X0003096372Y0002071672D01*
X0003108277Y0002071672D01*
X0003113038Y0002074053D01*
X0003115419Y0002078815D01*
X0003115419Y0002083577D01*
X0003113038Y0002088338D01*
X0003108277Y0002090719D01*
X0003096372Y0002090719D01*
X0003091610Y0002093100D01*
X0003067800Y0002105005D02*
X0003067800Y0002071672D01*
X0003067800Y0002100243D02*
X0003065419Y0002102624D01*
X0003060658Y0002105005D01*
X0003053515Y0002105005D01*
X0003048753Y0002102624D01*
X0003046372Y0002097862D01*
X0003046372Y0002071672D01*
X0002986848Y0002116910D02*
X0002984467Y0002119291D01*
X0002979705Y0002121672D01*
X0002967800Y0002121672D01*
X0002963038Y0002119291D01*
X0002960658Y0002116910D01*
X0002958277Y0002112148D01*
X0002958277Y0002107386D01*
X0002960658Y0002100243D01*
X0002989229Y0002071672D01*
X0002958277Y0002071672D01*
X0002927324Y0002121672D02*
X0002922562Y0002121672D01*
X0002917800Y0002119291D01*
X0002915419Y0002116910D01*
X0002913038Y0002112148D01*
X0002910658Y0002102624D01*
X0002910658Y0002090719D01*
X0002913038Y0002081196D01*
X0002915419Y0002076434D01*
X0002917800Y0002074053D01*
X0002922562Y0002071672D01*
X0002927324Y0002071672D01*
X0002932086Y0002074053D01*
X0002934467Y0002076434D01*
X0002936848Y0002081196D01*
X0002939229Y0002090719D01*
X0002939229Y0002102624D01*
X0002936848Y0002112148D01*
X0002934467Y0002116910D01*
X0002932086Y0002119291D01*
X0002927324Y0002121672D01*
X0002891610Y0002116910D02*
X0002889229Y0002119291D01*
X0002884467Y0002121672D01*
X0002872562Y0002121672D01*
X0002867800Y0002119291D01*
X0002865419Y0002116910D01*
X0002863038Y0002112148D01*
X0002863038Y0002107386D01*
X0002865419Y0002100243D01*
X0002893991Y0002071672D01*
X0002863038Y0002071672D01*
X0002832086Y0002121672D02*
X0002827324Y0002121672D01*
X0002822562Y0002119291D01*
X0002820181Y0002116910D01*
X0002817800Y0002112148D01*
X0002815419Y0002102624D01*
X0002815419Y0002090719D01*
X0002817800Y0002081196D01*
X0002820181Y0002076434D01*
X0002822562Y0002074053D01*
X0002827324Y0002071672D01*
X0002832086Y0002071672D01*
X0002836848Y0002074053D01*
X0002839229Y0002076434D01*
X0002841610Y0002081196D01*
X0002843991Y0002090719D01*
X0002843991Y0002102624D01*
X0002841610Y0002112148D01*
X0002839229Y0002116910D01*
X0002836848Y0002119291D01*
X0002832086Y0002121672D01*
D11*
X0003796372Y0002199648D02*
X0003771372Y0002199648D01*
X0003760658Y0002160362D02*
X0003796372Y0002160362D01*
X0003796372Y0002235362D01*
X0003760658Y0002235362D01*
X0003735658Y0002160362D02*
X0003696372Y0002210362D01*
X0003735658Y0002210362D02*
X0003696372Y0002160362D01*
X0003678515Y0002210362D02*
X0003649943Y0002210362D01*
X0003667800Y0002235362D02*
X0003667800Y0002171077D01*
X0003664229Y0002163934D01*
X0003657086Y0002160362D01*
X0003649943Y0002160362D01*
X0003624943Y0002160362D02*
X0003624943Y0002210362D01*
X0003624943Y0002196077D02*
X0003621372Y0002203219D01*
X0003617800Y0002206791D01*
X0003610658Y0002210362D01*
X0003603515Y0002210362D01*
X0003546372Y0002210362D02*
X0003546372Y0002160362D01*
X0003578515Y0002210362D02*
X0003578515Y0002171077D01*
X0003574943Y0002163934D01*
X0003567800Y0002160362D01*
X0003557086Y0002160362D01*
X0003549943Y0002163934D01*
X0003546372Y0002167505D01*
X0003478515Y0002160362D02*
X0003478515Y0002235362D01*
X0003478515Y0002163934D02*
X0003485658Y0002160362D01*
X0003499943Y0002160362D01*
X0003507086Y0002163934D01*
X0003510658Y0002167505D01*
X0003514229Y0002174648D01*
X0003514229Y0002196077D01*
X0003510658Y0002203219D01*
X0003507086Y0002206791D01*
X0003499943Y0002210362D01*
X0003485658Y0002210362D01*
X0003478515Y0002206791D01*
X0003414229Y0002163934D02*
X0003421372Y0002160362D01*
X0003435658Y0002160362D01*
X0003442800Y0002163934D01*
X0003446372Y0002171077D01*
X0003446372Y0002199648D01*
X0003442800Y0002206791D01*
X0003435658Y0002210362D01*
X0003421372Y0002210362D01*
X0003414229Y0002206791D01*
X0003410658Y0002199648D01*
X0003410658Y0002192505D01*
X0003446372Y0002185362D01*
X0003378515Y0002160362D02*
X0003378515Y0002210362D01*
X0003378515Y0002196077D02*
X0003374943Y0002203219D01*
X0003371372Y0002206791D01*
X0003364229Y0002210362D01*
X0003357086Y0002210362D01*
X0003249943Y0002199648D02*
X0003239229Y0002196077D01*
X0003235658Y0002192505D01*
X0003232086Y0002185362D01*
X0003232086Y0002174648D01*
X0003235658Y0002167505D01*
X0003239229Y0002163934D01*
X0003246372Y0002160362D01*
X0003274943Y0002160362D01*
X0003274943Y0002235362D01*
X0003249943Y0002235362D01*
X0003242800Y0002231791D01*
X0003239229Y0002228219D01*
X0003235658Y0002221077D01*
X0003235658Y0002213934D01*
X0003239229Y0002206791D01*
X0003242800Y0002203219D01*
X0003249943Y0002199648D01*
X0003274943Y0002199648D01*
X0003199943Y0002160362D02*
X0003199943Y0002210362D01*
X0003199943Y0002196077D02*
X0003196372Y0002203219D01*
X0003192800Y0002206791D01*
X0003185658Y0002210362D01*
X0003178515Y0002210362D01*
X0003124943Y0002163934D02*
X0003132086Y0002160362D01*
X0003146372Y0002160362D01*
X0003153515Y0002163934D01*
X0003157086Y0002171077D01*
X0003157086Y0002199648D01*
X0003153515Y0002206791D01*
X0003146372Y0002210362D01*
X0003132086Y0002210362D01*
X0003124943Y0002206791D01*
X0003121372Y0002199648D01*
X0003121372Y0002192505D01*
X0003157086Y0002185362D01*
X0003057086Y0002160362D02*
X0003057086Y0002199648D01*
X0003060658Y0002206791D01*
X0003067800Y0002210362D01*
X0003082086Y0002210362D01*
X0003089229Y0002206791D01*
X0003057086Y0002163934D02*
X0003064229Y0002160362D01*
X0003082086Y0002160362D01*
X0003089229Y0002163934D01*
X0003092800Y0002171077D01*
X0003092800Y0002178219D01*
X0003089229Y0002185362D01*
X0003082086Y0002188934D01*
X0003064229Y0002188934D01*
X0003057086Y0002192505D01*
X0003021372Y0002160362D02*
X0003021372Y0002235362D01*
X0003014229Y0002188934D02*
X0002992800Y0002160362D01*
X0002992800Y0002210362D02*
X0003021372Y0002181791D01*
X0002949943Y0002160362D02*
X0002957086Y0002163934D01*
X0002960658Y0002167505D01*
X0002964229Y0002174648D01*
X0002964229Y0002196077D01*
X0002960658Y0002203219D01*
X0002957086Y0002206791D01*
X0002949943Y0002210362D01*
X0002939229Y0002210362D01*
X0002932086Y0002206791D01*
X0002928515Y0002203219D01*
X0002924943Y0002196077D01*
X0002924943Y0002174648D01*
X0002928515Y0002167505D01*
X0002932086Y0002163934D01*
X0002939229Y0002160362D01*
X0002949943Y0002160362D01*
X0002860658Y0002210362D02*
X0002860658Y0002160362D01*
X0002892800Y0002210362D02*
X0002892800Y0002171077D01*
X0002889229Y0002163934D01*
X0002882086Y0002160362D01*
X0002871372Y0002160362D01*
X0002864229Y0002163934D01*
X0002860658Y0002167505D01*
X0002835658Y0002210362D02*
X0002807086Y0002210362D01*
X0002824943Y0002235362D02*
X0002824943Y0002171077D01*
X0002821372Y0002163934D01*
X0002814229Y0002160362D01*
X0002807086Y0002160362D01*
%LPC*%
D12*
X0003661417Y0002421259D03*
X0002952755Y0002421259D03*
D13*
X0002885236Y0001369291D03*
D14*
X0003082086Y0001369291D03*
D15*
X0003432086Y0001092716D03*
D16*
G36*
X0003464048Y0001029705D02*
G01*
X0003465060Y0001029555D01*
X0003466053Y0001029306D01*
X0003467017Y0001028961D01*
X0003467942Y0001028524D01*
X0003468820Y0001027997D01*
X0003469643Y0001027388D01*
X0003470401Y0001026700D01*
X0003471089Y0001025942D01*
X0003471698Y0001025120D01*
X0003472225Y0001024242D01*
X0003472662Y0001023316D01*
X0003473007Y0001022353D01*
X0003473256Y0001021360D01*
X0003473406Y0001020347D01*
X0003473456Y0001019325D01*
X0003473456Y0000969257D01*
X0003473406Y0000968235D01*
X0003473256Y0000967222D01*
X0003473007Y0000966229D01*
X0003472662Y0000965265D01*
X0003472225Y0000964340D01*
X0003471698Y0000963462D01*
X0003471089Y0000962640D01*
X0003470401Y0000961881D01*
X0003469643Y0000961194D01*
X0003468820Y0000960584D01*
X0003467942Y0000960058D01*
X0003467017Y0000959620D01*
X0003466053Y0000959275D01*
X0003465060Y0000959027D01*
X0003464048Y0000958877D01*
X0003463025Y0000958826D01*
X0003401147Y0000958826D01*
X0003400124Y0000958877D01*
X0003399112Y0000959027D01*
X0003398119Y0000959275D01*
X0003397155Y0000959620D01*
X0003396230Y0000960058D01*
X0003395352Y0000960584D01*
X0003394530Y0000961194D01*
X0003393771Y0000961881D01*
X0003393084Y0000962640D01*
X0003392474Y0000963462D01*
X0003391948Y0000964340D01*
X0003391510Y0000965265D01*
X0003391165Y0000966229D01*
X0003390916Y0000967222D01*
X0003390766Y0000968235D01*
X0003390716Y0000969257D01*
X0003390716Y0001019325D01*
X0003390766Y0001020347D01*
X0003390916Y0001021360D01*
X0003391165Y0001022353D01*
X0003391510Y0001023316D01*
X0003391948Y0001024242D01*
X0003392474Y0001025120D01*
X0003393084Y0001025942D01*
X0003393771Y0001026700D01*
X0003394530Y0001027388D01*
X0003395352Y0001027997D01*
X0003396230Y0001028524D01*
X0003397155Y0001028961D01*
X0003398119Y0001029306D01*
X0003399112Y0001029555D01*
X0003400124Y0001029705D01*
X0003401147Y0001029755D01*
X0003463025Y0001029755D01*
X0003464048Y0001029705D01*
X0003464048Y0001029705D01*
G37*
D17*
X0003432086Y0000994291D03*
D15*
X0003707086Y0001092716D03*
D16*
G36*
X0003739048Y0001029705D02*
G01*
X0003740060Y0001029555D01*
X0003741053Y0001029306D01*
X0003742017Y0001028961D01*
X0003742942Y0001028524D01*
X0003743820Y0001027997D01*
X0003744643Y0001027388D01*
X0003745401Y0001026700D01*
X0003746089Y0001025942D01*
X0003746698Y0001025120D01*
X0003747225Y0001024242D01*
X0003747662Y0001023316D01*
X0003748007Y0001022353D01*
X0003748256Y0001021360D01*
X0003748406Y0001020347D01*
X0003748456Y0001019325D01*
X0003748456Y0000969257D01*
X0003748406Y0000968235D01*
X0003748256Y0000967222D01*
X0003748007Y0000966229D01*
X0003747662Y0000965265D01*
X0003747225Y0000964340D01*
X0003746698Y0000963462D01*
X0003746089Y0000962640D01*
X0003745401Y0000961881D01*
X0003744643Y0000961194D01*
X0003743820Y0000960584D01*
X0003742942Y0000960058D01*
X0003742017Y0000959620D01*
X0003741053Y0000959275D01*
X0003740060Y0000959027D01*
X0003739048Y0000958877D01*
X0003738025Y0000958826D01*
X0003676147Y0000958826D01*
X0003675124Y0000958877D01*
X0003674112Y0000959027D01*
X0003673119Y0000959275D01*
X0003672155Y0000959620D01*
X0003671230Y0000960058D01*
X0003670352Y0000960584D01*
X0003669530Y0000961194D01*
X0003668771Y0000961881D01*
X0003668084Y0000962640D01*
X0003667474Y0000963462D01*
X0003666948Y0000964340D01*
X0003666510Y0000965265D01*
X0003666165Y0000966229D01*
X0003665916Y0000967222D01*
X0003665766Y0000968235D01*
X0003665716Y0000969257D01*
X0003665716Y0001019325D01*
X0003665766Y0001020347D01*
X0003665916Y0001021360D01*
X0003666165Y0001022353D01*
X0003666510Y0001023316D01*
X0003666948Y0001024242D01*
X0003667474Y0001025120D01*
X0003668084Y0001025942D01*
X0003668771Y0001026700D01*
X0003669530Y0001027388D01*
X0003670352Y0001027997D01*
X0003671230Y0001028524D01*
X0003672155Y0001028961D01*
X0003673119Y0001029306D01*
X0003674112Y0001029555D01*
X0003675124Y0001029705D01*
X0003676147Y0001029755D01*
X0003738025Y0001029755D01*
X0003739048Y0001029705D01*
X0003739048Y0001029705D01*
G37*
D17*
X0003707086Y0000994291D03*
D15*
X0003157086Y0001092716D03*
D16*
G36*
X0003189048Y0001029705D02*
G01*
X0003190060Y0001029555D01*
X0003191053Y0001029306D01*
X0003192017Y0001028961D01*
X0003192942Y0001028524D01*
X0003193820Y0001027997D01*
X0003194643Y0001027388D01*
X0003195401Y0001026700D01*
X0003196089Y0001025942D01*
X0003196698Y0001025120D01*
X0003197225Y0001024242D01*
X0003197662Y0001023316D01*
X0003198007Y0001022353D01*
X0003198256Y0001021360D01*
X0003198406Y0001020347D01*
X0003198456Y0001019325D01*
X0003198456Y0000969257D01*
X0003198406Y0000968235D01*
X0003198256Y0000967222D01*
X0003198007Y0000966229D01*
X0003197662Y0000965265D01*
X0003197225Y0000964340D01*
X0003196698Y0000963462D01*
X0003196089Y0000962640D01*
X0003195401Y0000961881D01*
X0003194643Y0000961194D01*
X0003193820Y0000960584D01*
X0003192942Y0000960058D01*
X0003192017Y0000959620D01*
X0003191053Y0000959275D01*
X0003190060Y0000959027D01*
X0003189048Y0000958877D01*
X0003188025Y0000958826D01*
X0003126147Y0000958826D01*
X0003125124Y0000958877D01*
X0003124112Y0000959027D01*
X0003123119Y0000959275D01*
X0003122155Y0000959620D01*
X0003121230Y0000960058D01*
X0003120352Y0000960584D01*
X0003119530Y0000961194D01*
X0003118771Y0000961881D01*
X0003118084Y0000962640D01*
X0003117474Y0000963462D01*
X0003116948Y0000964340D01*
X0003116510Y0000965265D01*
X0003116165Y0000966229D01*
X0003115916Y0000967222D01*
X0003115766Y0000968235D01*
X0003115716Y0000969257D01*
X0003115716Y0001019325D01*
X0003115766Y0001020347D01*
X0003115916Y0001021360D01*
X0003116165Y0001022353D01*
X0003116510Y0001023316D01*
X0003116948Y0001024242D01*
X0003117474Y0001025120D01*
X0003118084Y0001025942D01*
X0003118771Y0001026700D01*
X0003119530Y0001027388D01*
X0003120352Y0001027997D01*
X0003121230Y0001028524D01*
X0003122155Y0001028961D01*
X0003123119Y0001029306D01*
X0003124112Y0001029555D01*
X0003125124Y0001029705D01*
X0003126147Y0001029755D01*
X0003188025Y0001029755D01*
X0003189048Y0001029705D01*
X0003189048Y0001029705D01*
G37*
D17*
X0003157086Y0000994291D03*
D18*
X0003436811Y0001344291D03*
X0003535236Y0001344291D03*
X0003633661Y0001344291D03*
D16*
G36*
X0003758142Y0001384626D02*
G01*
X0003759155Y0001384476D01*
X0003760148Y0001384228D01*
X0003761112Y0001383883D01*
X0003762037Y0001383445D01*
X0003762915Y0001382919D01*
X0003763737Y0001382309D01*
X0003764496Y0001381622D01*
X0003765183Y0001380863D01*
X0003765793Y0001380041D01*
X0003766319Y0001379163D01*
X0003766757Y0001378238D01*
X0003767102Y0001377274D01*
X0003767350Y0001376281D01*
X0003767500Y0001375268D01*
X0003767551Y0001374246D01*
X0003767551Y0001314336D01*
X0003767500Y0001313313D01*
X0003767350Y0001312301D01*
X0003767102Y0001311308D01*
X0003766757Y0001310344D01*
X0003766319Y0001309419D01*
X0003765793Y0001308541D01*
X0003765183Y0001307719D01*
X0003764496Y0001306960D01*
X0003763737Y0001306273D01*
X0003762915Y0001305663D01*
X0003762037Y0001305137D01*
X0003761112Y0001304699D01*
X0003760148Y0001304354D01*
X0003759155Y0001304105D01*
X0003758142Y0001303955D01*
X0003757120Y0001303905D01*
X0003707052Y0001303905D01*
X0003706030Y0001303955D01*
X0003705017Y0001304105D01*
X0003704024Y0001304354D01*
X0003703061Y0001304699D01*
X0003702135Y0001305137D01*
X0003701257Y0001305663D01*
X0003700435Y0001306273D01*
X0003699677Y0001306960D01*
X0003698989Y0001307719D01*
X0003698379Y0001308541D01*
X0003697853Y0001309419D01*
X0003697416Y0001310344D01*
X0003697071Y0001311308D01*
X0003696822Y0001312301D01*
X0003696672Y0001313313D01*
X0003696622Y0001314336D01*
X0003696622Y0001374246D01*
X0003696672Y0001375268D01*
X0003696822Y0001376281D01*
X0003697071Y0001377274D01*
X0003697416Y0001378238D01*
X0003697853Y0001379163D01*
X0003698379Y0001380041D01*
X0003698989Y0001380863D01*
X0003699677Y0001381622D01*
X0003700435Y0001382309D01*
X0003701257Y0001382919D01*
X0003702135Y0001383445D01*
X0003703061Y0001383883D01*
X0003704024Y0001384228D01*
X0003705017Y0001384476D01*
X0003706030Y0001384626D01*
X0003707052Y0001384677D01*
X0003757120Y0001384677D01*
X0003758142Y0001384626D01*
X0003758142Y0001384626D01*
G37*
D17*
X0003732086Y0001344291D03*
D19*
X0002882086Y0000994291D03*
D20*
X0002882086Y0001094291D03*
D21*
X0002957086Y0001814173D03*
X0002957086Y0001914173D03*
X0003057086Y0001814173D03*
X0003057086Y0001914173D03*
X0003157086Y0001814173D03*
X0003157086Y0001914173D03*
X0003257086Y0001814173D03*
X0003257086Y0001914173D03*
X0003357086Y0001814173D03*
X0003357086Y0001914173D03*
X0003457086Y0001814173D03*
X0003457086Y0001914173D03*
X0003557086Y0001814173D03*
X0003557086Y0001914173D03*
X0003657086Y0001814173D03*
D22*
X0003657086Y0001914173D03*
G04 next file*
%LPD*%
G04 #@! TF.GenerationSoftware,KiCad,Pcbnew,(5.1.4)-1*
G04 #@! TF.CreationDate,2020-03-27T16:01:53-04:00*
G04 #@! TF.ProjectId,heatbed_breakout,68656174-6265-4645-9f62-7265616b6f75,rev?*
G04 #@! TF.SameCoordinates,PX8b91fb0PY68e7780*
G04 #@! TF.FileFunction,Legend,Bot*
G04 #@! TF.FilePolarity,Positive*
G04 Gerber Fmt 4.6, Leading zero omitted, Abs format (unit mm)*
G04 Created by KiCad (PCBNEW (5.1.4)-1) date 2020-03-27 16:01:53*
G04 APERTURE LIST*
G04 APERTURE END LIST*
D33*
X0002578796Y0003327221D02*
X0002578796Y0003386276D01*
X0002553487Y0003330033D02*
X0002547862Y0003327221D01*
X0002536614Y0003327221D01*
X0002530989Y0003330033D01*
X0002528177Y0003335658D01*
X0002528177Y0003338470D01*
X0002530989Y0003344094D01*
X0002536614Y0003346906D01*
X0002545050Y0003346906D01*
X0002550674Y0003349718D01*
X0002553487Y0003355343D01*
X0002553487Y0003358155D01*
X0002550674Y0003363779D01*
X0002545050Y0003366591D01*
X0002536614Y0003366591D01*
X0002530989Y0003363779D01*
X0002502868Y0003327221D02*
X0002502868Y0003386276D01*
X0002477559Y0003327221D02*
X0002477559Y0003358155D01*
X0002480371Y0003363779D01*
X0002485995Y0003366591D01*
X0002494431Y0003366591D01*
X0002500056Y0003363779D01*
X0002502868Y0003360967D01*
X0002424128Y0003327221D02*
X0002424128Y0003358155D01*
X0002426940Y0003363779D01*
X0002432564Y0003366591D01*
X0002443813Y0003366591D01*
X0002449437Y0003363779D01*
X0002424128Y0003330033D02*
X0002429752Y0003327221D01*
X0002443813Y0003327221D01*
X0002449437Y0003330033D01*
X0002452249Y0003335658D01*
X0002452249Y0003341282D01*
X0002449437Y0003346906D01*
X0002443813Y0003349718D01*
X0002429752Y0003349718D01*
X0002424128Y0003352530D01*
X0002370697Y0003327221D02*
X0002370697Y0003358155D01*
X0002373509Y0003363779D01*
X0002379133Y0003366591D01*
X0002390382Y0003366591D01*
X0002396006Y0003363779D01*
X0002370697Y0003330033D02*
X0002376321Y0003327221D01*
X0002390382Y0003327221D01*
X0002396006Y0003330033D01*
X0002398818Y0003335658D01*
X0002398818Y0003341282D01*
X0002396006Y0003346906D01*
X0002390382Y0003349718D01*
X0002376321Y0003349718D01*
X0002370697Y0003352530D01*
X0002342575Y0003366591D02*
X0002342575Y0003327221D01*
X0002342575Y0003360967D02*
X0002339763Y0003363779D01*
X0002334139Y0003366591D01*
X0002325703Y0003366591D01*
X0002320078Y0003363779D01*
X0002317266Y0003358155D01*
X0002317266Y0003327221D01*
X0002213217Y0003383464D02*
X0002218841Y0003386276D01*
X0002227277Y0003386276D01*
X0002235714Y0003383464D01*
X0002241338Y0003377840D01*
X0002244150Y0003372215D01*
X0002246962Y0003360967D01*
X0002246962Y0003352530D01*
X0002244150Y0003341282D01*
X0002241338Y0003335658D01*
X0002235714Y0003330033D01*
X0002227277Y0003327221D01*
X0002221653Y0003327221D01*
X0002213217Y0003330033D01*
X0002210404Y0003332845D01*
X0002210404Y0003352530D01*
X0002221653Y0003352530D01*
X0002176659Y0003327221D02*
X0002182283Y0003330033D01*
X0002185095Y0003332845D01*
X0002187907Y0003338470D01*
X0002187907Y0003355343D01*
X0002185095Y0003360967D01*
X0002182283Y0003363779D01*
X0002176659Y0003366591D01*
X0002168222Y0003366591D01*
X0002162598Y0003363779D01*
X0002159786Y0003360967D01*
X0002156974Y0003355343D01*
X0002156974Y0003338470D01*
X0002159786Y0003332845D01*
X0002162598Y0003330033D01*
X0002168222Y0003327221D01*
X0002176659Y0003327221D01*
X0002137289Y0003366591D02*
X0002123228Y0003327221D01*
X0002109167Y0003366591D01*
X0002024803Y0003386276D02*
X0002024803Y0003344094D01*
X0002027615Y0003335658D01*
X0002033239Y0003330033D01*
X0002041676Y0003327221D01*
X0002047300Y0003327221D01*
X0001971372Y0003327221D02*
X0001971372Y0003358155D01*
X0001974184Y0003363779D01*
X0001979808Y0003366591D01*
X0001991057Y0003366591D01*
X0001996681Y0003363779D01*
X0001971372Y0003330033D02*
X0001976996Y0003327221D01*
X0001991057Y0003327221D01*
X0001996681Y0003330033D01*
X0001999493Y0003335658D01*
X0001999493Y0003341282D01*
X0001996681Y0003346906D01*
X0001991057Y0003349718D01*
X0001976996Y0003349718D01*
X0001971372Y0003352530D01*
X0001943250Y0003366591D02*
X0001943250Y0003327221D01*
X0001943250Y0003360967D02*
X0001940438Y0003363779D01*
X0001934814Y0003366591D01*
X0001926377Y0003366591D01*
X0001920753Y0003363779D01*
X0001917941Y0003358155D01*
X0001917941Y0003327221D01*
X0001847637Y0003380652D02*
X0001844825Y0003383464D01*
X0001839201Y0003386276D01*
X0001825140Y0003386276D01*
X0001819516Y0003383464D01*
X0001816704Y0003380652D01*
X0001813892Y0003375028D01*
X0001813892Y0003369403D01*
X0001816704Y0003360967D01*
X0001850449Y0003327221D01*
X0001813892Y0003327221D01*
X0001777334Y0003386276D02*
X0001771709Y0003386276D01*
X0001766085Y0003383464D01*
X0001763273Y0003380652D01*
X0001760461Y0003375028D01*
X0001757649Y0003363779D01*
X0001757649Y0003349718D01*
X0001760461Y0003338470D01*
X0001763273Y0003332845D01*
X0001766085Y0003330033D01*
X0001771709Y0003327221D01*
X0001777334Y0003327221D01*
X0001782958Y0003330033D01*
X0001785770Y0003332845D01*
X0001788582Y0003338470D01*
X0001791394Y0003349718D01*
X0001791394Y0003363779D01*
X0001788582Y0003375028D01*
X0001785770Y0003380652D01*
X0001782958Y0003383464D01*
X0001777334Y0003386276D01*
X0001735151Y0003380652D02*
X0001732339Y0003383464D01*
X0001726715Y0003386276D01*
X0001712654Y0003386276D01*
X0001707030Y0003383464D01*
X0001704218Y0003380652D01*
X0001701406Y0003375028D01*
X0001701406Y0003369403D01*
X0001704218Y0003360967D01*
X0001737963Y0003327221D01*
X0001701406Y0003327221D01*
X0001664848Y0003386276D02*
X0001659223Y0003386276D01*
X0001653599Y0003383464D01*
X0001650787Y0003380652D01*
X0001647975Y0003375028D01*
X0001645163Y0003363779D01*
X0001645163Y0003349718D01*
X0001647975Y0003338470D01*
X0001650787Y0003332845D01*
X0001653599Y0003330033D01*
X0001659223Y0003327221D01*
X0001664848Y0003327221D01*
X0001670472Y0003330033D01*
X0001673284Y0003332845D01*
X0001676096Y0003338470D01*
X0001678908Y0003349718D01*
X0001678908Y0003363779D01*
X0001676096Y0003375028D01*
X0001673284Y0003380652D01*
X0001670472Y0003383464D01*
X0001664848Y0003386276D01*
D34*
X0002558127Y0003666858D02*
X0002558127Y0003741858D01*
X0002558127Y0003706144D02*
X0002515269Y0003706144D01*
X0002515269Y0003666858D02*
X0002515269Y0003741858D01*
X0002450984Y0003670430D02*
X0002458127Y0003666858D01*
X0002472412Y0003666858D01*
X0002479555Y0003670430D01*
X0002483127Y0003677573D01*
X0002483127Y0003706144D01*
X0002479555Y0003713287D01*
X0002472412Y0003716858D01*
X0002458127Y0003716858D01*
X0002450984Y0003713287D01*
X0002447412Y0003706144D01*
X0002447412Y0003699001D01*
X0002483127Y0003691858D01*
X0002383127Y0003666858D02*
X0002383127Y0003706144D01*
X0002386698Y0003713287D01*
X0002393841Y0003716858D01*
X0002408127Y0003716858D01*
X0002415269Y0003713287D01*
X0002383127Y0003670430D02*
X0002390269Y0003666858D01*
X0002408127Y0003666858D01*
X0002415269Y0003670430D01*
X0002418841Y0003677573D01*
X0002418841Y0003684715D01*
X0002415269Y0003691858D01*
X0002408127Y0003695430D01*
X0002390269Y0003695430D01*
X0002383127Y0003699001D01*
X0002358127Y0003716858D02*
X0002329555Y0003716858D01*
X0002347412Y0003741858D02*
X0002347412Y0003677573D01*
X0002343841Y0003670430D01*
X0002336698Y0003666858D01*
X0002329555Y0003666858D01*
X0002304555Y0003666858D02*
X0002304555Y0003741858D01*
X0002304555Y0003713287D02*
X0002297412Y0003716858D01*
X0002283127Y0003716858D01*
X0002275984Y0003713287D01*
X0002272412Y0003709715D01*
X0002268841Y0003702573D01*
X0002268841Y0003681144D01*
X0002272412Y0003674001D01*
X0002275984Y0003670430D01*
X0002283127Y0003666858D01*
X0002297412Y0003666858D01*
X0002304555Y0003670430D01*
X0002208127Y0003670430D02*
X0002215269Y0003666858D01*
X0002229555Y0003666858D01*
X0002236698Y0003670430D01*
X0002240269Y0003677573D01*
X0002240269Y0003706144D01*
X0002236698Y0003713287D01*
X0002229555Y0003716858D01*
X0002215269Y0003716858D01*
X0002208127Y0003713287D01*
X0002204555Y0003706144D01*
X0002204555Y0003699001D01*
X0002240269Y0003691858D01*
X0002140269Y0003666858D02*
X0002140269Y0003741858D01*
X0002140269Y0003670430D02*
X0002147412Y0003666858D01*
X0002161698Y0003666858D01*
X0002168841Y0003670430D01*
X0002172412Y0003674001D01*
X0002175984Y0003681144D01*
X0002175984Y0003702573D01*
X0002172412Y0003709715D01*
X0002168841Y0003713287D01*
X0002161698Y0003716858D01*
X0002147412Y0003716858D01*
X0002140269Y0003713287D01*
X0002054555Y0003741858D02*
X0002036698Y0003666858D01*
X0002022412Y0003720430D01*
X0002008127Y0003666858D01*
X0001990269Y0003741858D01*
X0001961698Y0003666858D02*
X0001961698Y0003716858D01*
X0001961698Y0003741858D02*
X0001965269Y0003738287D01*
X0001961698Y0003734715D01*
X0001958127Y0003738287D01*
X0001961698Y0003741858D01*
X0001961698Y0003734715D01*
X0001925984Y0003666858D02*
X0001925984Y0003716858D01*
X0001925984Y0003702573D02*
X0001922412Y0003709715D01*
X0001918841Y0003713287D01*
X0001911698Y0003716858D01*
X0001904555Y0003716858D01*
X0001879555Y0003666858D02*
X0001879555Y0003716858D01*
X0001879555Y0003741858D02*
X0001883127Y0003738287D01*
X0001879555Y0003734715D01*
X0001875984Y0003738287D01*
X0001879555Y0003741858D01*
X0001879555Y0003734715D01*
X0001843841Y0003716858D02*
X0001843841Y0003666858D01*
X0001843841Y0003709715D02*
X0001840269Y0003713287D01*
X0001833127Y0003716858D01*
X0001822412Y0003716858D01*
X0001815269Y0003713287D01*
X0001811698Y0003706144D01*
X0001811698Y0003666858D01*
X0001743841Y0003716858D02*
X0001743841Y0003656144D01*
X0001747412Y0003649001D01*
X0001750984Y0003645430D01*
X0001758127Y0003641858D01*
X0001768841Y0003641858D01*
X0001775984Y0003645430D01*
X0001743841Y0003670430D02*
X0001750984Y0003666858D01*
X0001765269Y0003666858D01*
X0001772412Y0003670430D01*
X0001775984Y0003674001D01*
X0001779555Y0003681144D01*
X0001779555Y0003702573D01*
X0001775984Y0003709715D01*
X0001772412Y0003713287D01*
X0001765269Y0003716858D01*
X0001750984Y0003716858D01*
X0001743841Y0003713287D01*
X0001625984Y0003706144D02*
X0001615269Y0003702573D01*
X0001611698Y0003699001D01*
X0001608127Y0003691858D01*
X0001608127Y0003681144D01*
X0001611698Y0003674001D01*
X0001615269Y0003670430D01*
X0001622412Y0003666858D01*
X0001650984Y0003666858D01*
X0001650984Y0003741858D01*
X0001625984Y0003741858D01*
X0001618841Y0003738287D01*
X0001615269Y0003734715D01*
X0001611698Y0003727573D01*
X0001611698Y0003720430D01*
X0001615269Y0003713287D01*
X0001618841Y0003709715D01*
X0001625984Y0003706144D01*
X0001650984Y0003706144D01*
X0001575984Y0003666858D02*
X0001575984Y0003716858D01*
X0001575984Y0003702573D02*
X0001572412Y0003709715D01*
X0001568841Y0003713287D01*
X0001561698Y0003716858D01*
X0001554555Y0003716858D01*
X0001500984Y0003670430D02*
X0001508127Y0003666858D01*
X0001522412Y0003666858D01*
X0001529555Y0003670430D01*
X0001533127Y0003677573D01*
X0001533127Y0003706144D01*
X0001529555Y0003713287D01*
X0001522412Y0003716858D01*
X0001508127Y0003716858D01*
X0001500984Y0003713287D01*
X0001497412Y0003706144D01*
X0001497412Y0003699001D01*
X0001533127Y0003691858D01*
X0001433127Y0003666858D02*
X0001433127Y0003706144D01*
X0001436698Y0003713287D01*
X0001443841Y0003716858D01*
X0001458127Y0003716858D01*
X0001465269Y0003713287D01*
X0001433127Y0003670430D02*
X0001440269Y0003666858D01*
X0001458127Y0003666858D01*
X0001465269Y0003670430D01*
X0001468841Y0003677573D01*
X0001468841Y0003684715D01*
X0001465269Y0003691858D01*
X0001458127Y0003695430D01*
X0001440269Y0003695430D01*
X0001433127Y0003699001D01*
X0001397412Y0003666858D02*
X0001397412Y0003741858D01*
X0001390269Y0003695430D02*
X0001368841Y0003666858D01*
X0001368841Y0003716858D02*
X0001397412Y0003688287D01*
X0001325984Y0003666858D02*
X0001333127Y0003670430D01*
X0001336698Y0003674001D01*
X0001340269Y0003681144D01*
X0001340269Y0003702573D01*
X0001336698Y0003709715D01*
X0001333127Y0003713287D01*
X0001325984Y0003716858D01*
X0001315269Y0003716858D01*
X0001308127Y0003713287D01*
X0001304555Y0003709715D01*
X0001300984Y0003702573D01*
X0001300984Y0003681144D01*
X0001304555Y0003674001D01*
X0001308127Y0003670430D01*
X0001315269Y0003666858D01*
X0001325984Y0003666858D01*
X0001236698Y0003716858D02*
X0001236698Y0003666858D01*
X0001268841Y0003716858D02*
X0001268841Y0003677573D01*
X0001265269Y0003670430D01*
X0001258127Y0003666858D01*
X0001247412Y0003666858D01*
X0001240269Y0003670430D01*
X0001236698Y0003674001D01*
X0001211698Y0003716858D02*
X0001183127Y0003716858D01*
X0001200984Y0003741858D02*
X0001200984Y0003677573D01*
X0001197412Y0003670430D01*
X0001190269Y0003666858D01*
X0001183127Y0003666858D01*
%LPC*%
D35*
G36*
X0003011835Y0003764687D02*
G01*
X0003014167Y0003764341D01*
X0003016454Y0003763768D01*
X0003018673Y0003762974D01*
X0003020804Y0003761966D01*
X0003022827Y0003760754D01*
X0003024720Y0003759350D01*
X0003026467Y0003757766D01*
X0003028050Y0003756019D01*
X0003029455Y0003754126D01*
X0003030667Y0003752104D01*
X0003031675Y0003749972D01*
X0003032469Y0003747753D01*
X0003033042Y0003745466D01*
X0003033388Y0003743134D01*
X0003033503Y0003740779D01*
X0003033503Y0003548590D01*
X0003033388Y0003546235D01*
X0003033042Y0003543903D01*
X0003032469Y0003541616D01*
X0003031675Y0003539397D01*
X0003030667Y0003537265D01*
X0003029455Y0003535243D01*
X0003028050Y0003533350D01*
X0003026467Y0003531603D01*
X0003024720Y0003530020D01*
X0003022827Y0003528615D01*
X0003020804Y0003527403D01*
X0003018673Y0003526395D01*
X0003016454Y0003525601D01*
X0003014167Y0003525028D01*
X0003011835Y0003524682D01*
X0003009480Y0003524566D01*
X0002817291Y0003524566D01*
X0002814936Y0003524682D01*
X0002812604Y0003525028D01*
X0002810317Y0003525601D01*
X0002808097Y0003526395D01*
X0002805966Y0003527403D01*
X0002803944Y0003528615D01*
X0002802050Y0003530020D01*
X0002800304Y0003531603D01*
X0002798720Y0003533350D01*
X0002797316Y0003535243D01*
X0002796104Y0003537265D01*
X0002795096Y0003539397D01*
X0002794302Y0003541616D01*
X0002793729Y0003543903D01*
X0002793383Y0003546235D01*
X0002793267Y0003548590D01*
X0002793267Y0003740779D01*
X0002793383Y0003743134D01*
X0002793729Y0003745466D01*
X0002794302Y0003747753D01*
X0002795096Y0003749972D01*
X0002796104Y0003752104D01*
X0002797316Y0003754126D01*
X0002798720Y0003756019D01*
X0002800304Y0003757766D01*
X0002802050Y0003759350D01*
X0002803944Y0003760754D01*
X0002805966Y0003761966D01*
X0002808097Y0003762974D01*
X0002810317Y0003763768D01*
X0002812604Y0003764341D01*
X0002814936Y0003764687D01*
X0002817291Y0003764803D01*
X0003009480Y0003764803D01*
X0003011835Y0003764687D01*
X0003011835Y0003764687D01*
G37*
D36*
X0002913385Y0003644685D03*
D35*
G36*
X0003011835Y0003483191D02*
G01*
X0003014167Y0003482845D01*
X0003016454Y0003482272D01*
X0003018673Y0003481478D01*
X0003020804Y0003480470D01*
X0003022827Y0003479258D01*
X0003024720Y0003477853D01*
X0003026467Y0003476270D01*
X0003028050Y0003474523D01*
X0003029455Y0003472630D01*
X0003030667Y0003470608D01*
X0003031675Y0003468476D01*
X0003032469Y0003466257D01*
X0003033042Y0003463970D01*
X0003033388Y0003461638D01*
X0003033503Y0003459283D01*
X0003033503Y0003267094D01*
X0003033388Y0003264739D01*
X0003033042Y0003262407D01*
X0003032469Y0003260120D01*
X0003031675Y0003257901D01*
X0003030667Y0003255769D01*
X0003029455Y0003253747D01*
X0003028050Y0003251854D01*
X0003026467Y0003250107D01*
X0003024720Y0003248523D01*
X0003022827Y0003247119D01*
X0003020804Y0003245907D01*
X0003018673Y0003244899D01*
X0003016454Y0003244105D01*
X0003014167Y0003243532D01*
X0003011835Y0003243186D01*
X0003009480Y0003243070D01*
X0002817291Y0003243070D01*
X0002814936Y0003243186D01*
X0002812604Y0003243532D01*
X0002810317Y0003244105D01*
X0002808097Y0003244899D01*
X0002805966Y0003245907D01*
X0002803944Y0003247119D01*
X0002802050Y0003248523D01*
X0002800304Y0003250107D01*
X0002798720Y0003251854D01*
X0002797316Y0003253747D01*
X0002796104Y0003255769D01*
X0002795096Y0003257901D01*
X0002794302Y0003260120D01*
X0002793729Y0003262407D01*
X0002793383Y0003264739D01*
X0002793267Y0003267094D01*
X0002793267Y0003459283D01*
X0002793383Y0003461638D01*
X0002793729Y0003463970D01*
X0002794302Y0003466257D01*
X0002795096Y0003468476D01*
X0002796104Y0003470608D01*
X0002797316Y0003472630D01*
X0002798720Y0003474523D01*
X0002800304Y0003476270D01*
X0002802050Y0003477853D01*
X0002803944Y0003479258D01*
X0002805966Y0003480470D01*
X0002808097Y0003481478D01*
X0002810317Y0003482272D01*
X0002812604Y0003482845D01*
X0002814936Y0003483191D01*
X0002817291Y0003483307D01*
X0003009480Y0003483307D01*
X0003011835Y0003483191D01*
X0003011835Y0003483191D01*
G37*
D36*
X0002913385Y0003363188D03*
D35*
G36*
X0003022488Y0003854311D02*
G01*
X0003023673Y0003854135D01*
X0003024836Y0003853844D01*
X0003025964Y0003853440D01*
X0003027048Y0003852928D01*
X0003028076Y0003852311D01*
X0003029038Y0003851597D01*
X0003029926Y0003850793D01*
X0003030731Y0003849905D01*
X0003031445Y0003848942D01*
X0003032061Y0003847914D01*
X0003032574Y0003846831D01*
X0003032978Y0003845702D01*
X0003033269Y0003844540D01*
X0003033445Y0003843354D01*
X0003033503Y0003842157D01*
X0003033503Y0003744456D01*
X0003033445Y0003743259D01*
X0003033269Y0003742074D01*
X0003032978Y0003740911D01*
X0003032574Y0003739783D01*
X0003032061Y0003738699D01*
X0003031445Y0003737671D01*
X0003030731Y0003736709D01*
X0003029926Y0003735821D01*
X0003029038Y0003735016D01*
X0003028076Y0003734302D01*
X0003027048Y0003733686D01*
X0003025964Y0003733173D01*
X0003024836Y0003732769D01*
X0003023673Y0003732478D01*
X0003022488Y0003732302D01*
X0003021291Y0003732244D01*
X0002805480Y0003732244D01*
X0002804283Y0003732302D01*
X0002803097Y0003732478D01*
X0002801935Y0003732769D01*
X0002800806Y0003733173D01*
X0002799723Y0003733686D01*
X0002798695Y0003734302D01*
X0002797732Y0003735016D01*
X0002796844Y0003735821D01*
X0002796039Y0003736709D01*
X0002795325Y0003737671D01*
X0002794709Y0003738699D01*
X0002794197Y0003739783D01*
X0002793793Y0003740911D01*
X0002793502Y0003742074D01*
X0002793326Y0003743259D01*
X0002793267Y0003744456D01*
X0002793267Y0003842157D01*
X0002793326Y0003843354D01*
X0002793502Y0003844540D01*
X0002793793Y0003845702D01*
X0002794197Y0003846831D01*
X0002794709Y0003847914D01*
X0002795325Y0003848942D01*
X0002796039Y0003849905D01*
X0002796844Y0003850793D01*
X0002797732Y0003851597D01*
X0002798695Y0003852311D01*
X0002799723Y0003852928D01*
X0002800806Y0003853440D01*
X0002801935Y0003853844D01*
X0002803097Y0003854135D01*
X0002804283Y0003854311D01*
X0002805480Y0003854370D01*
X0003021291Y0003854370D01*
X0003022488Y0003854311D01*
X0003022488Y0003854311D01*
G37*
D37*
X0002913385Y0003793307D03*
D35*
G36*
X0003022488Y0003275571D02*
G01*
X0003023673Y0003275395D01*
X0003024836Y0003275104D01*
X0003025964Y0003274700D01*
X0003027048Y0003274187D01*
X0003028076Y0003273571D01*
X0003029038Y0003272857D01*
X0003029926Y0003272052D01*
X0003030731Y0003271164D01*
X0003031445Y0003270202D01*
X0003032061Y0003269174D01*
X0003032574Y0003268090D01*
X0003032978Y0003266962D01*
X0003033269Y0003265799D01*
X0003033445Y0003264614D01*
X0003033503Y0003263417D01*
X0003033503Y0003165716D01*
X0003033445Y0003164519D01*
X0003033269Y0003163333D01*
X0003032978Y0003162171D01*
X0003032574Y0003161042D01*
X0003032061Y0003159959D01*
X0003031445Y0003158931D01*
X0003030731Y0003157968D01*
X0003029926Y0003157080D01*
X0003029038Y0003156276D01*
X0003028076Y0003155562D01*
X0003027048Y0003154945D01*
X0003025964Y0003154433D01*
X0003024836Y0003154029D01*
X0003023673Y0003153738D01*
X0003022488Y0003153562D01*
X0003021291Y0003153503D01*
X0002805480Y0003153503D01*
X0002804283Y0003153562D01*
X0002803097Y0003153738D01*
X0002801935Y0003154029D01*
X0002800806Y0003154433D01*
X0002799723Y0003154945D01*
X0002798695Y0003155562D01*
X0002797732Y0003156276D01*
X0002796844Y0003157080D01*
X0002796039Y0003157968D01*
X0002795325Y0003158931D01*
X0002794709Y0003159959D01*
X0002794197Y0003161042D01*
X0002793793Y0003162171D01*
X0002793502Y0003163333D01*
X0002793326Y0003164519D01*
X0002793267Y0003165716D01*
X0002793267Y0003263417D01*
X0002793326Y0003264614D01*
X0002793502Y0003265799D01*
X0002793793Y0003266962D01*
X0002794197Y0003268090D01*
X0002794709Y0003269174D01*
X0002795325Y0003270202D01*
X0002796039Y0003271164D01*
X0002796844Y0003272052D01*
X0002797732Y0003272857D01*
X0002798695Y0003273571D01*
X0002799723Y0003274187D01*
X0002800806Y0003274700D01*
X0002801935Y0003275104D01*
X0002803097Y0003275395D01*
X0002804283Y0003275571D01*
X0002805480Y0003275629D01*
X0003021291Y0003275629D01*
X0003022488Y0003275571D01*
X0003022488Y0003275571D01*
G37*
D37*
X0002913385Y0003214566D03*
D38*
X0003450787Y0003503937D03*
X0000694881Y0003503937D03*
D39*
X0002938385Y0002915511D03*
D35*
G36*
X0002970353Y0003049359D02*
G01*
X0002971366Y0003049208D01*
X0002972359Y0003048960D01*
X0002973323Y0003048615D01*
X0002974248Y0003048177D01*
X0002975127Y0003047651D01*
X0002975949Y0003047041D01*
X0002976707Y0003046353D01*
X0002977395Y0003045595D01*
X0002978005Y0003044772D01*
X0002978531Y0003043894D01*
X0002978969Y0003042968D01*
X0002979314Y0003042004D01*
X0002979563Y0003041011D01*
X0002979713Y0003039999D01*
X0002979763Y0003038976D01*
X0002979763Y0002988897D01*
X0002979713Y0002987875D01*
X0002979563Y0002986862D01*
X0002979314Y0002985869D01*
X0002978969Y0002984905D01*
X0002978531Y0002983979D01*
X0002978005Y0002983101D01*
X0002977395Y0002982278D01*
X0002976707Y0002981520D01*
X0002975949Y0002980832D01*
X0002975127Y0002980222D01*
X0002974248Y0002979696D01*
X0002973323Y0002979258D01*
X0002972359Y0002978913D01*
X0002971366Y0002978665D01*
X0002970353Y0002978514D01*
X0002969330Y0002978464D01*
X0002907440Y0002978464D01*
X0002906418Y0002978514D01*
X0002905405Y0002978665D01*
X0002904412Y0002978913D01*
X0002903448Y0002979258D01*
X0002902522Y0002979696D01*
X0002901644Y0002980222D01*
X0002900822Y0002980832D01*
X0002900063Y0002981520D01*
X0002899376Y0002982278D01*
X0002898766Y0002983101D01*
X0002898239Y0002983979D01*
X0002897802Y0002984905D01*
X0002897457Y0002985869D01*
X0002897208Y0002986862D01*
X0002897058Y0002987875D01*
X0002897007Y0002988897D01*
X0002897007Y0003038976D01*
X0002897058Y0003039999D01*
X0002897208Y0003041011D01*
X0002897457Y0003042004D01*
X0002897802Y0003042968D01*
X0002898239Y0003043894D01*
X0002898766Y0003044772D01*
X0002899376Y0003045595D01*
X0002900063Y0003046353D01*
X0002900822Y0003047041D01*
X0002901644Y0003047651D01*
X0002902522Y0003048177D01*
X0002903448Y0003048615D01*
X0002904412Y0003048960D01*
X0002905405Y0003049208D01*
X0002906418Y0003049359D01*
X0002907440Y0003049409D01*
X0002969330Y0003049409D01*
X0002970353Y0003049359D01*
X0002970353Y0003049359D01*
G37*
D40*
X0002938385Y0003013937D03*
D41*
X0002388385Y0003553937D03*
X0002388385Y0003453937D03*
X0002288385Y0003553937D03*
X0002288385Y0003453937D03*
X0002188385Y0003553937D03*
X0002188385Y0003453937D03*
X0002088385Y0003553937D03*
X0002088385Y0003453937D03*
X0001988385Y0003553937D03*
X0001988385Y0003453937D03*
X0001888385Y0003553937D03*
X0001888385Y0003453937D03*
X0001788385Y0003553937D03*
X0001788385Y0003453937D03*
X0001688385Y0003553937D03*
X0001688385Y0003453937D03*
X0001588385Y0003553937D03*
X0001588385Y0003453937D03*
X0001488385Y0003553937D03*
X0001488385Y0003453937D03*
X0001388385Y0003553937D03*
X0001388385Y0003453937D03*
X0001288385Y0003553937D03*
X0001288385Y0003453937D03*
X0001188385Y0003553937D03*
D42*
X0001188385Y0003453937D03*
G04 next file*
%LPD*%
G04 #@! TF.GenerationSoftware,KiCad,Pcbnew,(5.1.4)-1*
G04 #@! TF.CreationDate,2020-03-27T16:00:02-04:00*
G04 #@! TF.ProjectId,Placeholder Board,506c6163-6568-46f6-9c64-657220426f61,rev?*
G04 #@! TF.SameCoordinates,PX9157080PY695f190*
G04 #@! TF.FileFunction,Legend,Bot*
G04 #@! TF.FilePolarity,Positive*
G04 Gerber Fmt 4.6, Leading zero omitted, Abs format (unit mm)*
G04 Created by KiCad (PCBNEW (5.1.4)-1) date 2020-03-27 16:00:02*
G04 APERTURE LIST*
G04 APERTURE END LIST*
%LPC*%
G04 next file*
%LPD*%
G04 #@! TF.GenerationSoftware,KiCad,Pcbnew,(5.1.4)-1*
G04 #@! TF.CreationDate,2020-03-27T16:02:32-04:00*
G04 #@! TF.ProjectId,RGB_endstop_breakout,5247425f-656e-4647-9374-6f705f627265,rev?*
G04 #@! TF.SameCoordinates,PX8e18f40PY6422c40*
G04 #@! TF.FileFunction,Legend,Bot*
G04 #@! TF.FilePolarity,Positive*
G04 Gerber Fmt 4.6, Leading zero omitted, Abs format (unit mm)*
G04 Created by KiCad (PCBNEW (5.1.4)-1) date 2020-03-27 16:02:32*
G04 APERTURE LIST*
G04 APERTURE END LIST*
D43*
X0000472862Y0001002491D02*
X0000472862Y0000952491D01*
X0000494291Y0001000110D02*
X0000499053Y0001002491D01*
X0000508577Y0001002491D01*
X0000513338Y0001000110D01*
X0000515719Y0000995348D01*
X0000515719Y0000992967D01*
X0000513338Y0000988205D01*
X0000508577Y0000985824D01*
X0000501434Y0000985824D01*
X0000496672Y0000983443D01*
X0000494291Y0000978681D01*
X0000494291Y0000976300D01*
X0000496672Y0000971538D01*
X0000501434Y0000969157D01*
X0000508577Y0000969157D01*
X0000513338Y0000971538D01*
X0000537148Y0001002491D02*
X0000537148Y0000952491D01*
X0000558577Y0001002491D02*
X0000558577Y0000976300D01*
X0000556196Y0000971538D01*
X0000551434Y0000969157D01*
X0000544291Y0000969157D01*
X0000539529Y0000971538D01*
X0000537148Y0000973919D01*
X0000603815Y0001002491D02*
X0000603815Y0000976300D01*
X0000601434Y0000971538D01*
X0000596672Y0000969157D01*
X0000587148Y0000969157D01*
X0000582386Y0000971538D01*
X0000603815Y0001000110D02*
X0000599053Y0001002491D01*
X0000587148Y0001002491D01*
X0000582386Y0001000110D01*
X0000580005Y0000995348D01*
X0000580005Y0000990586D01*
X0000582386Y0000985824D01*
X0000587148Y0000983443D01*
X0000599053Y0000983443D01*
X0000603815Y0000981062D01*
X0000649053Y0001002491D02*
X0000649053Y0000976300D01*
X0000646672Y0000971538D01*
X0000641910Y0000969157D01*
X0000632386Y0000969157D01*
X0000627624Y0000971538D01*
X0000649053Y0001000110D02*
X0000644291Y0001002491D01*
X0000632386Y0001002491D01*
X0000627624Y0001000110D01*
X0000625243Y0000995348D01*
X0000625243Y0000990586D01*
X0000627624Y0000985824D01*
X0000632386Y0000983443D01*
X0000644291Y0000983443D01*
X0000649053Y0000981062D01*
X0000672862Y0000969157D02*
X0000672862Y0001002491D01*
X0000672862Y0000973919D02*
X0000675243Y0000971538D01*
X0000680005Y0000969157D01*
X0000687148Y0000969157D01*
X0000691910Y0000971538D01*
X0000694291Y0000976300D01*
X0000694291Y0001002491D01*
X0000782386Y0000954872D02*
X0000777624Y0000952491D01*
X0000770481Y0000952491D01*
X0000763338Y0000954872D01*
X0000758577Y0000959633D01*
X0000756196Y0000964395D01*
X0000753815Y0000973919D01*
X0000753815Y0000981062D01*
X0000756196Y0000990586D01*
X0000758577Y0000995348D01*
X0000763338Y0001000110D01*
X0000770481Y0001002491D01*
X0000775243Y0001002491D01*
X0000782386Y0001000110D01*
X0000784767Y0000997729D01*
X0000784767Y0000981062D01*
X0000775243Y0000981062D01*
X0000813338Y0001002491D02*
X0000808577Y0001000110D01*
X0000806196Y0000997729D01*
X0000803815Y0000992967D01*
X0000803815Y0000978681D01*
X0000806196Y0000973919D01*
X0000808577Y0000971538D01*
X0000813338Y0000969157D01*
X0000820481Y0000969157D01*
X0000825243Y0000971538D01*
X0000827624Y0000973919D01*
X0000830005Y0000978681D01*
X0000830005Y0000992967D01*
X0000827624Y0000997729D01*
X0000825243Y0001000110D01*
X0000820481Y0001002491D01*
X0000813338Y0001002491D01*
X0000846672Y0000969157D02*
X0000858577Y0001002491D01*
X0000870481Y0000969157D01*
X0000516910Y0001039991D02*
X0000516910Y0001075705D01*
X0000514529Y0001082848D01*
X0000509767Y0001087610D01*
X0000502624Y0001089991D01*
X0000497862Y0001089991D01*
X0000562148Y0001089991D02*
X0000562148Y0001063800D01*
X0000559767Y0001059038D01*
X0000555005Y0001056657D01*
X0000545481Y0001056657D01*
X0000540719Y0001059038D01*
X0000562148Y0001087610D02*
X0000557386Y0001089991D01*
X0000545481Y0001089991D01*
X0000540719Y0001087610D01*
X0000538338Y0001082848D01*
X0000538338Y0001078086D01*
X0000540719Y0001073324D01*
X0000545481Y0001070943D01*
X0000557386Y0001070943D01*
X0000562148Y0001068562D01*
X0000585958Y0001056657D02*
X0000585958Y0001089991D01*
X0000585958Y0001061419D02*
X0000588338Y0001059038D01*
X0000593100Y0001056657D01*
X0000600243Y0001056657D01*
X0000605005Y0001059038D01*
X0000607386Y0001063800D01*
X0000607386Y0001089991D01*
X0000666910Y0001044752D02*
X0000669291Y0001042372D01*
X0000674053Y0001039991D01*
X0000685958Y0001039991D01*
X0000690719Y0001042372D01*
X0000693100Y0001044752D01*
X0000695481Y0001049514D01*
X0000695481Y0001054276D01*
X0000693100Y0001061419D01*
X0000664529Y0001089991D01*
X0000695481Y0001089991D01*
X0000726434Y0001039991D02*
X0000731196Y0001039991D01*
X0000735958Y0001042372D01*
X0000738338Y0001044752D01*
X0000740719Y0001049514D01*
X0000743100Y0001059038D01*
X0000743100Y0001070943D01*
X0000740719Y0001080467D01*
X0000738338Y0001085229D01*
X0000735958Y0001087610D01*
X0000731196Y0001089991D01*
X0000726434Y0001089991D01*
X0000721672Y0001087610D01*
X0000719291Y0001085229D01*
X0000716910Y0001080467D01*
X0000714529Y0001070943D01*
X0000714529Y0001059038D01*
X0000716910Y0001049514D01*
X0000719291Y0001044752D01*
X0000721672Y0001042372D01*
X0000726434Y0001039991D01*
X0000762148Y0001044752D02*
X0000764529Y0001042372D01*
X0000769291Y0001039991D01*
X0000781196Y0001039991D01*
X0000785958Y0001042372D01*
X0000788338Y0001044752D01*
X0000790719Y0001049514D01*
X0000790719Y0001054276D01*
X0000788338Y0001061419D01*
X0000759767Y0001089991D01*
X0000790719Y0001089991D01*
X0000821672Y0001039991D02*
X0000826434Y0001039991D01*
X0000831196Y0001042372D01*
X0000833577Y0001044752D01*
X0000835958Y0001049514D01*
X0000838338Y0001059038D01*
X0000838338Y0001070943D01*
X0000835958Y0001080467D01*
X0000833577Y0001085229D01*
X0000831196Y0001087610D01*
X0000826434Y0001089991D01*
X0000821672Y0001089991D01*
X0000816910Y0001087610D01*
X0000814529Y0001085229D01*
X0000812148Y0001080467D01*
X0000809767Y0001070943D01*
X0000809767Y0001059038D01*
X0000812148Y0001049514D01*
X0000814529Y0001044752D01*
X0000816910Y0001042372D01*
X0000821672Y0001039991D01*
D44*
X0000503557Y0000900070D02*
X0000467843Y0000900070D01*
X0000467843Y0000825070D01*
X0000528557Y0000860784D02*
X0000553557Y0000860784D01*
X0000564271Y0000900070D02*
X0000528557Y0000900070D01*
X0000528557Y0000825070D01*
X0000564271Y0000825070D01*
X0000596414Y0000900070D02*
X0000596414Y0000825070D01*
X0000614271Y0000825070D01*
X0000624985Y0000828641D01*
X0000632128Y0000835784D01*
X0000635700Y0000842927D01*
X0000639271Y0000857213D01*
X0000639271Y0000867927D01*
X0000635700Y0000882213D01*
X0000632128Y0000889355D01*
X0000624985Y0000896498D01*
X0000614271Y0000900070D01*
X0000596414Y0000900070D01*
X0000753557Y0000860784D02*
X0000764271Y0000864355D01*
X0000767843Y0000867927D01*
X0000771414Y0000875070D01*
X0000771414Y0000885784D01*
X0000767843Y0000892927D01*
X0000764271Y0000896498D01*
X0000757128Y0000900070D01*
X0000728557Y0000900070D01*
X0000728557Y0000825070D01*
X0000753557Y0000825070D01*
X0000760700Y0000828641D01*
X0000764271Y0000832213D01*
X0000767843Y0000839355D01*
X0000767843Y0000846498D01*
X0000764271Y0000853641D01*
X0000760700Y0000857213D01*
X0000753557Y0000860784D01*
X0000728557Y0000860784D01*
X0000803557Y0000900070D02*
X0000803557Y0000850070D01*
X0000803557Y0000864355D02*
X0000807128Y0000857213D01*
X0000810700Y0000853641D01*
X0000817843Y0000850070D01*
X0000824985Y0000850070D01*
X0000878557Y0000896498D02*
X0000871414Y0000900070D01*
X0000857128Y0000900070D01*
X0000849985Y0000896498D01*
X0000846414Y0000889355D01*
X0000846414Y0000860784D01*
X0000849985Y0000853641D01*
X0000857128Y0000850070D01*
X0000871414Y0000850070D01*
X0000878557Y0000853641D01*
X0000882128Y0000860784D01*
X0000882128Y0000867927D01*
X0000846414Y0000875070D01*
X0000946414Y0000900070D02*
X0000946414Y0000860784D01*
X0000942843Y0000853641D01*
X0000935700Y0000850070D01*
X0000921414Y0000850070D01*
X0000914271Y0000853641D01*
X0000946414Y0000896498D02*
X0000939271Y0000900070D01*
X0000921414Y0000900070D01*
X0000914271Y0000896498D01*
X0000910700Y0000889355D01*
X0000910700Y0000882213D01*
X0000914271Y0000875070D01*
X0000921414Y0000871498D01*
X0000939271Y0000871498D01*
X0000946414Y0000867927D01*
X0000982128Y0000900070D02*
X0000982128Y0000825070D01*
X0000989271Y0000871498D02*
X0001010700Y0000900070D01*
X0001010700Y0000850070D02*
X0000982128Y0000878641D01*
X0001053557Y0000900070D02*
X0001046414Y0000896498D01*
X0001042843Y0000892927D01*
X0001039271Y0000885784D01*
X0001039271Y0000864355D01*
X0001042843Y0000857213D01*
X0001046414Y0000853641D01*
X0001053557Y0000850070D01*
X0001064271Y0000850070D01*
X0001071414Y0000853641D01*
X0001074985Y0000857213D01*
X0001078557Y0000864355D01*
X0001078557Y0000885784D01*
X0001074985Y0000892927D01*
X0001071414Y0000896498D01*
X0001064271Y0000900070D01*
X0001053557Y0000900070D01*
X0001142843Y0000850070D02*
X0001142843Y0000900070D01*
X0001110700Y0000850070D02*
X0001110700Y0000889355D01*
X0001114271Y0000896498D01*
X0001121414Y0000900070D01*
X0001132128Y0000900070D01*
X0001139271Y0000896498D01*
X0001142843Y0000892927D01*
X0001167843Y0000850070D02*
X0001196414Y0000850070D01*
X0001178557Y0000825070D02*
X0001178557Y0000889355D01*
X0001182128Y0000896498D01*
X0001189271Y0000900070D01*
X0001196414Y0000900070D01*
%LPC*%
D45*
X0001187401Y0000594881D03*
D46*
G36*
X0001155434Y0000657884D02*
G01*
X0001154421Y0000658035D01*
X0001153428Y0000658283D01*
X0001152464Y0000658628D01*
X0001151538Y0000659066D01*
X0001150660Y0000659592D01*
X0001149838Y0000660202D01*
X0001149079Y0000660890D01*
X0001148391Y0000661649D01*
X0001147781Y0000662471D01*
X0001147255Y0000663349D01*
X0001146817Y0000664275D01*
X0001146472Y0000665239D01*
X0001146224Y0000666232D01*
X0001146073Y0000667245D01*
X0001146023Y0000668267D01*
X0001146023Y0000718346D01*
X0001146073Y0000719369D01*
X0001146224Y0000720381D01*
X0001146472Y0000721374D01*
X0001146817Y0000722339D01*
X0001147255Y0000723264D01*
X0001147781Y0000724142D01*
X0001148391Y0000724965D01*
X0001149079Y0000725723D01*
X0001149838Y0000726411D01*
X0001150660Y0000727021D01*
X0001151538Y0000727547D01*
X0001152464Y0000727985D01*
X0001153428Y0000728330D01*
X0001154421Y0000728579D01*
X0001155434Y0000728729D01*
X0001156456Y0000728779D01*
X0001218346Y0000728779D01*
X0001219369Y0000728729D01*
X0001220381Y0000728579D01*
X0001221375Y0000728330D01*
X0001222339Y0000727985D01*
X0001223264Y0000727547D01*
X0001224142Y0000727021D01*
X0001224965Y0000726411D01*
X0001225723Y0000725723D01*
X0001226411Y0000724965D01*
X0001227021Y0000724142D01*
X0001227547Y0000723264D01*
X0001227985Y0000722338D01*
X0001228330Y0000721374D01*
X0001228579Y0000720381D01*
X0001228729Y0000719369D01*
X0001228779Y0000718346D01*
X0001228779Y0000668267D01*
X0001228729Y0000667245D01*
X0001228579Y0000666232D01*
X0001228330Y0000665239D01*
X0001227985Y0000664275D01*
X0001227547Y0000663349D01*
X0001227021Y0000662471D01*
X0001226411Y0000661649D01*
X0001225723Y0000660890D01*
X0001224965Y0000660202D01*
X0001224142Y0000659592D01*
X0001223264Y0000659066D01*
X0001222338Y0000658628D01*
X0001221375Y0000658283D01*
X0001220381Y0000658035D01*
X0001219369Y0000657884D01*
X0001218346Y0000657834D01*
X0001156456Y0000657834D01*
X0001155434Y0000657884D01*
X0001155434Y0000657884D01*
G37*
D47*
X0001187401Y0000693307D03*
D48*
X0001187401Y0000999606D03*
X0001187401Y0001098031D03*
X0001187401Y0001196456D03*
D46*
G36*
X0001156418Y0001259459D02*
G01*
X0001155405Y0001259609D01*
X0001154412Y0001259858D01*
X0001153448Y0001260203D01*
X0001152522Y0001260641D01*
X0001151644Y0001261167D01*
X0001150822Y0001261777D01*
X0001150063Y0001262465D01*
X0001149376Y0001263223D01*
X0001148766Y0001264046D01*
X0001148239Y0001264924D01*
X0001147802Y0001265849D01*
X0001147457Y0001266813D01*
X0001147208Y0001267807D01*
X0001147058Y0001268819D01*
X0001147007Y0001269842D01*
X0001147007Y0001319921D01*
X0001147058Y0001320943D01*
X0001147208Y0001321956D01*
X0001147457Y0001322949D01*
X0001147802Y0001323913D01*
X0001148239Y0001324839D01*
X0001148766Y0001325717D01*
X0001149376Y0001326539D01*
X0001150063Y0001327298D01*
X0001150822Y0001327986D01*
X0001151644Y0001328596D01*
X0001152522Y0001329122D01*
X0001153448Y0001329560D01*
X0001154412Y0001329905D01*
X0001155405Y0001330153D01*
X0001156418Y0001330304D01*
X0001157440Y0001330354D01*
X0001217362Y0001330354D01*
X0001218384Y0001330304D01*
X0001219397Y0001330153D01*
X0001220390Y0001329905D01*
X0001221354Y0001329560D01*
X0001222280Y0001329122D01*
X0001223158Y0001328596D01*
X0001223980Y0001327986D01*
X0001224739Y0001327298D01*
X0001225427Y0001326539D01*
X0001226036Y0001325717D01*
X0001226563Y0001324839D01*
X0001227001Y0001323913D01*
X0001227346Y0001322949D01*
X0001227594Y0001321956D01*
X0001227745Y0001320943D01*
X0001227795Y0001319921D01*
X0001227795Y0001269842D01*
X0001227745Y0001268819D01*
X0001227594Y0001267807D01*
X0001227346Y0001266813D01*
X0001227001Y0001265849D01*
X0001226563Y0001264924D01*
X0001226036Y0001264046D01*
X0001225427Y0001263223D01*
X0001224739Y0001262465D01*
X0001223980Y0001261777D01*
X0001223158Y0001261167D01*
X0001222280Y0001260641D01*
X0001221354Y0001260203D01*
X0001220390Y0001259858D01*
X0001219397Y0001259609D01*
X0001218384Y0001259459D01*
X0001217362Y0001259409D01*
X0001157440Y0001259409D01*
X0001156418Y0001259459D01*
X0001156418Y0001259459D01*
G37*
D47*
X0001187401Y0001294881D03*
D48*
X0001487401Y0000999606D03*
X0001487401Y0001098031D03*
X0001487401Y0001196456D03*
D46*
G36*
X0001456418Y0001259459D02*
G01*
X0001455405Y0001259609D01*
X0001454412Y0001259858D01*
X0001453448Y0001260203D01*
X0001452522Y0001260641D01*
X0001451644Y0001261167D01*
X0001450822Y0001261777D01*
X0001450063Y0001262465D01*
X0001449376Y0001263223D01*
X0001448766Y0001264046D01*
X0001448239Y0001264924D01*
X0001447802Y0001265849D01*
X0001447457Y0001266813D01*
X0001447208Y0001267807D01*
X0001447058Y0001268819D01*
X0001447007Y0001269842D01*
X0001447007Y0001319921D01*
X0001447058Y0001320943D01*
X0001447208Y0001321956D01*
X0001447457Y0001322949D01*
X0001447802Y0001323913D01*
X0001448239Y0001324839D01*
X0001448766Y0001325717D01*
X0001449376Y0001326539D01*
X0001450063Y0001327298D01*
X0001450822Y0001327986D01*
X0001451644Y0001328596D01*
X0001452522Y0001329122D01*
X0001453448Y0001329560D01*
X0001454412Y0001329905D01*
X0001455405Y0001330153D01*
X0001456418Y0001330304D01*
X0001457440Y0001330354D01*
X0001517362Y0001330354D01*
X0001518384Y0001330304D01*
X0001519397Y0001330153D01*
X0001520390Y0001329905D01*
X0001521354Y0001329560D01*
X0001522280Y0001329122D01*
X0001523158Y0001328596D01*
X0001523980Y0001327986D01*
X0001524739Y0001327298D01*
X0001525427Y0001326539D01*
X0001526036Y0001325717D01*
X0001526563Y0001324839D01*
X0001527001Y0001323913D01*
X0001527346Y0001322949D01*
X0001527594Y0001321956D01*
X0001527745Y0001320943D01*
X0001527795Y0001319921D01*
X0001527795Y0001269842D01*
X0001527745Y0001268819D01*
X0001527594Y0001267807D01*
X0001527346Y0001266813D01*
X0001527001Y0001265849D01*
X0001526563Y0001264924D01*
X0001526036Y0001264046D01*
X0001525427Y0001263223D01*
X0001524739Y0001262465D01*
X0001523980Y0001261777D01*
X0001523158Y0001261167D01*
X0001522280Y0001260641D01*
X0001521354Y0001260203D01*
X0001520390Y0001259858D01*
X0001519397Y0001259609D01*
X0001518384Y0001259459D01*
X0001517362Y0001259409D01*
X0001457440Y0001259409D01*
X0001456418Y0001259459D01*
X0001456418Y0001259459D01*
G37*
D47*
X0001487401Y0001294881D03*
D49*
X0000387401Y0000844881D03*
X0000287401Y0000844881D03*
X0000387401Y0000944881D03*
X0000287401Y0000944881D03*
X0000387401Y0001044881D03*
D50*
X0000287401Y0001044881D03*
D51*
X0000787401Y0001338582D03*
X0000787401Y0000551181D03*
G04 next file*
%LPD*%
G04 #@! TF.GenerationSoftware,KiCad,Pcbnew,(5.1.4)-1*
G04 #@! TF.CreationDate,2020-03-27T15:28:26-04:00*
G04 #@! TF.ProjectId,USB Adapter,55534220-4164-4617-9074-65722e6b6963,rev?*
G04 #@! TF.SameCoordinates,PX6521e48PY3c8eee0*
G04 #@! TF.FileFunction,Legend,Bot*
G04 #@! TF.FilePolarity,Positive*
G04 Gerber Fmt 4.6, Leading zero omitted, Abs format (unit mm)*
G04 Created by KiCad (PCBNEW (5.1.4)-1) date 2020-03-27 15:28:26*
G04 APERTURE LIST*
G04 APERTURE END LIST*
D52*
X0003663188Y0000517322D02*
X0003610826Y0000517322D01*
X0003663188Y0000464960D02*
X0003663188Y0000517322D01*
X0003663188Y0000414960D02*
X0003558464Y0000414960D01*
X0003558464Y0000414960D02*
X0003558464Y0000112598D01*
X0003663188Y0000414960D02*
X0003663188Y0000112598D01*
X0003663188Y0000112598D02*
X0003558464Y0000112598D01*
X0003163188Y0000112598D02*
X0003163188Y0000164960D01*
X0003110826Y0000112598D02*
X0003163188Y0000112598D01*
X0003060826Y0000112598D02*
X0003060826Y0000217322D01*
X0003060826Y0000217322D02*
X0002958464Y0000217322D01*
X0003060826Y0000112598D02*
X0002958464Y0000112598D01*
X0002958464Y0000112598D02*
X0002958464Y0000217322D01*
X0003163188Y0000412598D02*
X0003163188Y0000464960D01*
X0003110826Y0000412598D02*
X0003163188Y0000412598D01*
X0003060826Y0000412598D02*
X0003060826Y0000517322D01*
X0003060826Y0000517322D02*
X0002958464Y0000517322D01*
X0003060826Y0000412598D02*
X0002958464Y0000412598D01*
X0002958464Y0000412598D02*
X0002958464Y0000517322D01*
%LPC*%
D53*
X0003610826Y0000164960D03*
X0003610826Y0000264960D03*
X0003610826Y0000364960D03*
D54*
X0003610826Y0000464960D03*
D53*
X0003010826Y0000164960D03*
D54*
X0003110826Y0000164960D03*
D53*
X0003010826Y0000464960D03*
D54*
X0003110826Y0000464960D03*
D55*
G36*
X0003179656Y0000380849D02*
G01*
X0003181425Y0000380586D01*
X0003183160Y0000380152D01*
X0003184844Y0000379549D01*
X0003186461Y0000378785D01*
X0003187995Y0000377865D01*
X0003189431Y0000376800D01*
X0003190756Y0000375599D01*
X0003191957Y0000374274D01*
X0003193023Y0000372837D01*
X0003193942Y0000371303D01*
X0003194707Y0000369686D01*
X0003195309Y0000368002D01*
X0003195744Y0000366267D01*
X0003196006Y0000364498D01*
X0003196094Y0000362712D01*
X0003196094Y0000267208D01*
X0003196006Y0000265422D01*
X0003195744Y0000263653D01*
X0003195309Y0000261918D01*
X0003194707Y0000260234D01*
X0003193942Y0000258617D01*
X0003193023Y0000257083D01*
X0003191957Y0000255647D01*
X0003190756Y0000254322D01*
X0003189431Y0000253120D01*
X0003187995Y0000252055D01*
X0003186461Y0000251136D01*
X0003184844Y0000250371D01*
X0003183160Y0000249768D01*
X0003181425Y0000249334D01*
X0003179656Y0000249072D01*
X0003177870Y0000248984D01*
X0003141421Y0000248984D01*
X0003139634Y0000249072D01*
X0003137865Y0000249334D01*
X0003136130Y0000249768D01*
X0003134447Y0000250371D01*
X0003132830Y0000251136D01*
X0003131296Y0000252055D01*
X0003129859Y0000253120D01*
X0003128534Y0000254322D01*
X0003127333Y0000255647D01*
X0003126268Y0000257083D01*
X0003125348Y0000258617D01*
X0003124584Y0000260234D01*
X0003123981Y0000261918D01*
X0003123547Y0000263653D01*
X0003123284Y0000265422D01*
X0003123196Y0000267208D01*
X0003123196Y0000362712D01*
X0003123284Y0000364498D01*
X0003123547Y0000366267D01*
X0003123981Y0000368002D01*
X0003124584Y0000369686D01*
X0003125348Y0000371303D01*
X0003126268Y0000372837D01*
X0003127333Y0000374274D01*
X0003128534Y0000375599D01*
X0003129859Y0000376800D01*
X0003131296Y0000377865D01*
X0003132830Y0000378785D01*
X0003134447Y0000379549D01*
X0003136130Y0000380152D01*
X0003137865Y0000380586D01*
X0003139634Y0000380849D01*
X0003141421Y0000380937D01*
X0003177870Y0000380937D01*
X0003179656Y0000380849D01*
X0003179656Y0000380849D01*
G37*
D56*
X0003159645Y0000314960D03*
D55*
G36*
X0003407500Y0000484172D02*
G01*
X0003409747Y0000483838D01*
X0003411951Y0000483286D01*
X0003414089Y0000482521D01*
X0003416143Y0000481550D01*
X0003418091Y0000480382D01*
X0003419915Y0000479029D01*
X0003421598Y0000477504D01*
X0003423124Y0000475821D01*
X0003424477Y0000473996D01*
X0003425644Y0000472048D01*
X0003426616Y0000469995D01*
X0003427381Y0000467856D01*
X0003427933Y0000465653D01*
X0003428266Y0000463406D01*
X0003428377Y0000461137D01*
X0003428377Y0000385318D01*
X0003428266Y0000383050D01*
X0003427933Y0000380803D01*
X0003427381Y0000378600D01*
X0003426616Y0000376461D01*
X0003425644Y0000374408D01*
X0003424477Y0000372459D01*
X0003423124Y0000370635D01*
X0003421598Y0000368952D01*
X0003419915Y0000367427D01*
X0003418091Y0000366073D01*
X0003416143Y0000364906D01*
X0003414089Y0000363935D01*
X0003411951Y0000363169D01*
X0003409747Y0000362617D01*
X0003407500Y0000362284D01*
X0003405232Y0000362173D01*
X0003358940Y0000362173D01*
X0003356672Y0000362284D01*
X0003354425Y0000362617D01*
X0003352222Y0000363169D01*
X0003350083Y0000363935D01*
X0003348030Y0000364906D01*
X0003346081Y0000366073D01*
X0003344257Y0000367427D01*
X0003342574Y0000368952D01*
X0003341049Y0000370635D01*
X0003339696Y0000372459D01*
X0003338528Y0000374408D01*
X0003337557Y0000376461D01*
X0003336791Y0000378600D01*
X0003336240Y0000380803D01*
X0003335906Y0000383050D01*
X0003335795Y0000385318D01*
X0003335795Y0000461137D01*
X0003335906Y0000463406D01*
X0003336240Y0000465653D01*
X0003336791Y0000467856D01*
X0003337557Y0000469995D01*
X0003338528Y0000472048D01*
X0003339696Y0000473996D01*
X0003341049Y0000475821D01*
X0003342574Y0000477504D01*
X0003344257Y0000479029D01*
X0003346081Y0000480382D01*
X0003348030Y0000481550D01*
X0003350083Y0000482521D01*
X0003352222Y0000483286D01*
X0003354425Y0000483838D01*
X0003356672Y0000484172D01*
X0003358940Y0000484283D01*
X0003405232Y0000484283D01*
X0003407500Y0000484172D01*
X0003407500Y0000484172D01*
G37*
D57*
X0003382086Y0000423228D03*
D55*
G36*
X0003407500Y0000267636D02*
G01*
X0003409747Y0000267303D01*
X0003411951Y0000266751D01*
X0003414089Y0000265986D01*
X0003416143Y0000265015D01*
X0003418091Y0000263847D01*
X0003419915Y0000262494D01*
X0003421598Y0000260968D01*
X0003423124Y0000259285D01*
X0003424477Y0000257461D01*
X0003425644Y0000255513D01*
X0003426616Y0000253459D01*
X0003427381Y0000251321D01*
X0003427933Y0000249117D01*
X0003428266Y0000246871D01*
X0003428377Y0000244602D01*
X0003428377Y0000168783D01*
X0003428266Y0000166514D01*
X0003427933Y0000164267D01*
X0003427381Y0000162064D01*
X0003426616Y0000159925D01*
X0003425644Y0000157872D01*
X0003424477Y0000155924D01*
X0003423124Y0000154099D01*
X0003421598Y0000152417D01*
X0003419915Y0000150891D01*
X0003418091Y0000149538D01*
X0003416143Y0000148370D01*
X0003414089Y0000147399D01*
X0003411951Y0000146634D01*
X0003409747Y0000146082D01*
X0003407500Y0000145749D01*
X0003405232Y0000145637D01*
X0003358940Y0000145637D01*
X0003356672Y0000145749D01*
X0003354425Y0000146082D01*
X0003352222Y0000146634D01*
X0003350083Y0000147399D01*
X0003348030Y0000148370D01*
X0003346081Y0000149538D01*
X0003344257Y0000150891D01*
X0003342574Y0000152417D01*
X0003341049Y0000154099D01*
X0003339696Y0000155924D01*
X0003338528Y0000157872D01*
X0003337557Y0000159925D01*
X0003336791Y0000162064D01*
X0003336240Y0000164267D01*
X0003335906Y0000166514D01*
X0003335795Y0000168783D01*
X0003335795Y0000244602D01*
X0003335906Y0000246871D01*
X0003336240Y0000249117D01*
X0003336791Y0000251321D01*
X0003337557Y0000253459D01*
X0003338528Y0000255513D01*
X0003339696Y0000257461D01*
X0003341049Y0000259285D01*
X0003342574Y0000260968D01*
X0003344257Y0000262494D01*
X0003346081Y0000263847D01*
X0003348030Y0000265015D01*
X0003350083Y0000265986D01*
X0003352222Y0000266751D01*
X0003354425Y0000267303D01*
X0003356672Y0000267636D01*
X0003358940Y0000267748D01*
X0003405232Y0000267748D01*
X0003407500Y0000267636D01*
X0003407500Y0000267636D01*
G37*
D57*
X0003382086Y0000206692D03*
D55*
G36*
X0003509245Y0000421234D02*
G01*
X0003510393Y0000421064D01*
X0003511519Y0000420782D01*
X0003512612Y0000420391D01*
X0003513661Y0000419894D01*
X0003514657Y0000419298D01*
X0003515589Y0000418606D01*
X0003516449Y0000417827D01*
X0003517228Y0000416967D01*
X0003517920Y0000416035D01*
X0003518516Y0000415039D01*
X0003519013Y0000413990D01*
X0003519404Y0000412897D01*
X0003519686Y0000411771D01*
X0003519856Y0000410623D01*
X0003519913Y0000409464D01*
X0003519913Y0000385811D01*
X0003519856Y0000384651D01*
X0003519686Y0000383503D01*
X0003519404Y0000382377D01*
X0003519013Y0000381285D01*
X0003518516Y0000380235D01*
X0003517920Y0000379240D01*
X0003517228Y0000378308D01*
X0003516449Y0000377448D01*
X0003515589Y0000376668D01*
X0003514657Y0000375977D01*
X0003513661Y0000375380D01*
X0003512612Y0000374884D01*
X0003511519Y0000374493D01*
X0003510393Y0000374211D01*
X0003509245Y0000374041D01*
X0003508086Y0000373984D01*
X0003449000Y0000373984D01*
X0003447840Y0000374041D01*
X0003446692Y0000374211D01*
X0003445566Y0000374493D01*
X0003444474Y0000374884D01*
X0003443424Y0000375380D01*
X0003442429Y0000375977D01*
X0003441497Y0000376668D01*
X0003440637Y0000377448D01*
X0003439857Y0000378308D01*
X0003439166Y0000379240D01*
X0003438569Y0000380235D01*
X0003438073Y0000381285D01*
X0003437682Y0000382377D01*
X0003437400Y0000383503D01*
X0003437230Y0000384651D01*
X0003437173Y0000385811D01*
X0003437173Y0000409464D01*
X0003437230Y0000410623D01*
X0003437400Y0000411771D01*
X0003437682Y0000412897D01*
X0003438073Y0000413990D01*
X0003438569Y0000415039D01*
X0003439166Y0000416035D01*
X0003439857Y0000416967D01*
X0003440637Y0000417827D01*
X0003441497Y0000418606D01*
X0003442429Y0000419298D01*
X0003443424Y0000419894D01*
X0003444474Y0000420391D01*
X0003445566Y0000420782D01*
X0003446692Y0000421064D01*
X0003447840Y0000421234D01*
X0003449000Y0000421291D01*
X0003508086Y0000421291D01*
X0003509245Y0000421234D01*
X0003509245Y0000421234D01*
G37*
D58*
X0003478543Y0000397637D03*
D55*
G36*
X0003509245Y0000366116D02*
G01*
X0003510393Y0000365945D01*
X0003511519Y0000365663D01*
X0003512612Y0000365272D01*
X0003513661Y0000364776D01*
X0003514657Y0000364180D01*
X0003515589Y0000363488D01*
X0003516449Y0000362709D01*
X0003517228Y0000361849D01*
X0003517920Y0000360917D01*
X0003518516Y0000359921D01*
X0003519013Y0000358872D01*
X0003519404Y0000357779D01*
X0003519686Y0000356653D01*
X0003519856Y0000355505D01*
X0003519913Y0000354346D01*
X0003519913Y0000330692D01*
X0003519856Y0000329533D01*
X0003519686Y0000328385D01*
X0003519404Y0000327259D01*
X0003519013Y0000326167D01*
X0003518516Y0000325117D01*
X0003517920Y0000324122D01*
X0003517228Y0000323190D01*
X0003516449Y0000322330D01*
X0003515589Y0000321550D01*
X0003514657Y0000320859D01*
X0003513661Y0000320262D01*
X0003512612Y0000319766D01*
X0003511519Y0000319375D01*
X0003510393Y0000319093D01*
X0003509245Y0000318923D01*
X0003508086Y0000318866D01*
X0003449000Y0000318866D01*
X0003447840Y0000318923D01*
X0003446692Y0000319093D01*
X0003445566Y0000319375D01*
X0003444474Y0000319766D01*
X0003443424Y0000320262D01*
X0003442429Y0000320859D01*
X0003441497Y0000321550D01*
X0003440637Y0000322330D01*
X0003439857Y0000323190D01*
X0003439166Y0000324122D01*
X0003438569Y0000325117D01*
X0003438073Y0000326167D01*
X0003437682Y0000327259D01*
X0003437400Y0000328385D01*
X0003437230Y0000329533D01*
X0003437173Y0000330692D01*
X0003437173Y0000354346D01*
X0003437230Y0000355505D01*
X0003437400Y0000356653D01*
X0003437682Y0000357779D01*
X0003438073Y0000358872D01*
X0003438569Y0000359921D01*
X0003439166Y0000360917D01*
X0003439857Y0000361849D01*
X0003440637Y0000362709D01*
X0003441497Y0000363488D01*
X0003442429Y0000364180D01*
X0003443424Y0000364776D01*
X0003444474Y0000365272D01*
X0003445566Y0000365663D01*
X0003446692Y0000365945D01*
X0003447840Y0000366116D01*
X0003449000Y0000366173D01*
X0003508086Y0000366173D01*
X0003509245Y0000366116D01*
X0003509245Y0000366116D01*
G37*
D58*
X0003478543Y0000342519D03*
D55*
G36*
X0003509245Y0000310998D02*
G01*
X0003510393Y0000310827D01*
X0003511519Y0000310545D01*
X0003512612Y0000310154D01*
X0003513661Y0000309658D01*
X0003514657Y0000309061D01*
X0003515589Y0000308370D01*
X0003516449Y0000307591D01*
X0003517228Y0000306731D01*
X0003517920Y0000305798D01*
X0003518516Y0000304803D01*
X0003519013Y0000303754D01*
X0003519404Y0000302661D01*
X0003519686Y0000301535D01*
X0003519856Y0000300387D01*
X0003519913Y0000299228D01*
X0003519913Y0000275574D01*
X0003519856Y0000274415D01*
X0003519686Y0000273267D01*
X0003519404Y0000272141D01*
X0003519013Y0000271048D01*
X0003518516Y0000269999D01*
X0003517920Y0000269004D01*
X0003517228Y0000268071D01*
X0003516449Y0000267212D01*
X0003515589Y0000266432D01*
X0003514657Y0000265741D01*
X0003513661Y0000265144D01*
X0003512612Y0000264648D01*
X0003511519Y0000264257D01*
X0003510393Y0000263975D01*
X0003509245Y0000263805D01*
X0003508086Y0000263748D01*
X0003449000Y0000263748D01*
X0003447840Y0000263805D01*
X0003446692Y0000263975D01*
X0003445566Y0000264257D01*
X0003444474Y0000264648D01*
X0003443424Y0000265144D01*
X0003442429Y0000265741D01*
X0003441497Y0000266432D01*
X0003440637Y0000267212D01*
X0003439857Y0000268071D01*
X0003439166Y0000269004D01*
X0003438569Y0000269999D01*
X0003438073Y0000271048D01*
X0003437682Y0000272141D01*
X0003437400Y0000273267D01*
X0003437230Y0000274415D01*
X0003437173Y0000275574D01*
X0003437173Y0000299228D01*
X0003437230Y0000300387D01*
X0003437400Y0000301535D01*
X0003437682Y0000302661D01*
X0003438073Y0000303754D01*
X0003438569Y0000304803D01*
X0003439166Y0000305798D01*
X0003439857Y0000306731D01*
X0003440637Y0000307591D01*
X0003441497Y0000308370D01*
X0003442429Y0000309061D01*
X0003443424Y0000309658D01*
X0003444474Y0000310154D01*
X0003445566Y0000310545D01*
X0003446692Y0000310827D01*
X0003447840Y0000310998D01*
X0003449000Y0000311055D01*
X0003508086Y0000311055D01*
X0003509245Y0000310998D01*
X0003509245Y0000310998D01*
G37*
D58*
X0003478543Y0000287401D03*
D55*
G36*
X0003509245Y0000255880D02*
G01*
X0003510393Y0000255709D01*
X0003511519Y0000255427D01*
X0003512612Y0000255036D01*
X0003513661Y0000254540D01*
X0003514657Y0000253943D01*
X0003515589Y0000253252D01*
X0003516449Y0000252473D01*
X0003517228Y0000251613D01*
X0003517920Y0000250680D01*
X0003518516Y0000249685D01*
X0003519013Y0000248636D01*
X0003519404Y0000247543D01*
X0003519686Y0000246417D01*
X0003519856Y0000245269D01*
X0003519913Y0000244110D01*
X0003519913Y0000220456D01*
X0003519856Y0000219297D01*
X0003519686Y0000218149D01*
X0003519404Y0000217023D01*
X0003519013Y0000215930D01*
X0003518516Y0000214881D01*
X0003517920Y0000213886D01*
X0003517228Y0000212953D01*
X0003516449Y0000212093D01*
X0003515589Y0000211314D01*
X0003514657Y0000210623D01*
X0003513661Y0000210026D01*
X0003512612Y0000209530D01*
X0003511519Y0000209139D01*
X0003510393Y0000208857D01*
X0003509245Y0000208686D01*
X0003508086Y0000208629D01*
X0003449000Y0000208629D01*
X0003447840Y0000208686D01*
X0003446692Y0000208857D01*
X0003445566Y0000209139D01*
X0003444474Y0000209530D01*
X0003443424Y0000210026D01*
X0003442429Y0000210623D01*
X0003441497Y0000211314D01*
X0003440637Y0000212093D01*
X0003439857Y0000212953D01*
X0003439166Y0000213886D01*
X0003438569Y0000214881D01*
X0003438073Y0000215930D01*
X0003437682Y0000217023D01*
X0003437400Y0000218149D01*
X0003437230Y0000219297D01*
X0003437173Y0000220456D01*
X0003437173Y0000244110D01*
X0003437230Y0000245269D01*
X0003437400Y0000246417D01*
X0003437682Y0000247543D01*
X0003438073Y0000248636D01*
X0003438569Y0000249685D01*
X0003439166Y0000250680D01*
X0003439857Y0000251613D01*
X0003440637Y0000252473D01*
X0003441497Y0000253252D01*
X0003442429Y0000253943D01*
X0003443424Y0000254540D01*
X0003444474Y0000255036D01*
X0003445566Y0000255427D01*
X0003446692Y0000255709D01*
X0003447840Y0000255880D01*
X0003449000Y0000255937D01*
X0003508086Y0000255937D01*
X0003509245Y0000255880D01*
X0003509245Y0000255880D01*
G37*
D58*
X0003478543Y0000232283D03*
G04 next file*
%LPD*%
G04 #@! TF.GenerationSoftware,KiCad,Pcbnew,(5.1.4)-1*
G04 #@! TF.CreationDate,2020-03-27T16:03:36-04:00*
G04 #@! TF.ProjectId,y-z_motor_endstop_breakout,792d7a5f-6d6f-4746-9f72-5f656e647374,rev?*
G04 #@! TF.SameCoordinates,PX8a48640PY6422c40*
G04 #@! TF.FileFunction,Legend,Bot*
G04 #@! TF.FilePolarity,Positive*
G04 Gerber Fmt 4.6, Leading zero omitted, Abs format (unit mm)*
G04 Created by KiCad (PCBNEW (5.1.4)-1) date 2020-03-27 16:03:36*
G04 APERTURE LIST*
G04 APERTURE END LIST*
D59*
X0001892397Y0002394813D02*
X0001892397Y0002344813D01*
X0001913826Y0002392432D02*
X0001918588Y0002394813D01*
X0001928112Y0002394813D01*
X0001932874Y0002392432D01*
X0001935255Y0002387671D01*
X0001935255Y0002385290D01*
X0001932874Y0002380528D01*
X0001928112Y0002378147D01*
X0001920969Y0002378147D01*
X0001916207Y0002375766D01*
X0001913826Y0002371004D01*
X0001913826Y0002368623D01*
X0001916207Y0002363861D01*
X0001920969Y0002361480D01*
X0001928112Y0002361480D01*
X0001932874Y0002363861D01*
X0001956683Y0002394813D02*
X0001956683Y0002344813D01*
X0001978112Y0002394813D02*
X0001978112Y0002368623D01*
X0001975731Y0002363861D01*
X0001970969Y0002361480D01*
X0001963826Y0002361480D01*
X0001959064Y0002363861D01*
X0001956683Y0002366242D01*
X0002023350Y0002394813D02*
X0002023350Y0002368623D01*
X0002020969Y0002363861D01*
X0002016207Y0002361480D01*
X0002006683Y0002361480D01*
X0002001921Y0002363861D01*
X0002023350Y0002392432D02*
X0002018588Y0002394813D01*
X0002006683Y0002394813D01*
X0002001921Y0002392432D01*
X0001999540Y0002387671D01*
X0001999540Y0002382909D01*
X0002001921Y0002378147D01*
X0002006683Y0002375766D01*
X0002018588Y0002375766D01*
X0002023350Y0002373385D01*
X0002068588Y0002394813D02*
X0002068588Y0002368623D01*
X0002066207Y0002363861D01*
X0002061445Y0002361480D01*
X0002051921Y0002361480D01*
X0002047159Y0002363861D01*
X0002068588Y0002392432D02*
X0002063826Y0002394813D01*
X0002051921Y0002394813D01*
X0002047159Y0002392432D01*
X0002044778Y0002387671D01*
X0002044778Y0002382909D01*
X0002047159Y0002378147D01*
X0002051921Y0002375766D01*
X0002063826Y0002375766D01*
X0002068588Y0002373385D01*
X0002092397Y0002361480D02*
X0002092397Y0002394813D01*
X0002092397Y0002366242D02*
X0002094778Y0002363861D01*
X0002099540Y0002361480D01*
X0002106683Y0002361480D01*
X0002111445Y0002363861D01*
X0002113826Y0002368623D01*
X0002113826Y0002394813D01*
X0002201921Y0002347194D02*
X0002197159Y0002344813D01*
X0002190016Y0002344813D01*
X0002182874Y0002347194D01*
X0002178112Y0002351956D01*
X0002175731Y0002356718D01*
X0002173350Y0002366242D01*
X0002173350Y0002373385D01*
X0002175731Y0002382909D01*
X0002178112Y0002387671D01*
X0002182874Y0002392432D01*
X0002190016Y0002394813D01*
X0002194778Y0002394813D01*
X0002201921Y0002392432D01*
X0002204302Y0002390052D01*
X0002204302Y0002373385D01*
X0002194778Y0002373385D01*
X0002232874Y0002394813D02*
X0002228112Y0002392432D01*
X0002225731Y0002390052D01*
X0002223350Y0002385290D01*
X0002223350Y0002371004D01*
X0002225731Y0002366242D01*
X0002228112Y0002363861D01*
X0002232874Y0002361480D01*
X0002240016Y0002361480D01*
X0002244778Y0002363861D01*
X0002247159Y0002366242D01*
X0002249540Y0002371004D01*
X0002249540Y0002385290D01*
X0002247159Y0002390052D01*
X0002244778Y0002392432D01*
X0002240016Y0002394813D01*
X0002232874Y0002394813D01*
X0002266207Y0002361480D02*
X0002278112Y0002394813D01*
X0002290016Y0002361480D01*
X0001974540Y0002432313D02*
X0001974540Y0002468028D01*
X0001972159Y0002475171D01*
X0001967397Y0002479932D01*
X0001960255Y0002482313D01*
X0001955493Y0002482313D01*
X0002019778Y0002482313D02*
X0002019778Y0002456123D01*
X0002017397Y0002451361D01*
X0002012635Y0002448980D01*
X0002003112Y0002448980D01*
X0001998350Y0002451361D01*
X0002019778Y0002479932D02*
X0002015016Y0002482313D01*
X0002003112Y0002482313D01*
X0001998350Y0002479932D01*
X0001995969Y0002475171D01*
X0001995969Y0002470409D01*
X0001998350Y0002465647D01*
X0002003112Y0002463266D01*
X0002015016Y0002463266D01*
X0002019778Y0002460885D01*
X0002043588Y0002448980D02*
X0002043588Y0002482313D01*
X0002043588Y0002453742D02*
X0002045969Y0002451361D01*
X0002050731Y0002448980D01*
X0002057874Y0002448980D01*
X0002062635Y0002451361D01*
X0002065016Y0002456123D01*
X0002065016Y0002482313D01*
X0002124540Y0002437075D02*
X0002126921Y0002434694D01*
X0002131683Y0002432313D01*
X0002143588Y0002432313D01*
X0002148350Y0002434694D01*
X0002150731Y0002437075D01*
X0002153112Y0002441837D01*
X0002153112Y0002446599D01*
X0002150731Y0002453742D01*
X0002122159Y0002482313D01*
X0002153112Y0002482313D01*
X0002184064Y0002432313D02*
X0002188826Y0002432313D01*
X0002193588Y0002434694D01*
X0002195969Y0002437075D01*
X0002198350Y0002441837D01*
X0002200731Y0002451361D01*
X0002200731Y0002463266D01*
X0002198350Y0002472790D01*
X0002195969Y0002477552D01*
X0002193588Y0002479932D01*
X0002188826Y0002482313D01*
X0002184064Y0002482313D01*
X0002179302Y0002479932D01*
X0002176921Y0002477552D01*
X0002174540Y0002472790D01*
X0002172159Y0002463266D01*
X0002172159Y0002451361D01*
X0002174540Y0002441837D01*
X0002176921Y0002437075D01*
X0002179302Y0002434694D01*
X0002184064Y0002432313D01*
X0002219778Y0002437075D02*
X0002222159Y0002434694D01*
X0002226921Y0002432313D01*
X0002238826Y0002432313D01*
X0002243588Y0002434694D01*
X0002245969Y0002437075D01*
X0002248350Y0002441837D01*
X0002248350Y0002446599D01*
X0002245969Y0002453742D01*
X0002217397Y0002482313D01*
X0002248350Y0002482313D01*
X0002279302Y0002432313D02*
X0002284064Y0002432313D01*
X0002288826Y0002434694D01*
X0002291207Y0002437075D01*
X0002293588Y0002441837D01*
X0002295969Y0002451361D01*
X0002295969Y0002463266D01*
X0002293588Y0002472790D01*
X0002291207Y0002477552D01*
X0002288826Y0002479932D01*
X0002284064Y0002482313D01*
X0002279302Y0002482313D01*
X0002274540Y0002479932D01*
X0002272159Y0002477552D01*
X0002269778Y0002472790D01*
X0002267397Y0002463266D01*
X0002267397Y0002451361D01*
X0002269778Y0002441837D01*
X0002272159Y0002437075D01*
X0002274540Y0002434694D01*
X0002279302Y0002432313D01*
X0001594778Y0002539754D02*
X0001594778Y0002563563D01*
X0001578112Y0002513563D02*
X0001594778Y0002539754D01*
X0001611445Y0002513563D01*
X0001663826Y0002511182D02*
X0001620969Y0002575468D01*
X0001675731Y0002513563D02*
X0001709064Y0002513563D01*
X0001675731Y0002563563D01*
X0001709064Y0002563563D01*
X0001728112Y0002544516D02*
X0001766207Y0002544516D01*
X0001787635Y0002549278D02*
X0001811445Y0002549278D01*
X0001782874Y0002563563D02*
X0001799540Y0002513563D01*
X0001816207Y0002563563D01*
X0001828112Y0002563563D02*
X0001854302Y0002530230D01*
X0001828112Y0002530230D02*
X0001854302Y0002563563D01*
X0001873350Y0002563563D02*
X0001873350Y0002530230D01*
X0001873350Y0002513563D02*
X0001870969Y0002515944D01*
X0001873350Y0002518325D01*
X0001875731Y0002515944D01*
X0001873350Y0002513563D01*
X0001873350Y0002518325D01*
X0001894778Y0002561182D02*
X0001899540Y0002563563D01*
X0001909064Y0002563563D01*
X0001913826Y0002561182D01*
X0001916207Y0002556421D01*
X0001916207Y0002554040D01*
X0001913826Y0002549278D01*
X0001909064Y0002546897D01*
X0001901921Y0002546897D01*
X0001897159Y0002544516D01*
X0001894778Y0002539754D01*
X0001894778Y0002537373D01*
X0001897159Y0002532611D01*
X0001901921Y0002530230D01*
X0001909064Y0002530230D01*
X0001913826Y0002532611D01*
X0001992397Y0002537373D02*
X0001999540Y0002539754D01*
X0002001921Y0002542135D01*
X0002004302Y0002546897D01*
X0002004302Y0002554040D01*
X0002001921Y0002558802D01*
X0001999540Y0002561182D01*
X0001994778Y0002563563D01*
X0001975731Y0002563563D01*
X0001975731Y0002513563D01*
X0001992397Y0002513563D01*
X0001997159Y0002515944D01*
X0001999540Y0002518325D01*
X0002001921Y0002523087D01*
X0002001921Y0002527849D01*
X0001999540Y0002532611D01*
X0001997159Y0002534992D01*
X0001992397Y0002537373D01*
X0001975731Y0002537373D01*
X0002025731Y0002563563D02*
X0002025731Y0002530230D01*
X0002025731Y0002539754D02*
X0002028112Y0002534992D01*
X0002030493Y0002532611D01*
X0002035254Y0002530230D01*
X0002040016Y0002530230D01*
X0002075731Y0002561182D02*
X0002070969Y0002563563D01*
X0002061445Y0002563563D01*
X0002056683Y0002561182D01*
X0002054302Y0002556421D01*
X0002054302Y0002537373D01*
X0002056683Y0002532611D01*
X0002061445Y0002530230D01*
X0002070969Y0002530230D01*
X0002075731Y0002532611D01*
X0002078112Y0002537373D01*
X0002078112Y0002542135D01*
X0002054302Y0002546897D01*
X0002120969Y0002563563D02*
X0002120969Y0002537373D01*
X0002118588Y0002532611D01*
X0002113826Y0002530230D01*
X0002104302Y0002530230D01*
X0002099540Y0002532611D01*
X0002120969Y0002561182D02*
X0002116207Y0002563563D01*
X0002104302Y0002563563D01*
X0002099540Y0002561182D01*
X0002097159Y0002556421D01*
X0002097159Y0002551659D01*
X0002099540Y0002546897D01*
X0002104302Y0002544516D01*
X0002116207Y0002544516D01*
X0002120969Y0002542135D01*
X0002144778Y0002563563D02*
X0002144778Y0002513563D01*
X0002149540Y0002544516D02*
X0002163826Y0002563563D01*
X0002163826Y0002530230D02*
X0002144778Y0002549278D01*
X0002192397Y0002563563D02*
X0002187635Y0002561182D01*
X0002185255Y0002558802D01*
X0002182874Y0002554040D01*
X0002182874Y0002539754D01*
X0002185255Y0002534992D01*
X0002187635Y0002532611D01*
X0002192397Y0002530230D01*
X0002199540Y0002530230D01*
X0002204302Y0002532611D01*
X0002206683Y0002534992D01*
X0002209064Y0002539754D01*
X0002209064Y0002554040D01*
X0002206683Y0002558802D01*
X0002204302Y0002561182D01*
X0002199540Y0002563563D01*
X0002192397Y0002563563D01*
X0002251921Y0002530230D02*
X0002251921Y0002563563D01*
X0002230493Y0002530230D02*
X0002230493Y0002556421D01*
X0002232874Y0002561182D01*
X0002237635Y0002563563D01*
X0002244778Y0002563563D01*
X0002249540Y0002561182D01*
X0002251921Y0002558802D01*
X0002268588Y0002530230D02*
X0002287635Y0002530230D01*
X0002275731Y0002513563D02*
X0002275731Y0002556421D01*
X0002278112Y0002561182D01*
X0002282874Y0002563563D01*
X0002287635Y0002563563D01*
%LPC*%
D60*
X0001607874Y0002790944D03*
D61*
G36*
X0001575912Y0002657105D02*
G01*
X0001574899Y0002657255D01*
X0001573906Y0002657504D01*
X0001572942Y0002657849D01*
X0001572017Y0002658286D01*
X0001571139Y0002658813D01*
X0001570317Y0002659422D01*
X0001569559Y0002660110D01*
X0001568871Y0002660868D01*
X0001568261Y0002661690D01*
X0001567735Y0002662568D01*
X0001567297Y0002663494D01*
X0001566953Y0002664457D01*
X0001566704Y0002665450D01*
X0001566554Y0002666463D01*
X0001566503Y0002667485D01*
X0001566503Y0002717553D01*
X0001566554Y0002718575D01*
X0001566704Y0002719588D01*
X0001566953Y0002720581D01*
X0001567297Y0002721545D01*
X0001567735Y0002722470D01*
X0001568261Y0002723348D01*
X0001568871Y0002724170D01*
X0001569559Y0002724929D01*
X0001570317Y0002725616D01*
X0001571139Y0002726226D01*
X0001572017Y0002726752D01*
X0001572942Y0002727190D01*
X0001573906Y0002727535D01*
X0001574899Y0002727783D01*
X0001575912Y0002727934D01*
X0001576934Y0002727984D01*
X0001638813Y0002727984D01*
X0001639835Y0002727934D01*
X0001640848Y0002727783D01*
X0001641841Y0002727535D01*
X0001642805Y0002727190D01*
X0001643730Y0002726752D01*
X0001644608Y0002726226D01*
X0001645430Y0002725616D01*
X0001646189Y0002724929D01*
X0001646876Y0002724170D01*
X0001647486Y0002723348D01*
X0001648012Y0002722470D01*
X0001648450Y0002721545D01*
X0001648794Y0002720581D01*
X0001649043Y0002719588D01*
X0001649193Y0002718575D01*
X0001649244Y0002717553D01*
X0001649244Y0002667485D01*
X0001649193Y0002666463D01*
X0001649043Y0002665450D01*
X0001648794Y0002664457D01*
X0001648450Y0002663494D01*
X0001648012Y0002662568D01*
X0001647486Y0002661690D01*
X0001646876Y0002660868D01*
X0001646189Y0002660110D01*
X0001645430Y0002659422D01*
X0001644608Y0002658813D01*
X0001643730Y0002658286D01*
X0001642805Y0002657849D01*
X0001641841Y0002657504D01*
X0001640848Y0002657255D01*
X0001639835Y0002657105D01*
X0001638813Y0002657055D01*
X0001576934Y0002657055D01*
X0001575912Y0002657105D01*
X0001575912Y0002657105D01*
G37*
D62*
X0001607874Y0002692519D03*
D63*
X0001607874Y0002386220D03*
X0001607874Y0002287795D03*
X0001607874Y0002189370D03*
D61*
G36*
X0001576896Y0002055530D02*
G01*
X0001575884Y0002055680D01*
X0001574891Y0002055929D01*
X0001573927Y0002056274D01*
X0001573001Y0002056711D01*
X0001572123Y0002057238D01*
X0001571301Y0002057847D01*
X0001570543Y0002058535D01*
X0001569855Y0002059293D01*
X0001569246Y0002060116D01*
X0001568719Y0002060994D01*
X0001568282Y0002061919D01*
X0001567937Y0002062883D01*
X0001567688Y0002063876D01*
X0001567538Y0002064888D01*
X0001567488Y0002065911D01*
X0001567488Y0002115978D01*
X0001567538Y0002117001D01*
X0001567688Y0002118013D01*
X0001567937Y0002119006D01*
X0001568282Y0002119970D01*
X0001568719Y0002120895D01*
X0001569246Y0002121773D01*
X0001569855Y0002122595D01*
X0001570543Y0002123354D01*
X0001571301Y0002124041D01*
X0001572123Y0002124651D01*
X0001573001Y0002125177D01*
X0001573927Y0002125615D01*
X0001574891Y0002125960D01*
X0001575884Y0002126209D01*
X0001576896Y0002126359D01*
X0001577918Y0002126409D01*
X0001637829Y0002126409D01*
X0001638851Y0002126359D01*
X0001639864Y0002126209D01*
X0001640856Y0002125960D01*
X0001641820Y0002125615D01*
X0001642746Y0002125177D01*
X0001643624Y0002124651D01*
X0001644446Y0002124041D01*
X0001645204Y0002123354D01*
X0001645892Y0002122595D01*
X0001646501Y0002121773D01*
X0001647028Y0002120895D01*
X0001647465Y0002119970D01*
X0001647810Y0002119006D01*
X0001648059Y0002118013D01*
X0001648209Y0002117001D01*
X0001648259Y0002115978D01*
X0001648259Y0002065911D01*
X0001648209Y0002064888D01*
X0001648059Y0002063876D01*
X0001647810Y0002062883D01*
X0001647465Y0002061919D01*
X0001647028Y0002060994D01*
X0001646501Y0002060116D01*
X0001645892Y0002059293D01*
X0001645204Y0002058535D01*
X0001644446Y0002057847D01*
X0001643624Y0002057238D01*
X0001642746Y0002056711D01*
X0001641820Y0002056274D01*
X0001640856Y0002055929D01*
X0001639864Y0002055680D01*
X0001638851Y0002055530D01*
X0001637829Y0002055480D01*
X0001577918Y0002055480D01*
X0001576896Y0002055530D01*
X0001576896Y0002055530D01*
G37*
D62*
X0001607874Y0002090944D03*
D64*
X0002407874Y0002540944D03*
X0002507874Y0002540944D03*
X0002407874Y0002440944D03*
X0002507874Y0002440944D03*
X0002407874Y0002340944D03*
D65*
X0002507874Y0002340944D03*
D66*
X0002007874Y0002047244D03*
X0002007874Y0002834645D03*
G04 next file*
%LPD*%
G04 #@! TF.GenerationSoftware,KiCad,Pcbnew,(5.1.4)-1*
G04 #@! TF.CreationDate,2020-03-27T15:32:05-04:00*
G04 #@! TF.ProjectId,Encoder Daughterboard,456e636f-6465-4722-9044-617567687465,rev?*
G04 #@! TF.SameCoordinates,PX9d739e0PY5e78920*
G04 #@! TF.FileFunction,Legend,Bot*
G04 #@! TF.FilePolarity,Positive*
G04 Gerber Fmt 4.6, Leading zero omitted, Abs format (unit mm)*
G04 Created by KiCad (PCBNEW (5.1.4)-1) date 2020-03-27 15:32:05*
G04 APERTURE LIST*
G04 APERTURE END LIST*
%LPC*%
D67*
X0002244094Y0000984251D02*
X0002503937Y0000984251D03*
X0001984251Y0000984251D03*
D68*
X0002401574Y0001259842D03*
X0002322834Y0001259842D03*
X0002244094Y0001259842D03*
X0002165354Y0001259842D03*
X0002086614Y0001259842D03*
D69*
X0002342519Y0000688976D03*
X0002244094Y0000688976D03*
X0002145669Y0000688976D03*
D70*
X0002094094Y0001434251D03*
X0002094094Y0001534251D03*
X0002194094Y0001434251D03*
X0002194094Y0001534251D03*
X0002294094Y0001434251D03*
X0002294094Y0001534251D03*
X0002394094Y0001434251D03*
D71*
X0002394094Y0001534251D03*
G04 next file*
%LPD*%
G04 #@! TF.GenerationSoftware,KiCad,Pcbnew,(5.1.4)-1*
G04 #@! TF.CreationDate,2020-03-27T16:03:36-04:00*
G04 #@! TF.ProjectId,y-z_motor_endstop_breakout,792d7a5f-6d6f-4746-9f72-5f656e647374,rev?*
G04 #@! TF.SameCoordinates,PX8a48640PY6422c40*
G04 #@! TF.FileFunction,Legend,Bot*
G04 #@! TF.FilePolarity,Positive*
G04 Gerber Fmt 4.6, Leading zero omitted, Abs format (unit mm)*
G04 Created by KiCad (PCBNEW (5.1.4)-1) date 2020-03-27 16:03:36*
G04 APERTURE LIST*
G04 APERTURE END LIST*
D72*
X0001020987Y0002487075D02*
X0001020987Y0002537075D01*
X0000999559Y0002489456D02*
X0000994797Y0002487075D01*
X0000985273Y0002487075D01*
X0000980511Y0002489456D01*
X0000978130Y0002494218D01*
X0000978130Y0002496599D01*
X0000980511Y0002501361D01*
X0000985273Y0002503742D01*
X0000992416Y0002503742D01*
X0000997178Y0002506123D01*
X0000999559Y0002510885D01*
X0000999559Y0002513266D01*
X0000997178Y0002518028D01*
X0000992416Y0002520409D01*
X0000985273Y0002520409D01*
X0000980511Y0002518028D01*
X0000956702Y0002487075D02*
X0000956702Y0002537075D01*
X0000935273Y0002487075D02*
X0000935273Y0002513266D01*
X0000937654Y0002518028D01*
X0000942416Y0002520409D01*
X0000949559Y0002520409D01*
X0000954321Y0002518028D01*
X0000956702Y0002515647D01*
X0000890035Y0002487075D02*
X0000890035Y0002513266D01*
X0000892416Y0002518028D01*
X0000897178Y0002520409D01*
X0000906702Y0002520409D01*
X0000911464Y0002518028D01*
X0000890035Y0002489456D02*
X0000894797Y0002487075D01*
X0000906702Y0002487075D01*
X0000911464Y0002489456D01*
X0000913845Y0002494218D01*
X0000913845Y0002498980D01*
X0000911464Y0002503742D01*
X0000906702Y0002506123D01*
X0000894797Y0002506123D01*
X0000890035Y0002508504D01*
X0000844797Y0002487075D02*
X0000844797Y0002513266D01*
X0000847178Y0002518028D01*
X0000851940Y0002520409D01*
X0000861464Y0002520409D01*
X0000866226Y0002518028D01*
X0000844797Y0002489456D02*
X0000849559Y0002487075D01*
X0000861464Y0002487075D01*
X0000866226Y0002489456D01*
X0000868607Y0002494218D01*
X0000868607Y0002498980D01*
X0000866226Y0002503742D01*
X0000861464Y0002506123D01*
X0000849559Y0002506123D01*
X0000844797Y0002508504D01*
X0000820987Y0002520409D02*
X0000820987Y0002487075D01*
X0000820987Y0002515647D02*
X0000818607Y0002518028D01*
X0000813845Y0002520409D01*
X0000806702Y0002520409D01*
X0000801940Y0002518028D01*
X0000799559Y0002513266D01*
X0000799559Y0002487075D01*
X0000711464Y0002534694D02*
X0000716226Y0002537075D01*
X0000723368Y0002537075D01*
X0000730511Y0002534694D01*
X0000735273Y0002529932D01*
X0000737654Y0002525171D01*
X0000740035Y0002515647D01*
X0000740035Y0002508504D01*
X0000737654Y0002498980D01*
X0000735273Y0002494218D01*
X0000730511Y0002489456D01*
X0000723368Y0002487075D01*
X0000718607Y0002487075D01*
X0000711464Y0002489456D01*
X0000709083Y0002491837D01*
X0000709083Y0002508504D01*
X0000718607Y0002508504D01*
X0000680511Y0002487075D02*
X0000685273Y0002489456D01*
X0000687654Y0002491837D01*
X0000690035Y0002496599D01*
X0000690035Y0002510885D01*
X0000687654Y0002515647D01*
X0000685273Y0002518028D01*
X0000680511Y0002520409D01*
X0000673368Y0002520409D01*
X0000668607Y0002518028D01*
X0000666226Y0002515647D01*
X0000663845Y0002510885D01*
X0000663845Y0002496599D01*
X0000666226Y0002491837D01*
X0000668607Y0002489456D01*
X0000673368Y0002487075D01*
X0000680511Y0002487075D01*
X0000647178Y0002520409D02*
X0000635273Y0002487075D01*
X0000623368Y0002520409D01*
X0000938845Y0002449575D02*
X0000938845Y0002413861D01*
X0000941226Y0002406718D01*
X0000945987Y0002401956D01*
X0000953130Y0002399575D01*
X0000957892Y0002399575D01*
X0000893607Y0002399575D02*
X0000893607Y0002425766D01*
X0000895987Y0002430528D01*
X0000900749Y0002432909D01*
X0000910273Y0002432909D01*
X0000915035Y0002430528D01*
X0000893607Y0002401956D02*
X0000898368Y0002399575D01*
X0000910273Y0002399575D01*
X0000915035Y0002401956D01*
X0000917416Y0002406718D01*
X0000917416Y0002411480D01*
X0000915035Y0002416242D01*
X0000910273Y0002418623D01*
X0000898368Y0002418623D01*
X0000893607Y0002421004D01*
X0000869797Y0002432909D02*
X0000869797Y0002399575D01*
X0000869797Y0002428147D02*
X0000867416Y0002430528D01*
X0000862654Y0002432909D01*
X0000855511Y0002432909D01*
X0000850749Y0002430528D01*
X0000848368Y0002425766D01*
X0000848368Y0002399575D01*
X0000788845Y0002444813D02*
X0000786464Y0002447194D01*
X0000781702Y0002449575D01*
X0000769797Y0002449575D01*
X0000765035Y0002447194D01*
X0000762654Y0002444813D01*
X0000760273Y0002440052D01*
X0000760273Y0002435290D01*
X0000762654Y0002428147D01*
X0000791226Y0002399575D01*
X0000760273Y0002399575D01*
X0000729321Y0002449575D02*
X0000724559Y0002449575D01*
X0000719797Y0002447194D01*
X0000717416Y0002444813D01*
X0000715035Y0002440052D01*
X0000712654Y0002430528D01*
X0000712654Y0002418623D01*
X0000715035Y0002409099D01*
X0000717416Y0002404337D01*
X0000719797Y0002401956D01*
X0000724559Y0002399575D01*
X0000729321Y0002399575D01*
X0000734083Y0002401956D01*
X0000736464Y0002404337D01*
X0000738845Y0002409099D01*
X0000741226Y0002418623D01*
X0000741226Y0002430528D01*
X0000738845Y0002440052D01*
X0000736464Y0002444813D01*
X0000734083Y0002447194D01*
X0000729321Y0002449575D01*
X0000693607Y0002444813D02*
X0000691226Y0002447194D01*
X0000686464Y0002449575D01*
X0000674559Y0002449575D01*
X0000669797Y0002447194D01*
X0000667416Y0002444813D01*
X0000665035Y0002440052D01*
X0000665035Y0002435290D01*
X0000667416Y0002428147D01*
X0000695987Y0002399575D01*
X0000665035Y0002399575D01*
X0000634083Y0002449575D02*
X0000629321Y0002449575D01*
X0000624559Y0002447194D01*
X0000622178Y0002444813D01*
X0000619797Y0002440052D01*
X0000617416Y0002430528D01*
X0000617416Y0002418623D01*
X0000619797Y0002409099D01*
X0000622178Y0002404337D01*
X0000624559Y0002401956D01*
X0000629321Y0002399575D01*
X0000634083Y0002399575D01*
X0000638845Y0002401956D01*
X0000641226Y0002404337D01*
X0000643607Y0002409099D01*
X0000645987Y0002418623D01*
X0000645987Y0002430528D01*
X0000643607Y0002440052D01*
X0000641226Y0002444813D01*
X0000638845Y0002447194D01*
X0000634083Y0002449575D01*
X0001318607Y0002342135D02*
X0001318607Y0002318325D01*
X0001335273Y0002368325D02*
X0001318607Y0002342135D01*
X0001301940Y0002368325D01*
X0001249559Y0002370706D02*
X0001292416Y0002306421D01*
X0001237654Y0002368325D02*
X0001204321Y0002368325D01*
X0001237654Y0002318325D01*
X0001204321Y0002318325D01*
X0001185273Y0002337373D02*
X0001147178Y0002337373D01*
X0001125749Y0002332611D02*
X0001101940Y0002332611D01*
X0001130511Y0002318325D02*
X0001113845Y0002368325D01*
X0001097178Y0002318325D01*
X0001085273Y0002318325D02*
X0001059083Y0002351659D01*
X0001085273Y0002351659D02*
X0001059083Y0002318325D01*
X0001040035Y0002318325D02*
X0001040035Y0002351659D01*
X0001040035Y0002368325D02*
X0001042416Y0002365944D01*
X0001040035Y0002363563D01*
X0001037654Y0002365944D01*
X0001040035Y0002368325D01*
X0001040035Y0002363563D01*
X0001018607Y0002320706D02*
X0001013845Y0002318325D01*
X0001004321Y0002318325D01*
X0000999559Y0002320706D01*
X0000997178Y0002325468D01*
X0000997178Y0002327849D01*
X0000999559Y0002332611D01*
X0001004321Y0002334992D01*
X0001011464Y0002334992D01*
X0001016226Y0002337373D01*
X0001018607Y0002342135D01*
X0001018607Y0002344516D01*
X0001016226Y0002349278D01*
X0001011464Y0002351659D01*
X0001004321Y0002351659D01*
X0000999559Y0002349278D01*
X0000920987Y0002344516D02*
X0000913845Y0002342135D01*
X0000911464Y0002339754D01*
X0000909083Y0002334992D01*
X0000909083Y0002327849D01*
X0000911464Y0002323087D01*
X0000913845Y0002320706D01*
X0000918607Y0002318325D01*
X0000937654Y0002318325D01*
X0000937654Y0002368325D01*
X0000920987Y0002368325D01*
X0000916226Y0002365944D01*
X0000913845Y0002363563D01*
X0000911464Y0002358802D01*
X0000911464Y0002354040D01*
X0000913845Y0002349278D01*
X0000916226Y0002346897D01*
X0000920987Y0002344516D01*
X0000937654Y0002344516D01*
X0000887654Y0002318325D02*
X0000887654Y0002351659D01*
X0000887654Y0002342135D02*
X0000885273Y0002346897D01*
X0000882892Y0002349278D01*
X0000878130Y0002351659D01*
X0000873368Y0002351659D01*
X0000837654Y0002320706D02*
X0000842416Y0002318325D01*
X0000851940Y0002318325D01*
X0000856702Y0002320706D01*
X0000859083Y0002325468D01*
X0000859083Y0002344516D01*
X0000856702Y0002349278D01*
X0000851940Y0002351659D01*
X0000842416Y0002351659D01*
X0000837654Y0002349278D01*
X0000835273Y0002344516D01*
X0000835273Y0002339754D01*
X0000859083Y0002334992D01*
X0000792416Y0002318325D02*
X0000792416Y0002344516D01*
X0000794797Y0002349278D01*
X0000799559Y0002351659D01*
X0000809083Y0002351659D01*
X0000813845Y0002349278D01*
X0000792416Y0002320706D02*
X0000797178Y0002318325D01*
X0000809083Y0002318325D01*
X0000813845Y0002320706D01*
X0000816226Y0002325468D01*
X0000816226Y0002330230D01*
X0000813845Y0002334992D01*
X0000809083Y0002337373D01*
X0000797178Y0002337373D01*
X0000792416Y0002339754D01*
X0000768607Y0002318325D02*
X0000768607Y0002368325D01*
X0000763845Y0002337373D02*
X0000749559Y0002318325D01*
X0000749559Y0002351659D02*
X0000768607Y0002332611D01*
X0000720987Y0002318325D02*
X0000725749Y0002320706D01*
X0000728130Y0002323087D01*
X0000730511Y0002327849D01*
X0000730511Y0002342135D01*
X0000728130Y0002346897D01*
X0000725749Y0002349278D01*
X0000720987Y0002351659D01*
X0000713845Y0002351659D01*
X0000709083Y0002349278D01*
X0000706702Y0002346897D01*
X0000704321Y0002342135D01*
X0000704321Y0002327849D01*
X0000706702Y0002323087D01*
X0000709083Y0002320706D01*
X0000713845Y0002318325D01*
X0000720987Y0002318325D01*
X0000661464Y0002351659D02*
X0000661464Y0002318325D01*
X0000682892Y0002351659D02*
X0000682892Y0002325468D01*
X0000680511Y0002320706D01*
X0000675749Y0002318325D01*
X0000668607Y0002318325D01*
X0000663845Y0002320706D01*
X0000661464Y0002323087D01*
X0000644797Y0002351659D02*
X0000625749Y0002351659D01*
X0000637654Y0002368325D02*
X0000637654Y0002325468D01*
X0000635273Y0002320706D01*
X0000630511Y0002318325D01*
X0000625749Y0002318325D01*
%LPC*%
D73*
X0001305511Y0002090944D03*
D74*
G36*
X0001337473Y0002224784D02*
G01*
X0001338486Y0002224634D01*
X0001339479Y0002224385D01*
X0001340442Y0002224040D01*
X0001341368Y0002223602D01*
X0001342246Y0002223076D01*
X0001343068Y0002222466D01*
X0001343826Y0002221779D01*
X0001344514Y0002221021D01*
X0001345123Y0002220198D01*
X0001345650Y0002219320D01*
X0001346087Y0002218395D01*
X0001346432Y0002217431D01*
X0001346681Y0002216438D01*
X0001346831Y0002215426D01*
X0001346881Y0002214403D01*
X0001346881Y0002164336D01*
X0001346831Y0002163313D01*
X0001346681Y0002162301D01*
X0001346432Y0002161308D01*
X0001346087Y0002160344D01*
X0001345650Y0002159419D01*
X0001345123Y0002158541D01*
X0001344514Y0002157719D01*
X0001343826Y0002156960D01*
X0001343068Y0002156273D01*
X0001342246Y0002155663D01*
X0001341368Y0002155137D01*
X0001340442Y0002154699D01*
X0001339479Y0002154354D01*
X0001338486Y0002154105D01*
X0001337473Y0002153955D01*
X0001336451Y0002153905D01*
X0001274572Y0002153905D01*
X0001273550Y0002153955D01*
X0001272537Y0002154105D01*
X0001271544Y0002154354D01*
X0001270580Y0002154699D01*
X0001269655Y0002155137D01*
X0001268777Y0002155663D01*
X0001267955Y0002156273D01*
X0001267196Y0002156960D01*
X0001266509Y0002157719D01*
X0001265899Y0002158541D01*
X0001265373Y0002159419D01*
X0001264935Y0002160344D01*
X0001264590Y0002161308D01*
X0001264342Y0002162301D01*
X0001264191Y0002163313D01*
X0001264141Y0002164336D01*
X0001264141Y0002214403D01*
X0001264191Y0002215426D01*
X0001264342Y0002216438D01*
X0001264590Y0002217431D01*
X0001264935Y0002218395D01*
X0001265373Y0002219320D01*
X0001265899Y0002220198D01*
X0001266509Y0002221021D01*
X0001267196Y0002221779D01*
X0001267955Y0002222466D01*
X0001268777Y0002223076D01*
X0001269655Y0002223602D01*
X0001270580Y0002224040D01*
X0001271544Y0002224385D01*
X0001272537Y0002224634D01*
X0001273550Y0002224784D01*
X0001274572Y0002224834D01*
X0001336451Y0002224834D01*
X0001337473Y0002224784D01*
X0001337473Y0002224784D01*
G37*
D75*
X0001305511Y0002189370D03*
D76*
X0001305511Y0002495669D03*
X0001305511Y0002594094D03*
X0001305511Y0002692519D03*
D74*
G36*
X0001336489Y0002826359D02*
G01*
X0001337501Y0002826209D01*
X0001338494Y0002825960D01*
X0001339458Y0002825615D01*
X0001340383Y0002825177D01*
X0001341261Y0002824651D01*
X0001342084Y0002824041D01*
X0001342842Y0002823354D01*
X0001343529Y0002822595D01*
X0001344139Y0002821773D01*
X0001344665Y0002820895D01*
X0001345103Y0002819970D01*
X0001345448Y0002819006D01*
X0001345697Y0002818013D01*
X0001345847Y0002817001D01*
X0001345897Y0002815978D01*
X0001345897Y0002765911D01*
X0001345847Y0002764888D01*
X0001345697Y0002763876D01*
X0001345448Y0002762883D01*
X0001345103Y0002761919D01*
X0001344665Y0002760994D01*
X0001344139Y0002760116D01*
X0001343529Y0002759293D01*
X0001342842Y0002758535D01*
X0001342084Y0002757847D01*
X0001341261Y0002757238D01*
X0001340383Y0002756711D01*
X0001339458Y0002756274D01*
X0001338494Y0002755929D01*
X0001337501Y0002755680D01*
X0001336489Y0002755530D01*
X0001335466Y0002755480D01*
X0001275556Y0002755480D01*
X0001274534Y0002755530D01*
X0001273521Y0002755680D01*
X0001272528Y0002755929D01*
X0001271565Y0002756274D01*
X0001270639Y0002756711D01*
X0001269761Y0002757238D01*
X0001268939Y0002757847D01*
X0001268181Y0002758535D01*
X0001267493Y0002759293D01*
X0001266883Y0002760116D01*
X0001266357Y0002760994D01*
X0001265919Y0002761919D01*
X0001265575Y0002762883D01*
X0001265326Y0002763876D01*
X0001265176Y0002764888D01*
X0001265125Y0002765911D01*
X0001265125Y0002815978D01*
X0001265176Y0002817001D01*
X0001265326Y0002818013D01*
X0001265575Y0002819006D01*
X0001265919Y0002819970D01*
X0001266357Y0002820895D01*
X0001266883Y0002821773D01*
X0001267493Y0002822595D01*
X0001268181Y0002823354D01*
X0001268939Y0002824041D01*
X0001269761Y0002824651D01*
X0001270639Y0002825177D01*
X0001271565Y0002825615D01*
X0001272528Y0002825960D01*
X0001273521Y0002826209D01*
X0001274534Y0002826359D01*
X0001275556Y0002826409D01*
X0001335466Y0002826409D01*
X0001336489Y0002826359D01*
X0001336489Y0002826359D01*
G37*
D75*
X0001305511Y0002790944D03*
D77*
X0000505511Y0002340944D03*
X0000405511Y0002340944D03*
X0000505511Y0002440944D03*
X0000405511Y0002440944D03*
X0000505511Y0002540944D03*
D78*
X0000405511Y0002540944D03*
D79*
X0000905511Y0002834645D03*
X0000905511Y0002047244D03*
M02*