%MOIN*%
%OFA0B0*%
%FSLAX44Y44*%
%IPPOS*%
%LPD*%
%ADD10C,0*%
D10*
X00010152Y00032086D02*
X00010152Y00032086D01*
X00018863Y00032086D01*
X00018892Y00032085D01*
X00018921Y00032082D01*
X00018950Y00032076D01*
X00018978Y00032069D01*
X00019006Y00032059D01*
X00019033Y00032047D01*
X00019059Y00032034D01*
X00019084Y00032018D01*
X00019107Y00032001D01*
X00019130Y00031982D01*
X00019150Y00031961D01*
X00019170Y00031939D01*
X00019187Y00031915D01*
X00019203Y00031890D01*
X00019217Y00031864D01*
X00019229Y00031838D01*
X00019238Y00031810D01*
X00019246Y00031782D01*
X00019252Y00031753D01*
X00019255Y00031724D01*
X00019273Y00031501D01*
X00019274Y00031476D01*
X00019273Y00031450D01*
X00019271Y00031425D01*
X00019268Y00031401D01*
X00019263Y00031376D01*
X00019256Y00031352D01*
X00019248Y00031328D01*
X00019238Y00031305D01*
X00019227Y00031283D01*
X00019214Y00031261D01*
X00019200Y00031240D01*
X00019185Y00031220D01*
X00019168Y00031201D01*
X00019151Y00031183D01*
X00019132Y00031167D01*
X00019112Y00031151D01*
X00019091Y00031137D01*
X00019070Y00031124D01*
X00019047Y00031113D01*
X00019024Y00031103D01*
X00018920Y00031062D01*
X00018769Y00030993D01*
X00018622Y00030914D01*
X00018479Y00030828D01*
X00018342Y00030734D01*
X00018210Y00030633D01*
X00018084Y00030524D01*
X00017965Y00030408D01*
X00017852Y00030285D01*
X00017746Y00030157D01*
X00017648Y00030022D01*
X00017557Y00029883D01*
X00017474Y00029738D01*
X00017400Y00029589D01*
X00017358Y00029510D01*
X00017307Y00029437D01*
X00017248Y00029370D01*
X00017182Y00029309D01*
X00017109Y00029257D01*
X00017031Y00029213D01*
X00016949Y00029179D01*
X00016863Y00029154D01*
X00016775Y00029138D01*
X00016686Y00029133D01*
X00015059Y00029133D01*
X00015043Y00029132D01*
X00015028Y00029129D01*
X00015014Y00029123D01*
X00015001Y00029115D01*
X00014989Y00029105D01*
X00014979Y00029093D01*
X00014971Y00029080D01*
X00014965Y00029065D01*
X00014961Y00029050D01*
X00014960Y00029035D01*
X00014960Y00025960D01*
X00014960Y00025912D01*
X00014955Y00025850D01*
X00014941Y00025790D01*
X00014917Y00025733D01*
X00014885Y00025680D01*
X00014845Y00025633D01*
X00014798Y00025593D01*
X00014745Y00025561D01*
X00014688Y00025537D01*
X00014628Y00025523D01*
X00014566Y00025518D01*
X00014505Y00025523D01*
X00014445Y00025537D01*
X00014388Y00025561D01*
X00014335Y00025593D01*
X00014288Y00025633D01*
X00014248Y00025680D01*
X00014216Y00025733D01*
X00014192Y00025790D01*
X00014178Y00025850D01*
X00014173Y00025912D01*
X00014173Y00029035D01*
X00014172Y00029050D01*
X00014168Y00029065D01*
X00014162Y00029080D01*
X00014154Y00029093D01*
X00014144Y00029105D01*
X00014132Y00029115D01*
X00014119Y00029123D01*
X00014105Y00029129D01*
X00014090Y00029132D01*
X00014074Y00029133D01*
X00012447Y00029133D01*
X00012358Y00029138D01*
X00012270Y00029154D01*
X00012184Y00029179D01*
X00012101Y00029213D01*
X00012023Y00029257D01*
X00011951Y00029309D01*
X00011885Y00029370D01*
X00011826Y00029437D01*
X00011775Y00029510D01*
X00011733Y00029589D01*
X00011659Y00029738D01*
X00011576Y00029883D01*
X00011485Y00030022D01*
X00011387Y00030157D01*
X00011281Y00030285D01*
X00011168Y00030408D01*
X00011049Y00030524D01*
X00010923Y00030633D01*
X00010791Y00030734D01*
X00010654Y00030828D01*
X00010511Y00030914D01*
X00010364Y00030993D01*
X00010213Y00031062D01*
X00010081Y00031114D01*
X00010081Y00031114D01*
X00010065Y00031121D01*
X00010050Y00031128D01*
X00010035Y00031136D01*
X00010020Y00031144D01*
X00010006Y00031153D01*
X00009992Y00031163D01*
X00009978Y00031174D01*
X00009965Y00031184D01*
X00009953Y00031196D01*
X00009941Y00031208D01*
X00009929Y00031221D01*
X00009918Y00031234D01*
X00009908Y00031247D01*
X00009898Y00031261D01*
X00009889Y00031275D01*
X00009880Y00031290D01*
X00009873Y00031305D01*
X00009865Y00031320D01*
X00009859Y00031336D01*
X00009853Y00031352D01*
X00009780Y00031564D01*
X00009769Y00031600D01*
X00009762Y00031637D01*
X00009759Y00031674D01*
X00009759Y00031711D01*
X00009762Y00031749D01*
X00009769Y00031786D01*
X00009780Y00031821D01*
X00009794Y00031856D01*
X00009811Y00031889D01*
X00009831Y00031921D01*
X00009854Y00031950D01*
X00009880Y00031977D01*
X00009909Y00032002D01*
X00009939Y00032024D01*
X00009972Y00032042D01*
X00010006Y00032058D01*
X00010041Y00032070D01*
X00010077Y00032079D01*
X00010114Y00032084D01*
X00010152Y00032086D01*
X00027362Y00023107D02*
X00027362Y00023107D01*
X00027362Y00012440D01*
X00027360Y00012409D01*
X00027357Y00012378D01*
X00027351Y00012347D01*
X00027342Y00012317D01*
X00027331Y00012288D01*
X00027318Y00012259D01*
X00027303Y00012232D01*
X00027285Y00012206D01*
X00027266Y00012182D01*
X00027244Y00012159D01*
X00027221Y00012138D01*
X00027197Y00012119D01*
X00027171Y00012102D01*
X00027143Y00012087D01*
X00027115Y00012074D01*
X00027085Y00012064D01*
X00027055Y00012056D01*
X00027024Y00012050D01*
X00026993Y00012047D01*
X00026962Y00012046D01*
X00026578Y00012052D01*
X00026548Y00012053D01*
X00026517Y00012057D01*
X00026487Y00012064D01*
X00026458Y00012072D01*
X00026429Y00012083D01*
X00026402Y00012096D01*
X00026375Y00012112D01*
X00026350Y00012129D01*
X00026326Y00012148D01*
X00026304Y00012169D01*
X00026283Y00012192D01*
X00026264Y00012216D01*
X00026247Y00012241D01*
X00026233Y00012268D01*
X00026220Y00012296D01*
X00026209Y00012325D01*
X00026201Y00012354D01*
X00026195Y00012384D01*
X00026192Y00012415D01*
X00026190Y00012445D01*
X00026190Y00015342D01*
X00026178Y00015498D01*
X00026141Y00015651D01*
X00026081Y00015796D01*
X00025999Y00015930D01*
X00025898Y00016049D01*
X00025778Y00016151D01*
X00025644Y00016233D01*
X00025499Y00016293D01*
X00025347Y00016330D01*
X00025190Y00016342D01*
X00021563Y00016342D01*
X00021534Y00016343D01*
X00021505Y00016346D01*
X00021476Y00016352D01*
X00021448Y00016359D01*
X00021421Y00016369D01*
X00021394Y00016380D01*
X00021368Y00016394D01*
X00021343Y00016409D01*
X00021320Y00016426D01*
X00021298Y00016445D01*
X00021277Y00016466D01*
X00021258Y00016488D01*
X00021240Y00016511D01*
X00021224Y00016535D01*
X00021210Y00016561D01*
X00021198Y00016588D01*
X00021189Y00016615D01*
X00021181Y00016643D01*
X00021175Y00016672D01*
X00021171Y00016701D01*
X00021108Y00017407D01*
X00021106Y00017432D01*
X00021106Y00017456D01*
X00021108Y00017481D01*
X00021111Y00017505D01*
X00021116Y00017529D01*
X00021122Y00017553D01*
X00021130Y00017576D01*
X00021139Y00017599D01*
X00021149Y00017621D01*
X00021161Y00017643D01*
X00021174Y00017664D01*
X00021188Y00017683D01*
X00021204Y00017702D01*
X00021221Y00017720D01*
X00021238Y00017737D01*
X00021257Y00017753D01*
X00021277Y00017767D01*
X00021298Y00017781D01*
X00021319Y00017792D01*
X00021341Y00017803D01*
X00021344Y00017804D01*
X00021492Y00017880D01*
X00021636Y00017963D01*
X00021775Y00018055D01*
X00021908Y00018155D01*
X00022036Y00018262D01*
X00022157Y00018375D01*
X00022272Y00018496D01*
X00022380Y00018623D01*
X00022481Y00018755D01*
X00022574Y00018894D01*
X00022659Y00019037D01*
X00022736Y00019185D01*
X00022804Y00019336D01*
X00022864Y00019492D01*
X00022914Y00019650D01*
X00022956Y00019811D01*
X00022989Y00019975D01*
X00023012Y00020140D01*
X00023026Y00020306D01*
X00023031Y00020472D01*
X00023031Y00020472D01*
X00023041Y00020595D01*
X00023070Y00020715D01*
X00023117Y00020829D01*
X00023181Y00020935D01*
X00023262Y00021029D01*
X00023356Y00021109D01*
X00023461Y00021174D01*
X00023575Y00021221D01*
X00023695Y00021250D01*
X00023818Y00021259D01*
X00026279Y00021259D01*
X00026294Y00021261D01*
X00026309Y00021264D01*
X00026324Y00021270D01*
X00026337Y00021278D01*
X00026349Y00021288D01*
X00026359Y00021300D01*
X00026367Y00021313D01*
X00026373Y00021327D01*
X00026376Y00021342D01*
X00026377Y00021358D01*
X00026377Y00023134D01*
X00026379Y00023167D01*
X00026383Y00023201D01*
X00026390Y00023233D01*
X00026400Y00023266D01*
X00026413Y00023297D01*
X00026428Y00023327D01*
X00026446Y00023355D01*
X00026466Y00023382D01*
X00026488Y00023407D01*
X00026512Y00023430D01*
X00026539Y00023451D01*
X00026566Y00023470D01*
X00026596Y00023486D01*
X00026627Y00023500D01*
X00026658Y00023511D01*
X00026691Y00023519D01*
X00026724Y00023525D01*
X00026757Y00023527D01*
X00026791Y00023527D01*
X00026824Y00023524D01*
X00027021Y00023497D01*
X00027049Y00023492D01*
X00027077Y00023485D01*
X00027103Y00023477D01*
X00027130Y00023466D01*
X00027155Y00023453D01*
X00027179Y00023439D01*
X00027203Y00023423D01*
X00027225Y00023405D01*
X00027245Y00023386D01*
X00027265Y00023366D01*
X00027282Y00023344D01*
X00027299Y00023321D01*
X00027313Y00023296D01*
X00027326Y00023271D01*
X00027337Y00023245D01*
X00027346Y00023218D01*
X00027353Y00023191D01*
X00027358Y00023163D01*
X00027361Y00023135D01*
X00027362Y00023107D01*
X00038385Y00006692D02*
X00038385Y00006692D01*
X00038447Y00006697D01*
X00038507Y00006712D01*
X00038564Y00006735D01*
X00038617Y00006768D01*
X00038664Y00006808D01*
X00038704Y00006855D01*
X00038736Y00006907D01*
X00038760Y00006964D01*
X00038774Y00007025D01*
X00038779Y00007086D01*
X00038779Y00025984D01*
X00038774Y00026045D01*
X00038760Y00026105D01*
X00038736Y00026162D01*
X00038704Y00026215D01*
X00038664Y00026262D01*
X00038617Y00026302D01*
X00038564Y00026335D01*
X00038507Y00026358D01*
X00038447Y00026373D01*
X00038385Y00026377D01*
X00030407Y00026377D01*
X00030377Y00026379D01*
X00030346Y00026382D01*
X00030315Y00026388D01*
X00030286Y00026397D01*
X00030257Y00026407D01*
X00030229Y00026420D01*
X00030202Y00026435D01*
X00030176Y00026453D01*
X00030152Y00026472D01*
X00030129Y00026493D01*
X00030108Y00026515D01*
X00030089Y00026540D01*
X00030072Y00026565D01*
X00030057Y00026592D01*
X00030044Y00026620D01*
X00030033Y00026649D01*
X00030025Y00026679D01*
X00030019Y00026710D01*
X00030015Y00026740D01*
X00030014Y00026771D01*
X00030014Y00027559D01*
X00030015Y00027589D01*
X00030019Y00027620D01*
X00030025Y00027650D01*
X00030033Y00027680D01*
X00030044Y00027709D01*
X00030057Y00027737D01*
X00030072Y00027764D01*
X00030089Y00027790D01*
X00030108Y00027814D01*
X00030129Y00027837D01*
X00030152Y00027858D01*
X00030176Y00027877D01*
X00030202Y00027894D01*
X00030229Y00027909D01*
X00030257Y00027922D01*
X00030286Y00027933D01*
X00030315Y00027941D01*
X00030346Y00027947D01*
X00030377Y00027951D01*
X00030407Y00027952D01*
X00030708Y00027952D01*
X00030770Y00027957D01*
X00030830Y00027972D01*
X00030887Y00027995D01*
X00030940Y00028027D01*
X00030987Y00028068D01*
X00031027Y00028115D01*
X00031059Y00028167D01*
X00031083Y00028224D01*
X00031097Y00028284D01*
X00031102Y00028346D01*
X00031102Y00030511D01*
X00031112Y00030688D01*
X00031141Y00030862D01*
X00031190Y00031031D01*
X00031258Y00031195D01*
X00031343Y00031349D01*
X00031445Y00031493D01*
X00031563Y00031625D01*
X00031695Y00031743D01*
X00031839Y00031845D01*
X00031993Y00031930D01*
X00032157Y00031998D01*
X00032326Y00032047D01*
X00032500Y00032076D01*
X00032677Y00032086D01*
X00034507Y00032086D01*
X00034673Y00032091D01*
X00034838Y00032105D01*
X00035002Y00032128D01*
X00035164Y00032160D01*
X00035325Y00032202D01*
X00035483Y00032252D01*
X00035637Y00032311D01*
X00035789Y00032379D01*
X00035936Y00032455D01*
X00036078Y00032539D01*
X00036216Y00032631D01*
X00036348Y00032730D01*
X00036475Y00032837D01*
X00036595Y00032951D01*
X00036709Y00033071D01*
X00036816Y00033198D01*
X00036916Y00033330D01*
X00037008Y00033468D01*
X00037092Y00033611D01*
X00037168Y00033758D01*
X00037235Y00033909D01*
X00037294Y00034064D01*
X00037345Y00034221D01*
X00037386Y00034382D01*
X00037418Y00034544D01*
X00037442Y00034708D01*
X00037455Y00034873D01*
X00037460Y00035039D01*
X00037455Y00035204D01*
X00037442Y00035369D01*
X00037418Y00035533D01*
X00037386Y00035696D01*
X00037345Y00035856D01*
X00037294Y00036014D01*
X00037235Y00036169D01*
X00037168Y00036320D01*
X00037092Y00036467D01*
X00037008Y00036610D01*
X00036916Y00036748D01*
X00036816Y00036880D01*
X00036709Y00037006D01*
X00036595Y00037127D01*
X00036475Y00037241D01*
X00036348Y00037347D01*
X00036216Y00037447D01*
X00036078Y00037539D01*
X00035936Y00037623D01*
X00035789Y00037699D01*
X00035637Y00037767D01*
X00035483Y00037826D01*
X00035325Y00037876D01*
X00035164Y00037918D01*
X00035002Y00037950D01*
X00034838Y00037973D01*
X00034673Y00037987D01*
X00034507Y00037992D01*
X00031496Y00037992D01*
X00031434Y00037996D01*
X00031374Y00038011D01*
X00031317Y00038035D01*
X00031264Y00038067D01*
X00031217Y00038107D01*
X00031177Y00038154D01*
X00031145Y00038207D01*
X00031121Y00038264D01*
X00031107Y00038324D01*
X00031102Y00038385D01*
X00031102Y00038582D01*
X00031097Y00038644D01*
X00031083Y00038704D01*
X00031059Y00038761D01*
X00031027Y00038814D01*
X00030987Y00038861D01*
X00030940Y00038901D01*
X00030887Y00038933D01*
X00030830Y00038957D01*
X00030770Y00038971D01*
X00030708Y00038976D01*
X00027559Y00038976D01*
X00027497Y00038971D01*
X00027437Y00038957D01*
X00027380Y00038933D01*
X00027327Y00038901D01*
X00027280Y00038861D01*
X00027240Y00038814D01*
X00027208Y00038761D01*
X00027184Y00038704D01*
X00027170Y00038644D01*
X00027165Y00038582D01*
X00027165Y00038385D01*
X00027160Y00038324D01*
X00027146Y00038264D01*
X00027122Y00038207D01*
X00027090Y00038154D01*
X00027050Y00038107D01*
X00027003Y00038067D01*
X00026950Y00038035D01*
X00026893Y00038011D01*
X00026833Y00037996D01*
X00026771Y00037992D01*
X00006948Y00037992D01*
X00006783Y00037987D01*
X00006618Y00037973D01*
X00006454Y00037950D01*
X00006291Y00037918D01*
X00006131Y00037876D01*
X00005973Y00037826D01*
X00005818Y00037767D01*
X00005667Y00037699D01*
X00005520Y00037623D01*
X00005377Y00037539D01*
X00005240Y00037447D01*
X00005107Y00037347D01*
X00004981Y00037241D01*
X00004860Y00037127D01*
X00004747Y00037006D01*
X00004640Y00036880D01*
X00004540Y00036748D01*
X00004448Y00036610D01*
X00004364Y00036467D01*
X00004288Y00036320D01*
X00004220Y00036169D01*
X00004161Y00036014D01*
X00004111Y00035856D01*
X00004070Y00035696D01*
X00004037Y00035533D01*
X00004014Y00035369D01*
X00004000Y00035204D01*
X00003996Y00035039D01*
X00004000Y00034873D01*
X00004014Y00034708D01*
X00004037Y00034544D01*
X00004070Y00034382D01*
X00004111Y00034221D01*
X00004161Y00034064D01*
X00004220Y00033909D01*
X00004288Y00033758D01*
X00004364Y00033611D01*
X00004448Y00033468D01*
X00004540Y00033330D01*
X00004640Y00033198D01*
X00004747Y00033071D01*
X00004860Y00032951D01*
X00004981Y00032837D01*
X00005107Y00032730D01*
X00005240Y00032631D01*
X00005377Y00032539D01*
X00005520Y00032455D01*
X00005667Y00032379D01*
X00005818Y00032311D01*
X00005973Y00032252D01*
X00006131Y00032202D01*
X00006291Y00032160D01*
X00006454Y00032128D01*
X00006618Y00032105D01*
X00006783Y00032091D01*
X00006948Y00032086D01*
X00007935Y00032086D01*
X00007971Y00032084D01*
X00008007Y00032079D01*
X00008043Y00032071D01*
X00008077Y00032059D01*
X00008111Y00032045D01*
X00008143Y00032027D01*
X00008173Y00032006D01*
X00008201Y00031983D01*
X00008226Y00031957D01*
X00008250Y00031929D01*
X00008270Y00031899D01*
X00008288Y00031867D01*
X00008302Y00031833D01*
X00008314Y00031799D01*
X00008322Y00031763D01*
X00008327Y00031727D01*
X00008329Y00031691D01*
X00008327Y00031654D01*
X00008321Y00031618D01*
X00008313Y00031583D01*
X00008250Y00031366D01*
X00008245Y00031348D01*
X00008238Y00031331D01*
X00008231Y00031314D01*
X00008223Y00031298D01*
X00008215Y00031281D01*
X00008205Y00031266D01*
X00008195Y00031250D01*
X00008184Y00031236D01*
X00008173Y00031221D01*
X00008161Y00031208D01*
X00008148Y00031194D01*
X00008135Y00031182D01*
X00008121Y00031170D01*
X00008106Y00031159D01*
X00008091Y00031148D01*
X00008076Y00031138D01*
X00008060Y00031129D01*
X00008044Y00031121D01*
X00008027Y00031113D01*
X00008010Y00031106D01*
X00007942Y00031081D01*
X00007789Y00031014D01*
X00007641Y00030938D01*
X00007497Y00030854D01*
X00007358Y00030763D01*
X00007225Y00030663D01*
X00007097Y00030556D01*
X00006975Y00030442D01*
X00006860Y00030322D01*
X00006753Y00030195D01*
X00006652Y00030062D01*
X00006559Y00029924D01*
X00006474Y00029781D01*
X00006397Y00029633D01*
X00006329Y00029482D01*
X00006269Y00029326D01*
X00006218Y00029168D01*
X00006177Y00029006D01*
X00006144Y00028843D01*
X00006121Y00028678D01*
X00006107Y00028512D01*
X00006102Y00028346D01*
X00006102Y00028346D01*
X00006092Y00028223D01*
X00006063Y00028103D01*
X00006016Y00027988D01*
X00005951Y00027883D01*
X00005871Y00027789D01*
X00005777Y00027709D01*
X00005672Y00027644D01*
X00005558Y00027597D01*
X00005438Y00027568D01*
X00005314Y00027559D01*
X00002854Y00027559D01*
X00002838Y00027557D01*
X00002823Y00027554D01*
X00002809Y00027548D01*
X00002796Y00027540D01*
X00002784Y00027530D01*
X00002774Y00027518D01*
X00002766Y00027505D01*
X00002760Y00027491D01*
X00002757Y00027476D01*
X00002755Y00027460D01*
X00002755Y00021358D01*
X00002757Y00021342D01*
X00002760Y00021327D01*
X00002766Y00021313D01*
X00002774Y00021300D01*
X00002784Y00021288D01*
X00002796Y00021278D01*
X00002809Y00021270D01*
X00002823Y00021264D01*
X00002838Y00021261D01*
X00002854Y00021259D01*
X00005314Y00021259D01*
X00005438Y00021250D01*
X00005558Y00021221D01*
X00005672Y00021174D01*
X00005777Y00021109D01*
X00005871Y00021029D01*
X00005951Y00020935D01*
X00006016Y00020829D01*
X00006063Y00020715D01*
X00006092Y00020595D01*
X00006102Y00020472D01*
X00006107Y00020306D01*
X00006121Y00020140D01*
X00006144Y00019975D01*
X00006177Y00019811D01*
X00006218Y00019650D01*
X00006269Y00019492D01*
X00006329Y00019336D01*
X00006397Y00019185D01*
X00006474Y00019037D01*
X00006559Y00018894D01*
X00006652Y00018755D01*
X00006753Y00018623D01*
X00006860Y00018496D01*
X00006975Y00018375D01*
X00007097Y00018262D01*
X00007225Y00018155D01*
X00007330Y00018076D01*
X00007347Y00018063D01*
X00007363Y00018048D01*
X00007379Y00018033D01*
X00007393Y00018017D01*
X00007407Y00018001D01*
X00007420Y00017983D01*
X00007431Y00017965D01*
X00007442Y00017947D01*
X00007452Y00017927D01*
X00007460Y00017908D01*
X00007468Y00017887D01*
X00007474Y00017867D01*
X00007479Y00017846D01*
X00007483Y00017825D01*
X00007486Y00017804D01*
X00007488Y00017782D01*
X00007489Y00017761D01*
X00007488Y00017739D01*
X00007487Y00017718D01*
X00007484Y00017696D01*
X00007291Y00016523D01*
X00007287Y00016502D01*
X00007282Y00016481D01*
X00007275Y00016460D01*
X00007268Y00016439D01*
X00007259Y00016419D01*
X00007249Y00016400D01*
X00007238Y00016381D01*
X00007227Y00016363D01*
X00007214Y00016345D01*
X00007200Y00016328D01*
X00007185Y00016312D01*
X00007169Y00016297D01*
X00007153Y00016283D01*
X00007136Y00016270D01*
X00007118Y00016257D01*
X00007099Y00016246D01*
X00007080Y00016235D01*
X00007061Y00016226D01*
X00007040Y00016218D01*
X00007020Y00016211D01*
X00006916Y00016179D01*
X00006761Y00016120D01*
X00006608Y00016053D01*
X00006460Y00015978D01*
X00006316Y00015894D01*
X00006177Y00015802D01*
X00006043Y00015703D01*
X00005916Y00015596D01*
X00005794Y00015482D01*
X00005679Y00015361D01*
X00005572Y00015235D01*
X00005471Y00015102D01*
X00005378Y00014964D01*
X00005293Y00014820D01*
X00005216Y00014673D01*
X00005148Y00014521D01*
X00005088Y00014366D01*
X00005037Y00014207D01*
X00004996Y00014046D01*
X00004963Y00013883D01*
X00004940Y00013718D01*
X00004925Y00013552D01*
X00004921Y00013385D01*
X00004911Y00013262D01*
X00004882Y00013142D01*
X00004835Y00013028D01*
X00004770Y00012922D01*
X00004690Y00012829D01*
X00004596Y00012748D01*
X00004491Y00012684D01*
X00004377Y00012636D01*
X00004257Y00012608D01*
X00004133Y00012598D01*
X00001673Y00012598D01*
X00001657Y00012597D01*
X00001642Y00012593D01*
X00001628Y00012587D01*
X00001615Y00012579D01*
X00001603Y00012569D01*
X00001593Y00012557D01*
X00001585Y00012544D01*
X00001579Y00012530D01*
X00001576Y00012515D01*
X00001574Y00012499D01*
X00001574Y00006397D01*
X00001576Y00006382D01*
X00001579Y00006367D01*
X00001585Y00006352D01*
X00001593Y00006339D01*
X00001603Y00006328D01*
X00001615Y00006318D01*
X00001628Y00006309D01*
X00001642Y00006304D01*
X00001657Y00006300D01*
X00001673Y00006299D01*
X00004133Y00006299D01*
X00004257Y00006289D01*
X00004377Y00006260D01*
X00004491Y00006213D01*
X00004596Y00006148D01*
X00004690Y00006068D01*
X00004770Y00005974D01*
X00004835Y00005869D01*
X00004882Y00005755D01*
X00004911Y00005634D01*
X00004921Y00005511D01*
X00004925Y00005345D01*
X00004940Y00005179D01*
X00004963Y00005014D01*
X00004996Y00004851D01*
X00005037Y00004690D01*
X00005088Y00004531D01*
X00005148Y00004376D01*
X00005216Y00004224D01*
X00005293Y00004076D01*
X00005378Y00003933D01*
X00005471Y00003795D01*
X00005572Y00003662D01*
X00005679Y00003535D01*
X00005794Y00003415D01*
X00005916Y00003301D01*
X00006043Y00003194D01*
X00006177Y00003095D01*
X00006316Y00003003D01*
X00006460Y00002919D01*
X00006608Y00002843D01*
X00006761Y00002776D01*
X00006916Y00002718D01*
X00007075Y00002668D01*
X00007237Y00002628D01*
X00007400Y00002597D01*
X00007566Y00002575D01*
X00007732Y00002562D01*
X00007898Y00002559D01*
X00008064Y00002565D01*
X00008230Y00002580D01*
X00008395Y00002605D01*
X00008558Y00002639D01*
X00008719Y00002682D01*
X00008877Y00002734D01*
X00009032Y00002795D01*
X00009183Y00002865D01*
X00009330Y00002943D01*
X00009473Y00003029D01*
X00009610Y00003123D01*
X00009742Y00003225D01*
X00009868Y00003334D01*
X00009987Y00003450D01*
X00010100Y00003572D01*
X00010206Y00003701D01*
X00010304Y00003835D01*
X00010395Y00003975D01*
X00010477Y00004119D01*
X00010552Y00004268D01*
X00010552Y00004268D01*
X00010594Y00004347D01*
X00010645Y00004420D01*
X00010704Y00004488D01*
X00010770Y00004548D01*
X00010842Y00004600D01*
X00010920Y00004644D01*
X00011003Y00004679D01*
X00011089Y00004704D01*
X00011177Y00004719D01*
X00011266Y00004724D01*
X00012893Y00004724D01*
X00012909Y00004725D01*
X00012924Y00004729D01*
X00012938Y00004735D01*
X00012951Y00004743D01*
X00012963Y00004753D01*
X00012973Y00004764D01*
X00012981Y00004778D01*
X00012987Y00004792D01*
X00012990Y00004807D01*
X00012992Y00004822D01*
X00012992Y00007874D01*
X00013001Y00007997D01*
X00013030Y00008117D01*
X00013077Y00008231D01*
X00013142Y00008336D01*
X00013222Y00008430D01*
X00013316Y00008511D01*
X00013422Y00008575D01*
X00013536Y00008622D01*
X00013656Y00008651D01*
X00013779Y00008661D01*
X00017224Y00008661D01*
X00017239Y00008662D01*
X00017254Y00008666D01*
X00017269Y00008672D01*
X00017282Y00008680D01*
X00017294Y00008690D01*
X00017304Y00008701D01*
X00017312Y00008715D01*
X00017318Y00008729D01*
X00017321Y00008744D01*
X00017322Y00008759D01*
X00017322Y00010457D01*
X00017324Y00010489D01*
X00017327Y00010520D01*
X00017333Y00010550D01*
X00017342Y00010580D01*
X00017353Y00010609D01*
X00017366Y00010637D01*
X00017381Y00010665D01*
X00017399Y00010690D01*
X00017418Y00010715D01*
X00017439Y00010738D01*
X00017462Y00010759D01*
X00017487Y00010778D01*
X00017513Y00010795D01*
X00017540Y00010810D01*
X00017569Y00010823D01*
X00017598Y00010833D01*
X00017628Y00010841D01*
X00017659Y00010847D01*
X00017690Y00010850D01*
X00017721Y00010851D01*
X00018301Y00010844D01*
X00018332Y00010843D01*
X00018363Y00010839D01*
X00018393Y00010832D01*
X00018422Y00010824D01*
X00018451Y00010813D01*
X00018478Y00010800D01*
X00018505Y00010785D01*
X00018530Y00010767D01*
X00018554Y00010748D01*
X00018577Y00010727D01*
X00018597Y00010705D01*
X00018616Y00010680D01*
X00018633Y00010655D01*
X00018648Y00010628D01*
X00018661Y00010600D01*
X00018671Y00010571D01*
X00018680Y00010542D01*
X00018686Y00010512D01*
X00018689Y00010481D01*
X00018690Y00010451D01*
X00018690Y00007092D01*
X00018703Y00006936D01*
X00018739Y00006783D01*
X00018799Y00006638D01*
X00018881Y00006504D01*
X00018983Y00006385D01*
X00019103Y00006283D01*
X00019236Y00006201D01*
X00019381Y00006141D01*
X00019534Y00006104D01*
X00019690Y00006092D01*
X00021412Y00006092D01*
X00021443Y00006091D01*
X00021474Y00006087D01*
X00021504Y00006081D01*
X00021534Y00006073D01*
X00021563Y00006062D01*
X00021592Y00006049D01*
X00021619Y00006033D01*
X00021645Y00006016D01*
X00021669Y00005997D01*
X00021692Y00005975D01*
X00021713Y00005953D01*
X00021732Y00005928D01*
X00021749Y00005902D01*
X00021764Y00005875D01*
X00021777Y00005847D01*
X00021787Y00005817D01*
X00021795Y00005787D01*
X00021801Y00005757D01*
X00021805Y00005726D01*
X00021806Y00005695D01*
X00021802Y00005327D01*
X00021801Y00005296D01*
X00021797Y00005265D01*
X00021791Y00005235D01*
X00021782Y00005206D01*
X00021771Y00005177D01*
X00021758Y00005149D01*
X00021743Y00005123D01*
X00021726Y00005097D01*
X00021707Y00005073D01*
X00021686Y00005051D01*
X00021663Y00005030D01*
X00021639Y00005011D01*
X00021613Y00004994D01*
X00021586Y00004979D01*
X00021558Y00004966D01*
X00021530Y00004956D01*
X00021500Y00004947D01*
X00021470Y00004941D01*
X00021439Y00004938D01*
X00021409Y00004937D01*
X00018440Y00004937D01*
X00018440Y00002937D01*
X00026440Y00002937D01*
X00026440Y00004937D01*
X00023472Y00004937D01*
X00023442Y00004938D01*
X00023411Y00004941D01*
X00023381Y00004947D01*
X00023351Y00004956D01*
X00023322Y00004966D01*
X00023294Y00004979D01*
X00023268Y00004994D01*
X00023242Y00005011D01*
X00023218Y00005030D01*
X00023195Y00005051D01*
X00023174Y00005073D01*
X00023155Y00005097D01*
X00023138Y00005123D01*
X00023123Y00005149D01*
X00023110Y00005177D01*
X00023099Y00005206D01*
X00023090Y00005235D01*
X00023084Y00005265D01*
X00023080Y00005296D01*
X00023079Y00005327D01*
X00023075Y00005695D01*
X00023076Y00005726D01*
X00023080Y00005757D01*
X00023085Y00005787D01*
X00023094Y00005817D01*
X00023104Y00005847D01*
X00023117Y00005875D01*
X00023132Y00005902D01*
X00023149Y00005928D01*
X00023168Y00005953D01*
X00023189Y00005975D01*
X00023212Y00005997D01*
X00023236Y00006016D01*
X00023262Y00006033D01*
X00023289Y00006049D01*
X00023317Y00006062D01*
X00023347Y00006073D01*
X00023377Y00006081D01*
X00023407Y00006087D01*
X00023438Y00006091D01*
X00023469Y00006092D01*
X00025190Y00006092D01*
X00025347Y00006104D01*
X00025499Y00006141D01*
X00025644Y00006201D01*
X00025778Y00006283D01*
X00025898Y00006385D01*
X00025999Y00006504D01*
X00026081Y00006638D01*
X00026141Y00006783D01*
X00026178Y00006936D01*
X00026190Y00007092D01*
X00026190Y00010388D01*
X00026192Y00010419D01*
X00026195Y00010449D01*
X00026201Y00010479D01*
X00026209Y00010509D01*
X00026220Y00010538D01*
X00026233Y00010566D01*
X00026247Y00010592D01*
X00026264Y00010618D01*
X00026283Y00010642D01*
X00026304Y00010665D01*
X00026326Y00010686D01*
X00026350Y00010705D01*
X00026375Y00010722D01*
X00026402Y00010737D01*
X00026429Y00010750D01*
X00026458Y00010761D01*
X00026487Y00010770D01*
X00026517Y00010776D01*
X00026548Y00010780D01*
X00026578Y00010782D01*
X00026962Y00010788D01*
X00026993Y00010787D01*
X00027024Y00010784D01*
X00027055Y00010778D01*
X00027085Y00010770D01*
X00027115Y00010759D01*
X00027143Y00010747D01*
X00027171Y00010732D01*
X00027197Y00010714D01*
X00027221Y00010695D01*
X00027244Y00010674D01*
X00027266Y00010652D01*
X00027285Y00010627D01*
X00027303Y00010601D01*
X00027318Y00010574D01*
X00027331Y00010546D01*
X00027342Y00010517D01*
X00027351Y00010487D01*
X00027357Y00010456D01*
X00027360Y00010425D01*
X00027362Y00010394D01*
X00027362Y00007086D01*
X00027367Y00007025D01*
X00027381Y00006964D01*
X00027405Y00006907D01*
X00027437Y00006855D01*
X00027477Y00006808D01*
X00027524Y00006768D01*
X00027577Y00006735D01*
X00027634Y00006712D01*
X00027694Y00006697D01*
X00027755Y00006692D01*
X00030222Y00006692D01*
X00030253Y00006691D01*
X00030285Y00006687D01*
X00030315Y00006681D01*
X00030346Y00006672D01*
X00030375Y00006661D01*
X00030404Y00006648D01*
X00030431Y00006632D01*
X00030457Y00006614D01*
X00030482Y00006594D01*
X00030505Y00006572D01*
X00030526Y00006548D01*
X00030545Y00006523D01*
X00030562Y00006497D01*
X00030577Y00006469D01*
X00030589Y00006440D01*
X00030599Y00006410D01*
X00030607Y00006379D01*
X00030612Y00006348D01*
X00030615Y00006316D01*
X00030615Y00006285D01*
X00030588Y00005529D01*
X00030586Y00005499D01*
X00030581Y00005469D01*
X00030574Y00005439D01*
X00030565Y00005410D01*
X00030554Y00005382D01*
X00030541Y00005355D01*
X00030525Y00005329D01*
X00030508Y00005305D01*
X00030489Y00005281D01*
X00030468Y00005259D01*
X00030445Y00005239D01*
X00030421Y00005221D01*
X00030396Y00005205D01*
X00030369Y00005190D01*
X00030342Y00005178D01*
X00030313Y00005168D01*
X00030284Y00005159D01*
X00030255Y00005154D01*
X00030225Y00005150D01*
X00030194Y00005149D01*
X00029608Y00005149D01*
X00029608Y00001149D01*
X00036608Y00001149D01*
X00036608Y00005149D01*
X00035946Y00005149D01*
X00035916Y00005150D01*
X00035886Y00005154D01*
X00035857Y00005159D01*
X00035827Y00005168D01*
X00035799Y00005178D01*
X00035771Y00005190D01*
X00035745Y00005205D01*
X00035720Y00005221D01*
X00035696Y00005239D01*
X00035673Y00005259D01*
X00035652Y00005281D01*
X00035633Y00005305D01*
X00035616Y00005329D01*
X00035600Y00005355D01*
X00035587Y00005382D01*
X00035576Y00005410D01*
X00035567Y00005439D01*
X00035560Y00005469D01*
X00035555Y00005499D01*
X00035553Y00005529D01*
X00035526Y00006285D01*
X00035526Y00006316D01*
X00035529Y00006348D01*
X00035534Y00006379D01*
X00035541Y00006410D01*
X00035552Y00006440D01*
X00035564Y00006469D01*
X00035579Y00006497D01*
X00035596Y00006523D01*
X00035615Y00006548D01*
X00035636Y00006572D01*
X00035659Y00006594D01*
X00035683Y00006614D01*
X00035709Y00006632D01*
X00035737Y00006648D01*
X00035765Y00006661D01*
X00035795Y00006672D01*
X00035825Y00006681D01*
X00035856Y00006687D01*
X00035888Y00006691D01*
X00035919Y00006692D01*
X00038385Y00006692D01*
X00008728Y00016212D02*
X00008728Y00016212D01*
X00008702Y00016221D01*
X00008676Y00016233D01*
X00008652Y00016246D01*
X00008629Y00016261D01*
X00008606Y00016277D01*
X00008585Y00016295D01*
X00008565Y00016315D01*
X00008547Y00016335D01*
X00008530Y00016358D01*
X00008515Y00016381D01*
X00008501Y00016405D01*
X00008489Y00016430D01*
X00008479Y00016456D01*
X00008471Y00016482D01*
X00008465Y00016510D01*
X00008460Y00016537D01*
X00008458Y00016565D01*
X00008457Y00016592D01*
X00008459Y00016620D01*
X00008462Y00016648D01*
X00008549Y00017191D01*
X00008555Y00017218D01*
X00008562Y00017245D01*
X00008572Y00017272D01*
X00008583Y00017298D01*
X00008596Y00017323D01*
X00008611Y00017347D01*
X00008627Y00017370D01*
X00008645Y00017391D01*
X00008665Y00017412D01*
X00008686Y00017430D01*
X00008708Y00017448D01*
X00008731Y00017463D01*
X00008756Y00017477D01*
X00008781Y00017489D01*
X00008808Y00017500D01*
X00008834Y00017508D01*
X00008862Y00017515D01*
X00008890Y00017519D01*
X00008918Y00017521D01*
X00008946Y00017522D01*
X00009079Y00017519D01*
X00009245Y00017525D01*
X00009411Y00017541D01*
X00009576Y00017566D01*
X00009739Y00017600D01*
X00009900Y00017643D01*
X00010058Y00017695D01*
X00010213Y00017756D01*
X00010364Y00017825D01*
X00010511Y00017903D01*
X00010654Y00017990D01*
X00010791Y00018084D01*
X00010923Y00018185D01*
X00011049Y00018294D01*
X00011168Y00018410D01*
X00011281Y00018533D01*
X00011387Y00018661D01*
X00011485Y00018795D01*
X00011576Y00018935D01*
X00011659Y00019080D01*
X00011733Y00019229D01*
X00011775Y00019308D01*
X00011826Y00019381D01*
X00011885Y00019448D01*
X00011951Y00019509D01*
X00012023Y00019561D01*
X00012101Y00019605D01*
X00012184Y00019639D01*
X00012270Y00019664D01*
X00012358Y00019679D01*
X00012447Y00019685D01*
X00014074Y00019685D01*
X00014090Y00019686D01*
X00014105Y00019689D01*
X00014119Y00019695D01*
X00014132Y00019703D01*
X00014144Y00019713D01*
X00014154Y00019725D01*
X00014162Y00019738D01*
X00014168Y00019753D01*
X00014172Y00019768D01*
X00014173Y00019783D01*
X00014173Y00023738D01*
X00014178Y00023799D01*
X00014192Y00023859D01*
X00014216Y00023916D01*
X00014248Y00023969D01*
X00014288Y00024016D01*
X00014335Y00024056D01*
X00014388Y00024088D01*
X00014445Y00024112D01*
X00014505Y00024127D01*
X00014566Y00024131D01*
X00014628Y00024127D01*
X00014688Y00024112D01*
X00014745Y00024088D01*
X00014798Y00024056D01*
X00014845Y00024016D01*
X00014885Y00023969D01*
X00014917Y00023916D01*
X00014941Y00023859D01*
X00014955Y00023799D01*
X00014960Y00023738D01*
X00014960Y00023689D01*
X00014960Y00019783D01*
X00014961Y00019768D01*
X00014965Y00019753D01*
X00014971Y00019738D01*
X00014979Y00019725D01*
X00014989Y00019713D01*
X00015001Y00019703D01*
X00015014Y00019695D01*
X00015028Y00019689D01*
X00015043Y00019686D01*
X00015059Y00019685D01*
X00016686Y00019685D01*
X00016775Y00019679D01*
X00016863Y00019664D01*
X00016949Y00019639D01*
X00017031Y00019605D01*
X00017109Y00019561D01*
X00017182Y00019509D01*
X00017248Y00019448D01*
X00017307Y00019381D01*
X00017358Y00019308D01*
X00017400Y00019229D01*
X00017474Y00019080D01*
X00017557Y00018935D01*
X00017648Y00018795D01*
X00017746Y00018661D01*
X00017852Y00018533D01*
X00017965Y00018410D01*
X00018084Y00018294D01*
X00018210Y00018185D01*
X00018342Y00018084D01*
X00018479Y00017990D01*
X00018622Y00017903D01*
X00018769Y00017825D01*
X00018920Y00017756D01*
X00019075Y00017695D01*
X00019233Y00017643D01*
X00019394Y00017600D01*
X00019545Y00017568D01*
X00019572Y00017561D01*
X00019599Y00017553D01*
X00019625Y00017542D01*
X00019650Y00017530D01*
X00019674Y00017516D01*
X00019697Y00017500D01*
X00019719Y00017483D01*
X00019740Y00017464D01*
X00019759Y00017443D01*
X00019777Y00017422D01*
X00019794Y00017399D01*
X00019808Y00017375D01*
X00019821Y00017350D01*
X00019832Y00017324D01*
X00019841Y00017297D01*
X00019848Y00017270D01*
X00019853Y00017243D01*
X00019857Y00017215D01*
X00019858Y00017187D01*
X00019857Y00017159D01*
X00019828Y00016687D01*
X00019826Y00016662D01*
X00019822Y00016637D01*
X00019817Y00016613D01*
X00019810Y00016589D01*
X00019801Y00016565D01*
X00019791Y00016542D01*
X00019780Y00016520D01*
X00019767Y00016498D01*
X00019753Y00016478D01*
X00019737Y00016458D01*
X00019720Y00016439D01*
X00019703Y00016422D01*
X00019684Y00016405D01*
X00019664Y00016390D01*
X00019643Y00016376D01*
X00019621Y00016364D01*
X00019598Y00016353D01*
X00019575Y00016343D01*
X00019552Y00016335D01*
X00019527Y00016328D01*
X00019381Y00016293D01*
X00019236Y00016233D01*
X00019103Y00016151D01*
X00018983Y00016049D01*
X00018881Y00015930D01*
X00018799Y00015796D01*
X00018739Y00015651D01*
X00018703Y00015498D01*
X00018690Y00015342D01*
X00018690Y00012383D01*
X00018689Y00012352D01*
X00018686Y00012322D01*
X00018680Y00012292D01*
X00018671Y00012262D01*
X00018661Y00012234D01*
X00018648Y00012206D01*
X00018633Y00012179D01*
X00018616Y00012153D01*
X00018597Y00012129D01*
X00018577Y00012106D01*
X00018554Y00012085D01*
X00018530Y00012066D01*
X00018505Y00012049D01*
X00018478Y00012034D01*
X00018451Y00012021D01*
X00018422Y00012010D01*
X00018393Y00012001D01*
X00018363Y00011995D01*
X00018332Y00011991D01*
X00018301Y00011989D01*
X00017721Y00011982D01*
X00017690Y00011983D01*
X00017659Y00011987D01*
X00017628Y00011992D01*
X00017598Y00012001D01*
X00017569Y00012011D01*
X00017540Y00012024D01*
X00017513Y00012039D01*
X00017487Y00012056D01*
X00017462Y00012075D01*
X00017439Y00012096D01*
X00017418Y00012119D01*
X00017399Y00012143D01*
X00017381Y00012169D01*
X00017366Y00012196D01*
X00017353Y00012224D01*
X00017342Y00012254D01*
X00017333Y00012284D01*
X00017327Y00012314D01*
X00017324Y00012345D01*
X00017322Y00012376D01*
X00017322Y00014074D01*
X00017321Y00014090D01*
X00017318Y00014105D01*
X00017312Y00014119D01*
X00017304Y00014132D01*
X00017294Y00014144D01*
X00017282Y00014154D01*
X00017269Y00014162D01*
X00017254Y00014168D01*
X00017239Y00014172D01*
X00017224Y00014173D01*
X00011266Y00014173D01*
X00011177Y00014178D01*
X00011089Y00014193D01*
X00011003Y00014218D01*
X00010920Y00014253D01*
X00010842Y00014296D01*
X00010770Y00014349D01*
X00010704Y00014409D01*
X00010645Y00014476D01*
X00010594Y00014550D01*
X00010552Y00014629D01*
X00010477Y00014778D01*
X00010395Y00014922D01*
X00010304Y00015062D01*
X00010206Y00015196D01*
X00010100Y00015325D01*
X00009987Y00015447D01*
X00009868Y00015563D01*
X00009742Y00015672D01*
X00009610Y00015774D01*
X00009472Y00015868D01*
X00009330Y00015954D01*
X00009183Y00016032D01*
X00009032Y00016101D01*
X00008877Y00016162D01*
X00008728Y00016212D01*
X00032009Y00005149D02*
X00032009Y00005149D01*
X00031979Y00005150D01*
X00031949Y00005154D01*
X00031920Y00005159D01*
X00031890Y00005168D01*
X00031862Y00005178D01*
X00031834Y00005190D01*
X00031808Y00005205D01*
X00031783Y00005221D01*
X00031759Y00005239D01*
X00031736Y00005259D01*
X00031715Y00005281D01*
X00031696Y00005305D01*
X00031679Y00005329D01*
X00031663Y00005355D01*
X00031650Y00005382D01*
X00031639Y00005410D01*
X00031630Y00005439D01*
X00031623Y00005469D01*
X00031618Y00005499D01*
X00031616Y00005529D01*
X00031589Y00006285D01*
X00031589Y00006316D01*
X00031592Y00006348D01*
X00031597Y00006379D01*
X00031604Y00006410D01*
X00031615Y00006440D01*
X00031627Y00006469D01*
X00031642Y00006497D01*
X00031659Y00006523D01*
X00031678Y00006548D01*
X00031699Y00006572D01*
X00031722Y00006594D01*
X00031746Y00006614D01*
X00031772Y00006632D01*
X00031800Y00006648D01*
X00031828Y00006661D01*
X00031858Y00006672D01*
X00031888Y00006681D01*
X00031919Y00006687D01*
X00031951Y00006691D01*
X00031982Y00006692D01*
X00034159Y00006692D01*
X00034190Y00006691D01*
X00034222Y00006687D01*
X00034252Y00006681D01*
X00034283Y00006672D01*
X00034312Y00006661D01*
X00034341Y00006648D01*
X00034368Y00006632D01*
X00034394Y00006614D01*
X00034419Y00006594D01*
X00034442Y00006572D01*
X00034463Y00006548D01*
X00034482Y00006523D01*
X00034499Y00006497D01*
X00034514Y00006469D01*
X00034526Y00006440D01*
X00034536Y00006410D01*
X00034544Y00006379D01*
X00034549Y00006348D01*
X00034552Y00006316D01*
X00034552Y00006285D01*
X00034525Y00005529D01*
X00034523Y00005499D01*
X00034518Y00005469D01*
X00034511Y00005439D01*
X00034502Y00005410D01*
X00034491Y00005382D01*
X00034478Y00005355D01*
X00034462Y00005329D01*
X00034445Y00005305D01*
X00034426Y00005281D01*
X00034405Y00005259D01*
X00034382Y00005239D01*
X00034358Y00005221D01*
X00034333Y00005205D01*
X00034306Y00005190D01*
X00034279Y00005178D01*
X00034250Y00005168D01*
X00034221Y00005159D01*
X00034192Y00005154D01*
X00034162Y00005150D01*
X00034131Y00005149D01*
X00032009Y00005149D01*
X00021005Y00031149D02*
X00021005Y00031149D01*
X00020980Y00031157D01*
X00020956Y00031168D01*
X00020932Y00031180D01*
X00020909Y00031194D01*
X00020887Y00031209D01*
X00020866Y00031226D01*
X00020846Y00031244D01*
X00020828Y00031263D01*
X00020811Y00031284D01*
X00020795Y00031306D01*
X00020781Y00031328D01*
X00020769Y00031352D01*
X00020758Y00031377D01*
X00020748Y00031402D01*
X00020741Y00031427D01*
X00020735Y00031454D01*
X00020731Y00031480D01*
X00020729Y00031507D01*
X00020729Y00031533D01*
X00020730Y00031560D01*
X00020746Y00031728D01*
X00020749Y00031757D01*
X00020755Y00031786D01*
X00020763Y00031814D01*
X00020773Y00031841D01*
X00020785Y00031867D01*
X00020799Y00031893D01*
X00020815Y00031918D01*
X00020832Y00031941D01*
X00020852Y00031963D01*
X00020872Y00031983D01*
X00020895Y00032002D01*
X00020918Y00032019D01*
X00020943Y00032034D01*
X00020969Y00032048D01*
X00020995Y00032059D01*
X00021023Y00032069D01*
X00021051Y00032076D01*
X00021080Y00032082D01*
X00021109Y00032085D01*
X00021138Y00032086D01*
X00025590Y00032086D01*
X00025766Y00032076D01*
X00025940Y00032047D01*
X00026110Y00031998D01*
X00026273Y00031930D01*
X00026428Y00031845D01*
X00026572Y00031743D01*
X00026704Y00031625D01*
X00026821Y00031493D01*
X00026923Y00031349D01*
X00027009Y00031195D01*
X00027076Y00031031D01*
X00027125Y00030862D01*
X00027155Y00030688D01*
X00027165Y00030511D01*
X00027165Y00028346D01*
X00027170Y00028284D01*
X00027184Y00028224D01*
X00027208Y00028167D01*
X00027240Y00028115D01*
X00027280Y00028068D01*
X00027327Y00028027D01*
X00027380Y00027995D01*
X00027437Y00027972D01*
X00027497Y00027957D01*
X00027559Y00027952D01*
X00028647Y00027952D01*
X00028678Y00027951D01*
X00028708Y00027947D01*
X00028739Y00027941D01*
X00028768Y00027933D01*
X00028797Y00027922D01*
X00028825Y00027909D01*
X00028852Y00027894D01*
X00028878Y00027877D01*
X00028902Y00027858D01*
X00028925Y00027837D01*
X00028946Y00027814D01*
X00028965Y00027790D01*
X00028982Y00027764D01*
X00028998Y00027737D01*
X00029010Y00027709D01*
X00029021Y00027680D01*
X00029030Y00027650D01*
X00029036Y00027620D01*
X00029039Y00027589D01*
X00029040Y00027559D01*
X00029040Y00026771D01*
X00029039Y00026740D01*
X00029036Y00026710D01*
X00029030Y00026679D01*
X00029021Y00026649D01*
X00029010Y00026620D01*
X00028998Y00026592D01*
X00028982Y00026565D01*
X00028965Y00026540D01*
X00028946Y00026515D01*
X00028925Y00026493D01*
X00028902Y00026472D01*
X00028878Y00026453D01*
X00028852Y00026435D01*
X00028825Y00026420D01*
X00028797Y00026407D01*
X00028768Y00026397D01*
X00028739Y00026388D01*
X00028708Y00026382D01*
X00028678Y00026379D01*
X00028647Y00026377D01*
X00027755Y00026377D01*
X00027694Y00026373D01*
X00027634Y00026358D01*
X00027577Y00026335D01*
X00027524Y00026302D01*
X00027477Y00026262D01*
X00027437Y00026215D01*
X00027405Y00026162D01*
X00027381Y00026105D01*
X00027367Y00026045D01*
X00027362Y00025984D01*
X00027362Y00025280D01*
X00027361Y00025252D01*
X00027358Y00025224D01*
X00027353Y00025196D01*
X00027346Y00025169D01*
X00027337Y00025142D01*
X00027326Y00025116D01*
X00027313Y00025091D01*
X00027299Y00025066D01*
X00027282Y00025043D01*
X00027265Y00025021D01*
X00027245Y00025001D01*
X00027225Y00024982D01*
X00027203Y00024964D01*
X00027179Y00024948D01*
X00027155Y00024934D01*
X00027130Y00024921D01*
X00027103Y00024910D01*
X00027077Y00024902D01*
X00027049Y00024895D01*
X00027021Y00024890D01*
X00026824Y00024863D01*
X00026791Y00024860D01*
X00026757Y00024860D01*
X00026724Y00024862D01*
X00026691Y00024868D01*
X00026658Y00024876D01*
X00026627Y00024887D01*
X00026596Y00024901D01*
X00026566Y00024917D01*
X00026539Y00024936D01*
X00026512Y00024957D01*
X00026488Y00024980D01*
X00026466Y00025005D01*
X00026446Y00025032D01*
X00026428Y00025060D01*
X00026413Y00025090D01*
X00026400Y00025121D01*
X00026390Y00025154D01*
X00026383Y00025186D01*
X00026379Y00025220D01*
X00026377Y00025253D01*
X00026377Y00027460D01*
X00026376Y00027476D01*
X00026373Y00027491D01*
X00026367Y00027505D01*
X00026359Y00027518D01*
X00026349Y00027530D01*
X00026337Y00027540D01*
X00026324Y00027548D01*
X00026309Y00027554D01*
X00026294Y00027557D01*
X00026279Y00027559D01*
X00023818Y00027559D01*
X00023695Y00027568D01*
X00023575Y00027597D01*
X00023461Y00027644D01*
X00023356Y00027709D01*
X00023262Y00027789D01*
X00023181Y00027883D01*
X00023117Y00027988D01*
X00023070Y00028103D01*
X00023041Y00028223D01*
X00023031Y00028346D01*
X00023026Y00028512D01*
X00023012Y00028678D01*
X00022989Y00028843D01*
X00022956Y00029006D01*
X00022914Y00029168D01*
X00022864Y00029326D01*
X00022804Y00029482D01*
X00022736Y00029633D01*
X00022659Y00029781D01*
X00022574Y00029924D01*
X00022481Y00030062D01*
X00022380Y00030195D01*
X00022272Y00030322D01*
X00022157Y00030442D01*
X00022036Y00030556D01*
X00021908Y00030663D01*
X00021775Y00030763D01*
X00021636Y00030854D01*
X00021492Y00030938D01*
X00021344Y00031014D01*
X00021191Y00031081D01*
X00021035Y00031139D01*
X00021005Y00031149D01*
M02*