G04 #@! TF.GenerationSoftware,KiCad,Pcbnew,(5.1.4)-1*
G04 #@! TF.CreationDate,2020-03-27T15:28:26-04:00*
G04 #@! TF.ProjectId,USB Adapter,55534220-4164-4617-9074-65722e6b6963,rev?*
G04 #@! TF.SameCoordinates,PX6521e48PY3c8eee0*
G04 #@! TF.FileFunction,Soldermask,Top*
G04 #@! TF.FilePolarity,Negative*
%FSLAX46Y46*%
G04 Gerber Fmt 4.6, Leading zero omitted, Abs format (unit mm)*
G04 Created by KiCad (PCBNEW (5.1.4)-1) date 2020-03-27 15:28:26*
%MOMM*%
%LPD*%
G04 APERTURE LIST*
%ADD10C,0.100000*%
G04 APERTURE END LIST*
D10*
G36*
X-6084200Y-4710800D02*
G01*
X-7885800Y-4710800D01*
X-7885800Y-2909200D01*
X-6084200Y-2909200D01*
X-6084200Y-4710800D01*
X-6084200Y-4710800D01*
G37*
G36*
X-9348412Y-2922234D02*
G01*
X-9348409Y-2922235D01*
X-9178612Y-2973742D01*
X-9022122Y-3057388D01*
X-8884957Y-3169957D01*
X-8772388Y-3307122D01*
X-8688742Y-3463612D01*
X-8643125Y-3613992D01*
X-8637234Y-3633412D01*
X-8619842Y-3810000D01*
X-8637234Y-3986588D01*
X-8637235Y-3986591D01*
X-8688742Y-4156388D01*
X-8772388Y-4312878D01*
X-8884957Y-4450043D01*
X-9022122Y-4562612D01*
X-9178612Y-4646258D01*
X-9328992Y-4691875D01*
X-9348412Y-4697766D01*
X-9480751Y-4710800D01*
X-9569249Y-4710800D01*
X-9701588Y-4697766D01*
X-9721008Y-4691875D01*
X-9871388Y-4646258D01*
X-10027878Y-4562612D01*
X-10165043Y-4450043D01*
X-10277612Y-4312878D01*
X-10361258Y-4156388D01*
X-10412765Y-3986591D01*
X-10412766Y-3986588D01*
X-10430158Y-3810000D01*
X-10412766Y-3633412D01*
X-10406875Y-3613992D01*
X-10361258Y-3463612D01*
X-10277612Y-3307122D01*
X-10165043Y-3169957D01*
X-10027878Y-3057388D01*
X-9871388Y-2973742D01*
X-9701591Y-2922235D01*
X-9701588Y-2922234D01*
X-9569249Y-2909200D01*
X-9480751Y-2909200D01*
X-9348412Y-2922234D01*
X-9348412Y-2922234D01*
G37*
G36*
X5891588Y-2922234D02*
G01*
X5891591Y-2922235D01*
X6061388Y-2973742D01*
X6217878Y-3057388D01*
X6355043Y-3169957D01*
X6467612Y-3307122D01*
X6551258Y-3463612D01*
X6596875Y-3613992D01*
X6602766Y-3633412D01*
X6620158Y-3810000D01*
X6602766Y-3986588D01*
X6602765Y-3986591D01*
X6551258Y-4156388D01*
X6467612Y-4312878D01*
X6355043Y-4450043D01*
X6217878Y-4562612D01*
X6061388Y-4646258D01*
X5911008Y-4691875D01*
X5891588Y-4697766D01*
X5759249Y-4710800D01*
X5670751Y-4710800D01*
X5538412Y-4697766D01*
X5518992Y-4691875D01*
X5368612Y-4646258D01*
X5212122Y-4562612D01*
X5074957Y-4450043D01*
X4962388Y-4312878D01*
X4878742Y-4156388D01*
X4827235Y-3986591D01*
X4827234Y-3986588D01*
X4809842Y-3810000D01*
X4827234Y-3633412D01*
X4833125Y-3613992D01*
X4878742Y-3463612D01*
X4962388Y-3307122D01*
X5074957Y-3169957D01*
X5212122Y-3057388D01*
X5368612Y-2973742D01*
X5538409Y-2922235D01*
X5538412Y-2922234D01*
X5670751Y-2909200D01*
X5759249Y-2909200D01*
X5891588Y-2922234D01*
X5891588Y-2922234D01*
G37*
G36*
X617795Y-1210373D02*
G01*
X725671Y-1243097D01*
X825095Y-1296240D01*
X912241Y-1367759D01*
X983760Y-1454905D01*
X1036903Y-1554329D01*
X1069627Y-1662205D01*
X1080800Y-1775650D01*
X1080800Y-3724350D01*
X1069627Y-3837795D01*
X1036903Y-3945671D01*
X983760Y-4045095D01*
X912241Y-4132241D01*
X825095Y-4203760D01*
X725671Y-4256903D01*
X617795Y-4289627D01*
X504350Y-4300800D01*
X-694350Y-4300800D01*
X-807795Y-4289627D01*
X-915671Y-4256903D01*
X-1015095Y-4203760D01*
X-1102241Y-4132241D01*
X-1173760Y-4045095D01*
X-1226903Y-3945671D01*
X-1259627Y-3837795D01*
X-1270800Y-3724350D01*
X-1270800Y-1775650D01*
X-1259627Y-1662205D01*
X-1226903Y-1554329D01*
X-1173760Y-1454905D01*
X-1102241Y-1367759D01*
X-1015095Y-1296240D01*
X-915671Y-1243097D01*
X-807795Y-1210373D01*
X-694350Y-1199200D01*
X504350Y-1199200D01*
X617795Y-1210373D01*
X617795Y-1210373D01*
G37*
G36*
X3174207Y-1504849D02*
G01*
X3228149Y-1521212D01*
X3277868Y-1547788D01*
X3321447Y-1583553D01*
X3357212Y-1627132D01*
X3383788Y-1676851D01*
X3400151Y-1730793D01*
X3405800Y-1788150D01*
X3405800Y-2411850D01*
X3400151Y-2469207D01*
X3383788Y-2523149D01*
X3357212Y-2572868D01*
X3321447Y-2616447D01*
X3277868Y-2652212D01*
X3228149Y-2678788D01*
X3174207Y-2695151D01*
X3116850Y-2700800D01*
X1593150Y-2700800D01*
X1535793Y-2695151D01*
X1481851Y-2678788D01*
X1432132Y-2652212D01*
X1388553Y-2616447D01*
X1352788Y-2572868D01*
X1326212Y-2523149D01*
X1309849Y-2469207D01*
X1304200Y-2411850D01*
X1304200Y-1788150D01*
X1309849Y-1730793D01*
X1326212Y-1676851D01*
X1352788Y-1627132D01*
X1388553Y-1583553D01*
X1432132Y-1547788D01*
X1481851Y-1521212D01*
X1535793Y-1504849D01*
X1593150Y-1499200D01*
X3116850Y-1499200D01*
X3174207Y-1504849D01*
X3174207Y-1504849D01*
G37*
G36*
X5891588Y-382234D02*
G01*
X5891591Y-382235D01*
X6061388Y-433742D01*
X6217878Y-517388D01*
X6355043Y-629957D01*
X6467612Y-767122D01*
X6551258Y-923612D01*
X6592329Y-1059005D01*
X6602766Y-1093412D01*
X6620158Y-1270000D01*
X6602766Y-1446588D01*
X6602765Y-1446591D01*
X6551258Y-1616388D01*
X6467612Y-1772878D01*
X6355043Y-1910043D01*
X6217878Y-2022612D01*
X6061388Y-2106258D01*
X5911008Y-2151875D01*
X5891588Y-2157766D01*
X5759249Y-2170800D01*
X5670751Y-2170800D01*
X5538412Y-2157766D01*
X5518992Y-2151875D01*
X5368612Y-2106258D01*
X5212122Y-2022612D01*
X5074957Y-1910043D01*
X4962388Y-1772878D01*
X4878742Y-1616388D01*
X4827235Y-1446591D01*
X4827234Y-1446588D01*
X4809842Y-1270000D01*
X4827234Y-1093412D01*
X4837671Y-1059005D01*
X4878742Y-923612D01*
X4962388Y-767122D01*
X5074957Y-629957D01*
X5212122Y-517388D01*
X5368612Y-433742D01*
X5538409Y-382235D01*
X5538412Y-382234D01*
X5670751Y-369200D01*
X5759249Y-369200D01*
X5891588Y-382234D01*
X5891588Y-382234D01*
G37*
G36*
X-5181591Y1667028D02*
G01*
X-5097164Y1641418D01*
X-5019351Y1599826D01*
X-4951148Y1543852D01*
X-4895174Y1475649D01*
X-4853582Y1397836D01*
X-4827972Y1313409D01*
X-4819200Y1224349D01*
X-4819200Y-1224349D01*
X-4827972Y-1313409D01*
X-4853582Y-1397836D01*
X-4895174Y-1475649D01*
X-4951148Y-1543852D01*
X-5019351Y-1599826D01*
X-5097164Y-1641418D01*
X-5181591Y-1667028D01*
X-5270651Y-1675800D01*
X-6219349Y-1675800D01*
X-6308409Y-1667028D01*
X-6392836Y-1641418D01*
X-6470649Y-1599826D01*
X-6538852Y-1543852D01*
X-6594826Y-1475649D01*
X-6636418Y-1397836D01*
X-6662028Y-1313409D01*
X-6670800Y-1224349D01*
X-6670800Y1224349D01*
X-6662028Y1313409D01*
X-6636418Y1397836D01*
X-6594826Y1475649D01*
X-6538852Y1543852D01*
X-6470649Y1599826D01*
X-6392836Y1641418D01*
X-6308409Y1667028D01*
X-6219349Y1675800D01*
X-5270651Y1675800D01*
X-5181591Y1667028D01*
X-5181591Y1667028D01*
G37*
G36*
X3174207Y-104849D02*
G01*
X3228149Y-121212D01*
X3277868Y-147788D01*
X3321447Y-183553D01*
X3357212Y-227132D01*
X3383788Y-276851D01*
X3400151Y-330793D01*
X3405800Y-388150D01*
X3405800Y-1011850D01*
X3400151Y-1069207D01*
X3383788Y-1123149D01*
X3357212Y-1172868D01*
X3321447Y-1216447D01*
X3277868Y-1252212D01*
X3228149Y-1278788D01*
X3174207Y-1295151D01*
X3116850Y-1300800D01*
X1593150Y-1300800D01*
X1535793Y-1295151D01*
X1481851Y-1278788D01*
X1432132Y-1252212D01*
X1388553Y-1216447D01*
X1352788Y-1172868D01*
X1326212Y-1123149D01*
X1309849Y-1069207D01*
X1304200Y-1011850D01*
X1304200Y-388150D01*
X1309849Y-330793D01*
X1326212Y-276851D01*
X1352788Y-227132D01*
X1388553Y-183553D01*
X1432132Y-147788D01*
X1481851Y-121212D01*
X1535793Y-104849D01*
X1593150Y-99200D01*
X3116850Y-99200D01*
X3174207Y-104849D01*
X3174207Y-104849D01*
G37*
G36*
X3174207Y1295151D02*
G01*
X3228149Y1278788D01*
X3277868Y1252212D01*
X3321447Y1216447D01*
X3357212Y1172868D01*
X3383788Y1123149D01*
X3400151Y1069207D01*
X3405800Y1011850D01*
X3405800Y388150D01*
X3400151Y330793D01*
X3383788Y276851D01*
X3357212Y227132D01*
X3321447Y183553D01*
X3277868Y147788D01*
X3228149Y121212D01*
X3174207Y104849D01*
X3116850Y99200D01*
X1593150Y99200D01*
X1535793Y104849D01*
X1481851Y121212D01*
X1432132Y147788D01*
X1388553Y183553D01*
X1352788Y227132D01*
X1326212Y276851D01*
X1309849Y330793D01*
X1304200Y388150D01*
X1304200Y1011850D01*
X1309849Y1069207D01*
X1326212Y1123149D01*
X1352788Y1172868D01*
X1388553Y1216447D01*
X1432132Y1252212D01*
X1481851Y1278788D01*
X1535793Y1295151D01*
X1593150Y1300800D01*
X3116850Y1300800D01*
X3174207Y1295151D01*
X3174207Y1295151D01*
G37*
G36*
X5891588Y2157766D02*
G01*
X5891591Y2157765D01*
X6061388Y2106258D01*
X6217878Y2022612D01*
X6355043Y1910043D01*
X6467612Y1772878D01*
X6551258Y1616388D01*
X6570083Y1554329D01*
X6602766Y1446588D01*
X6620158Y1270000D01*
X6602766Y1093412D01*
X6602765Y1093409D01*
X6551258Y923612D01*
X6467612Y767122D01*
X6355043Y629957D01*
X6217878Y517388D01*
X6061388Y433742D01*
X5948836Y399600D01*
X5891588Y382234D01*
X5759249Y369200D01*
X5670751Y369200D01*
X5538412Y382234D01*
X5481164Y399600D01*
X5368612Y433742D01*
X5212122Y517388D01*
X5074957Y629957D01*
X4962388Y767122D01*
X4878742Y923612D01*
X4827235Y1093409D01*
X4827234Y1093412D01*
X4809842Y1270000D01*
X4827234Y1446588D01*
X4859917Y1554329D01*
X4878742Y1616388D01*
X4962388Y1772878D01*
X5074957Y1910043D01*
X5212122Y2022612D01*
X5368612Y2106258D01*
X5538409Y2157765D01*
X5538412Y2157766D01*
X5670751Y2170800D01*
X5759249Y2170800D01*
X5891588Y2157766D01*
X5891588Y2157766D01*
G37*
G36*
X617795Y4289627D02*
G01*
X725671Y4256903D01*
X825095Y4203760D01*
X912241Y4132241D01*
X983760Y4045095D01*
X1036903Y3945671D01*
X1069627Y3837795D01*
X1080800Y3724350D01*
X1080800Y1775650D01*
X1069627Y1662205D01*
X1036903Y1554329D01*
X983760Y1454905D01*
X912241Y1367759D01*
X825095Y1296240D01*
X725671Y1243097D01*
X617795Y1210373D01*
X504350Y1199200D01*
X-694350Y1199200D01*
X-807795Y1210373D01*
X-915671Y1243097D01*
X-1015095Y1296240D01*
X-1102241Y1367759D01*
X-1173760Y1454905D01*
X-1226903Y1554329D01*
X-1259627Y1662205D01*
X-1270800Y1775650D01*
X-1270800Y3724350D01*
X-1259627Y3837795D01*
X-1226903Y3945671D01*
X-1173760Y4045095D01*
X-1102241Y4132241D01*
X-1015095Y4203760D01*
X-915671Y4256903D01*
X-807795Y4289627D01*
X-694350Y4300800D01*
X504350Y4300800D01*
X617795Y4289627D01*
X617795Y4289627D01*
G37*
G36*
X3174207Y2695151D02*
G01*
X3228149Y2678788D01*
X3277868Y2652212D01*
X3321447Y2616447D01*
X3357212Y2572868D01*
X3383788Y2523149D01*
X3400151Y2469207D01*
X3405800Y2411850D01*
X3405800Y1788150D01*
X3400151Y1730793D01*
X3383788Y1676851D01*
X3357212Y1627132D01*
X3321447Y1583553D01*
X3277868Y1547788D01*
X3228149Y1521212D01*
X3174207Y1504849D01*
X3116850Y1499200D01*
X1593150Y1499200D01*
X1535793Y1504849D01*
X1481851Y1521212D01*
X1432132Y1547788D01*
X1388553Y1583553D01*
X1352788Y1627132D01*
X1326212Y1676851D01*
X1309849Y1730793D01*
X1304200Y1788150D01*
X1304200Y2411850D01*
X1309849Y2469207D01*
X1326212Y2523149D01*
X1352788Y2572868D01*
X1388553Y2616447D01*
X1432132Y2652212D01*
X1481851Y2678788D01*
X1535793Y2695151D01*
X1593150Y2700800D01*
X3116850Y2700800D01*
X3174207Y2695151D01*
X3174207Y2695151D01*
G37*
G36*
X-9348412Y4697766D02*
G01*
X-9348409Y4697765D01*
X-9178612Y4646258D01*
X-9022122Y4562612D01*
X-8884957Y4450043D01*
X-8772388Y4312878D01*
X-8688742Y4156388D01*
X-8654982Y4045095D01*
X-8637234Y3986588D01*
X-8619842Y3810000D01*
X-8637234Y3633412D01*
X-8637235Y3633409D01*
X-8688742Y3463612D01*
X-8772388Y3307122D01*
X-8884957Y3169957D01*
X-9022122Y3057388D01*
X-9178612Y2973742D01*
X-9328992Y2928125D01*
X-9348412Y2922234D01*
X-9480751Y2909200D01*
X-9569249Y2909200D01*
X-9701588Y2922234D01*
X-9721008Y2928125D01*
X-9871388Y2973742D01*
X-10027878Y3057388D01*
X-10165043Y3169957D01*
X-10277612Y3307122D01*
X-10361258Y3463612D01*
X-10412765Y3633409D01*
X-10412766Y3633412D01*
X-10430158Y3810000D01*
X-10412766Y3986588D01*
X-10395018Y4045095D01*
X-10361258Y4156388D01*
X-10277612Y4312878D01*
X-10165043Y4450043D01*
X-10027878Y4562612D01*
X-9871388Y4646258D01*
X-9701591Y4697765D01*
X-9701588Y4697766D01*
X-9569249Y4710800D01*
X-9480751Y4710800D01*
X-9348412Y4697766D01*
X-9348412Y4697766D01*
G37*
G36*
X-6084200Y2909200D02*
G01*
X-7885800Y2909200D01*
X-7885800Y4710800D01*
X-6084200Y4710800D01*
X-6084200Y2909200D01*
X-6084200Y2909200D01*
G37*
G36*
X6615800Y2909200D02*
G01*
X4814200Y2909200D01*
X4814200Y4710800D01*
X6615800Y4710800D01*
X6615800Y2909200D01*
X6615800Y2909200D01*
G37*
M02*
