G04 #@! TF.GenerationSoftware,KiCad,Pcbnew,(5.1.4)-1*
G04 #@! TF.CreationDate,2020-03-27T15:28:26-04:00*
G04 #@! TF.ProjectId,USB Adapter,55534220-4164-4617-9074-65722e6b6963,rev?*
G04 #@! TF.SameCoordinates,PX6521e48PY3c8eee0*
G04 #@! TF.FileFunction,Copper,L2,Bot*
G04 #@! TF.FilePolarity,Positive*
%FSLAX46Y46*%
G04 Gerber Fmt 4.6, Leading zero omitted, Abs format (unit mm)*
G04 Created by KiCad (PCBNEW (5.1.4)-1) date 2020-03-27 15:28:26*
%MOMM*%
%LPD*%
G04 APERTURE LIST*
%ADD10O,1.700000X1.700000*%
%ADD11R,1.700000X1.700000*%
%ADD12C,0.100000*%
%ADD13C,1.750000*%
%ADD14C,2.250000*%
%ADD15C,1.100000*%
%ADD16C,0.635000*%
%ADD17C,0.254000*%
G04 APERTURE END LIST*
D10*
X5715000Y-3810000D03*
X5715000Y-1270000D03*
X5715000Y1270000D03*
D11*
X5715000Y3810000D03*
D10*
X-9525000Y-3810000D03*
D11*
X-6985000Y-3810000D03*
D10*
X-9525000Y3810000D03*
D11*
X-6985000Y3810000D03*
D12*
G36*
X-5264618Y1622893D02*
G01*
X-5222148Y1616594D01*
X-5180500Y1606161D01*
X-5140076Y1591697D01*
X-5101264Y1573341D01*
X-5064438Y1551268D01*
X-5029953Y1525692D01*
X-4998141Y1496859D01*
X-4969308Y1465047D01*
X-4943732Y1430562D01*
X-4921659Y1393736D01*
X-4903303Y1354924D01*
X-4888839Y1314500D01*
X-4878406Y1272852D01*
X-4872107Y1230382D01*
X-4870000Y1187500D01*
X-4870000Y-1187500D01*
X-4872107Y-1230382D01*
X-4878406Y-1272852D01*
X-4888839Y-1314500D01*
X-4903303Y-1354924D01*
X-4921659Y-1393736D01*
X-4943732Y-1430562D01*
X-4969308Y-1465047D01*
X-4998141Y-1496859D01*
X-5029953Y-1525692D01*
X-5064438Y-1551268D01*
X-5101264Y-1573341D01*
X-5140076Y-1591697D01*
X-5180500Y-1606161D01*
X-5222148Y-1616594D01*
X-5264618Y-1622893D01*
X-5307500Y-1625000D01*
X-6182500Y-1625000D01*
X-6225382Y-1622893D01*
X-6267852Y-1616594D01*
X-6309500Y-1606161D01*
X-6349924Y-1591697D01*
X-6388736Y-1573341D01*
X-6425562Y-1551268D01*
X-6460047Y-1525692D01*
X-6491859Y-1496859D01*
X-6520692Y-1465047D01*
X-6546268Y-1430562D01*
X-6568341Y-1393736D01*
X-6586697Y-1354924D01*
X-6601161Y-1314500D01*
X-6611594Y-1272852D01*
X-6617893Y-1230382D01*
X-6620000Y-1187500D01*
X-6620000Y1187500D01*
X-6617893Y1230382D01*
X-6611594Y1272852D01*
X-6601161Y1314500D01*
X-6586697Y1354924D01*
X-6568341Y1393736D01*
X-6546268Y1430562D01*
X-6520692Y1465047D01*
X-6491859Y1496859D01*
X-6460047Y1525692D01*
X-6425562Y1551268D01*
X-6388736Y1573341D01*
X-6349924Y1591697D01*
X-6309500Y1606161D01*
X-6267852Y1616594D01*
X-6225382Y1622893D01*
X-6182500Y1625000D01*
X-5307500Y1625000D01*
X-5264618Y1622893D01*
X-5264618Y1622893D01*
G37*
D13*
X-5745000Y0D03*
D12*
G36*
X522635Y4247291D02*
G01*
X577238Y4239192D01*
X630785Y4225779D01*
X682759Y4207182D01*
X732661Y4183581D01*
X780008Y4155202D01*
X824346Y4122318D01*
X865248Y4085248D01*
X902318Y4044346D01*
X935202Y4000008D01*
X963581Y3952661D01*
X987182Y3902759D01*
X1005779Y3850785D01*
X1019192Y3797238D01*
X1027291Y3742635D01*
X1030000Y3687500D01*
X1030000Y1812500D01*
X1027291Y1757365D01*
X1019192Y1702762D01*
X1005779Y1649215D01*
X987182Y1597241D01*
X963581Y1547339D01*
X935202Y1499992D01*
X902318Y1455654D01*
X865248Y1414752D01*
X824346Y1377682D01*
X780008Y1344798D01*
X732661Y1316419D01*
X682759Y1292818D01*
X630785Y1274221D01*
X577238Y1260808D01*
X522635Y1252709D01*
X467500Y1250000D01*
X-657500Y1250000D01*
X-712635Y1252709D01*
X-767238Y1260808D01*
X-820785Y1274221D01*
X-872759Y1292818D01*
X-922661Y1316419D01*
X-970008Y1344798D01*
X-1014346Y1377682D01*
X-1055248Y1414752D01*
X-1092318Y1455654D01*
X-1125202Y1499992D01*
X-1153581Y1547339D01*
X-1177182Y1597241D01*
X-1195779Y1649215D01*
X-1209192Y1702762D01*
X-1217291Y1757365D01*
X-1220000Y1812500D01*
X-1220000Y3687500D01*
X-1217291Y3742635D01*
X-1209192Y3797238D01*
X-1195779Y3850785D01*
X-1177182Y3902759D01*
X-1153581Y3952661D01*
X-1125202Y4000008D01*
X-1092318Y4044346D01*
X-1055248Y4085248D01*
X-1014346Y4122318D01*
X-970008Y4155202D01*
X-922661Y4183581D01*
X-872759Y4207182D01*
X-820785Y4225779D01*
X-767238Y4239192D01*
X-712635Y4247291D01*
X-657500Y4250000D01*
X467500Y4250000D01*
X522635Y4247291D01*
X522635Y4247291D01*
G37*
D14*
X-95000Y2750000D03*
D12*
G36*
X522635Y-1252709D02*
G01*
X577238Y-1260808D01*
X630785Y-1274221D01*
X682759Y-1292818D01*
X732661Y-1316419D01*
X780008Y-1344798D01*
X824346Y-1377682D01*
X865248Y-1414752D01*
X902318Y-1455654D01*
X935202Y-1499992D01*
X963581Y-1547339D01*
X987182Y-1597241D01*
X1005779Y-1649215D01*
X1019192Y-1702762D01*
X1027291Y-1757365D01*
X1030000Y-1812500D01*
X1030000Y-3687500D01*
X1027291Y-3742635D01*
X1019192Y-3797238D01*
X1005779Y-3850785D01*
X987182Y-3902759D01*
X963581Y-3952661D01*
X935202Y-4000008D01*
X902318Y-4044346D01*
X865248Y-4085248D01*
X824346Y-4122318D01*
X780008Y-4155202D01*
X732661Y-4183581D01*
X682759Y-4207182D01*
X630785Y-4225779D01*
X577238Y-4239192D01*
X522635Y-4247291D01*
X467500Y-4250000D01*
X-657500Y-4250000D01*
X-712635Y-4247291D01*
X-767238Y-4239192D01*
X-820785Y-4225779D01*
X-872759Y-4207182D01*
X-922661Y-4183581D01*
X-970008Y-4155202D01*
X-1014346Y-4122318D01*
X-1055248Y-4085248D01*
X-1092318Y-4044346D01*
X-1125202Y-4000008D01*
X-1153581Y-3952661D01*
X-1177182Y-3902759D01*
X-1195779Y-3850785D01*
X-1209192Y-3797238D01*
X-1217291Y-3742635D01*
X-1220000Y-3687500D01*
X-1220000Y-1812500D01*
X-1217291Y-1757365D01*
X-1209192Y-1702762D01*
X-1195779Y-1649215D01*
X-1177182Y-1597241D01*
X-1153581Y-1547339D01*
X-1125202Y-1499992D01*
X-1092318Y-1455654D01*
X-1055248Y-1414752D01*
X-1014346Y-1377682D01*
X-970008Y-1344798D01*
X-922661Y-1316419D01*
X-872759Y-1292818D01*
X-820785Y-1274221D01*
X-767238Y-1260808D01*
X-712635Y-1252709D01*
X-657500Y-1250000D01*
X467500Y-1250000D01*
X522635Y-1252709D01*
X522635Y-1252709D01*
G37*
D14*
X-95000Y-2750000D03*
D12*
G36*
X3106955Y2648676D02*
G01*
X3133650Y2644716D01*
X3159828Y2638159D01*
X3185238Y2629067D01*
X3209634Y2617528D01*
X3232782Y2603654D01*
X3254458Y2587578D01*
X3274454Y2569454D01*
X3292578Y2549458D01*
X3308654Y2527782D01*
X3322528Y2504634D01*
X3334067Y2480238D01*
X3343159Y2454828D01*
X3349716Y2428650D01*
X3353676Y2401955D01*
X3355000Y2375000D01*
X3355000Y1825000D01*
X3353676Y1798045D01*
X3349716Y1771350D01*
X3343159Y1745172D01*
X3334067Y1719762D01*
X3322528Y1695366D01*
X3308654Y1672218D01*
X3292578Y1650542D01*
X3274454Y1630546D01*
X3254458Y1612422D01*
X3232782Y1596346D01*
X3209634Y1582472D01*
X3185238Y1570933D01*
X3159828Y1561841D01*
X3133650Y1555284D01*
X3106955Y1551324D01*
X3080000Y1550000D01*
X1630000Y1550000D01*
X1603045Y1551324D01*
X1576350Y1555284D01*
X1550172Y1561841D01*
X1524762Y1570933D01*
X1500366Y1582472D01*
X1477218Y1596346D01*
X1455542Y1612422D01*
X1435546Y1630546D01*
X1417422Y1650542D01*
X1401346Y1672218D01*
X1387472Y1695366D01*
X1375933Y1719762D01*
X1366841Y1745172D01*
X1360284Y1771350D01*
X1356324Y1798045D01*
X1355000Y1825000D01*
X1355000Y2375000D01*
X1356324Y2401955D01*
X1360284Y2428650D01*
X1366841Y2454828D01*
X1375933Y2480238D01*
X1387472Y2504634D01*
X1401346Y2527782D01*
X1417422Y2549458D01*
X1435546Y2569454D01*
X1455542Y2587578D01*
X1477218Y2603654D01*
X1500366Y2617528D01*
X1524762Y2629067D01*
X1550172Y2638159D01*
X1576350Y2644716D01*
X1603045Y2648676D01*
X1630000Y2650000D01*
X3080000Y2650000D01*
X3106955Y2648676D01*
X3106955Y2648676D01*
G37*
D15*
X2355000Y2100000D03*
D12*
G36*
X3106955Y1248676D02*
G01*
X3133650Y1244716D01*
X3159828Y1238159D01*
X3185238Y1229067D01*
X3209634Y1217528D01*
X3232782Y1203654D01*
X3254458Y1187578D01*
X3274454Y1169454D01*
X3292578Y1149458D01*
X3308654Y1127782D01*
X3322528Y1104634D01*
X3334067Y1080238D01*
X3343159Y1054828D01*
X3349716Y1028650D01*
X3353676Y1001955D01*
X3355000Y975000D01*
X3355000Y425000D01*
X3353676Y398045D01*
X3349716Y371350D01*
X3343159Y345172D01*
X3334067Y319762D01*
X3322528Y295366D01*
X3308654Y272218D01*
X3292578Y250542D01*
X3274454Y230546D01*
X3254458Y212422D01*
X3232782Y196346D01*
X3209634Y182472D01*
X3185238Y170933D01*
X3159828Y161841D01*
X3133650Y155284D01*
X3106955Y151324D01*
X3080000Y150000D01*
X1630000Y150000D01*
X1603045Y151324D01*
X1576350Y155284D01*
X1550172Y161841D01*
X1524762Y170933D01*
X1500366Y182472D01*
X1477218Y196346D01*
X1455542Y212422D01*
X1435546Y230546D01*
X1417422Y250542D01*
X1401346Y272218D01*
X1387472Y295366D01*
X1375933Y319762D01*
X1366841Y345172D01*
X1360284Y371350D01*
X1356324Y398045D01*
X1355000Y425000D01*
X1355000Y975000D01*
X1356324Y1001955D01*
X1360284Y1028650D01*
X1366841Y1054828D01*
X1375933Y1080238D01*
X1387472Y1104634D01*
X1401346Y1127782D01*
X1417422Y1149458D01*
X1435546Y1169454D01*
X1455542Y1187578D01*
X1477218Y1203654D01*
X1500366Y1217528D01*
X1524762Y1229067D01*
X1550172Y1238159D01*
X1576350Y1244716D01*
X1603045Y1248676D01*
X1630000Y1250000D01*
X3080000Y1250000D01*
X3106955Y1248676D01*
X3106955Y1248676D01*
G37*
D15*
X2355000Y700000D03*
D12*
G36*
X3106955Y-151324D02*
G01*
X3133650Y-155284D01*
X3159828Y-161841D01*
X3185238Y-170933D01*
X3209634Y-182472D01*
X3232782Y-196346D01*
X3254458Y-212422D01*
X3274454Y-230546D01*
X3292578Y-250542D01*
X3308654Y-272218D01*
X3322528Y-295366D01*
X3334067Y-319762D01*
X3343159Y-345172D01*
X3349716Y-371350D01*
X3353676Y-398045D01*
X3355000Y-425000D01*
X3355000Y-975000D01*
X3353676Y-1001955D01*
X3349716Y-1028650D01*
X3343159Y-1054828D01*
X3334067Y-1080238D01*
X3322528Y-1104634D01*
X3308654Y-1127782D01*
X3292578Y-1149458D01*
X3274454Y-1169454D01*
X3254458Y-1187578D01*
X3232782Y-1203654D01*
X3209634Y-1217528D01*
X3185238Y-1229067D01*
X3159828Y-1238159D01*
X3133650Y-1244716D01*
X3106955Y-1248676D01*
X3080000Y-1250000D01*
X1630000Y-1250000D01*
X1603045Y-1248676D01*
X1576350Y-1244716D01*
X1550172Y-1238159D01*
X1524762Y-1229067D01*
X1500366Y-1217528D01*
X1477218Y-1203654D01*
X1455542Y-1187578D01*
X1435546Y-1169454D01*
X1417422Y-1149458D01*
X1401346Y-1127782D01*
X1387472Y-1104634D01*
X1375933Y-1080238D01*
X1366841Y-1054828D01*
X1360284Y-1028650D01*
X1356324Y-1001955D01*
X1355000Y-975000D01*
X1355000Y-425000D01*
X1356324Y-398045D01*
X1360284Y-371350D01*
X1366841Y-345172D01*
X1375933Y-319762D01*
X1387472Y-295366D01*
X1401346Y-272218D01*
X1417422Y-250542D01*
X1435546Y-230546D01*
X1455542Y-212422D01*
X1477218Y-196346D01*
X1500366Y-182472D01*
X1524762Y-170933D01*
X1550172Y-161841D01*
X1576350Y-155284D01*
X1603045Y-151324D01*
X1630000Y-150000D01*
X3080000Y-150000D01*
X3106955Y-151324D01*
X3106955Y-151324D01*
G37*
D15*
X2355000Y-700000D03*
D12*
G36*
X3106955Y-1551324D02*
G01*
X3133650Y-1555284D01*
X3159828Y-1561841D01*
X3185238Y-1570933D01*
X3209634Y-1582472D01*
X3232782Y-1596346D01*
X3254458Y-1612422D01*
X3274454Y-1630546D01*
X3292578Y-1650542D01*
X3308654Y-1672218D01*
X3322528Y-1695366D01*
X3334067Y-1719762D01*
X3343159Y-1745172D01*
X3349716Y-1771350D01*
X3353676Y-1798045D01*
X3355000Y-1825000D01*
X3355000Y-2375000D01*
X3353676Y-2401955D01*
X3349716Y-2428650D01*
X3343159Y-2454828D01*
X3334067Y-2480238D01*
X3322528Y-2504634D01*
X3308654Y-2527782D01*
X3292578Y-2549458D01*
X3274454Y-2569454D01*
X3254458Y-2587578D01*
X3232782Y-2603654D01*
X3209634Y-2617528D01*
X3185238Y-2629067D01*
X3159828Y-2638159D01*
X3133650Y-2644716D01*
X3106955Y-2648676D01*
X3080000Y-2650000D01*
X1630000Y-2650000D01*
X1603045Y-2648676D01*
X1576350Y-2644716D01*
X1550172Y-2638159D01*
X1524762Y-2629067D01*
X1500366Y-2617528D01*
X1477218Y-2603654D01*
X1455542Y-2587578D01*
X1435546Y-2569454D01*
X1417422Y-2549458D01*
X1401346Y-2527782D01*
X1387472Y-2504634D01*
X1375933Y-2480238D01*
X1366841Y-2454828D01*
X1360284Y-2428650D01*
X1356324Y-2401955D01*
X1355000Y-2375000D01*
X1355000Y-1825000D01*
X1356324Y-1798045D01*
X1360284Y-1771350D01*
X1366841Y-1745172D01*
X1375933Y-1719762D01*
X1387472Y-1695366D01*
X1401346Y-1672218D01*
X1417422Y-1650542D01*
X1435546Y-1630546D01*
X1455542Y-1612422D01*
X1477218Y-1596346D01*
X1500366Y-1582472D01*
X1524762Y-1570933D01*
X1550172Y-1561841D01*
X1576350Y-1555284D01*
X1603045Y-1551324D01*
X1630000Y-1550000D01*
X3080000Y-1550000D01*
X3106955Y-1551324D01*
X3106955Y-1551324D01*
G37*
D15*
X2355000Y-2100000D03*
D16*
X4005000Y2100000D02*
X5715000Y3810000D01*
X1905000Y2100000D02*
X4005000Y2100000D01*
D17*
G36*
X-8216000Y4095750D02*
G01*
X-8120750Y4000500D01*
X-7175500Y4000500D01*
X-7175500Y4020500D01*
X-6794500Y4020500D01*
X-6794500Y4000500D01*
X-5849250Y4000500D01*
X-5754000Y4095750D01*
X-5752527Y4546600D01*
X-1459165Y4546600D01*
X-1490711Y4520711D01*
X-1538322Y4462696D01*
X-1573701Y4396508D01*
X-1595487Y4324689D01*
X-1602843Y4250000D01*
X-1601000Y3035750D01*
X-1505750Y2940500D01*
X-285500Y2940500D01*
X-285500Y2960500D01*
X95500Y2960500D01*
X95500Y2940500D01*
X115500Y2940500D01*
X115500Y2559500D01*
X95500Y2559500D01*
X95500Y964250D01*
X190750Y869000D01*
X972157Y867284D01*
X972157Y425000D01*
X984797Y296661D01*
X1022232Y173254D01*
X1083024Y59522D01*
X1131872Y0D01*
X1083024Y-59522D01*
X1022232Y-173254D01*
X984797Y-296661D01*
X972157Y-425000D01*
X972157Y-867284D01*
X190750Y-869000D01*
X95500Y-964250D01*
X95500Y-2559500D01*
X115500Y-2559500D01*
X115500Y-2940500D01*
X95500Y-2940500D01*
X95500Y-2960500D01*
X-285500Y-2960500D01*
X-285500Y-2940500D01*
X-1505750Y-2940500D01*
X-1601000Y-3035750D01*
X-1602843Y-4250000D01*
X-1595487Y-4324689D01*
X-1573701Y-4396508D01*
X-1538322Y-4462696D01*
X-1490711Y-4520711D01*
X-1459165Y-4546600D01*
X-5752527Y-4546600D01*
X-5754000Y-4095750D01*
X-5849250Y-4000500D01*
X-6794500Y-4000500D01*
X-6794500Y-4020500D01*
X-7175500Y-4020500D01*
X-7175500Y-4000500D01*
X-8120750Y-4000500D01*
X-8216000Y-4095750D01*
X-8217473Y-4546600D01*
X-8545018Y-4546600D01*
X-8449927Y-4409666D01*
X-8353595Y-4188407D01*
X-8404071Y-4000500D01*
X-9334500Y-4000500D01*
X-9334500Y-4020500D01*
X-9715500Y-4020500D01*
X-9715500Y-4000500D01*
X-9735500Y-4000500D01*
X-9735500Y-3619500D01*
X-9715500Y-3619500D01*
X-9715500Y-2690340D01*
X-9334500Y-2690340D01*
X-9334500Y-3619500D01*
X-8404071Y-3619500D01*
X-8353595Y-3431593D01*
X-8449927Y-3210334D01*
X-8587573Y-3012120D01*
X-8641596Y-2960000D01*
X-8217843Y-2960000D01*
X-8216000Y-3524250D01*
X-8120750Y-3619500D01*
X-7175500Y-3619500D01*
X-7175500Y-2674250D01*
X-6794500Y-2674250D01*
X-6794500Y-3619500D01*
X-5849250Y-3619500D01*
X-5754000Y-3524250D01*
X-5752157Y-2960000D01*
X-5759513Y-2885311D01*
X-5781299Y-2813492D01*
X-5816678Y-2747304D01*
X-5864289Y-2689289D01*
X-5922304Y-2641678D01*
X-5988492Y-2606299D01*
X-6060311Y-2584513D01*
X-6135000Y-2577157D01*
X-6699250Y-2579000D01*
X-6794500Y-2674250D01*
X-7175500Y-2674250D01*
X-7270750Y-2579000D01*
X-7835000Y-2577157D01*
X-7909689Y-2584513D01*
X-7981508Y-2606299D01*
X-8047696Y-2641678D01*
X-8105711Y-2689289D01*
X-8153322Y-2747304D01*
X-8188701Y-2813492D01*
X-8210487Y-2885311D01*
X-8217843Y-2960000D01*
X-8641596Y-2960000D01*
X-8761244Y-2844568D01*
X-8964266Y-2714117D01*
X-9146594Y-2638603D01*
X-9334500Y-2690340D01*
X-9715500Y-2690340D01*
X-9903406Y-2638603D01*
X-10085734Y-2714117D01*
X-10261600Y-2827119D01*
X-10261600Y-1625000D01*
X-7002843Y-1625000D01*
X-6995487Y-1699689D01*
X-6973701Y-1771508D01*
X-6938322Y-1837696D01*
X-6890711Y-1895711D01*
X-6832696Y-1943322D01*
X-6766508Y-1978701D01*
X-6694689Y-2000487D01*
X-6620000Y-2007843D01*
X-6030750Y-2006000D01*
X-5935500Y-1910750D01*
X-5935500Y-190500D01*
X-5554500Y-190500D01*
X-5554500Y-1910750D01*
X-5459250Y-2006000D01*
X-4870000Y-2007843D01*
X-4795311Y-2000487D01*
X-4723492Y-1978701D01*
X-4657304Y-1943322D01*
X-4599289Y-1895711D01*
X-4551678Y-1837696D01*
X-4516299Y-1771508D01*
X-4494513Y-1699689D01*
X-4487157Y-1625000D01*
X-4487673Y-1250000D01*
X-1602843Y-1250000D01*
X-1601000Y-2464250D01*
X-1505750Y-2559500D01*
X-285500Y-2559500D01*
X-285500Y-964250D01*
X-380750Y-869000D01*
X-1220000Y-867157D01*
X-1294689Y-874513D01*
X-1366508Y-896299D01*
X-1432696Y-931678D01*
X-1490711Y-979289D01*
X-1538322Y-1037304D01*
X-1573701Y-1103492D01*
X-1595487Y-1175311D01*
X-1602843Y-1250000D01*
X-4487673Y-1250000D01*
X-4489000Y-285750D01*
X-4584250Y-190500D01*
X-5554500Y-190500D01*
X-5935500Y-190500D01*
X-6905750Y-190500D01*
X-7001000Y-285750D01*
X-7002843Y-1625000D01*
X-10261600Y-1625000D01*
X-10261600Y1625000D01*
X-7002843Y1625000D01*
X-7001000Y285750D01*
X-6905750Y190500D01*
X-5935500Y190500D01*
X-5935500Y1910750D01*
X-5554500Y1910750D01*
X-5554500Y190500D01*
X-4584250Y190500D01*
X-4489000Y285750D01*
X-4487674Y1250000D01*
X-1602843Y1250000D01*
X-1595487Y1175311D01*
X-1573701Y1103492D01*
X-1538322Y1037304D01*
X-1490711Y979289D01*
X-1432696Y931678D01*
X-1366508Y896299D01*
X-1294689Y874513D01*
X-1220000Y867157D01*
X-380750Y869000D01*
X-285500Y964250D01*
X-285500Y2559500D01*
X-1505750Y2559500D01*
X-1601000Y2464250D01*
X-1602843Y1250000D01*
X-4487674Y1250000D01*
X-4487157Y1625000D01*
X-4494513Y1699689D01*
X-4516299Y1771508D01*
X-4551678Y1837696D01*
X-4599289Y1895711D01*
X-4657304Y1943322D01*
X-4723492Y1978701D01*
X-4795311Y2000487D01*
X-4870000Y2007843D01*
X-5459250Y2006000D01*
X-5554500Y1910750D01*
X-5935500Y1910750D01*
X-6030750Y2006000D01*
X-6620000Y2007843D01*
X-6694689Y2000487D01*
X-6766508Y1978701D01*
X-6832696Y1943322D01*
X-6890711Y1895711D01*
X-6938322Y1837696D01*
X-6973701Y1771508D01*
X-6995487Y1699689D01*
X-7002843Y1625000D01*
X-10261600Y1625000D01*
X-10261600Y2827119D01*
X-10085734Y2714117D01*
X-9903406Y2638603D01*
X-9715500Y2690340D01*
X-9715500Y3619500D01*
X-9334500Y3619500D01*
X-9334500Y2690340D01*
X-9146594Y2638603D01*
X-8964266Y2714117D01*
X-8761244Y2844568D01*
X-8641597Y2960000D01*
X-8217843Y2960000D01*
X-8210487Y2885311D01*
X-8188701Y2813492D01*
X-8153322Y2747304D01*
X-8105711Y2689289D01*
X-8047696Y2641678D01*
X-7981508Y2606299D01*
X-7909689Y2584513D01*
X-7835000Y2577157D01*
X-7270750Y2579000D01*
X-7175500Y2674250D01*
X-7175500Y3619500D01*
X-6794500Y3619500D01*
X-6794500Y2674250D01*
X-6699250Y2579000D01*
X-6135000Y2577157D01*
X-6060311Y2584513D01*
X-5988492Y2606299D01*
X-5922304Y2641678D01*
X-5864289Y2689289D01*
X-5816678Y2747304D01*
X-5781299Y2813492D01*
X-5759513Y2885311D01*
X-5752157Y2960000D01*
X-5754000Y3524250D01*
X-5849250Y3619500D01*
X-6794500Y3619500D01*
X-7175500Y3619500D01*
X-8120750Y3619500D01*
X-8216000Y3524250D01*
X-8217843Y2960000D01*
X-8641597Y2960000D01*
X-8587573Y3012120D01*
X-8449927Y3210334D01*
X-8353595Y3431593D01*
X-8404071Y3619500D01*
X-9334500Y3619500D01*
X-9715500Y3619500D01*
X-9735500Y3619500D01*
X-9735500Y4000500D01*
X-9715500Y4000500D01*
X-9715500Y4020500D01*
X-9334500Y4020500D01*
X-9334500Y4000500D01*
X-8404071Y4000500D01*
X-8353595Y4188407D01*
X-8449927Y4409666D01*
X-8545018Y4546600D01*
X-8217473Y4546600D01*
X-8216000Y4095750D01*
X-8216000Y4095750D01*
G37*
X-8216000Y4095750D02*
X-8120750Y4000500D01*
X-7175500Y4000500D01*
X-7175500Y4020500D01*
X-6794500Y4020500D01*
X-6794500Y4000500D01*
X-5849250Y4000500D01*
X-5754000Y4095750D01*
X-5752527Y4546600D01*
X-1459165Y4546600D01*
X-1490711Y4520711D01*
X-1538322Y4462696D01*
X-1573701Y4396508D01*
X-1595487Y4324689D01*
X-1602843Y4250000D01*
X-1601000Y3035750D01*
X-1505750Y2940500D01*
X-285500Y2940500D01*
X-285500Y2960500D01*
X95500Y2960500D01*
X95500Y2940500D01*
X115500Y2940500D01*
X115500Y2559500D01*
X95500Y2559500D01*
X95500Y964250D01*
X190750Y869000D01*
X972157Y867284D01*
X972157Y425000D01*
X984797Y296661D01*
X1022232Y173254D01*
X1083024Y59522D01*
X1131872Y0D01*
X1083024Y-59522D01*
X1022232Y-173254D01*
X984797Y-296661D01*
X972157Y-425000D01*
X972157Y-867284D01*
X190750Y-869000D01*
X95500Y-964250D01*
X95500Y-2559500D01*
X115500Y-2559500D01*
X115500Y-2940500D01*
X95500Y-2940500D01*
X95500Y-2960500D01*
X-285500Y-2960500D01*
X-285500Y-2940500D01*
X-1505750Y-2940500D01*
X-1601000Y-3035750D01*
X-1602843Y-4250000D01*
X-1595487Y-4324689D01*
X-1573701Y-4396508D01*
X-1538322Y-4462696D01*
X-1490711Y-4520711D01*
X-1459165Y-4546600D01*
X-5752527Y-4546600D01*
X-5754000Y-4095750D01*
X-5849250Y-4000500D01*
X-6794500Y-4000500D01*
X-6794500Y-4020500D01*
X-7175500Y-4020500D01*
X-7175500Y-4000500D01*
X-8120750Y-4000500D01*
X-8216000Y-4095750D01*
X-8217473Y-4546600D01*
X-8545018Y-4546600D01*
X-8449927Y-4409666D01*
X-8353595Y-4188407D01*
X-8404071Y-4000500D01*
X-9334500Y-4000500D01*
X-9334500Y-4020500D01*
X-9715500Y-4020500D01*
X-9715500Y-4000500D01*
X-9735500Y-4000500D01*
X-9735500Y-3619500D01*
X-9715500Y-3619500D01*
X-9715500Y-2690340D01*
X-9334500Y-2690340D01*
X-9334500Y-3619500D01*
X-8404071Y-3619500D01*
X-8353595Y-3431593D01*
X-8449927Y-3210334D01*
X-8587573Y-3012120D01*
X-8641596Y-2960000D01*
X-8217843Y-2960000D01*
X-8216000Y-3524250D01*
X-8120750Y-3619500D01*
X-7175500Y-3619500D01*
X-7175500Y-2674250D01*
X-6794500Y-2674250D01*
X-6794500Y-3619500D01*
X-5849250Y-3619500D01*
X-5754000Y-3524250D01*
X-5752157Y-2960000D01*
X-5759513Y-2885311D01*
X-5781299Y-2813492D01*
X-5816678Y-2747304D01*
X-5864289Y-2689289D01*
X-5922304Y-2641678D01*
X-5988492Y-2606299D01*
X-6060311Y-2584513D01*
X-6135000Y-2577157D01*
X-6699250Y-2579000D01*
X-6794500Y-2674250D01*
X-7175500Y-2674250D01*
X-7270750Y-2579000D01*
X-7835000Y-2577157D01*
X-7909689Y-2584513D01*
X-7981508Y-2606299D01*
X-8047696Y-2641678D01*
X-8105711Y-2689289D01*
X-8153322Y-2747304D01*
X-8188701Y-2813492D01*
X-8210487Y-2885311D01*
X-8217843Y-2960000D01*
X-8641596Y-2960000D01*
X-8761244Y-2844568D01*
X-8964266Y-2714117D01*
X-9146594Y-2638603D01*
X-9334500Y-2690340D01*
X-9715500Y-2690340D01*
X-9903406Y-2638603D01*
X-10085734Y-2714117D01*
X-10261600Y-2827119D01*
X-10261600Y-1625000D01*
X-7002843Y-1625000D01*
X-6995487Y-1699689D01*
X-6973701Y-1771508D01*
X-6938322Y-1837696D01*
X-6890711Y-1895711D01*
X-6832696Y-1943322D01*
X-6766508Y-1978701D01*
X-6694689Y-2000487D01*
X-6620000Y-2007843D01*
X-6030750Y-2006000D01*
X-5935500Y-1910750D01*
X-5935500Y-190500D01*
X-5554500Y-190500D01*
X-5554500Y-1910750D01*
X-5459250Y-2006000D01*
X-4870000Y-2007843D01*
X-4795311Y-2000487D01*
X-4723492Y-1978701D01*
X-4657304Y-1943322D01*
X-4599289Y-1895711D01*
X-4551678Y-1837696D01*
X-4516299Y-1771508D01*
X-4494513Y-1699689D01*
X-4487157Y-1625000D01*
X-4487673Y-1250000D01*
X-1602843Y-1250000D01*
X-1601000Y-2464250D01*
X-1505750Y-2559500D01*
X-285500Y-2559500D01*
X-285500Y-964250D01*
X-380750Y-869000D01*
X-1220000Y-867157D01*
X-1294689Y-874513D01*
X-1366508Y-896299D01*
X-1432696Y-931678D01*
X-1490711Y-979289D01*
X-1538322Y-1037304D01*
X-1573701Y-1103492D01*
X-1595487Y-1175311D01*
X-1602843Y-1250000D01*
X-4487673Y-1250000D01*
X-4489000Y-285750D01*
X-4584250Y-190500D01*
X-5554500Y-190500D01*
X-5935500Y-190500D01*
X-6905750Y-190500D01*
X-7001000Y-285750D01*
X-7002843Y-1625000D01*
X-10261600Y-1625000D01*
X-10261600Y1625000D01*
X-7002843Y1625000D01*
X-7001000Y285750D01*
X-6905750Y190500D01*
X-5935500Y190500D01*
X-5935500Y1910750D01*
X-5554500Y1910750D01*
X-5554500Y190500D01*
X-4584250Y190500D01*
X-4489000Y285750D01*
X-4487674Y1250000D01*
X-1602843Y1250000D01*
X-1595487Y1175311D01*
X-1573701Y1103492D01*
X-1538322Y1037304D01*
X-1490711Y979289D01*
X-1432696Y931678D01*
X-1366508Y896299D01*
X-1294689Y874513D01*
X-1220000Y867157D01*
X-380750Y869000D01*
X-285500Y964250D01*
X-285500Y2559500D01*
X-1505750Y2559500D01*
X-1601000Y2464250D01*
X-1602843Y1250000D01*
X-4487674Y1250000D01*
X-4487157Y1625000D01*
X-4494513Y1699689D01*
X-4516299Y1771508D01*
X-4551678Y1837696D01*
X-4599289Y1895711D01*
X-4657304Y1943322D01*
X-4723492Y1978701D01*
X-4795311Y2000487D01*
X-4870000Y2007843D01*
X-5459250Y2006000D01*
X-5554500Y1910750D01*
X-5935500Y1910750D01*
X-6030750Y2006000D01*
X-6620000Y2007843D01*
X-6694689Y2000487D01*
X-6766508Y1978701D01*
X-6832696Y1943322D01*
X-6890711Y1895711D01*
X-6938322Y1837696D01*
X-6973701Y1771508D01*
X-6995487Y1699689D01*
X-7002843Y1625000D01*
X-10261600Y1625000D01*
X-10261600Y2827119D01*
X-10085734Y2714117D01*
X-9903406Y2638603D01*
X-9715500Y2690340D01*
X-9715500Y3619500D01*
X-9334500Y3619500D01*
X-9334500Y2690340D01*
X-9146594Y2638603D01*
X-8964266Y2714117D01*
X-8761244Y2844568D01*
X-8641597Y2960000D01*
X-8217843Y2960000D01*
X-8210487Y2885311D01*
X-8188701Y2813492D01*
X-8153322Y2747304D01*
X-8105711Y2689289D01*
X-8047696Y2641678D01*
X-7981508Y2606299D01*
X-7909689Y2584513D01*
X-7835000Y2577157D01*
X-7270750Y2579000D01*
X-7175500Y2674250D01*
X-7175500Y3619500D01*
X-6794500Y3619500D01*
X-6794500Y2674250D01*
X-6699250Y2579000D01*
X-6135000Y2577157D01*
X-6060311Y2584513D01*
X-5988492Y2606299D01*
X-5922304Y2641678D01*
X-5864289Y2689289D01*
X-5816678Y2747304D01*
X-5781299Y2813492D01*
X-5759513Y2885311D01*
X-5752157Y2960000D01*
X-5754000Y3524250D01*
X-5849250Y3619500D01*
X-6794500Y3619500D01*
X-7175500Y3619500D01*
X-8120750Y3619500D01*
X-8216000Y3524250D01*
X-8217843Y2960000D01*
X-8641597Y2960000D01*
X-8587573Y3012120D01*
X-8449927Y3210334D01*
X-8353595Y3431593D01*
X-8404071Y3619500D01*
X-9334500Y3619500D01*
X-9715500Y3619500D01*
X-9735500Y3619500D01*
X-9735500Y4000500D01*
X-9715500Y4000500D01*
X-9715500Y4020500D01*
X-9334500Y4020500D01*
X-9334500Y4000500D01*
X-8404071Y4000500D01*
X-8353595Y4188407D01*
X-8449927Y4409666D01*
X-8545018Y4546600D01*
X-8217473Y4546600D01*
X-8216000Y4095750D01*
M02*
