G04 #@! TF.GenerationSoftware,KiCad,Pcbnew,(5.1.4)-1*
G04 #@! TF.CreationDate,2020-03-27T16:40:10-04:00*
G04 #@! TF.ProjectId,gantry_x_motor_breakout,67616e74-7279-45f7-985f-6d6f746f725f,rev?*
G04 #@! TF.SameCoordinates,Original*
G04 #@! TF.FileFunction,Soldermask,Bot*
G04 #@! TF.FilePolarity,Negative*
%FSLAX46Y46*%
G04 Gerber Fmt 4.6, Leading zero omitted, Abs format (unit mm)*
G04 Created by KiCad (PCBNEW (5.1.4)-1) date 2020-03-27 16:40:10*
%MOMM*%
%LPD*%
G04 APERTURE LIST*
%ADD10C,0.100000*%
G04 APERTURE END LIST*
D10*
G36*
X148926588Y-122987234D02*
G01*
X148926591Y-122987235D01*
X149096388Y-123038742D01*
X149252878Y-123122388D01*
X149390043Y-123234957D01*
X149502612Y-123372122D01*
X149586258Y-123528612D01*
X149631875Y-123678992D01*
X149637766Y-123698413D01*
X149650800Y-123830752D01*
X149650800Y-124169249D01*
X149637766Y-124301588D01*
X149637765Y-124301590D01*
X149637765Y-124301591D01*
X149586258Y-124471388D01*
X149502612Y-124627878D01*
X149390043Y-124765043D01*
X149252877Y-124877612D01*
X149096387Y-124961258D01*
X148950101Y-125005633D01*
X148926587Y-125012766D01*
X148750000Y-125030158D01*
X148573412Y-125012766D01*
X148549898Y-125005633D01*
X148403612Y-124961258D01*
X148247122Y-124877612D01*
X148109957Y-124765043D01*
X147997388Y-124627877D01*
X147913742Y-124471387D01*
X147862235Y-124301590D01*
X147862234Y-124301587D01*
X147849200Y-124169248D01*
X147849200Y-123830751D01*
X147862234Y-123698412D01*
X147868125Y-123678992D01*
X147913742Y-123528612D01*
X147997388Y-123372122D01*
X148109957Y-123234957D01*
X148247123Y-123122388D01*
X148403613Y-123038742D01*
X148573410Y-122987235D01*
X148573413Y-122987234D01*
X148750000Y-122969842D01*
X148926588Y-122987234D01*
X148926588Y-122987234D01*
G37*
G36*
X151426588Y-122987234D02*
G01*
X151426591Y-122987235D01*
X151596388Y-123038742D01*
X151752878Y-123122388D01*
X151890043Y-123234957D01*
X152002612Y-123372122D01*
X152086258Y-123528612D01*
X152131875Y-123678992D01*
X152137766Y-123698413D01*
X152150800Y-123830752D01*
X152150800Y-124169249D01*
X152137766Y-124301588D01*
X152137765Y-124301590D01*
X152137765Y-124301591D01*
X152086258Y-124471388D01*
X152002612Y-124627878D01*
X151890043Y-124765043D01*
X151752877Y-124877612D01*
X151596387Y-124961258D01*
X151450101Y-125005633D01*
X151426587Y-125012766D01*
X151250000Y-125030158D01*
X151073412Y-125012766D01*
X151049898Y-125005633D01*
X150903612Y-124961258D01*
X150747122Y-124877612D01*
X150609957Y-124765043D01*
X150497388Y-124627877D01*
X150413742Y-124471387D01*
X150362235Y-124301590D01*
X150362234Y-124301587D01*
X150349200Y-124169248D01*
X150349200Y-123830751D01*
X150362234Y-123698412D01*
X150368125Y-123678992D01*
X150413742Y-123528612D01*
X150497388Y-123372122D01*
X150609957Y-123234957D01*
X150747123Y-123122388D01*
X150903613Y-123038742D01*
X151073410Y-122987235D01*
X151073413Y-122987234D01*
X151250000Y-122969842D01*
X151426588Y-122987234D01*
X151426588Y-122987234D01*
G37*
G36*
X146426588Y-122987234D02*
G01*
X146426591Y-122987235D01*
X146596388Y-123038742D01*
X146752878Y-123122388D01*
X146890043Y-123234957D01*
X147002612Y-123372122D01*
X147086258Y-123528612D01*
X147131875Y-123678992D01*
X147137766Y-123698413D01*
X147150800Y-123830752D01*
X147150800Y-124169249D01*
X147137766Y-124301588D01*
X147137765Y-124301590D01*
X147137765Y-124301591D01*
X147086258Y-124471388D01*
X147002612Y-124627878D01*
X146890043Y-124765043D01*
X146752877Y-124877612D01*
X146596387Y-124961258D01*
X146450101Y-125005633D01*
X146426587Y-125012766D01*
X146250000Y-125030158D01*
X146073412Y-125012766D01*
X146049898Y-125005633D01*
X145903612Y-124961258D01*
X145747122Y-124877612D01*
X145609957Y-124765043D01*
X145497388Y-124627877D01*
X145413742Y-124471387D01*
X145362235Y-124301590D01*
X145362234Y-124301587D01*
X145349200Y-124169248D01*
X145349200Y-123830751D01*
X145362234Y-123698412D01*
X145368125Y-123678992D01*
X145413742Y-123528612D01*
X145497388Y-123372122D01*
X145609957Y-123234957D01*
X145747123Y-123122388D01*
X145903613Y-123038742D01*
X146073410Y-122987235D01*
X146073413Y-122987234D01*
X146250000Y-122969842D01*
X146426588Y-122987234D01*
X146426588Y-122987234D01*
G37*
G36*
X154451957Y-122979067D02*
G01*
X154498266Y-122993115D01*
X154540951Y-123015931D01*
X154578365Y-123046635D01*
X154609069Y-123084049D01*
X154631885Y-123126734D01*
X154645933Y-123173043D01*
X154650800Y-123222462D01*
X154650800Y-124777538D01*
X154645933Y-124826957D01*
X154631885Y-124873266D01*
X154609069Y-124915951D01*
X154578365Y-124953365D01*
X154540951Y-124984069D01*
X154498266Y-125006885D01*
X154451957Y-125020933D01*
X154402538Y-125025800D01*
X153097462Y-125025800D01*
X153048043Y-125020933D01*
X153001734Y-125006885D01*
X152959049Y-124984069D01*
X152921635Y-124953365D01*
X152890931Y-124915951D01*
X152868115Y-124873266D01*
X152854067Y-124826957D01*
X152849200Y-124777538D01*
X152849200Y-123222462D01*
X152854067Y-123173043D01*
X152868115Y-123126734D01*
X152890931Y-123084049D01*
X152921635Y-123046635D01*
X152959049Y-123015931D01*
X153001734Y-122993115D01*
X153048043Y-122979067D01*
X153097462Y-122974200D01*
X154402538Y-122974200D01*
X154451957Y-122979067D01*
X154451957Y-122979067D01*
G37*
G36*
X135448223Y-112374127D02*
G01*
X135752107Y-112500000D01*
X136039835Y-112619180D01*
X136572262Y-112974937D01*
X137025063Y-113427738D01*
X137380820Y-113960165D01*
X137489193Y-114221802D01*
X137625873Y-114551777D01*
X137750800Y-115179824D01*
X137750800Y-115820176D01*
X137625873Y-116448223D01*
X137489193Y-116778198D01*
X137380820Y-117039835D01*
X137025063Y-117572262D01*
X136572262Y-118025063D01*
X136039835Y-118380820D01*
X135778198Y-118489193D01*
X135448223Y-118625873D01*
X134820176Y-118750800D01*
X134179824Y-118750800D01*
X133551777Y-118625873D01*
X133221802Y-118489193D01*
X132960165Y-118380820D01*
X132427738Y-118025063D01*
X131974937Y-117572262D01*
X131619180Y-117039835D01*
X131510807Y-116778198D01*
X131374127Y-116448223D01*
X131249200Y-115820176D01*
X131249200Y-115179824D01*
X131374127Y-114551777D01*
X131510807Y-114221802D01*
X131619180Y-113960165D01*
X131974937Y-113427738D01*
X132427738Y-112974937D01*
X132960165Y-112619180D01*
X133247893Y-112500000D01*
X133551777Y-112374127D01*
X134179824Y-112249200D01*
X134820176Y-112249200D01*
X135448223Y-112374127D01*
X135448223Y-112374127D01*
G37*
G36*
X166448223Y-112374127D02*
G01*
X166752107Y-112500000D01*
X167039835Y-112619180D01*
X167572262Y-112974937D01*
X168025063Y-113427738D01*
X168380820Y-113960165D01*
X168489193Y-114221802D01*
X168625873Y-114551777D01*
X168750800Y-115179824D01*
X168750800Y-115820176D01*
X168625873Y-116448223D01*
X168489193Y-116778198D01*
X168380820Y-117039835D01*
X168025063Y-117572262D01*
X167572262Y-118025063D01*
X167039835Y-118380820D01*
X166778198Y-118489193D01*
X166448223Y-118625873D01*
X165820176Y-118750800D01*
X165179824Y-118750800D01*
X164551777Y-118625873D01*
X164221802Y-118489193D01*
X163960165Y-118380820D01*
X163427738Y-118025063D01*
X162974937Y-117572262D01*
X162619180Y-117039835D01*
X162510807Y-116778198D01*
X162374127Y-116448223D01*
X162249200Y-115820176D01*
X162249200Y-115179824D01*
X162374127Y-114551777D01*
X162510807Y-114221802D01*
X162619180Y-113960165D01*
X162974937Y-113427738D01*
X163427738Y-112974937D01*
X163960165Y-112619180D01*
X164247893Y-112500000D01*
X164551777Y-112374127D01*
X165179824Y-112249200D01*
X165820176Y-112249200D01*
X166448223Y-112374127D01*
X166448223Y-112374127D01*
G37*
G36*
X106238502Y-111588908D02*
G01*
X106339257Y-111598831D01*
X106511617Y-111651116D01*
X106670471Y-111736025D01*
X106719833Y-111776536D01*
X106809707Y-111850293D01*
X106883464Y-111940167D01*
X106923975Y-111989529D01*
X107008884Y-112148383D01*
X107061169Y-112320743D01*
X107078824Y-112500000D01*
X107061169Y-112679257D01*
X107008884Y-112851617D01*
X106923975Y-113010471D01*
X106883464Y-113059833D01*
X106809707Y-113149707D01*
X106719833Y-113223464D01*
X106670471Y-113263975D01*
X106511617Y-113348884D01*
X106339257Y-113401169D01*
X106238502Y-113411092D01*
X106204918Y-113414400D01*
X106115082Y-113414400D01*
X106081498Y-113411092D01*
X105980743Y-113401169D01*
X105808383Y-113348884D01*
X105649529Y-113263975D01*
X105600167Y-113223464D01*
X105510293Y-113149707D01*
X105436536Y-113059833D01*
X105396025Y-113010471D01*
X105311116Y-112851617D01*
X105258831Y-112679257D01*
X105241176Y-112500000D01*
X105258831Y-112320743D01*
X105311116Y-112148383D01*
X105396025Y-111989529D01*
X105436536Y-111940167D01*
X105510293Y-111850293D01*
X105600167Y-111776536D01*
X105649529Y-111736025D01*
X105808383Y-111651116D01*
X105980743Y-111598831D01*
X106081498Y-111588908D01*
X106115082Y-111585600D01*
X106204918Y-111585600D01*
X106238502Y-111588908D01*
X106238502Y-111588908D01*
G37*
G36*
X91834400Y-113414400D02*
G01*
X90005600Y-113414400D01*
X90005600Y-111585600D01*
X91834400Y-111585600D01*
X91834400Y-113414400D01*
X91834400Y-113414400D01*
G37*
G36*
X93538502Y-111588908D02*
G01*
X93639257Y-111598831D01*
X93811617Y-111651116D01*
X93970471Y-111736025D01*
X94019833Y-111776536D01*
X94109707Y-111850293D01*
X94183464Y-111940167D01*
X94223975Y-111989529D01*
X94308884Y-112148383D01*
X94361169Y-112320743D01*
X94378824Y-112500000D01*
X94361169Y-112679257D01*
X94308884Y-112851617D01*
X94223975Y-113010471D01*
X94183464Y-113059833D01*
X94109707Y-113149707D01*
X94019833Y-113223464D01*
X93970471Y-113263975D01*
X93811617Y-113348884D01*
X93639257Y-113401169D01*
X93538502Y-113411092D01*
X93504918Y-113414400D01*
X93415082Y-113414400D01*
X93381498Y-113411092D01*
X93280743Y-113401169D01*
X93108383Y-113348884D01*
X92949529Y-113263975D01*
X92900167Y-113223464D01*
X92810293Y-113149707D01*
X92736536Y-113059833D01*
X92696025Y-113010471D01*
X92611116Y-112851617D01*
X92558831Y-112679257D01*
X92541176Y-112500000D01*
X92558831Y-112320743D01*
X92611116Y-112148383D01*
X92696025Y-111989529D01*
X92736536Y-111940167D01*
X92810293Y-111850293D01*
X92900167Y-111776536D01*
X92949529Y-111736025D01*
X93108383Y-111651116D01*
X93280743Y-111598831D01*
X93381498Y-111588908D01*
X93415082Y-111585600D01*
X93504918Y-111585600D01*
X93538502Y-111588908D01*
X93538502Y-111588908D01*
G37*
G36*
X98618502Y-111588908D02*
G01*
X98719257Y-111598831D01*
X98891617Y-111651116D01*
X99050471Y-111736025D01*
X99099833Y-111776536D01*
X99189707Y-111850293D01*
X99263464Y-111940167D01*
X99303975Y-111989529D01*
X99388884Y-112148383D01*
X99441169Y-112320743D01*
X99458824Y-112500000D01*
X99441169Y-112679257D01*
X99388884Y-112851617D01*
X99303975Y-113010471D01*
X99263464Y-113059833D01*
X99189707Y-113149707D01*
X99099833Y-113223464D01*
X99050471Y-113263975D01*
X98891617Y-113348884D01*
X98719257Y-113401169D01*
X98618502Y-113411092D01*
X98584918Y-113414400D01*
X98495082Y-113414400D01*
X98461498Y-113411092D01*
X98360743Y-113401169D01*
X98188383Y-113348884D01*
X98029529Y-113263975D01*
X97980167Y-113223464D01*
X97890293Y-113149707D01*
X97816536Y-113059833D01*
X97776025Y-113010471D01*
X97691116Y-112851617D01*
X97638831Y-112679257D01*
X97621176Y-112500000D01*
X97638831Y-112320743D01*
X97691116Y-112148383D01*
X97776025Y-111989529D01*
X97816536Y-111940167D01*
X97890293Y-111850293D01*
X97980167Y-111776536D01*
X98029529Y-111736025D01*
X98188383Y-111651116D01*
X98360743Y-111598831D01*
X98461498Y-111588908D01*
X98495082Y-111585600D01*
X98584918Y-111585600D01*
X98618502Y-111588908D01*
X98618502Y-111588908D01*
G37*
G36*
X101158502Y-111588908D02*
G01*
X101259257Y-111598831D01*
X101431617Y-111651116D01*
X101590471Y-111736025D01*
X101639833Y-111776536D01*
X101729707Y-111850293D01*
X101803464Y-111940167D01*
X101843975Y-111989529D01*
X101928884Y-112148383D01*
X101981169Y-112320743D01*
X101998824Y-112500000D01*
X101981169Y-112679257D01*
X101928884Y-112851617D01*
X101843975Y-113010471D01*
X101803464Y-113059833D01*
X101729707Y-113149707D01*
X101639833Y-113223464D01*
X101590471Y-113263975D01*
X101431617Y-113348884D01*
X101259257Y-113401169D01*
X101158502Y-113411092D01*
X101124918Y-113414400D01*
X101035082Y-113414400D01*
X101001498Y-113411092D01*
X100900743Y-113401169D01*
X100728383Y-113348884D01*
X100569529Y-113263975D01*
X100520167Y-113223464D01*
X100430293Y-113149707D01*
X100356536Y-113059833D01*
X100316025Y-113010471D01*
X100231116Y-112851617D01*
X100178831Y-112679257D01*
X100161176Y-112500000D01*
X100178831Y-112320743D01*
X100231116Y-112148383D01*
X100316025Y-111989529D01*
X100356536Y-111940167D01*
X100430293Y-111850293D01*
X100520167Y-111776536D01*
X100569529Y-111736025D01*
X100728383Y-111651116D01*
X100900743Y-111598831D01*
X101001498Y-111588908D01*
X101035082Y-111585600D01*
X101124918Y-111585600D01*
X101158502Y-111588908D01*
X101158502Y-111588908D01*
G37*
G36*
X103698502Y-111588908D02*
G01*
X103799257Y-111598831D01*
X103971617Y-111651116D01*
X104130471Y-111736025D01*
X104179833Y-111776536D01*
X104269707Y-111850293D01*
X104343464Y-111940167D01*
X104383975Y-111989529D01*
X104468884Y-112148383D01*
X104521169Y-112320743D01*
X104538824Y-112500000D01*
X104521169Y-112679257D01*
X104468884Y-112851617D01*
X104383975Y-113010471D01*
X104343464Y-113059833D01*
X104269707Y-113149707D01*
X104179833Y-113223464D01*
X104130471Y-113263975D01*
X103971617Y-113348884D01*
X103799257Y-113401169D01*
X103698502Y-113411092D01*
X103664918Y-113414400D01*
X103575082Y-113414400D01*
X103541498Y-113411092D01*
X103440743Y-113401169D01*
X103268383Y-113348884D01*
X103109529Y-113263975D01*
X103060167Y-113223464D01*
X102970293Y-113149707D01*
X102896536Y-113059833D01*
X102856025Y-113010471D01*
X102771116Y-112851617D01*
X102718831Y-112679257D01*
X102701176Y-112500000D01*
X102718831Y-112320743D01*
X102771116Y-112148383D01*
X102856025Y-111989529D01*
X102896536Y-111940167D01*
X102970293Y-111850293D01*
X103060167Y-111776536D01*
X103109529Y-111736025D01*
X103268383Y-111651116D01*
X103440743Y-111598831D01*
X103541498Y-111588908D01*
X103575082Y-111585600D01*
X103664918Y-111585600D01*
X103698502Y-111588908D01*
X103698502Y-111588908D01*
G37*
G36*
X108778502Y-111588908D02*
G01*
X108879257Y-111598831D01*
X109051617Y-111651116D01*
X109210471Y-111736025D01*
X109259833Y-111776536D01*
X109349707Y-111850293D01*
X109423464Y-111940167D01*
X109463975Y-111989529D01*
X109548884Y-112148383D01*
X109601169Y-112320743D01*
X109618824Y-112500000D01*
X109601169Y-112679257D01*
X109548884Y-112851617D01*
X109463975Y-113010471D01*
X109423464Y-113059833D01*
X109349707Y-113149707D01*
X109259833Y-113223464D01*
X109210471Y-113263975D01*
X109051617Y-113348884D01*
X108879257Y-113401169D01*
X108778502Y-113411092D01*
X108744918Y-113414400D01*
X108655082Y-113414400D01*
X108621498Y-113411092D01*
X108520743Y-113401169D01*
X108348383Y-113348884D01*
X108189529Y-113263975D01*
X108140167Y-113223464D01*
X108050293Y-113149707D01*
X107976536Y-113059833D01*
X107936025Y-113010471D01*
X107851116Y-112851617D01*
X107798831Y-112679257D01*
X107781176Y-112500000D01*
X107798831Y-112320743D01*
X107851116Y-112148383D01*
X107936025Y-111989529D01*
X107976536Y-111940167D01*
X108050293Y-111850293D01*
X108140167Y-111776536D01*
X108189529Y-111736025D01*
X108348383Y-111651116D01*
X108520743Y-111598831D01*
X108621498Y-111588908D01*
X108655082Y-111585600D01*
X108744918Y-111585600D01*
X108778502Y-111588908D01*
X108778502Y-111588908D01*
G37*
G36*
X111318502Y-111588908D02*
G01*
X111419257Y-111598831D01*
X111591617Y-111651116D01*
X111750471Y-111736025D01*
X111799833Y-111776536D01*
X111889707Y-111850293D01*
X111963464Y-111940167D01*
X112003975Y-111989529D01*
X112088884Y-112148383D01*
X112141169Y-112320743D01*
X112158824Y-112500000D01*
X112141169Y-112679257D01*
X112088884Y-112851617D01*
X112003975Y-113010471D01*
X111963464Y-113059833D01*
X111889707Y-113149707D01*
X111799833Y-113223464D01*
X111750471Y-113263975D01*
X111591617Y-113348884D01*
X111419257Y-113401169D01*
X111318502Y-113411092D01*
X111284918Y-113414400D01*
X111195082Y-113414400D01*
X111161498Y-113411092D01*
X111060743Y-113401169D01*
X110888383Y-113348884D01*
X110729529Y-113263975D01*
X110680167Y-113223464D01*
X110590293Y-113149707D01*
X110516536Y-113059833D01*
X110476025Y-113010471D01*
X110391116Y-112851617D01*
X110338831Y-112679257D01*
X110321176Y-112500000D01*
X110338831Y-112320743D01*
X110391116Y-112148383D01*
X110476025Y-111989529D01*
X110516536Y-111940167D01*
X110590293Y-111850293D01*
X110680167Y-111776536D01*
X110729529Y-111736025D01*
X110888383Y-111651116D01*
X111060743Y-111598831D01*
X111161498Y-111588908D01*
X111195082Y-111585600D01*
X111284918Y-111585600D01*
X111318502Y-111588908D01*
X111318502Y-111588908D01*
G37*
G36*
X113858502Y-111588908D02*
G01*
X113959257Y-111598831D01*
X114131617Y-111651116D01*
X114290471Y-111736025D01*
X114339833Y-111776536D01*
X114429707Y-111850293D01*
X114503464Y-111940167D01*
X114543975Y-111989529D01*
X114628884Y-112148383D01*
X114681169Y-112320743D01*
X114698824Y-112500000D01*
X114681169Y-112679257D01*
X114628884Y-112851617D01*
X114543975Y-113010471D01*
X114503464Y-113059833D01*
X114429707Y-113149707D01*
X114339833Y-113223464D01*
X114290471Y-113263975D01*
X114131617Y-113348884D01*
X113959257Y-113401169D01*
X113858502Y-113411092D01*
X113824918Y-113414400D01*
X113735082Y-113414400D01*
X113701498Y-113411092D01*
X113600743Y-113401169D01*
X113428383Y-113348884D01*
X113269529Y-113263975D01*
X113220167Y-113223464D01*
X113130293Y-113149707D01*
X113056536Y-113059833D01*
X113016025Y-113010471D01*
X112931116Y-112851617D01*
X112878831Y-112679257D01*
X112861176Y-112500000D01*
X112878831Y-112320743D01*
X112931116Y-112148383D01*
X113016025Y-111989529D01*
X113056536Y-111940167D01*
X113130293Y-111850293D01*
X113220167Y-111776536D01*
X113269529Y-111736025D01*
X113428383Y-111651116D01*
X113600743Y-111598831D01*
X113701498Y-111588908D01*
X113735082Y-111585600D01*
X113824918Y-111585600D01*
X113858502Y-111588908D01*
X113858502Y-111588908D01*
G37*
G36*
X96078502Y-111588908D02*
G01*
X96179257Y-111598831D01*
X96351617Y-111651116D01*
X96510471Y-111736025D01*
X96559833Y-111776536D01*
X96649707Y-111850293D01*
X96723464Y-111940167D01*
X96763975Y-111989529D01*
X96848884Y-112148383D01*
X96901169Y-112320743D01*
X96918824Y-112500000D01*
X96901169Y-112679257D01*
X96848884Y-112851617D01*
X96763975Y-113010471D01*
X96723464Y-113059833D01*
X96649707Y-113149707D01*
X96559833Y-113223464D01*
X96510471Y-113263975D01*
X96351617Y-113348884D01*
X96179257Y-113401169D01*
X96078502Y-113411092D01*
X96044918Y-113414400D01*
X95955082Y-113414400D01*
X95921498Y-113411092D01*
X95820743Y-113401169D01*
X95648383Y-113348884D01*
X95489529Y-113263975D01*
X95440167Y-113223464D01*
X95350293Y-113149707D01*
X95276536Y-113059833D01*
X95236025Y-113010471D01*
X95151116Y-112851617D01*
X95098831Y-112679257D01*
X95081176Y-112500000D01*
X95098831Y-112320743D01*
X95151116Y-112148383D01*
X95236025Y-111989529D01*
X95276536Y-111940167D01*
X95350293Y-111850293D01*
X95440167Y-111776536D01*
X95489529Y-111736025D01*
X95648383Y-111651116D01*
X95820743Y-111598831D01*
X95921498Y-111588908D01*
X95955082Y-111585600D01*
X96044918Y-111585600D01*
X96078502Y-111588908D01*
X96078502Y-111588908D01*
G37*
G36*
X113858502Y-109048908D02*
G01*
X113959257Y-109058831D01*
X114131617Y-109111116D01*
X114290471Y-109196025D01*
X114339833Y-109236536D01*
X114429707Y-109310293D01*
X114503464Y-109400167D01*
X114543975Y-109449529D01*
X114628884Y-109608383D01*
X114681169Y-109780743D01*
X114698824Y-109960000D01*
X114681169Y-110139257D01*
X114628884Y-110311617D01*
X114543975Y-110470471D01*
X114503464Y-110519833D01*
X114429707Y-110609707D01*
X114339833Y-110683464D01*
X114290471Y-110723975D01*
X114131617Y-110808884D01*
X113959257Y-110861169D01*
X113858502Y-110871092D01*
X113824918Y-110874400D01*
X113735082Y-110874400D01*
X113701498Y-110871092D01*
X113600743Y-110861169D01*
X113428383Y-110808884D01*
X113269529Y-110723975D01*
X113220167Y-110683464D01*
X113130293Y-110609707D01*
X113056536Y-110519833D01*
X113016025Y-110470471D01*
X112931116Y-110311617D01*
X112878831Y-110139257D01*
X112861176Y-109960000D01*
X112878831Y-109780743D01*
X112931116Y-109608383D01*
X113016025Y-109449529D01*
X113056536Y-109400167D01*
X113130293Y-109310293D01*
X113220167Y-109236536D01*
X113269529Y-109196025D01*
X113428383Y-109111116D01*
X113600743Y-109058831D01*
X113701498Y-109048908D01*
X113735082Y-109045600D01*
X113824918Y-109045600D01*
X113858502Y-109048908D01*
X113858502Y-109048908D01*
G37*
G36*
X90998502Y-109048908D02*
G01*
X91099257Y-109058831D01*
X91271617Y-109111116D01*
X91430471Y-109196025D01*
X91479833Y-109236536D01*
X91569707Y-109310293D01*
X91643464Y-109400167D01*
X91683975Y-109449529D01*
X91768884Y-109608383D01*
X91821169Y-109780743D01*
X91838824Y-109960000D01*
X91821169Y-110139257D01*
X91768884Y-110311617D01*
X91683975Y-110470471D01*
X91643464Y-110519833D01*
X91569707Y-110609707D01*
X91479833Y-110683464D01*
X91430471Y-110723975D01*
X91271617Y-110808884D01*
X91099257Y-110861169D01*
X90998502Y-110871092D01*
X90964918Y-110874400D01*
X90875082Y-110874400D01*
X90841498Y-110871092D01*
X90740743Y-110861169D01*
X90568383Y-110808884D01*
X90409529Y-110723975D01*
X90360167Y-110683464D01*
X90270293Y-110609707D01*
X90196536Y-110519833D01*
X90156025Y-110470471D01*
X90071116Y-110311617D01*
X90018831Y-110139257D01*
X90001176Y-109960000D01*
X90018831Y-109780743D01*
X90071116Y-109608383D01*
X90156025Y-109449529D01*
X90196536Y-109400167D01*
X90270293Y-109310293D01*
X90360167Y-109236536D01*
X90409529Y-109196025D01*
X90568383Y-109111116D01*
X90740743Y-109058831D01*
X90841498Y-109048908D01*
X90875082Y-109045600D01*
X90964918Y-109045600D01*
X90998502Y-109048908D01*
X90998502Y-109048908D01*
G37*
G36*
X111318502Y-109048908D02*
G01*
X111419257Y-109058831D01*
X111591617Y-109111116D01*
X111750471Y-109196025D01*
X111799833Y-109236536D01*
X111889707Y-109310293D01*
X111963464Y-109400167D01*
X112003975Y-109449529D01*
X112088884Y-109608383D01*
X112141169Y-109780743D01*
X112158824Y-109960000D01*
X112141169Y-110139257D01*
X112088884Y-110311617D01*
X112003975Y-110470471D01*
X111963464Y-110519833D01*
X111889707Y-110609707D01*
X111799833Y-110683464D01*
X111750471Y-110723975D01*
X111591617Y-110808884D01*
X111419257Y-110861169D01*
X111318502Y-110871092D01*
X111284918Y-110874400D01*
X111195082Y-110874400D01*
X111161498Y-110871092D01*
X111060743Y-110861169D01*
X110888383Y-110808884D01*
X110729529Y-110723975D01*
X110680167Y-110683464D01*
X110590293Y-110609707D01*
X110516536Y-110519833D01*
X110476025Y-110470471D01*
X110391116Y-110311617D01*
X110338831Y-110139257D01*
X110321176Y-109960000D01*
X110338831Y-109780743D01*
X110391116Y-109608383D01*
X110476025Y-109449529D01*
X110516536Y-109400167D01*
X110590293Y-109310293D01*
X110680167Y-109236536D01*
X110729529Y-109196025D01*
X110888383Y-109111116D01*
X111060743Y-109058831D01*
X111161498Y-109048908D01*
X111195082Y-109045600D01*
X111284918Y-109045600D01*
X111318502Y-109048908D01*
X111318502Y-109048908D01*
G37*
G36*
X93538502Y-109048908D02*
G01*
X93639257Y-109058831D01*
X93811617Y-109111116D01*
X93970471Y-109196025D01*
X94019833Y-109236536D01*
X94109707Y-109310293D01*
X94183464Y-109400167D01*
X94223975Y-109449529D01*
X94308884Y-109608383D01*
X94361169Y-109780743D01*
X94378824Y-109960000D01*
X94361169Y-110139257D01*
X94308884Y-110311617D01*
X94223975Y-110470471D01*
X94183464Y-110519833D01*
X94109707Y-110609707D01*
X94019833Y-110683464D01*
X93970471Y-110723975D01*
X93811617Y-110808884D01*
X93639257Y-110861169D01*
X93538502Y-110871092D01*
X93504918Y-110874400D01*
X93415082Y-110874400D01*
X93381498Y-110871092D01*
X93280743Y-110861169D01*
X93108383Y-110808884D01*
X92949529Y-110723975D01*
X92900167Y-110683464D01*
X92810293Y-110609707D01*
X92736536Y-110519833D01*
X92696025Y-110470471D01*
X92611116Y-110311617D01*
X92558831Y-110139257D01*
X92541176Y-109960000D01*
X92558831Y-109780743D01*
X92611116Y-109608383D01*
X92696025Y-109449529D01*
X92736536Y-109400167D01*
X92810293Y-109310293D01*
X92900167Y-109236536D01*
X92949529Y-109196025D01*
X93108383Y-109111116D01*
X93280743Y-109058831D01*
X93381498Y-109048908D01*
X93415082Y-109045600D01*
X93504918Y-109045600D01*
X93538502Y-109048908D01*
X93538502Y-109048908D01*
G37*
G36*
X108778502Y-109048908D02*
G01*
X108879257Y-109058831D01*
X109051617Y-109111116D01*
X109210471Y-109196025D01*
X109259833Y-109236536D01*
X109349707Y-109310293D01*
X109423464Y-109400167D01*
X109463975Y-109449529D01*
X109548884Y-109608383D01*
X109601169Y-109780743D01*
X109618824Y-109960000D01*
X109601169Y-110139257D01*
X109548884Y-110311617D01*
X109463975Y-110470471D01*
X109423464Y-110519833D01*
X109349707Y-110609707D01*
X109259833Y-110683464D01*
X109210471Y-110723975D01*
X109051617Y-110808884D01*
X108879257Y-110861169D01*
X108778502Y-110871092D01*
X108744918Y-110874400D01*
X108655082Y-110874400D01*
X108621498Y-110871092D01*
X108520743Y-110861169D01*
X108348383Y-110808884D01*
X108189529Y-110723975D01*
X108140167Y-110683464D01*
X108050293Y-110609707D01*
X107976536Y-110519833D01*
X107936025Y-110470471D01*
X107851116Y-110311617D01*
X107798831Y-110139257D01*
X107781176Y-109960000D01*
X107798831Y-109780743D01*
X107851116Y-109608383D01*
X107936025Y-109449529D01*
X107976536Y-109400167D01*
X108050293Y-109310293D01*
X108140167Y-109236536D01*
X108189529Y-109196025D01*
X108348383Y-109111116D01*
X108520743Y-109058831D01*
X108621498Y-109048908D01*
X108655082Y-109045600D01*
X108744918Y-109045600D01*
X108778502Y-109048908D01*
X108778502Y-109048908D01*
G37*
G36*
X96078502Y-109048908D02*
G01*
X96179257Y-109058831D01*
X96351617Y-109111116D01*
X96510471Y-109196025D01*
X96559833Y-109236536D01*
X96649707Y-109310293D01*
X96723464Y-109400167D01*
X96763975Y-109449529D01*
X96848884Y-109608383D01*
X96901169Y-109780743D01*
X96918824Y-109960000D01*
X96901169Y-110139257D01*
X96848884Y-110311617D01*
X96763975Y-110470471D01*
X96723464Y-110519833D01*
X96649707Y-110609707D01*
X96559833Y-110683464D01*
X96510471Y-110723975D01*
X96351617Y-110808884D01*
X96179257Y-110861169D01*
X96078502Y-110871092D01*
X96044918Y-110874400D01*
X95955082Y-110874400D01*
X95921498Y-110871092D01*
X95820743Y-110861169D01*
X95648383Y-110808884D01*
X95489529Y-110723975D01*
X95440167Y-110683464D01*
X95350293Y-110609707D01*
X95276536Y-110519833D01*
X95236025Y-110470471D01*
X95151116Y-110311617D01*
X95098831Y-110139257D01*
X95081176Y-109960000D01*
X95098831Y-109780743D01*
X95151116Y-109608383D01*
X95236025Y-109449529D01*
X95276536Y-109400167D01*
X95350293Y-109310293D01*
X95440167Y-109236536D01*
X95489529Y-109196025D01*
X95648383Y-109111116D01*
X95820743Y-109058831D01*
X95921498Y-109048908D01*
X95955082Y-109045600D01*
X96044918Y-109045600D01*
X96078502Y-109048908D01*
X96078502Y-109048908D01*
G37*
G36*
X103698502Y-109048908D02*
G01*
X103799257Y-109058831D01*
X103971617Y-109111116D01*
X104130471Y-109196025D01*
X104179833Y-109236536D01*
X104269707Y-109310293D01*
X104343464Y-109400167D01*
X104383975Y-109449529D01*
X104468884Y-109608383D01*
X104521169Y-109780743D01*
X104538824Y-109960000D01*
X104521169Y-110139257D01*
X104468884Y-110311617D01*
X104383975Y-110470471D01*
X104343464Y-110519833D01*
X104269707Y-110609707D01*
X104179833Y-110683464D01*
X104130471Y-110723975D01*
X103971617Y-110808884D01*
X103799257Y-110861169D01*
X103698502Y-110871092D01*
X103664918Y-110874400D01*
X103575082Y-110874400D01*
X103541498Y-110871092D01*
X103440743Y-110861169D01*
X103268383Y-110808884D01*
X103109529Y-110723975D01*
X103060167Y-110683464D01*
X102970293Y-110609707D01*
X102896536Y-110519833D01*
X102856025Y-110470471D01*
X102771116Y-110311617D01*
X102718831Y-110139257D01*
X102701176Y-109960000D01*
X102718831Y-109780743D01*
X102771116Y-109608383D01*
X102856025Y-109449529D01*
X102896536Y-109400167D01*
X102970293Y-109310293D01*
X103060167Y-109236536D01*
X103109529Y-109196025D01*
X103268383Y-109111116D01*
X103440743Y-109058831D01*
X103541498Y-109048908D01*
X103575082Y-109045600D01*
X103664918Y-109045600D01*
X103698502Y-109048908D01*
X103698502Y-109048908D01*
G37*
G36*
X101158502Y-109048908D02*
G01*
X101259257Y-109058831D01*
X101431617Y-109111116D01*
X101590471Y-109196025D01*
X101639833Y-109236536D01*
X101729707Y-109310293D01*
X101803464Y-109400167D01*
X101843975Y-109449529D01*
X101928884Y-109608383D01*
X101981169Y-109780743D01*
X101998824Y-109960000D01*
X101981169Y-110139257D01*
X101928884Y-110311617D01*
X101843975Y-110470471D01*
X101803464Y-110519833D01*
X101729707Y-110609707D01*
X101639833Y-110683464D01*
X101590471Y-110723975D01*
X101431617Y-110808884D01*
X101259257Y-110861169D01*
X101158502Y-110871092D01*
X101124918Y-110874400D01*
X101035082Y-110874400D01*
X101001498Y-110871092D01*
X100900743Y-110861169D01*
X100728383Y-110808884D01*
X100569529Y-110723975D01*
X100520167Y-110683464D01*
X100430293Y-110609707D01*
X100356536Y-110519833D01*
X100316025Y-110470471D01*
X100231116Y-110311617D01*
X100178831Y-110139257D01*
X100161176Y-109960000D01*
X100178831Y-109780743D01*
X100231116Y-109608383D01*
X100316025Y-109449529D01*
X100356536Y-109400167D01*
X100430293Y-109310293D01*
X100520167Y-109236536D01*
X100569529Y-109196025D01*
X100728383Y-109111116D01*
X100900743Y-109058831D01*
X101001498Y-109048908D01*
X101035082Y-109045600D01*
X101124918Y-109045600D01*
X101158502Y-109048908D01*
X101158502Y-109048908D01*
G37*
G36*
X98618502Y-109048908D02*
G01*
X98719257Y-109058831D01*
X98891617Y-109111116D01*
X99050471Y-109196025D01*
X99099833Y-109236536D01*
X99189707Y-109310293D01*
X99263464Y-109400167D01*
X99303975Y-109449529D01*
X99388884Y-109608383D01*
X99441169Y-109780743D01*
X99458824Y-109960000D01*
X99441169Y-110139257D01*
X99388884Y-110311617D01*
X99303975Y-110470471D01*
X99263464Y-110519833D01*
X99189707Y-110609707D01*
X99099833Y-110683464D01*
X99050471Y-110723975D01*
X98891617Y-110808884D01*
X98719257Y-110861169D01*
X98618502Y-110871092D01*
X98584918Y-110874400D01*
X98495082Y-110874400D01*
X98461498Y-110871092D01*
X98360743Y-110861169D01*
X98188383Y-110808884D01*
X98029529Y-110723975D01*
X97980167Y-110683464D01*
X97890293Y-110609707D01*
X97816536Y-110519833D01*
X97776025Y-110470471D01*
X97691116Y-110311617D01*
X97638831Y-110139257D01*
X97621176Y-109960000D01*
X97638831Y-109780743D01*
X97691116Y-109608383D01*
X97776025Y-109449529D01*
X97816536Y-109400167D01*
X97890293Y-109310293D01*
X97980167Y-109236536D01*
X98029529Y-109196025D01*
X98188383Y-109111116D01*
X98360743Y-109058831D01*
X98461498Y-109048908D01*
X98495082Y-109045600D01*
X98584918Y-109045600D01*
X98618502Y-109048908D01*
X98618502Y-109048908D01*
G37*
G36*
X106238502Y-109048908D02*
G01*
X106339257Y-109058831D01*
X106511617Y-109111116D01*
X106670471Y-109196025D01*
X106719833Y-109236536D01*
X106809707Y-109310293D01*
X106883464Y-109400167D01*
X106923975Y-109449529D01*
X107008884Y-109608383D01*
X107061169Y-109780743D01*
X107078824Y-109960000D01*
X107061169Y-110139257D01*
X107008884Y-110311617D01*
X106923975Y-110470471D01*
X106883464Y-110519833D01*
X106809707Y-110609707D01*
X106719833Y-110683464D01*
X106670471Y-110723975D01*
X106511617Y-110808884D01*
X106339257Y-110861169D01*
X106238502Y-110871092D01*
X106204918Y-110874400D01*
X106115082Y-110874400D01*
X106081498Y-110871092D01*
X105980743Y-110861169D01*
X105808383Y-110808884D01*
X105649529Y-110723975D01*
X105600167Y-110683464D01*
X105510293Y-110609707D01*
X105436536Y-110519833D01*
X105396025Y-110470471D01*
X105311116Y-110311617D01*
X105258831Y-110139257D01*
X105241176Y-109960000D01*
X105258831Y-109780743D01*
X105311116Y-109608383D01*
X105396025Y-109449529D01*
X105436536Y-109400167D01*
X105510293Y-109310293D01*
X105600167Y-109236536D01*
X105649529Y-109196025D01*
X105808383Y-109111116D01*
X105980743Y-109058831D01*
X106081498Y-109048908D01*
X106115082Y-109045600D01*
X106204918Y-109045600D01*
X106238502Y-109048908D01*
X106238502Y-109048908D01*
G37*
G36*
X91798223Y-91024127D02*
G01*
X92128198Y-91160807D01*
X92389835Y-91269180D01*
X92922262Y-91624937D01*
X93375063Y-92077738D01*
X93730820Y-92610165D01*
X93839193Y-92871802D01*
X93975873Y-93201777D01*
X94100800Y-93829824D01*
X94100800Y-94470176D01*
X93975873Y-95098223D01*
X93839193Y-95428198D01*
X93730820Y-95689835D01*
X93375063Y-96222262D01*
X92922262Y-96675063D01*
X92389835Y-97030820D01*
X92128198Y-97139193D01*
X91798223Y-97275873D01*
X91170176Y-97400800D01*
X90529824Y-97400800D01*
X89901777Y-97275873D01*
X89571802Y-97139193D01*
X89310165Y-97030820D01*
X88777738Y-96675063D01*
X88324937Y-96222262D01*
X87969180Y-95689835D01*
X87860807Y-95428198D01*
X87724127Y-95098223D01*
X87599200Y-94470176D01*
X87599200Y-93829824D01*
X87724127Y-93201777D01*
X87860807Y-92871802D01*
X87969180Y-92610165D01*
X88324937Y-92077738D01*
X88777738Y-91624937D01*
X89310165Y-91269180D01*
X89571802Y-91160807D01*
X89901777Y-91024127D01*
X90529824Y-90899200D01*
X91170176Y-90899200D01*
X91798223Y-91024127D01*
X91798223Y-91024127D01*
G37*
G36*
X114798223Y-91024127D02*
G01*
X115128198Y-91160807D01*
X115389835Y-91269180D01*
X115922262Y-91624937D01*
X116375063Y-92077738D01*
X116730820Y-92610165D01*
X116839193Y-92871802D01*
X116975873Y-93201777D01*
X117100800Y-93829824D01*
X117100800Y-94470176D01*
X116975873Y-95098223D01*
X116839193Y-95428198D01*
X116730820Y-95689835D01*
X116375063Y-96222262D01*
X115922262Y-96675063D01*
X115389835Y-97030820D01*
X115128198Y-97139193D01*
X114798223Y-97275873D01*
X114170176Y-97400800D01*
X113529824Y-97400800D01*
X112901777Y-97275873D01*
X112571802Y-97139193D01*
X112310165Y-97030820D01*
X111777738Y-96675063D01*
X111324937Y-96222262D01*
X110969180Y-95689835D01*
X110860807Y-95428198D01*
X110724127Y-95098223D01*
X110599200Y-94470176D01*
X110599200Y-93829824D01*
X110724127Y-93201777D01*
X110860807Y-92871802D01*
X110969180Y-92610165D01*
X111324937Y-92077738D01*
X111777738Y-91624937D01*
X112310165Y-91269180D01*
X112571802Y-91160807D01*
X112901777Y-91024127D01*
X113529824Y-90899200D01*
X114170176Y-90899200D01*
X114798223Y-91024127D01*
X114798223Y-91024127D01*
G37*
G36*
X135448223Y-81374127D02*
G01*
X135778198Y-81510807D01*
X136039835Y-81619180D01*
X136572262Y-81974937D01*
X137025063Y-82427738D01*
X137380820Y-82960165D01*
X137489193Y-83221802D01*
X137625873Y-83551777D01*
X137750800Y-84179824D01*
X137750800Y-84820176D01*
X137625873Y-85448223D01*
X137489193Y-85778198D01*
X137380820Y-86039835D01*
X137025063Y-86572262D01*
X136572262Y-87025063D01*
X136039835Y-87380820D01*
X135778198Y-87489193D01*
X135448223Y-87625873D01*
X134820176Y-87750800D01*
X134179824Y-87750800D01*
X133551777Y-87625873D01*
X133221802Y-87489193D01*
X132960165Y-87380820D01*
X132427738Y-87025063D01*
X131974937Y-86572262D01*
X131619180Y-86039835D01*
X131510807Y-85778198D01*
X131374127Y-85448223D01*
X131249200Y-84820176D01*
X131249200Y-84179824D01*
X131374127Y-83551777D01*
X131510807Y-83221802D01*
X131619180Y-82960165D01*
X131974937Y-82427738D01*
X132427738Y-81974937D01*
X132960165Y-81619180D01*
X133221802Y-81510807D01*
X133551777Y-81374127D01*
X134179824Y-81249200D01*
X134820176Y-81249200D01*
X135448223Y-81374127D01*
X135448223Y-81374127D01*
G37*
G36*
X166448223Y-81374127D02*
G01*
X166778198Y-81510807D01*
X167039835Y-81619180D01*
X167572262Y-81974937D01*
X168025063Y-82427738D01*
X168380820Y-82960165D01*
X168489193Y-83221802D01*
X168625873Y-83551777D01*
X168750800Y-84179824D01*
X168750800Y-84820176D01*
X168625873Y-85448223D01*
X168489193Y-85778198D01*
X168380820Y-86039835D01*
X168025063Y-86572262D01*
X167572262Y-87025063D01*
X167039835Y-87380820D01*
X166778198Y-87489193D01*
X166448223Y-87625873D01*
X165820176Y-87750800D01*
X165179824Y-87750800D01*
X164551777Y-87625873D01*
X164221802Y-87489193D01*
X163960165Y-87380820D01*
X163427738Y-87025063D01*
X162974937Y-86572262D01*
X162619180Y-86039835D01*
X162510807Y-85778198D01*
X162374127Y-85448223D01*
X162249200Y-84820176D01*
X162249200Y-84179824D01*
X162374127Y-83551777D01*
X162510807Y-83221802D01*
X162619180Y-82960165D01*
X162974937Y-82427738D01*
X163427738Y-81974937D01*
X163960165Y-81619180D01*
X164221802Y-81510807D01*
X164551777Y-81374127D01*
X165179824Y-81249200D01*
X165820176Y-81249200D01*
X166448223Y-81374127D01*
X166448223Y-81374127D01*
G37*
G36*
X161598223Y-64224127D02*
G01*
X161928198Y-64360807D01*
X162189835Y-64469180D01*
X162722262Y-64824937D01*
X163175063Y-65277738D01*
X163530820Y-65810165D01*
X163639193Y-66071802D01*
X163775873Y-66401777D01*
X163900800Y-67029824D01*
X163900800Y-67670176D01*
X163775873Y-68298223D01*
X163639193Y-68628198D01*
X163530820Y-68889835D01*
X163175063Y-69422262D01*
X162722262Y-69875063D01*
X162189835Y-70230820D01*
X161928198Y-70339193D01*
X161598223Y-70475873D01*
X160970176Y-70600800D01*
X160329824Y-70600800D01*
X159701777Y-70475873D01*
X159371802Y-70339193D01*
X159110165Y-70230820D01*
X158577738Y-69875063D01*
X158124937Y-69422262D01*
X157769180Y-68889835D01*
X157660807Y-68628198D01*
X157524127Y-68298223D01*
X157399200Y-67670176D01*
X157399200Y-67029824D01*
X157524127Y-66401777D01*
X157660807Y-66071802D01*
X157769180Y-65810165D01*
X158124937Y-65277738D01*
X158577738Y-64824937D01*
X159110165Y-64469180D01*
X159371802Y-64360807D01*
X159701777Y-64224127D01*
X160329824Y-64099200D01*
X160970176Y-64099200D01*
X161598223Y-64224127D01*
X161598223Y-64224127D01*
G37*
G36*
X147493502Y-66328908D02*
G01*
X147594257Y-66338831D01*
X147766617Y-66391116D01*
X147925471Y-66476025D01*
X147974833Y-66516536D01*
X148064707Y-66590293D01*
X148138464Y-66680167D01*
X148178975Y-66729529D01*
X148263884Y-66888383D01*
X148316169Y-67060743D01*
X148333824Y-67240000D01*
X148316169Y-67419257D01*
X148263884Y-67591617D01*
X148178975Y-67750471D01*
X148138464Y-67799833D01*
X148064707Y-67889707D01*
X147974833Y-67963464D01*
X147925471Y-68003975D01*
X147766617Y-68088884D01*
X147594257Y-68141169D01*
X147493502Y-68151092D01*
X147459918Y-68154400D01*
X147370082Y-68154400D01*
X147336498Y-68151092D01*
X147235743Y-68141169D01*
X147063383Y-68088884D01*
X146904529Y-68003975D01*
X146855167Y-67963464D01*
X146765293Y-67889707D01*
X146691536Y-67799833D01*
X146651025Y-67750471D01*
X146566116Y-67591617D01*
X146513831Y-67419257D01*
X146496176Y-67240000D01*
X146513831Y-67060743D01*
X146566116Y-66888383D01*
X146651025Y-66729529D01*
X146691536Y-66680167D01*
X146765293Y-66590293D01*
X146855167Y-66516536D01*
X146904529Y-66476025D01*
X147063383Y-66391116D01*
X147235743Y-66338831D01*
X147336498Y-66328908D01*
X147370082Y-66325600D01*
X147459918Y-66325600D01*
X147493502Y-66328908D01*
X147493502Y-66328908D01*
G37*
G36*
X144953502Y-66328908D02*
G01*
X145054257Y-66338831D01*
X145226617Y-66391116D01*
X145385471Y-66476025D01*
X145434833Y-66516536D01*
X145524707Y-66590293D01*
X145598464Y-66680167D01*
X145638975Y-66729529D01*
X145723884Y-66888383D01*
X145776169Y-67060743D01*
X145793824Y-67240000D01*
X145776169Y-67419257D01*
X145723884Y-67591617D01*
X145638975Y-67750471D01*
X145598464Y-67799833D01*
X145524707Y-67889707D01*
X145434833Y-67963464D01*
X145385471Y-68003975D01*
X145226617Y-68088884D01*
X145054257Y-68141169D01*
X144953502Y-68151092D01*
X144919918Y-68154400D01*
X144830082Y-68154400D01*
X144796498Y-68151092D01*
X144695743Y-68141169D01*
X144523383Y-68088884D01*
X144364529Y-68003975D01*
X144315167Y-67963464D01*
X144225293Y-67889707D01*
X144151536Y-67799833D01*
X144111025Y-67750471D01*
X144026116Y-67591617D01*
X143973831Y-67419257D01*
X143956176Y-67240000D01*
X143973831Y-67060743D01*
X144026116Y-66888383D01*
X144111025Y-66729529D01*
X144151536Y-66680167D01*
X144225293Y-66590293D01*
X144315167Y-66516536D01*
X144364529Y-66476025D01*
X144523383Y-66391116D01*
X144695743Y-66338831D01*
X144796498Y-66328908D01*
X144830082Y-66325600D01*
X144919918Y-66325600D01*
X144953502Y-66328908D01*
X144953502Y-66328908D01*
G37*
G36*
X147493502Y-63788908D02*
G01*
X147594257Y-63798831D01*
X147766617Y-63851116D01*
X147925471Y-63936025D01*
X147974833Y-63976536D01*
X148064707Y-64050293D01*
X148138464Y-64140167D01*
X148178975Y-64189529D01*
X148263884Y-64348383D01*
X148316169Y-64520743D01*
X148333824Y-64700000D01*
X148316169Y-64879257D01*
X148263884Y-65051617D01*
X148178975Y-65210471D01*
X148138464Y-65259833D01*
X148064707Y-65349707D01*
X147974833Y-65423464D01*
X147925471Y-65463975D01*
X147766617Y-65548884D01*
X147594257Y-65601169D01*
X147493502Y-65611092D01*
X147459918Y-65614400D01*
X147370082Y-65614400D01*
X147336498Y-65611092D01*
X147235743Y-65601169D01*
X147063383Y-65548884D01*
X146904529Y-65463975D01*
X146855167Y-65423464D01*
X146765293Y-65349707D01*
X146691536Y-65259833D01*
X146651025Y-65210471D01*
X146566116Y-65051617D01*
X146513831Y-64879257D01*
X146496176Y-64700000D01*
X146513831Y-64520743D01*
X146566116Y-64348383D01*
X146651025Y-64189529D01*
X146691536Y-64140167D01*
X146765293Y-64050293D01*
X146855167Y-63976536D01*
X146904529Y-63936025D01*
X147063383Y-63851116D01*
X147235743Y-63798831D01*
X147336498Y-63788908D01*
X147370082Y-63785600D01*
X147459918Y-63785600D01*
X147493502Y-63788908D01*
X147493502Y-63788908D01*
G37*
G36*
X144953502Y-63788908D02*
G01*
X145054257Y-63798831D01*
X145226617Y-63851116D01*
X145385471Y-63936025D01*
X145434833Y-63976536D01*
X145524707Y-64050293D01*
X145598464Y-64140167D01*
X145638975Y-64189529D01*
X145723884Y-64348383D01*
X145776169Y-64520743D01*
X145793824Y-64700000D01*
X145776169Y-64879257D01*
X145723884Y-65051617D01*
X145638975Y-65210471D01*
X145598464Y-65259833D01*
X145524707Y-65349707D01*
X145434833Y-65423464D01*
X145385471Y-65463975D01*
X145226617Y-65548884D01*
X145054257Y-65601169D01*
X144953502Y-65611092D01*
X144919918Y-65614400D01*
X144830082Y-65614400D01*
X144796498Y-65611092D01*
X144695743Y-65601169D01*
X144523383Y-65548884D01*
X144364529Y-65463975D01*
X144315167Y-65423464D01*
X144225293Y-65349707D01*
X144151536Y-65259833D01*
X144111025Y-65210471D01*
X144026116Y-65051617D01*
X143973831Y-64879257D01*
X143956176Y-64700000D01*
X143973831Y-64520743D01*
X144026116Y-64348383D01*
X144111025Y-64189529D01*
X144151536Y-64140167D01*
X144225293Y-64050293D01*
X144315167Y-63976536D01*
X144364529Y-63936025D01*
X144523383Y-63851116D01*
X144695743Y-63798831D01*
X144796498Y-63788908D01*
X144830082Y-63785600D01*
X144919918Y-63785600D01*
X144953502Y-63788908D01*
X144953502Y-63788908D01*
G37*
G36*
X147493502Y-61248908D02*
G01*
X147594257Y-61258831D01*
X147766617Y-61311116D01*
X147925471Y-61396025D01*
X147974833Y-61436536D01*
X148064707Y-61510293D01*
X148138464Y-61600167D01*
X148178975Y-61649529D01*
X148263884Y-61808383D01*
X148316169Y-61980743D01*
X148333824Y-62160000D01*
X148316169Y-62339257D01*
X148263884Y-62511617D01*
X148178975Y-62670471D01*
X148138464Y-62719833D01*
X148064707Y-62809707D01*
X147974833Y-62883464D01*
X147925471Y-62923975D01*
X147766617Y-63008884D01*
X147594257Y-63061169D01*
X147493502Y-63071092D01*
X147459918Y-63074400D01*
X147370082Y-63074400D01*
X147336498Y-63071092D01*
X147235743Y-63061169D01*
X147063383Y-63008884D01*
X146904529Y-62923975D01*
X146855167Y-62883464D01*
X146765293Y-62809707D01*
X146691536Y-62719833D01*
X146651025Y-62670471D01*
X146566116Y-62511617D01*
X146513831Y-62339257D01*
X146496176Y-62160000D01*
X146513831Y-61980743D01*
X146566116Y-61808383D01*
X146651025Y-61649529D01*
X146691536Y-61600167D01*
X146765293Y-61510293D01*
X146855167Y-61436536D01*
X146904529Y-61396025D01*
X147063383Y-61311116D01*
X147235743Y-61258831D01*
X147336498Y-61248908D01*
X147370082Y-61245600D01*
X147459918Y-61245600D01*
X147493502Y-61248908D01*
X147493502Y-61248908D01*
G37*
G36*
X144953502Y-61248908D02*
G01*
X145054257Y-61258831D01*
X145226617Y-61311116D01*
X145385471Y-61396025D01*
X145434833Y-61436536D01*
X145524707Y-61510293D01*
X145598464Y-61600167D01*
X145638975Y-61649529D01*
X145723884Y-61808383D01*
X145776169Y-61980743D01*
X145793824Y-62160000D01*
X145776169Y-62339257D01*
X145723884Y-62511617D01*
X145638975Y-62670471D01*
X145598464Y-62719833D01*
X145524707Y-62809707D01*
X145434833Y-62883464D01*
X145385471Y-62923975D01*
X145226617Y-63008884D01*
X145054257Y-63061169D01*
X144953502Y-63071092D01*
X144919918Y-63074400D01*
X144830082Y-63074400D01*
X144796498Y-63071092D01*
X144695743Y-63061169D01*
X144523383Y-63008884D01*
X144364529Y-62923975D01*
X144315167Y-62883464D01*
X144225293Y-62809707D01*
X144151536Y-62719833D01*
X144111025Y-62670471D01*
X144026116Y-62511617D01*
X143973831Y-62339257D01*
X143956176Y-62160000D01*
X143973831Y-61980743D01*
X144026116Y-61808383D01*
X144111025Y-61649529D01*
X144151536Y-61600167D01*
X144225293Y-61510293D01*
X144315167Y-61436536D01*
X144364529Y-61396025D01*
X144523383Y-61311116D01*
X144695743Y-61258831D01*
X144796498Y-61248908D01*
X144830082Y-61245600D01*
X144919918Y-61245600D01*
X144953502Y-61248908D01*
X144953502Y-61248908D01*
G37*
G36*
X144953502Y-58708908D02*
G01*
X145054257Y-58718831D01*
X145226617Y-58771116D01*
X145385471Y-58856025D01*
X145434833Y-58896536D01*
X145524707Y-58970293D01*
X145598464Y-59060167D01*
X145638975Y-59109529D01*
X145723884Y-59268383D01*
X145776169Y-59440743D01*
X145793824Y-59620000D01*
X145776169Y-59799257D01*
X145723884Y-59971617D01*
X145638975Y-60130471D01*
X145598464Y-60179833D01*
X145524707Y-60269707D01*
X145434833Y-60343464D01*
X145385471Y-60383975D01*
X145226617Y-60468884D01*
X145054257Y-60521169D01*
X144953502Y-60531092D01*
X144919918Y-60534400D01*
X144830082Y-60534400D01*
X144796498Y-60531092D01*
X144695743Y-60521169D01*
X144523383Y-60468884D01*
X144364529Y-60383975D01*
X144315167Y-60343464D01*
X144225293Y-60269707D01*
X144151536Y-60179833D01*
X144111025Y-60130471D01*
X144026116Y-59971617D01*
X143973831Y-59799257D01*
X143956176Y-59620000D01*
X143973831Y-59440743D01*
X144026116Y-59268383D01*
X144111025Y-59109529D01*
X144151536Y-59060167D01*
X144225293Y-58970293D01*
X144315167Y-58896536D01*
X144364529Y-58856025D01*
X144523383Y-58771116D01*
X144695743Y-58718831D01*
X144796498Y-58708908D01*
X144830082Y-58705600D01*
X144919918Y-58705600D01*
X144953502Y-58708908D01*
X144953502Y-58708908D01*
G37*
G36*
X147493502Y-58708908D02*
G01*
X147594257Y-58718831D01*
X147766617Y-58771116D01*
X147925471Y-58856025D01*
X147974833Y-58896536D01*
X148064707Y-58970293D01*
X148138464Y-59060167D01*
X148178975Y-59109529D01*
X148263884Y-59268383D01*
X148316169Y-59440743D01*
X148333824Y-59620000D01*
X148316169Y-59799257D01*
X148263884Y-59971617D01*
X148178975Y-60130471D01*
X148138464Y-60179833D01*
X148064707Y-60269707D01*
X147974833Y-60343464D01*
X147925471Y-60383975D01*
X147766617Y-60468884D01*
X147594257Y-60521169D01*
X147493502Y-60531092D01*
X147459918Y-60534400D01*
X147370082Y-60534400D01*
X147336498Y-60531092D01*
X147235743Y-60521169D01*
X147063383Y-60468884D01*
X146904529Y-60383975D01*
X146855167Y-60343464D01*
X146765293Y-60269707D01*
X146691536Y-60179833D01*
X146651025Y-60130471D01*
X146566116Y-59971617D01*
X146513831Y-59799257D01*
X146496176Y-59620000D01*
X146513831Y-59440743D01*
X146566116Y-59268383D01*
X146651025Y-59109529D01*
X146691536Y-59060167D01*
X146765293Y-58970293D01*
X146855167Y-58896536D01*
X146904529Y-58856025D01*
X147063383Y-58771116D01*
X147235743Y-58718831D01*
X147336498Y-58708908D01*
X147370082Y-58705600D01*
X147459918Y-58705600D01*
X147493502Y-58708908D01*
X147493502Y-58708908D01*
G37*
G36*
X147493502Y-56168908D02*
G01*
X147594257Y-56178831D01*
X147766617Y-56231116D01*
X147925471Y-56316025D01*
X147974833Y-56356536D01*
X148064707Y-56430293D01*
X148138464Y-56520167D01*
X148178975Y-56569529D01*
X148263884Y-56728383D01*
X148316169Y-56900743D01*
X148333824Y-57080000D01*
X148316169Y-57259257D01*
X148263884Y-57431617D01*
X148178975Y-57590471D01*
X148138464Y-57639833D01*
X148064707Y-57729707D01*
X147974833Y-57803464D01*
X147925471Y-57843975D01*
X147766617Y-57928884D01*
X147594257Y-57981169D01*
X147493502Y-57991092D01*
X147459918Y-57994400D01*
X147370082Y-57994400D01*
X147336498Y-57991092D01*
X147235743Y-57981169D01*
X147063383Y-57928884D01*
X146904529Y-57843975D01*
X146855167Y-57803464D01*
X146765293Y-57729707D01*
X146691536Y-57639833D01*
X146651025Y-57590471D01*
X146566116Y-57431617D01*
X146513831Y-57259257D01*
X146496176Y-57080000D01*
X146513831Y-56900743D01*
X146566116Y-56728383D01*
X146651025Y-56569529D01*
X146691536Y-56520167D01*
X146765293Y-56430293D01*
X146855167Y-56356536D01*
X146904529Y-56316025D01*
X147063383Y-56231116D01*
X147235743Y-56178831D01*
X147336498Y-56168908D01*
X147370082Y-56165600D01*
X147459918Y-56165600D01*
X147493502Y-56168908D01*
X147493502Y-56168908D01*
G37*
G36*
X144953502Y-56168908D02*
G01*
X145054257Y-56178831D01*
X145226617Y-56231116D01*
X145385471Y-56316025D01*
X145434833Y-56356536D01*
X145524707Y-56430293D01*
X145598464Y-56520167D01*
X145638975Y-56569529D01*
X145723884Y-56728383D01*
X145776169Y-56900743D01*
X145793824Y-57080000D01*
X145776169Y-57259257D01*
X145723884Y-57431617D01*
X145638975Y-57590471D01*
X145598464Y-57639833D01*
X145524707Y-57729707D01*
X145434833Y-57803464D01*
X145385471Y-57843975D01*
X145226617Y-57928884D01*
X145054257Y-57981169D01*
X144953502Y-57991092D01*
X144919918Y-57994400D01*
X144830082Y-57994400D01*
X144796498Y-57991092D01*
X144695743Y-57981169D01*
X144523383Y-57928884D01*
X144364529Y-57843975D01*
X144315167Y-57803464D01*
X144225293Y-57729707D01*
X144151536Y-57639833D01*
X144111025Y-57590471D01*
X144026116Y-57431617D01*
X143973831Y-57259257D01*
X143956176Y-57080000D01*
X143973831Y-56900743D01*
X144026116Y-56728383D01*
X144111025Y-56569529D01*
X144151536Y-56520167D01*
X144225293Y-56430293D01*
X144315167Y-56356536D01*
X144364529Y-56316025D01*
X144523383Y-56231116D01*
X144695743Y-56178831D01*
X144796498Y-56168908D01*
X144830082Y-56165600D01*
X144919918Y-56165600D01*
X144953502Y-56168908D01*
X144953502Y-56168908D01*
G37*
G36*
X147493502Y-53628908D02*
G01*
X147594257Y-53638831D01*
X147766617Y-53691116D01*
X147925471Y-53776025D01*
X147974833Y-53816536D01*
X148064707Y-53890293D01*
X148138464Y-53980167D01*
X148178975Y-54029529D01*
X148263884Y-54188383D01*
X148316169Y-54360743D01*
X148333824Y-54540000D01*
X148316169Y-54719257D01*
X148263884Y-54891617D01*
X148178975Y-55050471D01*
X148138464Y-55099833D01*
X148064707Y-55189707D01*
X147974833Y-55263464D01*
X147925471Y-55303975D01*
X147766617Y-55388884D01*
X147594257Y-55441169D01*
X147493502Y-55451092D01*
X147459918Y-55454400D01*
X147370082Y-55454400D01*
X147336498Y-55451092D01*
X147235743Y-55441169D01*
X147063383Y-55388884D01*
X146904529Y-55303975D01*
X146855167Y-55263464D01*
X146765293Y-55189707D01*
X146691536Y-55099833D01*
X146651025Y-55050471D01*
X146566116Y-54891617D01*
X146513831Y-54719257D01*
X146496176Y-54540000D01*
X146513831Y-54360743D01*
X146566116Y-54188383D01*
X146651025Y-54029529D01*
X146691536Y-53980167D01*
X146765293Y-53890293D01*
X146855167Y-53816536D01*
X146904529Y-53776025D01*
X147063383Y-53691116D01*
X147235743Y-53638831D01*
X147336498Y-53628908D01*
X147370082Y-53625600D01*
X147459918Y-53625600D01*
X147493502Y-53628908D01*
X147493502Y-53628908D01*
G37*
G36*
X144953502Y-53628908D02*
G01*
X145054257Y-53638831D01*
X145226617Y-53691116D01*
X145385471Y-53776025D01*
X145434833Y-53816536D01*
X145524707Y-53890293D01*
X145598464Y-53980167D01*
X145638975Y-54029529D01*
X145723884Y-54188383D01*
X145776169Y-54360743D01*
X145793824Y-54540000D01*
X145776169Y-54719257D01*
X145723884Y-54891617D01*
X145638975Y-55050471D01*
X145598464Y-55099833D01*
X145524707Y-55189707D01*
X145434833Y-55263464D01*
X145385471Y-55303975D01*
X145226617Y-55388884D01*
X145054257Y-55441169D01*
X144953502Y-55451092D01*
X144919918Y-55454400D01*
X144830082Y-55454400D01*
X144796498Y-55451092D01*
X144695743Y-55441169D01*
X144523383Y-55388884D01*
X144364529Y-55303975D01*
X144315167Y-55263464D01*
X144225293Y-55189707D01*
X144151536Y-55099833D01*
X144111025Y-55050471D01*
X144026116Y-54891617D01*
X143973831Y-54719257D01*
X143956176Y-54540000D01*
X143973831Y-54360743D01*
X144026116Y-54188383D01*
X144111025Y-54029529D01*
X144151536Y-53980167D01*
X144225293Y-53890293D01*
X144315167Y-53816536D01*
X144364529Y-53776025D01*
X144523383Y-53691116D01*
X144695743Y-53638831D01*
X144796498Y-53628908D01*
X144830082Y-53625600D01*
X144919918Y-53625600D01*
X144953502Y-53628908D01*
X144953502Y-53628908D01*
G37*
G36*
X147493502Y-51088908D02*
G01*
X147594257Y-51098831D01*
X147766617Y-51151116D01*
X147925471Y-51236025D01*
X147974833Y-51276536D01*
X148064707Y-51350293D01*
X148138464Y-51440167D01*
X148178975Y-51489529D01*
X148263884Y-51648383D01*
X148316169Y-51820743D01*
X148333824Y-52000000D01*
X148316169Y-52179257D01*
X148263884Y-52351617D01*
X148178975Y-52510471D01*
X148138464Y-52559833D01*
X148064707Y-52649707D01*
X147974833Y-52723464D01*
X147925471Y-52763975D01*
X147766617Y-52848884D01*
X147594257Y-52901169D01*
X147493502Y-52911092D01*
X147459918Y-52914400D01*
X147370082Y-52914400D01*
X147336498Y-52911092D01*
X147235743Y-52901169D01*
X147063383Y-52848884D01*
X146904529Y-52763975D01*
X146855167Y-52723464D01*
X146765293Y-52649707D01*
X146691536Y-52559833D01*
X146651025Y-52510471D01*
X146566116Y-52351617D01*
X146513831Y-52179257D01*
X146496176Y-52000000D01*
X146513831Y-51820743D01*
X146566116Y-51648383D01*
X146651025Y-51489529D01*
X146691536Y-51440167D01*
X146765293Y-51350293D01*
X146855167Y-51276536D01*
X146904529Y-51236025D01*
X147063383Y-51151116D01*
X147235743Y-51098831D01*
X147336498Y-51088908D01*
X147370082Y-51085600D01*
X147459918Y-51085600D01*
X147493502Y-51088908D01*
X147493502Y-51088908D01*
G37*
G36*
X144953502Y-51088908D02*
G01*
X145054257Y-51098831D01*
X145226617Y-51151116D01*
X145385471Y-51236025D01*
X145434833Y-51276536D01*
X145524707Y-51350293D01*
X145598464Y-51440167D01*
X145638975Y-51489529D01*
X145723884Y-51648383D01*
X145776169Y-51820743D01*
X145793824Y-52000000D01*
X145776169Y-52179257D01*
X145723884Y-52351617D01*
X145638975Y-52510471D01*
X145598464Y-52559833D01*
X145524707Y-52649707D01*
X145434833Y-52723464D01*
X145385471Y-52763975D01*
X145226617Y-52848884D01*
X145054257Y-52901169D01*
X144953502Y-52911092D01*
X144919918Y-52914400D01*
X144830082Y-52914400D01*
X144796498Y-52911092D01*
X144695743Y-52901169D01*
X144523383Y-52848884D01*
X144364529Y-52763975D01*
X144315167Y-52723464D01*
X144225293Y-52649707D01*
X144151536Y-52559833D01*
X144111025Y-52510471D01*
X144026116Y-52351617D01*
X143973831Y-52179257D01*
X143956176Y-52000000D01*
X143973831Y-51820743D01*
X144026116Y-51648383D01*
X144111025Y-51489529D01*
X144151536Y-51440167D01*
X144225293Y-51350293D01*
X144315167Y-51276536D01*
X144364529Y-51236025D01*
X144523383Y-51151116D01*
X144695743Y-51098831D01*
X144796498Y-51088908D01*
X144830082Y-51085600D01*
X144919918Y-51085600D01*
X144953502Y-51088908D01*
X144953502Y-51088908D01*
G37*
G36*
X161598223Y-46224127D02*
G01*
X161928198Y-46360807D01*
X162189835Y-46469180D01*
X162722262Y-46824937D01*
X163175063Y-47277738D01*
X163530820Y-47810165D01*
X163639193Y-48071802D01*
X163775873Y-48401777D01*
X163900800Y-49029824D01*
X163900800Y-49670176D01*
X163775873Y-50298223D01*
X163744319Y-50374400D01*
X163530820Y-50889835D01*
X163175063Y-51422262D01*
X162722262Y-51875063D01*
X162189835Y-52230820D01*
X161928198Y-52339193D01*
X161598223Y-52475873D01*
X160970176Y-52600800D01*
X160329824Y-52600800D01*
X159701777Y-52475873D01*
X159371802Y-52339193D01*
X159110165Y-52230820D01*
X158577738Y-51875063D01*
X158124937Y-51422262D01*
X157769180Y-50889835D01*
X157555681Y-50374400D01*
X157524127Y-50298223D01*
X157399200Y-49670176D01*
X157399200Y-49029824D01*
X157524127Y-48401777D01*
X157660807Y-48071802D01*
X157769180Y-47810165D01*
X158124937Y-47277738D01*
X158577738Y-46824937D01*
X159110165Y-46469180D01*
X159371802Y-46360807D01*
X159701777Y-46224127D01*
X160329824Y-46099200D01*
X160970176Y-46099200D01*
X161598223Y-46224127D01*
X161598223Y-46224127D01*
G37*
G36*
X145789400Y-50374400D02*
G01*
X143960600Y-50374400D01*
X143960600Y-48545600D01*
X145789400Y-48545600D01*
X145789400Y-50374400D01*
X145789400Y-50374400D01*
G37*
G36*
X147493502Y-48548908D02*
G01*
X147594257Y-48558831D01*
X147766617Y-48611116D01*
X147925471Y-48696025D01*
X147974833Y-48736536D01*
X148064707Y-48810293D01*
X148138464Y-48900167D01*
X148178975Y-48949529D01*
X148263884Y-49108383D01*
X148316169Y-49280743D01*
X148333824Y-49460000D01*
X148316169Y-49639257D01*
X148263884Y-49811617D01*
X148178975Y-49970471D01*
X148138464Y-50019833D01*
X148064707Y-50109707D01*
X147974833Y-50183464D01*
X147925471Y-50223975D01*
X147766617Y-50308884D01*
X147594257Y-50361169D01*
X147493502Y-50371092D01*
X147459918Y-50374400D01*
X147370082Y-50374400D01*
X147336498Y-50371092D01*
X147235743Y-50361169D01*
X147063383Y-50308884D01*
X146904529Y-50223975D01*
X146855167Y-50183464D01*
X146765293Y-50109707D01*
X146691536Y-50019833D01*
X146651025Y-49970471D01*
X146566116Y-49811617D01*
X146513831Y-49639257D01*
X146496176Y-49460000D01*
X146513831Y-49280743D01*
X146566116Y-49108383D01*
X146651025Y-48949529D01*
X146691536Y-48900167D01*
X146765293Y-48810293D01*
X146855167Y-48736536D01*
X146904529Y-48696025D01*
X147063383Y-48611116D01*
X147235743Y-48558831D01*
X147336498Y-48548908D01*
X147370082Y-48545600D01*
X147459918Y-48545600D01*
X147493502Y-48548908D01*
X147493502Y-48548908D01*
G37*
M02*
