M48
; DRILL file {KiCad (5.1.4)-1} date 3/27/2020 4:40:14 PM
; FORMAT={-:-/ absolute / inch / decimal}
; #@! TF.CreationDate,2020-03-27T16:40:14-04:00
; #@! TF.GenerationSoftware,Kicad,Pcbnew,(5.1.4)-1
; #@! TF.FileFunction,Plated,1,2,PTH
FMAT,2
INCH
T1C0.0157
T2C0.0374
T3C0.0400
T4C0.1260
%
G90
G05
T1
X3.7755Y-3.537
X3.7755Y-3.572
X3.7755Y-3.607
X3.7755Y-3.642
X3.8205Y-3.537
X3.8205Y-3.572
X3.8205Y-3.607
X3.8205Y-3.642
X3.8655Y-3.537
X3.8655Y-3.572
X3.8655Y-3.607
X3.8655Y-3.642
X3.9105Y-3.537
X3.9105Y-3.572
X3.9105Y-3.607
X3.9105Y-3.642
X4.7605Y-4.162
X4.7605Y-4.202
X4.7605Y-4.242
X4.7605Y-4.282
X4.8005Y-4.162
X4.8005Y-4.202
X4.8005Y-4.242
X4.8005Y-4.282
X4.8155Y-4.1045
X4.8405Y-4.162
X4.8405Y-4.202
X4.8405Y-4.242
X4.8405Y-4.282
X4.8555Y-4.067
X4.8555Y-4.107
X4.8805Y-4.162
X4.8805Y-4.202
X4.8805Y-4.242
X4.8805Y-4.282
X4.8955Y-4.027
X4.8955Y-4.067
X4.8955Y-4.107
X4.9205Y-4.162
X4.9205Y-4.202
X4.9205Y-4.242
X4.9205Y-4.282
X4.9355Y-3.987
X4.9355Y-4.027
X4.9355Y-4.067
X4.9355Y-4.107
X4.9605Y-4.162
X4.9605Y-4.202
X4.9605Y-4.242
X4.9605Y-4.282
X4.9755Y-3.947
X4.9755Y-3.987
X4.9755Y-4.027
X4.9755Y-4.067
X4.9755Y-4.107
X5.0005Y-4.162
X5.0005Y-4.202
X5.0005Y-4.242
X5.0155Y-3.907
X5.0155Y-3.947
X5.0155Y-3.987
X5.0155Y-4.027
X5.0155Y-4.067
X5.0405Y-4.162
X5.0405Y-4.202
X5.0555Y-3.907
X5.0555Y-3.947
X5.0555Y-3.987
X5.0555Y-4.027
X5.9005Y-3.077
X5.9205Y-3.042
X5.9405Y-3.077
X5.9605Y-3.042
X5.9805Y-3.007
X5.9805Y-3.077
X6.0005Y-2.972
X6.0005Y-3.042
X6.0205Y-2.937
X6.0205Y-3.007
X6.0205Y-3.077
X6.0405Y-2.972
X6.0405Y-3.042
X6.0605Y-2.932
X6.0605Y-3.007
X6.0605Y-3.077
X6.0655Y-2.147
X6.0805Y-2.897
X6.0805Y-2.972
X6.0805Y-3.042
X6.1005Y-2.247
X6.1005Y-2.937
X6.1005Y-3.007
X6.1005Y-3.077
X6.1205Y-2.972
X6.1205Y-3.042
X6.1355Y-2.347
X6.1405Y-3.007
X6.1405Y-3.077
X6.1705Y-2.447
X6.2305Y-2.847
X6.2305Y-2.917
X6.2505Y-2.812
X6.2505Y-2.882
X6.2705Y-2.847
X6.2705Y-2.917
X6.2905Y-2.812
X6.2905Y-2.882
X6.3105Y-2.847
X6.3105Y-2.917
X6.3305Y-2.812
X6.3305Y-2.882
X6.3505Y-2.847
X6.3505Y-2.917
X6.3705Y-2.812
X6.3705Y-2.882
X6.3905Y-2.847
X6.3905Y-2.917
X6.4105Y-2.812
X6.4105Y-2.882
X6.4305Y-2.777
X6.4305Y-2.847
X6.4305Y-2.917
X6.4505Y-2.742
X6.4505Y-2.812
X6.4505Y-2.882
X6.4705Y-2.707
X6.4705Y-2.777
X6.4705Y-2.847
X6.4705Y-2.917
X6.4905Y-2.742
X6.4905Y-2.812
X6.5105Y-2.707
X6.5105Y-2.777
X6.5155Y-2.932
X6.5455Y-2.977
T2
X5.7579Y-4.8819
X5.8563Y-4.8819
X5.9547Y-4.8819
X6.0531Y-4.8819
T3
X3.5795Y-4.3291
X3.5795Y-4.4291
X3.6795Y-4.3291
X3.6795Y-4.4291
X3.7795Y-4.3291
X3.7795Y-4.4291
X3.8795Y-4.3291
X3.8795Y-4.4291
X3.9795Y-4.3291
X3.9795Y-4.4291
X4.0795Y-4.3291
X4.0795Y-4.4291
X4.1795Y-4.3291
X4.1795Y-4.4291
X4.2795Y-4.3291
X4.2795Y-4.4291
X4.3795Y-4.3291
X4.3795Y-4.4291
X4.4795Y-4.3291
X4.4795Y-4.4291
X5.7037Y-1.9472
X5.7037Y-2.0472
X5.7037Y-2.1472
X5.7037Y-2.2472
X5.7037Y-2.3472
X5.7037Y-2.4472
X5.7037Y-2.5472
X5.7037Y-2.6472
X5.8037Y-1.9472
X5.8037Y-2.0472
X5.8037Y-2.1472
X5.8037Y-2.2472
X5.8037Y-2.3472
X5.8037Y-2.4472
X5.8037Y-2.5472
X5.8037Y-2.6472
T4
X5.2953Y-3.3268
X6.5157Y-3.3268
X4.4823Y-3.7067
X6.5157Y-4.5472
X3.5768Y-3.7067
X6.3248Y-2.6516
X5.2953Y-4.5472
X6.3248Y-1.9429
T0
M30
