G04 #@! TF.GenerationSoftware,KiCad,Pcbnew,(5.1.4)-1*
G04 #@! TF.CreationDate,2020-03-27T16:40:10-04:00*
G04 #@! TF.ProjectId,gantry_x_motor_breakout,67616e74-7279-45f7-985f-6d6f746f725f,rev?*
G04 #@! TF.SameCoordinates,Original*
G04 #@! TF.FileFunction,Copper,L1,Top*
G04 #@! TF.FilePolarity,Positive*
%FSLAX46Y46*%
G04 Gerber Fmt 4.6, Leading zero omitted, Abs format (unit mm)*
G04 Created by KiCad (PCBNEW (5.1.4)-1) date 2020-03-27 16:40:10*
%MOMM*%
%LPD*%
G04 APERTURE LIST*
%ADD10O,1.727200X1.727200*%
%ADD11R,1.727200X1.727200*%
%ADD12O,1.700000X1.950000*%
%ADD13C,0.100000*%
%ADD14C,1.700000*%
%ADD15C,6.400000*%
%ADD16C,0.800000*%
%ADD17C,0.508000*%
%ADD18C,0.254000*%
%ADD19C,0.762000*%
%ADD20C,0.152400*%
G04 APERTURE END LIST*
D10*
X113780000Y-109960000D03*
X113780000Y-112500000D03*
X111240000Y-109960000D03*
X111240000Y-112500000D03*
X108700000Y-109960000D03*
X108700000Y-112500000D03*
X106160000Y-109960000D03*
X106160000Y-112500000D03*
X103620000Y-109960000D03*
X103620000Y-112500000D03*
X101080000Y-109960000D03*
X101080000Y-112500000D03*
X98540000Y-109960000D03*
X98540000Y-112500000D03*
X96000000Y-109960000D03*
X96000000Y-112500000D03*
X93460000Y-109960000D03*
X93460000Y-112500000D03*
X90920000Y-109960000D03*
D11*
X90920000Y-112500000D03*
D10*
X147415000Y-67240000D03*
X144875000Y-67240000D03*
X147415000Y-64700000D03*
X144875000Y-64700000D03*
X147415000Y-62160000D03*
X144875000Y-62160000D03*
X147415000Y-59620000D03*
X144875000Y-59620000D03*
X147415000Y-57080000D03*
X144875000Y-57080000D03*
X147415000Y-54540000D03*
X144875000Y-54540000D03*
X147415000Y-52000000D03*
X144875000Y-52000000D03*
X147415000Y-49460000D03*
D11*
X144875000Y-49460000D03*
D12*
X146250000Y-124000000D03*
X148750000Y-124000000D03*
X151250000Y-124000000D03*
D13*
G36*
X154374504Y-123026204D02*
G01*
X154398773Y-123029804D01*
X154422571Y-123035765D01*
X154445671Y-123044030D01*
X154467849Y-123054520D01*
X154488893Y-123067133D01*
X154508598Y-123081747D01*
X154526777Y-123098223D01*
X154543253Y-123116402D01*
X154557867Y-123136107D01*
X154570480Y-123157151D01*
X154580970Y-123179329D01*
X154589235Y-123202429D01*
X154595196Y-123226227D01*
X154598796Y-123250496D01*
X154600000Y-123275000D01*
X154600000Y-124725000D01*
X154598796Y-124749504D01*
X154595196Y-124773773D01*
X154589235Y-124797571D01*
X154580970Y-124820671D01*
X154570480Y-124842849D01*
X154557867Y-124863893D01*
X154543253Y-124883598D01*
X154526777Y-124901777D01*
X154508598Y-124918253D01*
X154488893Y-124932867D01*
X154467849Y-124945480D01*
X154445671Y-124955970D01*
X154422571Y-124964235D01*
X154398773Y-124970196D01*
X154374504Y-124973796D01*
X154350000Y-124975000D01*
X153150000Y-124975000D01*
X153125496Y-124973796D01*
X153101227Y-124970196D01*
X153077429Y-124964235D01*
X153054329Y-124955970D01*
X153032151Y-124945480D01*
X153011107Y-124932867D01*
X152991402Y-124918253D01*
X152973223Y-124901777D01*
X152956747Y-124883598D01*
X152942133Y-124863893D01*
X152929520Y-124842849D01*
X152919030Y-124820671D01*
X152910765Y-124797571D01*
X152904804Y-124773773D01*
X152901204Y-124749504D01*
X152900000Y-124725000D01*
X152900000Y-123275000D01*
X152901204Y-123250496D01*
X152904804Y-123226227D01*
X152910765Y-123202429D01*
X152919030Y-123179329D01*
X152929520Y-123157151D01*
X152942133Y-123136107D01*
X152956747Y-123116402D01*
X152973223Y-123098223D01*
X152991402Y-123081747D01*
X153011107Y-123067133D01*
X153032151Y-123054520D01*
X153054329Y-123044030D01*
X153077429Y-123035765D01*
X153101227Y-123029804D01*
X153125496Y-123026204D01*
X153150000Y-123025000D01*
X154350000Y-123025000D01*
X154374504Y-123026204D01*
X154374504Y-123026204D01*
G37*
D14*
X153750000Y-124000000D03*
D15*
X134500000Y-84500000D03*
X113850000Y-94150000D03*
X90850000Y-94150000D03*
X165500000Y-115500000D03*
X165500000Y-84500000D03*
X134500000Y-115500000D03*
X160650000Y-67350000D03*
X160650000Y-49350000D03*
D16*
X128029000Y-106731000D03*
X128029000Y-105715000D03*
X127013000Y-105715000D03*
X125997000Y-105715000D03*
X124981000Y-105715000D03*
X123965000Y-105715000D03*
X122949000Y-105715000D03*
X121933000Y-105715000D03*
X120917000Y-105715000D03*
X120917000Y-106731000D03*
X121933000Y-106731000D03*
X122949000Y-106731000D03*
X123965000Y-106731000D03*
X124981000Y-106731000D03*
X125997000Y-106731000D03*
X127013000Y-106731000D03*
X127013000Y-107747000D03*
X125997000Y-107747000D03*
X124981000Y-107747000D03*
X123965000Y-107747000D03*
X122949000Y-107747000D03*
X121933000Y-107747000D03*
X120917000Y-107747000D03*
X120917000Y-108763000D03*
X121933000Y-108763000D03*
X122949000Y-108763000D03*
X123965000Y-108763000D03*
X124981000Y-108763000D03*
X125997000Y-108763000D03*
X164351000Y-74092000D03*
X163335000Y-74092000D03*
X162319000Y-74092000D03*
X161303000Y-74092000D03*
X160287000Y-74092000D03*
X159271000Y-74092000D03*
X158255000Y-74092000D03*
X158763000Y-73203000D03*
X159779000Y-73203000D03*
X160795000Y-73203000D03*
X161811000Y-73203000D03*
X162827000Y-73203000D03*
X163843000Y-73203000D03*
X164351000Y-72314000D03*
X163335000Y-72314000D03*
X162319000Y-72314000D03*
X161303000Y-72314000D03*
X160287000Y-72314000D03*
X159271000Y-72314000D03*
X158255000Y-72314000D03*
X158763000Y-71425000D03*
X159779000Y-71425000D03*
X160795000Y-71425000D03*
X161811000Y-71425000D03*
X162827000Y-71425000D03*
X163843000Y-71425000D03*
X164859000Y-71425000D03*
X164351000Y-70536000D03*
X165367000Y-70536000D03*
X163335000Y-70536000D03*
X164859000Y-69647000D03*
X163843000Y-69647000D03*
X164351000Y-68758000D03*
X165367000Y-68758000D03*
X154953000Y-57074000D03*
X154064000Y-54534000D03*
X166256000Y-75616000D03*
X165494000Y-74473000D03*
X156731000Y-62154000D03*
X155842000Y-59614000D03*
X128410000Y-99238000D03*
X128410000Y-100254000D03*
X128410000Y-101270000D03*
X128410000Y-102286000D03*
X127394000Y-99238000D03*
X127394000Y-100254000D03*
X127394000Y-101270000D03*
X127394000Y-102286000D03*
X127394000Y-103302000D03*
X126378000Y-100254000D03*
X126378000Y-101270000D03*
X126378000Y-102286000D03*
X126378000Y-103302000D03*
X126378000Y-104318000D03*
X125362000Y-101270000D03*
X125362000Y-102286000D03*
X125362000Y-103302000D03*
X125362000Y-104318000D03*
X124346000Y-104318000D03*
X124346000Y-103302000D03*
X124346000Y-102286000D03*
X123330000Y-103302000D03*
X123330000Y-104318000D03*
X122314000Y-104254500D03*
X155969000Y-78156000D03*
X154953000Y-78156000D03*
X153937000Y-78156000D03*
X152921000Y-78156000D03*
X151905000Y-78156000D03*
X150889000Y-78156000D03*
X149873000Y-78156000D03*
X150381000Y-77267000D03*
X151397000Y-77267000D03*
X152413000Y-77267000D03*
X153429000Y-77267000D03*
X154445000Y-77267000D03*
X155461000Y-77267000D03*
X155969000Y-76378000D03*
X154953000Y-76378000D03*
X153937000Y-76378000D03*
X152921000Y-76378000D03*
X151905000Y-76378000D03*
X152413000Y-75489000D03*
X153429000Y-75489000D03*
X154445000Y-75489000D03*
X152921000Y-74600000D03*
X155461000Y-75489000D03*
X154953000Y-74600000D03*
X153937000Y-74473000D03*
X154445000Y-73584000D03*
X99327000Y-92507000D03*
X99327000Y-91618000D03*
X99327000Y-90729000D03*
X99327000Y-89840000D03*
X95898000Y-92507000D03*
X95898000Y-91618000D03*
X95898000Y-90729000D03*
X95898000Y-89840000D03*
X98184000Y-92507000D03*
X98184000Y-91618000D03*
X98184000Y-90729000D03*
X98184000Y-89840000D03*
X97041000Y-92507000D03*
X97041000Y-91618000D03*
X97041000Y-90729000D03*
X97041000Y-89840000D03*
D17*
X154953000Y-57639685D02*
X154953000Y-57074000D01*
X154953000Y-68885000D02*
X154953000Y-57639685D01*
X147333000Y-79172000D02*
X147333000Y-76505000D01*
X144666000Y-81839000D02*
X147333000Y-79172000D01*
X144666000Y-88570000D02*
X144666000Y-81839000D01*
X147333000Y-76505000D02*
X154953000Y-68885000D01*
X138062000Y-95174000D02*
X144666000Y-88570000D01*
X127394000Y-95174000D02*
X138062000Y-95174000D01*
X98540000Y-108738000D02*
X97739500Y-107937500D01*
X98540000Y-109960000D02*
X98540000Y-108738000D01*
X97739500Y-107937500D02*
X97739500Y-104762500D01*
X97739500Y-104762500D02*
X98692000Y-103810000D01*
X98692000Y-103810000D02*
X118758000Y-103810000D01*
X118758000Y-103810000D02*
X127394000Y-95174000D01*
X96025000Y-109935000D02*
X96000000Y-109960000D01*
X96850500Y-107937500D02*
X96025000Y-108763000D01*
X96850500Y-104381500D02*
X96850500Y-107937500D01*
X98311000Y-102921000D02*
X96850500Y-104381500D01*
X118377000Y-102921000D02*
X98311000Y-102921000D01*
X127013000Y-94285000D02*
X118377000Y-102921000D01*
X137681000Y-94285000D02*
X127013000Y-94285000D01*
X154064000Y-54534000D02*
X154064000Y-68631000D01*
X146444000Y-76251000D02*
X146444000Y-78791000D01*
X143777000Y-81458000D02*
X143777000Y-88189000D01*
X96025000Y-108763000D02*
X96025000Y-109935000D01*
X154064000Y-68631000D02*
X146444000Y-76251000D01*
X146444000Y-78791000D02*
X143777000Y-81458000D01*
X143777000Y-88189000D02*
X137681000Y-94285000D01*
D18*
X108700000Y-108280000D02*
X108700000Y-109960000D01*
X109614000Y-107366000D02*
X108700000Y-108280000D01*
X116853000Y-107366000D02*
X109614000Y-107366000D01*
X126632000Y-110160000D02*
X119647000Y-110160000D01*
X130442000Y-106350000D02*
X126632000Y-110160000D01*
X138570000Y-106350000D02*
X130442000Y-106350000D01*
X166764000Y-76124000D02*
X166764000Y-76505000D01*
X166256000Y-75616000D02*
X166764000Y-76124000D01*
X166764000Y-76505000D02*
X170066000Y-79807000D01*
X170066000Y-79807000D02*
X170066000Y-99619000D01*
X142380000Y-110160000D02*
X138570000Y-106350000D01*
X170066000Y-99619000D02*
X159525000Y-110160000D01*
X119647000Y-110160000D02*
X116853000Y-107366000D01*
X159525000Y-110160000D02*
X142380000Y-110160000D01*
X117107000Y-106858000D02*
X106947000Y-106858000D01*
X119901000Y-109652000D02*
X117107000Y-106858000D01*
X126441500Y-109652000D02*
X119901000Y-109652000D01*
X106160000Y-107645000D02*
X106160000Y-109960000D01*
X130251500Y-105842000D02*
X126441500Y-109652000D01*
X138824000Y-105842000D02*
X130251500Y-105842000D01*
X165494000Y-75929962D02*
X169558000Y-79993962D01*
X106947000Y-106858000D02*
X106160000Y-107645000D01*
X165494000Y-74473000D02*
X165494000Y-75929962D01*
X169558000Y-79993962D02*
X169558000Y-99365000D01*
X169558000Y-99365000D02*
X159271000Y-109652000D01*
X159271000Y-109652000D02*
X142634000Y-109652000D01*
X142634000Y-109652000D02*
X138824000Y-105842000D01*
D17*
X102883000Y-107366000D02*
X103620000Y-108103000D01*
X102883000Y-105969000D02*
X102883000Y-107366000D01*
X103620000Y-108103000D02*
X103620000Y-109960000D01*
X103264000Y-105588000D02*
X102883000Y-105969000D01*
X119520000Y-105588000D02*
X103264000Y-105588000D01*
X138824000Y-96952000D02*
X128156000Y-96952000D01*
X156731000Y-69393000D02*
X148857000Y-77267000D01*
X156731000Y-62154000D02*
X156731000Y-69393000D01*
X148857000Y-77267000D02*
X148857000Y-80188000D01*
X148857000Y-80188000D02*
X146444000Y-82601000D01*
X128156000Y-96952000D02*
X119520000Y-105588000D01*
X146444000Y-82601000D02*
X146444000Y-89332000D01*
X146444000Y-89332000D02*
X138824000Y-96952000D01*
X101080000Y-108280000D02*
X101080000Y-109960000D01*
X102883000Y-104699000D02*
X101994000Y-105588000D01*
X119139000Y-104699000D02*
X102883000Y-104699000D01*
X127775000Y-96063000D02*
X119139000Y-104699000D01*
X138443000Y-96063000D02*
X127775000Y-96063000D01*
X155842000Y-69139000D02*
X148095000Y-76886000D01*
X155842000Y-59614000D02*
X155842000Y-69139000D01*
X101994000Y-105588000D02*
X101994000Y-107366000D01*
X148095000Y-76886000D02*
X148095000Y-79680000D01*
X101994000Y-107366000D02*
X101080000Y-108280000D01*
X148095000Y-79680000D02*
X145555000Y-82220000D01*
X145555000Y-82220000D02*
X145555000Y-88951000D01*
X145555000Y-88951000D02*
X138443000Y-96063000D01*
D19*
X113780000Y-109960000D02*
X116460000Y-109960000D01*
X116460000Y-109960000D02*
X118750000Y-112250000D01*
X118750000Y-112250000D02*
X127500000Y-112250000D01*
X127500000Y-112250000D02*
X131250000Y-108500000D01*
X131250000Y-108500000D02*
X137750000Y-108500000D01*
X137750000Y-108500000D02*
X141500000Y-112250000D01*
X141500000Y-112250000D02*
X146250000Y-112250000D01*
X151250000Y-117250000D02*
X151250000Y-124000000D01*
X146250000Y-112250000D02*
X151250000Y-117250000D01*
X145750000Y-113500000D02*
X148750000Y-116500000D01*
X141000000Y-113500000D02*
X145750000Y-113500000D01*
X148750000Y-116500000D02*
X148750000Y-124000000D01*
X115750000Y-112500000D02*
X116750000Y-113500000D01*
X113780000Y-112500000D02*
X115750000Y-112500000D01*
X116750000Y-113500000D02*
X128000000Y-113500000D01*
X128000000Y-113500000D02*
X131750000Y-109750000D01*
X131750000Y-109750000D02*
X137250000Y-109750000D01*
X137250000Y-109750000D02*
X141000000Y-113500000D01*
X111240000Y-108738686D02*
X111728686Y-108250000D01*
X111240000Y-109960000D02*
X111240000Y-108738686D01*
X111728686Y-108250000D02*
X116500000Y-108250000D01*
X116500000Y-108250000D02*
X119250000Y-111000000D01*
X119250000Y-111000000D02*
X127000000Y-111000000D01*
X127000000Y-111000000D02*
X130750000Y-107250000D01*
X130750000Y-107250000D02*
X138250000Y-107250000D01*
X138250000Y-107250000D02*
X142000000Y-111000000D01*
X142000000Y-111000000D02*
X146750000Y-111000000D01*
X153750000Y-118000000D02*
X153750000Y-124000000D01*
X146750000Y-111000000D02*
X153750000Y-118000000D01*
X145250000Y-114750000D02*
X146250000Y-115750000D01*
X140500000Y-114750000D02*
X145250000Y-114750000D01*
X111240000Y-114240000D02*
X111750000Y-114750000D01*
X146250000Y-115750000D02*
X146250000Y-124000000D01*
X111240000Y-112500000D02*
X111240000Y-114240000D01*
X128500000Y-114750000D02*
X132250000Y-111000000D01*
X111750000Y-114750000D02*
X128500000Y-114750000D01*
X132250000Y-111000000D02*
X136750000Y-111000000D01*
X136750000Y-111000000D02*
X140500000Y-114750000D01*
X99327000Y-92634000D02*
X99327000Y-89840000D01*
X109995000Y-98476000D02*
X104661000Y-93142000D01*
X124981000Y-89840000D02*
X116345000Y-98476000D01*
X135522000Y-89840000D02*
X124981000Y-89840000D01*
X139332000Y-79553000D02*
X139332000Y-86030000D01*
X148863000Y-52000000D02*
X149619000Y-52756000D01*
X99835000Y-93142000D02*
X99327000Y-92634000D01*
X116345000Y-98476000D02*
X109995000Y-98476000D01*
X149619000Y-52756000D02*
X149619000Y-67107000D01*
X104661000Y-93142000D02*
X99835000Y-93142000D01*
X149619000Y-67107000D02*
X141999000Y-74727000D01*
X141999000Y-74727000D02*
X141999000Y-76886000D01*
X139332000Y-86030000D02*
X135522000Y-89840000D01*
X147415000Y-52000000D02*
X148863000Y-52000000D01*
X141999000Y-76886000D02*
X139332000Y-79553000D01*
X95898000Y-94158000D02*
X95898000Y-89840000D01*
X98311000Y-96571000D02*
X95898000Y-94158000D01*
X103010000Y-96571000D02*
X98311000Y-96571000D01*
X144875000Y-52000000D02*
X143653686Y-52000000D01*
X137173000Y-93269000D02*
X126505000Y-93269000D01*
X151270000Y-46533000D02*
X153048000Y-48311000D01*
X153048000Y-48311000D02*
X153048000Y-68250000D01*
X144158000Y-46533000D02*
X151270000Y-46533000D01*
X143015000Y-47676000D02*
X144158000Y-46533000D01*
X145428000Y-75870000D02*
X145428000Y-78410000D01*
X142761000Y-81077000D02*
X142761000Y-87681000D01*
X143015000Y-51361314D02*
X143015000Y-47676000D01*
X143653686Y-52000000D02*
X143015000Y-51361314D01*
X153048000Y-68250000D02*
X145428000Y-75870000D01*
X145428000Y-78410000D02*
X142761000Y-81077000D01*
X142761000Y-87681000D02*
X137173000Y-93269000D01*
X126505000Y-93269000D02*
X117869000Y-101905000D01*
X108344000Y-101905000D02*
X103010000Y-96571000D01*
X117869000Y-101905000D02*
X108344000Y-101905000D01*
X98184000Y-93142000D02*
X98184000Y-89840000D01*
X99327000Y-94285000D02*
X98184000Y-93142000D01*
X104153000Y-94285000D02*
X99327000Y-94285000D01*
X109487000Y-99619000D02*
X104153000Y-94285000D01*
X116853000Y-99619000D02*
X109487000Y-99619000D01*
X125489000Y-90983000D02*
X116853000Y-99619000D01*
X136030000Y-90983000D02*
X125489000Y-90983000D01*
X140475000Y-86538000D02*
X136030000Y-90983000D01*
X140475000Y-80061000D02*
X140475000Y-86538000D01*
X149244000Y-49460000D02*
X150762000Y-50978000D01*
X147415000Y-49460000D02*
X149244000Y-49460000D01*
X150762000Y-50978000D02*
X150762000Y-67488000D01*
X150762000Y-67488000D02*
X143142000Y-75108000D01*
X143142000Y-75108000D02*
X143142000Y-77394000D01*
X143142000Y-77394000D02*
X140475000Y-80061000D01*
X97041000Y-93650000D02*
X97041000Y-89840000D01*
X151905000Y-67869000D02*
X144285000Y-75489000D01*
X151905000Y-49708000D02*
X151905000Y-67869000D01*
X144285000Y-75489000D02*
X144285000Y-77838500D01*
X149873000Y-47676000D02*
X151905000Y-49708000D01*
X136538000Y-92126000D02*
X125997000Y-92126000D01*
X145033400Y-47676000D02*
X149873000Y-47676000D01*
X141618000Y-87046000D02*
X136538000Y-92126000D01*
X144875000Y-47834400D02*
X145033400Y-47676000D01*
X141618000Y-80505500D02*
X141618000Y-87046000D01*
X144285000Y-77838500D02*
X141618000Y-80505500D01*
X144875000Y-49460000D02*
X144875000Y-47834400D01*
X125997000Y-92126000D02*
X117361000Y-100762000D01*
X117361000Y-100762000D02*
X108852000Y-100762000D01*
X108852000Y-100762000D02*
X103518000Y-95428000D01*
X103518000Y-95428000D02*
X98819000Y-95428000D01*
X98819000Y-95428000D02*
X97041000Y-93650000D01*
D20*
G36*
X165769002Y-70208459D02*
G01*
X165770066Y-70219267D01*
X165834781Y-71351202D01*
X165837517Y-71373903D01*
X165840116Y-71396559D01*
X166061298Y-72632738D01*
X166072665Y-72679214D01*
X166072669Y-72679224D01*
X166447034Y-73877910D01*
X166447038Y-73877925D01*
X166464142Y-73922610D01*
X166985799Y-75064940D01*
X166985801Y-75064946D01*
X166990022Y-75072836D01*
X167008369Y-75107135D01*
X167008377Y-75107146D01*
X167669077Y-76175063D01*
X167669087Y-76175082D01*
X167683507Y-76195414D01*
X167696766Y-76214110D01*
X167696773Y-76214117D01*
X168486118Y-77190819D01*
X168486124Y-77190827D01*
X168492290Y-77197545D01*
X168518475Y-77226077D01*
X168518483Y-77226084D01*
X169424023Y-78096158D01*
X169460538Y-78127077D01*
X169735800Y-78331920D01*
X169735800Y-78906589D01*
X167167200Y-76337990D01*
X167167200Y-76143787D01*
X167169149Y-76123999D01*
X167167200Y-76104211D01*
X167167200Y-76104202D01*
X167161365Y-76044959D01*
X167138310Y-75968956D01*
X167100870Y-75898911D01*
X167080654Y-75874278D01*
X167063104Y-75852893D01*
X167063102Y-75852891D01*
X167050484Y-75837516D01*
X167035110Y-75824899D01*
X166925665Y-75715454D01*
X166932200Y-75682600D01*
X166932200Y-75549400D01*
X166906214Y-75418760D01*
X166855241Y-75295699D01*
X166781239Y-75184948D01*
X166687052Y-75090761D01*
X166576301Y-75016759D01*
X166453240Y-74965786D01*
X166322600Y-74939800D01*
X166189400Y-74939800D01*
X166058760Y-74965786D01*
X165935699Y-75016759D01*
X165897200Y-75042483D01*
X165897200Y-75016849D01*
X165925052Y-74998239D01*
X166019239Y-74904052D01*
X166093241Y-74793301D01*
X166144214Y-74670240D01*
X166170200Y-74539600D01*
X166170200Y-74406400D01*
X166144214Y-74275760D01*
X166093241Y-74152699D01*
X166019239Y-74041948D01*
X165925052Y-73947761D01*
X165814301Y-73873759D01*
X165691240Y-73822786D01*
X165560600Y-73796800D01*
X165427400Y-73796800D01*
X165296760Y-73822786D01*
X165173699Y-73873759D01*
X165062948Y-73947761D01*
X164968761Y-74041948D01*
X164894759Y-74152699D01*
X164843786Y-74275760D01*
X164817800Y-74406400D01*
X164817800Y-74539600D01*
X164843786Y-74670240D01*
X164894759Y-74793301D01*
X164968761Y-74904052D01*
X165062948Y-74998239D01*
X165090800Y-75016850D01*
X165090801Y-75910161D01*
X165088851Y-75929962D01*
X165096635Y-76009003D01*
X165119691Y-76085006D01*
X165157131Y-76155051D01*
X165186416Y-76190734D01*
X165207517Y-76216446D01*
X165222892Y-76229064D01*
X169154800Y-80160973D01*
X169154801Y-99197988D01*
X159103990Y-109248800D01*
X142801010Y-109248800D01*
X139123107Y-105570897D01*
X139110484Y-105555516D01*
X139049089Y-105505130D01*
X138979044Y-105467690D01*
X138903041Y-105444635D01*
X138843798Y-105438800D01*
X138843791Y-105438800D01*
X138824000Y-105436851D01*
X138804209Y-105438800D01*
X130271291Y-105438800D01*
X130251500Y-105436851D01*
X130231709Y-105438800D01*
X130231702Y-105438800D01*
X130172459Y-105444635D01*
X130096455Y-105467690D01*
X130065824Y-105484063D01*
X130026411Y-105505130D01*
X129965016Y-105555516D01*
X129952393Y-105570897D01*
X126274490Y-109248800D01*
X120358200Y-109248800D01*
X120358200Y-105719994D01*
X120377875Y-105570545D01*
X120433636Y-105435927D01*
X120472377Y-105385438D01*
X120587438Y-105270377D01*
X120637927Y-105231636D01*
X120772545Y-105175875D01*
X120921994Y-105156200D01*
X126749974Y-105156200D01*
X126759920Y-105155548D01*
X126924270Y-105133911D01*
X126943485Y-105128763D01*
X127096635Y-105065326D01*
X127113861Y-105055380D01*
X127245374Y-104954467D01*
X127252869Y-104947895D01*
X130306367Y-101894397D01*
X130425953Y-101802636D01*
X130560571Y-101746875D01*
X130710020Y-101727200D01*
X144896319Y-101727200D01*
X144943395Y-101897775D01*
X145363518Y-102770169D01*
X145932661Y-103553527D01*
X146632532Y-104222672D01*
X147440635Y-104756096D01*
X148330999Y-105136656D01*
X149275006Y-105352120D01*
X150242315Y-105395562D01*
X151201836Y-105265586D01*
X152122728Y-104966369D01*
X152975395Y-104507530D01*
X153732429Y-103903815D01*
X154369501Y-103174628D01*
X154866133Y-102343406D01*
X155206363Y-101436865D01*
X155379257Y-100484142D01*
X155379257Y-99515858D01*
X155206363Y-98563135D01*
X154866133Y-97656594D01*
X154369501Y-96825372D01*
X154001014Y-96403605D01*
X156475901Y-93888801D01*
X156482351Y-93881336D01*
X156581373Y-93750492D01*
X156591128Y-93733386D01*
X156653315Y-93581537D01*
X156658360Y-93562504D01*
X156679561Y-93399790D01*
X156680200Y-93389945D01*
X156680200Y-84157624D01*
X162023800Y-84157624D01*
X162023800Y-84842376D01*
X162157388Y-85513970D01*
X162419431Y-86146598D01*
X162799859Y-86715948D01*
X163284052Y-87200141D01*
X163853402Y-87580569D01*
X164486030Y-87842612D01*
X165157624Y-87976200D01*
X165842376Y-87976200D01*
X166513970Y-87842612D01*
X167146598Y-87580569D01*
X167715948Y-87200141D01*
X168200141Y-86715948D01*
X168580569Y-86146598D01*
X168842612Y-85513970D01*
X168976200Y-84842376D01*
X168976200Y-84157624D01*
X168842612Y-83486030D01*
X168580569Y-82853402D01*
X168200141Y-82284052D01*
X167715948Y-81799859D01*
X167146598Y-81419431D01*
X166513970Y-81157388D01*
X165842376Y-81023800D01*
X165157624Y-81023800D01*
X164486030Y-81157388D01*
X163853402Y-81419431D01*
X163284052Y-81799859D01*
X162799859Y-82284052D01*
X162419431Y-82853402D01*
X162157388Y-83486030D01*
X162023800Y-84157624D01*
X156680200Y-84157624D01*
X156680200Y-70193616D01*
X157087491Y-69786325D01*
X157107722Y-69769722D01*
X157173978Y-69688988D01*
X157223211Y-69596880D01*
X157253528Y-69496937D01*
X157261200Y-69419043D01*
X157263765Y-69393000D01*
X157261200Y-69366957D01*
X157261200Y-68131767D01*
X157307388Y-68363970D01*
X157569431Y-68996598D01*
X157949859Y-69565948D01*
X158434052Y-70050141D01*
X159003402Y-70430569D01*
X159636030Y-70692612D01*
X160307624Y-70826200D01*
X160992376Y-70826200D01*
X161663970Y-70692612D01*
X162296598Y-70430569D01*
X162865948Y-70050141D01*
X163350141Y-69565948D01*
X163730569Y-68996598D01*
X163992612Y-68363970D01*
X164126200Y-67692376D01*
X164126200Y-67564200D01*
X165769002Y-67564200D01*
X165769002Y-70208459D01*
X165769002Y-70208459D01*
G37*
X165769002Y-70208459D02*
X165770066Y-70219267D01*
X165834781Y-71351202D01*
X165837517Y-71373903D01*
X165840116Y-71396559D01*
X166061298Y-72632738D01*
X166072665Y-72679214D01*
X166072669Y-72679224D01*
X166447034Y-73877910D01*
X166447038Y-73877925D01*
X166464142Y-73922610D01*
X166985799Y-75064940D01*
X166985801Y-75064946D01*
X166990022Y-75072836D01*
X167008369Y-75107135D01*
X167008377Y-75107146D01*
X167669077Y-76175063D01*
X167669087Y-76175082D01*
X167683507Y-76195414D01*
X167696766Y-76214110D01*
X167696773Y-76214117D01*
X168486118Y-77190819D01*
X168486124Y-77190827D01*
X168492290Y-77197545D01*
X168518475Y-77226077D01*
X168518483Y-77226084D01*
X169424023Y-78096158D01*
X169460538Y-78127077D01*
X169735800Y-78331920D01*
X169735800Y-78906589D01*
X167167200Y-76337990D01*
X167167200Y-76143787D01*
X167169149Y-76123999D01*
X167167200Y-76104211D01*
X167167200Y-76104202D01*
X167161365Y-76044959D01*
X167138310Y-75968956D01*
X167100870Y-75898911D01*
X167080654Y-75874278D01*
X167063104Y-75852893D01*
X167063102Y-75852891D01*
X167050484Y-75837516D01*
X167035110Y-75824899D01*
X166925665Y-75715454D01*
X166932200Y-75682600D01*
X166932200Y-75549400D01*
X166906214Y-75418760D01*
X166855241Y-75295699D01*
X166781239Y-75184948D01*
X166687052Y-75090761D01*
X166576301Y-75016759D01*
X166453240Y-74965786D01*
X166322600Y-74939800D01*
X166189400Y-74939800D01*
X166058760Y-74965786D01*
X165935699Y-75016759D01*
X165897200Y-75042483D01*
X165897200Y-75016849D01*
X165925052Y-74998239D01*
X166019239Y-74904052D01*
X166093241Y-74793301D01*
X166144214Y-74670240D01*
X166170200Y-74539600D01*
X166170200Y-74406400D01*
X166144214Y-74275760D01*
X166093241Y-74152699D01*
X166019239Y-74041948D01*
X165925052Y-73947761D01*
X165814301Y-73873759D01*
X165691240Y-73822786D01*
X165560600Y-73796800D01*
X165427400Y-73796800D01*
X165296760Y-73822786D01*
X165173699Y-73873759D01*
X165062948Y-73947761D01*
X164968761Y-74041948D01*
X164894759Y-74152699D01*
X164843786Y-74275760D01*
X164817800Y-74406400D01*
X164817800Y-74539600D01*
X164843786Y-74670240D01*
X164894759Y-74793301D01*
X164968761Y-74904052D01*
X165062948Y-74998239D01*
X165090800Y-75016850D01*
X165090801Y-75910161D01*
X165088851Y-75929962D01*
X165096635Y-76009003D01*
X165119691Y-76085006D01*
X165157131Y-76155051D01*
X165186416Y-76190734D01*
X165207517Y-76216446D01*
X165222892Y-76229064D01*
X169154800Y-80160973D01*
X169154801Y-99197988D01*
X159103990Y-109248800D01*
X142801010Y-109248800D01*
X139123107Y-105570897D01*
X139110484Y-105555516D01*
X139049089Y-105505130D01*
X138979044Y-105467690D01*
X138903041Y-105444635D01*
X138843798Y-105438800D01*
X138843791Y-105438800D01*
X138824000Y-105436851D01*
X138804209Y-105438800D01*
X130271291Y-105438800D01*
X130251500Y-105436851D01*
X130231709Y-105438800D01*
X130231702Y-105438800D01*
X130172459Y-105444635D01*
X130096455Y-105467690D01*
X130065824Y-105484063D01*
X130026411Y-105505130D01*
X129965016Y-105555516D01*
X129952393Y-105570897D01*
X126274490Y-109248800D01*
X120358200Y-109248800D01*
X120358200Y-105719994D01*
X120377875Y-105570545D01*
X120433636Y-105435927D01*
X120472377Y-105385438D01*
X120587438Y-105270377D01*
X120637927Y-105231636D01*
X120772545Y-105175875D01*
X120921994Y-105156200D01*
X126749974Y-105156200D01*
X126759920Y-105155548D01*
X126924270Y-105133911D01*
X126943485Y-105128763D01*
X127096635Y-105065326D01*
X127113861Y-105055380D01*
X127245374Y-104954467D01*
X127252869Y-104947895D01*
X130306367Y-101894397D01*
X130425953Y-101802636D01*
X130560571Y-101746875D01*
X130710020Y-101727200D01*
X144896319Y-101727200D01*
X144943395Y-101897775D01*
X145363518Y-102770169D01*
X145932661Y-103553527D01*
X146632532Y-104222672D01*
X147440635Y-104756096D01*
X148330999Y-105136656D01*
X149275006Y-105352120D01*
X150242315Y-105395562D01*
X151201836Y-105265586D01*
X152122728Y-104966369D01*
X152975395Y-104507530D01*
X153732429Y-103903815D01*
X154369501Y-103174628D01*
X154866133Y-102343406D01*
X155206363Y-101436865D01*
X155379257Y-100484142D01*
X155379257Y-99515858D01*
X155206363Y-98563135D01*
X154866133Y-97656594D01*
X154369501Y-96825372D01*
X154001014Y-96403605D01*
X156475901Y-93888801D01*
X156482351Y-93881336D01*
X156581373Y-93750492D01*
X156591128Y-93733386D01*
X156653315Y-93581537D01*
X156658360Y-93562504D01*
X156679561Y-93399790D01*
X156680200Y-93389945D01*
X156680200Y-84157624D01*
X162023800Y-84157624D01*
X162023800Y-84842376D01*
X162157388Y-85513970D01*
X162419431Y-86146598D01*
X162799859Y-86715948D01*
X163284052Y-87200141D01*
X163853402Y-87580569D01*
X164486030Y-87842612D01*
X165157624Y-87976200D01*
X165842376Y-87976200D01*
X166513970Y-87842612D01*
X167146598Y-87580569D01*
X167715948Y-87200141D01*
X168200141Y-86715948D01*
X168580569Y-86146598D01*
X168842612Y-85513970D01*
X168976200Y-84842376D01*
X168976200Y-84157624D01*
X168842612Y-83486030D01*
X168580569Y-82853402D01*
X168200141Y-82284052D01*
X167715948Y-81799859D01*
X167146598Y-81419431D01*
X166513970Y-81157388D01*
X165842376Y-81023800D01*
X165157624Y-81023800D01*
X164486030Y-81157388D01*
X163853402Y-81419431D01*
X163284052Y-81799859D01*
X162799859Y-82284052D01*
X162419431Y-82853402D01*
X162157388Y-83486030D01*
X162023800Y-84157624D01*
X156680200Y-84157624D01*
X156680200Y-70193616D01*
X157087491Y-69786325D01*
X157107722Y-69769722D01*
X157173978Y-69688988D01*
X157223211Y-69596880D01*
X157253528Y-69496937D01*
X157261200Y-69419043D01*
X157263765Y-69393000D01*
X157261200Y-69366957D01*
X157261200Y-68131767D01*
X157307388Y-68363970D01*
X157569431Y-68996598D01*
X157949859Y-69565948D01*
X158434052Y-70050141D01*
X159003402Y-70430569D01*
X159636030Y-70692612D01*
X160307624Y-70826200D01*
X160992376Y-70826200D01*
X161663970Y-70692612D01*
X162296598Y-70430569D01*
X162865948Y-70050141D01*
X163350141Y-69565948D01*
X163730569Y-68996598D01*
X163992612Y-68363970D01*
X164126200Y-67692376D01*
X164126200Y-67564200D01*
X165769002Y-67564200D01*
X165769002Y-70208459D01*
G36*
X156327800Y-93372026D02*
G01*
X156313564Y-93481286D01*
X156278654Y-93566530D01*
X156212161Y-93654391D01*
X153768497Y-96137468D01*
X153732429Y-96096185D01*
X152975395Y-95492470D01*
X152122728Y-95033631D01*
X151201836Y-94734414D01*
X150242315Y-94604438D01*
X149275006Y-94647880D01*
X148330999Y-94863344D01*
X147440635Y-95243904D01*
X146632532Y-95777328D01*
X145932661Y-96446473D01*
X145363518Y-97229831D01*
X144943395Y-98102225D01*
X144685796Y-99035614D01*
X144599000Y-100000000D01*
X144685796Y-100964386D01*
X144799063Y-101374800D01*
X130705026Y-101374800D01*
X130668975Y-101377163D01*
X130504625Y-101398800D01*
X130434979Y-101417462D01*
X130281829Y-101480899D01*
X130219387Y-101516949D01*
X130087874Y-101617862D01*
X130060710Y-101641684D01*
X127016485Y-104685909D01*
X126928181Y-104753667D01*
X126842223Y-104789272D01*
X126731872Y-104803800D01*
X121054015Y-104803800D01*
X128375616Y-97482200D01*
X138797960Y-97482200D01*
X138824000Y-97484765D01*
X138850040Y-97482200D01*
X138850043Y-97482200D01*
X138927937Y-97474528D01*
X139027880Y-97444211D01*
X139119988Y-97394978D01*
X139200722Y-97328722D01*
X139217329Y-97308486D01*
X146800491Y-89725325D01*
X146820722Y-89708722D01*
X146886978Y-89627988D01*
X146936211Y-89535880D01*
X146966528Y-89435937D01*
X146974200Y-89358043D01*
X146974200Y-89358041D01*
X146976765Y-89332001D01*
X146974200Y-89305961D01*
X146974200Y-82820615D01*
X149213491Y-80581325D01*
X149233722Y-80564722D01*
X149299978Y-80483988D01*
X149349211Y-80391880D01*
X149379528Y-80291937D01*
X149387200Y-80214043D01*
X149387200Y-80214041D01*
X149389765Y-80188001D01*
X149387200Y-80161961D01*
X149387200Y-77486615D01*
X156327800Y-70546016D01*
X156327800Y-93372026D01*
X156327800Y-93372026D01*
G37*
X156327800Y-93372026D02*
X156313564Y-93481286D01*
X156278654Y-93566530D01*
X156212161Y-93654391D01*
X153768497Y-96137468D01*
X153732429Y-96096185D01*
X152975395Y-95492470D01*
X152122728Y-95033631D01*
X151201836Y-94734414D01*
X150242315Y-94604438D01*
X149275006Y-94647880D01*
X148330999Y-94863344D01*
X147440635Y-95243904D01*
X146632532Y-95777328D01*
X145932661Y-96446473D01*
X145363518Y-97229831D01*
X144943395Y-98102225D01*
X144685796Y-99035614D01*
X144599000Y-100000000D01*
X144685796Y-100964386D01*
X144799063Y-101374800D01*
X130705026Y-101374800D01*
X130668975Y-101377163D01*
X130504625Y-101398800D01*
X130434979Y-101417462D01*
X130281829Y-101480899D01*
X130219387Y-101516949D01*
X130087874Y-101617862D01*
X130060710Y-101641684D01*
X127016485Y-104685909D01*
X126928181Y-104753667D01*
X126842223Y-104789272D01*
X126731872Y-104803800D01*
X121054015Y-104803800D01*
X128375616Y-97482200D01*
X138797960Y-97482200D01*
X138824000Y-97484765D01*
X138850040Y-97482200D01*
X138850043Y-97482200D01*
X138927937Y-97474528D01*
X139027880Y-97444211D01*
X139119988Y-97394978D01*
X139200722Y-97328722D01*
X139217329Y-97308486D01*
X146800491Y-89725325D01*
X146820722Y-89708722D01*
X146886978Y-89627988D01*
X146936211Y-89535880D01*
X146966528Y-89435937D01*
X146974200Y-89358043D01*
X146974200Y-89358041D01*
X146976765Y-89332001D01*
X146974200Y-89305961D01*
X146974200Y-82820615D01*
X149213491Y-80581325D01*
X149233722Y-80564722D01*
X149299978Y-80483988D01*
X149349211Y-80391880D01*
X149379528Y-80291937D01*
X149387200Y-80214043D01*
X149387200Y-80214041D01*
X149389765Y-80188001D01*
X149387200Y-80161961D01*
X149387200Y-77486615D01*
X156327800Y-70546016D01*
X156327800Y-93372026D01*
M02*
