G04 #@! TF.GenerationSoftware,KiCad,Pcbnew,(5.1.4)-1*
G04 #@! TF.CreationDate,2020-03-27T16:40:10-04:00*
G04 #@! TF.ProjectId,gantry_x_motor_breakout,67616e74-7279-45f7-985f-6d6f746f725f,rev?*
G04 #@! TF.SameCoordinates,Original*
G04 #@! TF.FileFunction,Copper,L2,Bot*
G04 #@! TF.FilePolarity,Positive*
%FSLAX46Y46*%
G04 Gerber Fmt 4.6, Leading zero omitted, Abs format (unit mm)*
G04 Created by KiCad (PCBNEW (5.1.4)-1) date 2020-03-27 16:40:10*
%MOMM*%
%LPD*%
G04 APERTURE LIST*
%ADD10O,1.727200X1.727200*%
%ADD11R,1.727200X1.727200*%
%ADD12O,1.700000X1.950000*%
%ADD13C,0.100000*%
%ADD14C,1.700000*%
%ADD15C,6.400000*%
%ADD16C,0.800000*%
%ADD17C,0.508000*%
%ADD18C,0.254000*%
%ADD19C,0.762000*%
%ADD20C,0.152400*%
G04 APERTURE END LIST*
D10*
X113780000Y-109960000D03*
X113780000Y-112500000D03*
X111240000Y-109960000D03*
X111240000Y-112500000D03*
X108700000Y-109960000D03*
X108700000Y-112500000D03*
X106160000Y-109960000D03*
X106160000Y-112500000D03*
X103620000Y-109960000D03*
X103620000Y-112500000D03*
X101080000Y-109960000D03*
X101080000Y-112500000D03*
X98540000Y-109960000D03*
X98540000Y-112500000D03*
X96000000Y-109960000D03*
X96000000Y-112500000D03*
X93460000Y-109960000D03*
X93460000Y-112500000D03*
X90920000Y-109960000D03*
D11*
X90920000Y-112500000D03*
D10*
X147415000Y-67240000D03*
X144875000Y-67240000D03*
X147415000Y-64700000D03*
X144875000Y-64700000D03*
X147415000Y-62160000D03*
X144875000Y-62160000D03*
X147415000Y-59620000D03*
X144875000Y-59620000D03*
X147415000Y-57080000D03*
X144875000Y-57080000D03*
X147415000Y-54540000D03*
X144875000Y-54540000D03*
X147415000Y-52000000D03*
X144875000Y-52000000D03*
X147415000Y-49460000D03*
D11*
X144875000Y-49460000D03*
D12*
X146250000Y-124000000D03*
X148750000Y-124000000D03*
X151250000Y-124000000D03*
D13*
G36*
X154374504Y-123026204D02*
G01*
X154398773Y-123029804D01*
X154422571Y-123035765D01*
X154445671Y-123044030D01*
X154467849Y-123054520D01*
X154488893Y-123067133D01*
X154508598Y-123081747D01*
X154526777Y-123098223D01*
X154543253Y-123116402D01*
X154557867Y-123136107D01*
X154570480Y-123157151D01*
X154580970Y-123179329D01*
X154589235Y-123202429D01*
X154595196Y-123226227D01*
X154598796Y-123250496D01*
X154600000Y-123275000D01*
X154600000Y-124725000D01*
X154598796Y-124749504D01*
X154595196Y-124773773D01*
X154589235Y-124797571D01*
X154580970Y-124820671D01*
X154570480Y-124842849D01*
X154557867Y-124863893D01*
X154543253Y-124883598D01*
X154526777Y-124901777D01*
X154508598Y-124918253D01*
X154488893Y-124932867D01*
X154467849Y-124945480D01*
X154445671Y-124955970D01*
X154422571Y-124964235D01*
X154398773Y-124970196D01*
X154374504Y-124973796D01*
X154350000Y-124975000D01*
X153150000Y-124975000D01*
X153125496Y-124973796D01*
X153101227Y-124970196D01*
X153077429Y-124964235D01*
X153054329Y-124955970D01*
X153032151Y-124945480D01*
X153011107Y-124932867D01*
X152991402Y-124918253D01*
X152973223Y-124901777D01*
X152956747Y-124883598D01*
X152942133Y-124863893D01*
X152929520Y-124842849D01*
X152919030Y-124820671D01*
X152910765Y-124797571D01*
X152904804Y-124773773D01*
X152901204Y-124749504D01*
X152900000Y-124725000D01*
X152900000Y-123275000D01*
X152901204Y-123250496D01*
X152904804Y-123226227D01*
X152910765Y-123202429D01*
X152919030Y-123179329D01*
X152929520Y-123157151D01*
X152942133Y-123136107D01*
X152956747Y-123116402D01*
X152973223Y-123098223D01*
X152991402Y-123081747D01*
X153011107Y-123067133D01*
X153032151Y-123054520D01*
X153054329Y-123044030D01*
X153077429Y-123035765D01*
X153101227Y-123029804D01*
X153125496Y-123026204D01*
X153150000Y-123025000D01*
X154350000Y-123025000D01*
X154374504Y-123026204D01*
X154374504Y-123026204D01*
G37*
D14*
X153750000Y-124000000D03*
D15*
X134500000Y-84500000D03*
X113850000Y-94150000D03*
X90850000Y-94150000D03*
X165500000Y-115500000D03*
X165500000Y-84500000D03*
X134500000Y-115500000D03*
X160650000Y-67350000D03*
X160650000Y-49350000D03*
D16*
X128029000Y-106731000D03*
X128029000Y-105715000D03*
X127013000Y-105715000D03*
X125997000Y-105715000D03*
X124981000Y-105715000D03*
X123965000Y-105715000D03*
X122949000Y-105715000D03*
X121933000Y-105715000D03*
X120917000Y-105715000D03*
X120917000Y-106731000D03*
X121933000Y-106731000D03*
X122949000Y-106731000D03*
X123965000Y-106731000D03*
X124981000Y-106731000D03*
X125997000Y-106731000D03*
X127013000Y-106731000D03*
X127013000Y-107747000D03*
X125997000Y-107747000D03*
X124981000Y-107747000D03*
X123965000Y-107747000D03*
X122949000Y-107747000D03*
X121933000Y-107747000D03*
X120917000Y-107747000D03*
X120917000Y-108763000D03*
X121933000Y-108763000D03*
X122949000Y-108763000D03*
X123965000Y-108763000D03*
X124981000Y-108763000D03*
X125997000Y-108763000D03*
X164351000Y-74092000D03*
X163335000Y-74092000D03*
X162319000Y-74092000D03*
X161303000Y-74092000D03*
X160287000Y-74092000D03*
X159271000Y-74092000D03*
X158255000Y-74092000D03*
X158763000Y-73203000D03*
X159779000Y-73203000D03*
X160795000Y-73203000D03*
X161811000Y-73203000D03*
X162827000Y-73203000D03*
X163843000Y-73203000D03*
X164351000Y-72314000D03*
X163335000Y-72314000D03*
X162319000Y-72314000D03*
X161303000Y-72314000D03*
X160287000Y-72314000D03*
X159271000Y-72314000D03*
X158255000Y-72314000D03*
X158763000Y-71425000D03*
X159779000Y-71425000D03*
X160795000Y-71425000D03*
X161811000Y-71425000D03*
X162827000Y-71425000D03*
X163843000Y-71425000D03*
X164859000Y-71425000D03*
X164351000Y-70536000D03*
X165367000Y-70536000D03*
X163335000Y-70536000D03*
X164859000Y-69647000D03*
X163843000Y-69647000D03*
X164351000Y-68758000D03*
X165367000Y-68758000D03*
X154953000Y-57074000D03*
X154064000Y-54534000D03*
X166256000Y-75616000D03*
X165494000Y-74473000D03*
X156731000Y-62154000D03*
X155842000Y-59614000D03*
X128410000Y-99238000D03*
X128410000Y-100254000D03*
X128410000Y-101270000D03*
X128410000Y-102286000D03*
X127394000Y-99238000D03*
X127394000Y-100254000D03*
X127394000Y-101270000D03*
X127394000Y-102286000D03*
X127394000Y-103302000D03*
X126378000Y-100254000D03*
X126378000Y-101270000D03*
X126378000Y-102286000D03*
X126378000Y-103302000D03*
X126378000Y-104318000D03*
X125362000Y-101270000D03*
X125362000Y-102286000D03*
X125362000Y-103302000D03*
X125362000Y-104318000D03*
X124346000Y-104318000D03*
X124346000Y-103302000D03*
X124346000Y-102286000D03*
X123330000Y-103302000D03*
X123330000Y-104318000D03*
X122314000Y-104254500D03*
X155969000Y-78156000D03*
X154953000Y-78156000D03*
X153937000Y-78156000D03*
X152921000Y-78156000D03*
X151905000Y-78156000D03*
X150889000Y-78156000D03*
X149873000Y-78156000D03*
X150381000Y-77267000D03*
X151397000Y-77267000D03*
X152413000Y-77267000D03*
X153429000Y-77267000D03*
X154445000Y-77267000D03*
X155461000Y-77267000D03*
X155969000Y-76378000D03*
X154953000Y-76378000D03*
X153937000Y-76378000D03*
X152921000Y-76378000D03*
X151905000Y-76378000D03*
X152413000Y-75489000D03*
X153429000Y-75489000D03*
X154445000Y-75489000D03*
X152921000Y-74600000D03*
X155461000Y-75489000D03*
X154953000Y-74600000D03*
X153937000Y-74473000D03*
X154445000Y-73584000D03*
X99327000Y-92507000D03*
X99327000Y-91618000D03*
X99327000Y-90729000D03*
X99327000Y-89840000D03*
X95898000Y-92507000D03*
X95898000Y-91618000D03*
X95898000Y-90729000D03*
X95898000Y-89840000D03*
X98184000Y-92507000D03*
X98184000Y-91618000D03*
X98184000Y-90729000D03*
X98184000Y-89840000D03*
X97041000Y-92507000D03*
X97041000Y-91618000D03*
X97041000Y-90729000D03*
X97041000Y-89840000D03*
D17*
X147415000Y-57080000D02*
X154947000Y-57080000D01*
X154947000Y-57080000D02*
X154953000Y-57074000D01*
X147415000Y-54540000D02*
X154058000Y-54540000D01*
X154058000Y-54540000D02*
X154064000Y-54534000D01*
D18*
X165494000Y-75616000D02*
X166256000Y-75616000D01*
X157747000Y-75616000D02*
X165494000Y-75616000D01*
X147415000Y-67240000D02*
X149371000Y-67240000D01*
X149371000Y-67240000D02*
X157747000Y-75616000D01*
X164986000Y-74981000D02*
X165494000Y-74473000D01*
X157874000Y-74981000D02*
X164986000Y-74981000D01*
X149111000Y-66218000D02*
X157874000Y-74981000D01*
X149111000Y-65174686D02*
X149111000Y-66218000D01*
X147415000Y-64700000D02*
X148636314Y-64700000D01*
X148636314Y-64700000D02*
X149111000Y-65174686D01*
D17*
X147415000Y-62160000D02*
X156725000Y-62160000D01*
X156725000Y-62160000D02*
X156731000Y-62154000D01*
X147415000Y-59620000D02*
X155836000Y-59620000D01*
X155836000Y-59620000D02*
X155842000Y-59614000D01*
D19*
X93460000Y-109960000D02*
X93460000Y-104089000D01*
X93460000Y-104089000D02*
X99327000Y-98222000D01*
X99327000Y-98222000D02*
X99327000Y-89840000D01*
X93460000Y-113721314D02*
X92703314Y-114478000D01*
X93460000Y-112500000D02*
X93460000Y-113721314D01*
X92703314Y-114478000D02*
X89421000Y-114478000D01*
X89421000Y-114478000D02*
X87770000Y-112827000D01*
X87770000Y-112827000D02*
X87770000Y-110922000D01*
X87770000Y-110922000D02*
X87770000Y-108509000D01*
X87770000Y-108509000D02*
X88786000Y-107493000D01*
X88786000Y-107493000D02*
X90056000Y-106223000D01*
X90056000Y-106223000D02*
X90056000Y-105588000D01*
X90056000Y-105588000D02*
X90056000Y-102540000D01*
X90056000Y-102540000D02*
X92088000Y-100508000D01*
X92088000Y-100508000D02*
X95898000Y-96698000D01*
X95898000Y-96698000D02*
X95898000Y-89840000D01*
X90920000Y-108738686D02*
X92342000Y-107316686D01*
X90920000Y-109960000D02*
X90920000Y-108738686D01*
X92342000Y-107316686D02*
X92342000Y-103556000D01*
X92342000Y-103556000D02*
X94501000Y-101397000D01*
X94501000Y-101397000D02*
X98184000Y-97714000D01*
X98184000Y-97714000D02*
X98184000Y-89840000D01*
X89294400Y-112500000D02*
X88913000Y-112118600D01*
X90920000Y-112500000D02*
X89294400Y-112500000D01*
X88913000Y-112118600D02*
X88913000Y-109017000D01*
X88913000Y-109017000D02*
X91199000Y-106731000D01*
X91199000Y-106731000D02*
X91199000Y-105334000D01*
X91199000Y-105334000D02*
X91199000Y-103048000D01*
X91199000Y-103048000D02*
X92342000Y-101905000D01*
X92342000Y-101905000D02*
X97041000Y-97206000D01*
X97041000Y-97206000D02*
X97041000Y-89840000D01*
D20*
G36*
X128427455Y-105175875D02*
G01*
X128562073Y-105231636D01*
X128677667Y-105320333D01*
X128766364Y-105435927D01*
X128822125Y-105570545D01*
X128841800Y-105719994D01*
X128841800Y-120420383D01*
X128201827Y-119550053D01*
X128187195Y-119532571D01*
X128172615Y-119514947D01*
X127312962Y-118599510D01*
X127312955Y-118599501D01*
X127278076Y-118566748D01*
X126310457Y-117766264D01*
X126271749Y-117738141D01*
X125211440Y-117065249D01*
X125211433Y-117065244D01*
X125200454Y-117059208D01*
X125169505Y-117042193D01*
X125169485Y-117042185D01*
X124033220Y-116507499D01*
X124033214Y-116507496D01*
X123988727Y-116489882D01*
X122794380Y-116101815D01*
X122748037Y-116089916D01*
X122748021Y-116089914D01*
X121514485Y-115854605D01*
X121514470Y-115854601D01*
X121490735Y-115851603D01*
X121467001Y-115848604D01*
X121466985Y-115848604D01*
X120220384Y-115770174D01*
X120208459Y-115769000D01*
X102578200Y-115769000D01*
X102578200Y-112931802D01*
X102673906Y-112931802D01*
X102696656Y-113083426D01*
X102828219Y-113252351D01*
X102990209Y-113392364D01*
X103036578Y-113423320D01*
X103188200Y-113440679D01*
X103188200Y-112931800D01*
X104051800Y-112931800D01*
X104051800Y-113440679D01*
X104203422Y-113423320D01*
X104249791Y-113392364D01*
X104411781Y-113252351D01*
X104543344Y-113083426D01*
X104566094Y-112931800D01*
X105213906Y-112931800D01*
X105236656Y-113083426D01*
X105368219Y-113252351D01*
X105530209Y-113392364D01*
X105576578Y-113423320D01*
X105728200Y-113440679D01*
X105728200Y-112931800D01*
X106591800Y-112931800D01*
X106591800Y-113440679D01*
X106743422Y-113423320D01*
X106789791Y-113392364D01*
X106951781Y-113252351D01*
X107083344Y-113083426D01*
X107106094Y-112931800D01*
X107753906Y-112931800D01*
X107776656Y-113083426D01*
X107908219Y-113252351D01*
X108070209Y-113392364D01*
X108116578Y-113423320D01*
X108268200Y-113440679D01*
X108268200Y-112931800D01*
X109131800Y-112931800D01*
X109131800Y-113440679D01*
X109283422Y-113423320D01*
X109329791Y-113392364D01*
X109491781Y-113252351D01*
X109623344Y-113083426D01*
X109646094Y-112931800D01*
X109131800Y-112931800D01*
X108268200Y-112931800D01*
X107753906Y-112931800D01*
X107106094Y-112931800D01*
X106591800Y-112931800D01*
X105728200Y-112931800D01*
X105213906Y-112931800D01*
X104566094Y-112931800D01*
X104051800Y-112931800D01*
X103188200Y-112931800D01*
X103168200Y-112931800D01*
X103168200Y-112500000D01*
X110094685Y-112500000D01*
X110116692Y-112723440D01*
X110181867Y-112938293D01*
X110287705Y-113136303D01*
X110430140Y-113309860D01*
X110603697Y-113452295D01*
X110801707Y-113558133D01*
X111016560Y-113623308D01*
X111184005Y-113639800D01*
X111295995Y-113639800D01*
X111463440Y-113623308D01*
X111678293Y-113558133D01*
X111876303Y-113452295D01*
X112049860Y-113309860D01*
X112192295Y-113136303D01*
X112298133Y-112938293D01*
X112363308Y-112723440D01*
X112385315Y-112500000D01*
X112634685Y-112500000D01*
X112656692Y-112723440D01*
X112721867Y-112938293D01*
X112827705Y-113136303D01*
X112970140Y-113309860D01*
X113143697Y-113452295D01*
X113341707Y-113558133D01*
X113556560Y-113623308D01*
X113724005Y-113639800D01*
X113835995Y-113639800D01*
X114003440Y-113623308D01*
X114218293Y-113558133D01*
X114416303Y-113452295D01*
X114589860Y-113309860D01*
X114732295Y-113136303D01*
X114838133Y-112938293D01*
X114903308Y-112723440D01*
X114925315Y-112500000D01*
X114903308Y-112276560D01*
X114838133Y-112061707D01*
X114732295Y-111863697D01*
X114589860Y-111690140D01*
X114416303Y-111547705D01*
X114218293Y-111441867D01*
X114003440Y-111376692D01*
X113835995Y-111360200D01*
X113724005Y-111360200D01*
X113556560Y-111376692D01*
X113341707Y-111441867D01*
X113143697Y-111547705D01*
X112970140Y-111690140D01*
X112827705Y-111863697D01*
X112721867Y-112061707D01*
X112656692Y-112276560D01*
X112634685Y-112500000D01*
X112385315Y-112500000D01*
X112363308Y-112276560D01*
X112298133Y-112061707D01*
X112192295Y-111863697D01*
X112049860Y-111690140D01*
X111876303Y-111547705D01*
X111678293Y-111441867D01*
X111463440Y-111376692D01*
X111295995Y-111360200D01*
X111184005Y-111360200D01*
X111016560Y-111376692D01*
X110801707Y-111441867D01*
X110603697Y-111547705D01*
X110430140Y-111690140D01*
X110287705Y-111863697D01*
X110181867Y-112061707D01*
X110116692Y-112276560D01*
X110094685Y-112500000D01*
X103168200Y-112500000D01*
X103168200Y-112068200D01*
X103188200Y-112068200D01*
X104051800Y-112068200D01*
X104566094Y-112068200D01*
X105213906Y-112068200D01*
X105728200Y-112068200D01*
X106591800Y-112068200D01*
X107106094Y-112068200D01*
X107753906Y-112068200D01*
X108268200Y-112068200D01*
X109131800Y-112068200D01*
X109646094Y-112068200D01*
X109623344Y-111916574D01*
X109491781Y-111747649D01*
X109329791Y-111607636D01*
X109283422Y-111576680D01*
X109131800Y-111559321D01*
X109131800Y-112068200D01*
X108268200Y-112068200D01*
X108268200Y-111559321D01*
X108116578Y-111576680D01*
X108070209Y-111607636D01*
X107908219Y-111747649D01*
X107776656Y-111916574D01*
X107753906Y-112068200D01*
X107106094Y-112068200D01*
X107083344Y-111916574D01*
X106951781Y-111747649D01*
X106789791Y-111607636D01*
X106743422Y-111576680D01*
X106591800Y-111559321D01*
X106591800Y-112068200D01*
X105728200Y-112068200D01*
X105728200Y-111559321D01*
X105576578Y-111576680D01*
X105530209Y-111607636D01*
X105368219Y-111747649D01*
X105236656Y-111916574D01*
X105213906Y-112068200D01*
X104566094Y-112068200D01*
X104543344Y-111916574D01*
X104411781Y-111747649D01*
X104249791Y-111607636D01*
X104203422Y-111576680D01*
X104051800Y-111559321D01*
X104051800Y-112068200D01*
X103188200Y-112068200D01*
X103188200Y-111559321D01*
X103036578Y-111576680D01*
X102990209Y-111607636D01*
X102828219Y-111747649D01*
X102696656Y-111916574D01*
X102673906Y-112068198D01*
X102578200Y-112068198D01*
X102578200Y-110428850D01*
X102667705Y-110596303D01*
X102810140Y-110769860D01*
X102983697Y-110912295D01*
X103181707Y-111018133D01*
X103396560Y-111083308D01*
X103564005Y-111099800D01*
X103675995Y-111099800D01*
X103843440Y-111083308D01*
X104058293Y-111018133D01*
X104256303Y-110912295D01*
X104429860Y-110769860D01*
X104572295Y-110596303D01*
X104678133Y-110398293D01*
X104743308Y-110183440D01*
X104765315Y-109960000D01*
X105014685Y-109960000D01*
X105036692Y-110183440D01*
X105101867Y-110398293D01*
X105207705Y-110596303D01*
X105350140Y-110769860D01*
X105523697Y-110912295D01*
X105721707Y-111018133D01*
X105936560Y-111083308D01*
X106104005Y-111099800D01*
X106215995Y-111099800D01*
X106383440Y-111083308D01*
X106598293Y-111018133D01*
X106796303Y-110912295D01*
X106969860Y-110769860D01*
X107112295Y-110596303D01*
X107218133Y-110398293D01*
X107283308Y-110183440D01*
X107305315Y-109960000D01*
X107554685Y-109960000D01*
X107576692Y-110183440D01*
X107641867Y-110398293D01*
X107747705Y-110596303D01*
X107890140Y-110769860D01*
X108063697Y-110912295D01*
X108261707Y-111018133D01*
X108476560Y-111083308D01*
X108644005Y-111099800D01*
X108755995Y-111099800D01*
X108923440Y-111083308D01*
X109138293Y-111018133D01*
X109336303Y-110912295D01*
X109509860Y-110769860D01*
X109652295Y-110596303D01*
X109758133Y-110398293D01*
X109823308Y-110183440D01*
X109845315Y-109960000D01*
X110094685Y-109960000D01*
X110116692Y-110183440D01*
X110181867Y-110398293D01*
X110287705Y-110596303D01*
X110430140Y-110769860D01*
X110603697Y-110912295D01*
X110801707Y-111018133D01*
X111016560Y-111083308D01*
X111184005Y-111099800D01*
X111295995Y-111099800D01*
X111463440Y-111083308D01*
X111678293Y-111018133D01*
X111876303Y-110912295D01*
X112049860Y-110769860D01*
X112192295Y-110596303D01*
X112298133Y-110398293D01*
X112363308Y-110183440D01*
X112385315Y-109960000D01*
X112634685Y-109960000D01*
X112656692Y-110183440D01*
X112721867Y-110398293D01*
X112827705Y-110596303D01*
X112970140Y-110769860D01*
X113143697Y-110912295D01*
X113341707Y-111018133D01*
X113556560Y-111083308D01*
X113724005Y-111099800D01*
X113835995Y-111099800D01*
X114003440Y-111083308D01*
X114218293Y-111018133D01*
X114416303Y-110912295D01*
X114589860Y-110769860D01*
X114732295Y-110596303D01*
X114838133Y-110398293D01*
X114903308Y-110183440D01*
X114925315Y-109960000D01*
X114903308Y-109736560D01*
X114838133Y-109521707D01*
X114732295Y-109323697D01*
X114589860Y-109150140D01*
X114416303Y-109007705D01*
X114218293Y-108901867D01*
X114003440Y-108836692D01*
X113835995Y-108820200D01*
X113724005Y-108820200D01*
X113556560Y-108836692D01*
X113341707Y-108901867D01*
X113143697Y-109007705D01*
X112970140Y-109150140D01*
X112827705Y-109323697D01*
X112721867Y-109521707D01*
X112656692Y-109736560D01*
X112634685Y-109960000D01*
X112385315Y-109960000D01*
X112363308Y-109736560D01*
X112298133Y-109521707D01*
X112192295Y-109323697D01*
X112049860Y-109150140D01*
X111876303Y-109007705D01*
X111678293Y-108901867D01*
X111463440Y-108836692D01*
X111295995Y-108820200D01*
X111184005Y-108820200D01*
X111016560Y-108836692D01*
X110801707Y-108901867D01*
X110603697Y-109007705D01*
X110430140Y-109150140D01*
X110287705Y-109323697D01*
X110181867Y-109521707D01*
X110116692Y-109736560D01*
X110094685Y-109960000D01*
X109845315Y-109960000D01*
X109823308Y-109736560D01*
X109758133Y-109521707D01*
X109652295Y-109323697D01*
X109509860Y-109150140D01*
X109336303Y-109007705D01*
X109138293Y-108901867D01*
X108923440Y-108836692D01*
X108755995Y-108820200D01*
X108644005Y-108820200D01*
X108476560Y-108836692D01*
X108261707Y-108901867D01*
X108063697Y-109007705D01*
X107890140Y-109150140D01*
X107747705Y-109323697D01*
X107641867Y-109521707D01*
X107576692Y-109736560D01*
X107554685Y-109960000D01*
X107305315Y-109960000D01*
X107283308Y-109736560D01*
X107218133Y-109521707D01*
X107112295Y-109323697D01*
X106969860Y-109150140D01*
X106796303Y-109007705D01*
X106598293Y-108901867D01*
X106383440Y-108836692D01*
X106215995Y-108820200D01*
X106104005Y-108820200D01*
X105936560Y-108836692D01*
X105721707Y-108901867D01*
X105523697Y-109007705D01*
X105350140Y-109150140D01*
X105207705Y-109323697D01*
X105101867Y-109521707D01*
X105036692Y-109736560D01*
X105014685Y-109960000D01*
X104765315Y-109960000D01*
X104743308Y-109736560D01*
X104678133Y-109521707D01*
X104572295Y-109323697D01*
X104429860Y-109150140D01*
X104256303Y-109007705D01*
X104058293Y-108901867D01*
X103843440Y-108836692D01*
X103675995Y-108820200D01*
X103564005Y-108820200D01*
X103396560Y-108836692D01*
X103181707Y-108901867D01*
X102983697Y-109007705D01*
X102810140Y-109150140D01*
X102667705Y-109323697D01*
X102578200Y-109491150D01*
X102578200Y-105719994D01*
X102597875Y-105570545D01*
X102653636Y-105435927D01*
X102742333Y-105320333D01*
X102857927Y-105231636D01*
X102992545Y-105175875D01*
X103141994Y-105156200D01*
X128278006Y-105156200D01*
X128427455Y-105175875D01*
X128427455Y-105175875D01*
G37*
X128427455Y-105175875D02*
X128562073Y-105231636D01*
X128677667Y-105320333D01*
X128766364Y-105435927D01*
X128822125Y-105570545D01*
X128841800Y-105719994D01*
X128841800Y-120420383D01*
X128201827Y-119550053D01*
X128187195Y-119532571D01*
X128172615Y-119514947D01*
X127312962Y-118599510D01*
X127312955Y-118599501D01*
X127278076Y-118566748D01*
X126310457Y-117766264D01*
X126271749Y-117738141D01*
X125211440Y-117065249D01*
X125211433Y-117065244D01*
X125200454Y-117059208D01*
X125169505Y-117042193D01*
X125169485Y-117042185D01*
X124033220Y-116507499D01*
X124033214Y-116507496D01*
X123988727Y-116489882D01*
X122794380Y-116101815D01*
X122748037Y-116089916D01*
X122748021Y-116089914D01*
X121514485Y-115854605D01*
X121514470Y-115854601D01*
X121490735Y-115851603D01*
X121467001Y-115848604D01*
X121466985Y-115848604D01*
X120220384Y-115770174D01*
X120208459Y-115769000D01*
X102578200Y-115769000D01*
X102578200Y-112931802D01*
X102673906Y-112931802D01*
X102696656Y-113083426D01*
X102828219Y-113252351D01*
X102990209Y-113392364D01*
X103036578Y-113423320D01*
X103188200Y-113440679D01*
X103188200Y-112931800D01*
X104051800Y-112931800D01*
X104051800Y-113440679D01*
X104203422Y-113423320D01*
X104249791Y-113392364D01*
X104411781Y-113252351D01*
X104543344Y-113083426D01*
X104566094Y-112931800D01*
X105213906Y-112931800D01*
X105236656Y-113083426D01*
X105368219Y-113252351D01*
X105530209Y-113392364D01*
X105576578Y-113423320D01*
X105728200Y-113440679D01*
X105728200Y-112931800D01*
X106591800Y-112931800D01*
X106591800Y-113440679D01*
X106743422Y-113423320D01*
X106789791Y-113392364D01*
X106951781Y-113252351D01*
X107083344Y-113083426D01*
X107106094Y-112931800D01*
X107753906Y-112931800D01*
X107776656Y-113083426D01*
X107908219Y-113252351D01*
X108070209Y-113392364D01*
X108116578Y-113423320D01*
X108268200Y-113440679D01*
X108268200Y-112931800D01*
X109131800Y-112931800D01*
X109131800Y-113440679D01*
X109283422Y-113423320D01*
X109329791Y-113392364D01*
X109491781Y-113252351D01*
X109623344Y-113083426D01*
X109646094Y-112931800D01*
X109131800Y-112931800D01*
X108268200Y-112931800D01*
X107753906Y-112931800D01*
X107106094Y-112931800D01*
X106591800Y-112931800D01*
X105728200Y-112931800D01*
X105213906Y-112931800D01*
X104566094Y-112931800D01*
X104051800Y-112931800D01*
X103188200Y-112931800D01*
X103168200Y-112931800D01*
X103168200Y-112500000D01*
X110094685Y-112500000D01*
X110116692Y-112723440D01*
X110181867Y-112938293D01*
X110287705Y-113136303D01*
X110430140Y-113309860D01*
X110603697Y-113452295D01*
X110801707Y-113558133D01*
X111016560Y-113623308D01*
X111184005Y-113639800D01*
X111295995Y-113639800D01*
X111463440Y-113623308D01*
X111678293Y-113558133D01*
X111876303Y-113452295D01*
X112049860Y-113309860D01*
X112192295Y-113136303D01*
X112298133Y-112938293D01*
X112363308Y-112723440D01*
X112385315Y-112500000D01*
X112634685Y-112500000D01*
X112656692Y-112723440D01*
X112721867Y-112938293D01*
X112827705Y-113136303D01*
X112970140Y-113309860D01*
X113143697Y-113452295D01*
X113341707Y-113558133D01*
X113556560Y-113623308D01*
X113724005Y-113639800D01*
X113835995Y-113639800D01*
X114003440Y-113623308D01*
X114218293Y-113558133D01*
X114416303Y-113452295D01*
X114589860Y-113309860D01*
X114732295Y-113136303D01*
X114838133Y-112938293D01*
X114903308Y-112723440D01*
X114925315Y-112500000D01*
X114903308Y-112276560D01*
X114838133Y-112061707D01*
X114732295Y-111863697D01*
X114589860Y-111690140D01*
X114416303Y-111547705D01*
X114218293Y-111441867D01*
X114003440Y-111376692D01*
X113835995Y-111360200D01*
X113724005Y-111360200D01*
X113556560Y-111376692D01*
X113341707Y-111441867D01*
X113143697Y-111547705D01*
X112970140Y-111690140D01*
X112827705Y-111863697D01*
X112721867Y-112061707D01*
X112656692Y-112276560D01*
X112634685Y-112500000D01*
X112385315Y-112500000D01*
X112363308Y-112276560D01*
X112298133Y-112061707D01*
X112192295Y-111863697D01*
X112049860Y-111690140D01*
X111876303Y-111547705D01*
X111678293Y-111441867D01*
X111463440Y-111376692D01*
X111295995Y-111360200D01*
X111184005Y-111360200D01*
X111016560Y-111376692D01*
X110801707Y-111441867D01*
X110603697Y-111547705D01*
X110430140Y-111690140D01*
X110287705Y-111863697D01*
X110181867Y-112061707D01*
X110116692Y-112276560D01*
X110094685Y-112500000D01*
X103168200Y-112500000D01*
X103168200Y-112068200D01*
X103188200Y-112068200D01*
X104051800Y-112068200D01*
X104566094Y-112068200D01*
X105213906Y-112068200D01*
X105728200Y-112068200D01*
X106591800Y-112068200D01*
X107106094Y-112068200D01*
X107753906Y-112068200D01*
X108268200Y-112068200D01*
X109131800Y-112068200D01*
X109646094Y-112068200D01*
X109623344Y-111916574D01*
X109491781Y-111747649D01*
X109329791Y-111607636D01*
X109283422Y-111576680D01*
X109131800Y-111559321D01*
X109131800Y-112068200D01*
X108268200Y-112068200D01*
X108268200Y-111559321D01*
X108116578Y-111576680D01*
X108070209Y-111607636D01*
X107908219Y-111747649D01*
X107776656Y-111916574D01*
X107753906Y-112068200D01*
X107106094Y-112068200D01*
X107083344Y-111916574D01*
X106951781Y-111747649D01*
X106789791Y-111607636D01*
X106743422Y-111576680D01*
X106591800Y-111559321D01*
X106591800Y-112068200D01*
X105728200Y-112068200D01*
X105728200Y-111559321D01*
X105576578Y-111576680D01*
X105530209Y-111607636D01*
X105368219Y-111747649D01*
X105236656Y-111916574D01*
X105213906Y-112068200D01*
X104566094Y-112068200D01*
X104543344Y-111916574D01*
X104411781Y-111747649D01*
X104249791Y-111607636D01*
X104203422Y-111576680D01*
X104051800Y-111559321D01*
X104051800Y-112068200D01*
X103188200Y-112068200D01*
X103188200Y-111559321D01*
X103036578Y-111576680D01*
X102990209Y-111607636D01*
X102828219Y-111747649D01*
X102696656Y-111916574D01*
X102673906Y-112068198D01*
X102578200Y-112068198D01*
X102578200Y-110428850D01*
X102667705Y-110596303D01*
X102810140Y-110769860D01*
X102983697Y-110912295D01*
X103181707Y-111018133D01*
X103396560Y-111083308D01*
X103564005Y-111099800D01*
X103675995Y-111099800D01*
X103843440Y-111083308D01*
X104058293Y-111018133D01*
X104256303Y-110912295D01*
X104429860Y-110769860D01*
X104572295Y-110596303D01*
X104678133Y-110398293D01*
X104743308Y-110183440D01*
X104765315Y-109960000D01*
X105014685Y-109960000D01*
X105036692Y-110183440D01*
X105101867Y-110398293D01*
X105207705Y-110596303D01*
X105350140Y-110769860D01*
X105523697Y-110912295D01*
X105721707Y-111018133D01*
X105936560Y-111083308D01*
X106104005Y-111099800D01*
X106215995Y-111099800D01*
X106383440Y-111083308D01*
X106598293Y-111018133D01*
X106796303Y-110912295D01*
X106969860Y-110769860D01*
X107112295Y-110596303D01*
X107218133Y-110398293D01*
X107283308Y-110183440D01*
X107305315Y-109960000D01*
X107554685Y-109960000D01*
X107576692Y-110183440D01*
X107641867Y-110398293D01*
X107747705Y-110596303D01*
X107890140Y-110769860D01*
X108063697Y-110912295D01*
X108261707Y-111018133D01*
X108476560Y-111083308D01*
X108644005Y-111099800D01*
X108755995Y-111099800D01*
X108923440Y-111083308D01*
X109138293Y-111018133D01*
X109336303Y-110912295D01*
X109509860Y-110769860D01*
X109652295Y-110596303D01*
X109758133Y-110398293D01*
X109823308Y-110183440D01*
X109845315Y-109960000D01*
X110094685Y-109960000D01*
X110116692Y-110183440D01*
X110181867Y-110398293D01*
X110287705Y-110596303D01*
X110430140Y-110769860D01*
X110603697Y-110912295D01*
X110801707Y-111018133D01*
X111016560Y-111083308D01*
X111184005Y-111099800D01*
X111295995Y-111099800D01*
X111463440Y-111083308D01*
X111678293Y-111018133D01*
X111876303Y-110912295D01*
X112049860Y-110769860D01*
X112192295Y-110596303D01*
X112298133Y-110398293D01*
X112363308Y-110183440D01*
X112385315Y-109960000D01*
X112634685Y-109960000D01*
X112656692Y-110183440D01*
X112721867Y-110398293D01*
X112827705Y-110596303D01*
X112970140Y-110769860D01*
X113143697Y-110912295D01*
X113341707Y-111018133D01*
X113556560Y-111083308D01*
X113724005Y-111099800D01*
X113835995Y-111099800D01*
X114003440Y-111083308D01*
X114218293Y-111018133D01*
X114416303Y-110912295D01*
X114589860Y-110769860D01*
X114732295Y-110596303D01*
X114838133Y-110398293D01*
X114903308Y-110183440D01*
X114925315Y-109960000D01*
X114903308Y-109736560D01*
X114838133Y-109521707D01*
X114732295Y-109323697D01*
X114589860Y-109150140D01*
X114416303Y-109007705D01*
X114218293Y-108901867D01*
X114003440Y-108836692D01*
X113835995Y-108820200D01*
X113724005Y-108820200D01*
X113556560Y-108836692D01*
X113341707Y-108901867D01*
X113143697Y-109007705D01*
X112970140Y-109150140D01*
X112827705Y-109323697D01*
X112721867Y-109521707D01*
X112656692Y-109736560D01*
X112634685Y-109960000D01*
X112385315Y-109960000D01*
X112363308Y-109736560D01*
X112298133Y-109521707D01*
X112192295Y-109323697D01*
X112049860Y-109150140D01*
X111876303Y-109007705D01*
X111678293Y-108901867D01*
X111463440Y-108836692D01*
X111295995Y-108820200D01*
X111184005Y-108820200D01*
X111016560Y-108836692D01*
X110801707Y-108901867D01*
X110603697Y-109007705D01*
X110430140Y-109150140D01*
X110287705Y-109323697D01*
X110181867Y-109521707D01*
X110116692Y-109736560D01*
X110094685Y-109960000D01*
X109845315Y-109960000D01*
X109823308Y-109736560D01*
X109758133Y-109521707D01*
X109652295Y-109323697D01*
X109509860Y-109150140D01*
X109336303Y-109007705D01*
X109138293Y-108901867D01*
X108923440Y-108836692D01*
X108755995Y-108820200D01*
X108644005Y-108820200D01*
X108476560Y-108836692D01*
X108261707Y-108901867D01*
X108063697Y-109007705D01*
X107890140Y-109150140D01*
X107747705Y-109323697D01*
X107641867Y-109521707D01*
X107576692Y-109736560D01*
X107554685Y-109960000D01*
X107305315Y-109960000D01*
X107283308Y-109736560D01*
X107218133Y-109521707D01*
X107112295Y-109323697D01*
X106969860Y-109150140D01*
X106796303Y-109007705D01*
X106598293Y-108901867D01*
X106383440Y-108836692D01*
X106215995Y-108820200D01*
X106104005Y-108820200D01*
X105936560Y-108836692D01*
X105721707Y-108901867D01*
X105523697Y-109007705D01*
X105350140Y-109150140D01*
X105207705Y-109323697D01*
X105101867Y-109521707D01*
X105036692Y-109736560D01*
X105014685Y-109960000D01*
X104765315Y-109960000D01*
X104743308Y-109736560D01*
X104678133Y-109521707D01*
X104572295Y-109323697D01*
X104429860Y-109150140D01*
X104256303Y-109007705D01*
X104058293Y-108901867D01*
X103843440Y-108836692D01*
X103675995Y-108820200D01*
X103564005Y-108820200D01*
X103396560Y-108836692D01*
X103181707Y-108901867D01*
X102983697Y-109007705D01*
X102810140Y-109150140D01*
X102667705Y-109323697D01*
X102578200Y-109491150D01*
X102578200Y-105719994D01*
X102597875Y-105570545D01*
X102653636Y-105435927D01*
X102742333Y-105320333D01*
X102857927Y-105231636D01*
X102992545Y-105175875D01*
X103141994Y-105156200D01*
X128278006Y-105156200D01*
X128427455Y-105175875D01*
G36*
X128841800Y-104440006D02*
G01*
X128822125Y-104589455D01*
X128766364Y-104724073D01*
X128677667Y-104839667D01*
X128628227Y-104877603D01*
X128553047Y-104846462D01*
X128483401Y-104827800D01*
X128319051Y-104806163D01*
X128283000Y-104803800D01*
X103137000Y-104803800D01*
X103100949Y-104806163D01*
X102936599Y-104827800D01*
X102866953Y-104846462D01*
X102713803Y-104909899D01*
X102651361Y-104945949D01*
X102519848Y-105046862D01*
X102468862Y-105097848D01*
X102367949Y-105229361D01*
X102331899Y-105291803D01*
X102268462Y-105444953D01*
X102249800Y-105514599D01*
X102228163Y-105678949D01*
X102225800Y-105715000D01*
X102225800Y-115769000D01*
X86368638Y-115769000D01*
X86230124Y-115755418D01*
X86114811Y-115720604D01*
X86008463Y-115664057D01*
X85915117Y-115587927D01*
X85838340Y-115495119D01*
X85781049Y-115389162D01*
X85745432Y-115274102D01*
X85730999Y-115136781D01*
X85730999Y-108509000D01*
X87109622Y-108509000D01*
X87112801Y-108541279D01*
X87112800Y-110954276D01*
X87112801Y-110954286D01*
X87112800Y-112794730D01*
X87109622Y-112827000D01*
X87112800Y-112859269D01*
X87112800Y-112859276D01*
X87122310Y-112955833D01*
X87159889Y-113079715D01*
X87220915Y-113193886D01*
X87303042Y-113293958D01*
X87328115Y-113314535D01*
X88933473Y-114919895D01*
X88954042Y-114944958D01*
X88979104Y-114965526D01*
X88979112Y-114965534D01*
X89054113Y-115027085D01*
X89168283Y-115088111D01*
X89264026Y-115117154D01*
X89292166Y-115125690D01*
X89388723Y-115135200D01*
X89388731Y-115135200D01*
X89421000Y-115138378D01*
X89453269Y-115135200D01*
X92671045Y-115135200D01*
X92703314Y-115138378D01*
X92735583Y-115135200D01*
X92735591Y-115135200D01*
X92832148Y-115125690D01*
X92956030Y-115088111D01*
X93070201Y-115027085D01*
X93170272Y-114944958D01*
X93190849Y-114919885D01*
X93901895Y-114208841D01*
X93926958Y-114188272D01*
X93947526Y-114163210D01*
X93947534Y-114163202D01*
X94009085Y-114088201D01*
X94070111Y-113974031D01*
X94107690Y-113850148D01*
X94109644Y-113830310D01*
X94117200Y-113753591D01*
X94117200Y-113753583D01*
X94120378Y-113721314D01*
X94117200Y-113689045D01*
X94117200Y-113435145D01*
X94269860Y-113309860D01*
X94412295Y-113136303D01*
X94518133Y-112938293D01*
X94520102Y-112931800D01*
X95053906Y-112931800D01*
X95076656Y-113083426D01*
X95208219Y-113252351D01*
X95370209Y-113392364D01*
X95416578Y-113423320D01*
X95568200Y-113440679D01*
X95568200Y-112931800D01*
X96431800Y-112931800D01*
X96431800Y-113440679D01*
X96583422Y-113423320D01*
X96629791Y-113392364D01*
X96791781Y-113252351D01*
X96923344Y-113083426D01*
X96946094Y-112931800D01*
X97593906Y-112931800D01*
X97616656Y-113083426D01*
X97748219Y-113252351D01*
X97910209Y-113392364D01*
X97956578Y-113423320D01*
X98108200Y-113440679D01*
X98108200Y-112931800D01*
X98971800Y-112931800D01*
X98971800Y-113440679D01*
X99123422Y-113423320D01*
X99169791Y-113392364D01*
X99331781Y-113252351D01*
X99463344Y-113083426D01*
X99486094Y-112931800D01*
X100133906Y-112931800D01*
X100156656Y-113083426D01*
X100288219Y-113252351D01*
X100450209Y-113392364D01*
X100496578Y-113423320D01*
X100648200Y-113440679D01*
X100648200Y-112931800D01*
X101511800Y-112931800D01*
X101511800Y-113440679D01*
X101663422Y-113423320D01*
X101709791Y-113392364D01*
X101871781Y-113252351D01*
X102003344Y-113083426D01*
X102026094Y-112931800D01*
X101511800Y-112931800D01*
X100648200Y-112931800D01*
X100133906Y-112931800D01*
X99486094Y-112931800D01*
X98971800Y-112931800D01*
X98108200Y-112931800D01*
X97593906Y-112931800D01*
X96946094Y-112931800D01*
X96431800Y-112931800D01*
X95568200Y-112931800D01*
X95053906Y-112931800D01*
X94520102Y-112931800D01*
X94583308Y-112723440D01*
X94605315Y-112500000D01*
X94583308Y-112276560D01*
X94520103Y-112068200D01*
X95053906Y-112068200D01*
X95568200Y-112068200D01*
X96431800Y-112068200D01*
X96946094Y-112068200D01*
X97593906Y-112068200D01*
X98108200Y-112068200D01*
X98971800Y-112068200D01*
X99486094Y-112068200D01*
X100133906Y-112068200D01*
X100648200Y-112068200D01*
X101511800Y-112068200D01*
X102026094Y-112068200D01*
X102003344Y-111916574D01*
X101871781Y-111747649D01*
X101709791Y-111607636D01*
X101663422Y-111576680D01*
X101511800Y-111559321D01*
X101511800Y-112068200D01*
X100648200Y-112068200D01*
X100648200Y-111559321D01*
X100496578Y-111576680D01*
X100450209Y-111607636D01*
X100288219Y-111747649D01*
X100156656Y-111916574D01*
X100133906Y-112068200D01*
X99486094Y-112068200D01*
X99463344Y-111916574D01*
X99331781Y-111747649D01*
X99169791Y-111607636D01*
X99123422Y-111576680D01*
X98971800Y-111559321D01*
X98971800Y-112068200D01*
X98108200Y-112068200D01*
X98108200Y-111559321D01*
X97956578Y-111576680D01*
X97910209Y-111607636D01*
X97748219Y-111747649D01*
X97616656Y-111916574D01*
X97593906Y-112068200D01*
X96946094Y-112068200D01*
X96923344Y-111916574D01*
X96791781Y-111747649D01*
X96629791Y-111607636D01*
X96583422Y-111576680D01*
X96431800Y-111559321D01*
X96431800Y-112068200D01*
X95568200Y-112068200D01*
X95568200Y-111559321D01*
X95416578Y-111576680D01*
X95370209Y-111607636D01*
X95208219Y-111747649D01*
X95076656Y-111916574D01*
X95053906Y-112068200D01*
X94520103Y-112068200D01*
X94518133Y-112061707D01*
X94412295Y-111863697D01*
X94269860Y-111690140D01*
X94096303Y-111547705D01*
X93898293Y-111441867D01*
X93683440Y-111376692D01*
X93515995Y-111360200D01*
X93404005Y-111360200D01*
X93236560Y-111376692D01*
X93021707Y-111441867D01*
X92823697Y-111547705D01*
X92650140Y-111690140D01*
X92507705Y-111863697D01*
X92401867Y-112061707D01*
X92336692Y-112276560D01*
X92314685Y-112500000D01*
X92336692Y-112723440D01*
X92401867Y-112938293D01*
X92507705Y-113136303D01*
X92650140Y-113309860D01*
X92802801Y-113435146D01*
X92802801Y-113449092D01*
X92431093Y-113820800D01*
X89693222Y-113820800D01*
X88894012Y-113021591D01*
X88927513Y-113049085D01*
X89041684Y-113110111D01*
X89165566Y-113147690D01*
X89262123Y-113157200D01*
X89262132Y-113157200D01*
X89294399Y-113160378D01*
X89326666Y-113157200D01*
X89778864Y-113157200D01*
X89778864Y-113363600D01*
X89784197Y-113417745D01*
X89799990Y-113469808D01*
X89825637Y-113517791D01*
X89860152Y-113559848D01*
X89902209Y-113594363D01*
X89950192Y-113620010D01*
X90002255Y-113635803D01*
X90056400Y-113641136D01*
X91783600Y-113641136D01*
X91837745Y-113635803D01*
X91889808Y-113620010D01*
X91937791Y-113594363D01*
X91979848Y-113559848D01*
X92014363Y-113517791D01*
X92040010Y-113469808D01*
X92055803Y-113417745D01*
X92061136Y-113363600D01*
X92061136Y-111636400D01*
X92055803Y-111582255D01*
X92040010Y-111530192D01*
X92014363Y-111482209D01*
X91979848Y-111440152D01*
X91937791Y-111405637D01*
X91889808Y-111379990D01*
X91837745Y-111364197D01*
X91783600Y-111358864D01*
X90056400Y-111358864D01*
X90002255Y-111364197D01*
X89950192Y-111379990D01*
X89902209Y-111405637D01*
X89860152Y-111440152D01*
X89825637Y-111482209D01*
X89799990Y-111530192D01*
X89784197Y-111582255D01*
X89778864Y-111636400D01*
X89778864Y-111842800D01*
X89570200Y-111842800D01*
X89570200Y-109289220D01*
X90282213Y-108577207D01*
X90272310Y-108609853D01*
X90259622Y-108738686D01*
X90262801Y-108770965D01*
X90262801Y-109024854D01*
X90110140Y-109150140D01*
X89967705Y-109323697D01*
X89861867Y-109521707D01*
X89796692Y-109736560D01*
X89774685Y-109960000D01*
X89796692Y-110183440D01*
X89861867Y-110398293D01*
X89967705Y-110596303D01*
X90110140Y-110769860D01*
X90283697Y-110912295D01*
X90481707Y-111018133D01*
X90696560Y-111083308D01*
X90864005Y-111099800D01*
X90975995Y-111099800D01*
X91143440Y-111083308D01*
X91358293Y-111018133D01*
X91556303Y-110912295D01*
X91729860Y-110769860D01*
X91872295Y-110596303D01*
X91978133Y-110398293D01*
X92043308Y-110183440D01*
X92065315Y-109960000D01*
X92043308Y-109736560D01*
X91978133Y-109521707D01*
X91872295Y-109323697D01*
X91729860Y-109150140D01*
X91577200Y-109024855D01*
X91577200Y-109010906D01*
X92783896Y-107804212D01*
X92802800Y-107788697D01*
X92802800Y-109024855D01*
X92650140Y-109150140D01*
X92507705Y-109323697D01*
X92401867Y-109521707D01*
X92336692Y-109736560D01*
X92314685Y-109960000D01*
X92336692Y-110183440D01*
X92401867Y-110398293D01*
X92507705Y-110596303D01*
X92650140Y-110769860D01*
X92823697Y-110912295D01*
X93021707Y-111018133D01*
X93236560Y-111083308D01*
X93404005Y-111099800D01*
X93515995Y-111099800D01*
X93683440Y-111083308D01*
X93898293Y-111018133D01*
X94096303Y-110912295D01*
X94269860Y-110769860D01*
X94412295Y-110596303D01*
X94518133Y-110398293D01*
X94583308Y-110183440D01*
X94605315Y-109960000D01*
X94854685Y-109960000D01*
X94876692Y-110183440D01*
X94941867Y-110398293D01*
X95047705Y-110596303D01*
X95190140Y-110769860D01*
X95363697Y-110912295D01*
X95561707Y-111018133D01*
X95776560Y-111083308D01*
X95944005Y-111099800D01*
X96055995Y-111099800D01*
X96223440Y-111083308D01*
X96438293Y-111018133D01*
X96636303Y-110912295D01*
X96809860Y-110769860D01*
X96952295Y-110596303D01*
X97058133Y-110398293D01*
X97123308Y-110183440D01*
X97145315Y-109960000D01*
X97394685Y-109960000D01*
X97416692Y-110183440D01*
X97481867Y-110398293D01*
X97587705Y-110596303D01*
X97730140Y-110769860D01*
X97903697Y-110912295D01*
X98101707Y-111018133D01*
X98316560Y-111083308D01*
X98484005Y-111099800D01*
X98595995Y-111099800D01*
X98763440Y-111083308D01*
X98978293Y-111018133D01*
X99176303Y-110912295D01*
X99349860Y-110769860D01*
X99492295Y-110596303D01*
X99598133Y-110398293D01*
X99663308Y-110183440D01*
X99685315Y-109960000D01*
X99934685Y-109960000D01*
X99956692Y-110183440D01*
X100021867Y-110398293D01*
X100127705Y-110596303D01*
X100270140Y-110769860D01*
X100443697Y-110912295D01*
X100641707Y-111018133D01*
X100856560Y-111083308D01*
X101024005Y-111099800D01*
X101135995Y-111099800D01*
X101303440Y-111083308D01*
X101518293Y-111018133D01*
X101716303Y-110912295D01*
X101889860Y-110769860D01*
X102032295Y-110596303D01*
X102138133Y-110398293D01*
X102203308Y-110183440D01*
X102225315Y-109960000D01*
X102203308Y-109736560D01*
X102138133Y-109521707D01*
X102032295Y-109323697D01*
X101889860Y-109150140D01*
X101716303Y-109007705D01*
X101518293Y-108901867D01*
X101303440Y-108836692D01*
X101135995Y-108820200D01*
X101024005Y-108820200D01*
X100856560Y-108836692D01*
X100641707Y-108901867D01*
X100443697Y-109007705D01*
X100270140Y-109150140D01*
X100127705Y-109323697D01*
X100021867Y-109521707D01*
X99956692Y-109736560D01*
X99934685Y-109960000D01*
X99685315Y-109960000D01*
X99663308Y-109736560D01*
X99598133Y-109521707D01*
X99492295Y-109323697D01*
X99349860Y-109150140D01*
X99176303Y-109007705D01*
X98978293Y-108901867D01*
X98763440Y-108836692D01*
X98595995Y-108820200D01*
X98484005Y-108820200D01*
X98316560Y-108836692D01*
X98101707Y-108901867D01*
X97903697Y-109007705D01*
X97730140Y-109150140D01*
X97587705Y-109323697D01*
X97481867Y-109521707D01*
X97416692Y-109736560D01*
X97394685Y-109960000D01*
X97145315Y-109960000D01*
X97123308Y-109736560D01*
X97058133Y-109521707D01*
X96952295Y-109323697D01*
X96809860Y-109150140D01*
X96636303Y-109007705D01*
X96438293Y-108901867D01*
X96223440Y-108836692D01*
X96055995Y-108820200D01*
X95944005Y-108820200D01*
X95776560Y-108836692D01*
X95561707Y-108901867D01*
X95363697Y-109007705D01*
X95190140Y-109150140D01*
X95047705Y-109323697D01*
X94941867Y-109521707D01*
X94876692Y-109736560D01*
X94854685Y-109960000D01*
X94605315Y-109960000D01*
X94583308Y-109736560D01*
X94518133Y-109521707D01*
X94412295Y-109323697D01*
X94269860Y-109150140D01*
X94117200Y-109024855D01*
X94117200Y-104361220D01*
X99768891Y-98709530D01*
X99793958Y-98688958D01*
X99876085Y-98588887D01*
X99937111Y-98474716D01*
X99974690Y-98350834D01*
X99984200Y-98254277D01*
X99984200Y-98254269D01*
X99987378Y-98222000D01*
X99984200Y-98189731D01*
X99984200Y-93807624D01*
X110373800Y-93807624D01*
X110373800Y-94492376D01*
X110507388Y-95163970D01*
X110769431Y-95796598D01*
X111149859Y-96365948D01*
X111634052Y-96850141D01*
X112203402Y-97230569D01*
X112836030Y-97492612D01*
X113507624Y-97626200D01*
X114192376Y-97626200D01*
X114863970Y-97492612D01*
X115496598Y-97230569D01*
X116065948Y-96850141D01*
X116550141Y-96365948D01*
X116930569Y-95796598D01*
X117192612Y-95163970D01*
X117326200Y-94492376D01*
X117326200Y-93807624D01*
X117192612Y-93136030D01*
X116930569Y-92503402D01*
X116550141Y-91934052D01*
X116065948Y-91449859D01*
X115496598Y-91069431D01*
X114863970Y-90807388D01*
X114192376Y-90673800D01*
X113507624Y-90673800D01*
X112836030Y-90807388D01*
X112203402Y-91069431D01*
X111634052Y-91449859D01*
X111149859Y-91934052D01*
X110769431Y-92503402D01*
X110507388Y-93136030D01*
X110373800Y-93807624D01*
X99984200Y-93807624D01*
X99984200Y-92669119D01*
X100003200Y-92573600D01*
X100003200Y-92440400D01*
X99984200Y-92344881D01*
X99984200Y-91780119D01*
X100003200Y-91684600D01*
X100003200Y-91551400D01*
X99984200Y-91455881D01*
X99984200Y-90891119D01*
X100003200Y-90795600D01*
X100003200Y-90662400D01*
X99984200Y-90566881D01*
X99984200Y-90002119D01*
X100003200Y-89906600D01*
X100003200Y-89773400D01*
X99977214Y-89642760D01*
X99926241Y-89519699D01*
X99852239Y-89408948D01*
X99758052Y-89314761D01*
X99647301Y-89240759D01*
X99524240Y-89189786D01*
X99393600Y-89163800D01*
X99260400Y-89163800D01*
X99129760Y-89189786D01*
X99006699Y-89240759D01*
X98895948Y-89314761D01*
X98801761Y-89408948D01*
X98755500Y-89478182D01*
X98709239Y-89408948D01*
X98615052Y-89314761D01*
X98504301Y-89240759D01*
X98381240Y-89189786D01*
X98250600Y-89163800D01*
X98117400Y-89163800D01*
X97986760Y-89189786D01*
X97863699Y-89240759D01*
X97752948Y-89314761D01*
X97658761Y-89408948D01*
X97612500Y-89478182D01*
X97566239Y-89408948D01*
X97472052Y-89314761D01*
X97361301Y-89240759D01*
X97238240Y-89189786D01*
X97107600Y-89163800D01*
X96974400Y-89163800D01*
X96843760Y-89189786D01*
X96720699Y-89240759D01*
X96609948Y-89314761D01*
X96515761Y-89408948D01*
X96469500Y-89478182D01*
X96423239Y-89408948D01*
X96329052Y-89314761D01*
X96218301Y-89240759D01*
X96095240Y-89189786D01*
X95964600Y-89163800D01*
X95831400Y-89163800D01*
X95700760Y-89189786D01*
X95577699Y-89240759D01*
X95466948Y-89314761D01*
X95372761Y-89408948D01*
X95298759Y-89519699D01*
X95247786Y-89642760D01*
X95221800Y-89773400D01*
X95221800Y-89906600D01*
X95240801Y-90002124D01*
X95240801Y-90566876D01*
X95221800Y-90662400D01*
X95221800Y-90795600D01*
X95240801Y-90891123D01*
X95240801Y-91455877D01*
X95221800Y-91551400D01*
X95221800Y-91684600D01*
X95240801Y-91780123D01*
X95240801Y-92344878D01*
X95221800Y-92440400D01*
X95221800Y-92573600D01*
X95240801Y-92669122D01*
X95240800Y-96425778D01*
X91646117Y-100020463D01*
X91646112Y-100020467D01*
X89614111Y-102052469D01*
X89589043Y-102073042D01*
X89568470Y-102098110D01*
X89568467Y-102098113D01*
X89506915Y-102173114D01*
X89445890Y-102287284D01*
X89408310Y-102411167D01*
X89395622Y-102540000D01*
X89398801Y-102572279D01*
X89398800Y-105555723D01*
X89398800Y-105950779D01*
X88344117Y-107005463D01*
X88344112Y-107005467D01*
X87328111Y-108021469D01*
X87303043Y-108042042D01*
X87282470Y-108067110D01*
X87282467Y-108067113D01*
X87220915Y-108142114D01*
X87159890Y-108256284D01*
X87122310Y-108380167D01*
X87109622Y-108509000D01*
X85730999Y-108509000D01*
X85730999Y-93807624D01*
X87373800Y-93807624D01*
X87373800Y-94492376D01*
X87507388Y-95163970D01*
X87769431Y-95796598D01*
X88149859Y-96365948D01*
X88634052Y-96850141D01*
X89203402Y-97230569D01*
X89836030Y-97492612D01*
X90507624Y-97626200D01*
X91192376Y-97626200D01*
X91863970Y-97492612D01*
X92496598Y-97230569D01*
X93065948Y-96850141D01*
X93550141Y-96365948D01*
X93930569Y-95796598D01*
X94192612Y-95163970D01*
X94326200Y-94492376D01*
X94326200Y-93807624D01*
X94192612Y-93136030D01*
X93930569Y-92503402D01*
X93550141Y-91934052D01*
X93065948Y-91449859D01*
X92496598Y-91069431D01*
X91863970Y-90807388D01*
X91192376Y-90673800D01*
X90507624Y-90673800D01*
X89836030Y-90807388D01*
X89203402Y-91069431D01*
X88634052Y-91449859D01*
X88149859Y-91934052D01*
X87769431Y-92503402D01*
X87507388Y-93136030D01*
X87373800Y-93807624D01*
X85730999Y-93807624D01*
X85730999Y-89668638D01*
X85744581Y-89530123D01*
X85779395Y-89414813D01*
X85835944Y-89308460D01*
X85912074Y-89215116D01*
X86004879Y-89138341D01*
X86110838Y-89081049D01*
X86225898Y-89045432D01*
X86363217Y-89030999D01*
X124868713Y-89030999D01*
X124869370Y-89030934D01*
X124879248Y-89030900D01*
X124895812Y-89029218D01*
X124912456Y-89029334D01*
X124917750Y-89028815D01*
X125694138Y-88947213D01*
X125727967Y-88940269D01*
X125761883Y-88933799D01*
X125766974Y-88932262D01*
X125766980Y-88932260D01*
X126512726Y-88701413D01*
X126544550Y-88688035D01*
X126576577Y-88675096D01*
X126581274Y-88672598D01*
X127267984Y-88301295D01*
X127296634Y-88281970D01*
X127325507Y-88263077D01*
X127329630Y-88259715D01*
X127931141Y-87762102D01*
X127955468Y-87737604D01*
X127980145Y-87713439D01*
X127983536Y-87709339D01*
X128476938Y-87104369D01*
X128496060Y-87075587D01*
X128515557Y-87047114D01*
X128518084Y-87042439D01*
X128518087Y-87042435D01*
X128518089Y-87042431D01*
X128841800Y-86433619D01*
X128841800Y-104440006D01*
X128841800Y-104440006D01*
G37*
X128841800Y-104440006D02*
X128822125Y-104589455D01*
X128766364Y-104724073D01*
X128677667Y-104839667D01*
X128628227Y-104877603D01*
X128553047Y-104846462D01*
X128483401Y-104827800D01*
X128319051Y-104806163D01*
X128283000Y-104803800D01*
X103137000Y-104803800D01*
X103100949Y-104806163D01*
X102936599Y-104827800D01*
X102866953Y-104846462D01*
X102713803Y-104909899D01*
X102651361Y-104945949D01*
X102519848Y-105046862D01*
X102468862Y-105097848D01*
X102367949Y-105229361D01*
X102331899Y-105291803D01*
X102268462Y-105444953D01*
X102249800Y-105514599D01*
X102228163Y-105678949D01*
X102225800Y-105715000D01*
X102225800Y-115769000D01*
X86368638Y-115769000D01*
X86230124Y-115755418D01*
X86114811Y-115720604D01*
X86008463Y-115664057D01*
X85915117Y-115587927D01*
X85838340Y-115495119D01*
X85781049Y-115389162D01*
X85745432Y-115274102D01*
X85730999Y-115136781D01*
X85730999Y-108509000D01*
X87109622Y-108509000D01*
X87112801Y-108541279D01*
X87112800Y-110954276D01*
X87112801Y-110954286D01*
X87112800Y-112794730D01*
X87109622Y-112827000D01*
X87112800Y-112859269D01*
X87112800Y-112859276D01*
X87122310Y-112955833D01*
X87159889Y-113079715D01*
X87220915Y-113193886D01*
X87303042Y-113293958D01*
X87328115Y-113314535D01*
X88933473Y-114919895D01*
X88954042Y-114944958D01*
X88979104Y-114965526D01*
X88979112Y-114965534D01*
X89054113Y-115027085D01*
X89168283Y-115088111D01*
X89264026Y-115117154D01*
X89292166Y-115125690D01*
X89388723Y-115135200D01*
X89388731Y-115135200D01*
X89421000Y-115138378D01*
X89453269Y-115135200D01*
X92671045Y-115135200D01*
X92703314Y-115138378D01*
X92735583Y-115135200D01*
X92735591Y-115135200D01*
X92832148Y-115125690D01*
X92956030Y-115088111D01*
X93070201Y-115027085D01*
X93170272Y-114944958D01*
X93190849Y-114919885D01*
X93901895Y-114208841D01*
X93926958Y-114188272D01*
X93947526Y-114163210D01*
X93947534Y-114163202D01*
X94009085Y-114088201D01*
X94070111Y-113974031D01*
X94107690Y-113850148D01*
X94109644Y-113830310D01*
X94117200Y-113753591D01*
X94117200Y-113753583D01*
X94120378Y-113721314D01*
X94117200Y-113689045D01*
X94117200Y-113435145D01*
X94269860Y-113309860D01*
X94412295Y-113136303D01*
X94518133Y-112938293D01*
X94520102Y-112931800D01*
X95053906Y-112931800D01*
X95076656Y-113083426D01*
X95208219Y-113252351D01*
X95370209Y-113392364D01*
X95416578Y-113423320D01*
X95568200Y-113440679D01*
X95568200Y-112931800D01*
X96431800Y-112931800D01*
X96431800Y-113440679D01*
X96583422Y-113423320D01*
X96629791Y-113392364D01*
X96791781Y-113252351D01*
X96923344Y-113083426D01*
X96946094Y-112931800D01*
X97593906Y-112931800D01*
X97616656Y-113083426D01*
X97748219Y-113252351D01*
X97910209Y-113392364D01*
X97956578Y-113423320D01*
X98108200Y-113440679D01*
X98108200Y-112931800D01*
X98971800Y-112931800D01*
X98971800Y-113440679D01*
X99123422Y-113423320D01*
X99169791Y-113392364D01*
X99331781Y-113252351D01*
X99463344Y-113083426D01*
X99486094Y-112931800D01*
X100133906Y-112931800D01*
X100156656Y-113083426D01*
X100288219Y-113252351D01*
X100450209Y-113392364D01*
X100496578Y-113423320D01*
X100648200Y-113440679D01*
X100648200Y-112931800D01*
X101511800Y-112931800D01*
X101511800Y-113440679D01*
X101663422Y-113423320D01*
X101709791Y-113392364D01*
X101871781Y-113252351D01*
X102003344Y-113083426D01*
X102026094Y-112931800D01*
X101511800Y-112931800D01*
X100648200Y-112931800D01*
X100133906Y-112931800D01*
X99486094Y-112931800D01*
X98971800Y-112931800D01*
X98108200Y-112931800D01*
X97593906Y-112931800D01*
X96946094Y-112931800D01*
X96431800Y-112931800D01*
X95568200Y-112931800D01*
X95053906Y-112931800D01*
X94520102Y-112931800D01*
X94583308Y-112723440D01*
X94605315Y-112500000D01*
X94583308Y-112276560D01*
X94520103Y-112068200D01*
X95053906Y-112068200D01*
X95568200Y-112068200D01*
X96431800Y-112068200D01*
X96946094Y-112068200D01*
X97593906Y-112068200D01*
X98108200Y-112068200D01*
X98971800Y-112068200D01*
X99486094Y-112068200D01*
X100133906Y-112068200D01*
X100648200Y-112068200D01*
X101511800Y-112068200D01*
X102026094Y-112068200D01*
X102003344Y-111916574D01*
X101871781Y-111747649D01*
X101709791Y-111607636D01*
X101663422Y-111576680D01*
X101511800Y-111559321D01*
X101511800Y-112068200D01*
X100648200Y-112068200D01*
X100648200Y-111559321D01*
X100496578Y-111576680D01*
X100450209Y-111607636D01*
X100288219Y-111747649D01*
X100156656Y-111916574D01*
X100133906Y-112068200D01*
X99486094Y-112068200D01*
X99463344Y-111916574D01*
X99331781Y-111747649D01*
X99169791Y-111607636D01*
X99123422Y-111576680D01*
X98971800Y-111559321D01*
X98971800Y-112068200D01*
X98108200Y-112068200D01*
X98108200Y-111559321D01*
X97956578Y-111576680D01*
X97910209Y-111607636D01*
X97748219Y-111747649D01*
X97616656Y-111916574D01*
X97593906Y-112068200D01*
X96946094Y-112068200D01*
X96923344Y-111916574D01*
X96791781Y-111747649D01*
X96629791Y-111607636D01*
X96583422Y-111576680D01*
X96431800Y-111559321D01*
X96431800Y-112068200D01*
X95568200Y-112068200D01*
X95568200Y-111559321D01*
X95416578Y-111576680D01*
X95370209Y-111607636D01*
X95208219Y-111747649D01*
X95076656Y-111916574D01*
X95053906Y-112068200D01*
X94520103Y-112068200D01*
X94518133Y-112061707D01*
X94412295Y-111863697D01*
X94269860Y-111690140D01*
X94096303Y-111547705D01*
X93898293Y-111441867D01*
X93683440Y-111376692D01*
X93515995Y-111360200D01*
X93404005Y-111360200D01*
X93236560Y-111376692D01*
X93021707Y-111441867D01*
X92823697Y-111547705D01*
X92650140Y-111690140D01*
X92507705Y-111863697D01*
X92401867Y-112061707D01*
X92336692Y-112276560D01*
X92314685Y-112500000D01*
X92336692Y-112723440D01*
X92401867Y-112938293D01*
X92507705Y-113136303D01*
X92650140Y-113309860D01*
X92802801Y-113435146D01*
X92802801Y-113449092D01*
X92431093Y-113820800D01*
X89693222Y-113820800D01*
X88894012Y-113021591D01*
X88927513Y-113049085D01*
X89041684Y-113110111D01*
X89165566Y-113147690D01*
X89262123Y-113157200D01*
X89262132Y-113157200D01*
X89294399Y-113160378D01*
X89326666Y-113157200D01*
X89778864Y-113157200D01*
X89778864Y-113363600D01*
X89784197Y-113417745D01*
X89799990Y-113469808D01*
X89825637Y-113517791D01*
X89860152Y-113559848D01*
X89902209Y-113594363D01*
X89950192Y-113620010D01*
X90002255Y-113635803D01*
X90056400Y-113641136D01*
X91783600Y-113641136D01*
X91837745Y-113635803D01*
X91889808Y-113620010D01*
X91937791Y-113594363D01*
X91979848Y-113559848D01*
X92014363Y-113517791D01*
X92040010Y-113469808D01*
X92055803Y-113417745D01*
X92061136Y-113363600D01*
X92061136Y-111636400D01*
X92055803Y-111582255D01*
X92040010Y-111530192D01*
X92014363Y-111482209D01*
X91979848Y-111440152D01*
X91937791Y-111405637D01*
X91889808Y-111379990D01*
X91837745Y-111364197D01*
X91783600Y-111358864D01*
X90056400Y-111358864D01*
X90002255Y-111364197D01*
X89950192Y-111379990D01*
X89902209Y-111405637D01*
X89860152Y-111440152D01*
X89825637Y-111482209D01*
X89799990Y-111530192D01*
X89784197Y-111582255D01*
X89778864Y-111636400D01*
X89778864Y-111842800D01*
X89570200Y-111842800D01*
X89570200Y-109289220D01*
X90282213Y-108577207D01*
X90272310Y-108609853D01*
X90259622Y-108738686D01*
X90262801Y-108770965D01*
X90262801Y-109024854D01*
X90110140Y-109150140D01*
X89967705Y-109323697D01*
X89861867Y-109521707D01*
X89796692Y-109736560D01*
X89774685Y-109960000D01*
X89796692Y-110183440D01*
X89861867Y-110398293D01*
X89967705Y-110596303D01*
X90110140Y-110769860D01*
X90283697Y-110912295D01*
X90481707Y-111018133D01*
X90696560Y-111083308D01*
X90864005Y-111099800D01*
X90975995Y-111099800D01*
X91143440Y-111083308D01*
X91358293Y-111018133D01*
X91556303Y-110912295D01*
X91729860Y-110769860D01*
X91872295Y-110596303D01*
X91978133Y-110398293D01*
X92043308Y-110183440D01*
X92065315Y-109960000D01*
X92043308Y-109736560D01*
X91978133Y-109521707D01*
X91872295Y-109323697D01*
X91729860Y-109150140D01*
X91577200Y-109024855D01*
X91577200Y-109010906D01*
X92783896Y-107804212D01*
X92802800Y-107788697D01*
X92802800Y-109024855D01*
X92650140Y-109150140D01*
X92507705Y-109323697D01*
X92401867Y-109521707D01*
X92336692Y-109736560D01*
X92314685Y-109960000D01*
X92336692Y-110183440D01*
X92401867Y-110398293D01*
X92507705Y-110596303D01*
X92650140Y-110769860D01*
X92823697Y-110912295D01*
X93021707Y-111018133D01*
X93236560Y-111083308D01*
X93404005Y-111099800D01*
X93515995Y-111099800D01*
X93683440Y-111083308D01*
X93898293Y-111018133D01*
X94096303Y-110912295D01*
X94269860Y-110769860D01*
X94412295Y-110596303D01*
X94518133Y-110398293D01*
X94583308Y-110183440D01*
X94605315Y-109960000D01*
X94854685Y-109960000D01*
X94876692Y-110183440D01*
X94941867Y-110398293D01*
X95047705Y-110596303D01*
X95190140Y-110769860D01*
X95363697Y-110912295D01*
X95561707Y-111018133D01*
X95776560Y-111083308D01*
X95944005Y-111099800D01*
X96055995Y-111099800D01*
X96223440Y-111083308D01*
X96438293Y-111018133D01*
X96636303Y-110912295D01*
X96809860Y-110769860D01*
X96952295Y-110596303D01*
X97058133Y-110398293D01*
X97123308Y-110183440D01*
X97145315Y-109960000D01*
X97394685Y-109960000D01*
X97416692Y-110183440D01*
X97481867Y-110398293D01*
X97587705Y-110596303D01*
X97730140Y-110769860D01*
X97903697Y-110912295D01*
X98101707Y-111018133D01*
X98316560Y-111083308D01*
X98484005Y-111099800D01*
X98595995Y-111099800D01*
X98763440Y-111083308D01*
X98978293Y-111018133D01*
X99176303Y-110912295D01*
X99349860Y-110769860D01*
X99492295Y-110596303D01*
X99598133Y-110398293D01*
X99663308Y-110183440D01*
X99685315Y-109960000D01*
X99934685Y-109960000D01*
X99956692Y-110183440D01*
X100021867Y-110398293D01*
X100127705Y-110596303D01*
X100270140Y-110769860D01*
X100443697Y-110912295D01*
X100641707Y-111018133D01*
X100856560Y-111083308D01*
X101024005Y-111099800D01*
X101135995Y-111099800D01*
X101303440Y-111083308D01*
X101518293Y-111018133D01*
X101716303Y-110912295D01*
X101889860Y-110769860D01*
X102032295Y-110596303D01*
X102138133Y-110398293D01*
X102203308Y-110183440D01*
X102225315Y-109960000D01*
X102203308Y-109736560D01*
X102138133Y-109521707D01*
X102032295Y-109323697D01*
X101889860Y-109150140D01*
X101716303Y-109007705D01*
X101518293Y-108901867D01*
X101303440Y-108836692D01*
X101135995Y-108820200D01*
X101024005Y-108820200D01*
X100856560Y-108836692D01*
X100641707Y-108901867D01*
X100443697Y-109007705D01*
X100270140Y-109150140D01*
X100127705Y-109323697D01*
X100021867Y-109521707D01*
X99956692Y-109736560D01*
X99934685Y-109960000D01*
X99685315Y-109960000D01*
X99663308Y-109736560D01*
X99598133Y-109521707D01*
X99492295Y-109323697D01*
X99349860Y-109150140D01*
X99176303Y-109007705D01*
X98978293Y-108901867D01*
X98763440Y-108836692D01*
X98595995Y-108820200D01*
X98484005Y-108820200D01*
X98316560Y-108836692D01*
X98101707Y-108901867D01*
X97903697Y-109007705D01*
X97730140Y-109150140D01*
X97587705Y-109323697D01*
X97481867Y-109521707D01*
X97416692Y-109736560D01*
X97394685Y-109960000D01*
X97145315Y-109960000D01*
X97123308Y-109736560D01*
X97058133Y-109521707D01*
X96952295Y-109323697D01*
X96809860Y-109150140D01*
X96636303Y-109007705D01*
X96438293Y-108901867D01*
X96223440Y-108836692D01*
X96055995Y-108820200D01*
X95944005Y-108820200D01*
X95776560Y-108836692D01*
X95561707Y-108901867D01*
X95363697Y-109007705D01*
X95190140Y-109150140D01*
X95047705Y-109323697D01*
X94941867Y-109521707D01*
X94876692Y-109736560D01*
X94854685Y-109960000D01*
X94605315Y-109960000D01*
X94583308Y-109736560D01*
X94518133Y-109521707D01*
X94412295Y-109323697D01*
X94269860Y-109150140D01*
X94117200Y-109024855D01*
X94117200Y-104361220D01*
X99768891Y-98709530D01*
X99793958Y-98688958D01*
X99876085Y-98588887D01*
X99937111Y-98474716D01*
X99974690Y-98350834D01*
X99984200Y-98254277D01*
X99984200Y-98254269D01*
X99987378Y-98222000D01*
X99984200Y-98189731D01*
X99984200Y-93807624D01*
X110373800Y-93807624D01*
X110373800Y-94492376D01*
X110507388Y-95163970D01*
X110769431Y-95796598D01*
X111149859Y-96365948D01*
X111634052Y-96850141D01*
X112203402Y-97230569D01*
X112836030Y-97492612D01*
X113507624Y-97626200D01*
X114192376Y-97626200D01*
X114863970Y-97492612D01*
X115496598Y-97230569D01*
X116065948Y-96850141D01*
X116550141Y-96365948D01*
X116930569Y-95796598D01*
X117192612Y-95163970D01*
X117326200Y-94492376D01*
X117326200Y-93807624D01*
X117192612Y-93136030D01*
X116930569Y-92503402D01*
X116550141Y-91934052D01*
X116065948Y-91449859D01*
X115496598Y-91069431D01*
X114863970Y-90807388D01*
X114192376Y-90673800D01*
X113507624Y-90673800D01*
X112836030Y-90807388D01*
X112203402Y-91069431D01*
X111634052Y-91449859D01*
X111149859Y-91934052D01*
X110769431Y-92503402D01*
X110507388Y-93136030D01*
X110373800Y-93807624D01*
X99984200Y-93807624D01*
X99984200Y-92669119D01*
X100003200Y-92573600D01*
X100003200Y-92440400D01*
X99984200Y-92344881D01*
X99984200Y-91780119D01*
X100003200Y-91684600D01*
X100003200Y-91551400D01*
X99984200Y-91455881D01*
X99984200Y-90891119D01*
X100003200Y-90795600D01*
X100003200Y-90662400D01*
X99984200Y-90566881D01*
X99984200Y-90002119D01*
X100003200Y-89906600D01*
X100003200Y-89773400D01*
X99977214Y-89642760D01*
X99926241Y-89519699D01*
X99852239Y-89408948D01*
X99758052Y-89314761D01*
X99647301Y-89240759D01*
X99524240Y-89189786D01*
X99393600Y-89163800D01*
X99260400Y-89163800D01*
X99129760Y-89189786D01*
X99006699Y-89240759D01*
X98895948Y-89314761D01*
X98801761Y-89408948D01*
X98755500Y-89478182D01*
X98709239Y-89408948D01*
X98615052Y-89314761D01*
X98504301Y-89240759D01*
X98381240Y-89189786D01*
X98250600Y-89163800D01*
X98117400Y-89163800D01*
X97986760Y-89189786D01*
X97863699Y-89240759D01*
X97752948Y-89314761D01*
X97658761Y-89408948D01*
X97612500Y-89478182D01*
X97566239Y-89408948D01*
X97472052Y-89314761D01*
X97361301Y-89240759D01*
X97238240Y-89189786D01*
X97107600Y-89163800D01*
X96974400Y-89163800D01*
X96843760Y-89189786D01*
X96720699Y-89240759D01*
X96609948Y-89314761D01*
X96515761Y-89408948D01*
X96469500Y-89478182D01*
X96423239Y-89408948D01*
X96329052Y-89314761D01*
X96218301Y-89240759D01*
X96095240Y-89189786D01*
X95964600Y-89163800D01*
X95831400Y-89163800D01*
X95700760Y-89189786D01*
X95577699Y-89240759D01*
X95466948Y-89314761D01*
X95372761Y-89408948D01*
X95298759Y-89519699D01*
X95247786Y-89642760D01*
X95221800Y-89773400D01*
X95221800Y-89906600D01*
X95240801Y-90002124D01*
X95240801Y-90566876D01*
X95221800Y-90662400D01*
X95221800Y-90795600D01*
X95240801Y-90891123D01*
X95240801Y-91455877D01*
X95221800Y-91551400D01*
X95221800Y-91684600D01*
X95240801Y-91780123D01*
X95240801Y-92344878D01*
X95221800Y-92440400D01*
X95221800Y-92573600D01*
X95240801Y-92669122D01*
X95240800Y-96425778D01*
X91646117Y-100020463D01*
X91646112Y-100020467D01*
X89614111Y-102052469D01*
X89589043Y-102073042D01*
X89568470Y-102098110D01*
X89568467Y-102098113D01*
X89506915Y-102173114D01*
X89445890Y-102287284D01*
X89408310Y-102411167D01*
X89395622Y-102540000D01*
X89398801Y-102572279D01*
X89398800Y-105555723D01*
X89398800Y-105950779D01*
X88344117Y-107005463D01*
X88344112Y-107005467D01*
X87328111Y-108021469D01*
X87303043Y-108042042D01*
X87282470Y-108067110D01*
X87282467Y-108067113D01*
X87220915Y-108142114D01*
X87159890Y-108256284D01*
X87122310Y-108380167D01*
X87109622Y-108509000D01*
X85730999Y-108509000D01*
X85730999Y-93807624D01*
X87373800Y-93807624D01*
X87373800Y-94492376D01*
X87507388Y-95163970D01*
X87769431Y-95796598D01*
X88149859Y-96365948D01*
X88634052Y-96850141D01*
X89203402Y-97230569D01*
X89836030Y-97492612D01*
X90507624Y-97626200D01*
X91192376Y-97626200D01*
X91863970Y-97492612D01*
X92496598Y-97230569D01*
X93065948Y-96850141D01*
X93550141Y-96365948D01*
X93930569Y-95796598D01*
X94192612Y-95163970D01*
X94326200Y-94492376D01*
X94326200Y-93807624D01*
X94192612Y-93136030D01*
X93930569Y-92503402D01*
X93550141Y-91934052D01*
X93065948Y-91449859D01*
X92496598Y-91069431D01*
X91863970Y-90807388D01*
X91192376Y-90673800D01*
X90507624Y-90673800D01*
X89836030Y-90807388D01*
X89203402Y-91069431D01*
X88634052Y-91449859D01*
X88149859Y-91934052D01*
X87769431Y-92503402D01*
X87507388Y-93136030D01*
X87373800Y-93807624D01*
X85730999Y-93807624D01*
X85730999Y-89668638D01*
X85744581Y-89530123D01*
X85779395Y-89414813D01*
X85835944Y-89308460D01*
X85912074Y-89215116D01*
X86004879Y-89138341D01*
X86110838Y-89081049D01*
X86225898Y-89045432D01*
X86363217Y-89030999D01*
X124868713Y-89030999D01*
X124869370Y-89030934D01*
X124879248Y-89030900D01*
X124895812Y-89029218D01*
X124912456Y-89029334D01*
X124917750Y-89028815D01*
X125694138Y-88947213D01*
X125727967Y-88940269D01*
X125761883Y-88933799D01*
X125766974Y-88932262D01*
X125766980Y-88932260D01*
X126512726Y-88701413D01*
X126544550Y-88688035D01*
X126576577Y-88675096D01*
X126581274Y-88672598D01*
X127267984Y-88301295D01*
X127296634Y-88281970D01*
X127325507Y-88263077D01*
X127329630Y-88259715D01*
X127931141Y-87762102D01*
X127955468Y-87737604D01*
X127980145Y-87713439D01*
X127983536Y-87709339D01*
X128476938Y-87104369D01*
X128496060Y-87075587D01*
X128515557Y-87047114D01*
X128518084Y-87042439D01*
X128518087Y-87042435D01*
X128518089Y-87042431D01*
X128841800Y-86433619D01*
X128841800Y-104440006D01*
G36*
X145699455Y-60979875D02*
G01*
X145834073Y-61035636D01*
X145949667Y-61124333D01*
X146038364Y-61239927D01*
X146094125Y-61374545D01*
X146113800Y-61523994D01*
X146113800Y-63541974D01*
X146114452Y-63551920D01*
X146136089Y-63716270D01*
X146141237Y-63735485D01*
X146204674Y-63888635D01*
X146214620Y-63905861D01*
X146315533Y-64037374D01*
X146322105Y-64044869D01*
X146420289Y-64143053D01*
X146356867Y-64261707D01*
X146291692Y-64476560D01*
X146269685Y-64700000D01*
X146291692Y-64923440D01*
X146356867Y-65138293D01*
X146462705Y-65336303D01*
X146605140Y-65509860D01*
X146778697Y-65652295D01*
X146976707Y-65758133D01*
X147191560Y-65823308D01*
X147359005Y-65839800D01*
X147470995Y-65839800D01*
X147638440Y-65823308D01*
X147853293Y-65758133D01*
X147971947Y-65694711D01*
X149114036Y-66836800D01*
X148483778Y-66836800D01*
X148473133Y-66801707D01*
X148367295Y-66603697D01*
X148224860Y-66430140D01*
X148051303Y-66287705D01*
X147853293Y-66181867D01*
X147638440Y-66116692D01*
X147470995Y-66100200D01*
X147359005Y-66100200D01*
X147191560Y-66116692D01*
X146976707Y-66181867D01*
X146778697Y-66287705D01*
X146605140Y-66430140D01*
X146462705Y-66603697D01*
X146356867Y-66801707D01*
X146291692Y-67016560D01*
X146269685Y-67240000D01*
X146291692Y-67463440D01*
X146356867Y-67678293D01*
X146462705Y-67876303D01*
X146605140Y-68049860D01*
X146778697Y-68192295D01*
X146976707Y-68298133D01*
X147191560Y-68363308D01*
X147359005Y-68379800D01*
X147470995Y-68379800D01*
X147638440Y-68363308D01*
X147853293Y-68298133D01*
X148051303Y-68192295D01*
X148224860Y-68049860D01*
X148367295Y-67876303D01*
X148473133Y-67678293D01*
X148483778Y-67643200D01*
X149203990Y-67643200D01*
X157447898Y-75887109D01*
X157460516Y-75902484D01*
X157475891Y-75915102D01*
X157475893Y-75915104D01*
X157501722Y-75936301D01*
X157521911Y-75952870D01*
X157591956Y-75990310D01*
X157667959Y-76013365D01*
X157727202Y-76019200D01*
X157727209Y-76019200D01*
X157747000Y-76021149D01*
X157766791Y-76019200D01*
X165712151Y-76019200D01*
X165730761Y-76047052D01*
X165824948Y-76141239D01*
X165935699Y-76215241D01*
X166058760Y-76266214D01*
X166189400Y-76292200D01*
X166322600Y-76292200D01*
X166453240Y-76266214D01*
X166576301Y-76215241D01*
X166687052Y-76141239D01*
X166781239Y-76047052D01*
X166855241Y-75936301D01*
X166906214Y-75813240D01*
X166932200Y-75682600D01*
X166932200Y-75549400D01*
X166906214Y-75418760D01*
X166861662Y-75311200D01*
X167134621Y-75311200D01*
X167669077Y-76175063D01*
X167669087Y-76175082D01*
X167683507Y-76195414D01*
X167696766Y-76214110D01*
X167696773Y-76214117D01*
X168486118Y-77190819D01*
X168486124Y-77190827D01*
X168492290Y-77197545D01*
X168518475Y-77226077D01*
X168518483Y-77226084D01*
X169424023Y-78096158D01*
X169460538Y-78127077D01*
X170250302Y-78714800D01*
X139173116Y-78714800D01*
X139567984Y-78501295D01*
X139596634Y-78481970D01*
X139625507Y-78463077D01*
X139629630Y-78459715D01*
X140231141Y-77962102D01*
X140255468Y-77937604D01*
X140280145Y-77913439D01*
X140283536Y-77909340D01*
X140776938Y-77304369D01*
X140796038Y-77275621D01*
X140815557Y-77247115D01*
X140818087Y-77242435D01*
X141184586Y-76553150D01*
X141197737Y-76521243D01*
X141211349Y-76489485D01*
X141212922Y-76484403D01*
X141438559Y-75737059D01*
X141445273Y-75703150D01*
X141452446Y-75669408D01*
X141453002Y-75664117D01*
X141529181Y-74887180D01*
X141529181Y-74887163D01*
X141530998Y-74868714D01*
X141530998Y-67671800D01*
X143934321Y-67671800D01*
X143951680Y-67823422D01*
X143982636Y-67869791D01*
X144122649Y-68031781D01*
X144291574Y-68163344D01*
X144443200Y-68186094D01*
X144443200Y-67671800D01*
X145306800Y-67671800D01*
X145306800Y-68186094D01*
X145458426Y-68163344D01*
X145627351Y-68031781D01*
X145767364Y-67869791D01*
X145798320Y-67823422D01*
X145815679Y-67671800D01*
X145306800Y-67671800D01*
X144443200Y-67671800D01*
X143934321Y-67671800D01*
X141530998Y-67671800D01*
X141530998Y-66808200D01*
X143934321Y-66808200D01*
X144443200Y-66808200D01*
X145306800Y-66808200D01*
X145815679Y-66808200D01*
X145798320Y-66656578D01*
X145767364Y-66610209D01*
X145627351Y-66448219D01*
X145458426Y-66316656D01*
X145306800Y-66293906D01*
X145306800Y-66808200D01*
X144443200Y-66808200D01*
X144443200Y-66293906D01*
X144291574Y-66316656D01*
X144122649Y-66448219D01*
X143982636Y-66610209D01*
X143951680Y-66656578D01*
X143934321Y-66808200D01*
X141530998Y-66808200D01*
X141530998Y-65131800D01*
X143934321Y-65131800D01*
X143951680Y-65283422D01*
X143982636Y-65329791D01*
X144122649Y-65491781D01*
X144291574Y-65623344D01*
X144443200Y-65646094D01*
X144443200Y-65131800D01*
X145306800Y-65131800D01*
X145306800Y-65646094D01*
X145458426Y-65623344D01*
X145627351Y-65491781D01*
X145767364Y-65329791D01*
X145798320Y-65283422D01*
X145815679Y-65131800D01*
X145306800Y-65131800D01*
X144443200Y-65131800D01*
X143934321Y-65131800D01*
X141530998Y-65131800D01*
X141530998Y-64268200D01*
X143934321Y-64268200D01*
X144443200Y-64268200D01*
X145306800Y-64268200D01*
X145815679Y-64268200D01*
X145798320Y-64116578D01*
X145767364Y-64070209D01*
X145627351Y-63908219D01*
X145458426Y-63776656D01*
X145306800Y-63753906D01*
X145306800Y-64268200D01*
X144443200Y-64268200D01*
X144443200Y-63753906D01*
X144291574Y-63776656D01*
X144122649Y-63908219D01*
X143982636Y-64070209D01*
X143951680Y-64116578D01*
X143934321Y-64268200D01*
X141530998Y-64268200D01*
X141530998Y-62591800D01*
X143934321Y-62591800D01*
X143951680Y-62743422D01*
X143982636Y-62789791D01*
X144122649Y-62951781D01*
X144291574Y-63083344D01*
X144443200Y-63106094D01*
X144443200Y-62591800D01*
X145306800Y-62591800D01*
X145306800Y-63106094D01*
X145458426Y-63083344D01*
X145627351Y-62951781D01*
X145767364Y-62789791D01*
X145798320Y-62743422D01*
X145815679Y-62591800D01*
X145306800Y-62591800D01*
X144443200Y-62591800D01*
X143934321Y-62591800D01*
X141530998Y-62591800D01*
X141530998Y-61728200D01*
X143934321Y-61728200D01*
X144443200Y-61728200D01*
X145306800Y-61728200D01*
X145815679Y-61728200D01*
X145798320Y-61576578D01*
X145767364Y-61530209D01*
X145627351Y-61368219D01*
X145458426Y-61236656D01*
X145306800Y-61213906D01*
X145306800Y-61728200D01*
X144443200Y-61728200D01*
X144443200Y-61213906D01*
X144291574Y-61236656D01*
X144122649Y-61368219D01*
X143982636Y-61530209D01*
X143951680Y-61576578D01*
X143934321Y-61728200D01*
X141530998Y-61728200D01*
X141530999Y-60960200D01*
X145550006Y-60960200D01*
X145699455Y-60979875D01*
X145699455Y-60979875D01*
G37*
X145699455Y-60979875D02*
X145834073Y-61035636D01*
X145949667Y-61124333D01*
X146038364Y-61239927D01*
X146094125Y-61374545D01*
X146113800Y-61523994D01*
X146113800Y-63541974D01*
X146114452Y-63551920D01*
X146136089Y-63716270D01*
X146141237Y-63735485D01*
X146204674Y-63888635D01*
X146214620Y-63905861D01*
X146315533Y-64037374D01*
X146322105Y-64044869D01*
X146420289Y-64143053D01*
X146356867Y-64261707D01*
X146291692Y-64476560D01*
X146269685Y-64700000D01*
X146291692Y-64923440D01*
X146356867Y-65138293D01*
X146462705Y-65336303D01*
X146605140Y-65509860D01*
X146778697Y-65652295D01*
X146976707Y-65758133D01*
X147191560Y-65823308D01*
X147359005Y-65839800D01*
X147470995Y-65839800D01*
X147638440Y-65823308D01*
X147853293Y-65758133D01*
X147971947Y-65694711D01*
X149114036Y-66836800D01*
X148483778Y-66836800D01*
X148473133Y-66801707D01*
X148367295Y-66603697D01*
X148224860Y-66430140D01*
X148051303Y-66287705D01*
X147853293Y-66181867D01*
X147638440Y-66116692D01*
X147470995Y-66100200D01*
X147359005Y-66100200D01*
X147191560Y-66116692D01*
X146976707Y-66181867D01*
X146778697Y-66287705D01*
X146605140Y-66430140D01*
X146462705Y-66603697D01*
X146356867Y-66801707D01*
X146291692Y-67016560D01*
X146269685Y-67240000D01*
X146291692Y-67463440D01*
X146356867Y-67678293D01*
X146462705Y-67876303D01*
X146605140Y-68049860D01*
X146778697Y-68192295D01*
X146976707Y-68298133D01*
X147191560Y-68363308D01*
X147359005Y-68379800D01*
X147470995Y-68379800D01*
X147638440Y-68363308D01*
X147853293Y-68298133D01*
X148051303Y-68192295D01*
X148224860Y-68049860D01*
X148367295Y-67876303D01*
X148473133Y-67678293D01*
X148483778Y-67643200D01*
X149203990Y-67643200D01*
X157447898Y-75887109D01*
X157460516Y-75902484D01*
X157475891Y-75915102D01*
X157475893Y-75915104D01*
X157501722Y-75936301D01*
X157521911Y-75952870D01*
X157591956Y-75990310D01*
X157667959Y-76013365D01*
X157727202Y-76019200D01*
X157727209Y-76019200D01*
X157747000Y-76021149D01*
X157766791Y-76019200D01*
X165712151Y-76019200D01*
X165730761Y-76047052D01*
X165824948Y-76141239D01*
X165935699Y-76215241D01*
X166058760Y-76266214D01*
X166189400Y-76292200D01*
X166322600Y-76292200D01*
X166453240Y-76266214D01*
X166576301Y-76215241D01*
X166687052Y-76141239D01*
X166781239Y-76047052D01*
X166855241Y-75936301D01*
X166906214Y-75813240D01*
X166932200Y-75682600D01*
X166932200Y-75549400D01*
X166906214Y-75418760D01*
X166861662Y-75311200D01*
X167134621Y-75311200D01*
X167669077Y-76175063D01*
X167669087Y-76175082D01*
X167683507Y-76195414D01*
X167696766Y-76214110D01*
X167696773Y-76214117D01*
X168486118Y-77190819D01*
X168486124Y-77190827D01*
X168492290Y-77197545D01*
X168518475Y-77226077D01*
X168518483Y-77226084D01*
X169424023Y-78096158D01*
X169460538Y-78127077D01*
X170250302Y-78714800D01*
X139173116Y-78714800D01*
X139567984Y-78501295D01*
X139596634Y-78481970D01*
X139625507Y-78463077D01*
X139629630Y-78459715D01*
X140231141Y-77962102D01*
X140255468Y-77937604D01*
X140280145Y-77913439D01*
X140283536Y-77909340D01*
X140776938Y-77304369D01*
X140796038Y-77275621D01*
X140815557Y-77247115D01*
X140818087Y-77242435D01*
X141184586Y-76553150D01*
X141197737Y-76521243D01*
X141211349Y-76489485D01*
X141212922Y-76484403D01*
X141438559Y-75737059D01*
X141445273Y-75703150D01*
X141452446Y-75669408D01*
X141453002Y-75664117D01*
X141529181Y-74887180D01*
X141529181Y-74887163D01*
X141530998Y-74868714D01*
X141530998Y-67671800D01*
X143934321Y-67671800D01*
X143951680Y-67823422D01*
X143982636Y-67869791D01*
X144122649Y-68031781D01*
X144291574Y-68163344D01*
X144443200Y-68186094D01*
X144443200Y-67671800D01*
X145306800Y-67671800D01*
X145306800Y-68186094D01*
X145458426Y-68163344D01*
X145627351Y-68031781D01*
X145767364Y-67869791D01*
X145798320Y-67823422D01*
X145815679Y-67671800D01*
X145306800Y-67671800D01*
X144443200Y-67671800D01*
X143934321Y-67671800D01*
X141530998Y-67671800D01*
X141530998Y-66808200D01*
X143934321Y-66808200D01*
X144443200Y-66808200D01*
X145306800Y-66808200D01*
X145815679Y-66808200D01*
X145798320Y-66656578D01*
X145767364Y-66610209D01*
X145627351Y-66448219D01*
X145458426Y-66316656D01*
X145306800Y-66293906D01*
X145306800Y-66808200D01*
X144443200Y-66808200D01*
X144443200Y-66293906D01*
X144291574Y-66316656D01*
X144122649Y-66448219D01*
X143982636Y-66610209D01*
X143951680Y-66656578D01*
X143934321Y-66808200D01*
X141530998Y-66808200D01*
X141530998Y-65131800D01*
X143934321Y-65131800D01*
X143951680Y-65283422D01*
X143982636Y-65329791D01*
X144122649Y-65491781D01*
X144291574Y-65623344D01*
X144443200Y-65646094D01*
X144443200Y-65131800D01*
X145306800Y-65131800D01*
X145306800Y-65646094D01*
X145458426Y-65623344D01*
X145627351Y-65491781D01*
X145767364Y-65329791D01*
X145798320Y-65283422D01*
X145815679Y-65131800D01*
X145306800Y-65131800D01*
X144443200Y-65131800D01*
X143934321Y-65131800D01*
X141530998Y-65131800D01*
X141530998Y-64268200D01*
X143934321Y-64268200D01*
X144443200Y-64268200D01*
X145306800Y-64268200D01*
X145815679Y-64268200D01*
X145798320Y-64116578D01*
X145767364Y-64070209D01*
X145627351Y-63908219D01*
X145458426Y-63776656D01*
X145306800Y-63753906D01*
X145306800Y-64268200D01*
X144443200Y-64268200D01*
X144443200Y-63753906D01*
X144291574Y-63776656D01*
X144122649Y-63908219D01*
X143982636Y-64070209D01*
X143951680Y-64116578D01*
X143934321Y-64268200D01*
X141530998Y-64268200D01*
X141530998Y-62591800D01*
X143934321Y-62591800D01*
X143951680Y-62743422D01*
X143982636Y-62789791D01*
X144122649Y-62951781D01*
X144291574Y-63083344D01*
X144443200Y-63106094D01*
X144443200Y-62591800D01*
X145306800Y-62591800D01*
X145306800Y-63106094D01*
X145458426Y-63083344D01*
X145627351Y-62951781D01*
X145767364Y-62789791D01*
X145798320Y-62743422D01*
X145815679Y-62591800D01*
X145306800Y-62591800D01*
X144443200Y-62591800D01*
X143934321Y-62591800D01*
X141530998Y-62591800D01*
X141530998Y-61728200D01*
X143934321Y-61728200D01*
X144443200Y-61728200D01*
X145306800Y-61728200D01*
X145815679Y-61728200D01*
X145798320Y-61576578D01*
X145767364Y-61530209D01*
X145627351Y-61368219D01*
X145458426Y-61236656D01*
X145306800Y-61213906D01*
X145306800Y-61728200D01*
X144443200Y-61728200D01*
X144443200Y-61213906D01*
X144291574Y-61236656D01*
X144122649Y-61368219D01*
X143982636Y-61530209D01*
X143951680Y-61576578D01*
X143934321Y-61728200D01*
X141530998Y-61728200D01*
X141530999Y-60960200D01*
X145550006Y-60960200D01*
X145699455Y-60979875D01*
G36*
X165269876Y-44244581D02*
G01*
X165385186Y-44279395D01*
X165491539Y-44335944D01*
X165584883Y-44412074D01*
X165661658Y-44504879D01*
X165718950Y-44610838D01*
X165754567Y-44725898D01*
X165769000Y-44863217D01*
X165769002Y-70208459D01*
X165770066Y-70219267D01*
X165834781Y-71351202D01*
X165837517Y-71373903D01*
X165840116Y-71396559D01*
X166061298Y-72632738D01*
X166072665Y-72679214D01*
X166072669Y-72679224D01*
X166447034Y-73877910D01*
X166447038Y-73877925D01*
X166464142Y-73922610D01*
X166937329Y-74958800D01*
X166418119Y-74958800D01*
X166322600Y-74939800D01*
X166189400Y-74939800D01*
X166093881Y-74958800D01*
X165964491Y-74958800D01*
X166019239Y-74904052D01*
X166093241Y-74793301D01*
X166144214Y-74670240D01*
X166170200Y-74539600D01*
X166170200Y-74406400D01*
X166144214Y-74275760D01*
X166093241Y-74152699D01*
X166019239Y-74041948D01*
X165925052Y-73947761D01*
X165814301Y-73873759D01*
X165691240Y-73822786D01*
X165560600Y-73796800D01*
X165427400Y-73796800D01*
X165296760Y-73822786D01*
X165173699Y-73873759D01*
X165062948Y-73947761D01*
X164968761Y-74041948D01*
X164894759Y-74152699D01*
X164843786Y-74275760D01*
X164817800Y-74406400D01*
X164817800Y-74539600D01*
X164824335Y-74572455D01*
X164818990Y-74577800D01*
X158041011Y-74577800D01*
X150470835Y-67007624D01*
X157173800Y-67007624D01*
X157173800Y-67692376D01*
X157307388Y-68363970D01*
X157569431Y-68996598D01*
X157949859Y-69565948D01*
X158434052Y-70050141D01*
X159003402Y-70430569D01*
X159636030Y-70692612D01*
X160307624Y-70826200D01*
X160992376Y-70826200D01*
X161663970Y-70692612D01*
X162296598Y-70430569D01*
X162865948Y-70050141D01*
X163350141Y-69565948D01*
X163730569Y-68996598D01*
X163992612Y-68363970D01*
X164126200Y-67692376D01*
X164126200Y-67007624D01*
X163992612Y-66336030D01*
X163730569Y-65703402D01*
X163350141Y-65134052D01*
X162865948Y-64649859D01*
X162296598Y-64269431D01*
X161663970Y-64007388D01*
X160992376Y-63873800D01*
X160307624Y-63873800D01*
X159636030Y-64007388D01*
X159003402Y-64269431D01*
X158434052Y-64649859D01*
X157949859Y-65134052D01*
X157569431Y-65703402D01*
X157307388Y-66336030D01*
X157173800Y-67007624D01*
X150470835Y-67007624D01*
X149514200Y-66050990D01*
X149514200Y-65194473D01*
X149516149Y-65174685D01*
X149514200Y-65154897D01*
X149514200Y-65154888D01*
X149508365Y-65095645D01*
X149485310Y-65019642D01*
X149447870Y-64949597D01*
X149397484Y-64888202D01*
X149382110Y-64875585D01*
X148935421Y-64428897D01*
X148922798Y-64413516D01*
X148861403Y-64363130D01*
X148791358Y-64325690D01*
X148715355Y-64302635D01*
X148656112Y-64296800D01*
X148656105Y-64296800D01*
X148636314Y-64294851D01*
X148616523Y-64296800D01*
X148483778Y-64296800D01*
X148473133Y-64261707D01*
X148367295Y-64063697D01*
X148224860Y-63890140D01*
X148051303Y-63747705D01*
X147853293Y-63641867D01*
X147638440Y-63576692D01*
X147470995Y-63560200D01*
X147359005Y-63560200D01*
X147191560Y-63576692D01*
X146976707Y-63641867D01*
X146778697Y-63747705D01*
X146638428Y-63862822D01*
X146584091Y-63808485D01*
X146516333Y-63720181D01*
X146480728Y-63634223D01*
X146466200Y-63523872D01*
X146466200Y-62800562D01*
X146605140Y-62969860D01*
X146778697Y-63112295D01*
X146976707Y-63218133D01*
X147191560Y-63283308D01*
X147359005Y-63299800D01*
X147470995Y-63299800D01*
X147638440Y-63283308D01*
X147853293Y-63218133D01*
X148051303Y-63112295D01*
X148224860Y-62969860D01*
X148367295Y-62796303D01*
X148424008Y-62690200D01*
X156316352Y-62690200D01*
X156410699Y-62753241D01*
X156533760Y-62804214D01*
X156664400Y-62830200D01*
X156797600Y-62830200D01*
X156928240Y-62804214D01*
X157051301Y-62753241D01*
X157162052Y-62679239D01*
X157256239Y-62585052D01*
X157330241Y-62474301D01*
X157381214Y-62351240D01*
X157407200Y-62220600D01*
X157407200Y-62087400D01*
X157381214Y-61956760D01*
X157330241Y-61833699D01*
X157256239Y-61722948D01*
X157162052Y-61628761D01*
X157051301Y-61554759D01*
X156928240Y-61503786D01*
X156797600Y-61477800D01*
X156664400Y-61477800D01*
X156533760Y-61503786D01*
X156410699Y-61554759D01*
X156299948Y-61628761D01*
X156298909Y-61629800D01*
X148424008Y-61629800D01*
X148367295Y-61523697D01*
X148224860Y-61350140D01*
X148051303Y-61207705D01*
X147853293Y-61101867D01*
X147638440Y-61036692D01*
X147470995Y-61020200D01*
X147359005Y-61020200D01*
X147191560Y-61036692D01*
X146976707Y-61101867D01*
X146778697Y-61207705D01*
X146605140Y-61350140D01*
X146466200Y-61519438D01*
X146466200Y-61519000D01*
X146463837Y-61482949D01*
X146442200Y-61318599D01*
X146423538Y-61248953D01*
X146360101Y-61095803D01*
X146324051Y-61033361D01*
X146223138Y-60901848D01*
X146172152Y-60850862D01*
X146040639Y-60749949D01*
X145978197Y-60713899D01*
X145825047Y-60650462D01*
X145755401Y-60631800D01*
X145591051Y-60610163D01*
X145555000Y-60607800D01*
X145306802Y-60607800D01*
X145306802Y-60566094D01*
X145458426Y-60543344D01*
X145627351Y-60411781D01*
X145767364Y-60249791D01*
X145798320Y-60203422D01*
X145815679Y-60051800D01*
X145306800Y-60051800D01*
X145306800Y-60071800D01*
X144443200Y-60071800D01*
X144443200Y-60051800D01*
X143934321Y-60051800D01*
X143951680Y-60203422D01*
X143982636Y-60249791D01*
X144122649Y-60411781D01*
X144291574Y-60543344D01*
X144443198Y-60566094D01*
X144443198Y-60607800D01*
X141530999Y-60607800D01*
X141530999Y-59620000D01*
X146269685Y-59620000D01*
X146291692Y-59843440D01*
X146356867Y-60058293D01*
X146462705Y-60256303D01*
X146605140Y-60429860D01*
X146778697Y-60572295D01*
X146976707Y-60678133D01*
X147191560Y-60743308D01*
X147359005Y-60759800D01*
X147470995Y-60759800D01*
X147638440Y-60743308D01*
X147853293Y-60678133D01*
X148051303Y-60572295D01*
X148224860Y-60429860D01*
X148367295Y-60256303D01*
X148424008Y-60150200D01*
X155427352Y-60150200D01*
X155521699Y-60213241D01*
X155644760Y-60264214D01*
X155775400Y-60290200D01*
X155908600Y-60290200D01*
X156039240Y-60264214D01*
X156162301Y-60213241D01*
X156273052Y-60139239D01*
X156367239Y-60045052D01*
X156441241Y-59934301D01*
X156492214Y-59811240D01*
X156518200Y-59680600D01*
X156518200Y-59547400D01*
X156492214Y-59416760D01*
X156441241Y-59293699D01*
X156367239Y-59182948D01*
X156273052Y-59088761D01*
X156162301Y-59014759D01*
X156039240Y-58963786D01*
X155908600Y-58937800D01*
X155775400Y-58937800D01*
X155644760Y-58963786D01*
X155521699Y-59014759D01*
X155410948Y-59088761D01*
X155409909Y-59089800D01*
X148424008Y-59089800D01*
X148367295Y-58983697D01*
X148224860Y-58810140D01*
X148051303Y-58667705D01*
X147853293Y-58561867D01*
X147638440Y-58496692D01*
X147470995Y-58480200D01*
X147359005Y-58480200D01*
X147191560Y-58496692D01*
X146976707Y-58561867D01*
X146778697Y-58667705D01*
X146605140Y-58810140D01*
X146462705Y-58983697D01*
X146356867Y-59181707D01*
X146291692Y-59396560D01*
X146269685Y-59620000D01*
X141530999Y-59620000D01*
X141530999Y-59188200D01*
X143934321Y-59188200D01*
X144443200Y-59188200D01*
X145306800Y-59188200D01*
X145815679Y-59188200D01*
X145798320Y-59036578D01*
X145767364Y-58990209D01*
X145627351Y-58828219D01*
X145458426Y-58696656D01*
X145306800Y-58673906D01*
X145306800Y-59188200D01*
X144443200Y-59188200D01*
X144443200Y-58673906D01*
X144291574Y-58696656D01*
X144122649Y-58828219D01*
X143982636Y-58990209D01*
X143951680Y-59036578D01*
X143934321Y-59188200D01*
X141530999Y-59188200D01*
X141530999Y-57511800D01*
X143934321Y-57511800D01*
X143951680Y-57663422D01*
X143982636Y-57709791D01*
X144122649Y-57871781D01*
X144291574Y-58003344D01*
X144443200Y-58026094D01*
X144443200Y-57511800D01*
X145306800Y-57511800D01*
X145306800Y-58026094D01*
X145458426Y-58003344D01*
X145627351Y-57871781D01*
X145767364Y-57709791D01*
X145798320Y-57663422D01*
X145815679Y-57511800D01*
X145306800Y-57511800D01*
X144443200Y-57511800D01*
X143934321Y-57511800D01*
X141530999Y-57511800D01*
X141530999Y-57080000D01*
X146269685Y-57080000D01*
X146291692Y-57303440D01*
X146356867Y-57518293D01*
X146462705Y-57716303D01*
X146605140Y-57889860D01*
X146778697Y-58032295D01*
X146976707Y-58138133D01*
X147191560Y-58203308D01*
X147359005Y-58219800D01*
X147470995Y-58219800D01*
X147638440Y-58203308D01*
X147853293Y-58138133D01*
X148051303Y-58032295D01*
X148224860Y-57889860D01*
X148367295Y-57716303D01*
X148424008Y-57610200D01*
X154538352Y-57610200D01*
X154632699Y-57673241D01*
X154755760Y-57724214D01*
X154886400Y-57750200D01*
X155019600Y-57750200D01*
X155150240Y-57724214D01*
X155273301Y-57673241D01*
X155384052Y-57599239D01*
X155478239Y-57505052D01*
X155552241Y-57394301D01*
X155603214Y-57271240D01*
X155629200Y-57140600D01*
X155629200Y-57007400D01*
X155603214Y-56876760D01*
X155552241Y-56753699D01*
X155478239Y-56642948D01*
X155384052Y-56548761D01*
X155273301Y-56474759D01*
X155150240Y-56423786D01*
X155019600Y-56397800D01*
X154886400Y-56397800D01*
X154755760Y-56423786D01*
X154632699Y-56474759D01*
X154521948Y-56548761D01*
X154520909Y-56549800D01*
X148424008Y-56549800D01*
X148367295Y-56443697D01*
X148224860Y-56270140D01*
X148051303Y-56127705D01*
X147853293Y-56021867D01*
X147638440Y-55956692D01*
X147470995Y-55940200D01*
X147359005Y-55940200D01*
X147191560Y-55956692D01*
X146976707Y-56021867D01*
X146778697Y-56127705D01*
X146605140Y-56270140D01*
X146462705Y-56443697D01*
X146356867Y-56641707D01*
X146291692Y-56856560D01*
X146269685Y-57080000D01*
X141530999Y-57080000D01*
X141530999Y-56648200D01*
X143934321Y-56648200D01*
X144443200Y-56648200D01*
X145306800Y-56648200D01*
X145815679Y-56648200D01*
X145798320Y-56496578D01*
X145767364Y-56450209D01*
X145627351Y-56288219D01*
X145458426Y-56156656D01*
X145306800Y-56133906D01*
X145306800Y-56648200D01*
X144443200Y-56648200D01*
X144443200Y-56133906D01*
X144291574Y-56156656D01*
X144122649Y-56288219D01*
X143982636Y-56450209D01*
X143951680Y-56496578D01*
X143934321Y-56648200D01*
X141530999Y-56648200D01*
X141530999Y-54971800D01*
X143934321Y-54971800D01*
X143951680Y-55123422D01*
X143982636Y-55169791D01*
X144122649Y-55331781D01*
X144291574Y-55463344D01*
X144443200Y-55486094D01*
X144443200Y-54971800D01*
X145306800Y-54971800D01*
X145306800Y-55486094D01*
X145458426Y-55463344D01*
X145627351Y-55331781D01*
X145767364Y-55169791D01*
X145798320Y-55123422D01*
X145815679Y-54971800D01*
X145306800Y-54971800D01*
X144443200Y-54971800D01*
X143934321Y-54971800D01*
X141530999Y-54971800D01*
X141530999Y-54540000D01*
X146269685Y-54540000D01*
X146291692Y-54763440D01*
X146356867Y-54978293D01*
X146462705Y-55176303D01*
X146605140Y-55349860D01*
X146778697Y-55492295D01*
X146976707Y-55598133D01*
X147191560Y-55663308D01*
X147359005Y-55679800D01*
X147470995Y-55679800D01*
X147638440Y-55663308D01*
X147853293Y-55598133D01*
X148051303Y-55492295D01*
X148224860Y-55349860D01*
X148367295Y-55176303D01*
X148424008Y-55070200D01*
X153649352Y-55070200D01*
X153743699Y-55133241D01*
X153866760Y-55184214D01*
X153997400Y-55210200D01*
X154130600Y-55210200D01*
X154261240Y-55184214D01*
X154384301Y-55133241D01*
X154495052Y-55059239D01*
X154589239Y-54965052D01*
X154663241Y-54854301D01*
X154714214Y-54731240D01*
X154740200Y-54600600D01*
X154740200Y-54467400D01*
X154714214Y-54336760D01*
X154663241Y-54213699D01*
X154589239Y-54102948D01*
X154495052Y-54008761D01*
X154384301Y-53934759D01*
X154261240Y-53883786D01*
X154130600Y-53857800D01*
X153997400Y-53857800D01*
X153866760Y-53883786D01*
X153743699Y-53934759D01*
X153632948Y-54008761D01*
X153631909Y-54009800D01*
X148424008Y-54009800D01*
X148367295Y-53903697D01*
X148224860Y-53730140D01*
X148051303Y-53587705D01*
X147853293Y-53481867D01*
X147638440Y-53416692D01*
X147470995Y-53400200D01*
X147359005Y-53400200D01*
X147191560Y-53416692D01*
X146976707Y-53481867D01*
X146778697Y-53587705D01*
X146605140Y-53730140D01*
X146462705Y-53903697D01*
X146356867Y-54101707D01*
X146291692Y-54316560D01*
X146269685Y-54540000D01*
X141530999Y-54540000D01*
X141530999Y-54108200D01*
X143934321Y-54108200D01*
X144443200Y-54108200D01*
X145306800Y-54108200D01*
X145815679Y-54108200D01*
X145798320Y-53956578D01*
X145767364Y-53910209D01*
X145627351Y-53748219D01*
X145458426Y-53616656D01*
X145306800Y-53593906D01*
X145306800Y-54108200D01*
X144443200Y-54108200D01*
X144443200Y-53593906D01*
X144291574Y-53616656D01*
X144122649Y-53748219D01*
X143982636Y-53910209D01*
X143951680Y-53956578D01*
X143934321Y-54108200D01*
X141530999Y-54108200D01*
X141530999Y-52000000D01*
X143729685Y-52000000D01*
X143751692Y-52223440D01*
X143816867Y-52438293D01*
X143922705Y-52636303D01*
X144065140Y-52809860D01*
X144238697Y-52952295D01*
X144436707Y-53058133D01*
X144651560Y-53123308D01*
X144819005Y-53139800D01*
X144930995Y-53139800D01*
X145098440Y-53123308D01*
X145313293Y-53058133D01*
X145511303Y-52952295D01*
X145684860Y-52809860D01*
X145827295Y-52636303D01*
X145933133Y-52438293D01*
X145998308Y-52223440D01*
X146020315Y-52000000D01*
X146269685Y-52000000D01*
X146291692Y-52223440D01*
X146356867Y-52438293D01*
X146462705Y-52636303D01*
X146605140Y-52809860D01*
X146778697Y-52952295D01*
X146976707Y-53058133D01*
X147191560Y-53123308D01*
X147359005Y-53139800D01*
X147470995Y-53139800D01*
X147638440Y-53123308D01*
X147853293Y-53058133D01*
X148051303Y-52952295D01*
X148224860Y-52809860D01*
X148367295Y-52636303D01*
X148473133Y-52438293D01*
X148538308Y-52223440D01*
X148560315Y-52000000D01*
X148538308Y-51776560D01*
X148473133Y-51561707D01*
X148367295Y-51363697D01*
X148224860Y-51190140D01*
X148051303Y-51047705D01*
X147853293Y-50941867D01*
X147638440Y-50876692D01*
X147470995Y-50860200D01*
X147359005Y-50860200D01*
X147191560Y-50876692D01*
X146976707Y-50941867D01*
X146778697Y-51047705D01*
X146605140Y-51190140D01*
X146462705Y-51363697D01*
X146356867Y-51561707D01*
X146291692Y-51776560D01*
X146269685Y-52000000D01*
X146020315Y-52000000D01*
X145998308Y-51776560D01*
X145933133Y-51561707D01*
X145827295Y-51363697D01*
X145684860Y-51190140D01*
X145511303Y-51047705D01*
X145313293Y-50941867D01*
X145098440Y-50876692D01*
X144930995Y-50860200D01*
X144819005Y-50860200D01*
X144651560Y-50876692D01*
X144436707Y-50941867D01*
X144238697Y-51047705D01*
X144065140Y-51190140D01*
X143922705Y-51363697D01*
X143816867Y-51561707D01*
X143751692Y-51776560D01*
X143729685Y-52000000D01*
X141530999Y-52000000D01*
X141530999Y-48596400D01*
X143733864Y-48596400D01*
X143733864Y-50323600D01*
X143739197Y-50377745D01*
X143754990Y-50429808D01*
X143780637Y-50477791D01*
X143815152Y-50519848D01*
X143857209Y-50554363D01*
X143905192Y-50580010D01*
X143957255Y-50595803D01*
X144011400Y-50601136D01*
X145738600Y-50601136D01*
X145792745Y-50595803D01*
X145844808Y-50580010D01*
X145892791Y-50554363D01*
X145934848Y-50519848D01*
X145969363Y-50477791D01*
X145995010Y-50429808D01*
X146010803Y-50377745D01*
X146016136Y-50323600D01*
X146016136Y-49460000D01*
X146269685Y-49460000D01*
X146291692Y-49683440D01*
X146356867Y-49898293D01*
X146462705Y-50096303D01*
X146605140Y-50269860D01*
X146778697Y-50412295D01*
X146976707Y-50518133D01*
X147191560Y-50583308D01*
X147359005Y-50599800D01*
X147470995Y-50599800D01*
X147638440Y-50583308D01*
X147853293Y-50518133D01*
X148051303Y-50412295D01*
X148224860Y-50269860D01*
X148367295Y-50096303D01*
X148473133Y-49898293D01*
X148538308Y-49683440D01*
X148560315Y-49460000D01*
X148538308Y-49236560D01*
X148473133Y-49021707D01*
X148465606Y-49007624D01*
X157173800Y-49007624D01*
X157173800Y-49692376D01*
X157307388Y-50363970D01*
X157569431Y-50996598D01*
X157949859Y-51565948D01*
X158434052Y-52050141D01*
X159003402Y-52430569D01*
X159636030Y-52692612D01*
X160307624Y-52826200D01*
X160992376Y-52826200D01*
X161663970Y-52692612D01*
X162296598Y-52430569D01*
X162865948Y-52050141D01*
X163350141Y-51565948D01*
X163730569Y-50996598D01*
X163992612Y-50363970D01*
X164126200Y-49692376D01*
X164126200Y-49007624D01*
X163992612Y-48336030D01*
X163730569Y-47703402D01*
X163350141Y-47134052D01*
X162865948Y-46649859D01*
X162296598Y-46269431D01*
X161663970Y-46007388D01*
X160992376Y-45873800D01*
X160307624Y-45873800D01*
X159636030Y-46007388D01*
X159003402Y-46269431D01*
X158434052Y-46649859D01*
X157949859Y-47134052D01*
X157569431Y-47703402D01*
X157307388Y-48336030D01*
X157173800Y-49007624D01*
X148465606Y-49007624D01*
X148367295Y-48823697D01*
X148224860Y-48650140D01*
X148051303Y-48507705D01*
X147853293Y-48401867D01*
X147638440Y-48336692D01*
X147470995Y-48320200D01*
X147359005Y-48320200D01*
X147191560Y-48336692D01*
X146976707Y-48401867D01*
X146778697Y-48507705D01*
X146605140Y-48650140D01*
X146462705Y-48823697D01*
X146356867Y-49021707D01*
X146291692Y-49236560D01*
X146269685Y-49460000D01*
X146016136Y-49460000D01*
X146016136Y-48596400D01*
X146010803Y-48542255D01*
X145995010Y-48490192D01*
X145969363Y-48442209D01*
X145934848Y-48400152D01*
X145892791Y-48365637D01*
X145844808Y-48339990D01*
X145792745Y-48324197D01*
X145738600Y-48318864D01*
X144011400Y-48318864D01*
X143957255Y-48324197D01*
X143905192Y-48339990D01*
X143857209Y-48365637D01*
X143815152Y-48400152D01*
X143780637Y-48442209D01*
X143754990Y-48490192D01*
X143739197Y-48542255D01*
X143733864Y-48596400D01*
X141530999Y-48596400D01*
X141531000Y-44868639D01*
X141544582Y-44730124D01*
X141579396Y-44614812D01*
X141635942Y-44508463D01*
X141712075Y-44415115D01*
X141804878Y-44338341D01*
X141910837Y-44281049D01*
X142025898Y-44245432D01*
X142163217Y-44230999D01*
X165131361Y-44230999D01*
X165269876Y-44244581D01*
X165269876Y-44244581D01*
G37*
X165269876Y-44244581D02*
X165385186Y-44279395D01*
X165491539Y-44335944D01*
X165584883Y-44412074D01*
X165661658Y-44504879D01*
X165718950Y-44610838D01*
X165754567Y-44725898D01*
X165769000Y-44863217D01*
X165769002Y-70208459D01*
X165770066Y-70219267D01*
X165834781Y-71351202D01*
X165837517Y-71373903D01*
X165840116Y-71396559D01*
X166061298Y-72632738D01*
X166072665Y-72679214D01*
X166072669Y-72679224D01*
X166447034Y-73877910D01*
X166447038Y-73877925D01*
X166464142Y-73922610D01*
X166937329Y-74958800D01*
X166418119Y-74958800D01*
X166322600Y-74939800D01*
X166189400Y-74939800D01*
X166093881Y-74958800D01*
X165964491Y-74958800D01*
X166019239Y-74904052D01*
X166093241Y-74793301D01*
X166144214Y-74670240D01*
X166170200Y-74539600D01*
X166170200Y-74406400D01*
X166144214Y-74275760D01*
X166093241Y-74152699D01*
X166019239Y-74041948D01*
X165925052Y-73947761D01*
X165814301Y-73873759D01*
X165691240Y-73822786D01*
X165560600Y-73796800D01*
X165427400Y-73796800D01*
X165296760Y-73822786D01*
X165173699Y-73873759D01*
X165062948Y-73947761D01*
X164968761Y-74041948D01*
X164894759Y-74152699D01*
X164843786Y-74275760D01*
X164817800Y-74406400D01*
X164817800Y-74539600D01*
X164824335Y-74572455D01*
X164818990Y-74577800D01*
X158041011Y-74577800D01*
X150470835Y-67007624D01*
X157173800Y-67007624D01*
X157173800Y-67692376D01*
X157307388Y-68363970D01*
X157569431Y-68996598D01*
X157949859Y-69565948D01*
X158434052Y-70050141D01*
X159003402Y-70430569D01*
X159636030Y-70692612D01*
X160307624Y-70826200D01*
X160992376Y-70826200D01*
X161663970Y-70692612D01*
X162296598Y-70430569D01*
X162865948Y-70050141D01*
X163350141Y-69565948D01*
X163730569Y-68996598D01*
X163992612Y-68363970D01*
X164126200Y-67692376D01*
X164126200Y-67007624D01*
X163992612Y-66336030D01*
X163730569Y-65703402D01*
X163350141Y-65134052D01*
X162865948Y-64649859D01*
X162296598Y-64269431D01*
X161663970Y-64007388D01*
X160992376Y-63873800D01*
X160307624Y-63873800D01*
X159636030Y-64007388D01*
X159003402Y-64269431D01*
X158434052Y-64649859D01*
X157949859Y-65134052D01*
X157569431Y-65703402D01*
X157307388Y-66336030D01*
X157173800Y-67007624D01*
X150470835Y-67007624D01*
X149514200Y-66050990D01*
X149514200Y-65194473D01*
X149516149Y-65174685D01*
X149514200Y-65154897D01*
X149514200Y-65154888D01*
X149508365Y-65095645D01*
X149485310Y-65019642D01*
X149447870Y-64949597D01*
X149397484Y-64888202D01*
X149382110Y-64875585D01*
X148935421Y-64428897D01*
X148922798Y-64413516D01*
X148861403Y-64363130D01*
X148791358Y-64325690D01*
X148715355Y-64302635D01*
X148656112Y-64296800D01*
X148656105Y-64296800D01*
X148636314Y-64294851D01*
X148616523Y-64296800D01*
X148483778Y-64296800D01*
X148473133Y-64261707D01*
X148367295Y-64063697D01*
X148224860Y-63890140D01*
X148051303Y-63747705D01*
X147853293Y-63641867D01*
X147638440Y-63576692D01*
X147470995Y-63560200D01*
X147359005Y-63560200D01*
X147191560Y-63576692D01*
X146976707Y-63641867D01*
X146778697Y-63747705D01*
X146638428Y-63862822D01*
X146584091Y-63808485D01*
X146516333Y-63720181D01*
X146480728Y-63634223D01*
X146466200Y-63523872D01*
X146466200Y-62800562D01*
X146605140Y-62969860D01*
X146778697Y-63112295D01*
X146976707Y-63218133D01*
X147191560Y-63283308D01*
X147359005Y-63299800D01*
X147470995Y-63299800D01*
X147638440Y-63283308D01*
X147853293Y-63218133D01*
X148051303Y-63112295D01*
X148224860Y-62969860D01*
X148367295Y-62796303D01*
X148424008Y-62690200D01*
X156316352Y-62690200D01*
X156410699Y-62753241D01*
X156533760Y-62804214D01*
X156664400Y-62830200D01*
X156797600Y-62830200D01*
X156928240Y-62804214D01*
X157051301Y-62753241D01*
X157162052Y-62679239D01*
X157256239Y-62585052D01*
X157330241Y-62474301D01*
X157381214Y-62351240D01*
X157407200Y-62220600D01*
X157407200Y-62087400D01*
X157381214Y-61956760D01*
X157330241Y-61833699D01*
X157256239Y-61722948D01*
X157162052Y-61628761D01*
X157051301Y-61554759D01*
X156928240Y-61503786D01*
X156797600Y-61477800D01*
X156664400Y-61477800D01*
X156533760Y-61503786D01*
X156410699Y-61554759D01*
X156299948Y-61628761D01*
X156298909Y-61629800D01*
X148424008Y-61629800D01*
X148367295Y-61523697D01*
X148224860Y-61350140D01*
X148051303Y-61207705D01*
X147853293Y-61101867D01*
X147638440Y-61036692D01*
X147470995Y-61020200D01*
X147359005Y-61020200D01*
X147191560Y-61036692D01*
X146976707Y-61101867D01*
X146778697Y-61207705D01*
X146605140Y-61350140D01*
X146466200Y-61519438D01*
X146466200Y-61519000D01*
X146463837Y-61482949D01*
X146442200Y-61318599D01*
X146423538Y-61248953D01*
X146360101Y-61095803D01*
X146324051Y-61033361D01*
X146223138Y-60901848D01*
X146172152Y-60850862D01*
X146040639Y-60749949D01*
X145978197Y-60713899D01*
X145825047Y-60650462D01*
X145755401Y-60631800D01*
X145591051Y-60610163D01*
X145555000Y-60607800D01*
X145306802Y-60607800D01*
X145306802Y-60566094D01*
X145458426Y-60543344D01*
X145627351Y-60411781D01*
X145767364Y-60249791D01*
X145798320Y-60203422D01*
X145815679Y-60051800D01*
X145306800Y-60051800D01*
X145306800Y-60071800D01*
X144443200Y-60071800D01*
X144443200Y-60051800D01*
X143934321Y-60051800D01*
X143951680Y-60203422D01*
X143982636Y-60249791D01*
X144122649Y-60411781D01*
X144291574Y-60543344D01*
X144443198Y-60566094D01*
X144443198Y-60607800D01*
X141530999Y-60607800D01*
X141530999Y-59620000D01*
X146269685Y-59620000D01*
X146291692Y-59843440D01*
X146356867Y-60058293D01*
X146462705Y-60256303D01*
X146605140Y-60429860D01*
X146778697Y-60572295D01*
X146976707Y-60678133D01*
X147191560Y-60743308D01*
X147359005Y-60759800D01*
X147470995Y-60759800D01*
X147638440Y-60743308D01*
X147853293Y-60678133D01*
X148051303Y-60572295D01*
X148224860Y-60429860D01*
X148367295Y-60256303D01*
X148424008Y-60150200D01*
X155427352Y-60150200D01*
X155521699Y-60213241D01*
X155644760Y-60264214D01*
X155775400Y-60290200D01*
X155908600Y-60290200D01*
X156039240Y-60264214D01*
X156162301Y-60213241D01*
X156273052Y-60139239D01*
X156367239Y-60045052D01*
X156441241Y-59934301D01*
X156492214Y-59811240D01*
X156518200Y-59680600D01*
X156518200Y-59547400D01*
X156492214Y-59416760D01*
X156441241Y-59293699D01*
X156367239Y-59182948D01*
X156273052Y-59088761D01*
X156162301Y-59014759D01*
X156039240Y-58963786D01*
X155908600Y-58937800D01*
X155775400Y-58937800D01*
X155644760Y-58963786D01*
X155521699Y-59014759D01*
X155410948Y-59088761D01*
X155409909Y-59089800D01*
X148424008Y-59089800D01*
X148367295Y-58983697D01*
X148224860Y-58810140D01*
X148051303Y-58667705D01*
X147853293Y-58561867D01*
X147638440Y-58496692D01*
X147470995Y-58480200D01*
X147359005Y-58480200D01*
X147191560Y-58496692D01*
X146976707Y-58561867D01*
X146778697Y-58667705D01*
X146605140Y-58810140D01*
X146462705Y-58983697D01*
X146356867Y-59181707D01*
X146291692Y-59396560D01*
X146269685Y-59620000D01*
X141530999Y-59620000D01*
X141530999Y-59188200D01*
X143934321Y-59188200D01*
X144443200Y-59188200D01*
X145306800Y-59188200D01*
X145815679Y-59188200D01*
X145798320Y-59036578D01*
X145767364Y-58990209D01*
X145627351Y-58828219D01*
X145458426Y-58696656D01*
X145306800Y-58673906D01*
X145306800Y-59188200D01*
X144443200Y-59188200D01*
X144443200Y-58673906D01*
X144291574Y-58696656D01*
X144122649Y-58828219D01*
X143982636Y-58990209D01*
X143951680Y-59036578D01*
X143934321Y-59188200D01*
X141530999Y-59188200D01*
X141530999Y-57511800D01*
X143934321Y-57511800D01*
X143951680Y-57663422D01*
X143982636Y-57709791D01*
X144122649Y-57871781D01*
X144291574Y-58003344D01*
X144443200Y-58026094D01*
X144443200Y-57511800D01*
X145306800Y-57511800D01*
X145306800Y-58026094D01*
X145458426Y-58003344D01*
X145627351Y-57871781D01*
X145767364Y-57709791D01*
X145798320Y-57663422D01*
X145815679Y-57511800D01*
X145306800Y-57511800D01*
X144443200Y-57511800D01*
X143934321Y-57511800D01*
X141530999Y-57511800D01*
X141530999Y-57080000D01*
X146269685Y-57080000D01*
X146291692Y-57303440D01*
X146356867Y-57518293D01*
X146462705Y-57716303D01*
X146605140Y-57889860D01*
X146778697Y-58032295D01*
X146976707Y-58138133D01*
X147191560Y-58203308D01*
X147359005Y-58219800D01*
X147470995Y-58219800D01*
X147638440Y-58203308D01*
X147853293Y-58138133D01*
X148051303Y-58032295D01*
X148224860Y-57889860D01*
X148367295Y-57716303D01*
X148424008Y-57610200D01*
X154538352Y-57610200D01*
X154632699Y-57673241D01*
X154755760Y-57724214D01*
X154886400Y-57750200D01*
X155019600Y-57750200D01*
X155150240Y-57724214D01*
X155273301Y-57673241D01*
X155384052Y-57599239D01*
X155478239Y-57505052D01*
X155552241Y-57394301D01*
X155603214Y-57271240D01*
X155629200Y-57140600D01*
X155629200Y-57007400D01*
X155603214Y-56876760D01*
X155552241Y-56753699D01*
X155478239Y-56642948D01*
X155384052Y-56548761D01*
X155273301Y-56474759D01*
X155150240Y-56423786D01*
X155019600Y-56397800D01*
X154886400Y-56397800D01*
X154755760Y-56423786D01*
X154632699Y-56474759D01*
X154521948Y-56548761D01*
X154520909Y-56549800D01*
X148424008Y-56549800D01*
X148367295Y-56443697D01*
X148224860Y-56270140D01*
X148051303Y-56127705D01*
X147853293Y-56021867D01*
X147638440Y-55956692D01*
X147470995Y-55940200D01*
X147359005Y-55940200D01*
X147191560Y-55956692D01*
X146976707Y-56021867D01*
X146778697Y-56127705D01*
X146605140Y-56270140D01*
X146462705Y-56443697D01*
X146356867Y-56641707D01*
X146291692Y-56856560D01*
X146269685Y-57080000D01*
X141530999Y-57080000D01*
X141530999Y-56648200D01*
X143934321Y-56648200D01*
X144443200Y-56648200D01*
X145306800Y-56648200D01*
X145815679Y-56648200D01*
X145798320Y-56496578D01*
X145767364Y-56450209D01*
X145627351Y-56288219D01*
X145458426Y-56156656D01*
X145306800Y-56133906D01*
X145306800Y-56648200D01*
X144443200Y-56648200D01*
X144443200Y-56133906D01*
X144291574Y-56156656D01*
X144122649Y-56288219D01*
X143982636Y-56450209D01*
X143951680Y-56496578D01*
X143934321Y-56648200D01*
X141530999Y-56648200D01*
X141530999Y-54971800D01*
X143934321Y-54971800D01*
X143951680Y-55123422D01*
X143982636Y-55169791D01*
X144122649Y-55331781D01*
X144291574Y-55463344D01*
X144443200Y-55486094D01*
X144443200Y-54971800D01*
X145306800Y-54971800D01*
X145306800Y-55486094D01*
X145458426Y-55463344D01*
X145627351Y-55331781D01*
X145767364Y-55169791D01*
X145798320Y-55123422D01*
X145815679Y-54971800D01*
X145306800Y-54971800D01*
X144443200Y-54971800D01*
X143934321Y-54971800D01*
X141530999Y-54971800D01*
X141530999Y-54540000D01*
X146269685Y-54540000D01*
X146291692Y-54763440D01*
X146356867Y-54978293D01*
X146462705Y-55176303D01*
X146605140Y-55349860D01*
X146778697Y-55492295D01*
X146976707Y-55598133D01*
X147191560Y-55663308D01*
X147359005Y-55679800D01*
X147470995Y-55679800D01*
X147638440Y-55663308D01*
X147853293Y-55598133D01*
X148051303Y-55492295D01*
X148224860Y-55349860D01*
X148367295Y-55176303D01*
X148424008Y-55070200D01*
X153649352Y-55070200D01*
X153743699Y-55133241D01*
X153866760Y-55184214D01*
X153997400Y-55210200D01*
X154130600Y-55210200D01*
X154261240Y-55184214D01*
X154384301Y-55133241D01*
X154495052Y-55059239D01*
X154589239Y-54965052D01*
X154663241Y-54854301D01*
X154714214Y-54731240D01*
X154740200Y-54600600D01*
X154740200Y-54467400D01*
X154714214Y-54336760D01*
X154663241Y-54213699D01*
X154589239Y-54102948D01*
X154495052Y-54008761D01*
X154384301Y-53934759D01*
X154261240Y-53883786D01*
X154130600Y-53857800D01*
X153997400Y-53857800D01*
X153866760Y-53883786D01*
X153743699Y-53934759D01*
X153632948Y-54008761D01*
X153631909Y-54009800D01*
X148424008Y-54009800D01*
X148367295Y-53903697D01*
X148224860Y-53730140D01*
X148051303Y-53587705D01*
X147853293Y-53481867D01*
X147638440Y-53416692D01*
X147470995Y-53400200D01*
X147359005Y-53400200D01*
X147191560Y-53416692D01*
X146976707Y-53481867D01*
X146778697Y-53587705D01*
X146605140Y-53730140D01*
X146462705Y-53903697D01*
X146356867Y-54101707D01*
X146291692Y-54316560D01*
X146269685Y-54540000D01*
X141530999Y-54540000D01*
X141530999Y-54108200D01*
X143934321Y-54108200D01*
X144443200Y-54108200D01*
X145306800Y-54108200D01*
X145815679Y-54108200D01*
X145798320Y-53956578D01*
X145767364Y-53910209D01*
X145627351Y-53748219D01*
X145458426Y-53616656D01*
X145306800Y-53593906D01*
X145306800Y-54108200D01*
X144443200Y-54108200D01*
X144443200Y-53593906D01*
X144291574Y-53616656D01*
X144122649Y-53748219D01*
X143982636Y-53910209D01*
X143951680Y-53956578D01*
X143934321Y-54108200D01*
X141530999Y-54108200D01*
X141530999Y-52000000D01*
X143729685Y-52000000D01*
X143751692Y-52223440D01*
X143816867Y-52438293D01*
X143922705Y-52636303D01*
X144065140Y-52809860D01*
X144238697Y-52952295D01*
X144436707Y-53058133D01*
X144651560Y-53123308D01*
X144819005Y-53139800D01*
X144930995Y-53139800D01*
X145098440Y-53123308D01*
X145313293Y-53058133D01*
X145511303Y-52952295D01*
X145684860Y-52809860D01*
X145827295Y-52636303D01*
X145933133Y-52438293D01*
X145998308Y-52223440D01*
X146020315Y-52000000D01*
X146269685Y-52000000D01*
X146291692Y-52223440D01*
X146356867Y-52438293D01*
X146462705Y-52636303D01*
X146605140Y-52809860D01*
X146778697Y-52952295D01*
X146976707Y-53058133D01*
X147191560Y-53123308D01*
X147359005Y-53139800D01*
X147470995Y-53139800D01*
X147638440Y-53123308D01*
X147853293Y-53058133D01*
X148051303Y-52952295D01*
X148224860Y-52809860D01*
X148367295Y-52636303D01*
X148473133Y-52438293D01*
X148538308Y-52223440D01*
X148560315Y-52000000D01*
X148538308Y-51776560D01*
X148473133Y-51561707D01*
X148367295Y-51363697D01*
X148224860Y-51190140D01*
X148051303Y-51047705D01*
X147853293Y-50941867D01*
X147638440Y-50876692D01*
X147470995Y-50860200D01*
X147359005Y-50860200D01*
X147191560Y-50876692D01*
X146976707Y-50941867D01*
X146778697Y-51047705D01*
X146605140Y-51190140D01*
X146462705Y-51363697D01*
X146356867Y-51561707D01*
X146291692Y-51776560D01*
X146269685Y-52000000D01*
X146020315Y-52000000D01*
X145998308Y-51776560D01*
X145933133Y-51561707D01*
X145827295Y-51363697D01*
X145684860Y-51190140D01*
X145511303Y-51047705D01*
X145313293Y-50941867D01*
X145098440Y-50876692D01*
X144930995Y-50860200D01*
X144819005Y-50860200D01*
X144651560Y-50876692D01*
X144436707Y-50941867D01*
X144238697Y-51047705D01*
X144065140Y-51190140D01*
X143922705Y-51363697D01*
X143816867Y-51561707D01*
X143751692Y-51776560D01*
X143729685Y-52000000D01*
X141530999Y-52000000D01*
X141530999Y-48596400D01*
X143733864Y-48596400D01*
X143733864Y-50323600D01*
X143739197Y-50377745D01*
X143754990Y-50429808D01*
X143780637Y-50477791D01*
X143815152Y-50519848D01*
X143857209Y-50554363D01*
X143905192Y-50580010D01*
X143957255Y-50595803D01*
X144011400Y-50601136D01*
X145738600Y-50601136D01*
X145792745Y-50595803D01*
X145844808Y-50580010D01*
X145892791Y-50554363D01*
X145934848Y-50519848D01*
X145969363Y-50477791D01*
X145995010Y-50429808D01*
X146010803Y-50377745D01*
X146016136Y-50323600D01*
X146016136Y-49460000D01*
X146269685Y-49460000D01*
X146291692Y-49683440D01*
X146356867Y-49898293D01*
X146462705Y-50096303D01*
X146605140Y-50269860D01*
X146778697Y-50412295D01*
X146976707Y-50518133D01*
X147191560Y-50583308D01*
X147359005Y-50599800D01*
X147470995Y-50599800D01*
X147638440Y-50583308D01*
X147853293Y-50518133D01*
X148051303Y-50412295D01*
X148224860Y-50269860D01*
X148367295Y-50096303D01*
X148473133Y-49898293D01*
X148538308Y-49683440D01*
X148560315Y-49460000D01*
X148538308Y-49236560D01*
X148473133Y-49021707D01*
X148465606Y-49007624D01*
X157173800Y-49007624D01*
X157173800Y-49692376D01*
X157307388Y-50363970D01*
X157569431Y-50996598D01*
X157949859Y-51565948D01*
X158434052Y-52050141D01*
X159003402Y-52430569D01*
X159636030Y-52692612D01*
X160307624Y-52826200D01*
X160992376Y-52826200D01*
X161663970Y-52692612D01*
X162296598Y-52430569D01*
X162865948Y-52050141D01*
X163350141Y-51565948D01*
X163730569Y-50996598D01*
X163992612Y-50363970D01*
X164126200Y-49692376D01*
X164126200Y-49007624D01*
X163992612Y-48336030D01*
X163730569Y-47703402D01*
X163350141Y-47134052D01*
X162865948Y-46649859D01*
X162296598Y-46269431D01*
X161663970Y-46007388D01*
X160992376Y-45873800D01*
X160307624Y-45873800D01*
X159636030Y-46007388D01*
X159003402Y-46269431D01*
X158434052Y-46649859D01*
X157949859Y-47134052D01*
X157569431Y-47703402D01*
X157307388Y-48336030D01*
X157173800Y-49007624D01*
X148465606Y-49007624D01*
X148367295Y-48823697D01*
X148224860Y-48650140D01*
X148051303Y-48507705D01*
X147853293Y-48401867D01*
X147638440Y-48336692D01*
X147470995Y-48320200D01*
X147359005Y-48320200D01*
X147191560Y-48336692D01*
X146976707Y-48401867D01*
X146778697Y-48507705D01*
X146605140Y-48650140D01*
X146462705Y-48823697D01*
X146356867Y-49021707D01*
X146291692Y-49236560D01*
X146269685Y-49460000D01*
X146016136Y-49460000D01*
X146016136Y-48596400D01*
X146010803Y-48542255D01*
X145995010Y-48490192D01*
X145969363Y-48442209D01*
X145934848Y-48400152D01*
X145892791Y-48365637D01*
X145844808Y-48339990D01*
X145792745Y-48324197D01*
X145738600Y-48318864D01*
X144011400Y-48318864D01*
X143957255Y-48324197D01*
X143905192Y-48339990D01*
X143857209Y-48365637D01*
X143815152Y-48400152D01*
X143780637Y-48442209D01*
X143754990Y-48490192D01*
X143739197Y-48542255D01*
X143733864Y-48596400D01*
X141530999Y-48596400D01*
X141531000Y-44868639D01*
X141544582Y-44730124D01*
X141579396Y-44614812D01*
X141635942Y-44508463D01*
X141712075Y-44415115D01*
X141804878Y-44338341D01*
X141910837Y-44281049D01*
X142025898Y-44245432D01*
X142163217Y-44230999D01*
X165131361Y-44230999D01*
X165269876Y-44244581D01*
M02*
