M48
; DRILL file {KiCad (5.1.4)-1} date 3/27/2020 1:26:34 PM
; FORMAT={-:-/ absolute / inch / decimal}
; #@! TF.CreationDate,2020-03-27T13:26:34-04:00
; #@! TF.GenerationSoftware,Kicad,Pcbnew,(5.1.4)-1
; #@! TF.FileFunction,Plated,1,2,PTH
FMAT,2
INCH
T1C0.0157
T2C0.1260
T3C0.2087
%
G90
G05
T1
X2.784Y-2.3328
X3.309Y-1.7178
X5.254Y-1.8028
X5.254Y-1.8778
X5.254Y-1.9528
X7.249Y-3.9228
X7.324Y-3.9218
X7.399Y-3.9228
X7.424Y-2.5428
X7.424Y-2.6128
X7.569Y-2.8028
X7.669Y-2.3378
X7.674Y-4.0378
X7.849Y-2.4228
X7.919Y-2.4228
X7.944Y-2.5228
X7.944Y-2.5878
X7.984Y-2.1528
X8.219Y-3.1878
X8.519Y-2.9528
X8.574Y-3.2178
T2
X3.0413Y-1.8701
X6.7028Y-4.0354
X2.7067Y-4.0551
X3.0413Y-4.0354
X8.7106Y-4.0551
X2.7067Y-1.5945
X6.7028Y-1.8701
X7.0222Y-1.5945
X8.7106Y-2.0866
T3
X3.2972Y-4.6457
X5.7087Y-4.6457
X8.1201Y-4.6457
X2.1161Y-3.7598
X2.1161Y-1.9882
T0
M30
