G04 #@! TF.GenerationSoftware,KiCad,Pcbnew,(5.1.4)-1*
G04 #@! TF.CreationDate,2020-03-27T13:26:32-04:00*
G04 #@! TF.ProjectId,stepUP_lcd,73746570-5550-45f6-9c63-642e6b696361,rev?*
G04 #@! TF.SameCoordinates,Original*
G04 #@! TF.FileFunction,Copper,L1,Top*
G04 #@! TF.FilePolarity,Positive*
%FSLAX46Y46*%
G04 Gerber Fmt 4.6, Leading zero omitted, Abs format (unit mm)*
G04 Created by KiCad (PCBNEW (5.1.4)-1) date 2020-03-27 13:26:32*
%MOMM*%
%LPD*%
G04 APERTURE LIST*
%ADD10C,6.400000*%
%ADD11C,10.600000*%
%ADD12C,0.800000*%
%ADD13C,0.250000*%
%ADD14C,0.152400*%
G04 APERTURE END LIST*
D10*
X170250000Y-102500000D03*
X170250000Y-47500000D03*
X77250000Y-47500000D03*
X77250000Y-102500000D03*
X221250000Y-103000000D03*
X221250000Y-53000000D03*
X178363248Y-40500000D03*
X68750000Y-40500000D03*
X68750000Y-103000000D03*
D11*
X206250000Y-118000000D03*
X145000000Y-118000000D03*
X83750000Y-118000000D03*
X53750000Y-95500000D03*
X53750000Y-50500000D03*
D12*
X192253000Y-71190000D03*
X194920000Y-102559000D03*
X208763000Y-80969000D03*
X217780000Y-81731000D03*
X202794000Y-54680000D03*
X194793000Y-59379000D03*
X216383000Y-75000000D03*
X70714000Y-59252000D03*
X84049000Y-43631000D03*
X201778000Y-65729000D03*
X188570000Y-66364000D03*
X201778000Y-64078000D03*
X188570000Y-64586000D03*
X201143000Y-61538000D03*
X199365000Y-61538000D03*
X133452000Y-45790000D03*
X187935000Y-99638000D03*
X133452000Y-47695000D03*
X186030000Y-99614694D03*
X133452000Y-49600000D03*
X184125000Y-99638000D03*
D13*
X201270000Y-65221000D02*
X201778000Y-65729000D01*
X189147315Y-65221000D02*
X201270000Y-65221000D01*
X188570000Y-65798315D02*
X189147315Y-65221000D01*
X188570000Y-66364000D02*
X188570000Y-65798315D01*
X201778000Y-64078000D02*
X201270000Y-64586000D01*
X201270000Y-64586000D02*
X188697000Y-64586000D01*
X201143000Y-61538000D02*
X199365000Y-61538000D01*
X186538000Y-94304000D02*
X186538000Y-98241000D01*
X185141000Y-92907000D02*
X186538000Y-94304000D01*
X186538000Y-98241000D02*
X187935000Y-99638000D01*
X174727000Y-92907000D02*
X185141000Y-92907000D01*
X174092000Y-92272000D02*
X174727000Y-92907000D01*
X133452000Y-45790000D02*
X137135000Y-45790000D01*
X137643000Y-46298000D02*
X137643000Y-52521000D01*
X137643000Y-52521000D02*
X138405000Y-53283000D01*
X137135000Y-45790000D02*
X137643000Y-46298000D01*
X138405000Y-53283000D02*
X172695000Y-53283000D01*
X174092000Y-54680000D02*
X174092000Y-92272000D01*
X172695000Y-53283000D02*
X174092000Y-54680000D01*
X186030000Y-94558000D02*
X186030000Y-99614694D01*
X174473000Y-93415000D02*
X184887000Y-93415000D01*
X184887000Y-93415000D02*
X186030000Y-94558000D01*
X173584000Y-92526000D02*
X174473000Y-93415000D01*
X173584000Y-54934000D02*
X173584000Y-92526000D01*
X136627000Y-47695000D02*
X137135000Y-48203000D01*
X133452000Y-47695000D02*
X136627000Y-47695000D01*
X137135000Y-48203000D02*
X137135000Y-52775000D01*
X137135000Y-52775000D02*
X138151000Y-53791000D01*
X138151000Y-53791000D02*
X172441000Y-53791000D01*
X172441000Y-53791000D02*
X173584000Y-54934000D01*
X185522000Y-94812000D02*
X185522000Y-98241000D01*
X184633000Y-93923000D02*
X185522000Y-94812000D01*
X174219000Y-93923000D02*
X184633000Y-93923000D01*
X173076000Y-55188000D02*
X173076000Y-92780000D01*
X136119000Y-49600000D02*
X136627000Y-50108000D01*
X133452000Y-49600000D02*
X136119000Y-49600000D01*
X136627000Y-53029000D02*
X137897000Y-54299000D01*
X185522000Y-98241000D02*
X184125000Y-99638000D01*
X173076000Y-92780000D02*
X174219000Y-93923000D01*
X137897000Y-54299000D02*
X172187000Y-54299000D01*
X136627000Y-50108000D02*
X136627000Y-53029000D01*
X172187000Y-54299000D02*
X173076000Y-55188000D01*
D14*
G36*
X178341759Y-35982600D02*
G01*
X179162871Y-36055882D01*
X179937215Y-36267719D01*
X180661815Y-36613335D01*
X181313758Y-37081804D01*
X181874210Y-37660145D01*
X182284920Y-38257733D01*
X186617412Y-45761830D01*
X186628453Y-45777238D01*
X187070177Y-46419949D01*
X187078241Y-46429697D01*
X187085027Y-46440390D01*
X187121332Y-46482449D01*
X187739959Y-47120822D01*
X187751451Y-47130742D01*
X187761730Y-47141920D01*
X187804910Y-47176886D01*
X188526805Y-47695621D01*
X188539878Y-47703352D01*
X188551969Y-47712530D01*
X188600658Y-47739297D01*
X189403005Y-48121997D01*
X189417236Y-48127290D01*
X189430765Y-48134183D01*
X189483396Y-48151894D01*
X189483424Y-48151905D01*
X189483435Y-48151907D01*
X190340860Y-48386472D01*
X190355803Y-48389161D01*
X190370340Y-48393550D01*
X190425268Y-48401661D01*
X190425304Y-48401667D01*
X190425316Y-48401667D01*
X191308614Y-48480499D01*
X191329922Y-48482598D01*
X221228512Y-48482600D01*
X222049624Y-48555882D01*
X222823968Y-48767719D01*
X223548568Y-49113336D01*
X224200511Y-49581805D01*
X224759191Y-50158317D01*
X225206946Y-50824648D01*
X225529632Y-51559745D01*
X225717934Y-52344080D01*
X225767402Y-53017711D01*
X225767400Y-117482934D01*
X225691207Y-118559040D01*
X225467750Y-119596954D01*
X225100282Y-120593019D01*
X224596129Y-121527379D01*
X223965357Y-122381376D01*
X223220544Y-123137982D01*
X222376565Y-123782087D01*
X221450239Y-124300854D01*
X220460061Y-124683925D01*
X219425790Y-124923657D01*
X218352906Y-125016578D01*
X218248118Y-125017401D01*
X67046136Y-125017403D01*
X65970016Y-124941209D01*
X64932102Y-124717752D01*
X63936036Y-124350284D01*
X63001677Y-123846131D01*
X62147679Y-123215358D01*
X61391078Y-122470550D01*
X60740813Y-121618500D01*
X60515309Y-121252664D01*
X58317228Y-117445474D01*
X78119800Y-117445474D01*
X78119800Y-118554526D01*
X78336166Y-119642269D01*
X78760582Y-120666900D01*
X79376738Y-121589043D01*
X80160957Y-122373262D01*
X81083100Y-122989418D01*
X82107731Y-123413834D01*
X83195474Y-123630200D01*
X84304526Y-123630200D01*
X85392269Y-123413834D01*
X86416900Y-122989418D01*
X87339043Y-122373262D01*
X88123262Y-121589043D01*
X88739418Y-120666900D01*
X89163834Y-119642269D01*
X89380200Y-118554526D01*
X89380200Y-117445474D01*
X139369800Y-117445474D01*
X139369800Y-118554526D01*
X139586166Y-119642269D01*
X140010582Y-120666900D01*
X140626738Y-121589043D01*
X141410957Y-122373262D01*
X142333100Y-122989418D01*
X143357731Y-123413834D01*
X144445474Y-123630200D01*
X145554526Y-123630200D01*
X146642269Y-123413834D01*
X147666900Y-122989418D01*
X148589043Y-122373262D01*
X149373262Y-121589043D01*
X149989418Y-120666900D01*
X150413834Y-119642269D01*
X150630200Y-118554526D01*
X150630200Y-117445474D01*
X200619800Y-117445474D01*
X200619800Y-118554526D01*
X200836166Y-119642269D01*
X201260582Y-120666900D01*
X201876738Y-121589043D01*
X202660957Y-122373262D01*
X203583100Y-122989418D01*
X204607731Y-123413834D01*
X205695474Y-123630200D01*
X206804526Y-123630200D01*
X207892269Y-123413834D01*
X208916900Y-122989418D01*
X209839043Y-122373262D01*
X210623262Y-121589043D01*
X211239418Y-120666900D01*
X211663834Y-119642269D01*
X211880200Y-118554526D01*
X211880200Y-117445474D01*
X211663834Y-116357731D01*
X211239418Y-115333100D01*
X210623262Y-114410957D01*
X209839043Y-113626738D01*
X208916900Y-113010582D01*
X207892269Y-112586166D01*
X206804526Y-112369800D01*
X205695474Y-112369800D01*
X204607731Y-112586166D01*
X203583100Y-113010582D01*
X202660957Y-113626738D01*
X201876738Y-114410957D01*
X201260582Y-115333100D01*
X200836166Y-116357731D01*
X200619800Y-117445474D01*
X150630200Y-117445474D01*
X150413834Y-116357731D01*
X149989418Y-115333100D01*
X149373262Y-114410957D01*
X148589043Y-113626738D01*
X147666900Y-113010582D01*
X146642269Y-112586166D01*
X145554526Y-112369800D01*
X144445474Y-112369800D01*
X143357731Y-112586166D01*
X142333100Y-113010582D01*
X141410957Y-113626738D01*
X140626738Y-114410957D01*
X140010582Y-115333100D01*
X139586166Y-116357731D01*
X139369800Y-117445474D01*
X89380200Y-117445474D01*
X89163834Y-116357731D01*
X88739418Y-115333100D01*
X88123262Y-114410957D01*
X87339043Y-113626738D01*
X86416900Y-113010582D01*
X85392269Y-112586166D01*
X84304526Y-112369800D01*
X83195474Y-112369800D01*
X82107731Y-112586166D01*
X81083100Y-113010582D01*
X80160957Y-113626738D01*
X79376738Y-114410957D01*
X78760582Y-115333100D01*
X78336166Y-116357731D01*
X78119800Y-117445474D01*
X58317228Y-117445474D01*
X49776389Y-102652306D01*
X65219800Y-102652306D01*
X65219800Y-103347694D01*
X65355464Y-104029721D01*
X65621577Y-104672177D01*
X66007915Y-105250371D01*
X66499629Y-105742085D01*
X67077823Y-106128423D01*
X67720279Y-106394536D01*
X68402306Y-106530200D01*
X69097694Y-106530200D01*
X69779721Y-106394536D01*
X70422177Y-106128423D01*
X71000371Y-105742085D01*
X71492085Y-105250371D01*
X71878423Y-104672177D01*
X72144536Y-104029721D01*
X72280200Y-103347694D01*
X72280200Y-102652306D01*
X72180744Y-102152306D01*
X73719800Y-102152306D01*
X73719800Y-102847694D01*
X73855464Y-103529721D01*
X74121577Y-104172177D01*
X74507915Y-104750371D01*
X74999629Y-105242085D01*
X75577823Y-105628423D01*
X76220279Y-105894536D01*
X76902306Y-106030200D01*
X77597694Y-106030200D01*
X78279721Y-105894536D01*
X78922177Y-105628423D01*
X79500371Y-105242085D01*
X79992085Y-104750371D01*
X80378423Y-104172177D01*
X80644536Y-103529721D01*
X80780200Y-102847694D01*
X80780200Y-102152306D01*
X166719800Y-102152306D01*
X166719800Y-102847694D01*
X166855464Y-103529721D01*
X167121577Y-104172177D01*
X167507915Y-104750371D01*
X167999629Y-105242085D01*
X168577823Y-105628423D01*
X169220279Y-105894536D01*
X169902306Y-106030200D01*
X170597694Y-106030200D01*
X171279721Y-105894536D01*
X171922177Y-105628423D01*
X172500371Y-105242085D01*
X172992085Y-104750371D01*
X173378423Y-104172177D01*
X173644536Y-103529721D01*
X173780200Y-102847694D01*
X173780200Y-102652306D01*
X217719800Y-102652306D01*
X217719800Y-103347694D01*
X217855464Y-104029721D01*
X218121577Y-104672177D01*
X218507915Y-105250371D01*
X218999629Y-105742085D01*
X219577823Y-106128423D01*
X220220279Y-106394536D01*
X220902306Y-106530200D01*
X221597694Y-106530200D01*
X222279721Y-106394536D01*
X222922177Y-106128423D01*
X223500371Y-105742085D01*
X223992085Y-105250371D01*
X224378423Y-104672177D01*
X224644536Y-104029721D01*
X224780200Y-103347694D01*
X224780200Y-102652306D01*
X224644536Y-101970279D01*
X224378423Y-101327823D01*
X223992085Y-100749629D01*
X223500371Y-100257915D01*
X222922177Y-99871577D01*
X222279721Y-99605464D01*
X221597694Y-99469800D01*
X220902306Y-99469800D01*
X220220279Y-99605464D01*
X219577823Y-99871577D01*
X218999629Y-100257915D01*
X218507915Y-100749629D01*
X218121577Y-101327823D01*
X217855464Y-101970279D01*
X217719800Y-102652306D01*
X173780200Y-102652306D01*
X173780200Y-102152306D01*
X173644536Y-101470279D01*
X173378423Y-100827823D01*
X172992085Y-100249629D01*
X172500371Y-99757915D01*
X171922177Y-99371577D01*
X171279721Y-99105464D01*
X170597694Y-98969800D01*
X169902306Y-98969800D01*
X169220279Y-99105464D01*
X168577823Y-99371577D01*
X167999629Y-99757915D01*
X167507915Y-100249629D01*
X167121577Y-100827823D01*
X166855464Y-101470279D01*
X166719800Y-102152306D01*
X80780200Y-102152306D01*
X80644536Y-101470279D01*
X80378423Y-100827823D01*
X79992085Y-100249629D01*
X79500371Y-99757915D01*
X78922177Y-99371577D01*
X78279721Y-99105464D01*
X77597694Y-98969800D01*
X76902306Y-98969800D01*
X76220279Y-99105464D01*
X75577823Y-99371577D01*
X74999629Y-99757915D01*
X74507915Y-100249629D01*
X74121577Y-100827823D01*
X73855464Y-101470279D01*
X73719800Y-102152306D01*
X72180744Y-102152306D01*
X72144536Y-101970279D01*
X71878423Y-101327823D01*
X71492085Y-100749629D01*
X71000371Y-100257915D01*
X70422177Y-99871577D01*
X69779721Y-99605464D01*
X69097694Y-99469800D01*
X68402306Y-99469800D01*
X67720279Y-99605464D01*
X67077823Y-99871577D01*
X66499629Y-100257915D01*
X66007915Y-100749629D01*
X65621577Y-101327823D01*
X65355464Y-101970279D01*
X65219800Y-102652306D01*
X49776389Y-102652306D01*
X47681501Y-99023855D01*
X47231083Y-98094196D01*
X46924876Y-97125976D01*
X46760556Y-96117009D01*
X46732599Y-95489262D01*
X46732599Y-94945474D01*
X48119800Y-94945474D01*
X48119800Y-96054526D01*
X48336166Y-97142269D01*
X48760582Y-98166900D01*
X49376738Y-99089043D01*
X50160957Y-99873262D01*
X51083100Y-100489418D01*
X52107731Y-100913834D01*
X53195474Y-101130200D01*
X54304526Y-101130200D01*
X55392269Y-100913834D01*
X56416900Y-100489418D01*
X57339043Y-99873262D01*
X58123262Y-99089043D01*
X58739418Y-98166900D01*
X59163834Y-97142269D01*
X59380200Y-96054526D01*
X59380200Y-94945474D01*
X59206795Y-94073706D01*
X74667401Y-94073706D01*
X74669454Y-94094551D01*
X74669411Y-94100722D01*
X74670069Y-94107428D01*
X74690470Y-94301525D01*
X74699263Y-94344359D01*
X74707460Y-94387333D01*
X74709408Y-94393784D01*
X74767119Y-94580222D01*
X74784070Y-94620548D01*
X74800456Y-94661103D01*
X74803619Y-94667053D01*
X74896445Y-94838730D01*
X74920915Y-94875007D01*
X74944854Y-94911591D01*
X74949112Y-94916812D01*
X75073516Y-95067191D01*
X75104549Y-95098008D01*
X75135156Y-95129263D01*
X75140348Y-95133558D01*
X75291591Y-95256909D01*
X75328001Y-95281100D01*
X75364114Y-95305827D01*
X75370041Y-95309031D01*
X75542362Y-95400656D01*
X75582774Y-95417313D01*
X75623006Y-95434556D01*
X75629443Y-95436549D01*
X75816279Y-95492958D01*
X75859214Y-95501459D01*
X75901970Y-95510547D01*
X75908671Y-95511252D01*
X76102905Y-95530297D01*
X76102921Y-95530297D01*
X76126293Y-95532599D01*
X171373707Y-95532599D01*
X171394552Y-95530546D01*
X171400722Y-95530589D01*
X171407428Y-95529931D01*
X171601525Y-95509530D01*
X171644363Y-95500736D01*
X171687335Y-95492539D01*
X171693786Y-95490592D01*
X171880224Y-95432880D01*
X171920574Y-95415918D01*
X171961102Y-95399544D01*
X171967051Y-95396381D01*
X172138728Y-95303556D01*
X172175015Y-95279080D01*
X172211592Y-95255145D01*
X172216814Y-95250886D01*
X172367192Y-95126483D01*
X172398027Y-95095431D01*
X172429263Y-95064843D01*
X172433558Y-95059651D01*
X172556908Y-94908409D01*
X172581106Y-94871988D01*
X172605826Y-94835885D01*
X172609031Y-94829958D01*
X172700656Y-94657636D01*
X172717327Y-94617189D01*
X172734555Y-94576993D01*
X172736548Y-94570556D01*
X172792957Y-94383720D01*
X172801458Y-94340785D01*
X172810546Y-94298029D01*
X172811251Y-94291328D01*
X172830296Y-94097094D01*
X172830296Y-94097090D01*
X172832599Y-94073707D01*
X172832599Y-93180348D01*
X173881316Y-94229066D01*
X173895568Y-94246432D01*
X173964881Y-94303316D01*
X174043960Y-94345584D01*
X174129765Y-94371613D01*
X174196643Y-94378200D01*
X174196650Y-94378200D01*
X174218999Y-94380401D01*
X174241348Y-94378200D01*
X184444451Y-94378200D01*
X185066800Y-95000550D01*
X185066801Y-98052449D01*
X184209040Y-98910211D01*
X184196918Y-98907800D01*
X184053082Y-98907800D01*
X183912009Y-98935861D01*
X183779121Y-98990905D01*
X183659525Y-99070817D01*
X183557817Y-99172525D01*
X183477905Y-99292121D01*
X183422861Y-99425009D01*
X183394800Y-99566082D01*
X183394800Y-99709918D01*
X183422861Y-99850991D01*
X183477905Y-99983879D01*
X183557817Y-100103475D01*
X183659525Y-100205183D01*
X183779121Y-100285095D01*
X183912009Y-100340139D01*
X184053082Y-100368200D01*
X184196918Y-100368200D01*
X184337991Y-100340139D01*
X184470879Y-100285095D01*
X184590475Y-100205183D01*
X184692183Y-100103475D01*
X184772095Y-99983879D01*
X184827139Y-99850991D01*
X184855200Y-99709918D01*
X184855200Y-99566082D01*
X184852789Y-99553960D01*
X185574801Y-98831949D01*
X185574801Y-99040645D01*
X185564525Y-99047511D01*
X185462817Y-99149219D01*
X185382905Y-99268815D01*
X185327861Y-99401703D01*
X185299800Y-99542776D01*
X185299800Y-99686612D01*
X185327861Y-99827685D01*
X185382905Y-99960573D01*
X185462817Y-100080169D01*
X185564525Y-100181877D01*
X185684121Y-100261789D01*
X185817009Y-100316833D01*
X185958082Y-100344894D01*
X186101918Y-100344894D01*
X186242991Y-100316833D01*
X186375879Y-100261789D01*
X186495475Y-100181877D01*
X186597183Y-100080169D01*
X186677095Y-99960573D01*
X186732139Y-99827685D01*
X186760200Y-99686612D01*
X186760200Y-99542776D01*
X186732139Y-99401703D01*
X186677095Y-99268815D01*
X186597183Y-99149219D01*
X186495475Y-99047511D01*
X186485200Y-99040645D01*
X186485200Y-98831949D01*
X187207211Y-99553961D01*
X187204800Y-99566082D01*
X187204800Y-99709918D01*
X187232861Y-99850991D01*
X187287905Y-99983879D01*
X187367817Y-100103475D01*
X187469525Y-100205183D01*
X187589121Y-100285095D01*
X187722009Y-100340139D01*
X187863082Y-100368200D01*
X188006918Y-100368200D01*
X188147991Y-100340139D01*
X188280879Y-100285095D01*
X188400475Y-100205183D01*
X188502183Y-100103475D01*
X188582095Y-99983879D01*
X188637139Y-99850991D01*
X188665200Y-99709918D01*
X188665200Y-99566082D01*
X188637139Y-99425009D01*
X188582095Y-99292121D01*
X188502183Y-99172525D01*
X188400475Y-99070817D01*
X188280879Y-98990905D01*
X188147991Y-98935861D01*
X188006918Y-98907800D01*
X187863082Y-98907800D01*
X187850961Y-98910211D01*
X186993200Y-98052451D01*
X186993200Y-94326348D01*
X186995401Y-94303999D01*
X186993200Y-94281650D01*
X186993200Y-94281643D01*
X186986613Y-94214765D01*
X186960584Y-94128960D01*
X186918316Y-94049881D01*
X186861432Y-93980568D01*
X186844067Y-93966317D01*
X185478688Y-92600939D01*
X185464432Y-92583568D01*
X185395119Y-92526684D01*
X185316040Y-92484416D01*
X185230235Y-92458387D01*
X185163357Y-92451800D01*
X185163349Y-92451800D01*
X185141000Y-92449599D01*
X185118651Y-92451800D01*
X174915550Y-92451800D01*
X174547200Y-92083451D01*
X174547200Y-74239036D01*
X192273800Y-74239036D01*
X192273800Y-75760964D01*
X192570713Y-77253649D01*
X193153130Y-78659728D01*
X193998668Y-79925166D01*
X195074834Y-81001332D01*
X196340272Y-81846870D01*
X197746351Y-82429287D01*
X199239036Y-82726200D01*
X200760964Y-82726200D01*
X202253649Y-82429287D01*
X203659728Y-81846870D01*
X204925166Y-81001332D01*
X206001332Y-79925166D01*
X206846870Y-78659728D01*
X207429287Y-77253649D01*
X207726200Y-75760964D01*
X207726200Y-74239036D01*
X207429287Y-72746351D01*
X206846870Y-71340272D01*
X206001332Y-70074834D01*
X204925166Y-68998668D01*
X203659728Y-68153130D01*
X202253649Y-67570713D01*
X200760964Y-67273800D01*
X199239036Y-67273800D01*
X197746351Y-67570713D01*
X196340272Y-68153130D01*
X195074834Y-68998668D01*
X193998668Y-70074834D01*
X193153130Y-71340272D01*
X192570713Y-72746351D01*
X192273800Y-74239036D01*
X174547200Y-74239036D01*
X174547200Y-64514082D01*
X187839800Y-64514082D01*
X187839800Y-64657918D01*
X187867861Y-64798991D01*
X187922905Y-64931879D01*
X188002817Y-65051475D01*
X188104525Y-65153183D01*
X188224121Y-65233095D01*
X188357009Y-65288139D01*
X188423250Y-65301315D01*
X188263934Y-65460632D01*
X188246569Y-65474883D01*
X188189685Y-65544196D01*
X188189559Y-65544432D01*
X188147417Y-65623275D01*
X188121387Y-65709081D01*
X188113326Y-65790937D01*
X188104525Y-65796817D01*
X188002817Y-65898525D01*
X187922905Y-66018121D01*
X187867861Y-66151009D01*
X187839800Y-66292082D01*
X187839800Y-66435918D01*
X187867861Y-66576991D01*
X187922905Y-66709879D01*
X188002817Y-66829475D01*
X188104525Y-66931183D01*
X188224121Y-67011095D01*
X188357009Y-67066139D01*
X188498082Y-67094200D01*
X188641918Y-67094200D01*
X188782991Y-67066139D01*
X188915879Y-67011095D01*
X189035475Y-66931183D01*
X189137183Y-66829475D01*
X189217095Y-66709879D01*
X189272139Y-66576991D01*
X189300200Y-66435918D01*
X189300200Y-66292082D01*
X189272139Y-66151009D01*
X189217095Y-66018121D01*
X189137183Y-65898525D01*
X189125361Y-65886703D01*
X189335866Y-65676200D01*
X201047800Y-65676200D01*
X201047800Y-65800918D01*
X201075861Y-65941991D01*
X201130905Y-66074879D01*
X201210817Y-66194475D01*
X201312525Y-66296183D01*
X201432121Y-66376095D01*
X201565009Y-66431139D01*
X201706082Y-66459200D01*
X201849918Y-66459200D01*
X201990991Y-66431139D01*
X202123879Y-66376095D01*
X202243475Y-66296183D01*
X202345183Y-66194475D01*
X202425095Y-66074879D01*
X202480139Y-65941991D01*
X202508200Y-65800918D01*
X202508200Y-65657082D01*
X202480139Y-65516009D01*
X202425095Y-65383121D01*
X202345183Y-65263525D01*
X202243475Y-65161817D01*
X202123879Y-65081905D01*
X201990991Y-65026861D01*
X201849918Y-64998800D01*
X201706082Y-64998800D01*
X201693960Y-65001211D01*
X201607688Y-64914939D01*
X201598300Y-64903500D01*
X201607688Y-64892061D01*
X201693960Y-64805789D01*
X201706082Y-64808200D01*
X201849918Y-64808200D01*
X201990991Y-64780139D01*
X202123879Y-64725095D01*
X202243475Y-64645183D01*
X202345183Y-64543475D01*
X202425095Y-64423879D01*
X202480139Y-64290991D01*
X202508200Y-64149918D01*
X202508200Y-64006082D01*
X202480139Y-63865009D01*
X202425095Y-63732121D01*
X202345183Y-63612525D01*
X202243475Y-63510817D01*
X202123879Y-63430905D01*
X201990991Y-63375861D01*
X201849918Y-63347800D01*
X201706082Y-63347800D01*
X201565009Y-63375861D01*
X201432121Y-63430905D01*
X201312525Y-63510817D01*
X201210817Y-63612525D01*
X201130905Y-63732121D01*
X201075861Y-63865009D01*
X201047800Y-64006082D01*
X201047800Y-64130800D01*
X189144049Y-64130800D01*
X189137183Y-64120525D01*
X189035475Y-64018817D01*
X188915879Y-63938905D01*
X188782991Y-63883861D01*
X188641918Y-63855800D01*
X188498082Y-63855800D01*
X188357009Y-63883861D01*
X188224121Y-63938905D01*
X188104525Y-64018817D01*
X188002817Y-64120525D01*
X187922905Y-64240121D01*
X187867861Y-64373009D01*
X187839800Y-64514082D01*
X174547200Y-64514082D01*
X174547200Y-61466082D01*
X198634800Y-61466082D01*
X198634800Y-61609918D01*
X198662861Y-61750991D01*
X198717905Y-61883879D01*
X198797817Y-62003475D01*
X198899525Y-62105183D01*
X199019121Y-62185095D01*
X199152009Y-62240139D01*
X199293082Y-62268200D01*
X199436918Y-62268200D01*
X199577991Y-62240139D01*
X199710879Y-62185095D01*
X199830475Y-62105183D01*
X199932183Y-62003475D01*
X199939049Y-61993200D01*
X200568951Y-61993200D01*
X200575817Y-62003475D01*
X200677525Y-62105183D01*
X200797121Y-62185095D01*
X200930009Y-62240139D01*
X201071082Y-62268200D01*
X201214918Y-62268200D01*
X201355991Y-62240139D01*
X201488879Y-62185095D01*
X201608475Y-62105183D01*
X201710183Y-62003475D01*
X201790095Y-61883879D01*
X201845139Y-61750991D01*
X201873200Y-61609918D01*
X201873200Y-61466082D01*
X201845139Y-61325009D01*
X201790095Y-61192121D01*
X201710183Y-61072525D01*
X201608475Y-60970817D01*
X201488879Y-60890905D01*
X201355991Y-60835861D01*
X201214918Y-60807800D01*
X201071082Y-60807800D01*
X200930009Y-60835861D01*
X200797121Y-60890905D01*
X200677525Y-60970817D01*
X200575817Y-61072525D01*
X200568951Y-61082800D01*
X199939049Y-61082800D01*
X199932183Y-61072525D01*
X199830475Y-60970817D01*
X199710879Y-60890905D01*
X199577991Y-60835861D01*
X199436918Y-60807800D01*
X199293082Y-60807800D01*
X199152009Y-60835861D01*
X199019121Y-60890905D01*
X198899525Y-60970817D01*
X198797817Y-61072525D01*
X198717905Y-61192121D01*
X198662861Y-61325009D01*
X198634800Y-61466082D01*
X174547200Y-61466082D01*
X174547200Y-54702348D01*
X174549401Y-54679999D01*
X174547200Y-54657650D01*
X174547200Y-54657643D01*
X174540613Y-54590765D01*
X174514584Y-54504960D01*
X174472316Y-54425881D01*
X174415432Y-54356568D01*
X174398067Y-54342317D01*
X173032688Y-52976939D01*
X173018432Y-52959568D01*
X172949119Y-52902684D01*
X172870040Y-52860416D01*
X172784235Y-52834387D01*
X172717357Y-52827800D01*
X172717349Y-52827800D01*
X172695000Y-52825599D01*
X172672651Y-52827800D01*
X138593550Y-52827800D01*
X138418056Y-52652306D01*
X217719800Y-52652306D01*
X217719800Y-53347694D01*
X217855464Y-54029721D01*
X218121577Y-54672177D01*
X218507915Y-55250371D01*
X218999629Y-55742085D01*
X219577823Y-56128423D01*
X220220279Y-56394536D01*
X220902306Y-56530200D01*
X221597694Y-56530200D01*
X222279721Y-56394536D01*
X222922177Y-56128423D01*
X223500371Y-55742085D01*
X223992085Y-55250371D01*
X224378423Y-54672177D01*
X224644536Y-54029721D01*
X224780200Y-53347694D01*
X224780200Y-52652306D01*
X224644536Y-51970279D01*
X224378423Y-51327823D01*
X223992085Y-50749629D01*
X223500371Y-50257915D01*
X222922177Y-49871577D01*
X222279721Y-49605464D01*
X221597694Y-49469800D01*
X220902306Y-49469800D01*
X220220279Y-49605464D01*
X219577823Y-49871577D01*
X218999629Y-50257915D01*
X218507915Y-50749629D01*
X218121577Y-51327823D01*
X217855464Y-51970279D01*
X217719800Y-52652306D01*
X138418056Y-52652306D01*
X138098200Y-52332451D01*
X138098200Y-47152306D01*
X166719800Y-47152306D01*
X166719800Y-47847694D01*
X166855464Y-48529721D01*
X167121577Y-49172177D01*
X167507915Y-49750371D01*
X167999629Y-50242085D01*
X168577823Y-50628423D01*
X169220279Y-50894536D01*
X169902306Y-51030200D01*
X170597694Y-51030200D01*
X171279721Y-50894536D01*
X171922177Y-50628423D01*
X172500371Y-50242085D01*
X172992085Y-49750371D01*
X173378423Y-49172177D01*
X173644536Y-48529721D01*
X173780200Y-47847694D01*
X173780200Y-47152306D01*
X173644536Y-46470279D01*
X173378423Y-45827823D01*
X172992085Y-45249629D01*
X172500371Y-44757915D01*
X171922177Y-44371577D01*
X171279721Y-44105464D01*
X170597694Y-43969800D01*
X169902306Y-43969800D01*
X169220279Y-44105464D01*
X168577823Y-44371577D01*
X167999629Y-44757915D01*
X167507915Y-45249629D01*
X167121577Y-45827823D01*
X166855464Y-46470279D01*
X166719800Y-47152306D01*
X138098200Y-47152306D01*
X138098200Y-46320346D01*
X138100401Y-46297999D01*
X138098200Y-46275652D01*
X138098200Y-46275643D01*
X138091613Y-46208765D01*
X138065584Y-46122960D01*
X138023316Y-46043881D01*
X137966432Y-45974568D01*
X137949067Y-45960317D01*
X137472688Y-45483939D01*
X137458432Y-45466568D01*
X137389119Y-45409684D01*
X137310040Y-45367416D01*
X137224235Y-45341387D01*
X137157357Y-45334800D01*
X137157349Y-45334800D01*
X137135000Y-45332599D01*
X137112651Y-45334800D01*
X134026049Y-45334800D01*
X134019183Y-45324525D01*
X133917475Y-45222817D01*
X133797879Y-45142905D01*
X133664991Y-45087861D01*
X133523918Y-45059800D01*
X133380082Y-45059800D01*
X133239009Y-45087861D01*
X133106121Y-45142905D01*
X132986525Y-45222817D01*
X132884817Y-45324525D01*
X132804905Y-45444121D01*
X132749861Y-45577009D01*
X132721800Y-45718082D01*
X132721800Y-45861918D01*
X132749861Y-46002991D01*
X132804905Y-46135879D01*
X132884817Y-46255475D01*
X132986525Y-46357183D01*
X133106121Y-46437095D01*
X133239009Y-46492139D01*
X133380082Y-46520200D01*
X133523918Y-46520200D01*
X133664991Y-46492139D01*
X133797879Y-46437095D01*
X133917475Y-46357183D01*
X134019183Y-46255475D01*
X134026049Y-46245200D01*
X136946451Y-46245200D01*
X137187800Y-46486550D01*
X137187800Y-47612051D01*
X136964688Y-47388939D01*
X136950432Y-47371568D01*
X136881119Y-47314684D01*
X136802040Y-47272416D01*
X136716235Y-47246387D01*
X136649357Y-47239800D01*
X136649349Y-47239800D01*
X136627000Y-47237599D01*
X136604651Y-47239800D01*
X134026049Y-47239800D01*
X134019183Y-47229525D01*
X133917475Y-47127817D01*
X133797879Y-47047905D01*
X133664991Y-46992861D01*
X133523918Y-46964800D01*
X133380082Y-46964800D01*
X133239009Y-46992861D01*
X133106121Y-47047905D01*
X132986525Y-47127817D01*
X132884817Y-47229525D01*
X132804905Y-47349121D01*
X132749861Y-47482009D01*
X132721800Y-47623082D01*
X132721800Y-47766918D01*
X132749861Y-47907991D01*
X132804905Y-48040879D01*
X132884817Y-48160475D01*
X132986525Y-48262183D01*
X133106121Y-48342095D01*
X133239009Y-48397139D01*
X133380082Y-48425200D01*
X133523918Y-48425200D01*
X133664991Y-48397139D01*
X133797879Y-48342095D01*
X133917475Y-48262183D01*
X134019183Y-48160475D01*
X134026049Y-48150200D01*
X136438451Y-48150200D01*
X136679800Y-48391550D01*
X136679800Y-49517051D01*
X136456688Y-49293939D01*
X136442432Y-49276568D01*
X136373119Y-49219684D01*
X136294040Y-49177416D01*
X136208235Y-49151387D01*
X136141357Y-49144800D01*
X136141349Y-49144800D01*
X136119000Y-49142599D01*
X136096651Y-49144800D01*
X134026049Y-49144800D01*
X134019183Y-49134525D01*
X133917475Y-49032817D01*
X133797879Y-48952905D01*
X133664991Y-48897861D01*
X133523918Y-48869800D01*
X133380082Y-48869800D01*
X133239009Y-48897861D01*
X133106121Y-48952905D01*
X132986525Y-49032817D01*
X132884817Y-49134525D01*
X132804905Y-49254121D01*
X132749861Y-49387009D01*
X132721800Y-49528082D01*
X132721800Y-49671918D01*
X132749861Y-49812991D01*
X132804905Y-49945879D01*
X132884817Y-50065475D01*
X132986525Y-50167183D01*
X133106121Y-50247095D01*
X133239009Y-50302139D01*
X133380082Y-50330200D01*
X133523918Y-50330200D01*
X133664991Y-50302139D01*
X133797879Y-50247095D01*
X133917475Y-50167183D01*
X134019183Y-50065475D01*
X134026049Y-50055200D01*
X135930451Y-50055200D01*
X136171800Y-50296550D01*
X136171801Y-53006641D01*
X136169599Y-53029000D01*
X136178387Y-53118234D01*
X136199253Y-53187016D01*
X136204417Y-53204040D01*
X136246685Y-53283119D01*
X136303569Y-53352432D01*
X136320935Y-53366684D01*
X137421651Y-54467401D01*
X76126293Y-54467401D01*
X76105448Y-54469454D01*
X76099278Y-54469411D01*
X76092572Y-54470069D01*
X75898475Y-54490470D01*
X75855637Y-54499264D01*
X75812665Y-54507461D01*
X75806216Y-54509408D01*
X75806210Y-54509410D01*
X75619776Y-54567120D01*
X75579426Y-54584082D01*
X75538898Y-54600456D01*
X75532949Y-54603619D01*
X75361272Y-54696444D01*
X75325002Y-54720908D01*
X75288407Y-54744855D01*
X75283186Y-54749114D01*
X75132808Y-54873518D01*
X75101992Y-54904550D01*
X75070737Y-54935157D01*
X75066442Y-54940349D01*
X74943092Y-55091591D01*
X74918901Y-55128001D01*
X74894174Y-55164114D01*
X74890969Y-55170042D01*
X74799344Y-55342364D01*
X74782685Y-55382783D01*
X74765445Y-55423007D01*
X74763453Y-55429444D01*
X74707043Y-55616280D01*
X74698541Y-55659221D01*
X74689454Y-55701971D01*
X74688749Y-55708673D01*
X74669704Y-55902906D01*
X74669704Y-55902921D01*
X74667402Y-55926293D01*
X74667401Y-94073706D01*
X59206795Y-94073706D01*
X59163834Y-93857731D01*
X58739418Y-92833100D01*
X58123262Y-91910957D01*
X57339043Y-91126738D01*
X56416900Y-90510582D01*
X55392269Y-90086166D01*
X54304526Y-89869800D01*
X53195474Y-89869800D01*
X52107731Y-90086166D01*
X51083100Y-90510582D01*
X50160957Y-91126738D01*
X49376738Y-91910957D01*
X48760582Y-92833100D01*
X48336166Y-93857731D01*
X48119800Y-94945474D01*
X46732599Y-94945474D01*
X46732599Y-82259569D01*
X70499800Y-82259569D01*
X70499800Y-82980432D01*
X70517600Y-83161161D01*
X70587944Y-83393055D01*
X70702178Y-83606769D01*
X70855910Y-83794091D01*
X71043232Y-83947823D01*
X71256946Y-84062056D01*
X71488840Y-84132400D01*
X71730000Y-84156152D01*
X71971161Y-84132400D01*
X72203055Y-84062056D01*
X72416769Y-83947823D01*
X72604091Y-83794091D01*
X72757823Y-83606769D01*
X72872056Y-83393055D01*
X72942400Y-83161160D01*
X72960200Y-82980431D01*
X72960200Y-82259568D01*
X72942400Y-82078839D01*
X72872056Y-81846945D01*
X72757823Y-81633231D01*
X72604091Y-81445909D01*
X72416768Y-81292177D01*
X72203054Y-81177944D01*
X71971160Y-81107600D01*
X71730000Y-81083848D01*
X71488839Y-81107600D01*
X71256945Y-81177944D01*
X71043231Y-81292177D01*
X70855909Y-81445909D01*
X70702177Y-81633232D01*
X70587944Y-81846946D01*
X70517600Y-82078840D01*
X70499800Y-82259569D01*
X46732599Y-82259569D01*
X46732599Y-74639569D01*
X70499800Y-74639569D01*
X70499800Y-75360432D01*
X70517600Y-75541161D01*
X70587944Y-75773055D01*
X70702178Y-75986769D01*
X70855910Y-76174091D01*
X71043232Y-76327823D01*
X71256946Y-76442056D01*
X71488840Y-76512400D01*
X71730000Y-76536152D01*
X71971161Y-76512400D01*
X72203055Y-76442056D01*
X72416769Y-76327823D01*
X72604091Y-76174091D01*
X72757823Y-75986769D01*
X72872056Y-75773055D01*
X72942400Y-75541160D01*
X72960200Y-75360431D01*
X72960200Y-74639568D01*
X72942400Y-74458839D01*
X72872056Y-74226945D01*
X72757823Y-74013231D01*
X72604091Y-73825909D01*
X72416768Y-73672177D01*
X72203054Y-73557944D01*
X71971160Y-73487600D01*
X71730000Y-73463848D01*
X71488839Y-73487600D01*
X71256945Y-73557944D01*
X71043231Y-73672177D01*
X70855909Y-73825909D01*
X70702177Y-74013232D01*
X70587944Y-74226946D01*
X70517600Y-74458840D01*
X70499800Y-74639569D01*
X46732599Y-74639569D01*
X46732599Y-67019569D01*
X70499800Y-67019569D01*
X70499800Y-67740432D01*
X70517600Y-67921161D01*
X70587944Y-68153055D01*
X70702178Y-68366769D01*
X70855910Y-68554091D01*
X71043232Y-68707823D01*
X71256946Y-68822056D01*
X71488840Y-68892400D01*
X71730000Y-68916152D01*
X71971161Y-68892400D01*
X72203055Y-68822056D01*
X72416769Y-68707823D01*
X72604091Y-68554091D01*
X72757823Y-68366769D01*
X72872056Y-68153055D01*
X72942400Y-67921160D01*
X72960200Y-67740431D01*
X72960200Y-67019568D01*
X72942400Y-66838839D01*
X72872056Y-66606945D01*
X72757823Y-66393231D01*
X72604091Y-66205909D01*
X72416768Y-66052177D01*
X72203054Y-65937944D01*
X71971160Y-65867600D01*
X71730000Y-65843848D01*
X71488839Y-65867600D01*
X71256945Y-65937944D01*
X71043231Y-66052177D01*
X70855909Y-66205909D01*
X70702177Y-66393232D01*
X70587944Y-66606946D01*
X70517600Y-66838840D01*
X70499800Y-67019569D01*
X46732599Y-67019569D01*
X46732599Y-49945474D01*
X48119800Y-49945474D01*
X48119800Y-51054526D01*
X48336166Y-52142269D01*
X48760582Y-53166900D01*
X49376738Y-54089043D01*
X50160957Y-54873262D01*
X51083100Y-55489418D01*
X52107731Y-55913834D01*
X53195474Y-56130200D01*
X54304526Y-56130200D01*
X55392269Y-55913834D01*
X56416900Y-55489418D01*
X57339043Y-54873262D01*
X58123262Y-54089043D01*
X58739418Y-53166900D01*
X59163834Y-52142269D01*
X59380200Y-51054526D01*
X59380200Y-49945474D01*
X59163834Y-48857731D01*
X58739418Y-47833100D01*
X58284527Y-47152306D01*
X73719800Y-47152306D01*
X73719800Y-47847694D01*
X73855464Y-48529721D01*
X74121577Y-49172177D01*
X74507915Y-49750371D01*
X74999629Y-50242085D01*
X75577823Y-50628423D01*
X76220279Y-50894536D01*
X76902306Y-51030200D01*
X77597694Y-51030200D01*
X78279721Y-50894536D01*
X78922177Y-50628423D01*
X79500371Y-50242085D01*
X79992085Y-49750371D01*
X80378423Y-49172177D01*
X80644536Y-48529721D01*
X80780200Y-47847694D01*
X80780200Y-47152306D01*
X80644536Y-46470279D01*
X80378423Y-45827823D01*
X79992085Y-45249629D01*
X79500371Y-44757915D01*
X78922177Y-44371577D01*
X78279721Y-44105464D01*
X77597694Y-43969800D01*
X76902306Y-43969800D01*
X76220279Y-44105464D01*
X75577823Y-44371577D01*
X74999629Y-44757915D01*
X74507915Y-45249629D01*
X74121577Y-45827823D01*
X73855464Y-46470279D01*
X73719800Y-47152306D01*
X58284527Y-47152306D01*
X58123262Y-46910957D01*
X57339043Y-46126738D01*
X56416900Y-45510582D01*
X55392269Y-45086166D01*
X54304526Y-44869800D01*
X53195474Y-44869800D01*
X52107731Y-45086166D01*
X51083100Y-45510582D01*
X50160957Y-46126738D01*
X49376738Y-46910957D01*
X48760582Y-47833100D01*
X48336166Y-48857731D01*
X48119800Y-49945474D01*
X46732599Y-49945474D01*
X46732599Y-40521488D01*
X46765547Y-40152306D01*
X65219800Y-40152306D01*
X65219800Y-40847694D01*
X65355464Y-41529721D01*
X65621577Y-42172177D01*
X66007915Y-42750371D01*
X66499629Y-43242085D01*
X67077823Y-43628423D01*
X67720279Y-43894536D01*
X68402306Y-44030200D01*
X69097694Y-44030200D01*
X69779721Y-43894536D01*
X70422177Y-43628423D01*
X71000371Y-43242085D01*
X71492085Y-42750371D01*
X71878423Y-42172177D01*
X72144536Y-41529721D01*
X72280200Y-40847694D01*
X72280200Y-40152306D01*
X174833048Y-40152306D01*
X174833048Y-40847694D01*
X174968712Y-41529721D01*
X175234825Y-42172177D01*
X175621163Y-42750371D01*
X176112877Y-43242085D01*
X176691071Y-43628423D01*
X177333527Y-43894536D01*
X178015554Y-44030200D01*
X178710942Y-44030200D01*
X179392969Y-43894536D01*
X180035425Y-43628423D01*
X180613619Y-43242085D01*
X181105333Y-42750371D01*
X181491671Y-42172177D01*
X181757784Y-41529721D01*
X181893448Y-40847694D01*
X181893448Y-40152306D01*
X181757784Y-39470279D01*
X181491671Y-38827823D01*
X181105333Y-38249629D01*
X180613619Y-37757915D01*
X180035425Y-37371577D01*
X179392969Y-37105464D01*
X178710942Y-36969800D01*
X178015554Y-36969800D01*
X177333527Y-37105464D01*
X176691071Y-37371577D01*
X176112877Y-37757915D01*
X175621163Y-38249629D01*
X175234825Y-38827823D01*
X174968712Y-39470279D01*
X174833048Y-40152306D01*
X72280200Y-40152306D01*
X72144536Y-39470279D01*
X71878423Y-38827823D01*
X71492085Y-38249629D01*
X71000371Y-37757915D01*
X70422177Y-37371577D01*
X69779721Y-37105464D01*
X69097694Y-36969800D01*
X68402306Y-36969800D01*
X67720279Y-37105464D01*
X67077823Y-37371577D01*
X66499629Y-37757915D01*
X66007915Y-38249629D01*
X65621577Y-38827823D01*
X65355464Y-39470279D01*
X65219800Y-40152306D01*
X46765547Y-40152306D01*
X46805881Y-39700376D01*
X47017718Y-38926032D01*
X47363335Y-38201432D01*
X47831804Y-37549489D01*
X48408316Y-36990809D01*
X49074647Y-36543054D01*
X49809744Y-36220368D01*
X50594079Y-36032066D01*
X51267710Y-35982598D01*
X178341759Y-35982600D01*
X178341759Y-35982600D01*
G37*
X178341759Y-35982600D02*
X179162871Y-36055882D01*
X179937215Y-36267719D01*
X180661815Y-36613335D01*
X181313758Y-37081804D01*
X181874210Y-37660145D01*
X182284920Y-38257733D01*
X186617412Y-45761830D01*
X186628453Y-45777238D01*
X187070177Y-46419949D01*
X187078241Y-46429697D01*
X187085027Y-46440390D01*
X187121332Y-46482449D01*
X187739959Y-47120822D01*
X187751451Y-47130742D01*
X187761730Y-47141920D01*
X187804910Y-47176886D01*
X188526805Y-47695621D01*
X188539878Y-47703352D01*
X188551969Y-47712530D01*
X188600658Y-47739297D01*
X189403005Y-48121997D01*
X189417236Y-48127290D01*
X189430765Y-48134183D01*
X189483396Y-48151894D01*
X189483424Y-48151905D01*
X189483435Y-48151907D01*
X190340860Y-48386472D01*
X190355803Y-48389161D01*
X190370340Y-48393550D01*
X190425268Y-48401661D01*
X190425304Y-48401667D01*
X190425316Y-48401667D01*
X191308614Y-48480499D01*
X191329922Y-48482598D01*
X221228512Y-48482600D01*
X222049624Y-48555882D01*
X222823968Y-48767719D01*
X223548568Y-49113336D01*
X224200511Y-49581805D01*
X224759191Y-50158317D01*
X225206946Y-50824648D01*
X225529632Y-51559745D01*
X225717934Y-52344080D01*
X225767402Y-53017711D01*
X225767400Y-117482934D01*
X225691207Y-118559040D01*
X225467750Y-119596954D01*
X225100282Y-120593019D01*
X224596129Y-121527379D01*
X223965357Y-122381376D01*
X223220544Y-123137982D01*
X222376565Y-123782087D01*
X221450239Y-124300854D01*
X220460061Y-124683925D01*
X219425790Y-124923657D01*
X218352906Y-125016578D01*
X218248118Y-125017401D01*
X67046136Y-125017403D01*
X65970016Y-124941209D01*
X64932102Y-124717752D01*
X63936036Y-124350284D01*
X63001677Y-123846131D01*
X62147679Y-123215358D01*
X61391078Y-122470550D01*
X60740813Y-121618500D01*
X60515309Y-121252664D01*
X58317228Y-117445474D01*
X78119800Y-117445474D01*
X78119800Y-118554526D01*
X78336166Y-119642269D01*
X78760582Y-120666900D01*
X79376738Y-121589043D01*
X80160957Y-122373262D01*
X81083100Y-122989418D01*
X82107731Y-123413834D01*
X83195474Y-123630200D01*
X84304526Y-123630200D01*
X85392269Y-123413834D01*
X86416900Y-122989418D01*
X87339043Y-122373262D01*
X88123262Y-121589043D01*
X88739418Y-120666900D01*
X89163834Y-119642269D01*
X89380200Y-118554526D01*
X89380200Y-117445474D01*
X139369800Y-117445474D01*
X139369800Y-118554526D01*
X139586166Y-119642269D01*
X140010582Y-120666900D01*
X140626738Y-121589043D01*
X141410957Y-122373262D01*
X142333100Y-122989418D01*
X143357731Y-123413834D01*
X144445474Y-123630200D01*
X145554526Y-123630200D01*
X146642269Y-123413834D01*
X147666900Y-122989418D01*
X148589043Y-122373262D01*
X149373262Y-121589043D01*
X149989418Y-120666900D01*
X150413834Y-119642269D01*
X150630200Y-118554526D01*
X150630200Y-117445474D01*
X200619800Y-117445474D01*
X200619800Y-118554526D01*
X200836166Y-119642269D01*
X201260582Y-120666900D01*
X201876738Y-121589043D01*
X202660957Y-122373262D01*
X203583100Y-122989418D01*
X204607731Y-123413834D01*
X205695474Y-123630200D01*
X206804526Y-123630200D01*
X207892269Y-123413834D01*
X208916900Y-122989418D01*
X209839043Y-122373262D01*
X210623262Y-121589043D01*
X211239418Y-120666900D01*
X211663834Y-119642269D01*
X211880200Y-118554526D01*
X211880200Y-117445474D01*
X211663834Y-116357731D01*
X211239418Y-115333100D01*
X210623262Y-114410957D01*
X209839043Y-113626738D01*
X208916900Y-113010582D01*
X207892269Y-112586166D01*
X206804526Y-112369800D01*
X205695474Y-112369800D01*
X204607731Y-112586166D01*
X203583100Y-113010582D01*
X202660957Y-113626738D01*
X201876738Y-114410957D01*
X201260582Y-115333100D01*
X200836166Y-116357731D01*
X200619800Y-117445474D01*
X150630200Y-117445474D01*
X150413834Y-116357731D01*
X149989418Y-115333100D01*
X149373262Y-114410957D01*
X148589043Y-113626738D01*
X147666900Y-113010582D01*
X146642269Y-112586166D01*
X145554526Y-112369800D01*
X144445474Y-112369800D01*
X143357731Y-112586166D01*
X142333100Y-113010582D01*
X141410957Y-113626738D01*
X140626738Y-114410957D01*
X140010582Y-115333100D01*
X139586166Y-116357731D01*
X139369800Y-117445474D01*
X89380200Y-117445474D01*
X89163834Y-116357731D01*
X88739418Y-115333100D01*
X88123262Y-114410957D01*
X87339043Y-113626738D01*
X86416900Y-113010582D01*
X85392269Y-112586166D01*
X84304526Y-112369800D01*
X83195474Y-112369800D01*
X82107731Y-112586166D01*
X81083100Y-113010582D01*
X80160957Y-113626738D01*
X79376738Y-114410957D01*
X78760582Y-115333100D01*
X78336166Y-116357731D01*
X78119800Y-117445474D01*
X58317228Y-117445474D01*
X49776389Y-102652306D01*
X65219800Y-102652306D01*
X65219800Y-103347694D01*
X65355464Y-104029721D01*
X65621577Y-104672177D01*
X66007915Y-105250371D01*
X66499629Y-105742085D01*
X67077823Y-106128423D01*
X67720279Y-106394536D01*
X68402306Y-106530200D01*
X69097694Y-106530200D01*
X69779721Y-106394536D01*
X70422177Y-106128423D01*
X71000371Y-105742085D01*
X71492085Y-105250371D01*
X71878423Y-104672177D01*
X72144536Y-104029721D01*
X72280200Y-103347694D01*
X72280200Y-102652306D01*
X72180744Y-102152306D01*
X73719800Y-102152306D01*
X73719800Y-102847694D01*
X73855464Y-103529721D01*
X74121577Y-104172177D01*
X74507915Y-104750371D01*
X74999629Y-105242085D01*
X75577823Y-105628423D01*
X76220279Y-105894536D01*
X76902306Y-106030200D01*
X77597694Y-106030200D01*
X78279721Y-105894536D01*
X78922177Y-105628423D01*
X79500371Y-105242085D01*
X79992085Y-104750371D01*
X80378423Y-104172177D01*
X80644536Y-103529721D01*
X80780200Y-102847694D01*
X80780200Y-102152306D01*
X166719800Y-102152306D01*
X166719800Y-102847694D01*
X166855464Y-103529721D01*
X167121577Y-104172177D01*
X167507915Y-104750371D01*
X167999629Y-105242085D01*
X168577823Y-105628423D01*
X169220279Y-105894536D01*
X169902306Y-106030200D01*
X170597694Y-106030200D01*
X171279721Y-105894536D01*
X171922177Y-105628423D01*
X172500371Y-105242085D01*
X172992085Y-104750371D01*
X173378423Y-104172177D01*
X173644536Y-103529721D01*
X173780200Y-102847694D01*
X173780200Y-102652306D01*
X217719800Y-102652306D01*
X217719800Y-103347694D01*
X217855464Y-104029721D01*
X218121577Y-104672177D01*
X218507915Y-105250371D01*
X218999629Y-105742085D01*
X219577823Y-106128423D01*
X220220279Y-106394536D01*
X220902306Y-106530200D01*
X221597694Y-106530200D01*
X222279721Y-106394536D01*
X222922177Y-106128423D01*
X223500371Y-105742085D01*
X223992085Y-105250371D01*
X224378423Y-104672177D01*
X224644536Y-104029721D01*
X224780200Y-103347694D01*
X224780200Y-102652306D01*
X224644536Y-101970279D01*
X224378423Y-101327823D01*
X223992085Y-100749629D01*
X223500371Y-100257915D01*
X222922177Y-99871577D01*
X222279721Y-99605464D01*
X221597694Y-99469800D01*
X220902306Y-99469800D01*
X220220279Y-99605464D01*
X219577823Y-99871577D01*
X218999629Y-100257915D01*
X218507915Y-100749629D01*
X218121577Y-101327823D01*
X217855464Y-101970279D01*
X217719800Y-102652306D01*
X173780200Y-102652306D01*
X173780200Y-102152306D01*
X173644536Y-101470279D01*
X173378423Y-100827823D01*
X172992085Y-100249629D01*
X172500371Y-99757915D01*
X171922177Y-99371577D01*
X171279721Y-99105464D01*
X170597694Y-98969800D01*
X169902306Y-98969800D01*
X169220279Y-99105464D01*
X168577823Y-99371577D01*
X167999629Y-99757915D01*
X167507915Y-100249629D01*
X167121577Y-100827823D01*
X166855464Y-101470279D01*
X166719800Y-102152306D01*
X80780200Y-102152306D01*
X80644536Y-101470279D01*
X80378423Y-100827823D01*
X79992085Y-100249629D01*
X79500371Y-99757915D01*
X78922177Y-99371577D01*
X78279721Y-99105464D01*
X77597694Y-98969800D01*
X76902306Y-98969800D01*
X76220279Y-99105464D01*
X75577823Y-99371577D01*
X74999629Y-99757915D01*
X74507915Y-100249629D01*
X74121577Y-100827823D01*
X73855464Y-101470279D01*
X73719800Y-102152306D01*
X72180744Y-102152306D01*
X72144536Y-101970279D01*
X71878423Y-101327823D01*
X71492085Y-100749629D01*
X71000371Y-100257915D01*
X70422177Y-99871577D01*
X69779721Y-99605464D01*
X69097694Y-99469800D01*
X68402306Y-99469800D01*
X67720279Y-99605464D01*
X67077823Y-99871577D01*
X66499629Y-100257915D01*
X66007915Y-100749629D01*
X65621577Y-101327823D01*
X65355464Y-101970279D01*
X65219800Y-102652306D01*
X49776389Y-102652306D01*
X47681501Y-99023855D01*
X47231083Y-98094196D01*
X46924876Y-97125976D01*
X46760556Y-96117009D01*
X46732599Y-95489262D01*
X46732599Y-94945474D01*
X48119800Y-94945474D01*
X48119800Y-96054526D01*
X48336166Y-97142269D01*
X48760582Y-98166900D01*
X49376738Y-99089043D01*
X50160957Y-99873262D01*
X51083100Y-100489418D01*
X52107731Y-100913834D01*
X53195474Y-101130200D01*
X54304526Y-101130200D01*
X55392269Y-100913834D01*
X56416900Y-100489418D01*
X57339043Y-99873262D01*
X58123262Y-99089043D01*
X58739418Y-98166900D01*
X59163834Y-97142269D01*
X59380200Y-96054526D01*
X59380200Y-94945474D01*
X59206795Y-94073706D01*
X74667401Y-94073706D01*
X74669454Y-94094551D01*
X74669411Y-94100722D01*
X74670069Y-94107428D01*
X74690470Y-94301525D01*
X74699263Y-94344359D01*
X74707460Y-94387333D01*
X74709408Y-94393784D01*
X74767119Y-94580222D01*
X74784070Y-94620548D01*
X74800456Y-94661103D01*
X74803619Y-94667053D01*
X74896445Y-94838730D01*
X74920915Y-94875007D01*
X74944854Y-94911591D01*
X74949112Y-94916812D01*
X75073516Y-95067191D01*
X75104549Y-95098008D01*
X75135156Y-95129263D01*
X75140348Y-95133558D01*
X75291591Y-95256909D01*
X75328001Y-95281100D01*
X75364114Y-95305827D01*
X75370041Y-95309031D01*
X75542362Y-95400656D01*
X75582774Y-95417313D01*
X75623006Y-95434556D01*
X75629443Y-95436549D01*
X75816279Y-95492958D01*
X75859214Y-95501459D01*
X75901970Y-95510547D01*
X75908671Y-95511252D01*
X76102905Y-95530297D01*
X76102921Y-95530297D01*
X76126293Y-95532599D01*
X171373707Y-95532599D01*
X171394552Y-95530546D01*
X171400722Y-95530589D01*
X171407428Y-95529931D01*
X171601525Y-95509530D01*
X171644363Y-95500736D01*
X171687335Y-95492539D01*
X171693786Y-95490592D01*
X171880224Y-95432880D01*
X171920574Y-95415918D01*
X171961102Y-95399544D01*
X171967051Y-95396381D01*
X172138728Y-95303556D01*
X172175015Y-95279080D01*
X172211592Y-95255145D01*
X172216814Y-95250886D01*
X172367192Y-95126483D01*
X172398027Y-95095431D01*
X172429263Y-95064843D01*
X172433558Y-95059651D01*
X172556908Y-94908409D01*
X172581106Y-94871988D01*
X172605826Y-94835885D01*
X172609031Y-94829958D01*
X172700656Y-94657636D01*
X172717327Y-94617189D01*
X172734555Y-94576993D01*
X172736548Y-94570556D01*
X172792957Y-94383720D01*
X172801458Y-94340785D01*
X172810546Y-94298029D01*
X172811251Y-94291328D01*
X172830296Y-94097094D01*
X172830296Y-94097090D01*
X172832599Y-94073707D01*
X172832599Y-93180348D01*
X173881316Y-94229066D01*
X173895568Y-94246432D01*
X173964881Y-94303316D01*
X174043960Y-94345584D01*
X174129765Y-94371613D01*
X174196643Y-94378200D01*
X174196650Y-94378200D01*
X174218999Y-94380401D01*
X174241348Y-94378200D01*
X184444451Y-94378200D01*
X185066800Y-95000550D01*
X185066801Y-98052449D01*
X184209040Y-98910211D01*
X184196918Y-98907800D01*
X184053082Y-98907800D01*
X183912009Y-98935861D01*
X183779121Y-98990905D01*
X183659525Y-99070817D01*
X183557817Y-99172525D01*
X183477905Y-99292121D01*
X183422861Y-99425009D01*
X183394800Y-99566082D01*
X183394800Y-99709918D01*
X183422861Y-99850991D01*
X183477905Y-99983879D01*
X183557817Y-100103475D01*
X183659525Y-100205183D01*
X183779121Y-100285095D01*
X183912009Y-100340139D01*
X184053082Y-100368200D01*
X184196918Y-100368200D01*
X184337991Y-100340139D01*
X184470879Y-100285095D01*
X184590475Y-100205183D01*
X184692183Y-100103475D01*
X184772095Y-99983879D01*
X184827139Y-99850991D01*
X184855200Y-99709918D01*
X184855200Y-99566082D01*
X184852789Y-99553960D01*
X185574801Y-98831949D01*
X185574801Y-99040645D01*
X185564525Y-99047511D01*
X185462817Y-99149219D01*
X185382905Y-99268815D01*
X185327861Y-99401703D01*
X185299800Y-99542776D01*
X185299800Y-99686612D01*
X185327861Y-99827685D01*
X185382905Y-99960573D01*
X185462817Y-100080169D01*
X185564525Y-100181877D01*
X185684121Y-100261789D01*
X185817009Y-100316833D01*
X185958082Y-100344894D01*
X186101918Y-100344894D01*
X186242991Y-100316833D01*
X186375879Y-100261789D01*
X186495475Y-100181877D01*
X186597183Y-100080169D01*
X186677095Y-99960573D01*
X186732139Y-99827685D01*
X186760200Y-99686612D01*
X186760200Y-99542776D01*
X186732139Y-99401703D01*
X186677095Y-99268815D01*
X186597183Y-99149219D01*
X186495475Y-99047511D01*
X186485200Y-99040645D01*
X186485200Y-98831949D01*
X187207211Y-99553961D01*
X187204800Y-99566082D01*
X187204800Y-99709918D01*
X187232861Y-99850991D01*
X187287905Y-99983879D01*
X187367817Y-100103475D01*
X187469525Y-100205183D01*
X187589121Y-100285095D01*
X187722009Y-100340139D01*
X187863082Y-100368200D01*
X188006918Y-100368200D01*
X188147991Y-100340139D01*
X188280879Y-100285095D01*
X188400475Y-100205183D01*
X188502183Y-100103475D01*
X188582095Y-99983879D01*
X188637139Y-99850991D01*
X188665200Y-99709918D01*
X188665200Y-99566082D01*
X188637139Y-99425009D01*
X188582095Y-99292121D01*
X188502183Y-99172525D01*
X188400475Y-99070817D01*
X188280879Y-98990905D01*
X188147991Y-98935861D01*
X188006918Y-98907800D01*
X187863082Y-98907800D01*
X187850961Y-98910211D01*
X186993200Y-98052451D01*
X186993200Y-94326348D01*
X186995401Y-94303999D01*
X186993200Y-94281650D01*
X186993200Y-94281643D01*
X186986613Y-94214765D01*
X186960584Y-94128960D01*
X186918316Y-94049881D01*
X186861432Y-93980568D01*
X186844067Y-93966317D01*
X185478688Y-92600939D01*
X185464432Y-92583568D01*
X185395119Y-92526684D01*
X185316040Y-92484416D01*
X185230235Y-92458387D01*
X185163357Y-92451800D01*
X185163349Y-92451800D01*
X185141000Y-92449599D01*
X185118651Y-92451800D01*
X174915550Y-92451800D01*
X174547200Y-92083451D01*
X174547200Y-74239036D01*
X192273800Y-74239036D01*
X192273800Y-75760964D01*
X192570713Y-77253649D01*
X193153130Y-78659728D01*
X193998668Y-79925166D01*
X195074834Y-81001332D01*
X196340272Y-81846870D01*
X197746351Y-82429287D01*
X199239036Y-82726200D01*
X200760964Y-82726200D01*
X202253649Y-82429287D01*
X203659728Y-81846870D01*
X204925166Y-81001332D01*
X206001332Y-79925166D01*
X206846870Y-78659728D01*
X207429287Y-77253649D01*
X207726200Y-75760964D01*
X207726200Y-74239036D01*
X207429287Y-72746351D01*
X206846870Y-71340272D01*
X206001332Y-70074834D01*
X204925166Y-68998668D01*
X203659728Y-68153130D01*
X202253649Y-67570713D01*
X200760964Y-67273800D01*
X199239036Y-67273800D01*
X197746351Y-67570713D01*
X196340272Y-68153130D01*
X195074834Y-68998668D01*
X193998668Y-70074834D01*
X193153130Y-71340272D01*
X192570713Y-72746351D01*
X192273800Y-74239036D01*
X174547200Y-74239036D01*
X174547200Y-64514082D01*
X187839800Y-64514082D01*
X187839800Y-64657918D01*
X187867861Y-64798991D01*
X187922905Y-64931879D01*
X188002817Y-65051475D01*
X188104525Y-65153183D01*
X188224121Y-65233095D01*
X188357009Y-65288139D01*
X188423250Y-65301315D01*
X188263934Y-65460632D01*
X188246569Y-65474883D01*
X188189685Y-65544196D01*
X188189559Y-65544432D01*
X188147417Y-65623275D01*
X188121387Y-65709081D01*
X188113326Y-65790937D01*
X188104525Y-65796817D01*
X188002817Y-65898525D01*
X187922905Y-66018121D01*
X187867861Y-66151009D01*
X187839800Y-66292082D01*
X187839800Y-66435918D01*
X187867861Y-66576991D01*
X187922905Y-66709879D01*
X188002817Y-66829475D01*
X188104525Y-66931183D01*
X188224121Y-67011095D01*
X188357009Y-67066139D01*
X188498082Y-67094200D01*
X188641918Y-67094200D01*
X188782991Y-67066139D01*
X188915879Y-67011095D01*
X189035475Y-66931183D01*
X189137183Y-66829475D01*
X189217095Y-66709879D01*
X189272139Y-66576991D01*
X189300200Y-66435918D01*
X189300200Y-66292082D01*
X189272139Y-66151009D01*
X189217095Y-66018121D01*
X189137183Y-65898525D01*
X189125361Y-65886703D01*
X189335866Y-65676200D01*
X201047800Y-65676200D01*
X201047800Y-65800918D01*
X201075861Y-65941991D01*
X201130905Y-66074879D01*
X201210817Y-66194475D01*
X201312525Y-66296183D01*
X201432121Y-66376095D01*
X201565009Y-66431139D01*
X201706082Y-66459200D01*
X201849918Y-66459200D01*
X201990991Y-66431139D01*
X202123879Y-66376095D01*
X202243475Y-66296183D01*
X202345183Y-66194475D01*
X202425095Y-66074879D01*
X202480139Y-65941991D01*
X202508200Y-65800918D01*
X202508200Y-65657082D01*
X202480139Y-65516009D01*
X202425095Y-65383121D01*
X202345183Y-65263525D01*
X202243475Y-65161817D01*
X202123879Y-65081905D01*
X201990991Y-65026861D01*
X201849918Y-64998800D01*
X201706082Y-64998800D01*
X201693960Y-65001211D01*
X201607688Y-64914939D01*
X201598300Y-64903500D01*
X201607688Y-64892061D01*
X201693960Y-64805789D01*
X201706082Y-64808200D01*
X201849918Y-64808200D01*
X201990991Y-64780139D01*
X202123879Y-64725095D01*
X202243475Y-64645183D01*
X202345183Y-64543475D01*
X202425095Y-64423879D01*
X202480139Y-64290991D01*
X202508200Y-64149918D01*
X202508200Y-64006082D01*
X202480139Y-63865009D01*
X202425095Y-63732121D01*
X202345183Y-63612525D01*
X202243475Y-63510817D01*
X202123879Y-63430905D01*
X201990991Y-63375861D01*
X201849918Y-63347800D01*
X201706082Y-63347800D01*
X201565009Y-63375861D01*
X201432121Y-63430905D01*
X201312525Y-63510817D01*
X201210817Y-63612525D01*
X201130905Y-63732121D01*
X201075861Y-63865009D01*
X201047800Y-64006082D01*
X201047800Y-64130800D01*
X189144049Y-64130800D01*
X189137183Y-64120525D01*
X189035475Y-64018817D01*
X188915879Y-63938905D01*
X188782991Y-63883861D01*
X188641918Y-63855800D01*
X188498082Y-63855800D01*
X188357009Y-63883861D01*
X188224121Y-63938905D01*
X188104525Y-64018817D01*
X188002817Y-64120525D01*
X187922905Y-64240121D01*
X187867861Y-64373009D01*
X187839800Y-64514082D01*
X174547200Y-64514082D01*
X174547200Y-61466082D01*
X198634800Y-61466082D01*
X198634800Y-61609918D01*
X198662861Y-61750991D01*
X198717905Y-61883879D01*
X198797817Y-62003475D01*
X198899525Y-62105183D01*
X199019121Y-62185095D01*
X199152009Y-62240139D01*
X199293082Y-62268200D01*
X199436918Y-62268200D01*
X199577991Y-62240139D01*
X199710879Y-62185095D01*
X199830475Y-62105183D01*
X199932183Y-62003475D01*
X199939049Y-61993200D01*
X200568951Y-61993200D01*
X200575817Y-62003475D01*
X200677525Y-62105183D01*
X200797121Y-62185095D01*
X200930009Y-62240139D01*
X201071082Y-62268200D01*
X201214918Y-62268200D01*
X201355991Y-62240139D01*
X201488879Y-62185095D01*
X201608475Y-62105183D01*
X201710183Y-62003475D01*
X201790095Y-61883879D01*
X201845139Y-61750991D01*
X201873200Y-61609918D01*
X201873200Y-61466082D01*
X201845139Y-61325009D01*
X201790095Y-61192121D01*
X201710183Y-61072525D01*
X201608475Y-60970817D01*
X201488879Y-60890905D01*
X201355991Y-60835861D01*
X201214918Y-60807800D01*
X201071082Y-60807800D01*
X200930009Y-60835861D01*
X200797121Y-60890905D01*
X200677525Y-60970817D01*
X200575817Y-61072525D01*
X200568951Y-61082800D01*
X199939049Y-61082800D01*
X199932183Y-61072525D01*
X199830475Y-60970817D01*
X199710879Y-60890905D01*
X199577991Y-60835861D01*
X199436918Y-60807800D01*
X199293082Y-60807800D01*
X199152009Y-60835861D01*
X199019121Y-60890905D01*
X198899525Y-60970817D01*
X198797817Y-61072525D01*
X198717905Y-61192121D01*
X198662861Y-61325009D01*
X198634800Y-61466082D01*
X174547200Y-61466082D01*
X174547200Y-54702348D01*
X174549401Y-54679999D01*
X174547200Y-54657650D01*
X174547200Y-54657643D01*
X174540613Y-54590765D01*
X174514584Y-54504960D01*
X174472316Y-54425881D01*
X174415432Y-54356568D01*
X174398067Y-54342317D01*
X173032688Y-52976939D01*
X173018432Y-52959568D01*
X172949119Y-52902684D01*
X172870040Y-52860416D01*
X172784235Y-52834387D01*
X172717357Y-52827800D01*
X172717349Y-52827800D01*
X172695000Y-52825599D01*
X172672651Y-52827800D01*
X138593550Y-52827800D01*
X138418056Y-52652306D01*
X217719800Y-52652306D01*
X217719800Y-53347694D01*
X217855464Y-54029721D01*
X218121577Y-54672177D01*
X218507915Y-55250371D01*
X218999629Y-55742085D01*
X219577823Y-56128423D01*
X220220279Y-56394536D01*
X220902306Y-56530200D01*
X221597694Y-56530200D01*
X222279721Y-56394536D01*
X222922177Y-56128423D01*
X223500371Y-55742085D01*
X223992085Y-55250371D01*
X224378423Y-54672177D01*
X224644536Y-54029721D01*
X224780200Y-53347694D01*
X224780200Y-52652306D01*
X224644536Y-51970279D01*
X224378423Y-51327823D01*
X223992085Y-50749629D01*
X223500371Y-50257915D01*
X222922177Y-49871577D01*
X222279721Y-49605464D01*
X221597694Y-49469800D01*
X220902306Y-49469800D01*
X220220279Y-49605464D01*
X219577823Y-49871577D01*
X218999629Y-50257915D01*
X218507915Y-50749629D01*
X218121577Y-51327823D01*
X217855464Y-51970279D01*
X217719800Y-52652306D01*
X138418056Y-52652306D01*
X138098200Y-52332451D01*
X138098200Y-47152306D01*
X166719800Y-47152306D01*
X166719800Y-47847694D01*
X166855464Y-48529721D01*
X167121577Y-49172177D01*
X167507915Y-49750371D01*
X167999629Y-50242085D01*
X168577823Y-50628423D01*
X169220279Y-50894536D01*
X169902306Y-51030200D01*
X170597694Y-51030200D01*
X171279721Y-50894536D01*
X171922177Y-50628423D01*
X172500371Y-50242085D01*
X172992085Y-49750371D01*
X173378423Y-49172177D01*
X173644536Y-48529721D01*
X173780200Y-47847694D01*
X173780200Y-47152306D01*
X173644536Y-46470279D01*
X173378423Y-45827823D01*
X172992085Y-45249629D01*
X172500371Y-44757915D01*
X171922177Y-44371577D01*
X171279721Y-44105464D01*
X170597694Y-43969800D01*
X169902306Y-43969800D01*
X169220279Y-44105464D01*
X168577823Y-44371577D01*
X167999629Y-44757915D01*
X167507915Y-45249629D01*
X167121577Y-45827823D01*
X166855464Y-46470279D01*
X166719800Y-47152306D01*
X138098200Y-47152306D01*
X138098200Y-46320346D01*
X138100401Y-46297999D01*
X138098200Y-46275652D01*
X138098200Y-46275643D01*
X138091613Y-46208765D01*
X138065584Y-46122960D01*
X138023316Y-46043881D01*
X137966432Y-45974568D01*
X137949067Y-45960317D01*
X137472688Y-45483939D01*
X137458432Y-45466568D01*
X137389119Y-45409684D01*
X137310040Y-45367416D01*
X137224235Y-45341387D01*
X137157357Y-45334800D01*
X137157349Y-45334800D01*
X137135000Y-45332599D01*
X137112651Y-45334800D01*
X134026049Y-45334800D01*
X134019183Y-45324525D01*
X133917475Y-45222817D01*
X133797879Y-45142905D01*
X133664991Y-45087861D01*
X133523918Y-45059800D01*
X133380082Y-45059800D01*
X133239009Y-45087861D01*
X133106121Y-45142905D01*
X132986525Y-45222817D01*
X132884817Y-45324525D01*
X132804905Y-45444121D01*
X132749861Y-45577009D01*
X132721800Y-45718082D01*
X132721800Y-45861918D01*
X132749861Y-46002991D01*
X132804905Y-46135879D01*
X132884817Y-46255475D01*
X132986525Y-46357183D01*
X133106121Y-46437095D01*
X133239009Y-46492139D01*
X133380082Y-46520200D01*
X133523918Y-46520200D01*
X133664991Y-46492139D01*
X133797879Y-46437095D01*
X133917475Y-46357183D01*
X134019183Y-46255475D01*
X134026049Y-46245200D01*
X136946451Y-46245200D01*
X137187800Y-46486550D01*
X137187800Y-47612051D01*
X136964688Y-47388939D01*
X136950432Y-47371568D01*
X136881119Y-47314684D01*
X136802040Y-47272416D01*
X136716235Y-47246387D01*
X136649357Y-47239800D01*
X136649349Y-47239800D01*
X136627000Y-47237599D01*
X136604651Y-47239800D01*
X134026049Y-47239800D01*
X134019183Y-47229525D01*
X133917475Y-47127817D01*
X133797879Y-47047905D01*
X133664991Y-46992861D01*
X133523918Y-46964800D01*
X133380082Y-46964800D01*
X133239009Y-46992861D01*
X133106121Y-47047905D01*
X132986525Y-47127817D01*
X132884817Y-47229525D01*
X132804905Y-47349121D01*
X132749861Y-47482009D01*
X132721800Y-47623082D01*
X132721800Y-47766918D01*
X132749861Y-47907991D01*
X132804905Y-48040879D01*
X132884817Y-48160475D01*
X132986525Y-48262183D01*
X133106121Y-48342095D01*
X133239009Y-48397139D01*
X133380082Y-48425200D01*
X133523918Y-48425200D01*
X133664991Y-48397139D01*
X133797879Y-48342095D01*
X133917475Y-48262183D01*
X134019183Y-48160475D01*
X134026049Y-48150200D01*
X136438451Y-48150200D01*
X136679800Y-48391550D01*
X136679800Y-49517051D01*
X136456688Y-49293939D01*
X136442432Y-49276568D01*
X136373119Y-49219684D01*
X136294040Y-49177416D01*
X136208235Y-49151387D01*
X136141357Y-49144800D01*
X136141349Y-49144800D01*
X136119000Y-49142599D01*
X136096651Y-49144800D01*
X134026049Y-49144800D01*
X134019183Y-49134525D01*
X133917475Y-49032817D01*
X133797879Y-48952905D01*
X133664991Y-48897861D01*
X133523918Y-48869800D01*
X133380082Y-48869800D01*
X133239009Y-48897861D01*
X133106121Y-48952905D01*
X132986525Y-49032817D01*
X132884817Y-49134525D01*
X132804905Y-49254121D01*
X132749861Y-49387009D01*
X132721800Y-49528082D01*
X132721800Y-49671918D01*
X132749861Y-49812991D01*
X132804905Y-49945879D01*
X132884817Y-50065475D01*
X132986525Y-50167183D01*
X133106121Y-50247095D01*
X133239009Y-50302139D01*
X133380082Y-50330200D01*
X133523918Y-50330200D01*
X133664991Y-50302139D01*
X133797879Y-50247095D01*
X133917475Y-50167183D01*
X134019183Y-50065475D01*
X134026049Y-50055200D01*
X135930451Y-50055200D01*
X136171800Y-50296550D01*
X136171801Y-53006641D01*
X136169599Y-53029000D01*
X136178387Y-53118234D01*
X136199253Y-53187016D01*
X136204417Y-53204040D01*
X136246685Y-53283119D01*
X136303569Y-53352432D01*
X136320935Y-53366684D01*
X137421651Y-54467401D01*
X76126293Y-54467401D01*
X76105448Y-54469454D01*
X76099278Y-54469411D01*
X76092572Y-54470069D01*
X75898475Y-54490470D01*
X75855637Y-54499264D01*
X75812665Y-54507461D01*
X75806216Y-54509408D01*
X75806210Y-54509410D01*
X75619776Y-54567120D01*
X75579426Y-54584082D01*
X75538898Y-54600456D01*
X75532949Y-54603619D01*
X75361272Y-54696444D01*
X75325002Y-54720908D01*
X75288407Y-54744855D01*
X75283186Y-54749114D01*
X75132808Y-54873518D01*
X75101992Y-54904550D01*
X75070737Y-54935157D01*
X75066442Y-54940349D01*
X74943092Y-55091591D01*
X74918901Y-55128001D01*
X74894174Y-55164114D01*
X74890969Y-55170042D01*
X74799344Y-55342364D01*
X74782685Y-55382783D01*
X74765445Y-55423007D01*
X74763453Y-55429444D01*
X74707043Y-55616280D01*
X74698541Y-55659221D01*
X74689454Y-55701971D01*
X74688749Y-55708673D01*
X74669704Y-55902906D01*
X74669704Y-55902921D01*
X74667402Y-55926293D01*
X74667401Y-94073706D01*
X59206795Y-94073706D01*
X59163834Y-93857731D01*
X58739418Y-92833100D01*
X58123262Y-91910957D01*
X57339043Y-91126738D01*
X56416900Y-90510582D01*
X55392269Y-90086166D01*
X54304526Y-89869800D01*
X53195474Y-89869800D01*
X52107731Y-90086166D01*
X51083100Y-90510582D01*
X50160957Y-91126738D01*
X49376738Y-91910957D01*
X48760582Y-92833100D01*
X48336166Y-93857731D01*
X48119800Y-94945474D01*
X46732599Y-94945474D01*
X46732599Y-82259569D01*
X70499800Y-82259569D01*
X70499800Y-82980432D01*
X70517600Y-83161161D01*
X70587944Y-83393055D01*
X70702178Y-83606769D01*
X70855910Y-83794091D01*
X71043232Y-83947823D01*
X71256946Y-84062056D01*
X71488840Y-84132400D01*
X71730000Y-84156152D01*
X71971161Y-84132400D01*
X72203055Y-84062056D01*
X72416769Y-83947823D01*
X72604091Y-83794091D01*
X72757823Y-83606769D01*
X72872056Y-83393055D01*
X72942400Y-83161160D01*
X72960200Y-82980431D01*
X72960200Y-82259568D01*
X72942400Y-82078839D01*
X72872056Y-81846945D01*
X72757823Y-81633231D01*
X72604091Y-81445909D01*
X72416768Y-81292177D01*
X72203054Y-81177944D01*
X71971160Y-81107600D01*
X71730000Y-81083848D01*
X71488839Y-81107600D01*
X71256945Y-81177944D01*
X71043231Y-81292177D01*
X70855909Y-81445909D01*
X70702177Y-81633232D01*
X70587944Y-81846946D01*
X70517600Y-82078840D01*
X70499800Y-82259569D01*
X46732599Y-82259569D01*
X46732599Y-74639569D01*
X70499800Y-74639569D01*
X70499800Y-75360432D01*
X70517600Y-75541161D01*
X70587944Y-75773055D01*
X70702178Y-75986769D01*
X70855910Y-76174091D01*
X71043232Y-76327823D01*
X71256946Y-76442056D01*
X71488840Y-76512400D01*
X71730000Y-76536152D01*
X71971161Y-76512400D01*
X72203055Y-76442056D01*
X72416769Y-76327823D01*
X72604091Y-76174091D01*
X72757823Y-75986769D01*
X72872056Y-75773055D01*
X72942400Y-75541160D01*
X72960200Y-75360431D01*
X72960200Y-74639568D01*
X72942400Y-74458839D01*
X72872056Y-74226945D01*
X72757823Y-74013231D01*
X72604091Y-73825909D01*
X72416768Y-73672177D01*
X72203054Y-73557944D01*
X71971160Y-73487600D01*
X71730000Y-73463848D01*
X71488839Y-73487600D01*
X71256945Y-73557944D01*
X71043231Y-73672177D01*
X70855909Y-73825909D01*
X70702177Y-74013232D01*
X70587944Y-74226946D01*
X70517600Y-74458840D01*
X70499800Y-74639569D01*
X46732599Y-74639569D01*
X46732599Y-67019569D01*
X70499800Y-67019569D01*
X70499800Y-67740432D01*
X70517600Y-67921161D01*
X70587944Y-68153055D01*
X70702178Y-68366769D01*
X70855910Y-68554091D01*
X71043232Y-68707823D01*
X71256946Y-68822056D01*
X71488840Y-68892400D01*
X71730000Y-68916152D01*
X71971161Y-68892400D01*
X72203055Y-68822056D01*
X72416769Y-68707823D01*
X72604091Y-68554091D01*
X72757823Y-68366769D01*
X72872056Y-68153055D01*
X72942400Y-67921160D01*
X72960200Y-67740431D01*
X72960200Y-67019568D01*
X72942400Y-66838839D01*
X72872056Y-66606945D01*
X72757823Y-66393231D01*
X72604091Y-66205909D01*
X72416768Y-66052177D01*
X72203054Y-65937944D01*
X71971160Y-65867600D01*
X71730000Y-65843848D01*
X71488839Y-65867600D01*
X71256945Y-65937944D01*
X71043231Y-66052177D01*
X70855909Y-66205909D01*
X70702177Y-66393232D01*
X70587944Y-66606946D01*
X70517600Y-66838840D01*
X70499800Y-67019569D01*
X46732599Y-67019569D01*
X46732599Y-49945474D01*
X48119800Y-49945474D01*
X48119800Y-51054526D01*
X48336166Y-52142269D01*
X48760582Y-53166900D01*
X49376738Y-54089043D01*
X50160957Y-54873262D01*
X51083100Y-55489418D01*
X52107731Y-55913834D01*
X53195474Y-56130200D01*
X54304526Y-56130200D01*
X55392269Y-55913834D01*
X56416900Y-55489418D01*
X57339043Y-54873262D01*
X58123262Y-54089043D01*
X58739418Y-53166900D01*
X59163834Y-52142269D01*
X59380200Y-51054526D01*
X59380200Y-49945474D01*
X59163834Y-48857731D01*
X58739418Y-47833100D01*
X58284527Y-47152306D01*
X73719800Y-47152306D01*
X73719800Y-47847694D01*
X73855464Y-48529721D01*
X74121577Y-49172177D01*
X74507915Y-49750371D01*
X74999629Y-50242085D01*
X75577823Y-50628423D01*
X76220279Y-50894536D01*
X76902306Y-51030200D01*
X77597694Y-51030200D01*
X78279721Y-50894536D01*
X78922177Y-50628423D01*
X79500371Y-50242085D01*
X79992085Y-49750371D01*
X80378423Y-49172177D01*
X80644536Y-48529721D01*
X80780200Y-47847694D01*
X80780200Y-47152306D01*
X80644536Y-46470279D01*
X80378423Y-45827823D01*
X79992085Y-45249629D01*
X79500371Y-44757915D01*
X78922177Y-44371577D01*
X78279721Y-44105464D01*
X77597694Y-43969800D01*
X76902306Y-43969800D01*
X76220279Y-44105464D01*
X75577823Y-44371577D01*
X74999629Y-44757915D01*
X74507915Y-45249629D01*
X74121577Y-45827823D01*
X73855464Y-46470279D01*
X73719800Y-47152306D01*
X58284527Y-47152306D01*
X58123262Y-46910957D01*
X57339043Y-46126738D01*
X56416900Y-45510582D01*
X55392269Y-45086166D01*
X54304526Y-44869800D01*
X53195474Y-44869800D01*
X52107731Y-45086166D01*
X51083100Y-45510582D01*
X50160957Y-46126738D01*
X49376738Y-46910957D01*
X48760582Y-47833100D01*
X48336166Y-48857731D01*
X48119800Y-49945474D01*
X46732599Y-49945474D01*
X46732599Y-40521488D01*
X46765547Y-40152306D01*
X65219800Y-40152306D01*
X65219800Y-40847694D01*
X65355464Y-41529721D01*
X65621577Y-42172177D01*
X66007915Y-42750371D01*
X66499629Y-43242085D01*
X67077823Y-43628423D01*
X67720279Y-43894536D01*
X68402306Y-44030200D01*
X69097694Y-44030200D01*
X69779721Y-43894536D01*
X70422177Y-43628423D01*
X71000371Y-43242085D01*
X71492085Y-42750371D01*
X71878423Y-42172177D01*
X72144536Y-41529721D01*
X72280200Y-40847694D01*
X72280200Y-40152306D01*
X174833048Y-40152306D01*
X174833048Y-40847694D01*
X174968712Y-41529721D01*
X175234825Y-42172177D01*
X175621163Y-42750371D01*
X176112877Y-43242085D01*
X176691071Y-43628423D01*
X177333527Y-43894536D01*
X178015554Y-44030200D01*
X178710942Y-44030200D01*
X179392969Y-43894536D01*
X180035425Y-43628423D01*
X180613619Y-43242085D01*
X181105333Y-42750371D01*
X181491671Y-42172177D01*
X181757784Y-41529721D01*
X181893448Y-40847694D01*
X181893448Y-40152306D01*
X181757784Y-39470279D01*
X181491671Y-38827823D01*
X181105333Y-38249629D01*
X180613619Y-37757915D01*
X180035425Y-37371577D01*
X179392969Y-37105464D01*
X178710942Y-36969800D01*
X178015554Y-36969800D01*
X177333527Y-37105464D01*
X176691071Y-37371577D01*
X176112877Y-37757915D01*
X175621163Y-38249629D01*
X175234825Y-38827823D01*
X174968712Y-39470279D01*
X174833048Y-40152306D01*
X72280200Y-40152306D01*
X72144536Y-39470279D01*
X71878423Y-38827823D01*
X71492085Y-38249629D01*
X71000371Y-37757915D01*
X70422177Y-37371577D01*
X69779721Y-37105464D01*
X69097694Y-36969800D01*
X68402306Y-36969800D01*
X67720279Y-37105464D01*
X67077823Y-37371577D01*
X66499629Y-37757915D01*
X66007915Y-38249629D01*
X65621577Y-38827823D01*
X65355464Y-39470279D01*
X65219800Y-40152306D01*
X46765547Y-40152306D01*
X46805881Y-39700376D01*
X47017718Y-38926032D01*
X47363335Y-38201432D01*
X47831804Y-37549489D01*
X48408316Y-36990809D01*
X49074647Y-36543054D01*
X49809744Y-36220368D01*
X50594079Y-36032066D01*
X51267710Y-35982598D01*
X178341759Y-35982600D01*
M02*
