G04 #@! TF.GenerationSoftware,KiCad,Pcbnew,(5.1.4)-1*
G04 #@! TF.CreationDate,2020-03-27T13:26:32-04:00*
G04 #@! TF.ProjectId,stepUP_lcd,73746570-5550-45f6-9c63-642e6b696361,rev?*
G04 #@! TF.SameCoordinates,Original*
G04 #@! TF.FileFunction,Legend,Bot*
G04 #@! TF.FilePolarity,Positive*
%FSLAX46Y46*%
G04 Gerber Fmt 4.6, Leading zero omitted, Abs format (unit mm)*
G04 Created by KiCad (PCBNEW (5.1.4)-1) date 2020-03-27 13:26:32*
%MOMM*%
%LPD*%
G04 APERTURE LIST*
%ADD10C,0.150000*%
%ADD11C,0.317500*%
%ADD12C,0.476250*%
%ADD13C,0.120000*%
%ADD14C,0.100000*%
%ADD15C,1.051600*%
%ADD16C,0.701600*%
%ADD17R,1.401600X2.101600*%
%ADD18R,2.101600X2.101600*%
%ADD19R,1.301600X4.851600*%
%ADD20R,2.101600X4.301600*%
%ADD21O,1.901600X2.501600*%
%ADD22C,6.501600*%
%ADD23C,10.701600*%
%ADD24C,9.401600*%
%ADD25R,1.851600X0.551600*%
%ADD26R,1.101600X2.611600*%
%ADD27R,3.251600X1.101600*%
G04 APERTURE END LIST*
D10*
X134769047Y-117632380D02*
X134769047Y-118346666D01*
X134816666Y-118489523D01*
X134911904Y-118584761D01*
X135054761Y-118632380D01*
X135150000Y-118632380D01*
X133816666Y-118632380D02*
X134292857Y-118632380D01*
X134292857Y-117632380D01*
X132911904Y-118537142D02*
X132959523Y-118584761D01*
X133102380Y-118632380D01*
X133197619Y-118632380D01*
X133340476Y-118584761D01*
X133435714Y-118489523D01*
X133483333Y-118394285D01*
X133530952Y-118203809D01*
X133530952Y-118060952D01*
X133483333Y-117870476D01*
X133435714Y-117775238D01*
X133340476Y-117680000D01*
X133197619Y-117632380D01*
X133102380Y-117632380D01*
X132959523Y-117680000D01*
X132911904Y-117727619D01*
X132197619Y-117632380D02*
X132197619Y-118346666D01*
X132245238Y-118489523D01*
X132340476Y-118584761D01*
X132483333Y-118632380D01*
X132578571Y-118632380D01*
X131245238Y-118632380D02*
X131721428Y-118632380D01*
X131721428Y-117632380D01*
X130340476Y-118537142D02*
X130388095Y-118584761D01*
X130530952Y-118632380D01*
X130626190Y-118632380D01*
X130769047Y-118584761D01*
X130864285Y-118489523D01*
X130911904Y-118394285D01*
X130959523Y-118203809D01*
X130959523Y-118060952D01*
X130911904Y-117870476D01*
X130864285Y-117775238D01*
X130769047Y-117680000D01*
X130626190Y-117632380D01*
X130530952Y-117632380D01*
X130388095Y-117680000D01*
X130340476Y-117727619D01*
X129626190Y-117632380D02*
X129626190Y-118346666D01*
X129673809Y-118489523D01*
X129769047Y-118584761D01*
X129911904Y-118632380D01*
X130007142Y-118632380D01*
X128673809Y-118632380D02*
X129150000Y-118632380D01*
X129150000Y-117632380D01*
X127769047Y-118537142D02*
X127816666Y-118584761D01*
X127959523Y-118632380D01*
X128054761Y-118632380D01*
X128197619Y-118584761D01*
X128292857Y-118489523D01*
X128340476Y-118394285D01*
X128388095Y-118203809D01*
X128388095Y-118060952D01*
X128340476Y-117870476D01*
X128292857Y-117775238D01*
X128197619Y-117680000D01*
X128054761Y-117632380D01*
X127959523Y-117632380D01*
X127816666Y-117680000D01*
X127769047Y-117727619D01*
X127054761Y-117632380D02*
X127054761Y-118346666D01*
X127102380Y-118489523D01*
X127197619Y-118584761D01*
X127340476Y-118632380D01*
X127435714Y-118632380D01*
X126102380Y-118632380D02*
X126578571Y-118632380D01*
X126578571Y-117632380D01*
X125197619Y-118537142D02*
X125245238Y-118584761D01*
X125388095Y-118632380D01*
X125483333Y-118632380D01*
X125626190Y-118584761D01*
X125721428Y-118489523D01*
X125769047Y-118394285D01*
X125816666Y-118203809D01*
X125816666Y-118060952D01*
X125769047Y-117870476D01*
X125721428Y-117775238D01*
X125626190Y-117680000D01*
X125483333Y-117632380D01*
X125388095Y-117632380D01*
X125245238Y-117680000D01*
X125197619Y-117727619D01*
D11*
X135713809Y-102244523D02*
X135713809Y-100974523D01*
X135169523Y-102184047D02*
X135048571Y-102244523D01*
X134806666Y-102244523D01*
X134685714Y-102184047D01*
X134625238Y-102063095D01*
X134625238Y-102002619D01*
X134685714Y-101881666D01*
X134806666Y-101821190D01*
X134988095Y-101821190D01*
X135109047Y-101760714D01*
X135169523Y-101639761D01*
X135169523Y-101579285D01*
X135109047Y-101458333D01*
X134988095Y-101397857D01*
X134806666Y-101397857D01*
X134685714Y-101458333D01*
X134080952Y-102244523D02*
X134080952Y-100974523D01*
X133536666Y-102244523D02*
X133536666Y-101579285D01*
X133597142Y-101458333D01*
X133718095Y-101397857D01*
X133899523Y-101397857D01*
X134020476Y-101458333D01*
X134080952Y-101518809D01*
X132387619Y-102244523D02*
X132387619Y-101579285D01*
X132448095Y-101458333D01*
X132569047Y-101397857D01*
X132810952Y-101397857D01*
X132931904Y-101458333D01*
X132387619Y-102184047D02*
X132508571Y-102244523D01*
X132810952Y-102244523D01*
X132931904Y-102184047D01*
X132992380Y-102063095D01*
X132992380Y-101942142D01*
X132931904Y-101821190D01*
X132810952Y-101760714D01*
X132508571Y-101760714D01*
X132387619Y-101700238D01*
X131238571Y-102244523D02*
X131238571Y-101579285D01*
X131299047Y-101458333D01*
X131420000Y-101397857D01*
X131661904Y-101397857D01*
X131782857Y-101458333D01*
X131238571Y-102184047D02*
X131359523Y-102244523D01*
X131661904Y-102244523D01*
X131782857Y-102184047D01*
X131843333Y-102063095D01*
X131843333Y-101942142D01*
X131782857Y-101821190D01*
X131661904Y-101760714D01*
X131359523Y-101760714D01*
X131238571Y-101700238D01*
X130633809Y-101397857D02*
X130633809Y-102244523D01*
X130633809Y-101518809D02*
X130573333Y-101458333D01*
X130452380Y-101397857D01*
X130270952Y-101397857D01*
X130150000Y-101458333D01*
X130089523Y-101579285D01*
X130089523Y-102244523D01*
X127851904Y-101035000D02*
X127972857Y-100974523D01*
X128154285Y-100974523D01*
X128335714Y-101035000D01*
X128456666Y-101155952D01*
X128517142Y-101276904D01*
X128577619Y-101518809D01*
X128577619Y-101700238D01*
X128517142Y-101942142D01*
X128456666Y-102063095D01*
X128335714Y-102184047D01*
X128154285Y-102244523D01*
X128033333Y-102244523D01*
X127851904Y-102184047D01*
X127791428Y-102123571D01*
X127791428Y-101700238D01*
X128033333Y-101700238D01*
X127065714Y-102244523D02*
X127186666Y-102184047D01*
X127247142Y-102123571D01*
X127307619Y-102002619D01*
X127307619Y-101639761D01*
X127247142Y-101518809D01*
X127186666Y-101458333D01*
X127065714Y-101397857D01*
X126884285Y-101397857D01*
X126763333Y-101458333D01*
X126702857Y-101518809D01*
X126642380Y-101639761D01*
X126642380Y-102002619D01*
X126702857Y-102123571D01*
X126763333Y-102184047D01*
X126884285Y-102244523D01*
X127065714Y-102244523D01*
X126219047Y-101397857D02*
X125916666Y-102244523D01*
X125614285Y-101397857D01*
X125130476Y-102244523D02*
X125130476Y-101397857D01*
X125130476Y-100974523D02*
X125190952Y-101035000D01*
X125130476Y-101095476D01*
X125070000Y-101035000D01*
X125130476Y-100974523D01*
X125130476Y-101095476D01*
X124525714Y-101397857D02*
X124525714Y-102244523D01*
X124525714Y-101518809D02*
X124465238Y-101458333D01*
X124344285Y-101397857D01*
X124162857Y-101397857D01*
X124041904Y-101458333D01*
X123981428Y-101579285D01*
X123981428Y-102244523D01*
X122832380Y-102244523D02*
X122832380Y-100974523D01*
X122832380Y-102184047D02*
X122953333Y-102244523D01*
X123195238Y-102244523D01*
X123316190Y-102184047D01*
X123376666Y-102123571D01*
X123437142Y-102002619D01*
X123437142Y-101639761D01*
X123376666Y-101518809D01*
X123316190Y-101458333D01*
X123195238Y-101397857D01*
X122953333Y-101397857D01*
X122832380Y-101458333D01*
X121683333Y-102244523D02*
X121683333Y-101579285D01*
X121743809Y-101458333D01*
X121864761Y-101397857D01*
X122106666Y-101397857D01*
X122227619Y-101458333D01*
X121683333Y-102184047D02*
X121804285Y-102244523D01*
X122106666Y-102244523D01*
X122227619Y-102184047D01*
X122288095Y-102063095D01*
X122288095Y-101942142D01*
X122227619Y-101821190D01*
X122106666Y-101760714D01*
X121804285Y-101760714D01*
X121683333Y-101700238D01*
X121078571Y-102244523D02*
X121078571Y-101397857D01*
X121078571Y-101639761D02*
X121018095Y-101518809D01*
X120957619Y-101458333D01*
X120836666Y-101397857D01*
X120715714Y-101397857D01*
X119748095Y-102244523D02*
X119748095Y-101579285D01*
X119808571Y-101458333D01*
X119929523Y-101397857D01*
X120171428Y-101397857D01*
X120292380Y-101458333D01*
X119748095Y-102184047D02*
X119869047Y-102244523D01*
X120171428Y-102244523D01*
X120292380Y-102184047D01*
X120352857Y-102063095D01*
X120352857Y-101942142D01*
X120292380Y-101821190D01*
X120171428Y-101760714D01*
X119869047Y-101760714D01*
X119748095Y-101700238D01*
X119143333Y-101397857D02*
X119143333Y-102486428D01*
X119203809Y-102607380D01*
X119324761Y-102667857D01*
X119385238Y-102667857D01*
X119143333Y-100974523D02*
X119203809Y-101035000D01*
X119143333Y-101095476D01*
X119082857Y-101035000D01*
X119143333Y-100974523D01*
X119143333Y-101095476D01*
X117994285Y-102244523D02*
X117994285Y-101579285D01*
X118054761Y-101458333D01*
X118175714Y-101397857D01*
X118417619Y-101397857D01*
X118538571Y-101458333D01*
X117994285Y-102184047D02*
X118115238Y-102244523D01*
X118417619Y-102244523D01*
X118538571Y-102184047D01*
X118599047Y-102063095D01*
X118599047Y-101942142D01*
X118538571Y-101821190D01*
X118417619Y-101760714D01*
X118115238Y-101760714D01*
X117994285Y-101700238D01*
X117389523Y-101397857D02*
X117389523Y-102244523D01*
X117389523Y-101518809D02*
X117329047Y-101458333D01*
X117208095Y-101397857D01*
X117026666Y-101397857D01*
X116905714Y-101458333D01*
X116845238Y-101579285D01*
X116845238Y-102244523D01*
X114910000Y-100974523D02*
X114910000Y-101881666D01*
X114970476Y-102063095D01*
X115091428Y-102184047D01*
X115272857Y-102244523D01*
X115393809Y-102244523D01*
X113760952Y-102244523D02*
X113760952Y-101579285D01*
X113821428Y-101458333D01*
X113942380Y-101397857D01*
X114184285Y-101397857D01*
X114305238Y-101458333D01*
X113760952Y-102184047D02*
X113881904Y-102244523D01*
X114184285Y-102244523D01*
X114305238Y-102184047D01*
X114365714Y-102063095D01*
X114365714Y-101942142D01*
X114305238Y-101821190D01*
X114184285Y-101760714D01*
X113881904Y-101760714D01*
X113760952Y-101700238D01*
X113156190Y-101397857D02*
X113156190Y-102244523D01*
X113156190Y-101518809D02*
X113095714Y-101458333D01*
X112974761Y-101397857D01*
X112793333Y-101397857D01*
X112672380Y-101458333D01*
X112611904Y-101579285D01*
X112611904Y-102244523D01*
X111100000Y-101095476D02*
X111039523Y-101035000D01*
X110918571Y-100974523D01*
X110616190Y-100974523D01*
X110495238Y-101035000D01*
X110434761Y-101095476D01*
X110374285Y-101216428D01*
X110374285Y-101337380D01*
X110434761Y-101518809D01*
X111160476Y-102244523D01*
X110374285Y-102244523D01*
X109588095Y-100974523D02*
X109467142Y-100974523D01*
X109346190Y-101035000D01*
X109285714Y-101095476D01*
X109225238Y-101216428D01*
X109164761Y-101458333D01*
X109164761Y-101760714D01*
X109225238Y-102002619D01*
X109285714Y-102123571D01*
X109346190Y-102184047D01*
X109467142Y-102244523D01*
X109588095Y-102244523D01*
X109709047Y-102184047D01*
X109769523Y-102123571D01*
X109830000Y-102002619D01*
X109890476Y-101760714D01*
X109890476Y-101458333D01*
X109830000Y-101216428D01*
X109769523Y-101095476D01*
X109709047Y-101035000D01*
X109588095Y-100974523D01*
X108680952Y-101095476D02*
X108620476Y-101035000D01*
X108499523Y-100974523D01*
X108197142Y-100974523D01*
X108076190Y-101035000D01*
X108015714Y-101095476D01*
X107955238Y-101216428D01*
X107955238Y-101337380D01*
X108015714Y-101518809D01*
X108741428Y-102244523D01*
X107955238Y-102244523D01*
X107169047Y-100974523D02*
X107048095Y-100974523D01*
X106927142Y-101035000D01*
X106866666Y-101095476D01*
X106806190Y-101216428D01*
X106745714Y-101458333D01*
X106745714Y-101760714D01*
X106806190Y-102002619D01*
X106866666Y-102123571D01*
X106927142Y-102184047D01*
X107048095Y-102244523D01*
X107169047Y-102244523D01*
X107290000Y-102184047D01*
X107350476Y-102123571D01*
X107410952Y-102002619D01*
X107471428Y-101760714D01*
X107471428Y-101458333D01*
X107410952Y-101216428D01*
X107350476Y-101095476D01*
X107290000Y-101035000D01*
X107169047Y-100974523D01*
D12*
X136590714Y-99901071D02*
X136409285Y-99991785D01*
X136046428Y-99991785D01*
X135865000Y-99901071D01*
X135774285Y-99719642D01*
X135774285Y-99628928D01*
X135865000Y-99447500D01*
X136046428Y-99356785D01*
X136318571Y-99356785D01*
X136500000Y-99266071D01*
X136590714Y-99084642D01*
X136590714Y-98993928D01*
X136500000Y-98812500D01*
X136318571Y-98721785D01*
X136046428Y-98721785D01*
X135865000Y-98812500D01*
X135230000Y-98721785D02*
X134504285Y-98721785D01*
X134957857Y-98086785D02*
X134957857Y-99719642D01*
X134867142Y-99901071D01*
X134685714Y-99991785D01*
X134504285Y-99991785D01*
X133143571Y-99901071D02*
X133325000Y-99991785D01*
X133687857Y-99991785D01*
X133869285Y-99901071D01*
X133960000Y-99719642D01*
X133960000Y-98993928D01*
X133869285Y-98812500D01*
X133687857Y-98721785D01*
X133325000Y-98721785D01*
X133143571Y-98812500D01*
X133052857Y-98993928D01*
X133052857Y-99175357D01*
X133960000Y-99356785D01*
X132236428Y-98721785D02*
X132236428Y-100626785D01*
X132236428Y-98812500D02*
X132055000Y-98721785D01*
X131692142Y-98721785D01*
X131510714Y-98812500D01*
X131420000Y-98903214D01*
X131329285Y-99084642D01*
X131329285Y-99628928D01*
X131420000Y-99810357D01*
X131510714Y-99901071D01*
X131692142Y-99991785D01*
X132055000Y-99991785D01*
X132236428Y-99901071D01*
X130512857Y-98086785D02*
X130512857Y-99628928D01*
X130422142Y-99810357D01*
X130331428Y-99901071D01*
X130150000Y-99991785D01*
X129787142Y-99991785D01*
X129605714Y-99901071D01*
X129515000Y-99810357D01*
X129424285Y-99628928D01*
X129424285Y-98086785D01*
X128517142Y-99991785D02*
X128517142Y-98086785D01*
X127791428Y-98086785D01*
X127610000Y-98177500D01*
X127519285Y-98268214D01*
X127428571Y-98449642D01*
X127428571Y-98721785D01*
X127519285Y-98903214D01*
X127610000Y-98993928D01*
X127791428Y-99084642D01*
X128517142Y-99084642D01*
X124253571Y-99991785D02*
X125160714Y-99991785D01*
X125160714Y-98086785D01*
X122530000Y-99810357D02*
X122620714Y-99901071D01*
X122892857Y-99991785D01*
X123074285Y-99991785D01*
X123346428Y-99901071D01*
X123527857Y-99719642D01*
X123618571Y-99538214D01*
X123709285Y-99175357D01*
X123709285Y-98903214D01*
X123618571Y-98540357D01*
X123527857Y-98358928D01*
X123346428Y-98177500D01*
X123074285Y-98086785D01*
X122892857Y-98086785D01*
X122620714Y-98177500D01*
X122530000Y-98268214D01*
X121713571Y-99991785D02*
X121713571Y-98086785D01*
X121260000Y-98086785D01*
X120987857Y-98177500D01*
X120806428Y-98358928D01*
X120715714Y-98540357D01*
X120625000Y-98903214D01*
X120625000Y-99175357D01*
X120715714Y-99538214D01*
X120806428Y-99719642D01*
X120987857Y-99901071D01*
X121260000Y-99991785D01*
X121713571Y-99991785D01*
X117268571Y-99991785D02*
X117903571Y-99084642D01*
X118357142Y-99991785D02*
X118357142Y-98086785D01*
X117631428Y-98086785D01*
X117450000Y-98177500D01*
X117359285Y-98268214D01*
X117268571Y-98449642D01*
X117268571Y-98721785D01*
X117359285Y-98903214D01*
X117450000Y-98993928D01*
X117631428Y-99084642D01*
X118357142Y-99084642D01*
X115726428Y-99901071D02*
X115907857Y-99991785D01*
X116270714Y-99991785D01*
X116452142Y-99901071D01*
X116542857Y-99719642D01*
X116542857Y-98993928D01*
X116452142Y-98812500D01*
X116270714Y-98721785D01*
X115907857Y-98721785D01*
X115726428Y-98812500D01*
X115635714Y-98993928D01*
X115635714Y-99175357D01*
X116542857Y-99356785D01*
X114819285Y-99991785D02*
X114819285Y-98721785D01*
X114819285Y-98903214D02*
X114728571Y-98812500D01*
X114547142Y-98721785D01*
X114275000Y-98721785D01*
X114093571Y-98812500D01*
X114002857Y-98993928D01*
X114002857Y-99991785D01*
X114002857Y-98993928D02*
X113912142Y-98812500D01*
X113730714Y-98721785D01*
X113458571Y-98721785D01*
X113277142Y-98812500D01*
X113186428Y-98993928D01*
X113186428Y-99991785D01*
X111462857Y-99991785D02*
X111462857Y-98993928D01*
X111553571Y-98812500D01*
X111735000Y-98721785D01*
X112097857Y-98721785D01*
X112279285Y-98812500D01*
X111462857Y-99901071D02*
X111644285Y-99991785D01*
X112097857Y-99991785D01*
X112279285Y-99901071D01*
X112370000Y-99719642D01*
X112370000Y-99538214D01*
X112279285Y-99356785D01*
X112097857Y-99266071D01*
X111644285Y-99266071D01*
X111462857Y-99175357D01*
X110646428Y-99901071D02*
X110465000Y-99991785D01*
X110102142Y-99991785D01*
X109920714Y-99901071D01*
X109830000Y-99719642D01*
X109830000Y-99628928D01*
X109920714Y-99447500D01*
X110102142Y-99356785D01*
X110374285Y-99356785D01*
X110555714Y-99266071D01*
X110646428Y-99084642D01*
X110646428Y-98993928D01*
X110555714Y-98812500D01*
X110374285Y-98721785D01*
X110102142Y-98721785D01*
X109920714Y-98812500D01*
X109285714Y-98721785D02*
X108560000Y-98721785D01*
X109013571Y-98086785D02*
X109013571Y-99719642D01*
X108922857Y-99901071D01*
X108741428Y-99991785D01*
X108560000Y-99991785D01*
X107199285Y-99901071D02*
X107380714Y-99991785D01*
X107743571Y-99991785D01*
X107925000Y-99901071D01*
X108015714Y-99719642D01*
X108015714Y-98993928D01*
X107925000Y-98812500D01*
X107743571Y-98721785D01*
X107380714Y-98721785D01*
X107199285Y-98812500D01*
X107108571Y-98993928D01*
X107108571Y-99175357D01*
X108015714Y-99356785D01*
X106292142Y-99991785D02*
X106292142Y-98721785D01*
X106292142Y-99084642D02*
X106201428Y-98903214D01*
X106110714Y-98812500D01*
X105929285Y-98721785D01*
X105747857Y-98721785D01*
D13*
X194031000Y-92018000D02*
X195936000Y-92018000D01*
X180486267Y-73220000D02*
X180143733Y-73220000D01*
X180486267Y-74240000D02*
X180143733Y-74240000D01*
X180486267Y-75760000D02*
X180143733Y-75760000D01*
X180486267Y-76780000D02*
X180143733Y-76780000D01*
X211293000Y-81306000D02*
X213243000Y-81306000D01*
X211293000Y-81306000D02*
X209343000Y-81306000D01*
X211293000Y-86426000D02*
X213243000Y-86426000D01*
X211293000Y-86426000D02*
X207843000Y-86426000D01*
X70595000Y-59840000D02*
X71175000Y-59840000D01*
X68295000Y-59840000D02*
X68815000Y-59840000D01*
X65935000Y-59840000D02*
X66516000Y-59840000D01*
X69795000Y-54600000D02*
X71175000Y-54600000D01*
X65935000Y-54600000D02*
X67315000Y-54600000D01*
X71175000Y-54600000D02*
X71175000Y-59840000D01*
X65935000Y-54600000D02*
X65935000Y-59840000D01*
X193590000Y-95260000D02*
X193590000Y-100460000D01*
X206410000Y-95260000D02*
X206410000Y-100460000D01*
X194160000Y-93820000D02*
X194160000Y-95260000D01*
X193590000Y-95260000D02*
X194160000Y-95260000D01*
X193590000Y-100460000D02*
X194160000Y-100460000D01*
X205840000Y-95260000D02*
X206410000Y-95260000D01*
X205840000Y-100460000D02*
X206410000Y-100460000D01*
X195680000Y-95260000D02*
X196700000Y-95260000D01*
X195680000Y-100460000D02*
X196700000Y-100460000D01*
X198220000Y-95260000D02*
X199240000Y-95260000D01*
X198220000Y-100460000D02*
X199240000Y-100460000D01*
X200760000Y-95260000D02*
X201780000Y-95260000D01*
X200760000Y-100460000D02*
X201780000Y-100460000D01*
X203300000Y-95260000D02*
X204320000Y-95260000D01*
X203300000Y-100460000D02*
X204320000Y-100460000D01*
X209370000Y-77400000D02*
X208970000Y-77400000D01*
X209370000Y-79600000D02*
X209370000Y-77400000D01*
X209370000Y-72600000D02*
X209370000Y-70400000D01*
X218570000Y-72600000D02*
X218570000Y-70400000D01*
X218570000Y-70400000D02*
X209370000Y-70400000D01*
X218570000Y-79600000D02*
X218570000Y-77400000D01*
X209370000Y-79600000D02*
X218570000Y-79600000D01*
X73330000Y-84080000D02*
X69445000Y-84080000D01*
X69445000Y-84080000D02*
X69445000Y-81160000D01*
X69445000Y-81160000D02*
X73330000Y-81160000D01*
X73330000Y-68840000D02*
X69445000Y-68840000D01*
X69445000Y-68840000D02*
X69445000Y-65920000D01*
X69445000Y-65920000D02*
X73330000Y-65920000D01*
X73330000Y-76460000D02*
X69445000Y-76460000D01*
X69445000Y-76460000D02*
X69445000Y-73540000D01*
X69445000Y-73540000D02*
X73330000Y-73540000D01*
D10*
X197125000Y-66355000D02*
X197125000Y-65780000D01*
X202875000Y-66355000D02*
X202875000Y-65705000D01*
X202875000Y-55705000D02*
X202875000Y-56355000D01*
X197125000Y-55705000D02*
X197125000Y-56355000D01*
X197125000Y-66355000D02*
X202875000Y-66355000D01*
X197125000Y-55705000D02*
X202875000Y-55705000D01*
X197125000Y-65780000D02*
X195525000Y-65780000D01*
D13*
X71901267Y-79320000D02*
X71558733Y-79320000D01*
X71901267Y-78300000D02*
X71558733Y-78300000D01*
X71901267Y-64080000D02*
X71558733Y-64080000D01*
X71901267Y-63060000D02*
X71558733Y-63060000D01*
X71901267Y-71700000D02*
X71558733Y-71700000D01*
X71901267Y-70680000D02*
X71558733Y-70680000D01*
X183615000Y-98031267D02*
X183615000Y-97688733D01*
X184635000Y-98031267D02*
X184635000Y-97688733D01*
X185520000Y-98031267D02*
X185520000Y-97688733D01*
X186540000Y-98031267D02*
X186540000Y-97688733D01*
X187425000Y-98031267D02*
X187425000Y-97688733D01*
X188445000Y-98031267D02*
X188445000Y-97688733D01*
X131591267Y-50110000D02*
X131248733Y-50110000D01*
X131591267Y-49090000D02*
X131248733Y-49090000D01*
X131591267Y-48205000D02*
X131248733Y-48205000D01*
X131591267Y-47185000D02*
X131248733Y-47185000D01*
X131591267Y-46300000D02*
X131248733Y-46300000D01*
X131591267Y-45280000D02*
X131248733Y-45280000D01*
X215365000Y-84061267D02*
X215365000Y-83718733D01*
X216385000Y-84061267D02*
X216385000Y-83718733D01*
X206860000Y-60858733D02*
X206860000Y-61201267D01*
X205840000Y-60858733D02*
X205840000Y-61201267D01*
X206860000Y-83718733D02*
X206860000Y-84061267D01*
X205840000Y-83718733D02*
X205840000Y-84061267D01*
X129260000Y-48830000D02*
X129260000Y-46170000D01*
X83420000Y-48830000D02*
X83420000Y-46170000D01*
X129260000Y-46170000D02*
X126150000Y-46170000D01*
X128690000Y-48830000D02*
X128690000Y-50350000D01*
X129260000Y-48830000D02*
X128690000Y-48830000D01*
X83990000Y-46170000D02*
X83420000Y-46170000D01*
X124630000Y-46170000D02*
X121070000Y-46170000D01*
X119550000Y-46170000D02*
X115990000Y-46170000D01*
X114470000Y-46170000D02*
X110910000Y-46170000D01*
X109390000Y-46170000D02*
X105830000Y-46170000D01*
X104310000Y-46170000D02*
X100750000Y-46170000D01*
X99230000Y-46170000D02*
X95670000Y-46170000D01*
X94150000Y-46170000D02*
X90590000Y-46170000D01*
X89070000Y-46170000D02*
X85510000Y-46170000D01*
X127170000Y-48830000D02*
X123610000Y-48830000D01*
X122090000Y-48830000D02*
X118530000Y-48830000D01*
X117010000Y-48830000D02*
X113450000Y-48830000D01*
X111930000Y-48830000D02*
X108370000Y-48830000D01*
X106850000Y-48830000D02*
X103290000Y-48830000D01*
X101770000Y-48830000D02*
X98210000Y-48830000D01*
X96690000Y-48830000D02*
X93130000Y-48830000D01*
X91610000Y-48830000D02*
X88050000Y-48830000D01*
X86530000Y-48830000D02*
X83420000Y-48830000D01*
X184700000Y-77030000D02*
X184700000Y-78050000D01*
X189900000Y-77030000D02*
X189900000Y-78050000D01*
X184700000Y-74490000D02*
X184700000Y-75510000D01*
X189900000Y-74490000D02*
X189900000Y-75510000D01*
X184700000Y-71950000D02*
X184700000Y-72970000D01*
X189900000Y-71950000D02*
X189900000Y-72970000D01*
X184700000Y-79570000D02*
X184700000Y-80140000D01*
X189900000Y-79570000D02*
X189900000Y-80140000D01*
X184700000Y-69860000D02*
X184700000Y-70430000D01*
X189900000Y-69860000D02*
X189900000Y-70430000D01*
X191340000Y-70430000D02*
X189900000Y-70430000D01*
X189900000Y-80140000D02*
X184700000Y-80140000D01*
X189900000Y-69860000D02*
X184700000Y-69860000D01*
X218290000Y-83718733D02*
X218290000Y-84061267D01*
X217270000Y-83718733D02*
X217270000Y-84061267D01*
X200171267Y-55190000D02*
X199828733Y-55190000D01*
X200171267Y-54170000D02*
X199828733Y-54170000D01*
D10*
X177751047Y-74182380D02*
X178084380Y-73706190D01*
X178322476Y-74182380D02*
X178322476Y-73182380D01*
X177941523Y-73182380D01*
X177846285Y-73230000D01*
X177798666Y-73277619D01*
X177751047Y-73372857D01*
X177751047Y-73515714D01*
X177798666Y-73610952D01*
X177846285Y-73658571D01*
X177941523Y-73706190D01*
X178322476Y-73706190D01*
X176798666Y-74182380D02*
X177370095Y-74182380D01*
X177084380Y-74182380D02*
X177084380Y-73182380D01*
X177179619Y-73325238D01*
X177274857Y-73420476D01*
X177370095Y-73468095D01*
X176179619Y-73182380D02*
X176084380Y-73182380D01*
X175989142Y-73230000D01*
X175941523Y-73277619D01*
X175893904Y-73372857D01*
X175846285Y-73563333D01*
X175846285Y-73801428D01*
X175893904Y-73991904D01*
X175941523Y-74087142D01*
X175989142Y-74134761D01*
X176084380Y-74182380D01*
X176179619Y-74182380D01*
X176274857Y-74134761D01*
X176322476Y-74087142D01*
X176370095Y-73991904D01*
X176417714Y-73801428D01*
X176417714Y-73563333D01*
X176370095Y-73372857D01*
X176322476Y-73277619D01*
X176274857Y-73230000D01*
X176179619Y-73182380D01*
X175465333Y-73277619D02*
X175417714Y-73230000D01*
X175322476Y-73182380D01*
X175084380Y-73182380D01*
X174989142Y-73230000D01*
X174941523Y-73277619D01*
X174893904Y-73372857D01*
X174893904Y-73468095D01*
X174941523Y-73610952D01*
X175512952Y-74182380D01*
X174893904Y-74182380D01*
X177751047Y-76722380D02*
X178084380Y-76246190D01*
X178322476Y-76722380D02*
X178322476Y-75722380D01*
X177941523Y-75722380D01*
X177846285Y-75770000D01*
X177798666Y-75817619D01*
X177751047Y-75912857D01*
X177751047Y-76055714D01*
X177798666Y-76150952D01*
X177846285Y-76198571D01*
X177941523Y-76246190D01*
X178322476Y-76246190D01*
X176798666Y-76722380D02*
X177370095Y-76722380D01*
X177084380Y-76722380D02*
X177084380Y-75722380D01*
X177179619Y-75865238D01*
X177274857Y-75960476D01*
X177370095Y-76008095D01*
X176179619Y-75722380D02*
X176084380Y-75722380D01*
X175989142Y-75770000D01*
X175941523Y-75817619D01*
X175893904Y-75912857D01*
X175846285Y-76103333D01*
X175846285Y-76341428D01*
X175893904Y-76531904D01*
X175941523Y-76627142D01*
X175989142Y-76674761D01*
X176084380Y-76722380D01*
X176179619Y-76722380D01*
X176274857Y-76674761D01*
X176322476Y-76627142D01*
X176370095Y-76531904D01*
X176417714Y-76341428D01*
X176417714Y-76103333D01*
X176370095Y-75912857D01*
X176322476Y-75817619D01*
X176274857Y-75770000D01*
X176179619Y-75722380D01*
X174893904Y-76722380D02*
X175465333Y-76722380D01*
X175179619Y-76722380D02*
X175179619Y-75722380D01*
X175274857Y-75865238D01*
X175370095Y-75960476D01*
X175465333Y-76008095D01*
X212054904Y-86718380D02*
X212054904Y-87527904D01*
X212007285Y-87623142D01*
X211959666Y-87670761D01*
X211864428Y-87718380D01*
X211673952Y-87718380D01*
X211578714Y-87670761D01*
X211531095Y-87623142D01*
X211483476Y-87527904D01*
X211483476Y-86718380D01*
X211054904Y-86813619D02*
X211007285Y-86766000D01*
X210912047Y-86718380D01*
X210673952Y-86718380D01*
X210578714Y-86766000D01*
X210531095Y-86813619D01*
X210483476Y-86908857D01*
X210483476Y-87004095D01*
X210531095Y-87146952D01*
X211102523Y-87718380D01*
X210483476Y-87718380D01*
X65257380Y-56624761D02*
X64781190Y-56291428D01*
X65257380Y-56053333D02*
X64257380Y-56053333D01*
X64257380Y-56434285D01*
X64305000Y-56529523D01*
X64352619Y-56577142D01*
X64447857Y-56624761D01*
X64590714Y-56624761D01*
X64685952Y-56577142D01*
X64733571Y-56529523D01*
X64781190Y-56434285D01*
X64781190Y-56053333D01*
X64257380Y-56910476D02*
X65257380Y-57243809D01*
X64257380Y-57577142D01*
X65257380Y-58434285D02*
X65257380Y-57862857D01*
X65257380Y-58148571D02*
X64257380Y-58148571D01*
X64400238Y-58053333D01*
X64495476Y-57958095D01*
X64543095Y-57862857D01*
X192042380Y-97526666D02*
X192756666Y-97526666D01*
X192899523Y-97479047D01*
X192994761Y-97383809D01*
X193042380Y-97240952D01*
X193042380Y-97145714D01*
X193042380Y-98526666D02*
X193042380Y-97955238D01*
X193042380Y-98240952D02*
X192042380Y-98240952D01*
X192185238Y-98145714D01*
X192280476Y-98050476D01*
X192328095Y-97955238D01*
X214850952Y-69213571D02*
X214708095Y-69261190D01*
X214660476Y-69308809D01*
X214612857Y-69404047D01*
X214612857Y-69546904D01*
X214660476Y-69642142D01*
X214708095Y-69689761D01*
X214803333Y-69737380D01*
X215184285Y-69737380D01*
X215184285Y-68737380D01*
X214850952Y-68737380D01*
X214755714Y-68785000D01*
X214708095Y-68832619D01*
X214660476Y-68927857D01*
X214660476Y-69023095D01*
X214708095Y-69118333D01*
X214755714Y-69165952D01*
X214850952Y-69213571D01*
X215184285Y-69213571D01*
X214279523Y-68737380D02*
X213612857Y-68737380D01*
X214279523Y-69737380D01*
X213612857Y-69737380D01*
X212708095Y-69737380D02*
X213279523Y-69737380D01*
X212993809Y-69737380D02*
X212993809Y-68737380D01*
X213089047Y-68880238D01*
X213184285Y-68975476D01*
X213279523Y-69023095D01*
X68912095Y-83072380D02*
X68912095Y-82072380D01*
X68674000Y-82072380D01*
X68531142Y-82120000D01*
X68435904Y-82215238D01*
X68388285Y-82310476D01*
X68340666Y-82500952D01*
X68340666Y-82643809D01*
X68388285Y-82834285D01*
X68435904Y-82929523D01*
X68531142Y-83024761D01*
X68674000Y-83072380D01*
X68912095Y-83072380D01*
X68007333Y-82072380D02*
X67388285Y-82072380D01*
X67721619Y-82453333D01*
X67578761Y-82453333D01*
X67483523Y-82500952D01*
X67435904Y-82548571D01*
X67388285Y-82643809D01*
X67388285Y-82881904D01*
X67435904Y-82977142D01*
X67483523Y-83024761D01*
X67578761Y-83072380D01*
X67864476Y-83072380D01*
X67959714Y-83024761D01*
X68007333Y-82977142D01*
X68912095Y-67832380D02*
X68912095Y-66832380D01*
X68674000Y-66832380D01*
X68531142Y-66880000D01*
X68435904Y-66975238D01*
X68388285Y-67070476D01*
X68340666Y-67260952D01*
X68340666Y-67403809D01*
X68388285Y-67594285D01*
X68435904Y-67689523D01*
X68531142Y-67784761D01*
X68674000Y-67832380D01*
X68912095Y-67832380D01*
X67959714Y-66927619D02*
X67912095Y-66880000D01*
X67816857Y-66832380D01*
X67578761Y-66832380D01*
X67483523Y-66880000D01*
X67435904Y-66927619D01*
X67388285Y-67022857D01*
X67388285Y-67118095D01*
X67435904Y-67260952D01*
X68007333Y-67832380D01*
X67388285Y-67832380D01*
X68912095Y-75452380D02*
X68912095Y-74452380D01*
X68674000Y-74452380D01*
X68531142Y-74500000D01*
X68435904Y-74595238D01*
X68388285Y-74690476D01*
X68340666Y-74880952D01*
X68340666Y-75023809D01*
X68388285Y-75214285D01*
X68435904Y-75309523D01*
X68531142Y-75404761D01*
X68674000Y-75452380D01*
X68912095Y-75452380D01*
X67388285Y-75452380D02*
X67959714Y-75452380D01*
X67674000Y-75452380D02*
X67674000Y-74452380D01*
X67769238Y-74595238D01*
X67864476Y-74690476D01*
X67959714Y-74738095D01*
X200761904Y-66732380D02*
X200761904Y-67541904D01*
X200714285Y-67637142D01*
X200666666Y-67684761D01*
X200571428Y-67732380D01*
X200380952Y-67732380D01*
X200285714Y-67684761D01*
X200238095Y-67637142D01*
X200190476Y-67541904D01*
X200190476Y-66732380D01*
X199809523Y-66732380D02*
X199190476Y-66732380D01*
X199523809Y-67113333D01*
X199380952Y-67113333D01*
X199285714Y-67160952D01*
X199238095Y-67208571D01*
X199190476Y-67303809D01*
X199190476Y-67541904D01*
X199238095Y-67637142D01*
X199285714Y-67684761D01*
X199380952Y-67732380D01*
X199666666Y-67732380D01*
X199761904Y-67684761D01*
X199809523Y-67637142D01*
X69197857Y-79262380D02*
X69531190Y-78786190D01*
X69769285Y-79262380D02*
X69769285Y-78262380D01*
X69388333Y-78262380D01*
X69293095Y-78310000D01*
X69245476Y-78357619D01*
X69197857Y-78452857D01*
X69197857Y-78595714D01*
X69245476Y-78690952D01*
X69293095Y-78738571D01*
X69388333Y-78786190D01*
X69769285Y-78786190D01*
X68245476Y-79262380D02*
X68816904Y-79262380D01*
X68531190Y-79262380D02*
X68531190Y-78262380D01*
X68626428Y-78405238D01*
X68721666Y-78500476D01*
X68816904Y-78548095D01*
X67864523Y-78357619D02*
X67816904Y-78310000D01*
X67721666Y-78262380D01*
X67483571Y-78262380D01*
X67388333Y-78310000D01*
X67340714Y-78357619D01*
X67293095Y-78452857D01*
X67293095Y-78548095D01*
X67340714Y-78690952D01*
X67912142Y-79262380D01*
X67293095Y-79262380D01*
X69197857Y-64022380D02*
X69531190Y-63546190D01*
X69769285Y-64022380D02*
X69769285Y-63022380D01*
X69388333Y-63022380D01*
X69293095Y-63070000D01*
X69245476Y-63117619D01*
X69197857Y-63212857D01*
X69197857Y-63355714D01*
X69245476Y-63450952D01*
X69293095Y-63498571D01*
X69388333Y-63546190D01*
X69769285Y-63546190D01*
X68245476Y-64022380D02*
X68816904Y-64022380D01*
X68531190Y-64022380D02*
X68531190Y-63022380D01*
X68626428Y-63165238D01*
X68721666Y-63260476D01*
X68816904Y-63308095D01*
X67293095Y-64022380D02*
X67864523Y-64022380D01*
X67578809Y-64022380D02*
X67578809Y-63022380D01*
X67674047Y-63165238D01*
X67769285Y-63260476D01*
X67864523Y-63308095D01*
X69197857Y-71642380D02*
X69531190Y-71166190D01*
X69769285Y-71642380D02*
X69769285Y-70642380D01*
X69388333Y-70642380D01*
X69293095Y-70690000D01*
X69245476Y-70737619D01*
X69197857Y-70832857D01*
X69197857Y-70975714D01*
X69245476Y-71070952D01*
X69293095Y-71118571D01*
X69388333Y-71166190D01*
X69769285Y-71166190D01*
X68245476Y-71642380D02*
X68816904Y-71642380D01*
X68531190Y-71642380D02*
X68531190Y-70642380D01*
X68626428Y-70785238D01*
X68721666Y-70880476D01*
X68816904Y-70928095D01*
X67626428Y-70642380D02*
X67531190Y-70642380D01*
X67435952Y-70690000D01*
X67388333Y-70737619D01*
X67340714Y-70832857D01*
X67293095Y-71023333D01*
X67293095Y-71261428D01*
X67340714Y-71451904D01*
X67388333Y-71547142D01*
X67435952Y-71594761D01*
X67531190Y-71642380D01*
X67626428Y-71642380D01*
X67721666Y-71594761D01*
X67769285Y-71547142D01*
X67816904Y-71451904D01*
X67864523Y-71261428D01*
X67864523Y-71023333D01*
X67816904Y-70832857D01*
X67769285Y-70737619D01*
X67721666Y-70690000D01*
X67626428Y-70642380D01*
X184577380Y-94518333D02*
X184101190Y-94185000D01*
X184577380Y-93946904D02*
X183577380Y-93946904D01*
X183577380Y-94327857D01*
X183625000Y-94423095D01*
X183672619Y-94470714D01*
X183767857Y-94518333D01*
X183910714Y-94518333D01*
X184005952Y-94470714D01*
X184053571Y-94423095D01*
X184101190Y-94327857D01*
X184101190Y-93946904D01*
X184577380Y-94994523D02*
X184577380Y-95185000D01*
X184529761Y-95280238D01*
X184482142Y-95327857D01*
X184339285Y-95423095D01*
X184148809Y-95470714D01*
X183767857Y-95470714D01*
X183672619Y-95423095D01*
X183625000Y-95375476D01*
X183577380Y-95280238D01*
X183577380Y-95089761D01*
X183625000Y-94994523D01*
X183672619Y-94946904D01*
X183767857Y-94899285D01*
X184005952Y-94899285D01*
X184101190Y-94946904D01*
X184148809Y-94994523D01*
X184196428Y-95089761D01*
X184196428Y-95280238D01*
X184148809Y-95375476D01*
X184101190Y-95423095D01*
X184005952Y-95470714D01*
X186482380Y-94518333D02*
X186006190Y-94185000D01*
X186482380Y-93946904D02*
X185482380Y-93946904D01*
X185482380Y-94327857D01*
X185530000Y-94423095D01*
X185577619Y-94470714D01*
X185672857Y-94518333D01*
X185815714Y-94518333D01*
X185910952Y-94470714D01*
X185958571Y-94423095D01*
X186006190Y-94327857D01*
X186006190Y-93946904D01*
X185910952Y-95089761D02*
X185863333Y-94994523D01*
X185815714Y-94946904D01*
X185720476Y-94899285D01*
X185672857Y-94899285D01*
X185577619Y-94946904D01*
X185530000Y-94994523D01*
X185482380Y-95089761D01*
X185482380Y-95280238D01*
X185530000Y-95375476D01*
X185577619Y-95423095D01*
X185672857Y-95470714D01*
X185720476Y-95470714D01*
X185815714Y-95423095D01*
X185863333Y-95375476D01*
X185910952Y-95280238D01*
X185910952Y-95089761D01*
X185958571Y-94994523D01*
X186006190Y-94946904D01*
X186101428Y-94899285D01*
X186291904Y-94899285D01*
X186387142Y-94946904D01*
X186434761Y-94994523D01*
X186482380Y-95089761D01*
X186482380Y-95280238D01*
X186434761Y-95375476D01*
X186387142Y-95423095D01*
X186291904Y-95470714D01*
X186101428Y-95470714D01*
X186006190Y-95423095D01*
X185958571Y-95375476D01*
X185910952Y-95280238D01*
X188387380Y-94518333D02*
X187911190Y-94185000D01*
X188387380Y-93946904D02*
X187387380Y-93946904D01*
X187387380Y-94327857D01*
X187435000Y-94423095D01*
X187482619Y-94470714D01*
X187577857Y-94518333D01*
X187720714Y-94518333D01*
X187815952Y-94470714D01*
X187863571Y-94423095D01*
X187911190Y-94327857D01*
X187911190Y-93946904D01*
X187387380Y-94851666D02*
X187387380Y-95518333D01*
X188387380Y-95089761D01*
X134444166Y-50052380D02*
X134777500Y-49576190D01*
X135015595Y-50052380D02*
X135015595Y-49052380D01*
X134634642Y-49052380D01*
X134539404Y-49100000D01*
X134491785Y-49147619D01*
X134444166Y-49242857D01*
X134444166Y-49385714D01*
X134491785Y-49480952D01*
X134539404Y-49528571D01*
X134634642Y-49576190D01*
X135015595Y-49576190D01*
X133587023Y-49052380D02*
X133777500Y-49052380D01*
X133872738Y-49100000D01*
X133920357Y-49147619D01*
X134015595Y-49290476D01*
X134063214Y-49480952D01*
X134063214Y-49861904D01*
X134015595Y-49957142D01*
X133967976Y-50004761D01*
X133872738Y-50052380D01*
X133682261Y-50052380D01*
X133587023Y-50004761D01*
X133539404Y-49957142D01*
X133491785Y-49861904D01*
X133491785Y-49623809D01*
X133539404Y-49528571D01*
X133587023Y-49480952D01*
X133682261Y-49433333D01*
X133872738Y-49433333D01*
X133967976Y-49480952D01*
X134015595Y-49528571D01*
X134063214Y-49623809D01*
X134444166Y-48147380D02*
X134777500Y-47671190D01*
X135015595Y-48147380D02*
X135015595Y-47147380D01*
X134634642Y-47147380D01*
X134539404Y-47195000D01*
X134491785Y-47242619D01*
X134444166Y-47337857D01*
X134444166Y-47480714D01*
X134491785Y-47575952D01*
X134539404Y-47623571D01*
X134634642Y-47671190D01*
X135015595Y-47671190D01*
X133539404Y-47147380D02*
X134015595Y-47147380D01*
X134063214Y-47623571D01*
X134015595Y-47575952D01*
X133920357Y-47528333D01*
X133682261Y-47528333D01*
X133587023Y-47575952D01*
X133539404Y-47623571D01*
X133491785Y-47718809D01*
X133491785Y-47956904D01*
X133539404Y-48052142D01*
X133587023Y-48099761D01*
X133682261Y-48147380D01*
X133920357Y-48147380D01*
X134015595Y-48099761D01*
X134063214Y-48052142D01*
X134444166Y-46242380D02*
X134777500Y-45766190D01*
X135015595Y-46242380D02*
X135015595Y-45242380D01*
X134634642Y-45242380D01*
X134539404Y-45290000D01*
X134491785Y-45337619D01*
X134444166Y-45432857D01*
X134444166Y-45575714D01*
X134491785Y-45670952D01*
X134539404Y-45718571D01*
X134634642Y-45766190D01*
X135015595Y-45766190D01*
X133587023Y-45575714D02*
X133587023Y-46242380D01*
X133825119Y-45194761D02*
X134063214Y-45909047D01*
X133444166Y-45909047D01*
X216327380Y-86898333D02*
X215851190Y-86565000D01*
X216327380Y-86326904D02*
X215327380Y-86326904D01*
X215327380Y-86707857D01*
X215375000Y-86803095D01*
X215422619Y-86850714D01*
X215517857Y-86898333D01*
X215660714Y-86898333D01*
X215755952Y-86850714D01*
X215803571Y-86803095D01*
X215851190Y-86707857D01*
X215851190Y-86326904D01*
X215327380Y-87231666D02*
X215327380Y-87850714D01*
X215708333Y-87517380D01*
X215708333Y-87660238D01*
X215755952Y-87755476D01*
X215803571Y-87803095D01*
X215898809Y-87850714D01*
X216136904Y-87850714D01*
X216232142Y-87803095D01*
X216279761Y-87755476D01*
X216327380Y-87660238D01*
X216327380Y-87374523D01*
X216279761Y-87279285D01*
X216232142Y-87231666D01*
X208389880Y-60863333D02*
X207913690Y-60530000D01*
X208389880Y-60291904D02*
X207389880Y-60291904D01*
X207389880Y-60672857D01*
X207437500Y-60768095D01*
X207485119Y-60815714D01*
X207580357Y-60863333D01*
X207723214Y-60863333D01*
X207818452Y-60815714D01*
X207866071Y-60768095D01*
X207913690Y-60672857D01*
X207913690Y-60291904D01*
X207485119Y-61244285D02*
X207437500Y-61291904D01*
X207389880Y-61387142D01*
X207389880Y-61625238D01*
X207437500Y-61720476D01*
X207485119Y-61768095D01*
X207580357Y-61815714D01*
X207675595Y-61815714D01*
X207818452Y-61768095D01*
X208389880Y-61196666D01*
X208389880Y-61815714D01*
X206802380Y-86898333D02*
X206326190Y-86565000D01*
X206802380Y-86326904D02*
X205802380Y-86326904D01*
X205802380Y-86707857D01*
X205850000Y-86803095D01*
X205897619Y-86850714D01*
X205992857Y-86898333D01*
X206135714Y-86898333D01*
X206230952Y-86850714D01*
X206278571Y-86803095D01*
X206326190Y-86707857D01*
X206326190Y-86326904D01*
X206802380Y-87850714D02*
X206802380Y-87279285D01*
X206802380Y-87565000D02*
X205802380Y-87565000D01*
X205945238Y-87469761D01*
X206040476Y-87374523D01*
X206088095Y-87279285D01*
X82690833Y-46952380D02*
X82690833Y-47666666D01*
X82738452Y-47809523D01*
X82833690Y-47904761D01*
X82976547Y-47952380D01*
X83071785Y-47952380D01*
X82309880Y-46952380D02*
X81690833Y-46952380D01*
X82024166Y-47333333D01*
X81881309Y-47333333D01*
X81786071Y-47380952D01*
X81738452Y-47428571D01*
X81690833Y-47523809D01*
X81690833Y-47761904D01*
X81738452Y-47857142D01*
X81786071Y-47904761D01*
X81881309Y-47952380D01*
X82167023Y-47952380D01*
X82262261Y-47904761D01*
X82309880Y-47857142D01*
X187633333Y-68312380D02*
X187633333Y-69026666D01*
X187680952Y-69169523D01*
X187776190Y-69264761D01*
X187919047Y-69312380D01*
X188014285Y-69312380D01*
X187204761Y-68407619D02*
X187157142Y-68360000D01*
X187061904Y-68312380D01*
X186823809Y-68312380D01*
X186728571Y-68360000D01*
X186680952Y-68407619D01*
X186633333Y-68502857D01*
X186633333Y-68598095D01*
X186680952Y-68740952D01*
X187252380Y-69312380D01*
X186633333Y-69312380D01*
X218137142Y-86898333D02*
X218184761Y-86850714D01*
X218232380Y-86707857D01*
X218232380Y-86612619D01*
X218184761Y-86469761D01*
X218089523Y-86374523D01*
X217994285Y-86326904D01*
X217803809Y-86279285D01*
X217660952Y-86279285D01*
X217470476Y-86326904D01*
X217375238Y-86374523D01*
X217280000Y-86469761D01*
X217232380Y-86612619D01*
X217232380Y-86707857D01*
X217280000Y-86850714D01*
X217327619Y-86898333D01*
X217232380Y-87231666D02*
X217232380Y-87850714D01*
X217613333Y-87517380D01*
X217613333Y-87660238D01*
X217660952Y-87755476D01*
X217708571Y-87803095D01*
X217803809Y-87850714D01*
X218041904Y-87850714D01*
X218137142Y-87803095D01*
X218184761Y-87755476D01*
X218232380Y-87660238D01*
X218232380Y-87374523D01*
X218184761Y-87279285D01*
X218137142Y-87231666D01*
X200166666Y-53607142D02*
X200214285Y-53654761D01*
X200357142Y-53702380D01*
X200452380Y-53702380D01*
X200595238Y-53654761D01*
X200690476Y-53559523D01*
X200738095Y-53464285D01*
X200785714Y-53273809D01*
X200785714Y-53130952D01*
X200738095Y-52940476D01*
X200690476Y-52845238D01*
X200595238Y-52750000D01*
X200452380Y-52702380D01*
X200357142Y-52702380D01*
X200214285Y-52750000D01*
X200166666Y-52797619D01*
X199785714Y-52797619D02*
X199738095Y-52750000D01*
X199642857Y-52702380D01*
X199404761Y-52702380D01*
X199309523Y-52750000D01*
X199261904Y-52797619D01*
X199214285Y-52892857D01*
X199214285Y-52988095D01*
X199261904Y-53130952D01*
X199833333Y-53702380D01*
X199214285Y-53702380D01*
%LPC*%
D14*
G36*
X181528669Y-73205466D02*
G01*
X181554189Y-73209252D01*
X181579216Y-73215520D01*
X181603507Y-73224212D01*
X181626830Y-73235243D01*
X181648959Y-73248507D01*
X181669682Y-73263876D01*
X181688798Y-73281202D01*
X181706124Y-73300318D01*
X181721493Y-73321041D01*
X181734757Y-73343170D01*
X181745788Y-73366493D01*
X181754480Y-73390784D01*
X181760748Y-73415811D01*
X181764534Y-73441331D01*
X181765800Y-73467100D01*
X181765800Y-73992900D01*
X181764534Y-74018669D01*
X181760748Y-74044189D01*
X181754480Y-74069216D01*
X181745788Y-74093507D01*
X181734757Y-74116830D01*
X181721493Y-74138959D01*
X181706124Y-74159682D01*
X181688798Y-74178798D01*
X181669682Y-74196124D01*
X181648959Y-74211493D01*
X181626830Y-74224757D01*
X181603507Y-74235788D01*
X181579216Y-74244480D01*
X181554189Y-74250748D01*
X181528669Y-74254534D01*
X181502900Y-74255800D01*
X180877100Y-74255800D01*
X180851331Y-74254534D01*
X180825811Y-74250748D01*
X180800784Y-74244480D01*
X180776493Y-74235788D01*
X180753170Y-74224757D01*
X180731041Y-74211493D01*
X180710318Y-74196124D01*
X180691202Y-74178798D01*
X180673876Y-74159682D01*
X180658507Y-74138959D01*
X180645243Y-74116830D01*
X180634212Y-74093507D01*
X180625520Y-74069216D01*
X180619252Y-74044189D01*
X180615466Y-74018669D01*
X180614200Y-73992900D01*
X180614200Y-73467100D01*
X180615466Y-73441331D01*
X180619252Y-73415811D01*
X180625520Y-73390784D01*
X180634212Y-73366493D01*
X180645243Y-73343170D01*
X180658507Y-73321041D01*
X180673876Y-73300318D01*
X180691202Y-73281202D01*
X180710318Y-73263876D01*
X180731041Y-73248507D01*
X180753170Y-73235243D01*
X180776493Y-73224212D01*
X180800784Y-73215520D01*
X180825811Y-73209252D01*
X180851331Y-73205466D01*
X180877100Y-73204200D01*
X181502900Y-73204200D01*
X181528669Y-73205466D01*
X181528669Y-73205466D01*
G37*
D15*
X181190000Y-73730000D03*
D14*
G36*
X179778669Y-73205466D02*
G01*
X179804189Y-73209252D01*
X179829216Y-73215520D01*
X179853507Y-73224212D01*
X179876830Y-73235243D01*
X179898959Y-73248507D01*
X179919682Y-73263876D01*
X179938798Y-73281202D01*
X179956124Y-73300318D01*
X179971493Y-73321041D01*
X179984757Y-73343170D01*
X179995788Y-73366493D01*
X180004480Y-73390784D01*
X180010748Y-73415811D01*
X180014534Y-73441331D01*
X180015800Y-73467100D01*
X180015800Y-73992900D01*
X180014534Y-74018669D01*
X180010748Y-74044189D01*
X180004480Y-74069216D01*
X179995788Y-74093507D01*
X179984757Y-74116830D01*
X179971493Y-74138959D01*
X179956124Y-74159682D01*
X179938798Y-74178798D01*
X179919682Y-74196124D01*
X179898959Y-74211493D01*
X179876830Y-74224757D01*
X179853507Y-74235788D01*
X179829216Y-74244480D01*
X179804189Y-74250748D01*
X179778669Y-74254534D01*
X179752900Y-74255800D01*
X179127100Y-74255800D01*
X179101331Y-74254534D01*
X179075811Y-74250748D01*
X179050784Y-74244480D01*
X179026493Y-74235788D01*
X179003170Y-74224757D01*
X178981041Y-74211493D01*
X178960318Y-74196124D01*
X178941202Y-74178798D01*
X178923876Y-74159682D01*
X178908507Y-74138959D01*
X178895243Y-74116830D01*
X178884212Y-74093507D01*
X178875520Y-74069216D01*
X178869252Y-74044189D01*
X178865466Y-74018669D01*
X178864200Y-73992900D01*
X178864200Y-73467100D01*
X178865466Y-73441331D01*
X178869252Y-73415811D01*
X178875520Y-73390784D01*
X178884212Y-73366493D01*
X178895243Y-73343170D01*
X178908507Y-73321041D01*
X178923876Y-73300318D01*
X178941202Y-73281202D01*
X178960318Y-73263876D01*
X178981041Y-73248507D01*
X179003170Y-73235243D01*
X179026493Y-73224212D01*
X179050784Y-73215520D01*
X179075811Y-73209252D01*
X179101331Y-73205466D01*
X179127100Y-73204200D01*
X179752900Y-73204200D01*
X179778669Y-73205466D01*
X179778669Y-73205466D01*
G37*
D15*
X179440000Y-73730000D03*
D14*
G36*
X181528669Y-75745466D02*
G01*
X181554189Y-75749252D01*
X181579216Y-75755520D01*
X181603507Y-75764212D01*
X181626830Y-75775243D01*
X181648959Y-75788507D01*
X181669682Y-75803876D01*
X181688798Y-75821202D01*
X181706124Y-75840318D01*
X181721493Y-75861041D01*
X181734757Y-75883170D01*
X181745788Y-75906493D01*
X181754480Y-75930784D01*
X181760748Y-75955811D01*
X181764534Y-75981331D01*
X181765800Y-76007100D01*
X181765800Y-76532900D01*
X181764534Y-76558669D01*
X181760748Y-76584189D01*
X181754480Y-76609216D01*
X181745788Y-76633507D01*
X181734757Y-76656830D01*
X181721493Y-76678959D01*
X181706124Y-76699682D01*
X181688798Y-76718798D01*
X181669682Y-76736124D01*
X181648959Y-76751493D01*
X181626830Y-76764757D01*
X181603507Y-76775788D01*
X181579216Y-76784480D01*
X181554189Y-76790748D01*
X181528669Y-76794534D01*
X181502900Y-76795800D01*
X180877100Y-76795800D01*
X180851331Y-76794534D01*
X180825811Y-76790748D01*
X180800784Y-76784480D01*
X180776493Y-76775788D01*
X180753170Y-76764757D01*
X180731041Y-76751493D01*
X180710318Y-76736124D01*
X180691202Y-76718798D01*
X180673876Y-76699682D01*
X180658507Y-76678959D01*
X180645243Y-76656830D01*
X180634212Y-76633507D01*
X180625520Y-76609216D01*
X180619252Y-76584189D01*
X180615466Y-76558669D01*
X180614200Y-76532900D01*
X180614200Y-76007100D01*
X180615466Y-75981331D01*
X180619252Y-75955811D01*
X180625520Y-75930784D01*
X180634212Y-75906493D01*
X180645243Y-75883170D01*
X180658507Y-75861041D01*
X180673876Y-75840318D01*
X180691202Y-75821202D01*
X180710318Y-75803876D01*
X180731041Y-75788507D01*
X180753170Y-75775243D01*
X180776493Y-75764212D01*
X180800784Y-75755520D01*
X180825811Y-75749252D01*
X180851331Y-75745466D01*
X180877100Y-75744200D01*
X181502900Y-75744200D01*
X181528669Y-75745466D01*
X181528669Y-75745466D01*
G37*
D15*
X181190000Y-76270000D03*
D14*
G36*
X179778669Y-75745466D02*
G01*
X179804189Y-75749252D01*
X179829216Y-75755520D01*
X179853507Y-75764212D01*
X179876830Y-75775243D01*
X179898959Y-75788507D01*
X179919682Y-75803876D01*
X179938798Y-75821202D01*
X179956124Y-75840318D01*
X179971493Y-75861041D01*
X179984757Y-75883170D01*
X179995788Y-75906493D01*
X180004480Y-75930784D01*
X180010748Y-75955811D01*
X180014534Y-75981331D01*
X180015800Y-76007100D01*
X180015800Y-76532900D01*
X180014534Y-76558669D01*
X180010748Y-76584189D01*
X180004480Y-76609216D01*
X179995788Y-76633507D01*
X179984757Y-76656830D01*
X179971493Y-76678959D01*
X179956124Y-76699682D01*
X179938798Y-76718798D01*
X179919682Y-76736124D01*
X179898959Y-76751493D01*
X179876830Y-76764757D01*
X179853507Y-76775788D01*
X179829216Y-76784480D01*
X179804189Y-76790748D01*
X179778669Y-76794534D01*
X179752900Y-76795800D01*
X179127100Y-76795800D01*
X179101331Y-76794534D01*
X179075811Y-76790748D01*
X179050784Y-76784480D01*
X179026493Y-76775788D01*
X179003170Y-76764757D01*
X178981041Y-76751493D01*
X178960318Y-76736124D01*
X178941202Y-76718798D01*
X178923876Y-76699682D01*
X178908507Y-76678959D01*
X178895243Y-76656830D01*
X178884212Y-76633507D01*
X178875520Y-76609216D01*
X178869252Y-76584189D01*
X178865466Y-76558669D01*
X178864200Y-76532900D01*
X178864200Y-76007100D01*
X178865466Y-75981331D01*
X178869252Y-75955811D01*
X178875520Y-75930784D01*
X178884212Y-75906493D01*
X178895243Y-75883170D01*
X178908507Y-75861041D01*
X178923876Y-75840318D01*
X178941202Y-75821202D01*
X178960318Y-75803876D01*
X178981041Y-75788507D01*
X179003170Y-75775243D01*
X179026493Y-75764212D01*
X179050784Y-75755520D01*
X179075811Y-75749252D01*
X179101331Y-75745466D01*
X179127100Y-75744200D01*
X179752900Y-75744200D01*
X179778669Y-75745466D01*
X179778669Y-75745466D01*
G37*
D15*
X179440000Y-76270000D03*
D14*
G36*
X209685592Y-85421045D02*
G01*
X209702619Y-85423570D01*
X209719316Y-85427753D01*
X209735523Y-85433552D01*
X209751083Y-85440911D01*
X209765847Y-85449760D01*
X209779673Y-85460014D01*
X209792427Y-85471573D01*
X209803986Y-85484327D01*
X209814240Y-85498153D01*
X209823089Y-85512917D01*
X209830448Y-85528477D01*
X209836247Y-85544684D01*
X209840430Y-85561381D01*
X209842955Y-85578408D01*
X209843800Y-85595600D01*
X209843800Y-85946400D01*
X209842955Y-85963592D01*
X209840430Y-85980619D01*
X209836247Y-85997316D01*
X209830448Y-86013523D01*
X209823089Y-86029083D01*
X209814240Y-86043847D01*
X209803986Y-86057673D01*
X209792427Y-86070427D01*
X209779673Y-86081986D01*
X209765847Y-86092240D01*
X209751083Y-86101089D01*
X209735523Y-86108448D01*
X209719316Y-86114247D01*
X209702619Y-86118430D01*
X209685592Y-86120955D01*
X209668400Y-86121800D01*
X207967600Y-86121800D01*
X207950408Y-86120955D01*
X207933381Y-86118430D01*
X207916684Y-86114247D01*
X207900477Y-86108448D01*
X207884917Y-86101089D01*
X207870153Y-86092240D01*
X207856327Y-86081986D01*
X207843573Y-86070427D01*
X207832014Y-86057673D01*
X207821760Y-86043847D01*
X207812911Y-86029083D01*
X207805552Y-86013523D01*
X207799753Y-85997316D01*
X207795570Y-85980619D01*
X207793045Y-85963592D01*
X207792200Y-85946400D01*
X207792200Y-85595600D01*
X207793045Y-85578408D01*
X207795570Y-85561381D01*
X207799753Y-85544684D01*
X207805552Y-85528477D01*
X207812911Y-85512917D01*
X207821760Y-85498153D01*
X207832014Y-85484327D01*
X207843573Y-85471573D01*
X207856327Y-85460014D01*
X207870153Y-85449760D01*
X207884917Y-85440911D01*
X207900477Y-85433552D01*
X207916684Y-85427753D01*
X207933381Y-85423570D01*
X207950408Y-85421045D01*
X207967600Y-85420200D01*
X209668400Y-85420200D01*
X209685592Y-85421045D01*
X209685592Y-85421045D01*
G37*
D16*
X208818000Y-85771000D03*
D14*
G36*
X209685592Y-84151045D02*
G01*
X209702619Y-84153570D01*
X209719316Y-84157753D01*
X209735523Y-84163552D01*
X209751083Y-84170911D01*
X209765847Y-84179760D01*
X209779673Y-84190014D01*
X209792427Y-84201573D01*
X209803986Y-84214327D01*
X209814240Y-84228153D01*
X209823089Y-84242917D01*
X209830448Y-84258477D01*
X209836247Y-84274684D01*
X209840430Y-84291381D01*
X209842955Y-84308408D01*
X209843800Y-84325600D01*
X209843800Y-84676400D01*
X209842955Y-84693592D01*
X209840430Y-84710619D01*
X209836247Y-84727316D01*
X209830448Y-84743523D01*
X209823089Y-84759083D01*
X209814240Y-84773847D01*
X209803986Y-84787673D01*
X209792427Y-84800427D01*
X209779673Y-84811986D01*
X209765847Y-84822240D01*
X209751083Y-84831089D01*
X209735523Y-84838448D01*
X209719316Y-84844247D01*
X209702619Y-84848430D01*
X209685592Y-84850955D01*
X209668400Y-84851800D01*
X207967600Y-84851800D01*
X207950408Y-84850955D01*
X207933381Y-84848430D01*
X207916684Y-84844247D01*
X207900477Y-84838448D01*
X207884917Y-84831089D01*
X207870153Y-84822240D01*
X207856327Y-84811986D01*
X207843573Y-84800427D01*
X207832014Y-84787673D01*
X207821760Y-84773847D01*
X207812911Y-84759083D01*
X207805552Y-84743523D01*
X207799753Y-84727316D01*
X207795570Y-84710619D01*
X207793045Y-84693592D01*
X207792200Y-84676400D01*
X207792200Y-84325600D01*
X207793045Y-84308408D01*
X207795570Y-84291381D01*
X207799753Y-84274684D01*
X207805552Y-84258477D01*
X207812911Y-84242917D01*
X207821760Y-84228153D01*
X207832014Y-84214327D01*
X207843573Y-84201573D01*
X207856327Y-84190014D01*
X207870153Y-84179760D01*
X207884917Y-84170911D01*
X207900477Y-84163552D01*
X207916684Y-84157753D01*
X207933381Y-84153570D01*
X207950408Y-84151045D01*
X207967600Y-84150200D01*
X209668400Y-84150200D01*
X209685592Y-84151045D01*
X209685592Y-84151045D01*
G37*
D16*
X208818000Y-84501000D03*
D14*
G36*
X209685592Y-82881045D02*
G01*
X209702619Y-82883570D01*
X209719316Y-82887753D01*
X209735523Y-82893552D01*
X209751083Y-82900911D01*
X209765847Y-82909760D01*
X209779673Y-82920014D01*
X209792427Y-82931573D01*
X209803986Y-82944327D01*
X209814240Y-82958153D01*
X209823089Y-82972917D01*
X209830448Y-82988477D01*
X209836247Y-83004684D01*
X209840430Y-83021381D01*
X209842955Y-83038408D01*
X209843800Y-83055600D01*
X209843800Y-83406400D01*
X209842955Y-83423592D01*
X209840430Y-83440619D01*
X209836247Y-83457316D01*
X209830448Y-83473523D01*
X209823089Y-83489083D01*
X209814240Y-83503847D01*
X209803986Y-83517673D01*
X209792427Y-83530427D01*
X209779673Y-83541986D01*
X209765847Y-83552240D01*
X209751083Y-83561089D01*
X209735523Y-83568448D01*
X209719316Y-83574247D01*
X209702619Y-83578430D01*
X209685592Y-83580955D01*
X209668400Y-83581800D01*
X207967600Y-83581800D01*
X207950408Y-83580955D01*
X207933381Y-83578430D01*
X207916684Y-83574247D01*
X207900477Y-83568448D01*
X207884917Y-83561089D01*
X207870153Y-83552240D01*
X207856327Y-83541986D01*
X207843573Y-83530427D01*
X207832014Y-83517673D01*
X207821760Y-83503847D01*
X207812911Y-83489083D01*
X207805552Y-83473523D01*
X207799753Y-83457316D01*
X207795570Y-83440619D01*
X207793045Y-83423592D01*
X207792200Y-83406400D01*
X207792200Y-83055600D01*
X207793045Y-83038408D01*
X207795570Y-83021381D01*
X207799753Y-83004684D01*
X207805552Y-82988477D01*
X207812911Y-82972917D01*
X207821760Y-82958153D01*
X207832014Y-82944327D01*
X207843573Y-82931573D01*
X207856327Y-82920014D01*
X207870153Y-82909760D01*
X207884917Y-82900911D01*
X207900477Y-82893552D01*
X207916684Y-82887753D01*
X207933381Y-82883570D01*
X207950408Y-82881045D01*
X207967600Y-82880200D01*
X209668400Y-82880200D01*
X209685592Y-82881045D01*
X209685592Y-82881045D01*
G37*
D16*
X208818000Y-83231000D03*
D14*
G36*
X209685592Y-81611045D02*
G01*
X209702619Y-81613570D01*
X209719316Y-81617753D01*
X209735523Y-81623552D01*
X209751083Y-81630911D01*
X209765847Y-81639760D01*
X209779673Y-81650014D01*
X209792427Y-81661573D01*
X209803986Y-81674327D01*
X209814240Y-81688153D01*
X209823089Y-81702917D01*
X209830448Y-81718477D01*
X209836247Y-81734684D01*
X209840430Y-81751381D01*
X209842955Y-81768408D01*
X209843800Y-81785600D01*
X209843800Y-82136400D01*
X209842955Y-82153592D01*
X209840430Y-82170619D01*
X209836247Y-82187316D01*
X209830448Y-82203523D01*
X209823089Y-82219083D01*
X209814240Y-82233847D01*
X209803986Y-82247673D01*
X209792427Y-82260427D01*
X209779673Y-82271986D01*
X209765847Y-82282240D01*
X209751083Y-82291089D01*
X209735523Y-82298448D01*
X209719316Y-82304247D01*
X209702619Y-82308430D01*
X209685592Y-82310955D01*
X209668400Y-82311800D01*
X207967600Y-82311800D01*
X207950408Y-82310955D01*
X207933381Y-82308430D01*
X207916684Y-82304247D01*
X207900477Y-82298448D01*
X207884917Y-82291089D01*
X207870153Y-82282240D01*
X207856327Y-82271986D01*
X207843573Y-82260427D01*
X207832014Y-82247673D01*
X207821760Y-82233847D01*
X207812911Y-82219083D01*
X207805552Y-82203523D01*
X207799753Y-82187316D01*
X207795570Y-82170619D01*
X207793045Y-82153592D01*
X207792200Y-82136400D01*
X207792200Y-81785600D01*
X207793045Y-81768408D01*
X207795570Y-81751381D01*
X207799753Y-81734684D01*
X207805552Y-81718477D01*
X207812911Y-81702917D01*
X207821760Y-81688153D01*
X207832014Y-81674327D01*
X207843573Y-81661573D01*
X207856327Y-81650014D01*
X207870153Y-81639760D01*
X207884917Y-81630911D01*
X207900477Y-81623552D01*
X207916684Y-81617753D01*
X207933381Y-81613570D01*
X207950408Y-81611045D01*
X207967600Y-81610200D01*
X209668400Y-81610200D01*
X209685592Y-81611045D01*
X209685592Y-81611045D01*
G37*
D16*
X208818000Y-81961000D03*
D14*
G36*
X214635592Y-81611045D02*
G01*
X214652619Y-81613570D01*
X214669316Y-81617753D01*
X214685523Y-81623552D01*
X214701083Y-81630911D01*
X214715847Y-81639760D01*
X214729673Y-81650014D01*
X214742427Y-81661573D01*
X214753986Y-81674327D01*
X214764240Y-81688153D01*
X214773089Y-81702917D01*
X214780448Y-81718477D01*
X214786247Y-81734684D01*
X214790430Y-81751381D01*
X214792955Y-81768408D01*
X214793800Y-81785600D01*
X214793800Y-82136400D01*
X214792955Y-82153592D01*
X214790430Y-82170619D01*
X214786247Y-82187316D01*
X214780448Y-82203523D01*
X214773089Y-82219083D01*
X214764240Y-82233847D01*
X214753986Y-82247673D01*
X214742427Y-82260427D01*
X214729673Y-82271986D01*
X214715847Y-82282240D01*
X214701083Y-82291089D01*
X214685523Y-82298448D01*
X214669316Y-82304247D01*
X214652619Y-82308430D01*
X214635592Y-82310955D01*
X214618400Y-82311800D01*
X212917600Y-82311800D01*
X212900408Y-82310955D01*
X212883381Y-82308430D01*
X212866684Y-82304247D01*
X212850477Y-82298448D01*
X212834917Y-82291089D01*
X212820153Y-82282240D01*
X212806327Y-82271986D01*
X212793573Y-82260427D01*
X212782014Y-82247673D01*
X212771760Y-82233847D01*
X212762911Y-82219083D01*
X212755552Y-82203523D01*
X212749753Y-82187316D01*
X212745570Y-82170619D01*
X212743045Y-82153592D01*
X212742200Y-82136400D01*
X212742200Y-81785600D01*
X212743045Y-81768408D01*
X212745570Y-81751381D01*
X212749753Y-81734684D01*
X212755552Y-81718477D01*
X212762911Y-81702917D01*
X212771760Y-81688153D01*
X212782014Y-81674327D01*
X212793573Y-81661573D01*
X212806327Y-81650014D01*
X212820153Y-81639760D01*
X212834917Y-81630911D01*
X212850477Y-81623552D01*
X212866684Y-81617753D01*
X212883381Y-81613570D01*
X212900408Y-81611045D01*
X212917600Y-81610200D01*
X214618400Y-81610200D01*
X214635592Y-81611045D01*
X214635592Y-81611045D01*
G37*
D16*
X213768000Y-81961000D03*
D14*
G36*
X214635592Y-82881045D02*
G01*
X214652619Y-82883570D01*
X214669316Y-82887753D01*
X214685523Y-82893552D01*
X214701083Y-82900911D01*
X214715847Y-82909760D01*
X214729673Y-82920014D01*
X214742427Y-82931573D01*
X214753986Y-82944327D01*
X214764240Y-82958153D01*
X214773089Y-82972917D01*
X214780448Y-82988477D01*
X214786247Y-83004684D01*
X214790430Y-83021381D01*
X214792955Y-83038408D01*
X214793800Y-83055600D01*
X214793800Y-83406400D01*
X214792955Y-83423592D01*
X214790430Y-83440619D01*
X214786247Y-83457316D01*
X214780448Y-83473523D01*
X214773089Y-83489083D01*
X214764240Y-83503847D01*
X214753986Y-83517673D01*
X214742427Y-83530427D01*
X214729673Y-83541986D01*
X214715847Y-83552240D01*
X214701083Y-83561089D01*
X214685523Y-83568448D01*
X214669316Y-83574247D01*
X214652619Y-83578430D01*
X214635592Y-83580955D01*
X214618400Y-83581800D01*
X212917600Y-83581800D01*
X212900408Y-83580955D01*
X212883381Y-83578430D01*
X212866684Y-83574247D01*
X212850477Y-83568448D01*
X212834917Y-83561089D01*
X212820153Y-83552240D01*
X212806327Y-83541986D01*
X212793573Y-83530427D01*
X212782014Y-83517673D01*
X212771760Y-83503847D01*
X212762911Y-83489083D01*
X212755552Y-83473523D01*
X212749753Y-83457316D01*
X212745570Y-83440619D01*
X212743045Y-83423592D01*
X212742200Y-83406400D01*
X212742200Y-83055600D01*
X212743045Y-83038408D01*
X212745570Y-83021381D01*
X212749753Y-83004684D01*
X212755552Y-82988477D01*
X212762911Y-82972917D01*
X212771760Y-82958153D01*
X212782014Y-82944327D01*
X212793573Y-82931573D01*
X212806327Y-82920014D01*
X212820153Y-82909760D01*
X212834917Y-82900911D01*
X212850477Y-82893552D01*
X212866684Y-82887753D01*
X212883381Y-82883570D01*
X212900408Y-82881045D01*
X212917600Y-82880200D01*
X214618400Y-82880200D01*
X214635592Y-82881045D01*
X214635592Y-82881045D01*
G37*
D16*
X213768000Y-83231000D03*
D14*
G36*
X214635592Y-84151045D02*
G01*
X214652619Y-84153570D01*
X214669316Y-84157753D01*
X214685523Y-84163552D01*
X214701083Y-84170911D01*
X214715847Y-84179760D01*
X214729673Y-84190014D01*
X214742427Y-84201573D01*
X214753986Y-84214327D01*
X214764240Y-84228153D01*
X214773089Y-84242917D01*
X214780448Y-84258477D01*
X214786247Y-84274684D01*
X214790430Y-84291381D01*
X214792955Y-84308408D01*
X214793800Y-84325600D01*
X214793800Y-84676400D01*
X214792955Y-84693592D01*
X214790430Y-84710619D01*
X214786247Y-84727316D01*
X214780448Y-84743523D01*
X214773089Y-84759083D01*
X214764240Y-84773847D01*
X214753986Y-84787673D01*
X214742427Y-84800427D01*
X214729673Y-84811986D01*
X214715847Y-84822240D01*
X214701083Y-84831089D01*
X214685523Y-84838448D01*
X214669316Y-84844247D01*
X214652619Y-84848430D01*
X214635592Y-84850955D01*
X214618400Y-84851800D01*
X212917600Y-84851800D01*
X212900408Y-84850955D01*
X212883381Y-84848430D01*
X212866684Y-84844247D01*
X212850477Y-84838448D01*
X212834917Y-84831089D01*
X212820153Y-84822240D01*
X212806327Y-84811986D01*
X212793573Y-84800427D01*
X212782014Y-84787673D01*
X212771760Y-84773847D01*
X212762911Y-84759083D01*
X212755552Y-84743523D01*
X212749753Y-84727316D01*
X212745570Y-84710619D01*
X212743045Y-84693592D01*
X212742200Y-84676400D01*
X212742200Y-84325600D01*
X212743045Y-84308408D01*
X212745570Y-84291381D01*
X212749753Y-84274684D01*
X212755552Y-84258477D01*
X212762911Y-84242917D01*
X212771760Y-84228153D01*
X212782014Y-84214327D01*
X212793573Y-84201573D01*
X212806327Y-84190014D01*
X212820153Y-84179760D01*
X212834917Y-84170911D01*
X212850477Y-84163552D01*
X212866684Y-84157753D01*
X212883381Y-84153570D01*
X212900408Y-84151045D01*
X212917600Y-84150200D01*
X214618400Y-84150200D01*
X214635592Y-84151045D01*
X214635592Y-84151045D01*
G37*
D16*
X213768000Y-84501000D03*
D14*
G36*
X214635592Y-85421045D02*
G01*
X214652619Y-85423570D01*
X214669316Y-85427753D01*
X214685523Y-85433552D01*
X214701083Y-85440911D01*
X214715847Y-85449760D01*
X214729673Y-85460014D01*
X214742427Y-85471573D01*
X214753986Y-85484327D01*
X214764240Y-85498153D01*
X214773089Y-85512917D01*
X214780448Y-85528477D01*
X214786247Y-85544684D01*
X214790430Y-85561381D01*
X214792955Y-85578408D01*
X214793800Y-85595600D01*
X214793800Y-85946400D01*
X214792955Y-85963592D01*
X214790430Y-85980619D01*
X214786247Y-85997316D01*
X214780448Y-86013523D01*
X214773089Y-86029083D01*
X214764240Y-86043847D01*
X214753986Y-86057673D01*
X214742427Y-86070427D01*
X214729673Y-86081986D01*
X214715847Y-86092240D01*
X214701083Y-86101089D01*
X214685523Y-86108448D01*
X214669316Y-86114247D01*
X214652619Y-86118430D01*
X214635592Y-86120955D01*
X214618400Y-86121800D01*
X212917600Y-86121800D01*
X212900408Y-86120955D01*
X212883381Y-86118430D01*
X212866684Y-86114247D01*
X212850477Y-86108448D01*
X212834917Y-86101089D01*
X212820153Y-86092240D01*
X212806327Y-86081986D01*
X212793573Y-86070427D01*
X212782014Y-86057673D01*
X212771760Y-86043847D01*
X212762911Y-86029083D01*
X212755552Y-86013523D01*
X212749753Y-85997316D01*
X212745570Y-85980619D01*
X212743045Y-85963592D01*
X212742200Y-85946400D01*
X212742200Y-85595600D01*
X212743045Y-85578408D01*
X212745570Y-85561381D01*
X212749753Y-85544684D01*
X212755552Y-85528477D01*
X212762911Y-85512917D01*
X212771760Y-85498153D01*
X212782014Y-85484327D01*
X212793573Y-85471573D01*
X212806327Y-85460014D01*
X212820153Y-85449760D01*
X212834917Y-85440911D01*
X212850477Y-85433552D01*
X212866684Y-85427753D01*
X212883381Y-85423570D01*
X212900408Y-85421045D01*
X212917600Y-85420200D01*
X214618400Y-85420200D01*
X214635592Y-85421045D01*
X214635592Y-85421045D01*
G37*
D16*
X213768000Y-85771000D03*
D17*
X69705000Y-59220000D03*
D18*
X68555000Y-55220000D03*
D17*
X67405000Y-59220000D03*
D19*
X194920000Y-94985000D03*
X194920000Y-100735000D03*
X197460000Y-94985000D03*
X197460000Y-100735000D03*
X200000000Y-94985000D03*
X200000000Y-100735000D03*
X202540000Y-94985000D03*
X202540000Y-100735000D03*
X205080000Y-94985000D03*
X205080000Y-100735000D03*
D20*
X217970000Y-75000000D03*
X209970000Y-75000000D03*
D14*
G36*
X70516095Y-81695213D02*
G01*
X70536511Y-81698241D01*
X70556533Y-81703256D01*
X70575966Y-81710210D01*
X70594624Y-81719034D01*
X70612328Y-81729645D01*
X70628906Y-81741940D01*
X70644199Y-81755801D01*
X70658060Y-81771094D01*
X70670355Y-81787672D01*
X70680966Y-81805376D01*
X70689790Y-81824034D01*
X70696744Y-81843467D01*
X70701759Y-81863489D01*
X70704787Y-81883905D01*
X70705800Y-81904520D01*
X70705800Y-83335480D01*
X70704787Y-83356095D01*
X70701759Y-83376511D01*
X70696744Y-83396533D01*
X70689790Y-83415966D01*
X70680966Y-83434624D01*
X70670355Y-83452328D01*
X70658060Y-83468906D01*
X70644199Y-83484199D01*
X70628906Y-83498060D01*
X70612328Y-83510355D01*
X70594624Y-83520966D01*
X70575966Y-83529790D01*
X70556533Y-83536744D01*
X70536511Y-83541759D01*
X70516095Y-83544787D01*
X70495480Y-83545800D01*
X69864520Y-83545800D01*
X69843905Y-83544787D01*
X69823489Y-83541759D01*
X69803467Y-83536744D01*
X69784034Y-83529790D01*
X69765376Y-83520966D01*
X69747672Y-83510355D01*
X69731094Y-83498060D01*
X69715801Y-83484199D01*
X69701940Y-83468906D01*
X69689645Y-83452328D01*
X69679034Y-83434624D01*
X69670210Y-83415966D01*
X69663256Y-83396533D01*
X69658241Y-83376511D01*
X69655213Y-83356095D01*
X69654200Y-83335480D01*
X69654200Y-81904520D01*
X69655213Y-81883905D01*
X69658241Y-81863489D01*
X69663256Y-81843467D01*
X69670210Y-81824034D01*
X69679034Y-81805376D01*
X69689645Y-81787672D01*
X69701940Y-81771094D01*
X69715801Y-81755801D01*
X69731094Y-81741940D01*
X69747672Y-81729645D01*
X69765376Y-81719034D01*
X69784034Y-81710210D01*
X69803467Y-81703256D01*
X69823489Y-81698241D01*
X69843905Y-81695213D01*
X69864520Y-81694200D01*
X70495480Y-81694200D01*
X70516095Y-81695213D01*
X70516095Y-81695213D01*
G37*
D15*
X70180000Y-82620000D03*
D14*
G36*
X73616095Y-81695213D02*
G01*
X73636511Y-81698241D01*
X73656533Y-81703256D01*
X73675966Y-81710210D01*
X73694624Y-81719034D01*
X73712328Y-81729645D01*
X73728906Y-81741940D01*
X73744199Y-81755801D01*
X73758060Y-81771094D01*
X73770355Y-81787672D01*
X73780966Y-81805376D01*
X73789790Y-81824034D01*
X73796744Y-81843467D01*
X73801759Y-81863489D01*
X73804787Y-81883905D01*
X73805800Y-81904520D01*
X73805800Y-83335480D01*
X73804787Y-83356095D01*
X73801759Y-83376511D01*
X73796744Y-83396533D01*
X73789790Y-83415966D01*
X73780966Y-83434624D01*
X73770355Y-83452328D01*
X73758060Y-83468906D01*
X73744199Y-83484199D01*
X73728906Y-83498060D01*
X73712328Y-83510355D01*
X73694624Y-83520966D01*
X73675966Y-83529790D01*
X73656533Y-83536744D01*
X73636511Y-83541759D01*
X73616095Y-83544787D01*
X73595480Y-83545800D01*
X72964520Y-83545800D01*
X72943905Y-83544787D01*
X72923489Y-83541759D01*
X72903467Y-83536744D01*
X72884034Y-83529790D01*
X72865376Y-83520966D01*
X72847672Y-83510355D01*
X72831094Y-83498060D01*
X72815801Y-83484199D01*
X72801940Y-83468906D01*
X72789645Y-83452328D01*
X72779034Y-83434624D01*
X72770210Y-83415966D01*
X72763256Y-83396533D01*
X72758241Y-83376511D01*
X72755213Y-83356095D01*
X72754200Y-83335480D01*
X72754200Y-81904520D01*
X72755213Y-81883905D01*
X72758241Y-81863489D01*
X72763256Y-81843467D01*
X72770210Y-81824034D01*
X72779034Y-81805376D01*
X72789645Y-81787672D01*
X72801940Y-81771094D01*
X72815801Y-81755801D01*
X72831094Y-81741940D01*
X72847672Y-81729645D01*
X72865376Y-81719034D01*
X72884034Y-81710210D01*
X72903467Y-81703256D01*
X72923489Y-81698241D01*
X72943905Y-81695213D01*
X72964520Y-81694200D01*
X73595480Y-81694200D01*
X73616095Y-81695213D01*
X73616095Y-81695213D01*
G37*
D15*
X73280000Y-82620000D03*
D21*
X71730000Y-82620000D03*
D14*
G36*
X70516095Y-66455213D02*
G01*
X70536511Y-66458241D01*
X70556533Y-66463256D01*
X70575966Y-66470210D01*
X70594624Y-66479034D01*
X70612328Y-66489645D01*
X70628906Y-66501940D01*
X70644199Y-66515801D01*
X70658060Y-66531094D01*
X70670355Y-66547672D01*
X70680966Y-66565376D01*
X70689790Y-66584034D01*
X70696744Y-66603467D01*
X70701759Y-66623489D01*
X70704787Y-66643905D01*
X70705800Y-66664520D01*
X70705800Y-68095480D01*
X70704787Y-68116095D01*
X70701759Y-68136511D01*
X70696744Y-68156533D01*
X70689790Y-68175966D01*
X70680966Y-68194624D01*
X70670355Y-68212328D01*
X70658060Y-68228906D01*
X70644199Y-68244199D01*
X70628906Y-68258060D01*
X70612328Y-68270355D01*
X70594624Y-68280966D01*
X70575966Y-68289790D01*
X70556533Y-68296744D01*
X70536511Y-68301759D01*
X70516095Y-68304787D01*
X70495480Y-68305800D01*
X69864520Y-68305800D01*
X69843905Y-68304787D01*
X69823489Y-68301759D01*
X69803467Y-68296744D01*
X69784034Y-68289790D01*
X69765376Y-68280966D01*
X69747672Y-68270355D01*
X69731094Y-68258060D01*
X69715801Y-68244199D01*
X69701940Y-68228906D01*
X69689645Y-68212328D01*
X69679034Y-68194624D01*
X69670210Y-68175966D01*
X69663256Y-68156533D01*
X69658241Y-68136511D01*
X69655213Y-68116095D01*
X69654200Y-68095480D01*
X69654200Y-66664520D01*
X69655213Y-66643905D01*
X69658241Y-66623489D01*
X69663256Y-66603467D01*
X69670210Y-66584034D01*
X69679034Y-66565376D01*
X69689645Y-66547672D01*
X69701940Y-66531094D01*
X69715801Y-66515801D01*
X69731094Y-66501940D01*
X69747672Y-66489645D01*
X69765376Y-66479034D01*
X69784034Y-66470210D01*
X69803467Y-66463256D01*
X69823489Y-66458241D01*
X69843905Y-66455213D01*
X69864520Y-66454200D01*
X70495480Y-66454200D01*
X70516095Y-66455213D01*
X70516095Y-66455213D01*
G37*
D15*
X70180000Y-67380000D03*
D14*
G36*
X73616095Y-66455213D02*
G01*
X73636511Y-66458241D01*
X73656533Y-66463256D01*
X73675966Y-66470210D01*
X73694624Y-66479034D01*
X73712328Y-66489645D01*
X73728906Y-66501940D01*
X73744199Y-66515801D01*
X73758060Y-66531094D01*
X73770355Y-66547672D01*
X73780966Y-66565376D01*
X73789790Y-66584034D01*
X73796744Y-66603467D01*
X73801759Y-66623489D01*
X73804787Y-66643905D01*
X73805800Y-66664520D01*
X73805800Y-68095480D01*
X73804787Y-68116095D01*
X73801759Y-68136511D01*
X73796744Y-68156533D01*
X73789790Y-68175966D01*
X73780966Y-68194624D01*
X73770355Y-68212328D01*
X73758060Y-68228906D01*
X73744199Y-68244199D01*
X73728906Y-68258060D01*
X73712328Y-68270355D01*
X73694624Y-68280966D01*
X73675966Y-68289790D01*
X73656533Y-68296744D01*
X73636511Y-68301759D01*
X73616095Y-68304787D01*
X73595480Y-68305800D01*
X72964520Y-68305800D01*
X72943905Y-68304787D01*
X72923489Y-68301759D01*
X72903467Y-68296744D01*
X72884034Y-68289790D01*
X72865376Y-68280966D01*
X72847672Y-68270355D01*
X72831094Y-68258060D01*
X72815801Y-68244199D01*
X72801940Y-68228906D01*
X72789645Y-68212328D01*
X72779034Y-68194624D01*
X72770210Y-68175966D01*
X72763256Y-68156533D01*
X72758241Y-68136511D01*
X72755213Y-68116095D01*
X72754200Y-68095480D01*
X72754200Y-66664520D01*
X72755213Y-66643905D01*
X72758241Y-66623489D01*
X72763256Y-66603467D01*
X72770210Y-66584034D01*
X72779034Y-66565376D01*
X72789645Y-66547672D01*
X72801940Y-66531094D01*
X72815801Y-66515801D01*
X72831094Y-66501940D01*
X72847672Y-66489645D01*
X72865376Y-66479034D01*
X72884034Y-66470210D01*
X72903467Y-66463256D01*
X72923489Y-66458241D01*
X72943905Y-66455213D01*
X72964520Y-66454200D01*
X73595480Y-66454200D01*
X73616095Y-66455213D01*
X73616095Y-66455213D01*
G37*
D15*
X73280000Y-67380000D03*
D21*
X71730000Y-67380000D03*
D14*
G36*
X70516095Y-74075213D02*
G01*
X70536511Y-74078241D01*
X70556533Y-74083256D01*
X70575966Y-74090210D01*
X70594624Y-74099034D01*
X70612328Y-74109645D01*
X70628906Y-74121940D01*
X70644199Y-74135801D01*
X70658060Y-74151094D01*
X70670355Y-74167672D01*
X70680966Y-74185376D01*
X70689790Y-74204034D01*
X70696744Y-74223467D01*
X70701759Y-74243489D01*
X70704787Y-74263905D01*
X70705800Y-74284520D01*
X70705800Y-75715480D01*
X70704787Y-75736095D01*
X70701759Y-75756511D01*
X70696744Y-75776533D01*
X70689790Y-75795966D01*
X70680966Y-75814624D01*
X70670355Y-75832328D01*
X70658060Y-75848906D01*
X70644199Y-75864199D01*
X70628906Y-75878060D01*
X70612328Y-75890355D01*
X70594624Y-75900966D01*
X70575966Y-75909790D01*
X70556533Y-75916744D01*
X70536511Y-75921759D01*
X70516095Y-75924787D01*
X70495480Y-75925800D01*
X69864520Y-75925800D01*
X69843905Y-75924787D01*
X69823489Y-75921759D01*
X69803467Y-75916744D01*
X69784034Y-75909790D01*
X69765376Y-75900966D01*
X69747672Y-75890355D01*
X69731094Y-75878060D01*
X69715801Y-75864199D01*
X69701940Y-75848906D01*
X69689645Y-75832328D01*
X69679034Y-75814624D01*
X69670210Y-75795966D01*
X69663256Y-75776533D01*
X69658241Y-75756511D01*
X69655213Y-75736095D01*
X69654200Y-75715480D01*
X69654200Y-74284520D01*
X69655213Y-74263905D01*
X69658241Y-74243489D01*
X69663256Y-74223467D01*
X69670210Y-74204034D01*
X69679034Y-74185376D01*
X69689645Y-74167672D01*
X69701940Y-74151094D01*
X69715801Y-74135801D01*
X69731094Y-74121940D01*
X69747672Y-74109645D01*
X69765376Y-74099034D01*
X69784034Y-74090210D01*
X69803467Y-74083256D01*
X69823489Y-74078241D01*
X69843905Y-74075213D01*
X69864520Y-74074200D01*
X70495480Y-74074200D01*
X70516095Y-74075213D01*
X70516095Y-74075213D01*
G37*
D15*
X70180000Y-75000000D03*
D14*
G36*
X73616095Y-74075213D02*
G01*
X73636511Y-74078241D01*
X73656533Y-74083256D01*
X73675966Y-74090210D01*
X73694624Y-74099034D01*
X73712328Y-74109645D01*
X73728906Y-74121940D01*
X73744199Y-74135801D01*
X73758060Y-74151094D01*
X73770355Y-74167672D01*
X73780966Y-74185376D01*
X73789790Y-74204034D01*
X73796744Y-74223467D01*
X73801759Y-74243489D01*
X73804787Y-74263905D01*
X73805800Y-74284520D01*
X73805800Y-75715480D01*
X73804787Y-75736095D01*
X73801759Y-75756511D01*
X73796744Y-75776533D01*
X73789790Y-75795966D01*
X73780966Y-75814624D01*
X73770355Y-75832328D01*
X73758060Y-75848906D01*
X73744199Y-75864199D01*
X73728906Y-75878060D01*
X73712328Y-75890355D01*
X73694624Y-75900966D01*
X73675966Y-75909790D01*
X73656533Y-75916744D01*
X73636511Y-75921759D01*
X73616095Y-75924787D01*
X73595480Y-75925800D01*
X72964520Y-75925800D01*
X72943905Y-75924787D01*
X72923489Y-75921759D01*
X72903467Y-75916744D01*
X72884034Y-75909790D01*
X72865376Y-75900966D01*
X72847672Y-75890355D01*
X72831094Y-75878060D01*
X72815801Y-75864199D01*
X72801940Y-75848906D01*
X72789645Y-75832328D01*
X72779034Y-75814624D01*
X72770210Y-75795966D01*
X72763256Y-75776533D01*
X72758241Y-75756511D01*
X72755213Y-75736095D01*
X72754200Y-75715480D01*
X72754200Y-74284520D01*
X72755213Y-74263905D01*
X72758241Y-74243489D01*
X72763256Y-74223467D01*
X72770210Y-74204034D01*
X72779034Y-74185376D01*
X72789645Y-74167672D01*
X72801940Y-74151094D01*
X72815801Y-74135801D01*
X72831094Y-74121940D01*
X72847672Y-74109645D01*
X72865376Y-74099034D01*
X72884034Y-74090210D01*
X72903467Y-74083256D01*
X72923489Y-74078241D01*
X72943905Y-74075213D01*
X72964520Y-74074200D01*
X73595480Y-74074200D01*
X73616095Y-74075213D01*
X73616095Y-74075213D01*
G37*
D15*
X73280000Y-75000000D03*
D21*
X71730000Y-75000000D03*
D22*
X170250000Y-102500000D03*
X170250000Y-47500000D03*
X77250000Y-47500000D03*
X77250000Y-102500000D03*
X221250000Y-103000000D03*
X221250000Y-53000000D03*
X178363248Y-40500000D03*
X68750000Y-40500000D03*
X68750000Y-103000000D03*
D23*
X206250000Y-118000000D03*
X145000000Y-118000000D03*
X83750000Y-118000000D03*
X53750000Y-95500000D03*
X53750000Y-50500000D03*
D24*
X200000000Y-75000000D03*
D25*
X196400000Y-65255000D03*
X196400000Y-64605000D03*
X196400000Y-63955000D03*
X196400000Y-63305000D03*
X196400000Y-62655000D03*
X196400000Y-62005000D03*
X196400000Y-61355000D03*
X196400000Y-60705000D03*
X196400000Y-60055000D03*
X196400000Y-59405000D03*
X196400000Y-58755000D03*
X196400000Y-58105000D03*
X196400000Y-57455000D03*
X196400000Y-56805000D03*
X203600000Y-56805000D03*
X203600000Y-57455000D03*
X203600000Y-58105000D03*
X203600000Y-58755000D03*
X203600000Y-59405000D03*
X203600000Y-60055000D03*
X203600000Y-60705000D03*
X203600000Y-61355000D03*
X203600000Y-62005000D03*
X203600000Y-62655000D03*
X203600000Y-63305000D03*
X203600000Y-63955000D03*
X203600000Y-64605000D03*
X203600000Y-65255000D03*
D14*
G36*
X71193669Y-78285466D02*
G01*
X71219189Y-78289252D01*
X71244216Y-78295520D01*
X71268507Y-78304212D01*
X71291830Y-78315243D01*
X71313959Y-78328507D01*
X71334682Y-78343876D01*
X71353798Y-78361202D01*
X71371124Y-78380318D01*
X71386493Y-78401041D01*
X71399757Y-78423170D01*
X71410788Y-78446493D01*
X71419480Y-78470784D01*
X71425748Y-78495811D01*
X71429534Y-78521331D01*
X71430800Y-78547100D01*
X71430800Y-79072900D01*
X71429534Y-79098669D01*
X71425748Y-79124189D01*
X71419480Y-79149216D01*
X71410788Y-79173507D01*
X71399757Y-79196830D01*
X71386493Y-79218959D01*
X71371124Y-79239682D01*
X71353798Y-79258798D01*
X71334682Y-79276124D01*
X71313959Y-79291493D01*
X71291830Y-79304757D01*
X71268507Y-79315788D01*
X71244216Y-79324480D01*
X71219189Y-79330748D01*
X71193669Y-79334534D01*
X71167900Y-79335800D01*
X70542100Y-79335800D01*
X70516331Y-79334534D01*
X70490811Y-79330748D01*
X70465784Y-79324480D01*
X70441493Y-79315788D01*
X70418170Y-79304757D01*
X70396041Y-79291493D01*
X70375318Y-79276124D01*
X70356202Y-79258798D01*
X70338876Y-79239682D01*
X70323507Y-79218959D01*
X70310243Y-79196830D01*
X70299212Y-79173507D01*
X70290520Y-79149216D01*
X70284252Y-79124189D01*
X70280466Y-79098669D01*
X70279200Y-79072900D01*
X70279200Y-78547100D01*
X70280466Y-78521331D01*
X70284252Y-78495811D01*
X70290520Y-78470784D01*
X70299212Y-78446493D01*
X70310243Y-78423170D01*
X70323507Y-78401041D01*
X70338876Y-78380318D01*
X70356202Y-78361202D01*
X70375318Y-78343876D01*
X70396041Y-78328507D01*
X70418170Y-78315243D01*
X70441493Y-78304212D01*
X70465784Y-78295520D01*
X70490811Y-78289252D01*
X70516331Y-78285466D01*
X70542100Y-78284200D01*
X71167900Y-78284200D01*
X71193669Y-78285466D01*
X71193669Y-78285466D01*
G37*
D15*
X70855000Y-78810000D03*
D14*
G36*
X72943669Y-78285466D02*
G01*
X72969189Y-78289252D01*
X72994216Y-78295520D01*
X73018507Y-78304212D01*
X73041830Y-78315243D01*
X73063959Y-78328507D01*
X73084682Y-78343876D01*
X73103798Y-78361202D01*
X73121124Y-78380318D01*
X73136493Y-78401041D01*
X73149757Y-78423170D01*
X73160788Y-78446493D01*
X73169480Y-78470784D01*
X73175748Y-78495811D01*
X73179534Y-78521331D01*
X73180800Y-78547100D01*
X73180800Y-79072900D01*
X73179534Y-79098669D01*
X73175748Y-79124189D01*
X73169480Y-79149216D01*
X73160788Y-79173507D01*
X73149757Y-79196830D01*
X73136493Y-79218959D01*
X73121124Y-79239682D01*
X73103798Y-79258798D01*
X73084682Y-79276124D01*
X73063959Y-79291493D01*
X73041830Y-79304757D01*
X73018507Y-79315788D01*
X72994216Y-79324480D01*
X72969189Y-79330748D01*
X72943669Y-79334534D01*
X72917900Y-79335800D01*
X72292100Y-79335800D01*
X72266331Y-79334534D01*
X72240811Y-79330748D01*
X72215784Y-79324480D01*
X72191493Y-79315788D01*
X72168170Y-79304757D01*
X72146041Y-79291493D01*
X72125318Y-79276124D01*
X72106202Y-79258798D01*
X72088876Y-79239682D01*
X72073507Y-79218959D01*
X72060243Y-79196830D01*
X72049212Y-79173507D01*
X72040520Y-79149216D01*
X72034252Y-79124189D01*
X72030466Y-79098669D01*
X72029200Y-79072900D01*
X72029200Y-78547100D01*
X72030466Y-78521331D01*
X72034252Y-78495811D01*
X72040520Y-78470784D01*
X72049212Y-78446493D01*
X72060243Y-78423170D01*
X72073507Y-78401041D01*
X72088876Y-78380318D01*
X72106202Y-78361202D01*
X72125318Y-78343876D01*
X72146041Y-78328507D01*
X72168170Y-78315243D01*
X72191493Y-78304212D01*
X72215784Y-78295520D01*
X72240811Y-78289252D01*
X72266331Y-78285466D01*
X72292100Y-78284200D01*
X72917900Y-78284200D01*
X72943669Y-78285466D01*
X72943669Y-78285466D01*
G37*
D15*
X72605000Y-78810000D03*
D14*
G36*
X71193669Y-63045466D02*
G01*
X71219189Y-63049252D01*
X71244216Y-63055520D01*
X71268507Y-63064212D01*
X71291830Y-63075243D01*
X71313959Y-63088507D01*
X71334682Y-63103876D01*
X71353798Y-63121202D01*
X71371124Y-63140318D01*
X71386493Y-63161041D01*
X71399757Y-63183170D01*
X71410788Y-63206493D01*
X71419480Y-63230784D01*
X71425748Y-63255811D01*
X71429534Y-63281331D01*
X71430800Y-63307100D01*
X71430800Y-63832900D01*
X71429534Y-63858669D01*
X71425748Y-63884189D01*
X71419480Y-63909216D01*
X71410788Y-63933507D01*
X71399757Y-63956830D01*
X71386493Y-63978959D01*
X71371124Y-63999682D01*
X71353798Y-64018798D01*
X71334682Y-64036124D01*
X71313959Y-64051493D01*
X71291830Y-64064757D01*
X71268507Y-64075788D01*
X71244216Y-64084480D01*
X71219189Y-64090748D01*
X71193669Y-64094534D01*
X71167900Y-64095800D01*
X70542100Y-64095800D01*
X70516331Y-64094534D01*
X70490811Y-64090748D01*
X70465784Y-64084480D01*
X70441493Y-64075788D01*
X70418170Y-64064757D01*
X70396041Y-64051493D01*
X70375318Y-64036124D01*
X70356202Y-64018798D01*
X70338876Y-63999682D01*
X70323507Y-63978959D01*
X70310243Y-63956830D01*
X70299212Y-63933507D01*
X70290520Y-63909216D01*
X70284252Y-63884189D01*
X70280466Y-63858669D01*
X70279200Y-63832900D01*
X70279200Y-63307100D01*
X70280466Y-63281331D01*
X70284252Y-63255811D01*
X70290520Y-63230784D01*
X70299212Y-63206493D01*
X70310243Y-63183170D01*
X70323507Y-63161041D01*
X70338876Y-63140318D01*
X70356202Y-63121202D01*
X70375318Y-63103876D01*
X70396041Y-63088507D01*
X70418170Y-63075243D01*
X70441493Y-63064212D01*
X70465784Y-63055520D01*
X70490811Y-63049252D01*
X70516331Y-63045466D01*
X70542100Y-63044200D01*
X71167900Y-63044200D01*
X71193669Y-63045466D01*
X71193669Y-63045466D01*
G37*
D15*
X70855000Y-63570000D03*
D14*
G36*
X72943669Y-63045466D02*
G01*
X72969189Y-63049252D01*
X72994216Y-63055520D01*
X73018507Y-63064212D01*
X73041830Y-63075243D01*
X73063959Y-63088507D01*
X73084682Y-63103876D01*
X73103798Y-63121202D01*
X73121124Y-63140318D01*
X73136493Y-63161041D01*
X73149757Y-63183170D01*
X73160788Y-63206493D01*
X73169480Y-63230784D01*
X73175748Y-63255811D01*
X73179534Y-63281331D01*
X73180800Y-63307100D01*
X73180800Y-63832900D01*
X73179534Y-63858669D01*
X73175748Y-63884189D01*
X73169480Y-63909216D01*
X73160788Y-63933507D01*
X73149757Y-63956830D01*
X73136493Y-63978959D01*
X73121124Y-63999682D01*
X73103798Y-64018798D01*
X73084682Y-64036124D01*
X73063959Y-64051493D01*
X73041830Y-64064757D01*
X73018507Y-64075788D01*
X72994216Y-64084480D01*
X72969189Y-64090748D01*
X72943669Y-64094534D01*
X72917900Y-64095800D01*
X72292100Y-64095800D01*
X72266331Y-64094534D01*
X72240811Y-64090748D01*
X72215784Y-64084480D01*
X72191493Y-64075788D01*
X72168170Y-64064757D01*
X72146041Y-64051493D01*
X72125318Y-64036124D01*
X72106202Y-64018798D01*
X72088876Y-63999682D01*
X72073507Y-63978959D01*
X72060243Y-63956830D01*
X72049212Y-63933507D01*
X72040520Y-63909216D01*
X72034252Y-63884189D01*
X72030466Y-63858669D01*
X72029200Y-63832900D01*
X72029200Y-63307100D01*
X72030466Y-63281331D01*
X72034252Y-63255811D01*
X72040520Y-63230784D01*
X72049212Y-63206493D01*
X72060243Y-63183170D01*
X72073507Y-63161041D01*
X72088876Y-63140318D01*
X72106202Y-63121202D01*
X72125318Y-63103876D01*
X72146041Y-63088507D01*
X72168170Y-63075243D01*
X72191493Y-63064212D01*
X72215784Y-63055520D01*
X72240811Y-63049252D01*
X72266331Y-63045466D01*
X72292100Y-63044200D01*
X72917900Y-63044200D01*
X72943669Y-63045466D01*
X72943669Y-63045466D01*
G37*
D15*
X72605000Y-63570000D03*
D14*
G36*
X71193669Y-70665466D02*
G01*
X71219189Y-70669252D01*
X71244216Y-70675520D01*
X71268507Y-70684212D01*
X71291830Y-70695243D01*
X71313959Y-70708507D01*
X71334682Y-70723876D01*
X71353798Y-70741202D01*
X71371124Y-70760318D01*
X71386493Y-70781041D01*
X71399757Y-70803170D01*
X71410788Y-70826493D01*
X71419480Y-70850784D01*
X71425748Y-70875811D01*
X71429534Y-70901331D01*
X71430800Y-70927100D01*
X71430800Y-71452900D01*
X71429534Y-71478669D01*
X71425748Y-71504189D01*
X71419480Y-71529216D01*
X71410788Y-71553507D01*
X71399757Y-71576830D01*
X71386493Y-71598959D01*
X71371124Y-71619682D01*
X71353798Y-71638798D01*
X71334682Y-71656124D01*
X71313959Y-71671493D01*
X71291830Y-71684757D01*
X71268507Y-71695788D01*
X71244216Y-71704480D01*
X71219189Y-71710748D01*
X71193669Y-71714534D01*
X71167900Y-71715800D01*
X70542100Y-71715800D01*
X70516331Y-71714534D01*
X70490811Y-71710748D01*
X70465784Y-71704480D01*
X70441493Y-71695788D01*
X70418170Y-71684757D01*
X70396041Y-71671493D01*
X70375318Y-71656124D01*
X70356202Y-71638798D01*
X70338876Y-71619682D01*
X70323507Y-71598959D01*
X70310243Y-71576830D01*
X70299212Y-71553507D01*
X70290520Y-71529216D01*
X70284252Y-71504189D01*
X70280466Y-71478669D01*
X70279200Y-71452900D01*
X70279200Y-70927100D01*
X70280466Y-70901331D01*
X70284252Y-70875811D01*
X70290520Y-70850784D01*
X70299212Y-70826493D01*
X70310243Y-70803170D01*
X70323507Y-70781041D01*
X70338876Y-70760318D01*
X70356202Y-70741202D01*
X70375318Y-70723876D01*
X70396041Y-70708507D01*
X70418170Y-70695243D01*
X70441493Y-70684212D01*
X70465784Y-70675520D01*
X70490811Y-70669252D01*
X70516331Y-70665466D01*
X70542100Y-70664200D01*
X71167900Y-70664200D01*
X71193669Y-70665466D01*
X71193669Y-70665466D01*
G37*
D15*
X70855000Y-71190000D03*
D14*
G36*
X72943669Y-70665466D02*
G01*
X72969189Y-70669252D01*
X72994216Y-70675520D01*
X73018507Y-70684212D01*
X73041830Y-70695243D01*
X73063959Y-70708507D01*
X73084682Y-70723876D01*
X73103798Y-70741202D01*
X73121124Y-70760318D01*
X73136493Y-70781041D01*
X73149757Y-70803170D01*
X73160788Y-70826493D01*
X73169480Y-70850784D01*
X73175748Y-70875811D01*
X73179534Y-70901331D01*
X73180800Y-70927100D01*
X73180800Y-71452900D01*
X73179534Y-71478669D01*
X73175748Y-71504189D01*
X73169480Y-71529216D01*
X73160788Y-71553507D01*
X73149757Y-71576830D01*
X73136493Y-71598959D01*
X73121124Y-71619682D01*
X73103798Y-71638798D01*
X73084682Y-71656124D01*
X73063959Y-71671493D01*
X73041830Y-71684757D01*
X73018507Y-71695788D01*
X72994216Y-71704480D01*
X72969189Y-71710748D01*
X72943669Y-71714534D01*
X72917900Y-71715800D01*
X72292100Y-71715800D01*
X72266331Y-71714534D01*
X72240811Y-71710748D01*
X72215784Y-71704480D01*
X72191493Y-71695788D01*
X72168170Y-71684757D01*
X72146041Y-71671493D01*
X72125318Y-71656124D01*
X72106202Y-71638798D01*
X72088876Y-71619682D01*
X72073507Y-71598959D01*
X72060243Y-71576830D01*
X72049212Y-71553507D01*
X72040520Y-71529216D01*
X72034252Y-71504189D01*
X72030466Y-71478669D01*
X72029200Y-71452900D01*
X72029200Y-70927100D01*
X72030466Y-70901331D01*
X72034252Y-70875811D01*
X72040520Y-70850784D01*
X72049212Y-70826493D01*
X72060243Y-70803170D01*
X72073507Y-70781041D01*
X72088876Y-70760318D01*
X72106202Y-70741202D01*
X72125318Y-70723876D01*
X72146041Y-70708507D01*
X72168170Y-70695243D01*
X72191493Y-70684212D01*
X72215784Y-70675520D01*
X72240811Y-70669252D01*
X72266331Y-70665466D01*
X72292100Y-70664200D01*
X72917900Y-70664200D01*
X72943669Y-70665466D01*
X72943669Y-70665466D01*
G37*
D15*
X72605000Y-71190000D03*
D14*
G36*
X184413669Y-96410466D02*
G01*
X184439189Y-96414252D01*
X184464216Y-96420520D01*
X184488507Y-96429212D01*
X184511830Y-96440243D01*
X184533959Y-96453507D01*
X184554682Y-96468876D01*
X184573798Y-96486202D01*
X184591124Y-96505318D01*
X184606493Y-96526041D01*
X184619757Y-96548170D01*
X184630788Y-96571493D01*
X184639480Y-96595784D01*
X184645748Y-96620811D01*
X184649534Y-96646331D01*
X184650800Y-96672100D01*
X184650800Y-97297900D01*
X184649534Y-97323669D01*
X184645748Y-97349189D01*
X184639480Y-97374216D01*
X184630788Y-97398507D01*
X184619757Y-97421830D01*
X184606493Y-97443959D01*
X184591124Y-97464682D01*
X184573798Y-97483798D01*
X184554682Y-97501124D01*
X184533959Y-97516493D01*
X184511830Y-97529757D01*
X184488507Y-97540788D01*
X184464216Y-97549480D01*
X184439189Y-97555748D01*
X184413669Y-97559534D01*
X184387900Y-97560800D01*
X183862100Y-97560800D01*
X183836331Y-97559534D01*
X183810811Y-97555748D01*
X183785784Y-97549480D01*
X183761493Y-97540788D01*
X183738170Y-97529757D01*
X183716041Y-97516493D01*
X183695318Y-97501124D01*
X183676202Y-97483798D01*
X183658876Y-97464682D01*
X183643507Y-97443959D01*
X183630243Y-97421830D01*
X183619212Y-97398507D01*
X183610520Y-97374216D01*
X183604252Y-97349189D01*
X183600466Y-97323669D01*
X183599200Y-97297900D01*
X183599200Y-96672100D01*
X183600466Y-96646331D01*
X183604252Y-96620811D01*
X183610520Y-96595784D01*
X183619212Y-96571493D01*
X183630243Y-96548170D01*
X183643507Y-96526041D01*
X183658876Y-96505318D01*
X183676202Y-96486202D01*
X183695318Y-96468876D01*
X183716041Y-96453507D01*
X183738170Y-96440243D01*
X183761493Y-96429212D01*
X183785784Y-96420520D01*
X183810811Y-96414252D01*
X183836331Y-96410466D01*
X183862100Y-96409200D01*
X184387900Y-96409200D01*
X184413669Y-96410466D01*
X184413669Y-96410466D01*
G37*
D15*
X184125000Y-96985000D03*
D14*
G36*
X184413669Y-98160466D02*
G01*
X184439189Y-98164252D01*
X184464216Y-98170520D01*
X184488507Y-98179212D01*
X184511830Y-98190243D01*
X184533959Y-98203507D01*
X184554682Y-98218876D01*
X184573798Y-98236202D01*
X184591124Y-98255318D01*
X184606493Y-98276041D01*
X184619757Y-98298170D01*
X184630788Y-98321493D01*
X184639480Y-98345784D01*
X184645748Y-98370811D01*
X184649534Y-98396331D01*
X184650800Y-98422100D01*
X184650800Y-99047900D01*
X184649534Y-99073669D01*
X184645748Y-99099189D01*
X184639480Y-99124216D01*
X184630788Y-99148507D01*
X184619757Y-99171830D01*
X184606493Y-99193959D01*
X184591124Y-99214682D01*
X184573798Y-99233798D01*
X184554682Y-99251124D01*
X184533959Y-99266493D01*
X184511830Y-99279757D01*
X184488507Y-99290788D01*
X184464216Y-99299480D01*
X184439189Y-99305748D01*
X184413669Y-99309534D01*
X184387900Y-99310800D01*
X183862100Y-99310800D01*
X183836331Y-99309534D01*
X183810811Y-99305748D01*
X183785784Y-99299480D01*
X183761493Y-99290788D01*
X183738170Y-99279757D01*
X183716041Y-99266493D01*
X183695318Y-99251124D01*
X183676202Y-99233798D01*
X183658876Y-99214682D01*
X183643507Y-99193959D01*
X183630243Y-99171830D01*
X183619212Y-99148507D01*
X183610520Y-99124216D01*
X183604252Y-99099189D01*
X183600466Y-99073669D01*
X183599200Y-99047900D01*
X183599200Y-98422100D01*
X183600466Y-98396331D01*
X183604252Y-98370811D01*
X183610520Y-98345784D01*
X183619212Y-98321493D01*
X183630243Y-98298170D01*
X183643507Y-98276041D01*
X183658876Y-98255318D01*
X183676202Y-98236202D01*
X183695318Y-98218876D01*
X183716041Y-98203507D01*
X183738170Y-98190243D01*
X183761493Y-98179212D01*
X183785784Y-98170520D01*
X183810811Y-98164252D01*
X183836331Y-98160466D01*
X183862100Y-98159200D01*
X184387900Y-98159200D01*
X184413669Y-98160466D01*
X184413669Y-98160466D01*
G37*
D15*
X184125000Y-98735000D03*
D14*
G36*
X186318669Y-96410466D02*
G01*
X186344189Y-96414252D01*
X186369216Y-96420520D01*
X186393507Y-96429212D01*
X186416830Y-96440243D01*
X186438959Y-96453507D01*
X186459682Y-96468876D01*
X186478798Y-96486202D01*
X186496124Y-96505318D01*
X186511493Y-96526041D01*
X186524757Y-96548170D01*
X186535788Y-96571493D01*
X186544480Y-96595784D01*
X186550748Y-96620811D01*
X186554534Y-96646331D01*
X186555800Y-96672100D01*
X186555800Y-97297900D01*
X186554534Y-97323669D01*
X186550748Y-97349189D01*
X186544480Y-97374216D01*
X186535788Y-97398507D01*
X186524757Y-97421830D01*
X186511493Y-97443959D01*
X186496124Y-97464682D01*
X186478798Y-97483798D01*
X186459682Y-97501124D01*
X186438959Y-97516493D01*
X186416830Y-97529757D01*
X186393507Y-97540788D01*
X186369216Y-97549480D01*
X186344189Y-97555748D01*
X186318669Y-97559534D01*
X186292900Y-97560800D01*
X185767100Y-97560800D01*
X185741331Y-97559534D01*
X185715811Y-97555748D01*
X185690784Y-97549480D01*
X185666493Y-97540788D01*
X185643170Y-97529757D01*
X185621041Y-97516493D01*
X185600318Y-97501124D01*
X185581202Y-97483798D01*
X185563876Y-97464682D01*
X185548507Y-97443959D01*
X185535243Y-97421830D01*
X185524212Y-97398507D01*
X185515520Y-97374216D01*
X185509252Y-97349189D01*
X185505466Y-97323669D01*
X185504200Y-97297900D01*
X185504200Y-96672100D01*
X185505466Y-96646331D01*
X185509252Y-96620811D01*
X185515520Y-96595784D01*
X185524212Y-96571493D01*
X185535243Y-96548170D01*
X185548507Y-96526041D01*
X185563876Y-96505318D01*
X185581202Y-96486202D01*
X185600318Y-96468876D01*
X185621041Y-96453507D01*
X185643170Y-96440243D01*
X185666493Y-96429212D01*
X185690784Y-96420520D01*
X185715811Y-96414252D01*
X185741331Y-96410466D01*
X185767100Y-96409200D01*
X186292900Y-96409200D01*
X186318669Y-96410466D01*
X186318669Y-96410466D01*
G37*
D15*
X186030000Y-96985000D03*
D14*
G36*
X186318669Y-98160466D02*
G01*
X186344189Y-98164252D01*
X186369216Y-98170520D01*
X186393507Y-98179212D01*
X186416830Y-98190243D01*
X186438959Y-98203507D01*
X186459682Y-98218876D01*
X186478798Y-98236202D01*
X186496124Y-98255318D01*
X186511493Y-98276041D01*
X186524757Y-98298170D01*
X186535788Y-98321493D01*
X186544480Y-98345784D01*
X186550748Y-98370811D01*
X186554534Y-98396331D01*
X186555800Y-98422100D01*
X186555800Y-99047900D01*
X186554534Y-99073669D01*
X186550748Y-99099189D01*
X186544480Y-99124216D01*
X186535788Y-99148507D01*
X186524757Y-99171830D01*
X186511493Y-99193959D01*
X186496124Y-99214682D01*
X186478798Y-99233798D01*
X186459682Y-99251124D01*
X186438959Y-99266493D01*
X186416830Y-99279757D01*
X186393507Y-99290788D01*
X186369216Y-99299480D01*
X186344189Y-99305748D01*
X186318669Y-99309534D01*
X186292900Y-99310800D01*
X185767100Y-99310800D01*
X185741331Y-99309534D01*
X185715811Y-99305748D01*
X185690784Y-99299480D01*
X185666493Y-99290788D01*
X185643170Y-99279757D01*
X185621041Y-99266493D01*
X185600318Y-99251124D01*
X185581202Y-99233798D01*
X185563876Y-99214682D01*
X185548507Y-99193959D01*
X185535243Y-99171830D01*
X185524212Y-99148507D01*
X185515520Y-99124216D01*
X185509252Y-99099189D01*
X185505466Y-99073669D01*
X185504200Y-99047900D01*
X185504200Y-98422100D01*
X185505466Y-98396331D01*
X185509252Y-98370811D01*
X185515520Y-98345784D01*
X185524212Y-98321493D01*
X185535243Y-98298170D01*
X185548507Y-98276041D01*
X185563876Y-98255318D01*
X185581202Y-98236202D01*
X185600318Y-98218876D01*
X185621041Y-98203507D01*
X185643170Y-98190243D01*
X185666493Y-98179212D01*
X185690784Y-98170520D01*
X185715811Y-98164252D01*
X185741331Y-98160466D01*
X185767100Y-98159200D01*
X186292900Y-98159200D01*
X186318669Y-98160466D01*
X186318669Y-98160466D01*
G37*
D15*
X186030000Y-98735000D03*
D14*
G36*
X188223669Y-96410466D02*
G01*
X188249189Y-96414252D01*
X188274216Y-96420520D01*
X188298507Y-96429212D01*
X188321830Y-96440243D01*
X188343959Y-96453507D01*
X188364682Y-96468876D01*
X188383798Y-96486202D01*
X188401124Y-96505318D01*
X188416493Y-96526041D01*
X188429757Y-96548170D01*
X188440788Y-96571493D01*
X188449480Y-96595784D01*
X188455748Y-96620811D01*
X188459534Y-96646331D01*
X188460800Y-96672100D01*
X188460800Y-97297900D01*
X188459534Y-97323669D01*
X188455748Y-97349189D01*
X188449480Y-97374216D01*
X188440788Y-97398507D01*
X188429757Y-97421830D01*
X188416493Y-97443959D01*
X188401124Y-97464682D01*
X188383798Y-97483798D01*
X188364682Y-97501124D01*
X188343959Y-97516493D01*
X188321830Y-97529757D01*
X188298507Y-97540788D01*
X188274216Y-97549480D01*
X188249189Y-97555748D01*
X188223669Y-97559534D01*
X188197900Y-97560800D01*
X187672100Y-97560800D01*
X187646331Y-97559534D01*
X187620811Y-97555748D01*
X187595784Y-97549480D01*
X187571493Y-97540788D01*
X187548170Y-97529757D01*
X187526041Y-97516493D01*
X187505318Y-97501124D01*
X187486202Y-97483798D01*
X187468876Y-97464682D01*
X187453507Y-97443959D01*
X187440243Y-97421830D01*
X187429212Y-97398507D01*
X187420520Y-97374216D01*
X187414252Y-97349189D01*
X187410466Y-97323669D01*
X187409200Y-97297900D01*
X187409200Y-96672100D01*
X187410466Y-96646331D01*
X187414252Y-96620811D01*
X187420520Y-96595784D01*
X187429212Y-96571493D01*
X187440243Y-96548170D01*
X187453507Y-96526041D01*
X187468876Y-96505318D01*
X187486202Y-96486202D01*
X187505318Y-96468876D01*
X187526041Y-96453507D01*
X187548170Y-96440243D01*
X187571493Y-96429212D01*
X187595784Y-96420520D01*
X187620811Y-96414252D01*
X187646331Y-96410466D01*
X187672100Y-96409200D01*
X188197900Y-96409200D01*
X188223669Y-96410466D01*
X188223669Y-96410466D01*
G37*
D15*
X187935000Y-96985000D03*
D14*
G36*
X188223669Y-98160466D02*
G01*
X188249189Y-98164252D01*
X188274216Y-98170520D01*
X188298507Y-98179212D01*
X188321830Y-98190243D01*
X188343959Y-98203507D01*
X188364682Y-98218876D01*
X188383798Y-98236202D01*
X188401124Y-98255318D01*
X188416493Y-98276041D01*
X188429757Y-98298170D01*
X188440788Y-98321493D01*
X188449480Y-98345784D01*
X188455748Y-98370811D01*
X188459534Y-98396331D01*
X188460800Y-98422100D01*
X188460800Y-99047900D01*
X188459534Y-99073669D01*
X188455748Y-99099189D01*
X188449480Y-99124216D01*
X188440788Y-99148507D01*
X188429757Y-99171830D01*
X188416493Y-99193959D01*
X188401124Y-99214682D01*
X188383798Y-99233798D01*
X188364682Y-99251124D01*
X188343959Y-99266493D01*
X188321830Y-99279757D01*
X188298507Y-99290788D01*
X188274216Y-99299480D01*
X188249189Y-99305748D01*
X188223669Y-99309534D01*
X188197900Y-99310800D01*
X187672100Y-99310800D01*
X187646331Y-99309534D01*
X187620811Y-99305748D01*
X187595784Y-99299480D01*
X187571493Y-99290788D01*
X187548170Y-99279757D01*
X187526041Y-99266493D01*
X187505318Y-99251124D01*
X187486202Y-99233798D01*
X187468876Y-99214682D01*
X187453507Y-99193959D01*
X187440243Y-99171830D01*
X187429212Y-99148507D01*
X187420520Y-99124216D01*
X187414252Y-99099189D01*
X187410466Y-99073669D01*
X187409200Y-99047900D01*
X187409200Y-98422100D01*
X187410466Y-98396331D01*
X187414252Y-98370811D01*
X187420520Y-98345784D01*
X187429212Y-98321493D01*
X187440243Y-98298170D01*
X187453507Y-98276041D01*
X187468876Y-98255318D01*
X187486202Y-98236202D01*
X187505318Y-98218876D01*
X187526041Y-98203507D01*
X187548170Y-98190243D01*
X187571493Y-98179212D01*
X187595784Y-98170520D01*
X187620811Y-98164252D01*
X187646331Y-98160466D01*
X187672100Y-98159200D01*
X188197900Y-98159200D01*
X188223669Y-98160466D01*
X188223669Y-98160466D01*
G37*
D15*
X187935000Y-98735000D03*
D14*
G36*
X130883669Y-49075466D02*
G01*
X130909189Y-49079252D01*
X130934216Y-49085520D01*
X130958507Y-49094212D01*
X130981830Y-49105243D01*
X131003959Y-49118507D01*
X131024682Y-49133876D01*
X131043798Y-49151202D01*
X131061124Y-49170318D01*
X131076493Y-49191041D01*
X131089757Y-49213170D01*
X131100788Y-49236493D01*
X131109480Y-49260784D01*
X131115748Y-49285811D01*
X131119534Y-49311331D01*
X131120800Y-49337100D01*
X131120800Y-49862900D01*
X131119534Y-49888669D01*
X131115748Y-49914189D01*
X131109480Y-49939216D01*
X131100788Y-49963507D01*
X131089757Y-49986830D01*
X131076493Y-50008959D01*
X131061124Y-50029682D01*
X131043798Y-50048798D01*
X131024682Y-50066124D01*
X131003959Y-50081493D01*
X130981830Y-50094757D01*
X130958507Y-50105788D01*
X130934216Y-50114480D01*
X130909189Y-50120748D01*
X130883669Y-50124534D01*
X130857900Y-50125800D01*
X130232100Y-50125800D01*
X130206331Y-50124534D01*
X130180811Y-50120748D01*
X130155784Y-50114480D01*
X130131493Y-50105788D01*
X130108170Y-50094757D01*
X130086041Y-50081493D01*
X130065318Y-50066124D01*
X130046202Y-50048798D01*
X130028876Y-50029682D01*
X130013507Y-50008959D01*
X130000243Y-49986830D01*
X129989212Y-49963507D01*
X129980520Y-49939216D01*
X129974252Y-49914189D01*
X129970466Y-49888669D01*
X129969200Y-49862900D01*
X129969200Y-49337100D01*
X129970466Y-49311331D01*
X129974252Y-49285811D01*
X129980520Y-49260784D01*
X129989212Y-49236493D01*
X130000243Y-49213170D01*
X130013507Y-49191041D01*
X130028876Y-49170318D01*
X130046202Y-49151202D01*
X130065318Y-49133876D01*
X130086041Y-49118507D01*
X130108170Y-49105243D01*
X130131493Y-49094212D01*
X130155784Y-49085520D01*
X130180811Y-49079252D01*
X130206331Y-49075466D01*
X130232100Y-49074200D01*
X130857900Y-49074200D01*
X130883669Y-49075466D01*
X130883669Y-49075466D01*
G37*
D15*
X130545000Y-49600000D03*
D14*
G36*
X132633669Y-49075466D02*
G01*
X132659189Y-49079252D01*
X132684216Y-49085520D01*
X132708507Y-49094212D01*
X132731830Y-49105243D01*
X132753959Y-49118507D01*
X132774682Y-49133876D01*
X132793798Y-49151202D01*
X132811124Y-49170318D01*
X132826493Y-49191041D01*
X132839757Y-49213170D01*
X132850788Y-49236493D01*
X132859480Y-49260784D01*
X132865748Y-49285811D01*
X132869534Y-49311331D01*
X132870800Y-49337100D01*
X132870800Y-49862900D01*
X132869534Y-49888669D01*
X132865748Y-49914189D01*
X132859480Y-49939216D01*
X132850788Y-49963507D01*
X132839757Y-49986830D01*
X132826493Y-50008959D01*
X132811124Y-50029682D01*
X132793798Y-50048798D01*
X132774682Y-50066124D01*
X132753959Y-50081493D01*
X132731830Y-50094757D01*
X132708507Y-50105788D01*
X132684216Y-50114480D01*
X132659189Y-50120748D01*
X132633669Y-50124534D01*
X132607900Y-50125800D01*
X131982100Y-50125800D01*
X131956331Y-50124534D01*
X131930811Y-50120748D01*
X131905784Y-50114480D01*
X131881493Y-50105788D01*
X131858170Y-50094757D01*
X131836041Y-50081493D01*
X131815318Y-50066124D01*
X131796202Y-50048798D01*
X131778876Y-50029682D01*
X131763507Y-50008959D01*
X131750243Y-49986830D01*
X131739212Y-49963507D01*
X131730520Y-49939216D01*
X131724252Y-49914189D01*
X131720466Y-49888669D01*
X131719200Y-49862900D01*
X131719200Y-49337100D01*
X131720466Y-49311331D01*
X131724252Y-49285811D01*
X131730520Y-49260784D01*
X131739212Y-49236493D01*
X131750243Y-49213170D01*
X131763507Y-49191041D01*
X131778876Y-49170318D01*
X131796202Y-49151202D01*
X131815318Y-49133876D01*
X131836041Y-49118507D01*
X131858170Y-49105243D01*
X131881493Y-49094212D01*
X131905784Y-49085520D01*
X131930811Y-49079252D01*
X131956331Y-49075466D01*
X131982100Y-49074200D01*
X132607900Y-49074200D01*
X132633669Y-49075466D01*
X132633669Y-49075466D01*
G37*
D15*
X132295000Y-49600000D03*
D14*
G36*
X130883669Y-47170466D02*
G01*
X130909189Y-47174252D01*
X130934216Y-47180520D01*
X130958507Y-47189212D01*
X130981830Y-47200243D01*
X131003959Y-47213507D01*
X131024682Y-47228876D01*
X131043798Y-47246202D01*
X131061124Y-47265318D01*
X131076493Y-47286041D01*
X131089757Y-47308170D01*
X131100788Y-47331493D01*
X131109480Y-47355784D01*
X131115748Y-47380811D01*
X131119534Y-47406331D01*
X131120800Y-47432100D01*
X131120800Y-47957900D01*
X131119534Y-47983669D01*
X131115748Y-48009189D01*
X131109480Y-48034216D01*
X131100788Y-48058507D01*
X131089757Y-48081830D01*
X131076493Y-48103959D01*
X131061124Y-48124682D01*
X131043798Y-48143798D01*
X131024682Y-48161124D01*
X131003959Y-48176493D01*
X130981830Y-48189757D01*
X130958507Y-48200788D01*
X130934216Y-48209480D01*
X130909189Y-48215748D01*
X130883669Y-48219534D01*
X130857900Y-48220800D01*
X130232100Y-48220800D01*
X130206331Y-48219534D01*
X130180811Y-48215748D01*
X130155784Y-48209480D01*
X130131493Y-48200788D01*
X130108170Y-48189757D01*
X130086041Y-48176493D01*
X130065318Y-48161124D01*
X130046202Y-48143798D01*
X130028876Y-48124682D01*
X130013507Y-48103959D01*
X130000243Y-48081830D01*
X129989212Y-48058507D01*
X129980520Y-48034216D01*
X129974252Y-48009189D01*
X129970466Y-47983669D01*
X129969200Y-47957900D01*
X129969200Y-47432100D01*
X129970466Y-47406331D01*
X129974252Y-47380811D01*
X129980520Y-47355784D01*
X129989212Y-47331493D01*
X130000243Y-47308170D01*
X130013507Y-47286041D01*
X130028876Y-47265318D01*
X130046202Y-47246202D01*
X130065318Y-47228876D01*
X130086041Y-47213507D01*
X130108170Y-47200243D01*
X130131493Y-47189212D01*
X130155784Y-47180520D01*
X130180811Y-47174252D01*
X130206331Y-47170466D01*
X130232100Y-47169200D01*
X130857900Y-47169200D01*
X130883669Y-47170466D01*
X130883669Y-47170466D01*
G37*
D15*
X130545000Y-47695000D03*
D14*
G36*
X132633669Y-47170466D02*
G01*
X132659189Y-47174252D01*
X132684216Y-47180520D01*
X132708507Y-47189212D01*
X132731830Y-47200243D01*
X132753959Y-47213507D01*
X132774682Y-47228876D01*
X132793798Y-47246202D01*
X132811124Y-47265318D01*
X132826493Y-47286041D01*
X132839757Y-47308170D01*
X132850788Y-47331493D01*
X132859480Y-47355784D01*
X132865748Y-47380811D01*
X132869534Y-47406331D01*
X132870800Y-47432100D01*
X132870800Y-47957900D01*
X132869534Y-47983669D01*
X132865748Y-48009189D01*
X132859480Y-48034216D01*
X132850788Y-48058507D01*
X132839757Y-48081830D01*
X132826493Y-48103959D01*
X132811124Y-48124682D01*
X132793798Y-48143798D01*
X132774682Y-48161124D01*
X132753959Y-48176493D01*
X132731830Y-48189757D01*
X132708507Y-48200788D01*
X132684216Y-48209480D01*
X132659189Y-48215748D01*
X132633669Y-48219534D01*
X132607900Y-48220800D01*
X131982100Y-48220800D01*
X131956331Y-48219534D01*
X131930811Y-48215748D01*
X131905784Y-48209480D01*
X131881493Y-48200788D01*
X131858170Y-48189757D01*
X131836041Y-48176493D01*
X131815318Y-48161124D01*
X131796202Y-48143798D01*
X131778876Y-48124682D01*
X131763507Y-48103959D01*
X131750243Y-48081830D01*
X131739212Y-48058507D01*
X131730520Y-48034216D01*
X131724252Y-48009189D01*
X131720466Y-47983669D01*
X131719200Y-47957900D01*
X131719200Y-47432100D01*
X131720466Y-47406331D01*
X131724252Y-47380811D01*
X131730520Y-47355784D01*
X131739212Y-47331493D01*
X131750243Y-47308170D01*
X131763507Y-47286041D01*
X131778876Y-47265318D01*
X131796202Y-47246202D01*
X131815318Y-47228876D01*
X131836041Y-47213507D01*
X131858170Y-47200243D01*
X131881493Y-47189212D01*
X131905784Y-47180520D01*
X131930811Y-47174252D01*
X131956331Y-47170466D01*
X131982100Y-47169200D01*
X132607900Y-47169200D01*
X132633669Y-47170466D01*
X132633669Y-47170466D01*
G37*
D15*
X132295000Y-47695000D03*
D14*
G36*
X130883669Y-45265466D02*
G01*
X130909189Y-45269252D01*
X130934216Y-45275520D01*
X130958507Y-45284212D01*
X130981830Y-45295243D01*
X131003959Y-45308507D01*
X131024682Y-45323876D01*
X131043798Y-45341202D01*
X131061124Y-45360318D01*
X131076493Y-45381041D01*
X131089757Y-45403170D01*
X131100788Y-45426493D01*
X131109480Y-45450784D01*
X131115748Y-45475811D01*
X131119534Y-45501331D01*
X131120800Y-45527100D01*
X131120800Y-46052900D01*
X131119534Y-46078669D01*
X131115748Y-46104189D01*
X131109480Y-46129216D01*
X131100788Y-46153507D01*
X131089757Y-46176830D01*
X131076493Y-46198959D01*
X131061124Y-46219682D01*
X131043798Y-46238798D01*
X131024682Y-46256124D01*
X131003959Y-46271493D01*
X130981830Y-46284757D01*
X130958507Y-46295788D01*
X130934216Y-46304480D01*
X130909189Y-46310748D01*
X130883669Y-46314534D01*
X130857900Y-46315800D01*
X130232100Y-46315800D01*
X130206331Y-46314534D01*
X130180811Y-46310748D01*
X130155784Y-46304480D01*
X130131493Y-46295788D01*
X130108170Y-46284757D01*
X130086041Y-46271493D01*
X130065318Y-46256124D01*
X130046202Y-46238798D01*
X130028876Y-46219682D01*
X130013507Y-46198959D01*
X130000243Y-46176830D01*
X129989212Y-46153507D01*
X129980520Y-46129216D01*
X129974252Y-46104189D01*
X129970466Y-46078669D01*
X129969200Y-46052900D01*
X129969200Y-45527100D01*
X129970466Y-45501331D01*
X129974252Y-45475811D01*
X129980520Y-45450784D01*
X129989212Y-45426493D01*
X130000243Y-45403170D01*
X130013507Y-45381041D01*
X130028876Y-45360318D01*
X130046202Y-45341202D01*
X130065318Y-45323876D01*
X130086041Y-45308507D01*
X130108170Y-45295243D01*
X130131493Y-45284212D01*
X130155784Y-45275520D01*
X130180811Y-45269252D01*
X130206331Y-45265466D01*
X130232100Y-45264200D01*
X130857900Y-45264200D01*
X130883669Y-45265466D01*
X130883669Y-45265466D01*
G37*
D15*
X130545000Y-45790000D03*
D14*
G36*
X132633669Y-45265466D02*
G01*
X132659189Y-45269252D01*
X132684216Y-45275520D01*
X132708507Y-45284212D01*
X132731830Y-45295243D01*
X132753959Y-45308507D01*
X132774682Y-45323876D01*
X132793798Y-45341202D01*
X132811124Y-45360318D01*
X132826493Y-45381041D01*
X132839757Y-45403170D01*
X132850788Y-45426493D01*
X132859480Y-45450784D01*
X132865748Y-45475811D01*
X132869534Y-45501331D01*
X132870800Y-45527100D01*
X132870800Y-46052900D01*
X132869534Y-46078669D01*
X132865748Y-46104189D01*
X132859480Y-46129216D01*
X132850788Y-46153507D01*
X132839757Y-46176830D01*
X132826493Y-46198959D01*
X132811124Y-46219682D01*
X132793798Y-46238798D01*
X132774682Y-46256124D01*
X132753959Y-46271493D01*
X132731830Y-46284757D01*
X132708507Y-46295788D01*
X132684216Y-46304480D01*
X132659189Y-46310748D01*
X132633669Y-46314534D01*
X132607900Y-46315800D01*
X131982100Y-46315800D01*
X131956331Y-46314534D01*
X131930811Y-46310748D01*
X131905784Y-46304480D01*
X131881493Y-46295788D01*
X131858170Y-46284757D01*
X131836041Y-46271493D01*
X131815318Y-46256124D01*
X131796202Y-46238798D01*
X131778876Y-46219682D01*
X131763507Y-46198959D01*
X131750243Y-46176830D01*
X131739212Y-46153507D01*
X131730520Y-46129216D01*
X131724252Y-46104189D01*
X131720466Y-46078669D01*
X131719200Y-46052900D01*
X131719200Y-45527100D01*
X131720466Y-45501331D01*
X131724252Y-45475811D01*
X131730520Y-45450784D01*
X131739212Y-45426493D01*
X131750243Y-45403170D01*
X131763507Y-45381041D01*
X131778876Y-45360318D01*
X131796202Y-45341202D01*
X131815318Y-45323876D01*
X131836041Y-45308507D01*
X131858170Y-45295243D01*
X131881493Y-45284212D01*
X131905784Y-45275520D01*
X131930811Y-45269252D01*
X131956331Y-45265466D01*
X131982100Y-45264200D01*
X132607900Y-45264200D01*
X132633669Y-45265466D01*
X132633669Y-45265466D01*
G37*
D15*
X132295000Y-45790000D03*
D14*
G36*
X216163669Y-82440466D02*
G01*
X216189189Y-82444252D01*
X216214216Y-82450520D01*
X216238507Y-82459212D01*
X216261830Y-82470243D01*
X216283959Y-82483507D01*
X216304682Y-82498876D01*
X216323798Y-82516202D01*
X216341124Y-82535318D01*
X216356493Y-82556041D01*
X216369757Y-82578170D01*
X216380788Y-82601493D01*
X216389480Y-82625784D01*
X216395748Y-82650811D01*
X216399534Y-82676331D01*
X216400800Y-82702100D01*
X216400800Y-83327900D01*
X216399534Y-83353669D01*
X216395748Y-83379189D01*
X216389480Y-83404216D01*
X216380788Y-83428507D01*
X216369757Y-83451830D01*
X216356493Y-83473959D01*
X216341124Y-83494682D01*
X216323798Y-83513798D01*
X216304682Y-83531124D01*
X216283959Y-83546493D01*
X216261830Y-83559757D01*
X216238507Y-83570788D01*
X216214216Y-83579480D01*
X216189189Y-83585748D01*
X216163669Y-83589534D01*
X216137900Y-83590800D01*
X215612100Y-83590800D01*
X215586331Y-83589534D01*
X215560811Y-83585748D01*
X215535784Y-83579480D01*
X215511493Y-83570788D01*
X215488170Y-83559757D01*
X215466041Y-83546493D01*
X215445318Y-83531124D01*
X215426202Y-83513798D01*
X215408876Y-83494682D01*
X215393507Y-83473959D01*
X215380243Y-83451830D01*
X215369212Y-83428507D01*
X215360520Y-83404216D01*
X215354252Y-83379189D01*
X215350466Y-83353669D01*
X215349200Y-83327900D01*
X215349200Y-82702100D01*
X215350466Y-82676331D01*
X215354252Y-82650811D01*
X215360520Y-82625784D01*
X215369212Y-82601493D01*
X215380243Y-82578170D01*
X215393507Y-82556041D01*
X215408876Y-82535318D01*
X215426202Y-82516202D01*
X215445318Y-82498876D01*
X215466041Y-82483507D01*
X215488170Y-82470243D01*
X215511493Y-82459212D01*
X215535784Y-82450520D01*
X215560811Y-82444252D01*
X215586331Y-82440466D01*
X215612100Y-82439200D01*
X216137900Y-82439200D01*
X216163669Y-82440466D01*
X216163669Y-82440466D01*
G37*
D15*
X215875000Y-83015000D03*
D14*
G36*
X216163669Y-84190466D02*
G01*
X216189189Y-84194252D01*
X216214216Y-84200520D01*
X216238507Y-84209212D01*
X216261830Y-84220243D01*
X216283959Y-84233507D01*
X216304682Y-84248876D01*
X216323798Y-84266202D01*
X216341124Y-84285318D01*
X216356493Y-84306041D01*
X216369757Y-84328170D01*
X216380788Y-84351493D01*
X216389480Y-84375784D01*
X216395748Y-84400811D01*
X216399534Y-84426331D01*
X216400800Y-84452100D01*
X216400800Y-85077900D01*
X216399534Y-85103669D01*
X216395748Y-85129189D01*
X216389480Y-85154216D01*
X216380788Y-85178507D01*
X216369757Y-85201830D01*
X216356493Y-85223959D01*
X216341124Y-85244682D01*
X216323798Y-85263798D01*
X216304682Y-85281124D01*
X216283959Y-85296493D01*
X216261830Y-85309757D01*
X216238507Y-85320788D01*
X216214216Y-85329480D01*
X216189189Y-85335748D01*
X216163669Y-85339534D01*
X216137900Y-85340800D01*
X215612100Y-85340800D01*
X215586331Y-85339534D01*
X215560811Y-85335748D01*
X215535784Y-85329480D01*
X215511493Y-85320788D01*
X215488170Y-85309757D01*
X215466041Y-85296493D01*
X215445318Y-85281124D01*
X215426202Y-85263798D01*
X215408876Y-85244682D01*
X215393507Y-85223959D01*
X215380243Y-85201830D01*
X215369212Y-85178507D01*
X215360520Y-85154216D01*
X215354252Y-85129189D01*
X215350466Y-85103669D01*
X215349200Y-85077900D01*
X215349200Y-84452100D01*
X215350466Y-84426331D01*
X215354252Y-84400811D01*
X215360520Y-84375784D01*
X215369212Y-84351493D01*
X215380243Y-84328170D01*
X215393507Y-84306041D01*
X215408876Y-84285318D01*
X215426202Y-84266202D01*
X215445318Y-84248876D01*
X215466041Y-84233507D01*
X215488170Y-84220243D01*
X215511493Y-84209212D01*
X215535784Y-84200520D01*
X215560811Y-84194252D01*
X215586331Y-84190466D01*
X215612100Y-84189200D01*
X216137900Y-84189200D01*
X216163669Y-84190466D01*
X216163669Y-84190466D01*
G37*
D15*
X215875000Y-84765000D03*
D14*
G36*
X206638669Y-61330466D02*
G01*
X206664189Y-61334252D01*
X206689216Y-61340520D01*
X206713507Y-61349212D01*
X206736830Y-61360243D01*
X206758959Y-61373507D01*
X206779682Y-61388876D01*
X206798798Y-61406202D01*
X206816124Y-61425318D01*
X206831493Y-61446041D01*
X206844757Y-61468170D01*
X206855788Y-61491493D01*
X206864480Y-61515784D01*
X206870748Y-61540811D01*
X206874534Y-61566331D01*
X206875800Y-61592100D01*
X206875800Y-62217900D01*
X206874534Y-62243669D01*
X206870748Y-62269189D01*
X206864480Y-62294216D01*
X206855788Y-62318507D01*
X206844757Y-62341830D01*
X206831493Y-62363959D01*
X206816124Y-62384682D01*
X206798798Y-62403798D01*
X206779682Y-62421124D01*
X206758959Y-62436493D01*
X206736830Y-62449757D01*
X206713507Y-62460788D01*
X206689216Y-62469480D01*
X206664189Y-62475748D01*
X206638669Y-62479534D01*
X206612900Y-62480800D01*
X206087100Y-62480800D01*
X206061331Y-62479534D01*
X206035811Y-62475748D01*
X206010784Y-62469480D01*
X205986493Y-62460788D01*
X205963170Y-62449757D01*
X205941041Y-62436493D01*
X205920318Y-62421124D01*
X205901202Y-62403798D01*
X205883876Y-62384682D01*
X205868507Y-62363959D01*
X205855243Y-62341830D01*
X205844212Y-62318507D01*
X205835520Y-62294216D01*
X205829252Y-62269189D01*
X205825466Y-62243669D01*
X205824200Y-62217900D01*
X205824200Y-61592100D01*
X205825466Y-61566331D01*
X205829252Y-61540811D01*
X205835520Y-61515784D01*
X205844212Y-61491493D01*
X205855243Y-61468170D01*
X205868507Y-61446041D01*
X205883876Y-61425318D01*
X205901202Y-61406202D01*
X205920318Y-61388876D01*
X205941041Y-61373507D01*
X205963170Y-61360243D01*
X205986493Y-61349212D01*
X206010784Y-61340520D01*
X206035811Y-61334252D01*
X206061331Y-61330466D01*
X206087100Y-61329200D01*
X206612900Y-61329200D01*
X206638669Y-61330466D01*
X206638669Y-61330466D01*
G37*
D15*
X206350000Y-61905000D03*
D14*
G36*
X206638669Y-59580466D02*
G01*
X206664189Y-59584252D01*
X206689216Y-59590520D01*
X206713507Y-59599212D01*
X206736830Y-59610243D01*
X206758959Y-59623507D01*
X206779682Y-59638876D01*
X206798798Y-59656202D01*
X206816124Y-59675318D01*
X206831493Y-59696041D01*
X206844757Y-59718170D01*
X206855788Y-59741493D01*
X206864480Y-59765784D01*
X206870748Y-59790811D01*
X206874534Y-59816331D01*
X206875800Y-59842100D01*
X206875800Y-60467900D01*
X206874534Y-60493669D01*
X206870748Y-60519189D01*
X206864480Y-60544216D01*
X206855788Y-60568507D01*
X206844757Y-60591830D01*
X206831493Y-60613959D01*
X206816124Y-60634682D01*
X206798798Y-60653798D01*
X206779682Y-60671124D01*
X206758959Y-60686493D01*
X206736830Y-60699757D01*
X206713507Y-60710788D01*
X206689216Y-60719480D01*
X206664189Y-60725748D01*
X206638669Y-60729534D01*
X206612900Y-60730800D01*
X206087100Y-60730800D01*
X206061331Y-60729534D01*
X206035811Y-60725748D01*
X206010784Y-60719480D01*
X205986493Y-60710788D01*
X205963170Y-60699757D01*
X205941041Y-60686493D01*
X205920318Y-60671124D01*
X205901202Y-60653798D01*
X205883876Y-60634682D01*
X205868507Y-60613959D01*
X205855243Y-60591830D01*
X205844212Y-60568507D01*
X205835520Y-60544216D01*
X205829252Y-60519189D01*
X205825466Y-60493669D01*
X205824200Y-60467900D01*
X205824200Y-59842100D01*
X205825466Y-59816331D01*
X205829252Y-59790811D01*
X205835520Y-59765784D01*
X205844212Y-59741493D01*
X205855243Y-59718170D01*
X205868507Y-59696041D01*
X205883876Y-59675318D01*
X205901202Y-59656202D01*
X205920318Y-59638876D01*
X205941041Y-59623507D01*
X205963170Y-59610243D01*
X205986493Y-59599212D01*
X206010784Y-59590520D01*
X206035811Y-59584252D01*
X206061331Y-59580466D01*
X206087100Y-59579200D01*
X206612900Y-59579200D01*
X206638669Y-59580466D01*
X206638669Y-59580466D01*
G37*
D15*
X206350000Y-60155000D03*
D14*
G36*
X206638669Y-84190466D02*
G01*
X206664189Y-84194252D01*
X206689216Y-84200520D01*
X206713507Y-84209212D01*
X206736830Y-84220243D01*
X206758959Y-84233507D01*
X206779682Y-84248876D01*
X206798798Y-84266202D01*
X206816124Y-84285318D01*
X206831493Y-84306041D01*
X206844757Y-84328170D01*
X206855788Y-84351493D01*
X206864480Y-84375784D01*
X206870748Y-84400811D01*
X206874534Y-84426331D01*
X206875800Y-84452100D01*
X206875800Y-85077900D01*
X206874534Y-85103669D01*
X206870748Y-85129189D01*
X206864480Y-85154216D01*
X206855788Y-85178507D01*
X206844757Y-85201830D01*
X206831493Y-85223959D01*
X206816124Y-85244682D01*
X206798798Y-85263798D01*
X206779682Y-85281124D01*
X206758959Y-85296493D01*
X206736830Y-85309757D01*
X206713507Y-85320788D01*
X206689216Y-85329480D01*
X206664189Y-85335748D01*
X206638669Y-85339534D01*
X206612900Y-85340800D01*
X206087100Y-85340800D01*
X206061331Y-85339534D01*
X206035811Y-85335748D01*
X206010784Y-85329480D01*
X205986493Y-85320788D01*
X205963170Y-85309757D01*
X205941041Y-85296493D01*
X205920318Y-85281124D01*
X205901202Y-85263798D01*
X205883876Y-85244682D01*
X205868507Y-85223959D01*
X205855243Y-85201830D01*
X205844212Y-85178507D01*
X205835520Y-85154216D01*
X205829252Y-85129189D01*
X205825466Y-85103669D01*
X205824200Y-85077900D01*
X205824200Y-84452100D01*
X205825466Y-84426331D01*
X205829252Y-84400811D01*
X205835520Y-84375784D01*
X205844212Y-84351493D01*
X205855243Y-84328170D01*
X205868507Y-84306041D01*
X205883876Y-84285318D01*
X205901202Y-84266202D01*
X205920318Y-84248876D01*
X205941041Y-84233507D01*
X205963170Y-84220243D01*
X205986493Y-84209212D01*
X206010784Y-84200520D01*
X206035811Y-84194252D01*
X206061331Y-84190466D01*
X206087100Y-84189200D01*
X206612900Y-84189200D01*
X206638669Y-84190466D01*
X206638669Y-84190466D01*
G37*
D15*
X206350000Y-84765000D03*
D14*
G36*
X206638669Y-82440466D02*
G01*
X206664189Y-82444252D01*
X206689216Y-82450520D01*
X206713507Y-82459212D01*
X206736830Y-82470243D01*
X206758959Y-82483507D01*
X206779682Y-82498876D01*
X206798798Y-82516202D01*
X206816124Y-82535318D01*
X206831493Y-82556041D01*
X206844757Y-82578170D01*
X206855788Y-82601493D01*
X206864480Y-82625784D01*
X206870748Y-82650811D01*
X206874534Y-82676331D01*
X206875800Y-82702100D01*
X206875800Y-83327900D01*
X206874534Y-83353669D01*
X206870748Y-83379189D01*
X206864480Y-83404216D01*
X206855788Y-83428507D01*
X206844757Y-83451830D01*
X206831493Y-83473959D01*
X206816124Y-83494682D01*
X206798798Y-83513798D01*
X206779682Y-83531124D01*
X206758959Y-83546493D01*
X206736830Y-83559757D01*
X206713507Y-83570788D01*
X206689216Y-83579480D01*
X206664189Y-83585748D01*
X206638669Y-83589534D01*
X206612900Y-83590800D01*
X206087100Y-83590800D01*
X206061331Y-83589534D01*
X206035811Y-83585748D01*
X206010784Y-83579480D01*
X205986493Y-83570788D01*
X205963170Y-83559757D01*
X205941041Y-83546493D01*
X205920318Y-83531124D01*
X205901202Y-83513798D01*
X205883876Y-83494682D01*
X205868507Y-83473959D01*
X205855243Y-83451830D01*
X205844212Y-83428507D01*
X205835520Y-83404216D01*
X205829252Y-83379189D01*
X205825466Y-83353669D01*
X205824200Y-83327900D01*
X205824200Y-82702100D01*
X205825466Y-82676331D01*
X205829252Y-82650811D01*
X205835520Y-82625784D01*
X205844212Y-82601493D01*
X205855243Y-82578170D01*
X205868507Y-82556041D01*
X205883876Y-82535318D01*
X205901202Y-82516202D01*
X205920318Y-82498876D01*
X205941041Y-82483507D01*
X205963170Y-82470243D01*
X205986493Y-82459212D01*
X206010784Y-82450520D01*
X206035811Y-82444252D01*
X206061331Y-82440466D01*
X206087100Y-82439200D01*
X206612900Y-82439200D01*
X206638669Y-82440466D01*
X206638669Y-82440466D01*
G37*
D15*
X206350000Y-83015000D03*
D26*
X127930000Y-49155000D03*
X122850000Y-49155000D03*
X117770000Y-49155000D03*
X112690000Y-49155000D03*
X107610000Y-49155000D03*
X102530000Y-49155000D03*
X97450000Y-49155000D03*
X92370000Y-49155000D03*
X87290000Y-49155000D03*
X125390000Y-45845000D03*
X120310000Y-45845000D03*
X115230000Y-45845000D03*
X110150000Y-45845000D03*
X105070000Y-45845000D03*
X99990000Y-45845000D03*
X94910000Y-45845000D03*
X89830000Y-45845000D03*
X84750000Y-45845000D03*
D27*
X184775000Y-78810000D03*
X189825000Y-78810000D03*
X184775000Y-76270000D03*
X189825000Y-76270000D03*
X184775000Y-73730000D03*
X189825000Y-73730000D03*
X184775000Y-71190000D03*
X189825000Y-71190000D03*
D14*
G36*
X218068669Y-84190466D02*
G01*
X218094189Y-84194252D01*
X218119216Y-84200520D01*
X218143507Y-84209212D01*
X218166830Y-84220243D01*
X218188959Y-84233507D01*
X218209682Y-84248876D01*
X218228798Y-84266202D01*
X218246124Y-84285318D01*
X218261493Y-84306041D01*
X218274757Y-84328170D01*
X218285788Y-84351493D01*
X218294480Y-84375784D01*
X218300748Y-84400811D01*
X218304534Y-84426331D01*
X218305800Y-84452100D01*
X218305800Y-85077900D01*
X218304534Y-85103669D01*
X218300748Y-85129189D01*
X218294480Y-85154216D01*
X218285788Y-85178507D01*
X218274757Y-85201830D01*
X218261493Y-85223959D01*
X218246124Y-85244682D01*
X218228798Y-85263798D01*
X218209682Y-85281124D01*
X218188959Y-85296493D01*
X218166830Y-85309757D01*
X218143507Y-85320788D01*
X218119216Y-85329480D01*
X218094189Y-85335748D01*
X218068669Y-85339534D01*
X218042900Y-85340800D01*
X217517100Y-85340800D01*
X217491331Y-85339534D01*
X217465811Y-85335748D01*
X217440784Y-85329480D01*
X217416493Y-85320788D01*
X217393170Y-85309757D01*
X217371041Y-85296493D01*
X217350318Y-85281124D01*
X217331202Y-85263798D01*
X217313876Y-85244682D01*
X217298507Y-85223959D01*
X217285243Y-85201830D01*
X217274212Y-85178507D01*
X217265520Y-85154216D01*
X217259252Y-85129189D01*
X217255466Y-85103669D01*
X217254200Y-85077900D01*
X217254200Y-84452100D01*
X217255466Y-84426331D01*
X217259252Y-84400811D01*
X217265520Y-84375784D01*
X217274212Y-84351493D01*
X217285243Y-84328170D01*
X217298507Y-84306041D01*
X217313876Y-84285318D01*
X217331202Y-84266202D01*
X217350318Y-84248876D01*
X217371041Y-84233507D01*
X217393170Y-84220243D01*
X217416493Y-84209212D01*
X217440784Y-84200520D01*
X217465811Y-84194252D01*
X217491331Y-84190466D01*
X217517100Y-84189200D01*
X218042900Y-84189200D01*
X218068669Y-84190466D01*
X218068669Y-84190466D01*
G37*
D15*
X217780000Y-84765000D03*
D14*
G36*
X218068669Y-82440466D02*
G01*
X218094189Y-82444252D01*
X218119216Y-82450520D01*
X218143507Y-82459212D01*
X218166830Y-82470243D01*
X218188959Y-82483507D01*
X218209682Y-82498876D01*
X218228798Y-82516202D01*
X218246124Y-82535318D01*
X218261493Y-82556041D01*
X218274757Y-82578170D01*
X218285788Y-82601493D01*
X218294480Y-82625784D01*
X218300748Y-82650811D01*
X218304534Y-82676331D01*
X218305800Y-82702100D01*
X218305800Y-83327900D01*
X218304534Y-83353669D01*
X218300748Y-83379189D01*
X218294480Y-83404216D01*
X218285788Y-83428507D01*
X218274757Y-83451830D01*
X218261493Y-83473959D01*
X218246124Y-83494682D01*
X218228798Y-83513798D01*
X218209682Y-83531124D01*
X218188959Y-83546493D01*
X218166830Y-83559757D01*
X218143507Y-83570788D01*
X218119216Y-83579480D01*
X218094189Y-83585748D01*
X218068669Y-83589534D01*
X218042900Y-83590800D01*
X217517100Y-83590800D01*
X217491331Y-83589534D01*
X217465811Y-83585748D01*
X217440784Y-83579480D01*
X217416493Y-83570788D01*
X217393170Y-83559757D01*
X217371041Y-83546493D01*
X217350318Y-83531124D01*
X217331202Y-83513798D01*
X217313876Y-83494682D01*
X217298507Y-83473959D01*
X217285243Y-83451830D01*
X217274212Y-83428507D01*
X217265520Y-83404216D01*
X217259252Y-83379189D01*
X217255466Y-83353669D01*
X217254200Y-83327900D01*
X217254200Y-82702100D01*
X217255466Y-82676331D01*
X217259252Y-82650811D01*
X217265520Y-82625784D01*
X217274212Y-82601493D01*
X217285243Y-82578170D01*
X217298507Y-82556041D01*
X217313876Y-82535318D01*
X217331202Y-82516202D01*
X217350318Y-82498876D01*
X217371041Y-82483507D01*
X217393170Y-82470243D01*
X217416493Y-82459212D01*
X217440784Y-82450520D01*
X217465811Y-82444252D01*
X217491331Y-82440466D01*
X217517100Y-82439200D01*
X218042900Y-82439200D01*
X218068669Y-82440466D01*
X218068669Y-82440466D01*
G37*
D15*
X217780000Y-83015000D03*
D14*
G36*
X199463669Y-54155466D02*
G01*
X199489189Y-54159252D01*
X199514216Y-54165520D01*
X199538507Y-54174212D01*
X199561830Y-54185243D01*
X199583959Y-54198507D01*
X199604682Y-54213876D01*
X199623798Y-54231202D01*
X199641124Y-54250318D01*
X199656493Y-54271041D01*
X199669757Y-54293170D01*
X199680788Y-54316493D01*
X199689480Y-54340784D01*
X199695748Y-54365811D01*
X199699534Y-54391331D01*
X199700800Y-54417100D01*
X199700800Y-54942900D01*
X199699534Y-54968669D01*
X199695748Y-54994189D01*
X199689480Y-55019216D01*
X199680788Y-55043507D01*
X199669757Y-55066830D01*
X199656493Y-55088959D01*
X199641124Y-55109682D01*
X199623798Y-55128798D01*
X199604682Y-55146124D01*
X199583959Y-55161493D01*
X199561830Y-55174757D01*
X199538507Y-55185788D01*
X199514216Y-55194480D01*
X199489189Y-55200748D01*
X199463669Y-55204534D01*
X199437900Y-55205800D01*
X198812100Y-55205800D01*
X198786331Y-55204534D01*
X198760811Y-55200748D01*
X198735784Y-55194480D01*
X198711493Y-55185788D01*
X198688170Y-55174757D01*
X198666041Y-55161493D01*
X198645318Y-55146124D01*
X198626202Y-55128798D01*
X198608876Y-55109682D01*
X198593507Y-55088959D01*
X198580243Y-55066830D01*
X198569212Y-55043507D01*
X198560520Y-55019216D01*
X198554252Y-54994189D01*
X198550466Y-54968669D01*
X198549200Y-54942900D01*
X198549200Y-54417100D01*
X198550466Y-54391331D01*
X198554252Y-54365811D01*
X198560520Y-54340784D01*
X198569212Y-54316493D01*
X198580243Y-54293170D01*
X198593507Y-54271041D01*
X198608876Y-54250318D01*
X198626202Y-54231202D01*
X198645318Y-54213876D01*
X198666041Y-54198507D01*
X198688170Y-54185243D01*
X198711493Y-54174212D01*
X198735784Y-54165520D01*
X198760811Y-54159252D01*
X198786331Y-54155466D01*
X198812100Y-54154200D01*
X199437900Y-54154200D01*
X199463669Y-54155466D01*
X199463669Y-54155466D01*
G37*
D15*
X199125000Y-54680000D03*
D14*
G36*
X201213669Y-54155466D02*
G01*
X201239189Y-54159252D01*
X201264216Y-54165520D01*
X201288507Y-54174212D01*
X201311830Y-54185243D01*
X201333959Y-54198507D01*
X201354682Y-54213876D01*
X201373798Y-54231202D01*
X201391124Y-54250318D01*
X201406493Y-54271041D01*
X201419757Y-54293170D01*
X201430788Y-54316493D01*
X201439480Y-54340784D01*
X201445748Y-54365811D01*
X201449534Y-54391331D01*
X201450800Y-54417100D01*
X201450800Y-54942900D01*
X201449534Y-54968669D01*
X201445748Y-54994189D01*
X201439480Y-55019216D01*
X201430788Y-55043507D01*
X201419757Y-55066830D01*
X201406493Y-55088959D01*
X201391124Y-55109682D01*
X201373798Y-55128798D01*
X201354682Y-55146124D01*
X201333959Y-55161493D01*
X201311830Y-55174757D01*
X201288507Y-55185788D01*
X201264216Y-55194480D01*
X201239189Y-55200748D01*
X201213669Y-55204534D01*
X201187900Y-55205800D01*
X200562100Y-55205800D01*
X200536331Y-55204534D01*
X200510811Y-55200748D01*
X200485784Y-55194480D01*
X200461493Y-55185788D01*
X200438170Y-55174757D01*
X200416041Y-55161493D01*
X200395318Y-55146124D01*
X200376202Y-55128798D01*
X200358876Y-55109682D01*
X200343507Y-55088959D01*
X200330243Y-55066830D01*
X200319212Y-55043507D01*
X200310520Y-55019216D01*
X200304252Y-54994189D01*
X200300466Y-54968669D01*
X200299200Y-54942900D01*
X200299200Y-54417100D01*
X200300466Y-54391331D01*
X200304252Y-54365811D01*
X200310520Y-54340784D01*
X200319212Y-54316493D01*
X200330243Y-54293170D01*
X200343507Y-54271041D01*
X200358876Y-54250318D01*
X200376202Y-54231202D01*
X200395318Y-54213876D01*
X200416041Y-54198507D01*
X200438170Y-54185243D01*
X200461493Y-54174212D01*
X200485784Y-54165520D01*
X200510811Y-54159252D01*
X200536331Y-54155466D01*
X200562100Y-54154200D01*
X201187900Y-54154200D01*
X201213669Y-54155466D01*
X201213669Y-54155466D01*
G37*
D15*
X200875000Y-54680000D03*
M02*
