G04 #@! TF.GenerationSoftware,KiCad,Pcbnew,(5.1.4)-1*
G04 #@! TF.CreationDate,2020-03-27T13:26:32-04:00*
G04 #@! TF.ProjectId,stepUP_lcd,73746570-5550-45f6-9c63-642e6b696361,rev?*
G04 #@! TF.SameCoordinates,Original*
G04 #@! TF.FileFunction,Legend,Top*
G04 #@! TF.FilePolarity,Positive*
%FSLAX46Y46*%
G04 Gerber Fmt 4.6, Leading zero omitted, Abs format (unit mm)*
G04 Created by KiCad (PCBNEW (5.1.4)-1) date 2020-03-27 13:26:32*
%MOMM*%
%LPD*%
G04 APERTURE LIST*
%ADD10C,0.010000*%
%ADD11O,1.901600X2.501600*%
%ADD12C,6.501600*%
%ADD13C,10.701600*%
%ADD14C,9.401600*%
G04 APERTURE END LIST*
D10*
G36*
X67361097Y-80117702D02*
G01*
X67437414Y-80126620D01*
X67467795Y-80133282D01*
X67571901Y-80171947D01*
X67672039Y-80229757D01*
X67763397Y-80302799D01*
X67841167Y-80387158D01*
X67900537Y-80478919D01*
X67906037Y-80489912D01*
X67918277Y-80515255D01*
X67929075Y-80538753D01*
X67938524Y-80562004D01*
X67946712Y-80586605D01*
X67953732Y-80614153D01*
X67959675Y-80646246D01*
X67964632Y-80684482D01*
X67968693Y-80730457D01*
X67971951Y-80785769D01*
X67974495Y-80852016D01*
X67976417Y-80930795D01*
X67977809Y-81023704D01*
X67978761Y-81132339D01*
X67979364Y-81258299D01*
X67979709Y-81403181D01*
X67979888Y-81568582D01*
X67979991Y-81756099D01*
X67980006Y-81787311D01*
X67980523Y-82841650D01*
X68040958Y-82882655D01*
X68097865Y-82926546D01*
X68161489Y-82984185D01*
X68225495Y-83049220D01*
X68283551Y-83115302D01*
X68319689Y-83162164D01*
X68377263Y-83253579D01*
X68431605Y-83359778D01*
X68478481Y-83471605D01*
X68513660Y-83579901D01*
X68514883Y-83584481D01*
X68527488Y-83635110D01*
X68536350Y-83680060D01*
X68542144Y-83725741D01*
X68545545Y-83778562D01*
X68547229Y-83844933D01*
X68547709Y-83895990D01*
X68547695Y-83973945D01*
X68546224Y-84034006D01*
X68542749Y-84082227D01*
X68536722Y-84124658D01*
X68527598Y-84167352D01*
X68520747Y-84194332D01*
X68464572Y-84362732D01*
X68388705Y-84518879D01*
X68294475Y-84661435D01*
X68183212Y-84789068D01*
X68056244Y-84900440D01*
X67914902Y-84994219D01*
X67760514Y-85069068D01*
X67595788Y-85123297D01*
X67537429Y-85134818D01*
X67462991Y-85144415D01*
X67379995Y-85151607D01*
X67295964Y-85155911D01*
X67218420Y-85156846D01*
X67154884Y-85153929D01*
X67141226Y-85152433D01*
X67109934Y-85147031D01*
X67064003Y-85137471D01*
X67012002Y-85125564D01*
X66997697Y-85122099D01*
X66837299Y-85070670D01*
X66686554Y-84998346D01*
X66547157Y-84906832D01*
X66420803Y-84797835D01*
X66309188Y-84673062D01*
X66214006Y-84534219D01*
X66136954Y-84383013D01*
X66079726Y-84221150D01*
X66071283Y-84189528D01*
X66060792Y-84143810D01*
X66053565Y-84099625D01*
X66049090Y-84050946D01*
X66046859Y-83991746D01*
X66046360Y-83915997D01*
X66046434Y-83895990D01*
X66046516Y-83888797D01*
X66348355Y-83888797D01*
X66352943Y-83995418D01*
X66366660Y-84093180D01*
X66373631Y-84123632D01*
X66421690Y-84263048D01*
X66490223Y-84392338D01*
X66577142Y-84509447D01*
X66680359Y-84612319D01*
X66797786Y-84698898D01*
X66927334Y-84767128D01*
X67066916Y-84814955D01*
X67078974Y-84817964D01*
X67137471Y-84827648D01*
X67211791Y-84833434D01*
X67294114Y-84835331D01*
X67376620Y-84833347D01*
X67451490Y-84827489D01*
X67510904Y-84817765D01*
X67511876Y-84817532D01*
X67556128Y-84804096D01*
X67613202Y-84782879D01*
X67674665Y-84757162D01*
X67716026Y-84738123D01*
X67771012Y-84710686D01*
X67814379Y-84685859D01*
X67852550Y-84658951D01*
X67891949Y-84625273D01*
X67938998Y-84580135D01*
X67957112Y-84562112D01*
X68007011Y-84511170D01*
X68043918Y-84469977D01*
X68072523Y-84432112D01*
X68097514Y-84391149D01*
X68123582Y-84340667D01*
X68133123Y-84321026D01*
X68159999Y-84261649D01*
X68184652Y-84200835D01*
X68203820Y-84146968D01*
X68212285Y-84117641D01*
X68236570Y-83968351D01*
X68238254Y-83820435D01*
X68218244Y-83676161D01*
X68177444Y-83537792D01*
X68116763Y-83407596D01*
X68037105Y-83287836D01*
X67939378Y-83180780D01*
X67824486Y-83088692D01*
X67792343Y-83067747D01*
X67747468Y-83037098D01*
X67710855Y-83007069D01*
X67688302Y-82982523D01*
X67685875Y-82978482D01*
X67680891Y-82964897D01*
X67676909Y-82943859D01*
X67673827Y-82912925D01*
X67671546Y-82869651D01*
X67669964Y-82811592D01*
X67668981Y-82736307D01*
X67668495Y-82641351D01*
X67668396Y-82555078D01*
X67668396Y-82165477D01*
X67527618Y-82162101D01*
X67386839Y-82158726D01*
X67383489Y-82006350D01*
X67380138Y-81853974D01*
X67521272Y-81850595D01*
X67662405Y-81847216D01*
X67665861Y-81742766D01*
X67669318Y-81638315D01*
X67528078Y-81634936D01*
X67386839Y-81631556D01*
X67383489Y-81479180D01*
X67380138Y-81326804D01*
X67521272Y-81323425D01*
X67662405Y-81320047D01*
X67662405Y-81128349D01*
X67521272Y-81124970D01*
X67380138Y-81121591D01*
X67383489Y-80969215D01*
X67386839Y-80816839D01*
X67527618Y-80813464D01*
X67590430Y-80811935D01*
X67632496Y-80808929D01*
X67656986Y-80801479D01*
X67667070Y-80786615D01*
X67665917Y-80761369D01*
X67656698Y-80722772D01*
X67650319Y-80698555D01*
X67615996Y-80610349D01*
X67564425Y-80536750D01*
X67498485Y-80479365D01*
X67421056Y-80439800D01*
X67335018Y-80419662D01*
X67243251Y-80420557D01*
X67177106Y-80434572D01*
X67136799Y-80449938D01*
X67099677Y-80472962D01*
X67058520Y-80508505D01*
X67039202Y-80527425D01*
X67019824Y-80546242D01*
X67002662Y-80562527D01*
X66987573Y-80577767D01*
X66974418Y-80593448D01*
X66963056Y-80611058D01*
X66953346Y-80632084D01*
X66945147Y-80658012D01*
X66938320Y-80690330D01*
X66932722Y-80730523D01*
X66928213Y-80780080D01*
X66924654Y-80840486D01*
X66921902Y-80913230D01*
X66919818Y-80999797D01*
X66918260Y-81101674D01*
X66917089Y-81220349D01*
X66916162Y-81357308D01*
X66915341Y-81514039D01*
X66914483Y-81692027D01*
X66913657Y-81854368D01*
X66912584Y-82047602D01*
X66911537Y-82218255D01*
X66910489Y-82367711D01*
X66909411Y-82497350D01*
X66908274Y-82608555D01*
X66907052Y-82702707D01*
X66905714Y-82781190D01*
X66904234Y-82845383D01*
X66902582Y-82896670D01*
X66900730Y-82936433D01*
X66898649Y-82966053D01*
X66896313Y-82986913D01*
X66893691Y-83000394D01*
X66890756Y-83007878D01*
X66889972Y-83008972D01*
X66872318Y-83025040D01*
X66840284Y-83049750D01*
X66799622Y-83078747D01*
X66782142Y-83090629D01*
X66663016Y-83184045D01*
X66560263Y-83292821D01*
X66475627Y-83414446D01*
X66410850Y-83546409D01*
X66367675Y-83686196D01*
X66367155Y-83688550D01*
X66353044Y-83783209D01*
X66348355Y-83888797D01*
X66046516Y-83888797D01*
X66047327Y-83817717D01*
X66049539Y-83757090D01*
X66053719Y-83707802D01*
X66060517Y-83663545D01*
X66070582Y-83618012D01*
X66078036Y-83589047D01*
X66127805Y-83441138D01*
X66196122Y-83297981D01*
X66280272Y-83163628D01*
X66377542Y-83042129D01*
X66485219Y-82937534D01*
X66546641Y-82889575D01*
X66613539Y-82841650D01*
X66614006Y-81787311D01*
X66614147Y-81597755D01*
X66614408Y-81430675D01*
X66614812Y-81284585D01*
X66615383Y-81157998D01*
X66616142Y-81049428D01*
X66617114Y-80957389D01*
X66618322Y-80880395D01*
X66619788Y-80816959D01*
X66621537Y-80765596D01*
X66623590Y-80724819D01*
X66625972Y-80693141D01*
X66628705Y-80669077D01*
X66631703Y-80651657D01*
X66667962Y-80536659D01*
X66724884Y-80429686D01*
X66799728Y-80333612D01*
X66889755Y-80251308D01*
X66992227Y-80185645D01*
X67104403Y-80139495D01*
X67126167Y-80133282D01*
X67195232Y-80121033D01*
X67276955Y-80115840D01*
X67361097Y-80117702D01*
X67361097Y-80117702D01*
G37*
X67361097Y-80117702D02*
X67437414Y-80126620D01*
X67467795Y-80133282D01*
X67571901Y-80171947D01*
X67672039Y-80229757D01*
X67763397Y-80302799D01*
X67841167Y-80387158D01*
X67900537Y-80478919D01*
X67906037Y-80489912D01*
X67918277Y-80515255D01*
X67929075Y-80538753D01*
X67938524Y-80562004D01*
X67946712Y-80586605D01*
X67953732Y-80614153D01*
X67959675Y-80646246D01*
X67964632Y-80684482D01*
X67968693Y-80730457D01*
X67971951Y-80785769D01*
X67974495Y-80852016D01*
X67976417Y-80930795D01*
X67977809Y-81023704D01*
X67978761Y-81132339D01*
X67979364Y-81258299D01*
X67979709Y-81403181D01*
X67979888Y-81568582D01*
X67979991Y-81756099D01*
X67980006Y-81787311D01*
X67980523Y-82841650D01*
X68040958Y-82882655D01*
X68097865Y-82926546D01*
X68161489Y-82984185D01*
X68225495Y-83049220D01*
X68283551Y-83115302D01*
X68319689Y-83162164D01*
X68377263Y-83253579D01*
X68431605Y-83359778D01*
X68478481Y-83471605D01*
X68513660Y-83579901D01*
X68514883Y-83584481D01*
X68527488Y-83635110D01*
X68536350Y-83680060D01*
X68542144Y-83725741D01*
X68545545Y-83778562D01*
X68547229Y-83844933D01*
X68547709Y-83895990D01*
X68547695Y-83973945D01*
X68546224Y-84034006D01*
X68542749Y-84082227D01*
X68536722Y-84124658D01*
X68527598Y-84167352D01*
X68520747Y-84194332D01*
X68464572Y-84362732D01*
X68388705Y-84518879D01*
X68294475Y-84661435D01*
X68183212Y-84789068D01*
X68056244Y-84900440D01*
X67914902Y-84994219D01*
X67760514Y-85069068D01*
X67595788Y-85123297D01*
X67537429Y-85134818D01*
X67462991Y-85144415D01*
X67379995Y-85151607D01*
X67295964Y-85155911D01*
X67218420Y-85156846D01*
X67154884Y-85153929D01*
X67141226Y-85152433D01*
X67109934Y-85147031D01*
X67064003Y-85137471D01*
X67012002Y-85125564D01*
X66997697Y-85122099D01*
X66837299Y-85070670D01*
X66686554Y-84998346D01*
X66547157Y-84906832D01*
X66420803Y-84797835D01*
X66309188Y-84673062D01*
X66214006Y-84534219D01*
X66136954Y-84383013D01*
X66079726Y-84221150D01*
X66071283Y-84189528D01*
X66060792Y-84143810D01*
X66053565Y-84099625D01*
X66049090Y-84050946D01*
X66046859Y-83991746D01*
X66046360Y-83915997D01*
X66046434Y-83895990D01*
X66046516Y-83888797D01*
X66348355Y-83888797D01*
X66352943Y-83995418D01*
X66366660Y-84093180D01*
X66373631Y-84123632D01*
X66421690Y-84263048D01*
X66490223Y-84392338D01*
X66577142Y-84509447D01*
X66680359Y-84612319D01*
X66797786Y-84698898D01*
X66927334Y-84767128D01*
X67066916Y-84814955D01*
X67078974Y-84817964D01*
X67137471Y-84827648D01*
X67211791Y-84833434D01*
X67294114Y-84835331D01*
X67376620Y-84833347D01*
X67451490Y-84827489D01*
X67510904Y-84817765D01*
X67511876Y-84817532D01*
X67556128Y-84804096D01*
X67613202Y-84782879D01*
X67674665Y-84757162D01*
X67716026Y-84738123D01*
X67771012Y-84710686D01*
X67814379Y-84685859D01*
X67852550Y-84658951D01*
X67891949Y-84625273D01*
X67938998Y-84580135D01*
X67957112Y-84562112D01*
X68007011Y-84511170D01*
X68043918Y-84469977D01*
X68072523Y-84432112D01*
X68097514Y-84391149D01*
X68123582Y-84340667D01*
X68133123Y-84321026D01*
X68159999Y-84261649D01*
X68184652Y-84200835D01*
X68203820Y-84146968D01*
X68212285Y-84117641D01*
X68236570Y-83968351D01*
X68238254Y-83820435D01*
X68218244Y-83676161D01*
X68177444Y-83537792D01*
X68116763Y-83407596D01*
X68037105Y-83287836D01*
X67939378Y-83180780D01*
X67824486Y-83088692D01*
X67792343Y-83067747D01*
X67747468Y-83037098D01*
X67710855Y-83007069D01*
X67688302Y-82982523D01*
X67685875Y-82978482D01*
X67680891Y-82964897D01*
X67676909Y-82943859D01*
X67673827Y-82912925D01*
X67671546Y-82869651D01*
X67669964Y-82811592D01*
X67668981Y-82736307D01*
X67668495Y-82641351D01*
X67668396Y-82555078D01*
X67668396Y-82165477D01*
X67527618Y-82162101D01*
X67386839Y-82158726D01*
X67383489Y-82006350D01*
X67380138Y-81853974D01*
X67521272Y-81850595D01*
X67662405Y-81847216D01*
X67665861Y-81742766D01*
X67669318Y-81638315D01*
X67528078Y-81634936D01*
X67386839Y-81631556D01*
X67383489Y-81479180D01*
X67380138Y-81326804D01*
X67521272Y-81323425D01*
X67662405Y-81320047D01*
X67662405Y-81128349D01*
X67521272Y-81124970D01*
X67380138Y-81121591D01*
X67383489Y-80969215D01*
X67386839Y-80816839D01*
X67527618Y-80813464D01*
X67590430Y-80811935D01*
X67632496Y-80808929D01*
X67656986Y-80801479D01*
X67667070Y-80786615D01*
X67665917Y-80761369D01*
X67656698Y-80722772D01*
X67650319Y-80698555D01*
X67615996Y-80610349D01*
X67564425Y-80536750D01*
X67498485Y-80479365D01*
X67421056Y-80439800D01*
X67335018Y-80419662D01*
X67243251Y-80420557D01*
X67177106Y-80434572D01*
X67136799Y-80449938D01*
X67099677Y-80472962D01*
X67058520Y-80508505D01*
X67039202Y-80527425D01*
X67019824Y-80546242D01*
X67002662Y-80562527D01*
X66987573Y-80577767D01*
X66974418Y-80593448D01*
X66963056Y-80611058D01*
X66953346Y-80632084D01*
X66945147Y-80658012D01*
X66938320Y-80690330D01*
X66932722Y-80730523D01*
X66928213Y-80780080D01*
X66924654Y-80840486D01*
X66921902Y-80913230D01*
X66919818Y-80999797D01*
X66918260Y-81101674D01*
X66917089Y-81220349D01*
X66916162Y-81357308D01*
X66915341Y-81514039D01*
X66914483Y-81692027D01*
X66913657Y-81854368D01*
X66912584Y-82047602D01*
X66911537Y-82218255D01*
X66910489Y-82367711D01*
X66909411Y-82497350D01*
X66908274Y-82608555D01*
X66907052Y-82702707D01*
X66905714Y-82781190D01*
X66904234Y-82845383D01*
X66902582Y-82896670D01*
X66900730Y-82936433D01*
X66898649Y-82966053D01*
X66896313Y-82986913D01*
X66893691Y-83000394D01*
X66890756Y-83007878D01*
X66889972Y-83008972D01*
X66872318Y-83025040D01*
X66840284Y-83049750D01*
X66799622Y-83078747D01*
X66782142Y-83090629D01*
X66663016Y-83184045D01*
X66560263Y-83292821D01*
X66475627Y-83414446D01*
X66410850Y-83546409D01*
X66367675Y-83686196D01*
X66367155Y-83688550D01*
X66353044Y-83783209D01*
X66348355Y-83888797D01*
X66046516Y-83888797D01*
X66047327Y-83817717D01*
X66049539Y-83757090D01*
X66053719Y-83707802D01*
X66060517Y-83663545D01*
X66070582Y-83618012D01*
X66078036Y-83589047D01*
X66127805Y-83441138D01*
X66196122Y-83297981D01*
X66280272Y-83163628D01*
X66377542Y-83042129D01*
X66485219Y-82937534D01*
X66546641Y-82889575D01*
X66613539Y-82841650D01*
X66614006Y-81787311D01*
X66614147Y-81597755D01*
X66614408Y-81430675D01*
X66614812Y-81284585D01*
X66615383Y-81157998D01*
X66616142Y-81049428D01*
X66617114Y-80957389D01*
X66618322Y-80880395D01*
X66619788Y-80816959D01*
X66621537Y-80765596D01*
X66623590Y-80724819D01*
X66625972Y-80693141D01*
X66628705Y-80669077D01*
X66631703Y-80651657D01*
X66667962Y-80536659D01*
X66724884Y-80429686D01*
X66799728Y-80333612D01*
X66889755Y-80251308D01*
X66992227Y-80185645D01*
X67104403Y-80139495D01*
X67126167Y-80133282D01*
X67195232Y-80121033D01*
X67276955Y-80115840D01*
X67361097Y-80117702D01*
G36*
X67363267Y-82740942D02*
G01*
X67407582Y-82744470D01*
X67431816Y-82750597D01*
X67437052Y-82754787D01*
X67440267Y-82770861D01*
X67443631Y-82807053D01*
X67446912Y-82859525D01*
X67449879Y-82924436D01*
X67452299Y-82997945D01*
X67452735Y-83014895D01*
X67458726Y-83260027D01*
X67564627Y-83314423D01*
X67661755Y-83370785D01*
X67739655Y-83431250D01*
X67803062Y-83499801D01*
X67830960Y-83538580D01*
X67890068Y-83648001D01*
X67926775Y-83763305D01*
X67940606Y-83882107D01*
X67931086Y-84002024D01*
X67927230Y-84021792D01*
X67890715Y-84140770D01*
X67835347Y-84247371D01*
X67763208Y-84339885D01*
X67676385Y-84416597D01*
X67576962Y-84475797D01*
X67467023Y-84515772D01*
X67348655Y-84534810D01*
X67300859Y-84536192D01*
X67242933Y-84533727D01*
X67185060Y-84527910D01*
X67138055Y-84519895D01*
X67130591Y-84518044D01*
X67032066Y-84480640D01*
X66936172Y-84424061D01*
X66848388Y-84352678D01*
X66774195Y-84270865D01*
X66724798Y-84194284D01*
X66679318Y-84082923D01*
X66656069Y-83967224D01*
X66654488Y-83850234D01*
X66674009Y-83735002D01*
X66714070Y-83624577D01*
X66774106Y-83522008D01*
X66853553Y-83430343D01*
X66868714Y-83416274D01*
X66907527Y-83386088D01*
X66959077Y-83352281D01*
X67014124Y-83320776D01*
X67031631Y-83311822D01*
X67135235Y-83260696D01*
X67141226Y-83015230D01*
X67143493Y-82940292D01*
X67146357Y-82873107D01*
X67149586Y-82817511D01*
X67152949Y-82777342D01*
X67156216Y-82756438D01*
X67156910Y-82754787D01*
X67171630Y-82747257D01*
X67205467Y-82742429D01*
X67260312Y-82740101D01*
X67296981Y-82739811D01*
X67363267Y-82740942D01*
X67363267Y-82740942D01*
G37*
X67363267Y-82740942D02*
X67407582Y-82744470D01*
X67431816Y-82750597D01*
X67437052Y-82754787D01*
X67440267Y-82770861D01*
X67443631Y-82807053D01*
X67446912Y-82859525D01*
X67449879Y-82924436D01*
X67452299Y-82997945D01*
X67452735Y-83014895D01*
X67458726Y-83260027D01*
X67564627Y-83314423D01*
X67661755Y-83370785D01*
X67739655Y-83431250D01*
X67803062Y-83499801D01*
X67830960Y-83538580D01*
X67890068Y-83648001D01*
X67926775Y-83763305D01*
X67940606Y-83882107D01*
X67931086Y-84002024D01*
X67927230Y-84021792D01*
X67890715Y-84140770D01*
X67835347Y-84247371D01*
X67763208Y-84339885D01*
X67676385Y-84416597D01*
X67576962Y-84475797D01*
X67467023Y-84515772D01*
X67348655Y-84534810D01*
X67300859Y-84536192D01*
X67242933Y-84533727D01*
X67185060Y-84527910D01*
X67138055Y-84519895D01*
X67130591Y-84518044D01*
X67032066Y-84480640D01*
X66936172Y-84424061D01*
X66848388Y-84352678D01*
X66774195Y-84270865D01*
X66724798Y-84194284D01*
X66679318Y-84082923D01*
X66656069Y-83967224D01*
X66654488Y-83850234D01*
X66674009Y-83735002D01*
X66714070Y-83624577D01*
X66774106Y-83522008D01*
X66853553Y-83430343D01*
X66868714Y-83416274D01*
X66907527Y-83386088D01*
X66959077Y-83352281D01*
X67014124Y-83320776D01*
X67031631Y-83311822D01*
X67135235Y-83260696D01*
X67141226Y-83015230D01*
X67143493Y-82940292D01*
X67146357Y-82873107D01*
X67149586Y-82817511D01*
X67152949Y-82777342D01*
X67156216Y-82756438D01*
X67156910Y-82754787D01*
X67171630Y-82747257D01*
X67205467Y-82742429D01*
X67260312Y-82740101D01*
X67296981Y-82739811D01*
X67363267Y-82740942D01*
G36*
X67558050Y-64824153D02*
G01*
X67682382Y-64824274D01*
X67798533Y-64824391D01*
X67906789Y-64824506D01*
X68007435Y-64824622D01*
X68100756Y-64824740D01*
X68187038Y-64824862D01*
X68266568Y-64824990D01*
X68339630Y-64825127D01*
X68406510Y-64825273D01*
X68467493Y-64825431D01*
X68522865Y-64825602D01*
X68572913Y-64825790D01*
X68617920Y-64825995D01*
X68658174Y-64826219D01*
X68693959Y-64826465D01*
X68725561Y-64826734D01*
X68753265Y-64827028D01*
X68777358Y-64827349D01*
X68798125Y-64827699D01*
X68815851Y-64828080D01*
X68830822Y-64828495D01*
X68843323Y-64828943D01*
X68853641Y-64829429D01*
X68862060Y-64829953D01*
X68868867Y-64830517D01*
X68874346Y-64831124D01*
X68878784Y-64831776D01*
X68882466Y-64832473D01*
X68884937Y-64833036D01*
X68961099Y-64855385D01*
X69034274Y-64884526D01*
X69060883Y-64897243D01*
X69129343Y-64936210D01*
X69192469Y-64981535D01*
X69249944Y-65032755D01*
X69301452Y-65089408D01*
X69346676Y-65151031D01*
X69385298Y-65217162D01*
X69417003Y-65287338D01*
X69441473Y-65361096D01*
X69458392Y-65437975D01*
X69464958Y-65487090D01*
X69465317Y-65494877D01*
X69465661Y-65510795D01*
X69465991Y-65534511D01*
X69466306Y-65565689D01*
X69466607Y-65603994D01*
X69466893Y-65649091D01*
X69467166Y-65700646D01*
X69467423Y-65758324D01*
X69467667Y-65821790D01*
X69467895Y-65890709D01*
X69468110Y-65964746D01*
X69468310Y-66043567D01*
X69468496Y-66126836D01*
X69468667Y-66214219D01*
X69468824Y-66305381D01*
X69468966Y-66399988D01*
X69469094Y-66497703D01*
X69469207Y-66598193D01*
X69469306Y-66701122D01*
X69469391Y-66806156D01*
X69469461Y-66912960D01*
X69469517Y-67021200D01*
X69469558Y-67130539D01*
X69469585Y-67240644D01*
X69469597Y-67351179D01*
X69469595Y-67461810D01*
X69469578Y-67572202D01*
X69469547Y-67682020D01*
X69469502Y-67790929D01*
X69469442Y-67898595D01*
X69469367Y-68004682D01*
X69469278Y-68108856D01*
X69469175Y-68210782D01*
X69469057Y-68310124D01*
X69468924Y-68406549D01*
X69468777Y-68499722D01*
X69468616Y-68589306D01*
X69468440Y-68674969D01*
X69468249Y-68756374D01*
X69468044Y-68833187D01*
X69467824Y-68905074D01*
X69467590Y-68971699D01*
X69467342Y-69032727D01*
X69467079Y-69087824D01*
X69466801Y-69136655D01*
X69466509Y-69178885D01*
X69466202Y-69214179D01*
X69465881Y-69242202D01*
X69465545Y-69262620D01*
X69465194Y-69275097D01*
X69464998Y-69278426D01*
X69455835Y-69345543D01*
X69441117Y-69409014D01*
X69420167Y-69471176D01*
X69392308Y-69534370D01*
X69388976Y-69541117D01*
X69359144Y-69595923D01*
X69326640Y-69645295D01*
X69289418Y-69692241D01*
X69274914Y-69708635D01*
X69221495Y-69761396D01*
X69162182Y-69808800D01*
X69098048Y-69850228D01*
X69030163Y-69885061D01*
X68959599Y-69912678D01*
X68888060Y-69932324D01*
X68847248Y-69941167D01*
X67284015Y-69940810D01*
X67147124Y-69940777D01*
X67018440Y-69940744D01*
X66897704Y-69940708D01*
X66784655Y-69940668D01*
X66679033Y-69940623D01*
X66580580Y-69940571D01*
X66489036Y-69940512D01*
X66404140Y-69940444D01*
X66325634Y-69940365D01*
X66253257Y-69940274D01*
X66186750Y-69940171D01*
X66125853Y-69940053D01*
X66070306Y-69939919D01*
X66019850Y-69939768D01*
X65974225Y-69939599D01*
X65933172Y-69939409D01*
X65896430Y-69939199D01*
X65863740Y-69938967D01*
X65834843Y-69938711D01*
X65809478Y-69938429D01*
X65787386Y-69938122D01*
X65768307Y-69937787D01*
X65751982Y-69937422D01*
X65738150Y-69937028D01*
X65726553Y-69936601D01*
X65716930Y-69936142D01*
X65709022Y-69935649D01*
X65702570Y-69935119D01*
X65697312Y-69934553D01*
X65692990Y-69933949D01*
X65689345Y-69933305D01*
X65686263Y-69932653D01*
X65610641Y-69911346D01*
X65538598Y-69882635D01*
X65470565Y-69846957D01*
X65406975Y-69804750D01*
X65348258Y-69756454D01*
X65294847Y-69702506D01*
X65247173Y-69643344D01*
X65205667Y-69579408D01*
X65170761Y-69511134D01*
X65142887Y-69438963D01*
X65122476Y-69363331D01*
X65121589Y-69359132D01*
X65119636Y-69349434D01*
X65117840Y-69339634D01*
X65116196Y-69329360D01*
X65114695Y-69318238D01*
X65113332Y-69305893D01*
X65112101Y-69291953D01*
X65110994Y-69276042D01*
X65110005Y-69257787D01*
X65109127Y-69236815D01*
X65108354Y-69212751D01*
X65107679Y-69185222D01*
X65107095Y-69153854D01*
X65106597Y-69118273D01*
X65106177Y-69078106D01*
X65105829Y-69032977D01*
X65105546Y-68982514D01*
X65105322Y-68926343D01*
X65105149Y-68864090D01*
X65105022Y-68795381D01*
X65104934Y-68719842D01*
X65104878Y-68637099D01*
X65104848Y-68546779D01*
X65104837Y-68448508D01*
X65104837Y-68409143D01*
X65104840Y-67606483D01*
X65116908Y-67581083D01*
X65128687Y-67559872D01*
X65146131Y-67533545D01*
X65168683Y-67502733D01*
X65195791Y-67468064D01*
X65226899Y-67430170D01*
X65261453Y-67389679D01*
X65298898Y-67347224D01*
X65338681Y-67303432D01*
X65380246Y-67258935D01*
X65423040Y-67214363D01*
X65466506Y-67170345D01*
X65510093Y-67127511D01*
X65547106Y-67092237D01*
X65621127Y-67022771D01*
X65622400Y-66237244D01*
X65623672Y-65451717D01*
X65633313Y-65409383D01*
X65655131Y-65331066D01*
X66133533Y-65331066D01*
X66133533Y-66355533D01*
X66645767Y-66355533D01*
X66645767Y-65331066D01*
X66904000Y-65331066D01*
X66904000Y-66355533D01*
X67416233Y-66355533D01*
X67416233Y-65331066D01*
X67674467Y-65331066D01*
X67674467Y-66355533D01*
X68186700Y-66355533D01*
X68186700Y-65331066D01*
X68440700Y-65331066D01*
X68440700Y-66355533D01*
X68952933Y-66355533D01*
X68952933Y-65331066D01*
X68440700Y-65331066D01*
X68186700Y-65331066D01*
X67674467Y-65331066D01*
X67416233Y-65331066D01*
X66904000Y-65331066D01*
X66645767Y-65331066D01*
X66133533Y-65331066D01*
X65655131Y-65331066D01*
X65655519Y-65329674D01*
X65684735Y-65254570D01*
X65720845Y-65184241D01*
X65763734Y-65118856D01*
X65813287Y-65058585D01*
X65869388Y-65003599D01*
X65931923Y-64954067D01*
X65950879Y-64940992D01*
X66015011Y-64902875D01*
X66083319Y-64871213D01*
X66154118Y-64846697D01*
X66216397Y-64831728D01*
X66262650Y-64822916D01*
X67558050Y-64824153D01*
X67558050Y-64824153D01*
G37*
X67558050Y-64824153D02*
X67682382Y-64824274D01*
X67798533Y-64824391D01*
X67906789Y-64824506D01*
X68007435Y-64824622D01*
X68100756Y-64824740D01*
X68187038Y-64824862D01*
X68266568Y-64824990D01*
X68339630Y-64825127D01*
X68406510Y-64825273D01*
X68467493Y-64825431D01*
X68522865Y-64825602D01*
X68572913Y-64825790D01*
X68617920Y-64825995D01*
X68658174Y-64826219D01*
X68693959Y-64826465D01*
X68725561Y-64826734D01*
X68753265Y-64827028D01*
X68777358Y-64827349D01*
X68798125Y-64827699D01*
X68815851Y-64828080D01*
X68830822Y-64828495D01*
X68843323Y-64828943D01*
X68853641Y-64829429D01*
X68862060Y-64829953D01*
X68868867Y-64830517D01*
X68874346Y-64831124D01*
X68878784Y-64831776D01*
X68882466Y-64832473D01*
X68884937Y-64833036D01*
X68961099Y-64855385D01*
X69034274Y-64884526D01*
X69060883Y-64897243D01*
X69129343Y-64936210D01*
X69192469Y-64981535D01*
X69249944Y-65032755D01*
X69301452Y-65089408D01*
X69346676Y-65151031D01*
X69385298Y-65217162D01*
X69417003Y-65287338D01*
X69441473Y-65361096D01*
X69458392Y-65437975D01*
X69464958Y-65487090D01*
X69465317Y-65494877D01*
X69465661Y-65510795D01*
X69465991Y-65534511D01*
X69466306Y-65565689D01*
X69466607Y-65603994D01*
X69466893Y-65649091D01*
X69467166Y-65700646D01*
X69467423Y-65758324D01*
X69467667Y-65821790D01*
X69467895Y-65890709D01*
X69468110Y-65964746D01*
X69468310Y-66043567D01*
X69468496Y-66126836D01*
X69468667Y-66214219D01*
X69468824Y-66305381D01*
X69468966Y-66399988D01*
X69469094Y-66497703D01*
X69469207Y-66598193D01*
X69469306Y-66701122D01*
X69469391Y-66806156D01*
X69469461Y-66912960D01*
X69469517Y-67021200D01*
X69469558Y-67130539D01*
X69469585Y-67240644D01*
X69469597Y-67351179D01*
X69469595Y-67461810D01*
X69469578Y-67572202D01*
X69469547Y-67682020D01*
X69469502Y-67790929D01*
X69469442Y-67898595D01*
X69469367Y-68004682D01*
X69469278Y-68108856D01*
X69469175Y-68210782D01*
X69469057Y-68310124D01*
X69468924Y-68406549D01*
X69468777Y-68499722D01*
X69468616Y-68589306D01*
X69468440Y-68674969D01*
X69468249Y-68756374D01*
X69468044Y-68833187D01*
X69467824Y-68905074D01*
X69467590Y-68971699D01*
X69467342Y-69032727D01*
X69467079Y-69087824D01*
X69466801Y-69136655D01*
X69466509Y-69178885D01*
X69466202Y-69214179D01*
X69465881Y-69242202D01*
X69465545Y-69262620D01*
X69465194Y-69275097D01*
X69464998Y-69278426D01*
X69455835Y-69345543D01*
X69441117Y-69409014D01*
X69420167Y-69471176D01*
X69392308Y-69534370D01*
X69388976Y-69541117D01*
X69359144Y-69595923D01*
X69326640Y-69645295D01*
X69289418Y-69692241D01*
X69274914Y-69708635D01*
X69221495Y-69761396D01*
X69162182Y-69808800D01*
X69098048Y-69850228D01*
X69030163Y-69885061D01*
X68959599Y-69912678D01*
X68888060Y-69932324D01*
X68847248Y-69941167D01*
X67284015Y-69940810D01*
X67147124Y-69940777D01*
X67018440Y-69940744D01*
X66897704Y-69940708D01*
X66784655Y-69940668D01*
X66679033Y-69940623D01*
X66580580Y-69940571D01*
X66489036Y-69940512D01*
X66404140Y-69940444D01*
X66325634Y-69940365D01*
X66253257Y-69940274D01*
X66186750Y-69940171D01*
X66125853Y-69940053D01*
X66070306Y-69939919D01*
X66019850Y-69939768D01*
X65974225Y-69939599D01*
X65933172Y-69939409D01*
X65896430Y-69939199D01*
X65863740Y-69938967D01*
X65834843Y-69938711D01*
X65809478Y-69938429D01*
X65787386Y-69938122D01*
X65768307Y-69937787D01*
X65751982Y-69937422D01*
X65738150Y-69937028D01*
X65726553Y-69936601D01*
X65716930Y-69936142D01*
X65709022Y-69935649D01*
X65702570Y-69935119D01*
X65697312Y-69934553D01*
X65692990Y-69933949D01*
X65689345Y-69933305D01*
X65686263Y-69932653D01*
X65610641Y-69911346D01*
X65538598Y-69882635D01*
X65470565Y-69846957D01*
X65406975Y-69804750D01*
X65348258Y-69756454D01*
X65294847Y-69702506D01*
X65247173Y-69643344D01*
X65205667Y-69579408D01*
X65170761Y-69511134D01*
X65142887Y-69438963D01*
X65122476Y-69363331D01*
X65121589Y-69359132D01*
X65119636Y-69349434D01*
X65117840Y-69339634D01*
X65116196Y-69329360D01*
X65114695Y-69318238D01*
X65113332Y-69305893D01*
X65112101Y-69291953D01*
X65110994Y-69276042D01*
X65110005Y-69257787D01*
X65109127Y-69236815D01*
X65108354Y-69212751D01*
X65107679Y-69185222D01*
X65107095Y-69153854D01*
X65106597Y-69118273D01*
X65106177Y-69078106D01*
X65105829Y-69032977D01*
X65105546Y-68982514D01*
X65105322Y-68926343D01*
X65105149Y-68864090D01*
X65105022Y-68795381D01*
X65104934Y-68719842D01*
X65104878Y-68637099D01*
X65104848Y-68546779D01*
X65104837Y-68448508D01*
X65104837Y-68409143D01*
X65104840Y-67606483D01*
X65116908Y-67581083D01*
X65128687Y-67559872D01*
X65146131Y-67533545D01*
X65168683Y-67502733D01*
X65195791Y-67468064D01*
X65226899Y-67430170D01*
X65261453Y-67389679D01*
X65298898Y-67347224D01*
X65338681Y-67303432D01*
X65380246Y-67258935D01*
X65423040Y-67214363D01*
X65466506Y-67170345D01*
X65510093Y-67127511D01*
X65547106Y-67092237D01*
X65621127Y-67022771D01*
X65622400Y-66237244D01*
X65623672Y-65451717D01*
X65633313Y-65409383D01*
X65655131Y-65331066D01*
X66133533Y-65331066D01*
X66133533Y-66355533D01*
X66645767Y-66355533D01*
X66645767Y-65331066D01*
X66904000Y-65331066D01*
X66904000Y-66355533D01*
X67416233Y-66355533D01*
X67416233Y-65331066D01*
X67674467Y-65331066D01*
X67674467Y-66355533D01*
X68186700Y-66355533D01*
X68186700Y-65331066D01*
X68440700Y-65331066D01*
X68440700Y-66355533D01*
X68952933Y-66355533D01*
X68952933Y-65331066D01*
X68440700Y-65331066D01*
X68186700Y-65331066D01*
X67674467Y-65331066D01*
X67416233Y-65331066D01*
X66904000Y-65331066D01*
X66645767Y-65331066D01*
X66133533Y-65331066D01*
X65655131Y-65331066D01*
X65655519Y-65329674D01*
X65684735Y-65254570D01*
X65720845Y-65184241D01*
X65763734Y-65118856D01*
X65813287Y-65058585D01*
X65869388Y-65003599D01*
X65931923Y-64954067D01*
X65950879Y-64940992D01*
X66015011Y-64902875D01*
X66083319Y-64871213D01*
X66154118Y-64846697D01*
X66216397Y-64831728D01*
X66262650Y-64822916D01*
X67558050Y-64824153D01*
G36*
X68473144Y-73106981D02*
G01*
X68595851Y-73107165D01*
X68710114Y-73107670D01*
X68814401Y-73108474D01*
X68907179Y-73109553D01*
X68986917Y-73110884D01*
X69052081Y-73112443D01*
X69101140Y-73114209D01*
X69132560Y-73116156D01*
X69140390Y-73117063D01*
X69221576Y-73137780D01*
X69299083Y-73172812D01*
X69369103Y-73219541D01*
X69427828Y-73275350D01*
X69471449Y-73337619D01*
X69477009Y-73348495D01*
X69483053Y-73366877D01*
X69492654Y-73404197D01*
X69505693Y-73459894D01*
X69522048Y-73533405D01*
X69541601Y-73624168D01*
X69564229Y-73731622D01*
X69589813Y-73855206D01*
X69618233Y-73994356D01*
X69649367Y-74148512D01*
X69661356Y-74208271D01*
X69824999Y-75025280D01*
X69824882Y-75923964D01*
X69824861Y-76081513D01*
X69824801Y-76220520D01*
X69824641Y-76342288D01*
X69824317Y-76448119D01*
X69823769Y-76539313D01*
X69822934Y-76617175D01*
X69821750Y-76683005D01*
X69820155Y-76738105D01*
X69818088Y-76783779D01*
X69815487Y-76821327D01*
X69812289Y-76852052D01*
X69808432Y-76877256D01*
X69803856Y-76898241D01*
X69798497Y-76916309D01*
X69792293Y-76932762D01*
X69785184Y-76948902D01*
X69777106Y-76966031D01*
X69775106Y-76970244D01*
X69745995Y-77018293D01*
X69705107Y-77068489D01*
X69658291Y-77114617D01*
X69611393Y-77150461D01*
X69598179Y-77158281D01*
X69568295Y-77174114D01*
X69541214Y-77186848D01*
X69514294Y-77196860D01*
X69484892Y-77204530D01*
X69450366Y-77210235D01*
X69408071Y-77214353D01*
X69355365Y-77217263D01*
X69289606Y-77219341D01*
X69208149Y-77220966D01*
X69153813Y-77221833D01*
X68854698Y-77226402D01*
X68842142Y-77271247D01*
X68816670Y-77328097D01*
X68775903Y-77372450D01*
X68742662Y-77393591D01*
X68737040Y-77396267D01*
X68730532Y-77398685D01*
X68722156Y-77400857D01*
X68710929Y-77402797D01*
X68695869Y-77404516D01*
X68675991Y-77406028D01*
X68650315Y-77407345D01*
X68617855Y-77408481D01*
X68577631Y-77409448D01*
X68528658Y-77410258D01*
X68469954Y-77410925D01*
X68400536Y-77411461D01*
X68319422Y-77411879D01*
X68225628Y-77412193D01*
X68118171Y-77412413D01*
X67996069Y-77412555D01*
X67858338Y-77412629D01*
X67703996Y-77412649D01*
X67532060Y-77412628D01*
X67341548Y-77412579D01*
X67282914Y-77412561D01*
X67086796Y-77412494D01*
X66909540Y-77412413D01*
X66750165Y-77412303D01*
X66607691Y-77412153D01*
X66481136Y-77411948D01*
X66369519Y-77411676D01*
X66271858Y-77411324D01*
X66187174Y-77410878D01*
X66114483Y-77410325D01*
X66052806Y-77409653D01*
X66001161Y-77408848D01*
X65958567Y-77407897D01*
X65924042Y-77406787D01*
X65896607Y-77405505D01*
X65875278Y-77404038D01*
X65859076Y-77402372D01*
X65847019Y-77400495D01*
X65838127Y-77398394D01*
X65831416Y-77396055D01*
X65825908Y-77393465D01*
X65825204Y-77393096D01*
X65775729Y-77356121D01*
X65740259Y-77305657D01*
X65726727Y-77270937D01*
X65713585Y-77226428D01*
X65425249Y-77222136D01*
X65340272Y-77220760D01*
X65272483Y-77219317D01*
X65219229Y-77217616D01*
X65177855Y-77215464D01*
X65145706Y-77212671D01*
X65120128Y-77209046D01*
X65098466Y-77204398D01*
X65078066Y-77198535D01*
X65072421Y-77196715D01*
X64982167Y-77157449D01*
X64904352Y-77103415D01*
X64840205Y-77035844D01*
X64790954Y-76955963D01*
X64764487Y-76888575D01*
X64761147Y-76877166D01*
X64758211Y-76865061D01*
X64755654Y-76850971D01*
X64753450Y-76833606D01*
X64751572Y-76811677D01*
X64749994Y-76783895D01*
X64748691Y-76748970D01*
X64747636Y-76705611D01*
X64746803Y-76652531D01*
X64746166Y-76588439D01*
X64745699Y-76512046D01*
X64745376Y-76422062D01*
X64745170Y-76317198D01*
X64745057Y-76196164D01*
X64745008Y-76057671D01*
X64745000Y-75925399D01*
X64745000Y-75049113D01*
X65151786Y-75049113D01*
X65155293Y-75050571D01*
X65166253Y-75051917D01*
X65185335Y-75053156D01*
X65213206Y-75054291D01*
X65250533Y-75055327D01*
X65297983Y-75056266D01*
X65356223Y-75057113D01*
X65425921Y-75057872D01*
X65507743Y-75058547D01*
X65602357Y-75059141D01*
X65710430Y-75059659D01*
X65832629Y-75060104D01*
X65969621Y-75060480D01*
X66122073Y-75060791D01*
X66290653Y-75061041D01*
X66476027Y-75061234D01*
X66678863Y-75061374D01*
X66899828Y-75061464D01*
X67139589Y-75061509D01*
X67285000Y-75061515D01*
X67535779Y-75061495D01*
X67767382Y-75061431D01*
X67980475Y-75061320D01*
X68175726Y-75061158D01*
X68353802Y-75060941D01*
X68515371Y-75060665D01*
X68661098Y-75060327D01*
X68791652Y-75059921D01*
X68907699Y-75059446D01*
X69009907Y-75058896D01*
X69098942Y-75058267D01*
X69175473Y-75057557D01*
X69240166Y-75056760D01*
X69293688Y-75055874D01*
X69336706Y-75054894D01*
X69369888Y-75053816D01*
X69393901Y-75052637D01*
X69409412Y-75051352D01*
X69417087Y-75049958D01*
X69418213Y-75049113D01*
X69416315Y-75037626D01*
X69410816Y-75008200D01*
X69402015Y-74962351D01*
X69390210Y-74901597D01*
X69375698Y-74827454D01*
X69358777Y-74741441D01*
X69339745Y-74645074D01*
X69318900Y-74539871D01*
X69296540Y-74427348D01*
X69272963Y-74309023D01*
X69268689Y-74287609D01*
X69238592Y-74137361D01*
X69212001Y-74005792D01*
X69188739Y-73892083D01*
X69168627Y-73795413D01*
X69151488Y-73714963D01*
X69137142Y-73649913D01*
X69125412Y-73599444D01*
X69116120Y-73562736D01*
X69109087Y-73538969D01*
X69104135Y-73527324D01*
X69103072Y-73526105D01*
X69090378Y-73521448D01*
X69064859Y-73517977D01*
X69024808Y-73515594D01*
X68968520Y-73514204D01*
X68894286Y-73513707D01*
X68885502Y-73513703D01*
X68684017Y-73513703D01*
X68718483Y-73561677D01*
X68774399Y-73654852D01*
X68815231Y-73755944D01*
X68840625Y-73861794D01*
X68850228Y-73969244D01*
X68843685Y-74075134D01*
X68820642Y-74176306D01*
X68794787Y-74242027D01*
X68741549Y-74332824D01*
X68670161Y-74419401D01*
X68582030Y-74500885D01*
X68478567Y-74576404D01*
X68361179Y-74645085D01*
X68231276Y-74706058D01*
X68090266Y-74758448D01*
X67939558Y-74801384D01*
X67863907Y-74818437D01*
X67738903Y-74840056D01*
X67600605Y-74856606D01*
X67454985Y-74867769D01*
X67308016Y-74873228D01*
X67165669Y-74872664D01*
X67033918Y-74865760D01*
X67011364Y-74863779D01*
X66830454Y-74840839D01*
X66658858Y-74807199D01*
X66497765Y-74763402D01*
X66348363Y-74709991D01*
X66211838Y-74647507D01*
X66089380Y-74576492D01*
X65982176Y-74497490D01*
X65891414Y-74411043D01*
X65819623Y-74319712D01*
X65767734Y-74224980D01*
X65734716Y-74125741D01*
X65720451Y-74023250D01*
X65724819Y-73918762D01*
X65747703Y-73813531D01*
X65788983Y-73708811D01*
X65848543Y-73605859D01*
X65892611Y-73545949D01*
X65918324Y-73513703D01*
X65700667Y-73513703D01*
X65621766Y-73514064D01*
X65560986Y-73515208D01*
X65516614Y-73517226D01*
X65486941Y-73520209D01*
X65470255Y-73524247D01*
X65466927Y-73526105D01*
X65462539Y-73534422D01*
X65456121Y-73554625D01*
X65447496Y-73587534D01*
X65436484Y-73633969D01*
X65422908Y-73694749D01*
X65406588Y-73770694D01*
X65387348Y-73862624D01*
X65365009Y-73971358D01*
X65339392Y-74097716D01*
X65310319Y-74242518D01*
X65301310Y-74287609D01*
X65277548Y-74406802D01*
X65254951Y-74520461D01*
X65233817Y-74627069D01*
X65214443Y-74725109D01*
X65197127Y-74813064D01*
X65182167Y-74889416D01*
X65169861Y-74952648D01*
X65160507Y-75001244D01*
X65154403Y-75033685D01*
X65151847Y-75048454D01*
X65151786Y-75049113D01*
X64745000Y-75049113D01*
X64745000Y-75025280D01*
X64908643Y-74208271D01*
X64940736Y-74048790D01*
X64970158Y-73904110D01*
X64996788Y-73774792D01*
X65020507Y-73661399D01*
X65041194Y-73564492D01*
X65058728Y-73484633D01*
X65072988Y-73422384D01*
X65083855Y-73378306D01*
X65091208Y-73352962D01*
X65092990Y-73348495D01*
X65133709Y-73285400D01*
X65190170Y-73228326D01*
X65258563Y-73179894D01*
X65335082Y-73142720D01*
X65415918Y-73119423D01*
X65429609Y-73117063D01*
X65452801Y-73115043D01*
X65494305Y-73113194D01*
X65552586Y-73111542D01*
X65626114Y-73110108D01*
X65713355Y-73108915D01*
X65812778Y-73107988D01*
X65922850Y-73107349D01*
X66042038Y-73107020D01*
X66096855Y-73106981D01*
X66699609Y-73106906D01*
X66699609Y-73513703D01*
X66656721Y-73513703D01*
X66622755Y-73519230D01*
X66576911Y-73534529D01*
X66523340Y-73557670D01*
X66466191Y-73586726D01*
X66409617Y-73619770D01*
X66366705Y-73648390D01*
X66304468Y-73698450D01*
X66247927Y-73754739D01*
X66199254Y-73814195D01*
X66160619Y-73873756D01*
X66134194Y-73930362D01*
X66122152Y-73980951D01*
X66121655Y-73993802D01*
X66132178Y-74049317D01*
X66161122Y-74104404D01*
X66207067Y-74158341D01*
X66268591Y-74210406D01*
X66344276Y-74259880D01*
X66432699Y-74306040D01*
X66532440Y-74348165D01*
X66642080Y-74385536D01*
X66760197Y-74417430D01*
X66885371Y-74443126D01*
X67016181Y-74461904D01*
X67051078Y-74465578D01*
X67196071Y-74474968D01*
X67341120Y-74475370D01*
X67484506Y-74467277D01*
X67624510Y-74451186D01*
X67759412Y-74427593D01*
X67887493Y-74396994D01*
X68007033Y-74359883D01*
X68116314Y-74316757D01*
X68213615Y-74268112D01*
X68297218Y-74214442D01*
X68365403Y-74156245D01*
X68416451Y-74094015D01*
X68432033Y-74067440D01*
X68447971Y-74016273D01*
X68448552Y-73956799D01*
X68434443Y-73892415D01*
X68406313Y-73826517D01*
X68374715Y-73775762D01*
X68339977Y-73736820D01*
X68291428Y-73695382D01*
X68232903Y-73653600D01*
X68168236Y-73613623D01*
X68101263Y-73577604D01*
X68035818Y-73547695D01*
X67975735Y-73526045D01*
X67924849Y-73514806D01*
X67907597Y-73513708D01*
X67870390Y-73513703D01*
X67870390Y-73106906D01*
X68473144Y-73106981D01*
X68473144Y-73106981D01*
G37*
X68473144Y-73106981D02*
X68595851Y-73107165D01*
X68710114Y-73107670D01*
X68814401Y-73108474D01*
X68907179Y-73109553D01*
X68986917Y-73110884D01*
X69052081Y-73112443D01*
X69101140Y-73114209D01*
X69132560Y-73116156D01*
X69140390Y-73117063D01*
X69221576Y-73137780D01*
X69299083Y-73172812D01*
X69369103Y-73219541D01*
X69427828Y-73275350D01*
X69471449Y-73337619D01*
X69477009Y-73348495D01*
X69483053Y-73366877D01*
X69492654Y-73404197D01*
X69505693Y-73459894D01*
X69522048Y-73533405D01*
X69541601Y-73624168D01*
X69564229Y-73731622D01*
X69589813Y-73855206D01*
X69618233Y-73994356D01*
X69649367Y-74148512D01*
X69661356Y-74208271D01*
X69824999Y-75025280D01*
X69824882Y-75923964D01*
X69824861Y-76081513D01*
X69824801Y-76220520D01*
X69824641Y-76342288D01*
X69824317Y-76448119D01*
X69823769Y-76539313D01*
X69822934Y-76617175D01*
X69821750Y-76683005D01*
X69820155Y-76738105D01*
X69818088Y-76783779D01*
X69815487Y-76821327D01*
X69812289Y-76852052D01*
X69808432Y-76877256D01*
X69803856Y-76898241D01*
X69798497Y-76916309D01*
X69792293Y-76932762D01*
X69785184Y-76948902D01*
X69777106Y-76966031D01*
X69775106Y-76970244D01*
X69745995Y-77018293D01*
X69705107Y-77068489D01*
X69658291Y-77114617D01*
X69611393Y-77150461D01*
X69598179Y-77158281D01*
X69568295Y-77174114D01*
X69541214Y-77186848D01*
X69514294Y-77196860D01*
X69484892Y-77204530D01*
X69450366Y-77210235D01*
X69408071Y-77214353D01*
X69355365Y-77217263D01*
X69289606Y-77219341D01*
X69208149Y-77220966D01*
X69153813Y-77221833D01*
X68854698Y-77226402D01*
X68842142Y-77271247D01*
X68816670Y-77328097D01*
X68775903Y-77372450D01*
X68742662Y-77393591D01*
X68737040Y-77396267D01*
X68730532Y-77398685D01*
X68722156Y-77400857D01*
X68710929Y-77402797D01*
X68695869Y-77404516D01*
X68675991Y-77406028D01*
X68650315Y-77407345D01*
X68617855Y-77408481D01*
X68577631Y-77409448D01*
X68528658Y-77410258D01*
X68469954Y-77410925D01*
X68400536Y-77411461D01*
X68319422Y-77411879D01*
X68225628Y-77412193D01*
X68118171Y-77412413D01*
X67996069Y-77412555D01*
X67858338Y-77412629D01*
X67703996Y-77412649D01*
X67532060Y-77412628D01*
X67341548Y-77412579D01*
X67282914Y-77412561D01*
X67086796Y-77412494D01*
X66909540Y-77412413D01*
X66750165Y-77412303D01*
X66607691Y-77412153D01*
X66481136Y-77411948D01*
X66369519Y-77411676D01*
X66271858Y-77411324D01*
X66187174Y-77410878D01*
X66114483Y-77410325D01*
X66052806Y-77409653D01*
X66001161Y-77408848D01*
X65958567Y-77407897D01*
X65924042Y-77406787D01*
X65896607Y-77405505D01*
X65875278Y-77404038D01*
X65859076Y-77402372D01*
X65847019Y-77400495D01*
X65838127Y-77398394D01*
X65831416Y-77396055D01*
X65825908Y-77393465D01*
X65825204Y-77393096D01*
X65775729Y-77356121D01*
X65740259Y-77305657D01*
X65726727Y-77270937D01*
X65713585Y-77226428D01*
X65425249Y-77222136D01*
X65340272Y-77220760D01*
X65272483Y-77219317D01*
X65219229Y-77217616D01*
X65177855Y-77215464D01*
X65145706Y-77212671D01*
X65120128Y-77209046D01*
X65098466Y-77204398D01*
X65078066Y-77198535D01*
X65072421Y-77196715D01*
X64982167Y-77157449D01*
X64904352Y-77103415D01*
X64840205Y-77035844D01*
X64790954Y-76955963D01*
X64764487Y-76888575D01*
X64761147Y-76877166D01*
X64758211Y-76865061D01*
X64755654Y-76850971D01*
X64753450Y-76833606D01*
X64751572Y-76811677D01*
X64749994Y-76783895D01*
X64748691Y-76748970D01*
X64747636Y-76705611D01*
X64746803Y-76652531D01*
X64746166Y-76588439D01*
X64745699Y-76512046D01*
X64745376Y-76422062D01*
X64745170Y-76317198D01*
X64745057Y-76196164D01*
X64745008Y-76057671D01*
X64745000Y-75925399D01*
X64745000Y-75049113D01*
X65151786Y-75049113D01*
X65155293Y-75050571D01*
X65166253Y-75051917D01*
X65185335Y-75053156D01*
X65213206Y-75054291D01*
X65250533Y-75055327D01*
X65297983Y-75056266D01*
X65356223Y-75057113D01*
X65425921Y-75057872D01*
X65507743Y-75058547D01*
X65602357Y-75059141D01*
X65710430Y-75059659D01*
X65832629Y-75060104D01*
X65969621Y-75060480D01*
X66122073Y-75060791D01*
X66290653Y-75061041D01*
X66476027Y-75061234D01*
X66678863Y-75061374D01*
X66899828Y-75061464D01*
X67139589Y-75061509D01*
X67285000Y-75061515D01*
X67535779Y-75061495D01*
X67767382Y-75061431D01*
X67980475Y-75061320D01*
X68175726Y-75061158D01*
X68353802Y-75060941D01*
X68515371Y-75060665D01*
X68661098Y-75060327D01*
X68791652Y-75059921D01*
X68907699Y-75059446D01*
X69009907Y-75058896D01*
X69098942Y-75058267D01*
X69175473Y-75057557D01*
X69240166Y-75056760D01*
X69293688Y-75055874D01*
X69336706Y-75054894D01*
X69369888Y-75053816D01*
X69393901Y-75052637D01*
X69409412Y-75051352D01*
X69417087Y-75049958D01*
X69418213Y-75049113D01*
X69416315Y-75037626D01*
X69410816Y-75008200D01*
X69402015Y-74962351D01*
X69390210Y-74901597D01*
X69375698Y-74827454D01*
X69358777Y-74741441D01*
X69339745Y-74645074D01*
X69318900Y-74539871D01*
X69296540Y-74427348D01*
X69272963Y-74309023D01*
X69268689Y-74287609D01*
X69238592Y-74137361D01*
X69212001Y-74005792D01*
X69188739Y-73892083D01*
X69168627Y-73795413D01*
X69151488Y-73714963D01*
X69137142Y-73649913D01*
X69125412Y-73599444D01*
X69116120Y-73562736D01*
X69109087Y-73538969D01*
X69104135Y-73527324D01*
X69103072Y-73526105D01*
X69090378Y-73521448D01*
X69064859Y-73517977D01*
X69024808Y-73515594D01*
X68968520Y-73514204D01*
X68894286Y-73513707D01*
X68885502Y-73513703D01*
X68684017Y-73513703D01*
X68718483Y-73561677D01*
X68774399Y-73654852D01*
X68815231Y-73755944D01*
X68840625Y-73861794D01*
X68850228Y-73969244D01*
X68843685Y-74075134D01*
X68820642Y-74176306D01*
X68794787Y-74242027D01*
X68741549Y-74332824D01*
X68670161Y-74419401D01*
X68582030Y-74500885D01*
X68478567Y-74576404D01*
X68361179Y-74645085D01*
X68231276Y-74706058D01*
X68090266Y-74758448D01*
X67939558Y-74801384D01*
X67863907Y-74818437D01*
X67738903Y-74840056D01*
X67600605Y-74856606D01*
X67454985Y-74867769D01*
X67308016Y-74873228D01*
X67165669Y-74872664D01*
X67033918Y-74865760D01*
X67011364Y-74863779D01*
X66830454Y-74840839D01*
X66658858Y-74807199D01*
X66497765Y-74763402D01*
X66348363Y-74709991D01*
X66211838Y-74647507D01*
X66089380Y-74576492D01*
X65982176Y-74497490D01*
X65891414Y-74411043D01*
X65819623Y-74319712D01*
X65767734Y-74224980D01*
X65734716Y-74125741D01*
X65720451Y-74023250D01*
X65724819Y-73918762D01*
X65747703Y-73813531D01*
X65788983Y-73708811D01*
X65848543Y-73605859D01*
X65892611Y-73545949D01*
X65918324Y-73513703D01*
X65700667Y-73513703D01*
X65621766Y-73514064D01*
X65560986Y-73515208D01*
X65516614Y-73517226D01*
X65486941Y-73520209D01*
X65470255Y-73524247D01*
X65466927Y-73526105D01*
X65462539Y-73534422D01*
X65456121Y-73554625D01*
X65447496Y-73587534D01*
X65436484Y-73633969D01*
X65422908Y-73694749D01*
X65406588Y-73770694D01*
X65387348Y-73862624D01*
X65365009Y-73971358D01*
X65339392Y-74097716D01*
X65310319Y-74242518D01*
X65301310Y-74287609D01*
X65277548Y-74406802D01*
X65254951Y-74520461D01*
X65233817Y-74627069D01*
X65214443Y-74725109D01*
X65197127Y-74813064D01*
X65182167Y-74889416D01*
X65169861Y-74952648D01*
X65160507Y-75001244D01*
X65154403Y-75033685D01*
X65151847Y-75048454D01*
X65151786Y-75049113D01*
X64745000Y-75049113D01*
X64745000Y-75025280D01*
X64908643Y-74208271D01*
X64940736Y-74048790D01*
X64970158Y-73904110D01*
X64996788Y-73774792D01*
X65020507Y-73661399D01*
X65041194Y-73564492D01*
X65058728Y-73484633D01*
X65072988Y-73422384D01*
X65083855Y-73378306D01*
X65091208Y-73352962D01*
X65092990Y-73348495D01*
X65133709Y-73285400D01*
X65190170Y-73228326D01*
X65258563Y-73179894D01*
X65335082Y-73142720D01*
X65415918Y-73119423D01*
X65429609Y-73117063D01*
X65452801Y-73115043D01*
X65494305Y-73113194D01*
X65552586Y-73111542D01*
X65626114Y-73110108D01*
X65713355Y-73108915D01*
X65812778Y-73107988D01*
X65922850Y-73107349D01*
X66042038Y-73107020D01*
X66096855Y-73106981D01*
X66699609Y-73106906D01*
X66699609Y-73513703D01*
X66656721Y-73513703D01*
X66622755Y-73519230D01*
X66576911Y-73534529D01*
X66523340Y-73557670D01*
X66466191Y-73586726D01*
X66409617Y-73619770D01*
X66366705Y-73648390D01*
X66304468Y-73698450D01*
X66247927Y-73754739D01*
X66199254Y-73814195D01*
X66160619Y-73873756D01*
X66134194Y-73930362D01*
X66122152Y-73980951D01*
X66121655Y-73993802D01*
X66132178Y-74049317D01*
X66161122Y-74104404D01*
X66207067Y-74158341D01*
X66268591Y-74210406D01*
X66344276Y-74259880D01*
X66432699Y-74306040D01*
X66532440Y-74348165D01*
X66642080Y-74385536D01*
X66760197Y-74417430D01*
X66885371Y-74443126D01*
X67016181Y-74461904D01*
X67051078Y-74465578D01*
X67196071Y-74474968D01*
X67341120Y-74475370D01*
X67484506Y-74467277D01*
X67624510Y-74451186D01*
X67759412Y-74427593D01*
X67887493Y-74396994D01*
X68007033Y-74359883D01*
X68116314Y-74316757D01*
X68213615Y-74268112D01*
X68297218Y-74214442D01*
X68365403Y-74156245D01*
X68416451Y-74094015D01*
X68432033Y-74067440D01*
X68447971Y-74016273D01*
X68448552Y-73956799D01*
X68434443Y-73892415D01*
X68406313Y-73826517D01*
X68374715Y-73775762D01*
X68339977Y-73736820D01*
X68291428Y-73695382D01*
X68232903Y-73653600D01*
X68168236Y-73613623D01*
X68101263Y-73577604D01*
X68035818Y-73547695D01*
X67975735Y-73526045D01*
X67924849Y-73514806D01*
X67907597Y-73513708D01*
X67870390Y-73513703D01*
X67870390Y-73106906D01*
X68473144Y-73106981D01*
G36*
X67383937Y-72346957D02*
G01*
X67437802Y-72353504D01*
X67439207Y-72353760D01*
X67510752Y-72372377D01*
X67572776Y-72399186D01*
X67622746Y-72432480D01*
X67658134Y-72470547D01*
X67676408Y-72511680D01*
X67676934Y-72514366D01*
X67677856Y-72529451D01*
X67678651Y-72562696D01*
X67679312Y-72612416D01*
X67679834Y-72676928D01*
X67680208Y-72754546D01*
X67680429Y-72843589D01*
X67680490Y-72942371D01*
X67680384Y-73049208D01*
X67680104Y-73162416D01*
X67679809Y-73242684D01*
X67676914Y-73939048D01*
X67647148Y-73970386D01*
X67599976Y-74007785D01*
X67537451Y-74038835D01*
X67463301Y-74062643D01*
X67381252Y-74078317D01*
X67295031Y-74084964D01*
X67208365Y-74081692D01*
X67190742Y-74079698D01*
X67098363Y-74062188D01*
X67019625Y-74035186D01*
X66956280Y-73999408D01*
X66922851Y-73970386D01*
X66893085Y-73939048D01*
X66890190Y-73242684D01*
X66889788Y-73126086D01*
X66889564Y-73014707D01*
X66889511Y-72910231D01*
X66889623Y-72814343D01*
X66889893Y-72728725D01*
X66890314Y-72655063D01*
X66890881Y-72595040D01*
X66891585Y-72550340D01*
X66892421Y-72522647D01*
X66893065Y-72514366D01*
X66910163Y-72473096D01*
X66944535Y-72434782D01*
X66993652Y-72401133D01*
X67054982Y-72373859D01*
X67125997Y-72354669D01*
X67130792Y-72353760D01*
X67184174Y-72347111D01*
X67249345Y-72343760D01*
X67318525Y-72343709D01*
X67383937Y-72346957D01*
X67383937Y-72346957D01*
G37*
X67383937Y-72346957D02*
X67437802Y-72353504D01*
X67439207Y-72353760D01*
X67510752Y-72372377D01*
X67572776Y-72399186D01*
X67622746Y-72432480D01*
X67658134Y-72470547D01*
X67676408Y-72511680D01*
X67676934Y-72514366D01*
X67677856Y-72529451D01*
X67678651Y-72562696D01*
X67679312Y-72612416D01*
X67679834Y-72676928D01*
X67680208Y-72754546D01*
X67680429Y-72843589D01*
X67680490Y-72942371D01*
X67680384Y-73049208D01*
X67680104Y-73162416D01*
X67679809Y-73242684D01*
X67676914Y-73939048D01*
X67647148Y-73970386D01*
X67599976Y-74007785D01*
X67537451Y-74038835D01*
X67463301Y-74062643D01*
X67381252Y-74078317D01*
X67295031Y-74084964D01*
X67208365Y-74081692D01*
X67190742Y-74079698D01*
X67098363Y-74062188D01*
X67019625Y-74035186D01*
X66956280Y-73999408D01*
X66922851Y-73970386D01*
X66893085Y-73939048D01*
X66890190Y-73242684D01*
X66889788Y-73126086D01*
X66889564Y-73014707D01*
X66889511Y-72910231D01*
X66889623Y-72814343D01*
X66889893Y-72728725D01*
X66890314Y-72655063D01*
X66890881Y-72595040D01*
X66891585Y-72550340D01*
X66892421Y-72522647D01*
X66893065Y-72514366D01*
X66910163Y-72473096D01*
X66944535Y-72434782D01*
X66993652Y-72401133D01*
X67054982Y-72373859D01*
X67125997Y-72354669D01*
X67130792Y-72353760D01*
X67184174Y-72347111D01*
X67249345Y-72343760D01*
X67318525Y-72343709D01*
X67383937Y-72346957D01*
%LPC*%
D11*
X71730000Y-82620000D03*
X71730000Y-67380000D03*
X71730000Y-75000000D03*
D12*
X170250000Y-102500000D03*
X170250000Y-47500000D03*
X77250000Y-47500000D03*
X77250000Y-102500000D03*
X221250000Y-103000000D03*
X221250000Y-53000000D03*
X178363248Y-40500000D03*
X68750000Y-40500000D03*
X68750000Y-103000000D03*
D13*
X206250000Y-118000000D03*
X145000000Y-118000000D03*
X83750000Y-118000000D03*
X53750000Y-95500000D03*
X53750000Y-50500000D03*
D14*
X200000000Y-75000000D03*
M02*
