G04 #@! TF.GenerationSoftware,KiCad,Pcbnew,(5.1.4)-1*
G04 #@! TF.CreationDate,2020-03-27T16:03:36-04:00*
G04 #@! TF.ProjectId,y-z_motor_endstop_breakout,792d7a5f-6d6f-4746-9f72-5f656e647374,rev?*
G04 #@! TF.SameCoordinates,PX8a48640PY6422c40*
G04 #@! TF.FileFunction,Soldermask,Bot*
G04 #@! TF.FilePolarity,Negative*
%FSLAX46Y46*%
G04 Gerber Fmt 4.6, Leading zero omitted, Abs format (unit mm)*
G04 Created by KiCad (PCBNEW (5.1.4)-1) date 2020-03-27 16:03:36*
%MOMM*%
%LPD*%
G04 APERTURE LIST*
%ADD10C,0.100000*%
G04 APERTURE END LIST*
D10*
G36*
X1560771Y-4854828D02*
G01*
X2197816Y-5118701D01*
X2534558Y-5258184D01*
X3251847Y-5737462D01*
X3410936Y-5843762D01*
X4156238Y-6589064D01*
X4156239Y-6589066D01*
X4741816Y-7465442D01*
X4881299Y-7802184D01*
X5145172Y-8439229D01*
X5350800Y-9472992D01*
X5350800Y-10527008D01*
X5145172Y-11560771D01*
X4881299Y-12197816D01*
X4741816Y-12534558D01*
X4254276Y-13264212D01*
X4156238Y-13410936D01*
X3410936Y-14156238D01*
X3264212Y-14254276D01*
X2534558Y-14741816D01*
X2197816Y-14881299D01*
X1560771Y-15145172D01*
X527008Y-15350800D01*
X-527008Y-15350800D01*
X-1560771Y-15145172D01*
X-2197816Y-14881299D01*
X-2534558Y-14741816D01*
X-3264212Y-14254276D01*
X-3410936Y-14156238D01*
X-4156238Y-13410936D01*
X-4254276Y-13264212D01*
X-4741816Y-12534558D01*
X-4881299Y-12197816D01*
X-5145172Y-11560771D01*
X-5350800Y-10527008D01*
X-5350800Y-9472992D01*
X-5145172Y-8439229D01*
X-4881299Y-7802184D01*
X-4741816Y-7465442D01*
X-4156239Y-6589066D01*
X-4156238Y-6589064D01*
X-3410936Y-5843762D01*
X-3251847Y-5737462D01*
X-2534558Y-5258184D01*
X-2197816Y-5118701D01*
X-1560771Y-4854828D01*
X-527008Y-4649200D01*
X527008Y-4649200D01*
X1560771Y-4854828D01*
X1560771Y-4854828D01*
G37*
G36*
X10486588Y-8002234D02*
G01*
X10486591Y-8002235D01*
X10656388Y-8053742D01*
X10812878Y-8137388D01*
X10950043Y-8249957D01*
X11062612Y-8387122D01*
X11146258Y-8543612D01*
X11191875Y-8693992D01*
X11197766Y-8713412D01*
X11215158Y-8890000D01*
X11197766Y-9066588D01*
X11197765Y-9066591D01*
X11146258Y-9236388D01*
X11062612Y-9392878D01*
X10950043Y-9530043D01*
X10812878Y-9642612D01*
X10656388Y-9726258D01*
X10506008Y-9771875D01*
X10486588Y-9777766D01*
X10354249Y-9790800D01*
X9965751Y-9790800D01*
X9833412Y-9777766D01*
X9813992Y-9771875D01*
X9663612Y-9726258D01*
X9507122Y-9642612D01*
X9369957Y-9530043D01*
X9257388Y-9392878D01*
X9173742Y-9236388D01*
X9122235Y-9066591D01*
X9122234Y-9066588D01*
X9104842Y-8890000D01*
X9122234Y-8713412D01*
X9128125Y-8693992D01*
X9173742Y-8543612D01*
X9257388Y-8387122D01*
X9369957Y-8249957D01*
X9507122Y-8137388D01*
X9663612Y-8053742D01*
X9833409Y-8002235D01*
X9833412Y-8002234D01*
X9965751Y-7989200D01*
X10354249Y-7989200D01*
X10486588Y-8002234D01*
X10486588Y-8002234D01*
G37*
G36*
X11011957Y-5494067D02*
G01*
X11058266Y-5508115D01*
X11100951Y-5530931D01*
X11138365Y-5561635D01*
X11169069Y-5599049D01*
X11191885Y-5641734D01*
X11205933Y-5688043D01*
X11210800Y-5737462D01*
X11210800Y-7042538D01*
X11205933Y-7091957D01*
X11191885Y-7138266D01*
X11169069Y-7180951D01*
X11138365Y-7218365D01*
X11100951Y-7249069D01*
X11058266Y-7271885D01*
X11011957Y-7285933D01*
X10962538Y-7290800D01*
X9357462Y-7290800D01*
X9308043Y-7285933D01*
X9261734Y-7271885D01*
X9219049Y-7249069D01*
X9181635Y-7218365D01*
X9150931Y-7180951D01*
X9128115Y-7138266D01*
X9114067Y-7091957D01*
X9109200Y-7042538D01*
X9109200Y-5737462D01*
X9114067Y-5688043D01*
X9128115Y-5641734D01*
X9150931Y-5599049D01*
X9181635Y-5561635D01*
X9219049Y-5530931D01*
X9261734Y-5508115D01*
X9308043Y-5494067D01*
X9357462Y-5489200D01*
X10962538Y-5489200D01*
X11011957Y-5494067D01*
X11011957Y-5494067D01*
G37*
G36*
X-12621498Y-1628908D02*
G01*
X-12520743Y-1638831D01*
X-12348383Y-1691116D01*
X-12189529Y-1776025D01*
X-12140167Y-1816536D01*
X-12050293Y-1890293D01*
X-11976536Y-1980167D01*
X-11936025Y-2029529D01*
X-11851116Y-2188383D01*
X-11798831Y-2360743D01*
X-11781176Y-2540000D01*
X-11798831Y-2719257D01*
X-11851116Y-2891617D01*
X-11936025Y-3050471D01*
X-11976536Y-3099833D01*
X-12050293Y-3189707D01*
X-12140167Y-3263464D01*
X-12189529Y-3303975D01*
X-12348383Y-3388884D01*
X-12520743Y-3441169D01*
X-12621498Y-3451092D01*
X-12655082Y-3454400D01*
X-12744918Y-3454400D01*
X-12778502Y-3451092D01*
X-12879257Y-3441169D01*
X-13051617Y-3388884D01*
X-13210471Y-3303975D01*
X-13259833Y-3263464D01*
X-13349707Y-3189707D01*
X-13423464Y-3099833D01*
X-13463975Y-3050471D01*
X-13548884Y-2891617D01*
X-13601169Y-2719257D01*
X-13618824Y-2540000D01*
X-13601169Y-2360743D01*
X-13548884Y-2188383D01*
X-13463975Y-2029529D01*
X-13423464Y-1980167D01*
X-13349707Y-1890293D01*
X-13259833Y-1816536D01*
X-13210471Y-1776025D01*
X-13051617Y-1691116D01*
X-12879257Y-1638831D01*
X-12778502Y-1628908D01*
X-12744918Y-1625600D01*
X-12655082Y-1625600D01*
X-12621498Y-1628908D01*
X-12621498Y-1628908D01*
G37*
G36*
X-10081498Y-1628908D02*
G01*
X-9980743Y-1638831D01*
X-9808383Y-1691116D01*
X-9649529Y-1776025D01*
X-9600167Y-1816536D01*
X-9510293Y-1890293D01*
X-9436536Y-1980167D01*
X-9396025Y-2029529D01*
X-9311116Y-2188383D01*
X-9258831Y-2360743D01*
X-9241176Y-2540000D01*
X-9258831Y-2719257D01*
X-9311116Y-2891617D01*
X-9396025Y-3050471D01*
X-9436536Y-3099833D01*
X-9510293Y-3189707D01*
X-9600167Y-3263464D01*
X-9649529Y-3303975D01*
X-9808383Y-3388884D01*
X-9980743Y-3441169D01*
X-10081498Y-3451092D01*
X-10115082Y-3454400D01*
X-10204918Y-3454400D01*
X-10238502Y-3451092D01*
X-10339257Y-3441169D01*
X-10511617Y-3388884D01*
X-10670471Y-3303975D01*
X-10719833Y-3263464D01*
X-10809707Y-3189707D01*
X-10883464Y-3099833D01*
X-10923975Y-3050471D01*
X-11008884Y-2891617D01*
X-11061169Y-2719257D01*
X-11078824Y-2540000D01*
X-11061169Y-2360743D01*
X-11008884Y-2188383D01*
X-10923975Y-2029529D01*
X-10883464Y-1980167D01*
X-10809707Y-1890293D01*
X-10719833Y-1816536D01*
X-10670471Y-1776025D01*
X-10511617Y-1691116D01*
X-10339257Y-1638831D01*
X-10238502Y-1628908D01*
X-10204918Y-1625600D01*
X-10115082Y-1625600D01*
X-10081498Y-1628908D01*
X-10081498Y-1628908D01*
G37*
G36*
X-12621498Y911092D02*
G01*
X-12520743Y901169D01*
X-12348383Y848884D01*
X-12189529Y763975D01*
X-12140167Y723464D01*
X-12050293Y649707D01*
X-11976536Y559833D01*
X-11936025Y510471D01*
X-11851116Y351617D01*
X-11798831Y179257D01*
X-11781176Y0D01*
X-11798831Y-179257D01*
X-11851116Y-351617D01*
X-11936025Y-510471D01*
X-11976536Y-559833D01*
X-12050293Y-649707D01*
X-12140167Y-723464D01*
X-12189529Y-763975D01*
X-12348383Y-848884D01*
X-12520743Y-901169D01*
X-12621498Y-911092D01*
X-12655082Y-914400D01*
X-12744918Y-914400D01*
X-12778502Y-911092D01*
X-12879257Y-901169D01*
X-13051617Y-848884D01*
X-13210471Y-763975D01*
X-13259833Y-723464D01*
X-13349707Y-649707D01*
X-13423464Y-559833D01*
X-13463975Y-510471D01*
X-13548884Y-351617D01*
X-13601169Y-179257D01*
X-13618824Y0D01*
X-13601169Y179257D01*
X-13548884Y351617D01*
X-13463975Y510471D01*
X-13423464Y559833D01*
X-13349707Y649707D01*
X-13259833Y723464D01*
X-13210471Y763975D01*
X-13051617Y848884D01*
X-12879257Y901169D01*
X-12778502Y911092D01*
X-12744918Y914400D01*
X-12655082Y914400D01*
X-12621498Y911092D01*
X-12621498Y911092D01*
G37*
G36*
X-10081498Y911092D02*
G01*
X-9980743Y901169D01*
X-9808383Y848884D01*
X-9649529Y763975D01*
X-9600167Y723464D01*
X-9510293Y649707D01*
X-9436536Y559833D01*
X-9396025Y510471D01*
X-9311116Y351617D01*
X-9258831Y179257D01*
X-9241176Y0D01*
X-9258831Y-179257D01*
X-9311116Y-351617D01*
X-9396025Y-510471D01*
X-9436536Y-559833D01*
X-9510293Y-649707D01*
X-9600167Y-723464D01*
X-9649529Y-763975D01*
X-9808383Y-848884D01*
X-9980743Y-901169D01*
X-10081498Y-911092D01*
X-10115082Y-914400D01*
X-10204918Y-914400D01*
X-10238502Y-911092D01*
X-10339257Y-901169D01*
X-10511617Y-848884D01*
X-10670471Y-763975D01*
X-10719833Y-723464D01*
X-10809707Y-649707D01*
X-10883464Y-559833D01*
X-10923975Y-510471D01*
X-11008884Y-351617D01*
X-11061169Y-179257D01*
X-11078824Y0D01*
X-11061169Y179257D01*
X-11008884Y351617D01*
X-10923975Y510471D01*
X-10883464Y559833D01*
X-10809707Y649707D01*
X-10719833Y723464D01*
X-10670471Y763975D01*
X-10511617Y848884D01*
X-10339257Y901169D01*
X-10238502Y911092D01*
X-10204918Y914400D01*
X-10115082Y914400D01*
X-10081498Y911092D01*
X-10081498Y911092D01*
G37*
G36*
X10461588Y2277766D02*
G01*
X10461591Y2277765D01*
X10631388Y2226258D01*
X10787878Y2142612D01*
X10925043Y2030043D01*
X11037612Y1892878D01*
X11121258Y1736388D01*
X11134991Y1691116D01*
X11172766Y1566588D01*
X11190158Y1390000D01*
X11172766Y1213412D01*
X11172765Y1213409D01*
X11121258Y1043612D01*
X11037612Y887122D01*
X10925043Y749957D01*
X10787878Y637388D01*
X10631388Y553742D01*
X10488742Y510471D01*
X10461588Y502234D01*
X10329249Y489200D01*
X9990751Y489200D01*
X9858412Y502234D01*
X9831258Y510471D01*
X9688612Y553742D01*
X9532122Y637388D01*
X9394957Y749957D01*
X9282388Y887122D01*
X9198742Y1043612D01*
X9147235Y1213409D01*
X9147234Y1213412D01*
X9129842Y1390000D01*
X9147234Y1566588D01*
X9185009Y1691116D01*
X9198742Y1736388D01*
X9282388Y1892878D01*
X9394957Y2030043D01*
X9532122Y2142612D01*
X9688612Y2226258D01*
X9858409Y2277765D01*
X9858412Y2277766D01*
X9990751Y2290800D01*
X10329249Y2290800D01*
X10461588Y2277766D01*
X10461588Y2277766D01*
G37*
G36*
X-11785600Y1625600D02*
G01*
X-13614400Y1625600D01*
X-13614400Y3454400D01*
X-11785600Y3454400D01*
X-11785600Y1625600D01*
X-11785600Y1625600D01*
G37*
G36*
X-10081498Y3451092D02*
G01*
X-9980743Y3441169D01*
X-9808383Y3388884D01*
X-9808381Y3388883D01*
X-9805085Y3387121D01*
X-9649529Y3303975D01*
X-9600167Y3263464D01*
X-9510293Y3189707D01*
X-9436536Y3099833D01*
X-9396025Y3050471D01*
X-9311116Y2891617D01*
X-9258831Y2719257D01*
X-9241176Y2540000D01*
X-9258831Y2360743D01*
X-9311116Y2188383D01*
X-9396025Y2029529D01*
X-9436536Y1980167D01*
X-9510293Y1890293D01*
X-9600167Y1816536D01*
X-9649529Y1776025D01*
X-9808383Y1691116D01*
X-9980743Y1638831D01*
X-10081498Y1628908D01*
X-10115082Y1625600D01*
X-10204918Y1625600D01*
X-10238502Y1628908D01*
X-10339257Y1638831D01*
X-10511617Y1691116D01*
X-10670471Y1776025D01*
X-10719833Y1816536D01*
X-10809707Y1890293D01*
X-10883464Y1980167D01*
X-10923975Y2029529D01*
X-11008884Y2188383D01*
X-11061169Y2360743D01*
X-11078824Y2540000D01*
X-11061169Y2719257D01*
X-11008884Y2891617D01*
X-10923975Y3050471D01*
X-10883464Y3099833D01*
X-10809707Y3189707D01*
X-10719833Y3263464D01*
X-10670471Y3303975D01*
X-10514915Y3387121D01*
X-10511619Y3388883D01*
X-10511617Y3388884D01*
X-10339257Y3441169D01*
X-10238502Y3451092D01*
X-10204918Y3454400D01*
X-10115082Y3454400D01*
X-10081498Y3451092D01*
X-10081498Y3451092D01*
G37*
G36*
X10461588Y4777766D02*
G01*
X10461591Y4777765D01*
X10631388Y4726258D01*
X10787878Y4642612D01*
X10925043Y4530043D01*
X11037612Y4392878D01*
X11121258Y4236388D01*
X11166875Y4086008D01*
X11172766Y4066588D01*
X11190158Y3890000D01*
X11172766Y3713412D01*
X11172765Y3713409D01*
X11121258Y3543612D01*
X11037612Y3387122D01*
X10925043Y3249957D01*
X10787878Y3137388D01*
X10631388Y3053742D01*
X10481008Y3008125D01*
X10461588Y3002234D01*
X10329249Y2989200D01*
X9990751Y2989200D01*
X9858412Y3002234D01*
X9838992Y3008125D01*
X9688612Y3053742D01*
X9532122Y3137388D01*
X9394957Y3249957D01*
X9282388Y3387122D01*
X9198742Y3543612D01*
X9147235Y3713409D01*
X9147234Y3713412D01*
X9129842Y3890000D01*
X9147234Y4066588D01*
X9153125Y4086008D01*
X9198742Y4236388D01*
X9282388Y4392878D01*
X9394957Y4530043D01*
X9532122Y4642612D01*
X9688612Y4726258D01*
X9858409Y4777765D01*
X9858412Y4777766D01*
X9990751Y4790800D01*
X10329249Y4790800D01*
X10461588Y4777766D01*
X10461588Y4777766D01*
G37*
G36*
X1560771Y15145172D02*
G01*
X2197816Y14881299D01*
X2534558Y14741816D01*
X3264212Y14254276D01*
X3410936Y14156238D01*
X4156238Y13410936D01*
X4156239Y13410934D01*
X4741816Y12534558D01*
X4881299Y12197816D01*
X5145172Y11560771D01*
X5350800Y10527008D01*
X5350800Y9472992D01*
X5145172Y8439229D01*
X4976049Y8030931D01*
X4741816Y7465442D01*
X4359240Y6892878D01*
X4156238Y6589064D01*
X3410936Y5843762D01*
X3270547Y5749957D01*
X2534558Y5258184D01*
X2197816Y5118701D01*
X1560771Y4854828D01*
X527008Y4649200D01*
X-527008Y4649200D01*
X-1560771Y4854828D01*
X-2197816Y5118701D01*
X-2534558Y5258184D01*
X-3270547Y5749957D01*
X-3410936Y5843762D01*
X-4156238Y6589064D01*
X-4359240Y6892878D01*
X-4741816Y7465442D01*
X-4976049Y8030931D01*
X-5145172Y8439229D01*
X-5350800Y9472992D01*
X-5350800Y10527008D01*
X-5145172Y11560771D01*
X-4881299Y12197816D01*
X-4741816Y12534558D01*
X-4156239Y13410934D01*
X-4156238Y13410936D01*
X-3410936Y14156238D01*
X-3264212Y14254276D01*
X-2534558Y14741816D01*
X-2197816Y14881299D01*
X-1560771Y15145172D01*
X-527008Y15350800D01*
X527008Y15350800D01*
X1560771Y15145172D01*
X1560771Y15145172D01*
G37*
G36*
X10461588Y7277766D02*
G01*
X10461591Y7277765D01*
X10631388Y7226258D01*
X10787878Y7142612D01*
X10925043Y7030043D01*
X11037612Y6892878D01*
X11121258Y6736388D01*
X11165947Y6589066D01*
X11172766Y6566588D01*
X11190158Y6390000D01*
X11172766Y6213412D01*
X11172765Y6213409D01*
X11121258Y6043612D01*
X11037612Y5887122D01*
X10925043Y5749957D01*
X10787878Y5637388D01*
X10631388Y5553742D01*
X10481008Y5508125D01*
X10461588Y5502234D01*
X10329249Y5489200D01*
X9990751Y5489200D01*
X9858412Y5502234D01*
X9838992Y5508125D01*
X9688612Y5553742D01*
X9532122Y5637388D01*
X9394957Y5749957D01*
X9282388Y5887122D01*
X9198742Y6043612D01*
X9147235Y6213409D01*
X9147234Y6213412D01*
X9129842Y6390000D01*
X9147234Y6566588D01*
X9154053Y6589066D01*
X9198742Y6736388D01*
X9282388Y6892878D01*
X9394957Y7030043D01*
X9532122Y7142612D01*
X9688612Y7226258D01*
X9858409Y7277765D01*
X9858412Y7277766D01*
X9990751Y7290800D01*
X10329249Y7290800D01*
X10461588Y7277766D01*
X10461588Y7277766D01*
G37*
G36*
X10986957Y9785933D02*
G01*
X11033266Y9771885D01*
X11075951Y9749069D01*
X11113365Y9718365D01*
X11144069Y9680951D01*
X11166885Y9638266D01*
X11180933Y9591957D01*
X11185800Y9542538D01*
X11185800Y8237462D01*
X11180933Y8188043D01*
X11166885Y8141734D01*
X11144069Y8099049D01*
X11113365Y8061635D01*
X11075951Y8030931D01*
X11033266Y8008115D01*
X10986957Y7994067D01*
X10937538Y7989200D01*
X9382462Y7989200D01*
X9333043Y7994067D01*
X9286734Y8008115D01*
X9244049Y8030931D01*
X9206635Y8061635D01*
X9175931Y8099049D01*
X9153115Y8141734D01*
X9139067Y8188043D01*
X9134200Y8237462D01*
X9134200Y9542538D01*
X9139067Y9591957D01*
X9153115Y9638266D01*
X9175931Y9680951D01*
X9206635Y9718365D01*
X9244049Y9749069D01*
X9286734Y9771885D01*
X9333043Y9785933D01*
X9382462Y9790800D01*
X10937538Y9790800D01*
X10986957Y9785933D01*
X10986957Y9785933D01*
G37*
M02*
