G04 #@! TF.GenerationSoftware,KiCad,Pcbnew,(5.1.4)-1*
G04 #@! TF.CreationDate,2020-03-27T16:03:36-04:00*
G04 #@! TF.ProjectId,y-z_motor_endstop_breakout,792d7a5f-6d6f-4746-9f72-5f656e647374,rev?*
G04 #@! TF.SameCoordinates,PX8a48640PY6422c40*
G04 #@! TF.FileFunction,Legend,Top*
G04 #@! TF.FilePolarity,Positive*
%FSLAX46Y46*%
G04 Gerber Fmt 4.6, Leading zero omitted, Abs format (unit mm)*
G04 Created by KiCad (PCBNEW (5.1.4)-1) date 2020-03-27 16:03:36*
%MOMM*%
%LPD*%
G04 APERTURE LIST*
%ADD10C,0.254000*%
%ADD11C,0.120000*%
%ADD12O,2.101600X1.801600*%
%ADD13C,0.100000*%
%ADD14C,1.801600*%
%ADD15O,2.051600X1.801600*%
%ADD16O,1.828800X1.828800*%
%ADD17R,1.828800X1.828800*%
%ADD18C,10.701600*%
G04 APERTURE END LIST*
D10*
X-12192000Y4445000D02*
G75*
G03X-12192000Y4445000I-508000J0D01*
G01*
D11*
X12910000Y-3540000D02*
X11660000Y-3540000D01*
X12910000Y-4790000D02*
X12910000Y-3540000D01*
X7410000Y-10690000D02*
X7410000Y-7640000D01*
X10360000Y-10690000D02*
X7410000Y-10690000D01*
X10360000Y-11440000D02*
X10360000Y-10690000D01*
X7410000Y-4590000D02*
X7410000Y-7640000D01*
X10360000Y-4590000D02*
X7410000Y-4590000D01*
X10360000Y-3840000D02*
X10360000Y-4590000D01*
X12610000Y-11440000D02*
X12610000Y-9640000D01*
X11860000Y-11440000D02*
X12610000Y-11440000D01*
X11860000Y-9640000D02*
X11860000Y-11440000D01*
X12610000Y-9640000D02*
X11860000Y-9640000D01*
X12610000Y-5640000D02*
X12610000Y-3840000D01*
X11860000Y-5640000D02*
X12610000Y-5640000D01*
X11860000Y-3840000D02*
X11860000Y-5640000D01*
X12610000Y-3840000D02*
X11860000Y-3840000D01*
X12610000Y-8140000D02*
X12610000Y-7140000D01*
X11860000Y-8140000D02*
X12610000Y-8140000D01*
X11860000Y-7140000D02*
X11860000Y-8140000D01*
X12610000Y-7140000D02*
X11860000Y-7140000D01*
X12620000Y-11450000D02*
X12620000Y-3830000D01*
X6650000Y-11450000D02*
X12620000Y-11450000D01*
X6650000Y-3830000D02*
X6650000Y-11450000D01*
X12620000Y-3830000D02*
X6650000Y-3830000D01*
X12910000Y11740000D02*
X11660000Y11740000D01*
X12910000Y10490000D02*
X12910000Y11740000D01*
X7410000Y-410000D02*
X7410000Y5140000D01*
X10360000Y-410000D02*
X7410000Y-410000D01*
X10360000Y-1160000D02*
X10360000Y-410000D01*
X7410000Y10690000D02*
X7410000Y5140000D01*
X10360000Y10690000D02*
X7410000Y10690000D01*
X10360000Y11440000D02*
X10360000Y10690000D01*
X12610000Y-1160000D02*
X12610000Y640000D01*
X11860000Y-1160000D02*
X12610000Y-1160000D01*
X11860000Y640000D02*
X11860000Y-1160000D01*
X12610000Y640000D02*
X11860000Y640000D01*
X12610000Y9640000D02*
X12610000Y11440000D01*
X11860000Y9640000D02*
X12610000Y9640000D01*
X11860000Y11440000D02*
X11860000Y9640000D01*
X12610000Y11440000D02*
X11860000Y11440000D01*
X12610000Y2140000D02*
X12610000Y8140000D01*
X11860000Y2140000D02*
X12610000Y2140000D01*
X11860000Y8140000D02*
X11860000Y2140000D01*
X12610000Y8140000D02*
X11860000Y8140000D01*
X12620000Y-1170000D02*
X12620000Y11450000D01*
X6650000Y-1170000D02*
X12620000Y-1170000D01*
X6650000Y11450000D02*
X6650000Y-1170000D01*
X12620000Y11450000D02*
X6650000Y11450000D01*
X-16355000Y8140000D02*
X-13815000Y8140000D01*
X-16355000Y8140000D02*
X-16355000Y5600000D01*
X-16105000Y7890000D02*
X-6755000Y7890000D01*
X-16105000Y-7890000D02*
X-16105000Y7890000D01*
X-6755000Y-7890000D02*
X-16105000Y-7890000D01*
X-6755000Y7890000D02*
X-6755000Y-7890000D01*
%LPC*%
D12*
X10160000Y-8890000D03*
D13*
G36*
X10971828Y-5490476D02*
G01*
X10997546Y-5494291D01*
X11022767Y-5500608D01*
X11047248Y-5509367D01*
X11070751Y-5520484D01*
X11093052Y-5533851D01*
X11113936Y-5549339D01*
X11133201Y-5566799D01*
X11150661Y-5586064D01*
X11166149Y-5606948D01*
X11179516Y-5629249D01*
X11190633Y-5652752D01*
X11199392Y-5677233D01*
X11205709Y-5702454D01*
X11209524Y-5728172D01*
X11210800Y-5754141D01*
X11210800Y-7025859D01*
X11209524Y-7051828D01*
X11205709Y-7077546D01*
X11199392Y-7102767D01*
X11190633Y-7127248D01*
X11179516Y-7150751D01*
X11166149Y-7173052D01*
X11150661Y-7193936D01*
X11133201Y-7213201D01*
X11113936Y-7230661D01*
X11093052Y-7246149D01*
X11070751Y-7259516D01*
X11047248Y-7270633D01*
X11022767Y-7279392D01*
X10997546Y-7285709D01*
X10971828Y-7289524D01*
X10945859Y-7290800D01*
X9374141Y-7290800D01*
X9348172Y-7289524D01*
X9322454Y-7285709D01*
X9297233Y-7279392D01*
X9272752Y-7270633D01*
X9249249Y-7259516D01*
X9226948Y-7246149D01*
X9206064Y-7230661D01*
X9186799Y-7213201D01*
X9169339Y-7193936D01*
X9153851Y-7173052D01*
X9140484Y-7150751D01*
X9129367Y-7127248D01*
X9120608Y-7102767D01*
X9114291Y-7077546D01*
X9110476Y-7051828D01*
X9109200Y-7025859D01*
X9109200Y-5754141D01*
X9110476Y-5728172D01*
X9114291Y-5702454D01*
X9120608Y-5677233D01*
X9129367Y-5652752D01*
X9140484Y-5629249D01*
X9153851Y-5606948D01*
X9169339Y-5586064D01*
X9186799Y-5566799D01*
X9206064Y-5549339D01*
X9226948Y-5533851D01*
X9249249Y-5520484D01*
X9272752Y-5509367D01*
X9297233Y-5500608D01*
X9322454Y-5494291D01*
X9348172Y-5490476D01*
X9374141Y-5489200D01*
X10945859Y-5489200D01*
X10971828Y-5490476D01*
X10971828Y-5490476D01*
G37*
D14*
X10160000Y-6390000D03*
D15*
X10160000Y1390000D03*
X10160000Y3890000D03*
X10160000Y6390000D03*
D13*
G36*
X10946828Y9789524D02*
G01*
X10972546Y9785709D01*
X10997767Y9779392D01*
X11022248Y9770633D01*
X11045751Y9759516D01*
X11068052Y9746149D01*
X11088936Y9730661D01*
X11108201Y9713201D01*
X11125661Y9693936D01*
X11141149Y9673052D01*
X11154516Y9650751D01*
X11165633Y9627248D01*
X11174392Y9602767D01*
X11180709Y9577546D01*
X11184524Y9551828D01*
X11185800Y9525859D01*
X11185800Y8254141D01*
X11184524Y8228172D01*
X11180709Y8202454D01*
X11174392Y8177233D01*
X11165633Y8152752D01*
X11154516Y8129249D01*
X11141149Y8106948D01*
X11125661Y8086064D01*
X11108201Y8066799D01*
X11088936Y8049339D01*
X11068052Y8033851D01*
X11045751Y8020484D01*
X11022248Y8009367D01*
X10997767Y8000608D01*
X10972546Y7994291D01*
X10946828Y7990476D01*
X10920859Y7989200D01*
X9399141Y7989200D01*
X9373172Y7990476D01*
X9347454Y7994291D01*
X9322233Y8000608D01*
X9297752Y8009367D01*
X9274249Y8020484D01*
X9251948Y8033851D01*
X9231064Y8049339D01*
X9211799Y8066799D01*
X9194339Y8086064D01*
X9178851Y8106948D01*
X9165484Y8129249D01*
X9154367Y8152752D01*
X9145608Y8177233D01*
X9139291Y8202454D01*
X9135476Y8228172D01*
X9134200Y8254141D01*
X9134200Y9525859D01*
X9135476Y9551828D01*
X9139291Y9577546D01*
X9145608Y9602767D01*
X9154367Y9627248D01*
X9165484Y9650751D01*
X9178851Y9673052D01*
X9194339Y9693936D01*
X9211799Y9713201D01*
X9231064Y9730661D01*
X9251948Y9746149D01*
X9274249Y9759516D01*
X9297752Y9770633D01*
X9322233Y9779392D01*
X9347454Y9785709D01*
X9373172Y9789524D01*
X9399141Y9790800D01*
X10920859Y9790800D01*
X10946828Y9789524D01*
X10946828Y9789524D01*
G37*
D14*
X10160000Y8890000D03*
D16*
X-10160000Y-2540000D03*
X-12700000Y-2540000D03*
X-10160000Y0D03*
X-12700000Y0D03*
X-10160000Y2540000D03*
D17*
X-12700000Y2540000D03*
D18*
X0Y10000000D03*
X0Y-10000000D03*
M02*
