G04 #@! TF.GenerationSoftware,KiCad,Pcbnew,(5.1.4)-1*
G04 #@! TF.CreationDate,2020-03-27T16:00:44-04:00*
G04 #@! TF.ProjectId,extruder_breakout,65787472-7564-4657-925f-627265616b6f,rev?*
G04 #@! TF.SameCoordinates,PX8f0d180PY5f5e100*
G04 #@! TF.FileFunction,Copper,L1,Top*
G04 #@! TF.FilePolarity,Positive*
%FSLAX46Y46*%
G04 Gerber Fmt 4.6, Leading zero omitted, Abs format (unit mm)*
G04 Created by KiCad (PCBNEW (5.1.4)-1) date 2020-03-27 16:00:44*
%MOMM*%
%LPD*%
G04 APERTURE LIST*
%ADD10C,6.400000*%
%ADD11C,4.000000*%
%ADD12R,3.800000X3.800000*%
%ADD13C,0.100000*%
%ADD14C,0.950000*%
%ADD15O,2.000000X1.700000*%
%ADD16C,1.700000*%
%ADD17O,1.700000X1.950000*%
%ADD18C,2.100000*%
%ADD19R,2.100000X2.100000*%
%ADD20O,1.727200X1.727200*%
%ADD21R,1.727200X1.727200*%
%ADD22C,0.800000*%
%ADD23C,0.508000*%
%ADD24C,0.762000*%
%ADD25C,0.152400*%
G04 APERTURE END LIST*
D10*
X9000000Y44500000D03*
X-9000000Y44500000D03*
D11*
X-10715000Y17780000D03*
D12*
X-5715000Y17780000D03*
D13*
G36*
X-4529221Y2378856D02*
G01*
X-4506166Y2375437D01*
X-4483557Y2369773D01*
X-4461613Y2361921D01*
X-4440543Y2351956D01*
X-4420552Y2339974D01*
X-4401832Y2326090D01*
X-4384562Y2310438D01*
X-4368910Y2293168D01*
X-4355026Y2274448D01*
X-4343044Y2254457D01*
X-4333079Y2233387D01*
X-4325227Y2211443D01*
X-4319563Y2188834D01*
X-4316144Y2165779D01*
X-4315000Y2142500D01*
X-4315000Y1667500D01*
X-4316144Y1644221D01*
X-4319563Y1621166D01*
X-4325227Y1598557D01*
X-4333079Y1576613D01*
X-4343044Y1555543D01*
X-4355026Y1535552D01*
X-4368910Y1516832D01*
X-4384562Y1499562D01*
X-4401832Y1483910D01*
X-4420552Y1470026D01*
X-4440543Y1458044D01*
X-4461613Y1448079D01*
X-4483557Y1440227D01*
X-4506166Y1434563D01*
X-4529221Y1431144D01*
X-4552500Y1430000D01*
X-5127500Y1430000D01*
X-5150779Y1431144D01*
X-5173834Y1434563D01*
X-5196443Y1440227D01*
X-5218387Y1448079D01*
X-5239457Y1458044D01*
X-5259448Y1470026D01*
X-5278168Y1483910D01*
X-5295438Y1499562D01*
X-5311090Y1516832D01*
X-5324974Y1535552D01*
X-5336956Y1555543D01*
X-5346921Y1576613D01*
X-5354773Y1598557D01*
X-5360437Y1621166D01*
X-5363856Y1644221D01*
X-5365000Y1667500D01*
X-5365000Y2142500D01*
X-5363856Y2165779D01*
X-5360437Y2188834D01*
X-5354773Y2211443D01*
X-5346921Y2233387D01*
X-5336956Y2254457D01*
X-5324974Y2274448D01*
X-5311090Y2293168D01*
X-5295438Y2310438D01*
X-5278168Y2326090D01*
X-5259448Y2339974D01*
X-5239457Y2351956D01*
X-5218387Y2361921D01*
X-5196443Y2369773D01*
X-5173834Y2375437D01*
X-5150779Y2378856D01*
X-5127500Y2380000D01*
X-4552500Y2380000D01*
X-4529221Y2378856D01*
X-4529221Y2378856D01*
G37*
D14*
X-4840000Y1905000D03*
D13*
G36*
X-6279221Y2378856D02*
G01*
X-6256166Y2375437D01*
X-6233557Y2369773D01*
X-6211613Y2361921D01*
X-6190543Y2351956D01*
X-6170552Y2339974D01*
X-6151832Y2326090D01*
X-6134562Y2310438D01*
X-6118910Y2293168D01*
X-6105026Y2274448D01*
X-6093044Y2254457D01*
X-6083079Y2233387D01*
X-6075227Y2211443D01*
X-6069563Y2188834D01*
X-6066144Y2165779D01*
X-6065000Y2142500D01*
X-6065000Y1667500D01*
X-6066144Y1644221D01*
X-6069563Y1621166D01*
X-6075227Y1598557D01*
X-6083079Y1576613D01*
X-6093044Y1555543D01*
X-6105026Y1535552D01*
X-6118910Y1516832D01*
X-6134562Y1499562D01*
X-6151832Y1483910D01*
X-6170552Y1470026D01*
X-6190543Y1458044D01*
X-6211613Y1448079D01*
X-6233557Y1440227D01*
X-6256166Y1434563D01*
X-6279221Y1431144D01*
X-6302500Y1430000D01*
X-6877500Y1430000D01*
X-6900779Y1431144D01*
X-6923834Y1434563D01*
X-6946443Y1440227D01*
X-6968387Y1448079D01*
X-6989457Y1458044D01*
X-7009448Y1470026D01*
X-7028168Y1483910D01*
X-7045438Y1499562D01*
X-7061090Y1516832D01*
X-7074974Y1535552D01*
X-7086956Y1555543D01*
X-7096921Y1576613D01*
X-7104773Y1598557D01*
X-7110437Y1621166D01*
X-7113856Y1644221D01*
X-7115000Y1667500D01*
X-7115000Y2142500D01*
X-7113856Y2165779D01*
X-7110437Y2188834D01*
X-7104773Y2211443D01*
X-7096921Y2233387D01*
X-7086956Y2254457D01*
X-7074974Y2274448D01*
X-7061090Y2293168D01*
X-7045438Y2310438D01*
X-7028168Y2326090D01*
X-7009448Y2339974D01*
X-6989457Y2351956D01*
X-6968387Y2361921D01*
X-6946443Y2369773D01*
X-6923834Y2375437D01*
X-6900779Y2378856D01*
X-6877500Y2380000D01*
X-6302500Y2380000D01*
X-6279221Y2378856D01*
X-6279221Y2378856D01*
G37*
D14*
X-6590000Y1905000D03*
D13*
G36*
X6900779Y2378856D02*
G01*
X6923834Y2375437D01*
X6946443Y2369773D01*
X6968387Y2361921D01*
X6989457Y2351956D01*
X7009448Y2339974D01*
X7028168Y2326090D01*
X7045438Y2310438D01*
X7061090Y2293168D01*
X7074974Y2274448D01*
X7086956Y2254457D01*
X7096921Y2233387D01*
X7104773Y2211443D01*
X7110437Y2188834D01*
X7113856Y2165779D01*
X7115000Y2142500D01*
X7115000Y1667500D01*
X7113856Y1644221D01*
X7110437Y1621166D01*
X7104773Y1598557D01*
X7096921Y1576613D01*
X7086956Y1555543D01*
X7074974Y1535552D01*
X7061090Y1516832D01*
X7045438Y1499562D01*
X7028168Y1483910D01*
X7009448Y1470026D01*
X6989457Y1458044D01*
X6968387Y1448079D01*
X6946443Y1440227D01*
X6923834Y1434563D01*
X6900779Y1431144D01*
X6877500Y1430000D01*
X6302500Y1430000D01*
X6279221Y1431144D01*
X6256166Y1434563D01*
X6233557Y1440227D01*
X6211613Y1448079D01*
X6190543Y1458044D01*
X6170552Y1470026D01*
X6151832Y1483910D01*
X6134562Y1499562D01*
X6118910Y1516832D01*
X6105026Y1535552D01*
X6093044Y1555543D01*
X6083079Y1576613D01*
X6075227Y1598557D01*
X6069563Y1621166D01*
X6066144Y1644221D01*
X6065000Y1667500D01*
X6065000Y2142500D01*
X6066144Y2165779D01*
X6069563Y2188834D01*
X6075227Y2211443D01*
X6083079Y2233387D01*
X6093044Y2254457D01*
X6105026Y2274448D01*
X6118910Y2293168D01*
X6134562Y2310438D01*
X6151832Y2326090D01*
X6170552Y2339974D01*
X6190543Y2351956D01*
X6211613Y2361921D01*
X6233557Y2369773D01*
X6256166Y2375437D01*
X6279221Y2378856D01*
X6302500Y2380000D01*
X6877500Y2380000D01*
X6900779Y2378856D01*
X6900779Y2378856D01*
G37*
D14*
X6590000Y1905000D03*
D13*
G36*
X5150779Y2378856D02*
G01*
X5173834Y2375437D01*
X5196443Y2369773D01*
X5218387Y2361921D01*
X5239457Y2351956D01*
X5259448Y2339974D01*
X5278168Y2326090D01*
X5295438Y2310438D01*
X5311090Y2293168D01*
X5324974Y2274448D01*
X5336956Y2254457D01*
X5346921Y2233387D01*
X5354773Y2211443D01*
X5360437Y2188834D01*
X5363856Y2165779D01*
X5365000Y2142500D01*
X5365000Y1667500D01*
X5363856Y1644221D01*
X5360437Y1621166D01*
X5354773Y1598557D01*
X5346921Y1576613D01*
X5336956Y1555543D01*
X5324974Y1535552D01*
X5311090Y1516832D01*
X5295438Y1499562D01*
X5278168Y1483910D01*
X5259448Y1470026D01*
X5239457Y1458044D01*
X5218387Y1448079D01*
X5196443Y1440227D01*
X5173834Y1434563D01*
X5150779Y1431144D01*
X5127500Y1430000D01*
X4552500Y1430000D01*
X4529221Y1431144D01*
X4506166Y1434563D01*
X4483557Y1440227D01*
X4461613Y1448079D01*
X4440543Y1458044D01*
X4420552Y1470026D01*
X4401832Y1483910D01*
X4384562Y1499562D01*
X4368910Y1516832D01*
X4355026Y1535552D01*
X4343044Y1555543D01*
X4333079Y1576613D01*
X4325227Y1598557D01*
X4319563Y1621166D01*
X4316144Y1644221D01*
X4315000Y1667500D01*
X4315000Y2142500D01*
X4316144Y2165779D01*
X4319563Y2188834D01*
X4325227Y2211443D01*
X4333079Y2233387D01*
X4343044Y2254457D01*
X4355026Y2274448D01*
X4368910Y2293168D01*
X4384562Y2310438D01*
X4401832Y2326090D01*
X4420552Y2339974D01*
X4440543Y2351956D01*
X4461613Y2361921D01*
X4483557Y2369773D01*
X4506166Y2375437D01*
X4529221Y2378856D01*
X4552500Y2380000D01*
X5127500Y2380000D01*
X5150779Y2378856D01*
X5150779Y2378856D01*
G37*
D14*
X4840000Y1905000D03*
D13*
G36*
X1185779Y2378856D02*
G01*
X1208834Y2375437D01*
X1231443Y2369773D01*
X1253387Y2361921D01*
X1274457Y2351956D01*
X1294448Y2339974D01*
X1313168Y2326090D01*
X1330438Y2310438D01*
X1346090Y2293168D01*
X1359974Y2274448D01*
X1371956Y2254457D01*
X1381921Y2233387D01*
X1389773Y2211443D01*
X1395437Y2188834D01*
X1398856Y2165779D01*
X1400000Y2142500D01*
X1400000Y1667500D01*
X1398856Y1644221D01*
X1395437Y1621166D01*
X1389773Y1598557D01*
X1381921Y1576613D01*
X1371956Y1555543D01*
X1359974Y1535552D01*
X1346090Y1516832D01*
X1330438Y1499562D01*
X1313168Y1483910D01*
X1294448Y1470026D01*
X1274457Y1458044D01*
X1253387Y1448079D01*
X1231443Y1440227D01*
X1208834Y1434563D01*
X1185779Y1431144D01*
X1162500Y1430000D01*
X587500Y1430000D01*
X564221Y1431144D01*
X541166Y1434563D01*
X518557Y1440227D01*
X496613Y1448079D01*
X475543Y1458044D01*
X455552Y1470026D01*
X436832Y1483910D01*
X419562Y1499562D01*
X403910Y1516832D01*
X390026Y1535552D01*
X378044Y1555543D01*
X368079Y1576613D01*
X360227Y1598557D01*
X354563Y1621166D01*
X351144Y1644221D01*
X350000Y1667500D01*
X350000Y2142500D01*
X351144Y2165779D01*
X354563Y2188834D01*
X360227Y2211443D01*
X368079Y2233387D01*
X378044Y2254457D01*
X390026Y2274448D01*
X403910Y2293168D01*
X419562Y2310438D01*
X436832Y2326090D01*
X455552Y2339974D01*
X475543Y2351956D01*
X496613Y2361921D01*
X518557Y2369773D01*
X541166Y2375437D01*
X564221Y2378856D01*
X587500Y2380000D01*
X1162500Y2380000D01*
X1185779Y2378856D01*
X1185779Y2378856D01*
G37*
D14*
X875000Y1905000D03*
D13*
G36*
X-564221Y2378856D02*
G01*
X-541166Y2375437D01*
X-518557Y2369773D01*
X-496613Y2361921D01*
X-475543Y2351956D01*
X-455552Y2339974D01*
X-436832Y2326090D01*
X-419562Y2310438D01*
X-403910Y2293168D01*
X-390026Y2274448D01*
X-378044Y2254457D01*
X-368079Y2233387D01*
X-360227Y2211443D01*
X-354563Y2188834D01*
X-351144Y2165779D01*
X-350000Y2142500D01*
X-350000Y1667500D01*
X-351144Y1644221D01*
X-354563Y1621166D01*
X-360227Y1598557D01*
X-368079Y1576613D01*
X-378044Y1555543D01*
X-390026Y1535552D01*
X-403910Y1516832D01*
X-419562Y1499562D01*
X-436832Y1483910D01*
X-455552Y1470026D01*
X-475543Y1458044D01*
X-496613Y1448079D01*
X-518557Y1440227D01*
X-541166Y1434563D01*
X-564221Y1431144D01*
X-587500Y1430000D01*
X-1162500Y1430000D01*
X-1185779Y1431144D01*
X-1208834Y1434563D01*
X-1231443Y1440227D01*
X-1253387Y1448079D01*
X-1274457Y1458044D01*
X-1294448Y1470026D01*
X-1313168Y1483910D01*
X-1330438Y1499562D01*
X-1346090Y1516832D01*
X-1359974Y1535552D01*
X-1371956Y1555543D01*
X-1381921Y1576613D01*
X-1389773Y1598557D01*
X-1395437Y1621166D01*
X-1398856Y1644221D01*
X-1400000Y1667500D01*
X-1400000Y2142500D01*
X-1398856Y2165779D01*
X-1395437Y2188834D01*
X-1389773Y2211443D01*
X-1381921Y2233387D01*
X-1371956Y2254457D01*
X-1359974Y2274448D01*
X-1346090Y2293168D01*
X-1330438Y2310438D01*
X-1313168Y2326090D01*
X-1294448Y2339974D01*
X-1274457Y2351956D01*
X-1253387Y2361921D01*
X-1231443Y2369773D01*
X-1208834Y2375437D01*
X-1185779Y2378856D01*
X-1162500Y2380000D01*
X-587500Y2380000D01*
X-564221Y2378856D01*
X-564221Y2378856D01*
G37*
D14*
X-875000Y1905000D03*
D15*
X3175000Y10755000D03*
D13*
G36*
X3949504Y9103796D02*
G01*
X3973773Y9100196D01*
X3997571Y9094235D01*
X4020671Y9085970D01*
X4042849Y9075480D01*
X4063893Y9062867D01*
X4083598Y9048253D01*
X4101777Y9031777D01*
X4118253Y9013598D01*
X4132867Y8993893D01*
X4145480Y8972849D01*
X4155970Y8950671D01*
X4164235Y8927571D01*
X4170196Y8903773D01*
X4173796Y8879504D01*
X4175000Y8855000D01*
X4175000Y7655000D01*
X4173796Y7630496D01*
X4170196Y7606227D01*
X4164235Y7582429D01*
X4155970Y7559329D01*
X4145480Y7537151D01*
X4132867Y7516107D01*
X4118253Y7496402D01*
X4101777Y7478223D01*
X4083598Y7461747D01*
X4063893Y7447133D01*
X4042849Y7434520D01*
X4020671Y7424030D01*
X3997571Y7415765D01*
X3973773Y7409804D01*
X3949504Y7406204D01*
X3925000Y7405000D01*
X2425000Y7405000D01*
X2400496Y7406204D01*
X2376227Y7409804D01*
X2352429Y7415765D01*
X2329329Y7424030D01*
X2307151Y7434520D01*
X2286107Y7447133D01*
X2266402Y7461747D01*
X2248223Y7478223D01*
X2231747Y7496402D01*
X2217133Y7516107D01*
X2204520Y7537151D01*
X2194030Y7559329D01*
X2185765Y7582429D01*
X2179804Y7606227D01*
X2176204Y7630496D01*
X2175000Y7655000D01*
X2175000Y8855000D01*
X2176204Y8879504D01*
X2179804Y8903773D01*
X2185765Y8927571D01*
X2194030Y8950671D01*
X2204520Y8972849D01*
X2217133Y8993893D01*
X2231747Y9013598D01*
X2248223Y9031777D01*
X2266402Y9048253D01*
X2286107Y9062867D01*
X2307151Y9075480D01*
X2329329Y9085970D01*
X2352429Y9094235D01*
X2376227Y9100196D01*
X2400496Y9103796D01*
X2425000Y9105000D01*
X3925000Y9105000D01*
X3949504Y9103796D01*
X3949504Y9103796D01*
G37*
D16*
X3175000Y8255000D03*
D15*
X10160000Y10755000D03*
D13*
G36*
X10934504Y9103796D02*
G01*
X10958773Y9100196D01*
X10982571Y9094235D01*
X11005671Y9085970D01*
X11027849Y9075480D01*
X11048893Y9062867D01*
X11068598Y9048253D01*
X11086777Y9031777D01*
X11103253Y9013598D01*
X11117867Y8993893D01*
X11130480Y8972849D01*
X11140970Y8950671D01*
X11149235Y8927571D01*
X11155196Y8903773D01*
X11158796Y8879504D01*
X11160000Y8855000D01*
X11160000Y7655000D01*
X11158796Y7630496D01*
X11155196Y7606227D01*
X11149235Y7582429D01*
X11140970Y7559329D01*
X11130480Y7537151D01*
X11117867Y7516107D01*
X11103253Y7496402D01*
X11086777Y7478223D01*
X11068598Y7461747D01*
X11048893Y7447133D01*
X11027849Y7434520D01*
X11005671Y7424030D01*
X10982571Y7415765D01*
X10958773Y7409804D01*
X10934504Y7406204D01*
X10910000Y7405000D01*
X9410000Y7405000D01*
X9385496Y7406204D01*
X9361227Y7409804D01*
X9337429Y7415765D01*
X9314329Y7424030D01*
X9292151Y7434520D01*
X9271107Y7447133D01*
X9251402Y7461747D01*
X9233223Y7478223D01*
X9216747Y7496402D01*
X9202133Y7516107D01*
X9189520Y7537151D01*
X9179030Y7559329D01*
X9170765Y7582429D01*
X9164804Y7606227D01*
X9161204Y7630496D01*
X9160000Y7655000D01*
X9160000Y8855000D01*
X9161204Y8879504D01*
X9164804Y8903773D01*
X9170765Y8927571D01*
X9179030Y8950671D01*
X9189520Y8972849D01*
X9202133Y8993893D01*
X9216747Y9013598D01*
X9233223Y9031777D01*
X9251402Y9048253D01*
X9271107Y9062867D01*
X9292151Y9075480D01*
X9314329Y9085970D01*
X9337429Y9094235D01*
X9361227Y9100196D01*
X9385496Y9103796D01*
X9410000Y9105000D01*
X10910000Y9105000D01*
X10934504Y9103796D01*
X10934504Y9103796D01*
G37*
D16*
X10160000Y8255000D03*
D15*
X-3810000Y10755000D03*
D13*
G36*
X-3035496Y9103796D02*
G01*
X-3011227Y9100196D01*
X-2987429Y9094235D01*
X-2964329Y9085970D01*
X-2942151Y9075480D01*
X-2921107Y9062867D01*
X-2901402Y9048253D01*
X-2883223Y9031777D01*
X-2866747Y9013598D01*
X-2852133Y8993893D01*
X-2839520Y8972849D01*
X-2829030Y8950671D01*
X-2820765Y8927571D01*
X-2814804Y8903773D01*
X-2811204Y8879504D01*
X-2810000Y8855000D01*
X-2810000Y7655000D01*
X-2811204Y7630496D01*
X-2814804Y7606227D01*
X-2820765Y7582429D01*
X-2829030Y7559329D01*
X-2839520Y7537151D01*
X-2852133Y7516107D01*
X-2866747Y7496402D01*
X-2883223Y7478223D01*
X-2901402Y7461747D01*
X-2921107Y7447133D01*
X-2942151Y7434520D01*
X-2964329Y7424030D01*
X-2987429Y7415765D01*
X-3011227Y7409804D01*
X-3035496Y7406204D01*
X-3060000Y7405000D01*
X-4560000Y7405000D01*
X-4584504Y7406204D01*
X-4608773Y7409804D01*
X-4632571Y7415765D01*
X-4655671Y7424030D01*
X-4677849Y7434520D01*
X-4698893Y7447133D01*
X-4718598Y7461747D01*
X-4736777Y7478223D01*
X-4753253Y7496402D01*
X-4767867Y7516107D01*
X-4780480Y7537151D01*
X-4790970Y7559329D01*
X-4799235Y7582429D01*
X-4805196Y7606227D01*
X-4808796Y7630496D01*
X-4810000Y7655000D01*
X-4810000Y8855000D01*
X-4808796Y8879504D01*
X-4805196Y8903773D01*
X-4799235Y8927571D01*
X-4790970Y8950671D01*
X-4780480Y8972849D01*
X-4767867Y8993893D01*
X-4753253Y9013598D01*
X-4736777Y9031777D01*
X-4718598Y9048253D01*
X-4698893Y9062867D01*
X-4677849Y9075480D01*
X-4655671Y9085970D01*
X-4632571Y9094235D01*
X-4608773Y9100196D01*
X-4584504Y9103796D01*
X-4560000Y9105000D01*
X-3060000Y9105000D01*
X-3035496Y9103796D01*
X-3035496Y9103796D01*
G37*
D16*
X-3810000Y8255000D03*
D17*
X3295000Y17145000D03*
X5795000Y17145000D03*
X8295000Y17145000D03*
D13*
G36*
X11419504Y18118796D02*
G01*
X11443773Y18115196D01*
X11467571Y18109235D01*
X11490671Y18100970D01*
X11512849Y18090480D01*
X11533893Y18077867D01*
X11553598Y18063253D01*
X11571777Y18046777D01*
X11588253Y18028598D01*
X11602867Y18008893D01*
X11615480Y17987849D01*
X11625970Y17965671D01*
X11634235Y17942571D01*
X11640196Y17918773D01*
X11643796Y17894504D01*
X11645000Y17870000D01*
X11645000Y16420000D01*
X11643796Y16395496D01*
X11640196Y16371227D01*
X11634235Y16347429D01*
X11625970Y16324329D01*
X11615480Y16302151D01*
X11602867Y16281107D01*
X11588253Y16261402D01*
X11571777Y16243223D01*
X11553598Y16226747D01*
X11533893Y16212133D01*
X11512849Y16199520D01*
X11490671Y16189030D01*
X11467571Y16180765D01*
X11443773Y16174804D01*
X11419504Y16171204D01*
X11395000Y16170000D01*
X10195000Y16170000D01*
X10170496Y16171204D01*
X10146227Y16174804D01*
X10122429Y16180765D01*
X10099329Y16189030D01*
X10077151Y16199520D01*
X10056107Y16212133D01*
X10036402Y16226747D01*
X10018223Y16243223D01*
X10001747Y16261402D01*
X9987133Y16281107D01*
X9974520Y16302151D01*
X9964030Y16324329D01*
X9955765Y16347429D01*
X9949804Y16371227D01*
X9946204Y16395496D01*
X9945000Y16420000D01*
X9945000Y17870000D01*
X9946204Y17894504D01*
X9949804Y17918773D01*
X9955765Y17942571D01*
X9964030Y17965671D01*
X9974520Y17987849D01*
X9987133Y18008893D01*
X10001747Y18028598D01*
X10018223Y18046777D01*
X10036402Y18063253D01*
X10056107Y18077867D01*
X10077151Y18090480D01*
X10099329Y18100970D01*
X10122429Y18109235D01*
X10146227Y18115196D01*
X10170496Y18118796D01*
X10195000Y18120000D01*
X11395000Y18120000D01*
X11419504Y18118796D01*
X11419504Y18118796D01*
G37*
D16*
X10795000Y17145000D03*
D18*
X-10795000Y8255000D03*
D19*
X-10795000Y10795000D03*
D20*
X-8890000Y29080000D03*
X-8890000Y31620000D03*
X-6350000Y29080000D03*
X-6350000Y31620000D03*
X-3810000Y29080000D03*
X-3810000Y31620000D03*
X-1270000Y29080000D03*
X-1270000Y31620000D03*
X1270000Y29080000D03*
X1270000Y31620000D03*
X3810000Y29080000D03*
X3810000Y31620000D03*
X6350000Y29080000D03*
X6350000Y31620000D03*
X8890000Y29080000D03*
D21*
X8890000Y31620000D03*
D13*
G36*
X-6279221Y4283856D02*
G01*
X-6256166Y4280437D01*
X-6233557Y4274773D01*
X-6211613Y4266921D01*
X-6190543Y4256956D01*
X-6170552Y4244974D01*
X-6151832Y4231090D01*
X-6134562Y4215438D01*
X-6118910Y4198168D01*
X-6105026Y4179448D01*
X-6093044Y4159457D01*
X-6083079Y4138387D01*
X-6075227Y4116443D01*
X-6069563Y4093834D01*
X-6066144Y4070779D01*
X-6065000Y4047500D01*
X-6065000Y3572500D01*
X-6066144Y3549221D01*
X-6069563Y3526166D01*
X-6075227Y3503557D01*
X-6083079Y3481613D01*
X-6093044Y3460543D01*
X-6105026Y3440552D01*
X-6118910Y3421832D01*
X-6134562Y3404562D01*
X-6151832Y3388910D01*
X-6170552Y3375026D01*
X-6190543Y3363044D01*
X-6211613Y3353079D01*
X-6233557Y3345227D01*
X-6256166Y3339563D01*
X-6279221Y3336144D01*
X-6302500Y3335000D01*
X-6877500Y3335000D01*
X-6900779Y3336144D01*
X-6923834Y3339563D01*
X-6946443Y3345227D01*
X-6968387Y3353079D01*
X-6989457Y3363044D01*
X-7009448Y3375026D01*
X-7028168Y3388910D01*
X-7045438Y3404562D01*
X-7061090Y3421832D01*
X-7074974Y3440552D01*
X-7086956Y3460543D01*
X-7096921Y3481613D01*
X-7104773Y3503557D01*
X-7110437Y3526166D01*
X-7113856Y3549221D01*
X-7115000Y3572500D01*
X-7115000Y4047500D01*
X-7113856Y4070779D01*
X-7110437Y4093834D01*
X-7104773Y4116443D01*
X-7096921Y4138387D01*
X-7086956Y4159457D01*
X-7074974Y4179448D01*
X-7061090Y4198168D01*
X-7045438Y4215438D01*
X-7028168Y4231090D01*
X-7009448Y4244974D01*
X-6989457Y4256956D01*
X-6968387Y4266921D01*
X-6946443Y4274773D01*
X-6923834Y4280437D01*
X-6900779Y4283856D01*
X-6877500Y4285000D01*
X-6302500Y4285000D01*
X-6279221Y4283856D01*
X-6279221Y4283856D01*
G37*
D14*
X-6590000Y3810000D03*
D13*
G36*
X-4529221Y4283856D02*
G01*
X-4506166Y4280437D01*
X-4483557Y4274773D01*
X-4461613Y4266921D01*
X-4440543Y4256956D01*
X-4420552Y4244974D01*
X-4401832Y4231090D01*
X-4384562Y4215438D01*
X-4368910Y4198168D01*
X-4355026Y4179448D01*
X-4343044Y4159457D01*
X-4333079Y4138387D01*
X-4325227Y4116443D01*
X-4319563Y4093834D01*
X-4316144Y4070779D01*
X-4315000Y4047500D01*
X-4315000Y3572500D01*
X-4316144Y3549221D01*
X-4319563Y3526166D01*
X-4325227Y3503557D01*
X-4333079Y3481613D01*
X-4343044Y3460543D01*
X-4355026Y3440552D01*
X-4368910Y3421832D01*
X-4384562Y3404562D01*
X-4401832Y3388910D01*
X-4420552Y3375026D01*
X-4440543Y3363044D01*
X-4461613Y3353079D01*
X-4483557Y3345227D01*
X-4506166Y3339563D01*
X-4529221Y3336144D01*
X-4552500Y3335000D01*
X-5127500Y3335000D01*
X-5150779Y3336144D01*
X-5173834Y3339563D01*
X-5196443Y3345227D01*
X-5218387Y3353079D01*
X-5239457Y3363044D01*
X-5259448Y3375026D01*
X-5278168Y3388910D01*
X-5295438Y3404562D01*
X-5311090Y3421832D01*
X-5324974Y3440552D01*
X-5336956Y3460543D01*
X-5346921Y3481613D01*
X-5354773Y3503557D01*
X-5360437Y3526166D01*
X-5363856Y3549221D01*
X-5365000Y3572500D01*
X-5365000Y4047500D01*
X-5363856Y4070779D01*
X-5360437Y4093834D01*
X-5354773Y4116443D01*
X-5346921Y4138387D01*
X-5336956Y4159457D01*
X-5324974Y4179448D01*
X-5311090Y4198168D01*
X-5295438Y4215438D01*
X-5278168Y4231090D01*
X-5259448Y4244974D01*
X-5239457Y4256956D01*
X-5218387Y4266921D01*
X-5196443Y4274773D01*
X-5173834Y4280437D01*
X-5150779Y4283856D01*
X-5127500Y4285000D01*
X-4552500Y4285000D01*
X-4529221Y4283856D01*
X-4529221Y4283856D01*
G37*
D14*
X-4840000Y3810000D03*
D13*
G36*
X5150779Y4283856D02*
G01*
X5173834Y4280437D01*
X5196443Y4274773D01*
X5218387Y4266921D01*
X5239457Y4256956D01*
X5259448Y4244974D01*
X5278168Y4231090D01*
X5295438Y4215438D01*
X5311090Y4198168D01*
X5324974Y4179448D01*
X5336956Y4159457D01*
X5346921Y4138387D01*
X5354773Y4116443D01*
X5360437Y4093834D01*
X5363856Y4070779D01*
X5365000Y4047500D01*
X5365000Y3572500D01*
X5363856Y3549221D01*
X5360437Y3526166D01*
X5354773Y3503557D01*
X5346921Y3481613D01*
X5336956Y3460543D01*
X5324974Y3440552D01*
X5311090Y3421832D01*
X5295438Y3404562D01*
X5278168Y3388910D01*
X5259448Y3375026D01*
X5239457Y3363044D01*
X5218387Y3353079D01*
X5196443Y3345227D01*
X5173834Y3339563D01*
X5150779Y3336144D01*
X5127500Y3335000D01*
X4552500Y3335000D01*
X4529221Y3336144D01*
X4506166Y3339563D01*
X4483557Y3345227D01*
X4461613Y3353079D01*
X4440543Y3363044D01*
X4420552Y3375026D01*
X4401832Y3388910D01*
X4384562Y3404562D01*
X4368910Y3421832D01*
X4355026Y3440552D01*
X4343044Y3460543D01*
X4333079Y3481613D01*
X4325227Y3503557D01*
X4319563Y3526166D01*
X4316144Y3549221D01*
X4315000Y3572500D01*
X4315000Y4047500D01*
X4316144Y4070779D01*
X4319563Y4093834D01*
X4325227Y4116443D01*
X4333079Y4138387D01*
X4343044Y4159457D01*
X4355026Y4179448D01*
X4368910Y4198168D01*
X4384562Y4215438D01*
X4401832Y4231090D01*
X4420552Y4244974D01*
X4440543Y4256956D01*
X4461613Y4266921D01*
X4483557Y4274773D01*
X4506166Y4280437D01*
X4529221Y4283856D01*
X4552500Y4285000D01*
X5127500Y4285000D01*
X5150779Y4283856D01*
X5150779Y4283856D01*
G37*
D14*
X4840000Y3810000D03*
D13*
G36*
X6900779Y4283856D02*
G01*
X6923834Y4280437D01*
X6946443Y4274773D01*
X6968387Y4266921D01*
X6989457Y4256956D01*
X7009448Y4244974D01*
X7028168Y4231090D01*
X7045438Y4215438D01*
X7061090Y4198168D01*
X7074974Y4179448D01*
X7086956Y4159457D01*
X7096921Y4138387D01*
X7104773Y4116443D01*
X7110437Y4093834D01*
X7113856Y4070779D01*
X7115000Y4047500D01*
X7115000Y3572500D01*
X7113856Y3549221D01*
X7110437Y3526166D01*
X7104773Y3503557D01*
X7096921Y3481613D01*
X7086956Y3460543D01*
X7074974Y3440552D01*
X7061090Y3421832D01*
X7045438Y3404562D01*
X7028168Y3388910D01*
X7009448Y3375026D01*
X6989457Y3363044D01*
X6968387Y3353079D01*
X6946443Y3345227D01*
X6923834Y3339563D01*
X6900779Y3336144D01*
X6877500Y3335000D01*
X6302500Y3335000D01*
X6279221Y3336144D01*
X6256166Y3339563D01*
X6233557Y3345227D01*
X6211613Y3353079D01*
X6190543Y3363044D01*
X6170552Y3375026D01*
X6151832Y3388910D01*
X6134562Y3404562D01*
X6118910Y3421832D01*
X6105026Y3440552D01*
X6093044Y3460543D01*
X6083079Y3481613D01*
X6075227Y3503557D01*
X6069563Y3526166D01*
X6066144Y3549221D01*
X6065000Y3572500D01*
X6065000Y4047500D01*
X6066144Y4070779D01*
X6069563Y4093834D01*
X6075227Y4116443D01*
X6083079Y4138387D01*
X6093044Y4159457D01*
X6105026Y4179448D01*
X6118910Y4198168D01*
X6134562Y4215438D01*
X6151832Y4231090D01*
X6170552Y4244974D01*
X6190543Y4256956D01*
X6211613Y4266921D01*
X6233557Y4274773D01*
X6256166Y4280437D01*
X6279221Y4283856D01*
X6302500Y4285000D01*
X6877500Y4285000D01*
X6900779Y4283856D01*
X6900779Y4283856D01*
G37*
D14*
X6590000Y3810000D03*
D13*
G36*
X-564221Y4283856D02*
G01*
X-541166Y4280437D01*
X-518557Y4274773D01*
X-496613Y4266921D01*
X-475543Y4256956D01*
X-455552Y4244974D01*
X-436832Y4231090D01*
X-419562Y4215438D01*
X-403910Y4198168D01*
X-390026Y4179448D01*
X-378044Y4159457D01*
X-368079Y4138387D01*
X-360227Y4116443D01*
X-354563Y4093834D01*
X-351144Y4070779D01*
X-350000Y4047500D01*
X-350000Y3572500D01*
X-351144Y3549221D01*
X-354563Y3526166D01*
X-360227Y3503557D01*
X-368079Y3481613D01*
X-378044Y3460543D01*
X-390026Y3440552D01*
X-403910Y3421832D01*
X-419562Y3404562D01*
X-436832Y3388910D01*
X-455552Y3375026D01*
X-475543Y3363044D01*
X-496613Y3353079D01*
X-518557Y3345227D01*
X-541166Y3339563D01*
X-564221Y3336144D01*
X-587500Y3335000D01*
X-1162500Y3335000D01*
X-1185779Y3336144D01*
X-1208834Y3339563D01*
X-1231443Y3345227D01*
X-1253387Y3353079D01*
X-1274457Y3363044D01*
X-1294448Y3375026D01*
X-1313168Y3388910D01*
X-1330438Y3404562D01*
X-1346090Y3421832D01*
X-1359974Y3440552D01*
X-1371956Y3460543D01*
X-1381921Y3481613D01*
X-1389773Y3503557D01*
X-1395437Y3526166D01*
X-1398856Y3549221D01*
X-1400000Y3572500D01*
X-1400000Y4047500D01*
X-1398856Y4070779D01*
X-1395437Y4093834D01*
X-1389773Y4116443D01*
X-1381921Y4138387D01*
X-1371956Y4159457D01*
X-1359974Y4179448D01*
X-1346090Y4198168D01*
X-1330438Y4215438D01*
X-1313168Y4231090D01*
X-1294448Y4244974D01*
X-1274457Y4256956D01*
X-1253387Y4266921D01*
X-1231443Y4274773D01*
X-1208834Y4280437D01*
X-1185779Y4283856D01*
X-1162500Y4285000D01*
X-587500Y4285000D01*
X-564221Y4283856D01*
X-564221Y4283856D01*
G37*
D14*
X-875000Y3810000D03*
D13*
G36*
X1185779Y4283856D02*
G01*
X1208834Y4280437D01*
X1231443Y4274773D01*
X1253387Y4266921D01*
X1274457Y4256956D01*
X1294448Y4244974D01*
X1313168Y4231090D01*
X1330438Y4215438D01*
X1346090Y4198168D01*
X1359974Y4179448D01*
X1371956Y4159457D01*
X1381921Y4138387D01*
X1389773Y4116443D01*
X1395437Y4093834D01*
X1398856Y4070779D01*
X1400000Y4047500D01*
X1400000Y3572500D01*
X1398856Y3549221D01*
X1395437Y3526166D01*
X1389773Y3503557D01*
X1381921Y3481613D01*
X1371956Y3460543D01*
X1359974Y3440552D01*
X1346090Y3421832D01*
X1330438Y3404562D01*
X1313168Y3388910D01*
X1294448Y3375026D01*
X1274457Y3363044D01*
X1253387Y3353079D01*
X1231443Y3345227D01*
X1208834Y3339563D01*
X1185779Y3336144D01*
X1162500Y3335000D01*
X587500Y3335000D01*
X564221Y3336144D01*
X541166Y3339563D01*
X518557Y3345227D01*
X496613Y3353079D01*
X475543Y3363044D01*
X455552Y3375026D01*
X436832Y3388910D01*
X419562Y3404562D01*
X403910Y3421832D01*
X390026Y3440552D01*
X378044Y3460543D01*
X368079Y3481613D01*
X360227Y3503557D01*
X354563Y3526166D01*
X351144Y3549221D01*
X350000Y3572500D01*
X350000Y4047500D01*
X351144Y4070779D01*
X354563Y4093834D01*
X360227Y4116443D01*
X368079Y4138387D01*
X378044Y4159457D01*
X390026Y4179448D01*
X403910Y4198168D01*
X419562Y4215438D01*
X436832Y4231090D01*
X455552Y4244974D01*
X475543Y4256956D01*
X496613Y4266921D01*
X518557Y4274773D01*
X541166Y4280437D01*
X564221Y4283856D01*
X587500Y4285000D01*
X1162500Y4285000D01*
X1185779Y4283856D01*
X1185779Y4283856D01*
G37*
D14*
X875000Y3810000D03*
D22*
X-3683000Y3810000D03*
X7747000Y1905000D03*
X2032000Y1905000D03*
X-3683000Y1905000D03*
D23*
X-875000Y3810000D02*
X-875000Y1905000D01*
X1270000Y25781000D02*
X1270000Y29080000D01*
X762000Y25273000D02*
X1270000Y25781000D01*
X762000Y15811500D02*
X762000Y25273000D01*
X3175000Y10755000D02*
X3175000Y13398500D01*
X3175000Y13398500D02*
X762000Y15811500D01*
X4866000Y10755000D02*
X3175000Y10755000D01*
X3048000Y3810000D02*
X4191000Y4953000D01*
X875000Y3810000D02*
X3048000Y3810000D01*
X4191000Y4953000D02*
X5334000Y4953000D01*
X5334000Y4953000D02*
X5715000Y5334000D01*
X5715000Y5334000D02*
X5715000Y9906000D01*
X5715000Y9906000D02*
X4866000Y10755000D01*
X4840000Y3810000D02*
X4840000Y1905000D01*
X3810000Y28702000D02*
X3810000Y29080000D01*
X3810000Y27686000D02*
X3810000Y29080000D01*
X3556000Y27432000D02*
X3810000Y27686000D01*
X2286000Y27432000D02*
X3556000Y27432000D01*
X2032000Y27178000D02*
X2286000Y27432000D01*
X2032000Y25273000D02*
X2032000Y27178000D01*
X10160000Y14224000D02*
X9144000Y15240000D01*
X9144000Y15240000D02*
X2540000Y15240000D01*
X2540000Y15240000D02*
X1651000Y16129000D01*
X10160000Y10755000D02*
X10160000Y14224000D01*
X1651000Y16129000D02*
X1651000Y24892000D01*
X1651000Y24892000D02*
X2032000Y25273000D01*
X7516500Y10755000D02*
X10160000Y10755000D01*
X6590000Y3810000D02*
X6590000Y9828500D01*
X6590000Y9828500D02*
X7516500Y10755000D01*
X-6590000Y3810000D02*
X-6590000Y1905000D01*
X-4840000Y3810000D02*
X-3683000Y3810000D01*
X-8890000Y26416000D02*
X-8890000Y29080000D01*
X-3810000Y12113000D02*
X-2794000Y13129000D01*
X-3810000Y10755000D02*
X-3810000Y12113000D01*
X-2794000Y13129000D02*
X-2794000Y24447500D01*
X-2794000Y24447500D02*
X-3873500Y25527000D01*
X-3873500Y25527000D02*
X-8001000Y25527000D01*
X-8001000Y25527000D02*
X-8890000Y26416000D01*
X6590000Y1905000D02*
X7747000Y1905000D01*
X875000Y1905000D02*
X2032000Y1905000D01*
X-4840000Y1905000D02*
X-3683000Y1905000D01*
X-1905000Y8509000D02*
X-1905000Y24765000D01*
X-6350000Y27051000D02*
X-6350000Y29080000D01*
X-1905000Y24765000D02*
X-3556000Y26416000D01*
X-3556000Y26416000D02*
X-5715000Y26416000D01*
X-5715000Y26416000D02*
X-6350000Y27051000D01*
X-2159000Y8255000D02*
X-1905000Y8509000D01*
X-3810000Y8255000D02*
X-2159000Y8255000D01*
X-3810000Y27858686D02*
X-3810000Y29080000D01*
X-1016000Y25064686D02*
X-3810000Y27858686D01*
X-1016000Y7239000D02*
X-1016000Y25064686D01*
X-10795000Y10795000D02*
X-8001000Y10795000D01*
X-7366000Y10160000D02*
X-7366000Y8924000D01*
X-7366000Y8924000D02*
X-4919000Y6477000D01*
X-8001000Y10795000D02*
X-7366000Y10160000D01*
X-4919000Y6477000D02*
X-1778000Y6477000D01*
X-1778000Y6477000D02*
X-1016000Y7239000D01*
X-1270000Y26416000D02*
X-1270000Y29080000D01*
X-7747000Y8255000D02*
X-5207000Y5715000D01*
X-10795000Y8255000D02*
X-7747000Y8255000D01*
X-5207000Y5715000D02*
X-1270000Y5715000D01*
X-1270000Y5715000D02*
X-127000Y6858000D01*
X-127000Y6858000D02*
X-127000Y25273000D01*
X-127000Y25273000D02*
X-1270000Y26416000D01*
D24*
X6350000Y27858686D02*
X6350000Y29080000D01*
X6985000Y27223686D02*
X6350000Y27858686D01*
X3295000Y17145000D02*
X3302000Y17152000D01*
X3302000Y18796000D02*
X3937000Y19431000D01*
X3302000Y17152000D02*
X3302000Y18796000D01*
X3937000Y19431000D02*
X3937000Y22098000D01*
X3937000Y22098000D02*
X6985000Y25146000D01*
X6985000Y25146000D02*
X6985000Y27223686D01*
X6350000Y32893000D02*
X6350000Y31620000D01*
X10795000Y19812000D02*
X12192000Y21209000D01*
X10795000Y17145000D02*
X10795000Y19812000D01*
X12192000Y21209000D02*
X12192000Y32194500D01*
X12192000Y32194500D02*
X10731500Y33655000D01*
X10731500Y33655000D02*
X7112000Y33655000D01*
X7112000Y33655000D02*
X6350000Y32893000D01*
X8255000Y27223686D02*
X8890000Y27858686D01*
X5795000Y17145000D02*
X5842000Y17192000D01*
X5842000Y18796000D02*
X5207000Y19431000D01*
X8890000Y27858686D02*
X8890000Y29080000D01*
X5207000Y19431000D02*
X5207000Y21653500D01*
X5207000Y21653500D02*
X8255000Y24701500D01*
X5842000Y17192000D02*
X5842000Y18796000D01*
X8255000Y24701500D02*
X8255000Y27223686D01*
X10515600Y31620000D02*
X8890000Y31620000D01*
X10922000Y31213600D02*
X10515600Y31620000D01*
X10922000Y21717000D02*
X10922000Y31213600D01*
X8295000Y17145000D02*
X8295000Y19090000D01*
X8295000Y19090000D02*
X10922000Y21717000D01*
D25*
G36*
X13619877Y49605419D02*
G01*
X13735187Y49570605D01*
X13841540Y49514056D01*
X13934884Y49437926D01*
X14011659Y49345121D01*
X14068951Y49239162D01*
X14104568Y49124102D01*
X14119002Y48986773D01*
X14119001Y1018629D01*
X14105420Y880124D01*
X14070606Y764814D01*
X14014057Y658460D01*
X13937927Y565117D01*
X13845122Y488341D01*
X13739163Y431049D01*
X13624103Y395432D01*
X13486782Y380999D01*
X-13481362Y380999D01*
X-13619876Y394581D01*
X-13735189Y429395D01*
X-13841537Y485942D01*
X-13934883Y562072D01*
X-14011660Y654880D01*
X-14068951Y760837D01*
X-14104568Y875897D01*
X-14119001Y1013218D01*
X-14119001Y4047500D01*
X-7392536Y4047500D01*
X-7392536Y3572500D01*
X-7382640Y3472021D01*
X-7353331Y3375404D01*
X-7305737Y3286361D01*
X-7241685Y3208315D01*
X-7163639Y3144263D01*
X-7120200Y3121044D01*
X-7120199Y2593956D01*
X-7163639Y2570737D01*
X-7241685Y2506685D01*
X-7305737Y2428639D01*
X-7353331Y2339596D01*
X-7382640Y2242979D01*
X-7392536Y2142500D01*
X-7392536Y1667500D01*
X-7382640Y1567021D01*
X-7353331Y1470404D01*
X-7305737Y1381361D01*
X-7241685Y1303315D01*
X-7163639Y1239263D01*
X-7074596Y1191669D01*
X-6977979Y1162360D01*
X-6877500Y1152464D01*
X-6302500Y1152464D01*
X-6202021Y1162360D01*
X-6105404Y1191669D01*
X-6016361Y1239263D01*
X-5938315Y1303315D01*
X-5874263Y1381361D01*
X-5851660Y1423650D01*
X-5695200Y1423650D01*
X-5690121Y1363773D01*
X-5670954Y1301617D01*
X-5640029Y1244396D01*
X-5598535Y1194306D01*
X-5548066Y1153275D01*
X-5490562Y1122878D01*
X-5428233Y1104283D01*
X-5363473Y1098206D01*
X-5354350Y1099800D01*
X-5271800Y1182350D01*
X-5271800Y1506200D01*
X-4408200Y1506200D01*
X-4408200Y1182350D01*
X-4325650Y1099800D01*
X-4316527Y1098206D01*
X-4251767Y1104283D01*
X-4189438Y1122878D01*
X-4131934Y1153275D01*
X-4081465Y1194306D01*
X-4039971Y1244396D01*
X-4009046Y1301617D01*
X-3989879Y1363773D01*
X-3984800Y1423650D01*
X-4067350Y1506200D01*
X-4408200Y1506200D01*
X-5271800Y1506200D01*
X-5612650Y1506200D01*
X-5695200Y1423650D01*
X-5851660Y1423650D01*
X-5826669Y1470404D01*
X-5797360Y1567021D01*
X-5787464Y1667500D01*
X-5787464Y2142500D01*
X-5797360Y2242979D01*
X-5826669Y2339596D01*
X-5851659Y2386350D01*
X-5695200Y2386350D01*
X-5612650Y2303800D01*
X-5271800Y2303800D01*
X-5271800Y2627650D01*
X-4408200Y2627650D01*
X-4408200Y2303800D01*
X-4067350Y2303800D01*
X-3984800Y2386350D01*
X-3989879Y2446227D01*
X-4009046Y2508383D01*
X-4039971Y2565604D01*
X-4081465Y2615694D01*
X-4131934Y2656725D01*
X-4189438Y2687122D01*
X-4251767Y2705717D01*
X-4316527Y2711794D01*
X-4325650Y2710200D01*
X-4408200Y2627650D01*
X-5271800Y2627650D01*
X-5354350Y2710200D01*
X-5363473Y2711794D01*
X-5428233Y2705717D01*
X-5490562Y2687122D01*
X-5548066Y2656725D01*
X-5598535Y2615694D01*
X-5640029Y2565604D01*
X-5670954Y2508383D01*
X-5690121Y2446227D01*
X-5695200Y2386350D01*
X-5851659Y2386350D01*
X-5874263Y2428639D01*
X-5938315Y2506685D01*
X-6016361Y2570737D01*
X-6059800Y2593955D01*
X-6059800Y3121045D01*
X-6016361Y3144263D01*
X-5938315Y3208315D01*
X-5874263Y3286361D01*
X-5826669Y3375404D01*
X-5797360Y3472021D01*
X-5787464Y3572500D01*
X-5787464Y4047500D01*
X-5642536Y4047500D01*
X-5642536Y3572500D01*
X-5632640Y3472021D01*
X-5603331Y3375404D01*
X-5555737Y3286361D01*
X-5491685Y3208315D01*
X-5413639Y3144263D01*
X-5324596Y3096669D01*
X-5227979Y3067360D01*
X-5127500Y3057464D01*
X-4552500Y3057464D01*
X-4452021Y3067360D01*
X-4355404Y3096669D01*
X-4266361Y3144263D01*
X-4188315Y3208315D01*
X-4129648Y3279800D01*
X-4106627Y3279800D01*
X-4003301Y3210759D01*
X-3880240Y3159786D01*
X-3749600Y3133800D01*
X-3616400Y3133800D01*
X-3485760Y3159786D01*
X-3362699Y3210759D01*
X-3251948Y3284761D01*
X-3157761Y3378948D01*
X-3083759Y3489699D01*
X-3032786Y3612760D01*
X-3006800Y3743400D01*
X-3006800Y3876600D01*
X-3032786Y4007240D01*
X-3049462Y4047500D01*
X-1677536Y4047500D01*
X-1677536Y3572500D01*
X-1667640Y3472021D01*
X-1638331Y3375404D01*
X-1590737Y3286361D01*
X-1526685Y3208315D01*
X-1448639Y3144263D01*
X-1405200Y3121044D01*
X-1405199Y2593956D01*
X-1448639Y2570737D01*
X-1526685Y2506685D01*
X-1590737Y2428639D01*
X-1638331Y2339596D01*
X-1667640Y2242979D01*
X-1677536Y2142500D01*
X-1677536Y1667500D01*
X-1667640Y1567021D01*
X-1638331Y1470404D01*
X-1590737Y1381361D01*
X-1526685Y1303315D01*
X-1448639Y1239263D01*
X-1359596Y1191669D01*
X-1262979Y1162360D01*
X-1162500Y1152464D01*
X-587500Y1152464D01*
X-487021Y1162360D01*
X-390404Y1191669D01*
X-301361Y1239263D01*
X-223315Y1303315D01*
X-159263Y1381361D01*
X-136660Y1423650D01*
X19800Y1423650D01*
X24879Y1363773D01*
X44046Y1301617D01*
X74971Y1244396D01*
X116465Y1194306D01*
X166934Y1153275D01*
X224438Y1122878D01*
X286767Y1104283D01*
X351527Y1098206D01*
X360650Y1099800D01*
X443200Y1182350D01*
X443200Y1506200D01*
X1306800Y1506200D01*
X1306800Y1182350D01*
X1389350Y1099800D01*
X1398473Y1098206D01*
X1463233Y1104283D01*
X1525562Y1122878D01*
X1583066Y1153275D01*
X1633535Y1194306D01*
X1675029Y1244396D01*
X1705954Y1301617D01*
X1725121Y1363773D01*
X1730200Y1423650D01*
X1647650Y1506200D01*
X1306800Y1506200D01*
X443200Y1506200D01*
X102350Y1506200D01*
X19800Y1423650D01*
X-136660Y1423650D01*
X-111669Y1470404D01*
X-82360Y1567021D01*
X-72464Y1667500D01*
X-72464Y2142500D01*
X-82360Y2242979D01*
X-111669Y2339596D01*
X-136659Y2386350D01*
X19800Y2386350D01*
X102350Y2303800D01*
X443200Y2303800D01*
X443200Y2627650D01*
X1306800Y2627650D01*
X1306800Y2303800D01*
X1647650Y2303800D01*
X1730200Y2386350D01*
X1725121Y2446227D01*
X1705954Y2508383D01*
X1675029Y2565604D01*
X1633535Y2615694D01*
X1583066Y2656725D01*
X1525562Y2687122D01*
X1463233Y2705717D01*
X1398473Y2711794D01*
X1389350Y2710200D01*
X1306800Y2627650D01*
X443200Y2627650D01*
X360650Y2710200D01*
X351527Y2711794D01*
X286767Y2705717D01*
X224438Y2687122D01*
X166934Y2656725D01*
X116465Y2615694D01*
X74971Y2565604D01*
X44046Y2508383D01*
X24879Y2446227D01*
X19800Y2386350D01*
X-136659Y2386350D01*
X-159263Y2428639D01*
X-223315Y2506685D01*
X-301361Y2570737D01*
X-344800Y2593955D01*
X-344800Y3121045D01*
X-301361Y3144263D01*
X-223315Y3208315D01*
X-159263Y3286361D01*
X-111669Y3375404D01*
X-82360Y3472021D01*
X-72464Y3572500D01*
X-72464Y4047500D01*
X-82360Y4147979D01*
X-111669Y4244596D01*
X-159263Y4333639D01*
X-223315Y4411685D01*
X-301361Y4475737D01*
X-390404Y4523331D01*
X-487021Y4552640D01*
X-587500Y4562536D01*
X-1162500Y4562536D01*
X-1262979Y4552640D01*
X-1359596Y4523331D01*
X-1448639Y4475737D01*
X-1526685Y4411685D01*
X-1590737Y4333639D01*
X-1638331Y4244596D01*
X-1667640Y4147979D01*
X-1677536Y4047500D01*
X-3049462Y4047500D01*
X-3083759Y4130301D01*
X-3157761Y4241052D01*
X-3251948Y4335239D01*
X-3362699Y4409241D01*
X-3485760Y4460214D01*
X-3616400Y4486200D01*
X-3749600Y4486200D01*
X-3880240Y4460214D01*
X-4003301Y4409241D01*
X-4106627Y4340200D01*
X-4129648Y4340200D01*
X-4188315Y4411685D01*
X-4266361Y4475737D01*
X-4355404Y4523331D01*
X-4452021Y4552640D01*
X-4552500Y4562536D01*
X-5127500Y4562536D01*
X-5227979Y4552640D01*
X-5324596Y4523331D01*
X-5413639Y4475737D01*
X-5491685Y4411685D01*
X-5555737Y4333639D01*
X-5603331Y4244596D01*
X-5632640Y4147979D01*
X-5642536Y4047500D01*
X-5787464Y4047500D01*
X-5797360Y4147979D01*
X-5826669Y4244596D01*
X-5874263Y4333639D01*
X-5938315Y4411685D01*
X-6016361Y4475737D01*
X-6105404Y4523331D01*
X-6202021Y4552640D01*
X-6302500Y4562536D01*
X-6877500Y4562536D01*
X-6977979Y4552640D01*
X-7074596Y4523331D01*
X-7163639Y4475737D01*
X-7241685Y4411685D01*
X-7305737Y4333639D01*
X-7353331Y4244596D01*
X-7382640Y4147979D01*
X-7392536Y4047500D01*
X-14119001Y4047500D01*
X-14119001Y11845000D01*
X-12122536Y11845000D01*
X-12122536Y9745000D01*
X-12117203Y9690855D01*
X-12101410Y9638792D01*
X-12075763Y9590809D01*
X-12041248Y9548752D01*
X-11999191Y9514237D01*
X-11951208Y9488590D01*
X-11899145Y9472797D01*
X-11845000Y9467464D01*
X-11333380Y9467464D01*
X-11423191Y9430263D01*
X-11640403Y9285127D01*
X-11825127Y9100403D01*
X-11970263Y8883191D01*
X-12070235Y8641838D01*
X-12121200Y8385619D01*
X-12121200Y8124381D01*
X-12070235Y7868162D01*
X-11970263Y7626809D01*
X-11825127Y7409597D01*
X-11640403Y7224873D01*
X-11423191Y7079737D01*
X-11181838Y6979765D01*
X-10925619Y6928800D01*
X-10664381Y6928800D01*
X-10408162Y6979765D01*
X-10166809Y7079737D01*
X-9949597Y7224873D01*
X-9764873Y7409597D01*
X-9619737Y7626809D01*
X-9579148Y7724800D01*
X-7966615Y7724800D01*
X-5600325Y5358509D01*
X-5583722Y5338278D01*
X-5502988Y5272022D01*
X-5410880Y5222789D01*
X-5310937Y5192472D01*
X-5233043Y5184800D01*
X-5233041Y5184800D01*
X-5207001Y5182235D01*
X-5180961Y5184800D01*
X-1296040Y5184800D01*
X-1270000Y5182235D01*
X-1243960Y5184800D01*
X-1243957Y5184800D01*
X-1166063Y5192472D01*
X-1066120Y5222789D01*
X-974012Y5272022D01*
X-893278Y5338278D01*
X-876671Y5358514D01*
X229491Y6464675D01*
X249722Y6481278D01*
X315978Y6562012D01*
X365211Y6654120D01*
X395528Y6754063D01*
X403200Y6831957D01*
X403200Y6831959D01*
X405765Y6857999D01*
X403200Y6884039D01*
X403200Y7405000D01*
X1843202Y7405000D01*
X1849577Y7340269D01*
X1868459Y7278026D01*
X1899120Y7220663D01*
X1940383Y7170383D01*
X1990663Y7129120D01*
X2048026Y7098459D01*
X2110269Y7079577D01*
X2175000Y7073202D01*
X2660650Y7074800D01*
X2743200Y7157350D01*
X2743200Y7823200D01*
X3606800Y7823200D01*
X3606800Y7157350D01*
X3689350Y7074800D01*
X4175000Y7073202D01*
X4239731Y7079577D01*
X4301974Y7098459D01*
X4359337Y7129120D01*
X4409617Y7170383D01*
X4450880Y7220663D01*
X4481541Y7278026D01*
X4500423Y7340269D01*
X4506798Y7405000D01*
X4505200Y7740650D01*
X4422650Y7823200D01*
X3606800Y7823200D01*
X2743200Y7823200D01*
X1927350Y7823200D01*
X1844800Y7740650D01*
X1843202Y7405000D01*
X403200Y7405000D01*
X403200Y9105000D01*
X1843202Y9105000D01*
X1844800Y8769350D01*
X1927350Y8686800D01*
X2743200Y8686800D01*
X2743200Y9352650D01*
X3606800Y9352650D01*
X3606800Y8686800D01*
X4422650Y8686800D01*
X4505200Y8769350D01*
X4506798Y9105000D01*
X4500423Y9169731D01*
X4481541Y9231974D01*
X4450880Y9289337D01*
X4409617Y9339617D01*
X4359337Y9380880D01*
X4301974Y9411541D01*
X4239731Y9430423D01*
X4175000Y9436798D01*
X3689350Y9435200D01*
X3606800Y9352650D01*
X2743200Y9352650D01*
X2660650Y9435200D01*
X2175000Y9436798D01*
X2110269Y9430423D01*
X2048026Y9411541D01*
X1990663Y9380880D01*
X1940383Y9339617D01*
X1899120Y9289337D01*
X1868459Y9231974D01*
X1849577Y9169731D01*
X1843202Y9105000D01*
X403200Y9105000D01*
X403200Y15420070D01*
X405514Y15418171D01*
X2644801Y13178883D01*
X2644800Y11816543D01*
X2591937Y11800507D01*
X2396290Y11695932D01*
X2224803Y11555197D01*
X2084068Y11383710D01*
X1979493Y11188063D01*
X1915095Y10975774D01*
X1893351Y10755000D01*
X1915095Y10534226D01*
X1979493Y10321937D01*
X2084068Y10126290D01*
X2224803Y9954803D01*
X2396290Y9814068D01*
X2591937Y9709493D01*
X2804226Y9645095D01*
X2969675Y9628800D01*
X3380325Y9628800D01*
X3545774Y9645095D01*
X3758063Y9709493D01*
X3953710Y9814068D01*
X4125197Y9954803D01*
X4265932Y10126290D01*
X4318586Y10224800D01*
X4646385Y10224800D01*
X5184801Y9686383D01*
X5184800Y5553616D01*
X5114385Y5483200D01*
X4217039Y5483200D01*
X4190999Y5485765D01*
X4164959Y5483200D01*
X4164957Y5483200D01*
X4087063Y5475528D01*
X3987120Y5445211D01*
X3895012Y5395978D01*
X3814278Y5329722D01*
X3797676Y5309492D01*
X2828385Y4340200D01*
X1585352Y4340200D01*
X1526685Y4411685D01*
X1448639Y4475737D01*
X1359596Y4523331D01*
X1262979Y4552640D01*
X1162500Y4562536D01*
X587500Y4562536D01*
X487021Y4552640D01*
X390404Y4523331D01*
X301361Y4475737D01*
X223315Y4411685D01*
X159263Y4333639D01*
X111669Y4244596D01*
X82360Y4147979D01*
X72464Y4047500D01*
X72464Y3572500D01*
X82360Y3472021D01*
X111669Y3375404D01*
X159263Y3286361D01*
X223315Y3208315D01*
X301361Y3144263D01*
X390404Y3096669D01*
X487021Y3067360D01*
X587500Y3057464D01*
X1162500Y3057464D01*
X1262979Y3067360D01*
X1359596Y3096669D01*
X1448639Y3144263D01*
X1526685Y3208315D01*
X1585352Y3279800D01*
X3021960Y3279800D01*
X3048000Y3277235D01*
X3074040Y3279800D01*
X3074043Y3279800D01*
X3151937Y3287472D01*
X3251880Y3317789D01*
X3343988Y3367022D01*
X3424722Y3433278D01*
X3441329Y3453514D01*
X4037699Y4049883D01*
X4037464Y4047500D01*
X4037464Y3572500D01*
X4047360Y3472021D01*
X4076669Y3375404D01*
X4124263Y3286361D01*
X4188315Y3208315D01*
X4266361Y3144263D01*
X4309800Y3121044D01*
X4309801Y2593956D01*
X4266361Y2570737D01*
X4188315Y2506685D01*
X4124263Y2428639D01*
X4076669Y2339596D01*
X4047360Y2242979D01*
X4037464Y2142500D01*
X4037464Y1667500D01*
X4047360Y1567021D01*
X4076669Y1470404D01*
X4124263Y1381361D01*
X4188315Y1303315D01*
X4266361Y1239263D01*
X4355404Y1191669D01*
X4452021Y1162360D01*
X4552500Y1152464D01*
X5127500Y1152464D01*
X5227979Y1162360D01*
X5324596Y1191669D01*
X5413639Y1239263D01*
X5491685Y1303315D01*
X5555737Y1381361D01*
X5578340Y1423650D01*
X5734800Y1423650D01*
X5739879Y1363773D01*
X5759046Y1301617D01*
X5789971Y1244396D01*
X5831465Y1194306D01*
X5881934Y1153275D01*
X5939438Y1122878D01*
X6001767Y1104283D01*
X6066527Y1098206D01*
X6075650Y1099800D01*
X6158200Y1182350D01*
X6158200Y1506200D01*
X7021800Y1506200D01*
X7021800Y1182350D01*
X7104350Y1099800D01*
X7113473Y1098206D01*
X7178233Y1104283D01*
X7240562Y1122878D01*
X7298066Y1153275D01*
X7348535Y1194306D01*
X7390029Y1244396D01*
X7420954Y1301617D01*
X7440121Y1363773D01*
X7445200Y1423650D01*
X7362650Y1506200D01*
X7021800Y1506200D01*
X6158200Y1506200D01*
X5817350Y1506200D01*
X5734800Y1423650D01*
X5578340Y1423650D01*
X5603331Y1470404D01*
X5632640Y1567021D01*
X5642536Y1667500D01*
X5642536Y2142500D01*
X5632640Y2242979D01*
X5603331Y2339596D01*
X5578341Y2386350D01*
X5734800Y2386350D01*
X5817350Y2303800D01*
X6158200Y2303800D01*
X6158200Y2627650D01*
X7021800Y2627650D01*
X7021800Y2303800D01*
X7362650Y2303800D01*
X7445200Y2386350D01*
X7440121Y2446227D01*
X7420954Y2508383D01*
X7390029Y2565604D01*
X7348535Y2615694D01*
X7298066Y2656725D01*
X7240562Y2687122D01*
X7178233Y2705717D01*
X7113473Y2711794D01*
X7104350Y2710200D01*
X7021800Y2627650D01*
X6158200Y2627650D01*
X6075650Y2710200D01*
X6066527Y2711794D01*
X6001767Y2705717D01*
X5939438Y2687122D01*
X5881934Y2656725D01*
X5831465Y2615694D01*
X5789971Y2565604D01*
X5759046Y2508383D01*
X5739879Y2446227D01*
X5734800Y2386350D01*
X5578341Y2386350D01*
X5555737Y2428639D01*
X5491685Y2506685D01*
X5413639Y2570737D01*
X5370200Y2593955D01*
X5370200Y3121045D01*
X5413639Y3144263D01*
X5491685Y3208315D01*
X5555737Y3286361D01*
X5603331Y3375404D01*
X5632640Y3472021D01*
X5642536Y3572500D01*
X5642536Y4047500D01*
X5632640Y4147979D01*
X5603331Y4244596D01*
X5555737Y4333639D01*
X5491685Y4411685D01*
X5460466Y4437306D01*
X5537880Y4460789D01*
X5629988Y4510022D01*
X5710722Y4576278D01*
X5727329Y4596514D01*
X6059800Y4928984D01*
X6059800Y4498955D01*
X6016361Y4475737D01*
X5938315Y4411685D01*
X5874263Y4333639D01*
X5826669Y4244596D01*
X5797360Y4147979D01*
X5787464Y4047500D01*
X5787464Y3572500D01*
X5797360Y3472021D01*
X5826669Y3375404D01*
X5874263Y3286361D01*
X5938315Y3208315D01*
X6016361Y3144263D01*
X6105404Y3096669D01*
X6202021Y3067360D01*
X6302500Y3057464D01*
X6877500Y3057464D01*
X6977979Y3067360D01*
X7074596Y3096669D01*
X7163639Y3144263D01*
X7241685Y3208315D01*
X7305737Y3286361D01*
X7353331Y3375404D01*
X7382640Y3472021D01*
X7392536Y3572500D01*
X7392536Y4047500D01*
X7382640Y4147979D01*
X7353331Y4244596D01*
X7305737Y4333639D01*
X7241685Y4411685D01*
X7163639Y4475737D01*
X7120200Y4498955D01*
X7120200Y7405000D01*
X8828202Y7405000D01*
X8834577Y7340269D01*
X8853459Y7278026D01*
X8884120Y7220663D01*
X8925383Y7170383D01*
X8975663Y7129120D01*
X9033026Y7098459D01*
X9095269Y7079577D01*
X9160000Y7073202D01*
X9645650Y7074800D01*
X9728200Y7157350D01*
X9728200Y7823200D01*
X10591800Y7823200D01*
X10591800Y7157350D01*
X10674350Y7074800D01*
X11160000Y7073202D01*
X11224731Y7079577D01*
X11286974Y7098459D01*
X11344337Y7129120D01*
X11394617Y7170383D01*
X11435880Y7220663D01*
X11466541Y7278026D01*
X11485423Y7340269D01*
X11491798Y7405000D01*
X11490200Y7740650D01*
X11407650Y7823200D01*
X10591800Y7823200D01*
X9728200Y7823200D01*
X8912350Y7823200D01*
X8829800Y7740650D01*
X8828202Y7405000D01*
X7120200Y7405000D01*
X7120200Y9105000D01*
X8828202Y9105000D01*
X8829800Y8769350D01*
X8912350Y8686800D01*
X9728200Y8686800D01*
X9728200Y9352650D01*
X10591800Y9352650D01*
X10591800Y8686800D01*
X11407650Y8686800D01*
X11490200Y8769350D01*
X11491798Y9105000D01*
X11485423Y9169731D01*
X11466541Y9231974D01*
X11435880Y9289337D01*
X11394617Y9339617D01*
X11344337Y9380880D01*
X11286974Y9411541D01*
X11224731Y9430423D01*
X11160000Y9436798D01*
X10674350Y9435200D01*
X10591800Y9352650D01*
X9728200Y9352650D01*
X9645650Y9435200D01*
X9160000Y9436798D01*
X9095269Y9430423D01*
X9033026Y9411541D01*
X8975663Y9380880D01*
X8925383Y9339617D01*
X8884120Y9289337D01*
X8853459Y9231974D01*
X8834577Y9169731D01*
X8828202Y9105000D01*
X7120200Y9105000D01*
X7120200Y9608885D01*
X7736116Y10224800D01*
X9016414Y10224800D01*
X9069068Y10126290D01*
X9209803Y9954803D01*
X9381290Y9814068D01*
X9576937Y9709493D01*
X9789226Y9645095D01*
X9954675Y9628800D01*
X10365325Y9628800D01*
X10530774Y9645095D01*
X10743063Y9709493D01*
X10938710Y9814068D01*
X11110197Y9954803D01*
X11250932Y10126290D01*
X11355507Y10321937D01*
X11419905Y10534226D01*
X11441649Y10755000D01*
X11419905Y10975774D01*
X11355507Y11188063D01*
X11250932Y11383710D01*
X11110197Y11555197D01*
X10938710Y11695932D01*
X10743063Y11800507D01*
X10690200Y11816543D01*
X10690200Y14197960D01*
X10692765Y14224000D01*
X10690200Y14250043D01*
X10682528Y14327937D01*
X10652211Y14427880D01*
X10602978Y14519988D01*
X10536722Y14600722D01*
X10516491Y14617325D01*
X9537329Y15596486D01*
X9520722Y15616722D01*
X9439988Y15682978D01*
X9347880Y15732211D01*
X9247937Y15762528D01*
X9170043Y15770200D01*
X9170040Y15770200D01*
X9144000Y15772765D01*
X9117960Y15770200D01*
X2759616Y15770200D01*
X2181200Y16348615D01*
X2181200Y16838774D01*
X2185095Y16799227D01*
X2249493Y16586938D01*
X2354068Y16391290D01*
X2494803Y16219803D01*
X2666290Y16079068D01*
X2861937Y15974493D01*
X3074226Y15910095D01*
X3295000Y15888351D01*
X3515773Y15910095D01*
X3728062Y15974493D01*
X3923710Y16079068D01*
X4095197Y16219803D01*
X4235932Y16391290D01*
X4340507Y16586937D01*
X4404905Y16799226D01*
X4421200Y16964675D01*
X4421200Y17325324D01*
X4404905Y17490773D01*
X4340507Y17703062D01*
X4235932Y17898710D01*
X4095197Y18070197D01*
X3959200Y18181806D01*
X3959200Y18523779D01*
X4378896Y18943474D01*
X4403958Y18964042D01*
X4424526Y18989104D01*
X4424534Y18989112D01*
X4486085Y19064113D01*
X4547111Y19178283D01*
X4572000Y19260333D01*
X4596889Y19178285D01*
X4657915Y19064114D01*
X4740042Y18964042D01*
X4765115Y18943465D01*
X5184801Y18523778D01*
X5184801Y18220826D01*
X5166291Y18210932D01*
X4994804Y18070197D01*
X4854068Y17898710D01*
X4749493Y17703063D01*
X4685095Y17490774D01*
X4668800Y17325325D01*
X4668800Y16964676D01*
X4685095Y16799227D01*
X4749493Y16586938D01*
X4854068Y16391290D01*
X4994803Y16219803D01*
X5166290Y16079068D01*
X5361937Y15974493D01*
X5574226Y15910095D01*
X5795000Y15888351D01*
X6015773Y15910095D01*
X6228062Y15974493D01*
X6423710Y16079068D01*
X6595197Y16219803D01*
X6735932Y16391290D01*
X6840507Y16586937D01*
X6904905Y16799226D01*
X6921200Y16964675D01*
X6921200Y17325324D01*
X6904905Y17490773D01*
X6840507Y17703062D01*
X6735932Y17898710D01*
X6595197Y18070197D01*
X6499200Y18148979D01*
X6499200Y18763731D01*
X6502378Y18796000D01*
X6499200Y18828269D01*
X6499200Y18828277D01*
X6489690Y18924834D01*
X6478669Y18961167D01*
X6452111Y19048717D01*
X6391085Y19162887D01*
X6329534Y19237888D01*
X6329526Y19237896D01*
X6308958Y19262958D01*
X6283895Y19283527D01*
X5864200Y19703221D01*
X5864200Y21381280D01*
X8696891Y24213970D01*
X8721958Y24234542D01*
X8804085Y24334613D01*
X8865111Y24448784D01*
X8902690Y24572666D01*
X8912200Y24669223D01*
X8912200Y24669231D01*
X8915378Y24701500D01*
X8912200Y24733769D01*
X8912200Y26951465D01*
X9331896Y27371160D01*
X9356958Y27391728D01*
X9377526Y27416790D01*
X9377534Y27416798D01*
X9439085Y27491799D01*
X9500111Y27605969D01*
X9537690Y27729852D01*
X9541917Y27772771D01*
X9547200Y27826409D01*
X9547200Y27826417D01*
X9550378Y27858686D01*
X9547200Y27890955D01*
X9547200Y28144855D01*
X9699860Y28270140D01*
X9842295Y28443697D01*
X9948133Y28641707D01*
X10013308Y28856560D01*
X10035315Y29080000D01*
X10013308Y29303440D01*
X9948133Y29518293D01*
X9842295Y29716303D01*
X9699860Y29889860D01*
X9526303Y30032295D01*
X9328293Y30138133D01*
X9113440Y30203308D01*
X8945995Y30219800D01*
X8834005Y30219800D01*
X8666560Y30203308D01*
X8451707Y30138133D01*
X8253697Y30032295D01*
X8080140Y29889860D01*
X7937705Y29716303D01*
X7831867Y29518293D01*
X7766692Y29303440D01*
X7744685Y29080000D01*
X7766692Y28856560D01*
X7831867Y28641707D01*
X7937705Y28443697D01*
X8080140Y28270140D01*
X8232800Y28144855D01*
X8232800Y28130908D01*
X7813110Y27711216D01*
X7788043Y27690644D01*
X7767470Y27665576D01*
X7767467Y27665573D01*
X7705915Y27590572D01*
X7644890Y27476402D01*
X7620000Y27394353D01*
X7595111Y27476403D01*
X7534085Y27590573D01*
X7472534Y27665574D01*
X7472526Y27665582D01*
X7451958Y27690644D01*
X7426895Y27711213D01*
X7007200Y28130907D01*
X7007200Y28144855D01*
X7159860Y28270140D01*
X7302295Y28443697D01*
X7408133Y28641707D01*
X7473308Y28856560D01*
X7495315Y29080000D01*
X7473308Y29303440D01*
X7408133Y29518293D01*
X7302295Y29716303D01*
X7159860Y29889860D01*
X6986303Y30032295D01*
X6788293Y30138133D01*
X6573440Y30203308D01*
X6405995Y30219800D01*
X6294005Y30219800D01*
X6126560Y30203308D01*
X5911707Y30138133D01*
X5713697Y30032295D01*
X5540140Y29889860D01*
X5397705Y29716303D01*
X5291867Y29518293D01*
X5226692Y29303440D01*
X5204685Y29080000D01*
X5226692Y28856560D01*
X5291867Y28641707D01*
X5397705Y28443697D01*
X5540140Y28270140D01*
X5692800Y28144855D01*
X5692800Y27890956D01*
X5689622Y27858686D01*
X5692800Y27826417D01*
X5692800Y27826410D01*
X5702310Y27729853D01*
X5739889Y27605971D01*
X5800915Y27491800D01*
X5883042Y27391728D01*
X5908115Y27371151D01*
X6327801Y26951464D01*
X6327800Y25418221D01*
X3495111Y22585531D01*
X3470043Y22564958D01*
X3449470Y22539890D01*
X3449467Y22539887D01*
X3387915Y22464886D01*
X3326890Y22350716D01*
X3289310Y22226833D01*
X3276622Y22098000D01*
X3279801Y22065721D01*
X3279800Y19703221D01*
X2860110Y19283530D01*
X2835043Y19262958D01*
X2814470Y19237890D01*
X2814467Y19237887D01*
X2752915Y19162886D01*
X2691890Y19048716D01*
X2654310Y18924833D01*
X2641622Y18796000D01*
X2644801Y18763721D01*
X2644801Y18193295D01*
X2494804Y18070197D01*
X2354068Y17898710D01*
X2249493Y17703063D01*
X2185095Y17490774D01*
X2181200Y17451227D01*
X2181200Y24672385D01*
X2388493Y24879677D01*
X2408722Y24896278D01*
X2474978Y24977012D01*
X2524211Y25069120D01*
X2554528Y25169063D01*
X2562200Y25246957D01*
X2562200Y25246959D01*
X2564765Y25272999D01*
X2562200Y25299043D01*
X2562200Y26901800D01*
X3529960Y26901800D01*
X3556000Y26899235D01*
X3582040Y26901800D01*
X3582043Y26901800D01*
X3659937Y26909472D01*
X3759880Y26939789D01*
X3851988Y26989022D01*
X3932722Y27055278D01*
X3949329Y27075514D01*
X4166490Y27292675D01*
X4186722Y27309278D01*
X4252978Y27390012D01*
X4302211Y27482120D01*
X4332528Y27582063D01*
X4340200Y27659957D01*
X4340200Y27659959D01*
X4342765Y27685999D01*
X4340200Y27712039D01*
X4340200Y28070992D01*
X4446303Y28127705D01*
X4619860Y28270140D01*
X4762295Y28443697D01*
X4868133Y28641707D01*
X4933308Y28856560D01*
X4955315Y29080000D01*
X4933308Y29303440D01*
X4868133Y29518293D01*
X4762295Y29716303D01*
X4619860Y29889860D01*
X4446303Y30032295D01*
X4248293Y30138133D01*
X4033440Y30203308D01*
X3865995Y30219800D01*
X3754005Y30219800D01*
X3586560Y30203308D01*
X3371707Y30138133D01*
X3173697Y30032295D01*
X3000140Y29889860D01*
X2857705Y29716303D01*
X2751867Y29518293D01*
X2686692Y29303440D01*
X2664685Y29080000D01*
X2686692Y28856560D01*
X2751867Y28641707D01*
X2857705Y28443697D01*
X3000140Y28270140D01*
X3173697Y28127705D01*
X3279800Y28070992D01*
X3279800Y27962200D01*
X2312039Y27962200D01*
X2285999Y27964765D01*
X2259959Y27962200D01*
X2259957Y27962200D01*
X2182063Y27954528D01*
X2082120Y27924211D01*
X1990012Y27874978D01*
X1909278Y27808722D01*
X1892676Y27788492D01*
X1800200Y27696016D01*
X1800200Y28070992D01*
X1906303Y28127705D01*
X2079860Y28270140D01*
X2222295Y28443697D01*
X2328133Y28641707D01*
X2393308Y28856560D01*
X2415315Y29080000D01*
X2393308Y29303440D01*
X2328133Y29518293D01*
X2222295Y29716303D01*
X2079860Y29889860D01*
X1906303Y30032295D01*
X1708293Y30138133D01*
X1493440Y30203308D01*
X1325995Y30219800D01*
X1214005Y30219800D01*
X1046560Y30203308D01*
X831707Y30138133D01*
X633697Y30032295D01*
X460140Y29889860D01*
X317705Y29716303D01*
X211867Y29518293D01*
X146692Y29303440D01*
X124685Y29080000D01*
X146692Y28856560D01*
X211867Y28641707D01*
X317705Y28443697D01*
X460140Y28270140D01*
X633697Y28127705D01*
X739801Y28070992D01*
X739800Y26000616D01*
X405510Y25666325D01*
X385279Y25649722D01*
X368678Y25629493D01*
X368677Y25629492D01*
X319023Y25568988D01*
X317501Y25566140D01*
X315978Y25568988D01*
X249722Y25649722D01*
X229491Y25666325D01*
X-739800Y26635615D01*
X-739800Y28070992D01*
X-633697Y28127705D01*
X-460140Y28270140D01*
X-317705Y28443697D01*
X-211867Y28641707D01*
X-146692Y28856560D01*
X-124685Y29080000D01*
X-146692Y29303440D01*
X-211867Y29518293D01*
X-317705Y29716303D01*
X-460140Y29889860D01*
X-633697Y30032295D01*
X-831707Y30138133D01*
X-1046560Y30203308D01*
X-1214005Y30219800D01*
X-1325995Y30219800D01*
X-1493440Y30203308D01*
X-1708293Y30138133D01*
X-1906303Y30032295D01*
X-2079860Y29889860D01*
X-2222295Y29716303D01*
X-2328133Y29518293D01*
X-2393308Y29303440D01*
X-2415315Y29080000D01*
X-2393308Y28856560D01*
X-2328133Y28641707D01*
X-2222295Y28443697D01*
X-2079860Y28270140D01*
X-1906303Y28127705D01*
X-1800199Y28070992D01*
X-1800200Y26598702D01*
X-3275037Y28073538D01*
X-3173697Y28127705D01*
X-3000140Y28270140D01*
X-2857705Y28443697D01*
X-2751867Y28641707D01*
X-2686692Y28856560D01*
X-2664685Y29080000D01*
X-2686692Y29303440D01*
X-2751867Y29518293D01*
X-2857705Y29716303D01*
X-3000140Y29889860D01*
X-3173697Y30032295D01*
X-3371707Y30138133D01*
X-3586560Y30203308D01*
X-3754005Y30219800D01*
X-3865995Y30219800D01*
X-4033440Y30203308D01*
X-4248293Y30138133D01*
X-4446303Y30032295D01*
X-4619860Y29889860D01*
X-4762295Y29716303D01*
X-4868133Y29518293D01*
X-4933308Y29303440D01*
X-4955315Y29080000D01*
X-4933308Y28856560D01*
X-4868133Y28641707D01*
X-4762295Y28443697D01*
X-4619860Y28270140D01*
X-4446303Y28127705D01*
X-4340200Y28070992D01*
X-4340200Y27884727D01*
X-4342765Y27858686D01*
X-4340200Y27832646D01*
X-4340200Y27832644D01*
X-4332528Y27754750D01*
X-4302211Y27654807D01*
X-4252978Y27562698D01*
X-4186722Y27481964D01*
X-4166486Y27465357D01*
X-3647329Y26946200D01*
X-5495384Y26946200D01*
X-5819800Y27270615D01*
X-5819800Y28070992D01*
X-5713697Y28127705D01*
X-5540140Y28270140D01*
X-5397705Y28443697D01*
X-5291867Y28641707D01*
X-5226692Y28856560D01*
X-5204685Y29080000D01*
X-5226692Y29303440D01*
X-5291867Y29518293D01*
X-5397705Y29716303D01*
X-5540140Y29889860D01*
X-5713697Y30032295D01*
X-5911707Y30138133D01*
X-6126560Y30203308D01*
X-6294005Y30219800D01*
X-6405995Y30219800D01*
X-6573440Y30203308D01*
X-6788293Y30138133D01*
X-6986303Y30032295D01*
X-7159860Y29889860D01*
X-7302295Y29716303D01*
X-7408133Y29518293D01*
X-7473308Y29303440D01*
X-7495315Y29080000D01*
X-7473308Y28856560D01*
X-7408133Y28641707D01*
X-7302295Y28443697D01*
X-7159860Y28270140D01*
X-6986303Y28127705D01*
X-6880199Y28070992D01*
X-6880200Y27077040D01*
X-6882765Y27051000D01*
X-6880200Y27024960D01*
X-6880200Y27024958D01*
X-6872528Y26947064D01*
X-6842211Y26847121D01*
X-6792978Y26755012D01*
X-6726722Y26674278D01*
X-6706486Y26657671D01*
X-6108325Y26059509D01*
X-6106430Y26057200D01*
X-7781384Y26057200D01*
X-8359800Y26635615D01*
X-8359800Y28070992D01*
X-8253697Y28127705D01*
X-8080140Y28270140D01*
X-7937705Y28443697D01*
X-7831867Y28641707D01*
X-7766692Y28856560D01*
X-7744685Y29080000D01*
X-7766692Y29303440D01*
X-7831867Y29518293D01*
X-7937705Y29716303D01*
X-8080140Y29889860D01*
X-8253697Y30032295D01*
X-8451707Y30138133D01*
X-8666560Y30203308D01*
X-8834005Y30219800D01*
X-8945995Y30219800D01*
X-9113440Y30203308D01*
X-9328293Y30138133D01*
X-9526303Y30032295D01*
X-9699860Y29889860D01*
X-9842295Y29716303D01*
X-9948133Y29518293D01*
X-10013308Y29303440D01*
X-10035315Y29080000D01*
X-10013308Y28856560D01*
X-9948133Y28641707D01*
X-9842295Y28443697D01*
X-9699860Y28270140D01*
X-9526303Y28127705D01*
X-9420199Y28070992D01*
X-9420200Y26442040D01*
X-9422765Y26416000D01*
X-9420200Y26389960D01*
X-9420200Y26389958D01*
X-9412528Y26312064D01*
X-9382211Y26212121D01*
X-9332978Y26120012D01*
X-9266722Y26039278D01*
X-9246486Y26022671D01*
X-8394325Y25170509D01*
X-8377722Y25150278D01*
X-8296988Y25084022D01*
X-8204880Y25034789D01*
X-8104937Y25004472D01*
X-8027043Y24996800D01*
X-8027040Y24996800D01*
X-8001000Y24994235D01*
X-7974960Y24996800D01*
X-4093115Y24996800D01*
X-3324199Y24227883D01*
X-3324200Y13348616D01*
X-4166490Y12506325D01*
X-4186721Y12489722D01*
X-4203323Y12469492D01*
X-4252977Y12408988D01*
X-4302210Y12316880D01*
X-4332527Y12216937D01*
X-4342765Y12113000D01*
X-4340199Y12086950D01*
X-4340199Y11816543D01*
X-4393063Y11800507D01*
X-4588710Y11695932D01*
X-4760197Y11555197D01*
X-4900932Y11383710D01*
X-5005507Y11188063D01*
X-5069905Y10975774D01*
X-5091649Y10755000D01*
X-5069905Y10534226D01*
X-5005507Y10321937D01*
X-4900932Y10126290D01*
X-4760197Y9954803D01*
X-4588710Y9814068D01*
X-4393063Y9709493D01*
X-4180774Y9645095D01*
X-4015325Y9628800D01*
X-3604675Y9628800D01*
X-3439226Y9645095D01*
X-3226937Y9709493D01*
X-3031290Y9814068D01*
X-2859803Y9954803D01*
X-2719068Y10126290D01*
X-2614493Y10321937D01*
X-2550095Y10534226D01*
X-2528351Y10755000D01*
X-2550095Y10975774D01*
X-2614493Y11188063D01*
X-2719068Y11383710D01*
X-2859803Y11555197D01*
X-3031290Y11695932D01*
X-3226937Y11800507D01*
X-3279800Y11816543D01*
X-3279800Y11893385D01*
X-2437509Y12735675D01*
X-2435200Y12737570D01*
X-2435200Y8785200D01*
X-2532464Y8785200D01*
X-2532464Y8855000D01*
X-2542600Y8957917D01*
X-2572620Y9056879D01*
X-2621370Y9148083D01*
X-2686976Y9228024D01*
X-2766917Y9293630D01*
X-2858121Y9342380D01*
X-2957083Y9372400D01*
X-3060000Y9382536D01*
X-4560000Y9382536D01*
X-4662917Y9372400D01*
X-4761879Y9342380D01*
X-4853083Y9293630D01*
X-4933024Y9228024D01*
X-4998630Y9148083D01*
X-5047380Y9056879D01*
X-5077400Y8957917D01*
X-5087536Y8855000D01*
X-5087536Y7655000D01*
X-5077400Y7552083D01*
X-5047380Y7453121D01*
X-4998630Y7361917D01*
X-4933024Y7281976D01*
X-4853083Y7216370D01*
X-4761879Y7167620D01*
X-4662917Y7137600D01*
X-4560000Y7127464D01*
X-3060000Y7127464D01*
X-2957083Y7137600D01*
X-2858121Y7167620D01*
X-2766917Y7216370D01*
X-2686976Y7281976D01*
X-2621370Y7361917D01*
X-2572620Y7453121D01*
X-2542600Y7552083D01*
X-2532464Y7655000D01*
X-2532464Y7724800D01*
X-2185040Y7724800D01*
X-2159000Y7722235D01*
X-2132960Y7724800D01*
X-2132957Y7724800D01*
X-2055063Y7732472D01*
X-1955120Y7762789D01*
X-1863012Y7812022D01*
X-1782278Y7878278D01*
X-1765671Y7898514D01*
X-1548510Y8115675D01*
X-1546200Y8117570D01*
X-1546200Y7458616D01*
X-1997615Y7007200D01*
X-4699384Y7007200D01*
X-6835800Y9143615D01*
X-6835800Y10133957D01*
X-6833235Y10160000D01*
X-6843472Y10263938D01*
X-6852669Y10294255D01*
X-6873789Y10363880D01*
X-6923022Y10455988D01*
X-6989278Y10536722D01*
X-7009509Y10553325D01*
X-7607671Y11151486D01*
X-7624278Y11171722D01*
X-7705012Y11237978D01*
X-7797120Y11287211D01*
X-7897063Y11317528D01*
X-7974957Y11325200D01*
X-7974960Y11325200D01*
X-8001000Y11327765D01*
X-8027040Y11325200D01*
X-9467464Y11325200D01*
X-9467464Y11845000D01*
X-9472797Y11899145D01*
X-9488590Y11951208D01*
X-9514237Y11999191D01*
X-9548752Y12041248D01*
X-9590809Y12075763D01*
X-9638792Y12101410D01*
X-9690855Y12117203D01*
X-9745000Y12122536D01*
X-11845000Y12122536D01*
X-11899145Y12117203D01*
X-11951208Y12101410D01*
X-11999191Y12075763D01*
X-12041248Y12041248D01*
X-12075763Y11999191D01*
X-12101410Y11951208D01*
X-12117203Y11899145D01*
X-12122536Y11845000D01*
X-14119001Y11845000D01*
X-14119001Y15906824D01*
X-11977519Y15906824D01*
X-11718346Y15664390D01*
X-11286332Y15509298D01*
X-10832362Y15441467D01*
X-10373882Y15463505D01*
X-9928511Y15574565D01*
X-9711654Y15664390D01*
X-9452481Y15906824D01*
X-10715000Y17169343D01*
X-11977519Y15906824D01*
X-14119001Y15906824D01*
X-14119001Y17897362D01*
X-13053533Y17897362D01*
X-13031495Y17438882D01*
X-12920435Y16993511D01*
X-12830610Y16776654D01*
X-12588176Y16517481D01*
X-11325657Y17780000D01*
X-10104343Y17780000D01*
X-8841824Y16517481D01*
X-8599390Y16776654D01*
X-8444298Y17208668D01*
X-8376467Y17662638D01*
X-8398505Y18121118D01*
X-8509565Y18566489D01*
X-8599390Y18783346D01*
X-8841824Y19042519D01*
X-10104343Y17780000D01*
X-11325657Y17780000D01*
X-12588176Y19042519D01*
X-12830610Y18783346D01*
X-12985702Y18351332D01*
X-13053533Y17897362D01*
X-14119001Y17897362D01*
X-14119001Y19653176D01*
X-11977519Y19653176D01*
X-10715000Y18390657D01*
X-9452481Y19653176D01*
X-9481157Y19680000D01*
X-7892536Y19680000D01*
X-7892536Y15880000D01*
X-7887203Y15825855D01*
X-7871410Y15773792D01*
X-7845763Y15725809D01*
X-7811248Y15683752D01*
X-7769191Y15649237D01*
X-7721208Y15623590D01*
X-7669145Y15607797D01*
X-7615000Y15602464D01*
X-3815000Y15602464D01*
X-3760855Y15607797D01*
X-3708792Y15623590D01*
X-3660809Y15649237D01*
X-3618752Y15683752D01*
X-3584237Y15725809D01*
X-3558590Y15773792D01*
X-3542797Y15825855D01*
X-3537464Y15880000D01*
X-3537464Y19680000D01*
X-3542797Y19734145D01*
X-3558590Y19786208D01*
X-3584237Y19834191D01*
X-3618752Y19876248D01*
X-3660809Y19910763D01*
X-3708792Y19936410D01*
X-3760855Y19952203D01*
X-3815000Y19957536D01*
X-7615000Y19957536D01*
X-7669145Y19952203D01*
X-7721208Y19936410D01*
X-7769191Y19910763D01*
X-7811248Y19876248D01*
X-7845763Y19834191D01*
X-7871410Y19786208D01*
X-7887203Y19734145D01*
X-7892536Y19680000D01*
X-9481157Y19680000D01*
X-9711654Y19895610D01*
X-10143668Y20050702D01*
X-10597638Y20118533D01*
X-11056118Y20096495D01*
X-11501489Y19985435D01*
X-11718346Y19895610D01*
X-11977519Y19653176D01*
X-14119001Y19653176D01*
X-14119001Y31019406D01*
X-9921743Y31019406D01*
X-9784748Y30829663D01*
X-9613369Y30670292D01*
X-9490591Y30588279D01*
X-9321800Y30596074D01*
X-9321800Y31188200D01*
X-8458200Y31188200D01*
X-8458200Y30596074D01*
X-8289409Y30588279D01*
X-8166631Y30670292D01*
X-7995252Y30829663D01*
X-7858257Y31019406D01*
X-7381743Y31019406D01*
X-7244748Y30829663D01*
X-7073369Y30670292D01*
X-6950591Y30588279D01*
X-6781800Y30596074D01*
X-6781800Y31188200D01*
X-5918200Y31188200D01*
X-5918200Y30596074D01*
X-5749409Y30588279D01*
X-5626631Y30670292D01*
X-5455252Y30829663D01*
X-5318257Y31019406D01*
X-4841743Y31019406D01*
X-4704748Y30829663D01*
X-4533369Y30670292D01*
X-4410591Y30588279D01*
X-4241800Y30596074D01*
X-4241800Y31188200D01*
X-3378200Y31188200D01*
X-3378200Y30596074D01*
X-3209409Y30588279D01*
X-3086631Y30670292D01*
X-2915252Y30829663D01*
X-2778257Y31019406D01*
X-2779556Y31188200D01*
X-3378200Y31188200D01*
X-4241800Y31188200D01*
X-4840444Y31188200D01*
X-4841743Y31019406D01*
X-5318257Y31019406D01*
X-5319556Y31188200D01*
X-5918200Y31188200D01*
X-6781800Y31188200D01*
X-7380444Y31188200D01*
X-7381743Y31019406D01*
X-7858257Y31019406D01*
X-7859556Y31188200D01*
X-8458200Y31188200D01*
X-9321800Y31188200D01*
X-9920444Y31188200D01*
X-9921743Y31019406D01*
X-14119001Y31019406D01*
X-14119001Y31620000D01*
X-2415315Y31620000D01*
X-2393308Y31396560D01*
X-2328133Y31181707D01*
X-2222295Y30983697D01*
X-2079860Y30810140D01*
X-1906303Y30667705D01*
X-1708293Y30561867D01*
X-1493440Y30496692D01*
X-1325995Y30480200D01*
X-1214005Y30480200D01*
X-1046560Y30496692D01*
X-831707Y30561867D01*
X-633697Y30667705D01*
X-460140Y30810140D01*
X-317705Y30983697D01*
X-211867Y31181707D01*
X-146692Y31396560D01*
X-124685Y31620000D01*
X124685Y31620000D01*
X146692Y31396560D01*
X211867Y31181707D01*
X317705Y30983697D01*
X460140Y30810140D01*
X633697Y30667705D01*
X831707Y30561867D01*
X1046560Y30496692D01*
X1214005Y30480200D01*
X1325995Y30480200D01*
X1493440Y30496692D01*
X1708293Y30561867D01*
X1906303Y30667705D01*
X2079860Y30810140D01*
X2222295Y30983697D01*
X2328133Y31181707D01*
X2393308Y31396560D01*
X2415315Y31620000D01*
X2664685Y31620000D01*
X2686692Y31396560D01*
X2751867Y31181707D01*
X2857705Y30983697D01*
X3000140Y30810140D01*
X3173697Y30667705D01*
X3371707Y30561867D01*
X3586560Y30496692D01*
X3754005Y30480200D01*
X3865995Y30480200D01*
X4033440Y30496692D01*
X4248293Y30561867D01*
X4446303Y30667705D01*
X4619860Y30810140D01*
X4762295Y30983697D01*
X4868133Y31181707D01*
X4933308Y31396560D01*
X4955315Y31620000D01*
X5204685Y31620000D01*
X5226692Y31396560D01*
X5291867Y31181707D01*
X5397705Y30983697D01*
X5540140Y30810140D01*
X5713697Y30667705D01*
X5911707Y30561867D01*
X6126560Y30496692D01*
X6294005Y30480200D01*
X6405995Y30480200D01*
X6573440Y30496692D01*
X6788293Y30561867D01*
X6986303Y30667705D01*
X7159860Y30810140D01*
X7302295Y30983697D01*
X7408133Y31181707D01*
X7473308Y31396560D01*
X7495315Y31620000D01*
X7473308Y31843440D01*
X7408133Y32058293D01*
X7302295Y32256303D01*
X7159860Y32429860D01*
X7007200Y32555145D01*
X7007200Y32620779D01*
X7384221Y32997800D01*
X10459280Y32997800D01*
X11534801Y31922278D01*
X11534801Y31457448D01*
X11532111Y31466316D01*
X11471085Y31580487D01*
X11388958Y31680558D01*
X11363884Y31701136D01*
X11003136Y32061884D01*
X10982558Y32086958D01*
X10882487Y32169085D01*
X10768316Y32230111D01*
X10644434Y32267690D01*
X10547877Y32277200D01*
X10547869Y32277200D01*
X10515600Y32280378D01*
X10483331Y32277200D01*
X10031136Y32277200D01*
X10031136Y32483600D01*
X10025803Y32537745D01*
X10010010Y32589808D01*
X9984363Y32637791D01*
X9949848Y32679848D01*
X9907791Y32714363D01*
X9859808Y32740010D01*
X9807745Y32755803D01*
X9753600Y32761136D01*
X8026400Y32761136D01*
X7972255Y32755803D01*
X7920192Y32740010D01*
X7872209Y32714363D01*
X7830152Y32679848D01*
X7795637Y32637791D01*
X7769990Y32589808D01*
X7754197Y32537745D01*
X7748864Y32483600D01*
X7748864Y30756400D01*
X7754197Y30702255D01*
X7769990Y30650192D01*
X7795637Y30602209D01*
X7830152Y30560152D01*
X7872209Y30525637D01*
X7920192Y30499990D01*
X7972255Y30484197D01*
X8026400Y30478864D01*
X9753600Y30478864D01*
X9807745Y30484197D01*
X9859808Y30499990D01*
X9907791Y30525637D01*
X9949848Y30560152D01*
X9984363Y30602209D01*
X10010010Y30650192D01*
X10025803Y30702255D01*
X10031136Y30756400D01*
X10031136Y30962800D01*
X10243380Y30962800D01*
X10264801Y30941379D01*
X10264800Y21989221D01*
X7853111Y19577531D01*
X7828043Y19556958D01*
X7807470Y19531890D01*
X7807467Y19531887D01*
X7745915Y19456886D01*
X7684890Y19342716D01*
X7647310Y19218833D01*
X7634622Y19090000D01*
X7637801Y19057721D01*
X7637801Y18187551D01*
X7494804Y18070197D01*
X7354068Y17898710D01*
X7249493Y17703063D01*
X7185095Y17490774D01*
X7168800Y17325325D01*
X7168800Y16964676D01*
X7185095Y16799227D01*
X7249493Y16586938D01*
X7354068Y16391290D01*
X7494803Y16219803D01*
X7666290Y16079068D01*
X7861937Y15974493D01*
X8074226Y15910095D01*
X8295000Y15888351D01*
X8515773Y15910095D01*
X8728062Y15974493D01*
X8923710Y16079068D01*
X9095197Y16219803D01*
X9235932Y16391290D01*
X9340507Y16586937D01*
X9404905Y16799226D01*
X9421200Y16964675D01*
X9421200Y17325324D01*
X9404905Y17490773D01*
X9340507Y17703062D01*
X9235932Y17898710D01*
X9095197Y18070197D01*
X8952200Y18187551D01*
X8952200Y18817780D01*
X10178686Y20044266D01*
X10147310Y19940833D01*
X10134622Y19812000D01*
X10137801Y19779721D01*
X10137800Y18391903D01*
X10092083Y18387400D01*
X9993121Y18357380D01*
X9901917Y18308630D01*
X9821976Y18243024D01*
X9756370Y18163083D01*
X9707620Y18071879D01*
X9677600Y17972917D01*
X9667464Y17870000D01*
X9667464Y16420000D01*
X9677600Y16317083D01*
X9707620Y16218121D01*
X9756370Y16126917D01*
X9821976Y16046976D01*
X9901917Y15981370D01*
X9993121Y15932620D01*
X10092083Y15902600D01*
X10195000Y15892464D01*
X11395000Y15892464D01*
X11497917Y15902600D01*
X11596879Y15932620D01*
X11688083Y15981370D01*
X11768024Y16046976D01*
X11833630Y16126917D01*
X11882380Y16218121D01*
X11912400Y16317083D01*
X11922536Y16420000D01*
X11922536Y17870000D01*
X11912400Y17972917D01*
X11882380Y18071879D01*
X11833630Y18163083D01*
X11768024Y18243024D01*
X11688083Y18308630D01*
X11596879Y18357380D01*
X11497917Y18387400D01*
X11452200Y18391903D01*
X11452200Y19539780D01*
X12633891Y20721470D01*
X12658958Y20742042D01*
X12741085Y20842113D01*
X12802111Y20956284D01*
X12839690Y21080166D01*
X12849200Y21176723D01*
X12849200Y21176732D01*
X12852378Y21208999D01*
X12849200Y21241266D01*
X12849200Y32162231D01*
X12852378Y32194500D01*
X12849200Y32226769D01*
X12849200Y32226777D01*
X12839690Y32323334D01*
X12802111Y32447216D01*
X12741085Y32561387D01*
X12658958Y32661458D01*
X12633890Y32682031D01*
X11219035Y34096885D01*
X11198458Y34121958D01*
X11098387Y34204085D01*
X10984216Y34265111D01*
X10860334Y34302690D01*
X10763777Y34312200D01*
X10763769Y34312200D01*
X10731500Y34315378D01*
X10699231Y34312200D01*
X7144269Y34312200D01*
X7112000Y34315378D01*
X7079731Y34312200D01*
X7079723Y34312200D01*
X6983166Y34302690D01*
X6859283Y34265111D01*
X6745113Y34204085D01*
X6670112Y34142534D01*
X6670104Y34142526D01*
X6645042Y34121958D01*
X6624473Y34096895D01*
X5908115Y33380535D01*
X5883042Y33359958D01*
X5800915Y33259886D01*
X5739889Y33145715D01*
X5702310Y33021833D01*
X5692800Y32925276D01*
X5692800Y32925269D01*
X5689622Y32893000D01*
X5692800Y32860730D01*
X5692800Y32555145D01*
X5540140Y32429860D01*
X5397705Y32256303D01*
X5291867Y32058293D01*
X5226692Y31843440D01*
X5204685Y31620000D01*
X4955315Y31620000D01*
X4933308Y31843440D01*
X4868133Y32058293D01*
X4762295Y32256303D01*
X4619860Y32429860D01*
X4446303Y32572295D01*
X4248293Y32678133D01*
X4033440Y32743308D01*
X3865995Y32759800D01*
X3754005Y32759800D01*
X3586560Y32743308D01*
X3371707Y32678133D01*
X3173697Y32572295D01*
X3000140Y32429860D01*
X2857705Y32256303D01*
X2751867Y32058293D01*
X2686692Y31843440D01*
X2664685Y31620000D01*
X2415315Y31620000D01*
X2393308Y31843440D01*
X2328133Y32058293D01*
X2222295Y32256303D01*
X2079860Y32429860D01*
X1906303Y32572295D01*
X1708293Y32678133D01*
X1493440Y32743308D01*
X1325995Y32759800D01*
X1214005Y32759800D01*
X1046560Y32743308D01*
X831707Y32678133D01*
X633697Y32572295D01*
X460140Y32429860D01*
X317705Y32256303D01*
X211867Y32058293D01*
X146692Y31843440D01*
X124685Y31620000D01*
X-124685Y31620000D01*
X-146692Y31843440D01*
X-211867Y32058293D01*
X-317705Y32256303D01*
X-460140Y32429860D01*
X-633697Y32572295D01*
X-831707Y32678133D01*
X-1046560Y32743308D01*
X-1214005Y32759800D01*
X-1325995Y32759800D01*
X-1493440Y32743308D01*
X-1708293Y32678133D01*
X-1906303Y32572295D01*
X-2079860Y32429860D01*
X-2222295Y32256303D01*
X-2328133Y32058293D01*
X-2393308Y31843440D01*
X-2415315Y31620000D01*
X-14119001Y31620000D01*
X-14119001Y32220594D01*
X-9921743Y32220594D01*
X-9920444Y32051800D01*
X-9321800Y32051800D01*
X-9321800Y32643926D01*
X-8458200Y32643926D01*
X-8458200Y32051800D01*
X-7859556Y32051800D01*
X-7858257Y32220594D01*
X-7381743Y32220594D01*
X-7380444Y32051800D01*
X-6781800Y32051800D01*
X-6781800Y32643926D01*
X-5918200Y32643926D01*
X-5918200Y32051800D01*
X-5319556Y32051800D01*
X-5318257Y32220594D01*
X-4841743Y32220594D01*
X-4840444Y32051800D01*
X-4241800Y32051800D01*
X-4241800Y32643926D01*
X-3378200Y32643926D01*
X-3378200Y32051800D01*
X-2779556Y32051800D01*
X-2778257Y32220594D01*
X-2915252Y32410337D01*
X-3086631Y32569708D01*
X-3209409Y32651721D01*
X-3378200Y32643926D01*
X-4241800Y32643926D01*
X-4410591Y32651721D01*
X-4533369Y32569708D01*
X-4704748Y32410337D01*
X-4841743Y32220594D01*
X-5318257Y32220594D01*
X-5455252Y32410337D01*
X-5626631Y32569708D01*
X-5749409Y32651721D01*
X-5918200Y32643926D01*
X-6781800Y32643926D01*
X-6950591Y32651721D01*
X-7073369Y32569708D01*
X-7244748Y32410337D01*
X-7381743Y32220594D01*
X-7858257Y32220594D01*
X-7995252Y32410337D01*
X-8166631Y32569708D01*
X-8289409Y32651721D01*
X-8458200Y32643926D01*
X-9321800Y32643926D01*
X-9490591Y32651721D01*
X-9613369Y32569708D01*
X-9784748Y32410337D01*
X-9921743Y32220594D01*
X-14119001Y32220594D01*
X-14119001Y44842376D01*
X-12476200Y44842376D01*
X-12476200Y44157624D01*
X-12342612Y43486030D01*
X-12080569Y42853402D01*
X-11700141Y42284052D01*
X-11215948Y41799859D01*
X-10646598Y41419431D01*
X-10013970Y41157388D01*
X-9342376Y41023800D01*
X-8657624Y41023800D01*
X-7986030Y41157388D01*
X-7353402Y41419431D01*
X-6784052Y41799859D01*
X-6299859Y42284052D01*
X-5919431Y42853402D01*
X-5657388Y43486030D01*
X-5523800Y44157624D01*
X-5523800Y44842376D01*
X5523800Y44842376D01*
X5523800Y44157624D01*
X5657388Y43486030D01*
X5919431Y42853402D01*
X6299859Y42284052D01*
X6784052Y41799859D01*
X7353402Y41419431D01*
X7986030Y41157388D01*
X8657624Y41023800D01*
X9342376Y41023800D01*
X10013970Y41157388D01*
X10646598Y41419431D01*
X11215948Y41799859D01*
X11700141Y42284052D01*
X12080569Y42853402D01*
X12342612Y43486030D01*
X12476200Y44157624D01*
X12476200Y44842376D01*
X12342612Y45513970D01*
X12080569Y46146598D01*
X11700141Y46715948D01*
X11215948Y47200141D01*
X10646598Y47580569D01*
X10013970Y47842612D01*
X9342376Y47976200D01*
X8657624Y47976200D01*
X7986030Y47842612D01*
X7353402Y47580569D01*
X6784052Y47200141D01*
X6299859Y46715948D01*
X5919431Y46146598D01*
X5657388Y45513970D01*
X5523800Y44842376D01*
X-5523800Y44842376D01*
X-5657388Y45513970D01*
X-5919431Y46146598D01*
X-6299859Y46715948D01*
X-6784052Y47200141D01*
X-7353402Y47580569D01*
X-7986030Y47842612D01*
X-8657624Y47976200D01*
X-9342376Y47976200D01*
X-10013970Y47842612D01*
X-10646598Y47580569D01*
X-11215948Y47200141D01*
X-11700141Y46715948D01*
X-12080569Y46146598D01*
X-12342612Y45513970D01*
X-12476200Y44842376D01*
X-14119001Y44842376D01*
X-14119001Y48981360D01*
X-14105419Y49119876D01*
X-14070606Y49235185D01*
X-14014058Y49341537D01*
X-13937927Y49434883D01*
X-13845119Y49511660D01*
X-13739163Y49568951D01*
X-13624102Y49604568D01*
X-13486783Y49619001D01*
X13481362Y49619001D01*
X13619877Y49605419D01*
X13619877Y49605419D01*
G37*
X13619877Y49605419D02*
X13735187Y49570605D01*
X13841540Y49514056D01*
X13934884Y49437926D01*
X14011659Y49345121D01*
X14068951Y49239162D01*
X14104568Y49124102D01*
X14119002Y48986773D01*
X14119001Y1018629D01*
X14105420Y880124D01*
X14070606Y764814D01*
X14014057Y658460D01*
X13937927Y565117D01*
X13845122Y488341D01*
X13739163Y431049D01*
X13624103Y395432D01*
X13486782Y380999D01*
X-13481362Y380999D01*
X-13619876Y394581D01*
X-13735189Y429395D01*
X-13841537Y485942D01*
X-13934883Y562072D01*
X-14011660Y654880D01*
X-14068951Y760837D01*
X-14104568Y875897D01*
X-14119001Y1013218D01*
X-14119001Y4047500D01*
X-7392536Y4047500D01*
X-7392536Y3572500D01*
X-7382640Y3472021D01*
X-7353331Y3375404D01*
X-7305737Y3286361D01*
X-7241685Y3208315D01*
X-7163639Y3144263D01*
X-7120200Y3121044D01*
X-7120199Y2593956D01*
X-7163639Y2570737D01*
X-7241685Y2506685D01*
X-7305737Y2428639D01*
X-7353331Y2339596D01*
X-7382640Y2242979D01*
X-7392536Y2142500D01*
X-7392536Y1667500D01*
X-7382640Y1567021D01*
X-7353331Y1470404D01*
X-7305737Y1381361D01*
X-7241685Y1303315D01*
X-7163639Y1239263D01*
X-7074596Y1191669D01*
X-6977979Y1162360D01*
X-6877500Y1152464D01*
X-6302500Y1152464D01*
X-6202021Y1162360D01*
X-6105404Y1191669D01*
X-6016361Y1239263D01*
X-5938315Y1303315D01*
X-5874263Y1381361D01*
X-5851660Y1423650D01*
X-5695200Y1423650D01*
X-5690121Y1363773D01*
X-5670954Y1301617D01*
X-5640029Y1244396D01*
X-5598535Y1194306D01*
X-5548066Y1153275D01*
X-5490562Y1122878D01*
X-5428233Y1104283D01*
X-5363473Y1098206D01*
X-5354350Y1099800D01*
X-5271800Y1182350D01*
X-5271800Y1506200D01*
X-4408200Y1506200D01*
X-4408200Y1182350D01*
X-4325650Y1099800D01*
X-4316527Y1098206D01*
X-4251767Y1104283D01*
X-4189438Y1122878D01*
X-4131934Y1153275D01*
X-4081465Y1194306D01*
X-4039971Y1244396D01*
X-4009046Y1301617D01*
X-3989879Y1363773D01*
X-3984800Y1423650D01*
X-4067350Y1506200D01*
X-4408200Y1506200D01*
X-5271800Y1506200D01*
X-5612650Y1506200D01*
X-5695200Y1423650D01*
X-5851660Y1423650D01*
X-5826669Y1470404D01*
X-5797360Y1567021D01*
X-5787464Y1667500D01*
X-5787464Y2142500D01*
X-5797360Y2242979D01*
X-5826669Y2339596D01*
X-5851659Y2386350D01*
X-5695200Y2386350D01*
X-5612650Y2303800D01*
X-5271800Y2303800D01*
X-5271800Y2627650D01*
X-4408200Y2627650D01*
X-4408200Y2303800D01*
X-4067350Y2303800D01*
X-3984800Y2386350D01*
X-3989879Y2446227D01*
X-4009046Y2508383D01*
X-4039971Y2565604D01*
X-4081465Y2615694D01*
X-4131934Y2656725D01*
X-4189438Y2687122D01*
X-4251767Y2705717D01*
X-4316527Y2711794D01*
X-4325650Y2710200D01*
X-4408200Y2627650D01*
X-5271800Y2627650D01*
X-5354350Y2710200D01*
X-5363473Y2711794D01*
X-5428233Y2705717D01*
X-5490562Y2687122D01*
X-5548066Y2656725D01*
X-5598535Y2615694D01*
X-5640029Y2565604D01*
X-5670954Y2508383D01*
X-5690121Y2446227D01*
X-5695200Y2386350D01*
X-5851659Y2386350D01*
X-5874263Y2428639D01*
X-5938315Y2506685D01*
X-6016361Y2570737D01*
X-6059800Y2593955D01*
X-6059800Y3121045D01*
X-6016361Y3144263D01*
X-5938315Y3208315D01*
X-5874263Y3286361D01*
X-5826669Y3375404D01*
X-5797360Y3472021D01*
X-5787464Y3572500D01*
X-5787464Y4047500D01*
X-5642536Y4047500D01*
X-5642536Y3572500D01*
X-5632640Y3472021D01*
X-5603331Y3375404D01*
X-5555737Y3286361D01*
X-5491685Y3208315D01*
X-5413639Y3144263D01*
X-5324596Y3096669D01*
X-5227979Y3067360D01*
X-5127500Y3057464D01*
X-4552500Y3057464D01*
X-4452021Y3067360D01*
X-4355404Y3096669D01*
X-4266361Y3144263D01*
X-4188315Y3208315D01*
X-4129648Y3279800D01*
X-4106627Y3279800D01*
X-4003301Y3210759D01*
X-3880240Y3159786D01*
X-3749600Y3133800D01*
X-3616400Y3133800D01*
X-3485760Y3159786D01*
X-3362699Y3210759D01*
X-3251948Y3284761D01*
X-3157761Y3378948D01*
X-3083759Y3489699D01*
X-3032786Y3612760D01*
X-3006800Y3743400D01*
X-3006800Y3876600D01*
X-3032786Y4007240D01*
X-3049462Y4047500D01*
X-1677536Y4047500D01*
X-1677536Y3572500D01*
X-1667640Y3472021D01*
X-1638331Y3375404D01*
X-1590737Y3286361D01*
X-1526685Y3208315D01*
X-1448639Y3144263D01*
X-1405200Y3121044D01*
X-1405199Y2593956D01*
X-1448639Y2570737D01*
X-1526685Y2506685D01*
X-1590737Y2428639D01*
X-1638331Y2339596D01*
X-1667640Y2242979D01*
X-1677536Y2142500D01*
X-1677536Y1667500D01*
X-1667640Y1567021D01*
X-1638331Y1470404D01*
X-1590737Y1381361D01*
X-1526685Y1303315D01*
X-1448639Y1239263D01*
X-1359596Y1191669D01*
X-1262979Y1162360D01*
X-1162500Y1152464D01*
X-587500Y1152464D01*
X-487021Y1162360D01*
X-390404Y1191669D01*
X-301361Y1239263D01*
X-223315Y1303315D01*
X-159263Y1381361D01*
X-136660Y1423650D01*
X19800Y1423650D01*
X24879Y1363773D01*
X44046Y1301617D01*
X74971Y1244396D01*
X116465Y1194306D01*
X166934Y1153275D01*
X224438Y1122878D01*
X286767Y1104283D01*
X351527Y1098206D01*
X360650Y1099800D01*
X443200Y1182350D01*
X443200Y1506200D01*
X1306800Y1506200D01*
X1306800Y1182350D01*
X1389350Y1099800D01*
X1398473Y1098206D01*
X1463233Y1104283D01*
X1525562Y1122878D01*
X1583066Y1153275D01*
X1633535Y1194306D01*
X1675029Y1244396D01*
X1705954Y1301617D01*
X1725121Y1363773D01*
X1730200Y1423650D01*
X1647650Y1506200D01*
X1306800Y1506200D01*
X443200Y1506200D01*
X102350Y1506200D01*
X19800Y1423650D01*
X-136660Y1423650D01*
X-111669Y1470404D01*
X-82360Y1567021D01*
X-72464Y1667500D01*
X-72464Y2142500D01*
X-82360Y2242979D01*
X-111669Y2339596D01*
X-136659Y2386350D01*
X19800Y2386350D01*
X102350Y2303800D01*
X443200Y2303800D01*
X443200Y2627650D01*
X1306800Y2627650D01*
X1306800Y2303800D01*
X1647650Y2303800D01*
X1730200Y2386350D01*
X1725121Y2446227D01*
X1705954Y2508383D01*
X1675029Y2565604D01*
X1633535Y2615694D01*
X1583066Y2656725D01*
X1525562Y2687122D01*
X1463233Y2705717D01*
X1398473Y2711794D01*
X1389350Y2710200D01*
X1306800Y2627650D01*
X443200Y2627650D01*
X360650Y2710200D01*
X351527Y2711794D01*
X286767Y2705717D01*
X224438Y2687122D01*
X166934Y2656725D01*
X116465Y2615694D01*
X74971Y2565604D01*
X44046Y2508383D01*
X24879Y2446227D01*
X19800Y2386350D01*
X-136659Y2386350D01*
X-159263Y2428639D01*
X-223315Y2506685D01*
X-301361Y2570737D01*
X-344800Y2593955D01*
X-344800Y3121045D01*
X-301361Y3144263D01*
X-223315Y3208315D01*
X-159263Y3286361D01*
X-111669Y3375404D01*
X-82360Y3472021D01*
X-72464Y3572500D01*
X-72464Y4047500D01*
X-82360Y4147979D01*
X-111669Y4244596D01*
X-159263Y4333639D01*
X-223315Y4411685D01*
X-301361Y4475737D01*
X-390404Y4523331D01*
X-487021Y4552640D01*
X-587500Y4562536D01*
X-1162500Y4562536D01*
X-1262979Y4552640D01*
X-1359596Y4523331D01*
X-1448639Y4475737D01*
X-1526685Y4411685D01*
X-1590737Y4333639D01*
X-1638331Y4244596D01*
X-1667640Y4147979D01*
X-1677536Y4047500D01*
X-3049462Y4047500D01*
X-3083759Y4130301D01*
X-3157761Y4241052D01*
X-3251948Y4335239D01*
X-3362699Y4409241D01*
X-3485760Y4460214D01*
X-3616400Y4486200D01*
X-3749600Y4486200D01*
X-3880240Y4460214D01*
X-4003301Y4409241D01*
X-4106627Y4340200D01*
X-4129648Y4340200D01*
X-4188315Y4411685D01*
X-4266361Y4475737D01*
X-4355404Y4523331D01*
X-4452021Y4552640D01*
X-4552500Y4562536D01*
X-5127500Y4562536D01*
X-5227979Y4552640D01*
X-5324596Y4523331D01*
X-5413639Y4475737D01*
X-5491685Y4411685D01*
X-5555737Y4333639D01*
X-5603331Y4244596D01*
X-5632640Y4147979D01*
X-5642536Y4047500D01*
X-5787464Y4047500D01*
X-5797360Y4147979D01*
X-5826669Y4244596D01*
X-5874263Y4333639D01*
X-5938315Y4411685D01*
X-6016361Y4475737D01*
X-6105404Y4523331D01*
X-6202021Y4552640D01*
X-6302500Y4562536D01*
X-6877500Y4562536D01*
X-6977979Y4552640D01*
X-7074596Y4523331D01*
X-7163639Y4475737D01*
X-7241685Y4411685D01*
X-7305737Y4333639D01*
X-7353331Y4244596D01*
X-7382640Y4147979D01*
X-7392536Y4047500D01*
X-14119001Y4047500D01*
X-14119001Y11845000D01*
X-12122536Y11845000D01*
X-12122536Y9745000D01*
X-12117203Y9690855D01*
X-12101410Y9638792D01*
X-12075763Y9590809D01*
X-12041248Y9548752D01*
X-11999191Y9514237D01*
X-11951208Y9488590D01*
X-11899145Y9472797D01*
X-11845000Y9467464D01*
X-11333380Y9467464D01*
X-11423191Y9430263D01*
X-11640403Y9285127D01*
X-11825127Y9100403D01*
X-11970263Y8883191D01*
X-12070235Y8641838D01*
X-12121200Y8385619D01*
X-12121200Y8124381D01*
X-12070235Y7868162D01*
X-11970263Y7626809D01*
X-11825127Y7409597D01*
X-11640403Y7224873D01*
X-11423191Y7079737D01*
X-11181838Y6979765D01*
X-10925619Y6928800D01*
X-10664381Y6928800D01*
X-10408162Y6979765D01*
X-10166809Y7079737D01*
X-9949597Y7224873D01*
X-9764873Y7409597D01*
X-9619737Y7626809D01*
X-9579148Y7724800D01*
X-7966615Y7724800D01*
X-5600325Y5358509D01*
X-5583722Y5338278D01*
X-5502988Y5272022D01*
X-5410880Y5222789D01*
X-5310937Y5192472D01*
X-5233043Y5184800D01*
X-5233041Y5184800D01*
X-5207001Y5182235D01*
X-5180961Y5184800D01*
X-1296040Y5184800D01*
X-1270000Y5182235D01*
X-1243960Y5184800D01*
X-1243957Y5184800D01*
X-1166063Y5192472D01*
X-1066120Y5222789D01*
X-974012Y5272022D01*
X-893278Y5338278D01*
X-876671Y5358514D01*
X229491Y6464675D01*
X249722Y6481278D01*
X315978Y6562012D01*
X365211Y6654120D01*
X395528Y6754063D01*
X403200Y6831957D01*
X403200Y6831959D01*
X405765Y6857999D01*
X403200Y6884039D01*
X403200Y7405000D01*
X1843202Y7405000D01*
X1849577Y7340269D01*
X1868459Y7278026D01*
X1899120Y7220663D01*
X1940383Y7170383D01*
X1990663Y7129120D01*
X2048026Y7098459D01*
X2110269Y7079577D01*
X2175000Y7073202D01*
X2660650Y7074800D01*
X2743200Y7157350D01*
X2743200Y7823200D01*
X3606800Y7823200D01*
X3606800Y7157350D01*
X3689350Y7074800D01*
X4175000Y7073202D01*
X4239731Y7079577D01*
X4301974Y7098459D01*
X4359337Y7129120D01*
X4409617Y7170383D01*
X4450880Y7220663D01*
X4481541Y7278026D01*
X4500423Y7340269D01*
X4506798Y7405000D01*
X4505200Y7740650D01*
X4422650Y7823200D01*
X3606800Y7823200D01*
X2743200Y7823200D01*
X1927350Y7823200D01*
X1844800Y7740650D01*
X1843202Y7405000D01*
X403200Y7405000D01*
X403200Y9105000D01*
X1843202Y9105000D01*
X1844800Y8769350D01*
X1927350Y8686800D01*
X2743200Y8686800D01*
X2743200Y9352650D01*
X3606800Y9352650D01*
X3606800Y8686800D01*
X4422650Y8686800D01*
X4505200Y8769350D01*
X4506798Y9105000D01*
X4500423Y9169731D01*
X4481541Y9231974D01*
X4450880Y9289337D01*
X4409617Y9339617D01*
X4359337Y9380880D01*
X4301974Y9411541D01*
X4239731Y9430423D01*
X4175000Y9436798D01*
X3689350Y9435200D01*
X3606800Y9352650D01*
X2743200Y9352650D01*
X2660650Y9435200D01*
X2175000Y9436798D01*
X2110269Y9430423D01*
X2048026Y9411541D01*
X1990663Y9380880D01*
X1940383Y9339617D01*
X1899120Y9289337D01*
X1868459Y9231974D01*
X1849577Y9169731D01*
X1843202Y9105000D01*
X403200Y9105000D01*
X403200Y15420070D01*
X405514Y15418171D01*
X2644801Y13178883D01*
X2644800Y11816543D01*
X2591937Y11800507D01*
X2396290Y11695932D01*
X2224803Y11555197D01*
X2084068Y11383710D01*
X1979493Y11188063D01*
X1915095Y10975774D01*
X1893351Y10755000D01*
X1915095Y10534226D01*
X1979493Y10321937D01*
X2084068Y10126290D01*
X2224803Y9954803D01*
X2396290Y9814068D01*
X2591937Y9709493D01*
X2804226Y9645095D01*
X2969675Y9628800D01*
X3380325Y9628800D01*
X3545774Y9645095D01*
X3758063Y9709493D01*
X3953710Y9814068D01*
X4125197Y9954803D01*
X4265932Y10126290D01*
X4318586Y10224800D01*
X4646385Y10224800D01*
X5184801Y9686383D01*
X5184800Y5553616D01*
X5114385Y5483200D01*
X4217039Y5483200D01*
X4190999Y5485765D01*
X4164959Y5483200D01*
X4164957Y5483200D01*
X4087063Y5475528D01*
X3987120Y5445211D01*
X3895012Y5395978D01*
X3814278Y5329722D01*
X3797676Y5309492D01*
X2828385Y4340200D01*
X1585352Y4340200D01*
X1526685Y4411685D01*
X1448639Y4475737D01*
X1359596Y4523331D01*
X1262979Y4552640D01*
X1162500Y4562536D01*
X587500Y4562536D01*
X487021Y4552640D01*
X390404Y4523331D01*
X301361Y4475737D01*
X223315Y4411685D01*
X159263Y4333639D01*
X111669Y4244596D01*
X82360Y4147979D01*
X72464Y4047500D01*
X72464Y3572500D01*
X82360Y3472021D01*
X111669Y3375404D01*
X159263Y3286361D01*
X223315Y3208315D01*
X301361Y3144263D01*
X390404Y3096669D01*
X487021Y3067360D01*
X587500Y3057464D01*
X1162500Y3057464D01*
X1262979Y3067360D01*
X1359596Y3096669D01*
X1448639Y3144263D01*
X1526685Y3208315D01*
X1585352Y3279800D01*
X3021960Y3279800D01*
X3048000Y3277235D01*
X3074040Y3279800D01*
X3074043Y3279800D01*
X3151937Y3287472D01*
X3251880Y3317789D01*
X3343988Y3367022D01*
X3424722Y3433278D01*
X3441329Y3453514D01*
X4037699Y4049883D01*
X4037464Y4047500D01*
X4037464Y3572500D01*
X4047360Y3472021D01*
X4076669Y3375404D01*
X4124263Y3286361D01*
X4188315Y3208315D01*
X4266361Y3144263D01*
X4309800Y3121044D01*
X4309801Y2593956D01*
X4266361Y2570737D01*
X4188315Y2506685D01*
X4124263Y2428639D01*
X4076669Y2339596D01*
X4047360Y2242979D01*
X4037464Y2142500D01*
X4037464Y1667500D01*
X4047360Y1567021D01*
X4076669Y1470404D01*
X4124263Y1381361D01*
X4188315Y1303315D01*
X4266361Y1239263D01*
X4355404Y1191669D01*
X4452021Y1162360D01*
X4552500Y1152464D01*
X5127500Y1152464D01*
X5227979Y1162360D01*
X5324596Y1191669D01*
X5413639Y1239263D01*
X5491685Y1303315D01*
X5555737Y1381361D01*
X5578340Y1423650D01*
X5734800Y1423650D01*
X5739879Y1363773D01*
X5759046Y1301617D01*
X5789971Y1244396D01*
X5831465Y1194306D01*
X5881934Y1153275D01*
X5939438Y1122878D01*
X6001767Y1104283D01*
X6066527Y1098206D01*
X6075650Y1099800D01*
X6158200Y1182350D01*
X6158200Y1506200D01*
X7021800Y1506200D01*
X7021800Y1182350D01*
X7104350Y1099800D01*
X7113473Y1098206D01*
X7178233Y1104283D01*
X7240562Y1122878D01*
X7298066Y1153275D01*
X7348535Y1194306D01*
X7390029Y1244396D01*
X7420954Y1301617D01*
X7440121Y1363773D01*
X7445200Y1423650D01*
X7362650Y1506200D01*
X7021800Y1506200D01*
X6158200Y1506200D01*
X5817350Y1506200D01*
X5734800Y1423650D01*
X5578340Y1423650D01*
X5603331Y1470404D01*
X5632640Y1567021D01*
X5642536Y1667500D01*
X5642536Y2142500D01*
X5632640Y2242979D01*
X5603331Y2339596D01*
X5578341Y2386350D01*
X5734800Y2386350D01*
X5817350Y2303800D01*
X6158200Y2303800D01*
X6158200Y2627650D01*
X7021800Y2627650D01*
X7021800Y2303800D01*
X7362650Y2303800D01*
X7445200Y2386350D01*
X7440121Y2446227D01*
X7420954Y2508383D01*
X7390029Y2565604D01*
X7348535Y2615694D01*
X7298066Y2656725D01*
X7240562Y2687122D01*
X7178233Y2705717D01*
X7113473Y2711794D01*
X7104350Y2710200D01*
X7021800Y2627650D01*
X6158200Y2627650D01*
X6075650Y2710200D01*
X6066527Y2711794D01*
X6001767Y2705717D01*
X5939438Y2687122D01*
X5881934Y2656725D01*
X5831465Y2615694D01*
X5789971Y2565604D01*
X5759046Y2508383D01*
X5739879Y2446227D01*
X5734800Y2386350D01*
X5578341Y2386350D01*
X5555737Y2428639D01*
X5491685Y2506685D01*
X5413639Y2570737D01*
X5370200Y2593955D01*
X5370200Y3121045D01*
X5413639Y3144263D01*
X5491685Y3208315D01*
X5555737Y3286361D01*
X5603331Y3375404D01*
X5632640Y3472021D01*
X5642536Y3572500D01*
X5642536Y4047500D01*
X5632640Y4147979D01*
X5603331Y4244596D01*
X5555737Y4333639D01*
X5491685Y4411685D01*
X5460466Y4437306D01*
X5537880Y4460789D01*
X5629988Y4510022D01*
X5710722Y4576278D01*
X5727329Y4596514D01*
X6059800Y4928984D01*
X6059800Y4498955D01*
X6016361Y4475737D01*
X5938315Y4411685D01*
X5874263Y4333639D01*
X5826669Y4244596D01*
X5797360Y4147979D01*
X5787464Y4047500D01*
X5787464Y3572500D01*
X5797360Y3472021D01*
X5826669Y3375404D01*
X5874263Y3286361D01*
X5938315Y3208315D01*
X6016361Y3144263D01*
X6105404Y3096669D01*
X6202021Y3067360D01*
X6302500Y3057464D01*
X6877500Y3057464D01*
X6977979Y3067360D01*
X7074596Y3096669D01*
X7163639Y3144263D01*
X7241685Y3208315D01*
X7305737Y3286361D01*
X7353331Y3375404D01*
X7382640Y3472021D01*
X7392536Y3572500D01*
X7392536Y4047500D01*
X7382640Y4147979D01*
X7353331Y4244596D01*
X7305737Y4333639D01*
X7241685Y4411685D01*
X7163639Y4475737D01*
X7120200Y4498955D01*
X7120200Y7405000D01*
X8828202Y7405000D01*
X8834577Y7340269D01*
X8853459Y7278026D01*
X8884120Y7220663D01*
X8925383Y7170383D01*
X8975663Y7129120D01*
X9033026Y7098459D01*
X9095269Y7079577D01*
X9160000Y7073202D01*
X9645650Y7074800D01*
X9728200Y7157350D01*
X9728200Y7823200D01*
X10591800Y7823200D01*
X10591800Y7157350D01*
X10674350Y7074800D01*
X11160000Y7073202D01*
X11224731Y7079577D01*
X11286974Y7098459D01*
X11344337Y7129120D01*
X11394617Y7170383D01*
X11435880Y7220663D01*
X11466541Y7278026D01*
X11485423Y7340269D01*
X11491798Y7405000D01*
X11490200Y7740650D01*
X11407650Y7823200D01*
X10591800Y7823200D01*
X9728200Y7823200D01*
X8912350Y7823200D01*
X8829800Y7740650D01*
X8828202Y7405000D01*
X7120200Y7405000D01*
X7120200Y9105000D01*
X8828202Y9105000D01*
X8829800Y8769350D01*
X8912350Y8686800D01*
X9728200Y8686800D01*
X9728200Y9352650D01*
X10591800Y9352650D01*
X10591800Y8686800D01*
X11407650Y8686800D01*
X11490200Y8769350D01*
X11491798Y9105000D01*
X11485423Y9169731D01*
X11466541Y9231974D01*
X11435880Y9289337D01*
X11394617Y9339617D01*
X11344337Y9380880D01*
X11286974Y9411541D01*
X11224731Y9430423D01*
X11160000Y9436798D01*
X10674350Y9435200D01*
X10591800Y9352650D01*
X9728200Y9352650D01*
X9645650Y9435200D01*
X9160000Y9436798D01*
X9095269Y9430423D01*
X9033026Y9411541D01*
X8975663Y9380880D01*
X8925383Y9339617D01*
X8884120Y9289337D01*
X8853459Y9231974D01*
X8834577Y9169731D01*
X8828202Y9105000D01*
X7120200Y9105000D01*
X7120200Y9608885D01*
X7736116Y10224800D01*
X9016414Y10224800D01*
X9069068Y10126290D01*
X9209803Y9954803D01*
X9381290Y9814068D01*
X9576937Y9709493D01*
X9789226Y9645095D01*
X9954675Y9628800D01*
X10365325Y9628800D01*
X10530774Y9645095D01*
X10743063Y9709493D01*
X10938710Y9814068D01*
X11110197Y9954803D01*
X11250932Y10126290D01*
X11355507Y10321937D01*
X11419905Y10534226D01*
X11441649Y10755000D01*
X11419905Y10975774D01*
X11355507Y11188063D01*
X11250932Y11383710D01*
X11110197Y11555197D01*
X10938710Y11695932D01*
X10743063Y11800507D01*
X10690200Y11816543D01*
X10690200Y14197960D01*
X10692765Y14224000D01*
X10690200Y14250043D01*
X10682528Y14327937D01*
X10652211Y14427880D01*
X10602978Y14519988D01*
X10536722Y14600722D01*
X10516491Y14617325D01*
X9537329Y15596486D01*
X9520722Y15616722D01*
X9439988Y15682978D01*
X9347880Y15732211D01*
X9247937Y15762528D01*
X9170043Y15770200D01*
X9170040Y15770200D01*
X9144000Y15772765D01*
X9117960Y15770200D01*
X2759616Y15770200D01*
X2181200Y16348615D01*
X2181200Y16838774D01*
X2185095Y16799227D01*
X2249493Y16586938D01*
X2354068Y16391290D01*
X2494803Y16219803D01*
X2666290Y16079068D01*
X2861937Y15974493D01*
X3074226Y15910095D01*
X3295000Y15888351D01*
X3515773Y15910095D01*
X3728062Y15974493D01*
X3923710Y16079068D01*
X4095197Y16219803D01*
X4235932Y16391290D01*
X4340507Y16586937D01*
X4404905Y16799226D01*
X4421200Y16964675D01*
X4421200Y17325324D01*
X4404905Y17490773D01*
X4340507Y17703062D01*
X4235932Y17898710D01*
X4095197Y18070197D01*
X3959200Y18181806D01*
X3959200Y18523779D01*
X4378896Y18943474D01*
X4403958Y18964042D01*
X4424526Y18989104D01*
X4424534Y18989112D01*
X4486085Y19064113D01*
X4547111Y19178283D01*
X4572000Y19260333D01*
X4596889Y19178285D01*
X4657915Y19064114D01*
X4740042Y18964042D01*
X4765115Y18943465D01*
X5184801Y18523778D01*
X5184801Y18220826D01*
X5166291Y18210932D01*
X4994804Y18070197D01*
X4854068Y17898710D01*
X4749493Y17703063D01*
X4685095Y17490774D01*
X4668800Y17325325D01*
X4668800Y16964676D01*
X4685095Y16799227D01*
X4749493Y16586938D01*
X4854068Y16391290D01*
X4994803Y16219803D01*
X5166290Y16079068D01*
X5361937Y15974493D01*
X5574226Y15910095D01*
X5795000Y15888351D01*
X6015773Y15910095D01*
X6228062Y15974493D01*
X6423710Y16079068D01*
X6595197Y16219803D01*
X6735932Y16391290D01*
X6840507Y16586937D01*
X6904905Y16799226D01*
X6921200Y16964675D01*
X6921200Y17325324D01*
X6904905Y17490773D01*
X6840507Y17703062D01*
X6735932Y17898710D01*
X6595197Y18070197D01*
X6499200Y18148979D01*
X6499200Y18763731D01*
X6502378Y18796000D01*
X6499200Y18828269D01*
X6499200Y18828277D01*
X6489690Y18924834D01*
X6478669Y18961167D01*
X6452111Y19048717D01*
X6391085Y19162887D01*
X6329534Y19237888D01*
X6329526Y19237896D01*
X6308958Y19262958D01*
X6283895Y19283527D01*
X5864200Y19703221D01*
X5864200Y21381280D01*
X8696891Y24213970D01*
X8721958Y24234542D01*
X8804085Y24334613D01*
X8865111Y24448784D01*
X8902690Y24572666D01*
X8912200Y24669223D01*
X8912200Y24669231D01*
X8915378Y24701500D01*
X8912200Y24733769D01*
X8912200Y26951465D01*
X9331896Y27371160D01*
X9356958Y27391728D01*
X9377526Y27416790D01*
X9377534Y27416798D01*
X9439085Y27491799D01*
X9500111Y27605969D01*
X9537690Y27729852D01*
X9541917Y27772771D01*
X9547200Y27826409D01*
X9547200Y27826417D01*
X9550378Y27858686D01*
X9547200Y27890955D01*
X9547200Y28144855D01*
X9699860Y28270140D01*
X9842295Y28443697D01*
X9948133Y28641707D01*
X10013308Y28856560D01*
X10035315Y29080000D01*
X10013308Y29303440D01*
X9948133Y29518293D01*
X9842295Y29716303D01*
X9699860Y29889860D01*
X9526303Y30032295D01*
X9328293Y30138133D01*
X9113440Y30203308D01*
X8945995Y30219800D01*
X8834005Y30219800D01*
X8666560Y30203308D01*
X8451707Y30138133D01*
X8253697Y30032295D01*
X8080140Y29889860D01*
X7937705Y29716303D01*
X7831867Y29518293D01*
X7766692Y29303440D01*
X7744685Y29080000D01*
X7766692Y28856560D01*
X7831867Y28641707D01*
X7937705Y28443697D01*
X8080140Y28270140D01*
X8232800Y28144855D01*
X8232800Y28130908D01*
X7813110Y27711216D01*
X7788043Y27690644D01*
X7767470Y27665576D01*
X7767467Y27665573D01*
X7705915Y27590572D01*
X7644890Y27476402D01*
X7620000Y27394353D01*
X7595111Y27476403D01*
X7534085Y27590573D01*
X7472534Y27665574D01*
X7472526Y27665582D01*
X7451958Y27690644D01*
X7426895Y27711213D01*
X7007200Y28130907D01*
X7007200Y28144855D01*
X7159860Y28270140D01*
X7302295Y28443697D01*
X7408133Y28641707D01*
X7473308Y28856560D01*
X7495315Y29080000D01*
X7473308Y29303440D01*
X7408133Y29518293D01*
X7302295Y29716303D01*
X7159860Y29889860D01*
X6986303Y30032295D01*
X6788293Y30138133D01*
X6573440Y30203308D01*
X6405995Y30219800D01*
X6294005Y30219800D01*
X6126560Y30203308D01*
X5911707Y30138133D01*
X5713697Y30032295D01*
X5540140Y29889860D01*
X5397705Y29716303D01*
X5291867Y29518293D01*
X5226692Y29303440D01*
X5204685Y29080000D01*
X5226692Y28856560D01*
X5291867Y28641707D01*
X5397705Y28443697D01*
X5540140Y28270140D01*
X5692800Y28144855D01*
X5692800Y27890956D01*
X5689622Y27858686D01*
X5692800Y27826417D01*
X5692800Y27826410D01*
X5702310Y27729853D01*
X5739889Y27605971D01*
X5800915Y27491800D01*
X5883042Y27391728D01*
X5908115Y27371151D01*
X6327801Y26951464D01*
X6327800Y25418221D01*
X3495111Y22585531D01*
X3470043Y22564958D01*
X3449470Y22539890D01*
X3449467Y22539887D01*
X3387915Y22464886D01*
X3326890Y22350716D01*
X3289310Y22226833D01*
X3276622Y22098000D01*
X3279801Y22065721D01*
X3279800Y19703221D01*
X2860110Y19283530D01*
X2835043Y19262958D01*
X2814470Y19237890D01*
X2814467Y19237887D01*
X2752915Y19162886D01*
X2691890Y19048716D01*
X2654310Y18924833D01*
X2641622Y18796000D01*
X2644801Y18763721D01*
X2644801Y18193295D01*
X2494804Y18070197D01*
X2354068Y17898710D01*
X2249493Y17703063D01*
X2185095Y17490774D01*
X2181200Y17451227D01*
X2181200Y24672385D01*
X2388493Y24879677D01*
X2408722Y24896278D01*
X2474978Y24977012D01*
X2524211Y25069120D01*
X2554528Y25169063D01*
X2562200Y25246957D01*
X2562200Y25246959D01*
X2564765Y25272999D01*
X2562200Y25299043D01*
X2562200Y26901800D01*
X3529960Y26901800D01*
X3556000Y26899235D01*
X3582040Y26901800D01*
X3582043Y26901800D01*
X3659937Y26909472D01*
X3759880Y26939789D01*
X3851988Y26989022D01*
X3932722Y27055278D01*
X3949329Y27075514D01*
X4166490Y27292675D01*
X4186722Y27309278D01*
X4252978Y27390012D01*
X4302211Y27482120D01*
X4332528Y27582063D01*
X4340200Y27659957D01*
X4340200Y27659959D01*
X4342765Y27685999D01*
X4340200Y27712039D01*
X4340200Y28070992D01*
X4446303Y28127705D01*
X4619860Y28270140D01*
X4762295Y28443697D01*
X4868133Y28641707D01*
X4933308Y28856560D01*
X4955315Y29080000D01*
X4933308Y29303440D01*
X4868133Y29518293D01*
X4762295Y29716303D01*
X4619860Y29889860D01*
X4446303Y30032295D01*
X4248293Y30138133D01*
X4033440Y30203308D01*
X3865995Y30219800D01*
X3754005Y30219800D01*
X3586560Y30203308D01*
X3371707Y30138133D01*
X3173697Y30032295D01*
X3000140Y29889860D01*
X2857705Y29716303D01*
X2751867Y29518293D01*
X2686692Y29303440D01*
X2664685Y29080000D01*
X2686692Y28856560D01*
X2751867Y28641707D01*
X2857705Y28443697D01*
X3000140Y28270140D01*
X3173697Y28127705D01*
X3279800Y28070992D01*
X3279800Y27962200D01*
X2312039Y27962200D01*
X2285999Y27964765D01*
X2259959Y27962200D01*
X2259957Y27962200D01*
X2182063Y27954528D01*
X2082120Y27924211D01*
X1990012Y27874978D01*
X1909278Y27808722D01*
X1892676Y27788492D01*
X1800200Y27696016D01*
X1800200Y28070992D01*
X1906303Y28127705D01*
X2079860Y28270140D01*
X2222295Y28443697D01*
X2328133Y28641707D01*
X2393308Y28856560D01*
X2415315Y29080000D01*
X2393308Y29303440D01*
X2328133Y29518293D01*
X2222295Y29716303D01*
X2079860Y29889860D01*
X1906303Y30032295D01*
X1708293Y30138133D01*
X1493440Y30203308D01*
X1325995Y30219800D01*
X1214005Y30219800D01*
X1046560Y30203308D01*
X831707Y30138133D01*
X633697Y30032295D01*
X460140Y29889860D01*
X317705Y29716303D01*
X211867Y29518293D01*
X146692Y29303440D01*
X124685Y29080000D01*
X146692Y28856560D01*
X211867Y28641707D01*
X317705Y28443697D01*
X460140Y28270140D01*
X633697Y28127705D01*
X739801Y28070992D01*
X739800Y26000616D01*
X405510Y25666325D01*
X385279Y25649722D01*
X368678Y25629493D01*
X368677Y25629492D01*
X319023Y25568988D01*
X317501Y25566140D01*
X315978Y25568988D01*
X249722Y25649722D01*
X229491Y25666325D01*
X-739800Y26635615D01*
X-739800Y28070992D01*
X-633697Y28127705D01*
X-460140Y28270140D01*
X-317705Y28443697D01*
X-211867Y28641707D01*
X-146692Y28856560D01*
X-124685Y29080000D01*
X-146692Y29303440D01*
X-211867Y29518293D01*
X-317705Y29716303D01*
X-460140Y29889860D01*
X-633697Y30032295D01*
X-831707Y30138133D01*
X-1046560Y30203308D01*
X-1214005Y30219800D01*
X-1325995Y30219800D01*
X-1493440Y30203308D01*
X-1708293Y30138133D01*
X-1906303Y30032295D01*
X-2079860Y29889860D01*
X-2222295Y29716303D01*
X-2328133Y29518293D01*
X-2393308Y29303440D01*
X-2415315Y29080000D01*
X-2393308Y28856560D01*
X-2328133Y28641707D01*
X-2222295Y28443697D01*
X-2079860Y28270140D01*
X-1906303Y28127705D01*
X-1800199Y28070992D01*
X-1800200Y26598702D01*
X-3275037Y28073538D01*
X-3173697Y28127705D01*
X-3000140Y28270140D01*
X-2857705Y28443697D01*
X-2751867Y28641707D01*
X-2686692Y28856560D01*
X-2664685Y29080000D01*
X-2686692Y29303440D01*
X-2751867Y29518293D01*
X-2857705Y29716303D01*
X-3000140Y29889860D01*
X-3173697Y30032295D01*
X-3371707Y30138133D01*
X-3586560Y30203308D01*
X-3754005Y30219800D01*
X-3865995Y30219800D01*
X-4033440Y30203308D01*
X-4248293Y30138133D01*
X-4446303Y30032295D01*
X-4619860Y29889860D01*
X-4762295Y29716303D01*
X-4868133Y29518293D01*
X-4933308Y29303440D01*
X-4955315Y29080000D01*
X-4933308Y28856560D01*
X-4868133Y28641707D01*
X-4762295Y28443697D01*
X-4619860Y28270140D01*
X-4446303Y28127705D01*
X-4340200Y28070992D01*
X-4340200Y27884727D01*
X-4342765Y27858686D01*
X-4340200Y27832646D01*
X-4340200Y27832644D01*
X-4332528Y27754750D01*
X-4302211Y27654807D01*
X-4252978Y27562698D01*
X-4186722Y27481964D01*
X-4166486Y27465357D01*
X-3647329Y26946200D01*
X-5495384Y26946200D01*
X-5819800Y27270615D01*
X-5819800Y28070992D01*
X-5713697Y28127705D01*
X-5540140Y28270140D01*
X-5397705Y28443697D01*
X-5291867Y28641707D01*
X-5226692Y28856560D01*
X-5204685Y29080000D01*
X-5226692Y29303440D01*
X-5291867Y29518293D01*
X-5397705Y29716303D01*
X-5540140Y29889860D01*
X-5713697Y30032295D01*
X-5911707Y30138133D01*
X-6126560Y30203308D01*
X-6294005Y30219800D01*
X-6405995Y30219800D01*
X-6573440Y30203308D01*
X-6788293Y30138133D01*
X-6986303Y30032295D01*
X-7159860Y29889860D01*
X-7302295Y29716303D01*
X-7408133Y29518293D01*
X-7473308Y29303440D01*
X-7495315Y29080000D01*
X-7473308Y28856560D01*
X-7408133Y28641707D01*
X-7302295Y28443697D01*
X-7159860Y28270140D01*
X-6986303Y28127705D01*
X-6880199Y28070992D01*
X-6880200Y27077040D01*
X-6882765Y27051000D01*
X-6880200Y27024960D01*
X-6880200Y27024958D01*
X-6872528Y26947064D01*
X-6842211Y26847121D01*
X-6792978Y26755012D01*
X-6726722Y26674278D01*
X-6706486Y26657671D01*
X-6108325Y26059509D01*
X-6106430Y26057200D01*
X-7781384Y26057200D01*
X-8359800Y26635615D01*
X-8359800Y28070992D01*
X-8253697Y28127705D01*
X-8080140Y28270140D01*
X-7937705Y28443697D01*
X-7831867Y28641707D01*
X-7766692Y28856560D01*
X-7744685Y29080000D01*
X-7766692Y29303440D01*
X-7831867Y29518293D01*
X-7937705Y29716303D01*
X-8080140Y29889860D01*
X-8253697Y30032295D01*
X-8451707Y30138133D01*
X-8666560Y30203308D01*
X-8834005Y30219800D01*
X-8945995Y30219800D01*
X-9113440Y30203308D01*
X-9328293Y30138133D01*
X-9526303Y30032295D01*
X-9699860Y29889860D01*
X-9842295Y29716303D01*
X-9948133Y29518293D01*
X-10013308Y29303440D01*
X-10035315Y29080000D01*
X-10013308Y28856560D01*
X-9948133Y28641707D01*
X-9842295Y28443697D01*
X-9699860Y28270140D01*
X-9526303Y28127705D01*
X-9420199Y28070992D01*
X-9420200Y26442040D01*
X-9422765Y26416000D01*
X-9420200Y26389960D01*
X-9420200Y26389958D01*
X-9412528Y26312064D01*
X-9382211Y26212121D01*
X-9332978Y26120012D01*
X-9266722Y26039278D01*
X-9246486Y26022671D01*
X-8394325Y25170509D01*
X-8377722Y25150278D01*
X-8296988Y25084022D01*
X-8204880Y25034789D01*
X-8104937Y25004472D01*
X-8027043Y24996800D01*
X-8027040Y24996800D01*
X-8001000Y24994235D01*
X-7974960Y24996800D01*
X-4093115Y24996800D01*
X-3324199Y24227883D01*
X-3324200Y13348616D01*
X-4166490Y12506325D01*
X-4186721Y12489722D01*
X-4203323Y12469492D01*
X-4252977Y12408988D01*
X-4302210Y12316880D01*
X-4332527Y12216937D01*
X-4342765Y12113000D01*
X-4340199Y12086950D01*
X-4340199Y11816543D01*
X-4393063Y11800507D01*
X-4588710Y11695932D01*
X-4760197Y11555197D01*
X-4900932Y11383710D01*
X-5005507Y11188063D01*
X-5069905Y10975774D01*
X-5091649Y10755000D01*
X-5069905Y10534226D01*
X-5005507Y10321937D01*
X-4900932Y10126290D01*
X-4760197Y9954803D01*
X-4588710Y9814068D01*
X-4393063Y9709493D01*
X-4180774Y9645095D01*
X-4015325Y9628800D01*
X-3604675Y9628800D01*
X-3439226Y9645095D01*
X-3226937Y9709493D01*
X-3031290Y9814068D01*
X-2859803Y9954803D01*
X-2719068Y10126290D01*
X-2614493Y10321937D01*
X-2550095Y10534226D01*
X-2528351Y10755000D01*
X-2550095Y10975774D01*
X-2614493Y11188063D01*
X-2719068Y11383710D01*
X-2859803Y11555197D01*
X-3031290Y11695932D01*
X-3226937Y11800507D01*
X-3279800Y11816543D01*
X-3279800Y11893385D01*
X-2437509Y12735675D01*
X-2435200Y12737570D01*
X-2435200Y8785200D01*
X-2532464Y8785200D01*
X-2532464Y8855000D01*
X-2542600Y8957917D01*
X-2572620Y9056879D01*
X-2621370Y9148083D01*
X-2686976Y9228024D01*
X-2766917Y9293630D01*
X-2858121Y9342380D01*
X-2957083Y9372400D01*
X-3060000Y9382536D01*
X-4560000Y9382536D01*
X-4662917Y9372400D01*
X-4761879Y9342380D01*
X-4853083Y9293630D01*
X-4933024Y9228024D01*
X-4998630Y9148083D01*
X-5047380Y9056879D01*
X-5077400Y8957917D01*
X-5087536Y8855000D01*
X-5087536Y7655000D01*
X-5077400Y7552083D01*
X-5047380Y7453121D01*
X-4998630Y7361917D01*
X-4933024Y7281976D01*
X-4853083Y7216370D01*
X-4761879Y7167620D01*
X-4662917Y7137600D01*
X-4560000Y7127464D01*
X-3060000Y7127464D01*
X-2957083Y7137600D01*
X-2858121Y7167620D01*
X-2766917Y7216370D01*
X-2686976Y7281976D01*
X-2621370Y7361917D01*
X-2572620Y7453121D01*
X-2542600Y7552083D01*
X-2532464Y7655000D01*
X-2532464Y7724800D01*
X-2185040Y7724800D01*
X-2159000Y7722235D01*
X-2132960Y7724800D01*
X-2132957Y7724800D01*
X-2055063Y7732472D01*
X-1955120Y7762789D01*
X-1863012Y7812022D01*
X-1782278Y7878278D01*
X-1765671Y7898514D01*
X-1548510Y8115675D01*
X-1546200Y8117570D01*
X-1546200Y7458616D01*
X-1997615Y7007200D01*
X-4699384Y7007200D01*
X-6835800Y9143615D01*
X-6835800Y10133957D01*
X-6833235Y10160000D01*
X-6843472Y10263938D01*
X-6852669Y10294255D01*
X-6873789Y10363880D01*
X-6923022Y10455988D01*
X-6989278Y10536722D01*
X-7009509Y10553325D01*
X-7607671Y11151486D01*
X-7624278Y11171722D01*
X-7705012Y11237978D01*
X-7797120Y11287211D01*
X-7897063Y11317528D01*
X-7974957Y11325200D01*
X-7974960Y11325200D01*
X-8001000Y11327765D01*
X-8027040Y11325200D01*
X-9467464Y11325200D01*
X-9467464Y11845000D01*
X-9472797Y11899145D01*
X-9488590Y11951208D01*
X-9514237Y11999191D01*
X-9548752Y12041248D01*
X-9590809Y12075763D01*
X-9638792Y12101410D01*
X-9690855Y12117203D01*
X-9745000Y12122536D01*
X-11845000Y12122536D01*
X-11899145Y12117203D01*
X-11951208Y12101410D01*
X-11999191Y12075763D01*
X-12041248Y12041248D01*
X-12075763Y11999191D01*
X-12101410Y11951208D01*
X-12117203Y11899145D01*
X-12122536Y11845000D01*
X-14119001Y11845000D01*
X-14119001Y15906824D01*
X-11977519Y15906824D01*
X-11718346Y15664390D01*
X-11286332Y15509298D01*
X-10832362Y15441467D01*
X-10373882Y15463505D01*
X-9928511Y15574565D01*
X-9711654Y15664390D01*
X-9452481Y15906824D01*
X-10715000Y17169343D01*
X-11977519Y15906824D01*
X-14119001Y15906824D01*
X-14119001Y17897362D01*
X-13053533Y17897362D01*
X-13031495Y17438882D01*
X-12920435Y16993511D01*
X-12830610Y16776654D01*
X-12588176Y16517481D01*
X-11325657Y17780000D01*
X-10104343Y17780000D01*
X-8841824Y16517481D01*
X-8599390Y16776654D01*
X-8444298Y17208668D01*
X-8376467Y17662638D01*
X-8398505Y18121118D01*
X-8509565Y18566489D01*
X-8599390Y18783346D01*
X-8841824Y19042519D01*
X-10104343Y17780000D01*
X-11325657Y17780000D01*
X-12588176Y19042519D01*
X-12830610Y18783346D01*
X-12985702Y18351332D01*
X-13053533Y17897362D01*
X-14119001Y17897362D01*
X-14119001Y19653176D01*
X-11977519Y19653176D01*
X-10715000Y18390657D01*
X-9452481Y19653176D01*
X-9481157Y19680000D01*
X-7892536Y19680000D01*
X-7892536Y15880000D01*
X-7887203Y15825855D01*
X-7871410Y15773792D01*
X-7845763Y15725809D01*
X-7811248Y15683752D01*
X-7769191Y15649237D01*
X-7721208Y15623590D01*
X-7669145Y15607797D01*
X-7615000Y15602464D01*
X-3815000Y15602464D01*
X-3760855Y15607797D01*
X-3708792Y15623590D01*
X-3660809Y15649237D01*
X-3618752Y15683752D01*
X-3584237Y15725809D01*
X-3558590Y15773792D01*
X-3542797Y15825855D01*
X-3537464Y15880000D01*
X-3537464Y19680000D01*
X-3542797Y19734145D01*
X-3558590Y19786208D01*
X-3584237Y19834191D01*
X-3618752Y19876248D01*
X-3660809Y19910763D01*
X-3708792Y19936410D01*
X-3760855Y19952203D01*
X-3815000Y19957536D01*
X-7615000Y19957536D01*
X-7669145Y19952203D01*
X-7721208Y19936410D01*
X-7769191Y19910763D01*
X-7811248Y19876248D01*
X-7845763Y19834191D01*
X-7871410Y19786208D01*
X-7887203Y19734145D01*
X-7892536Y19680000D01*
X-9481157Y19680000D01*
X-9711654Y19895610D01*
X-10143668Y20050702D01*
X-10597638Y20118533D01*
X-11056118Y20096495D01*
X-11501489Y19985435D01*
X-11718346Y19895610D01*
X-11977519Y19653176D01*
X-14119001Y19653176D01*
X-14119001Y31019406D01*
X-9921743Y31019406D01*
X-9784748Y30829663D01*
X-9613369Y30670292D01*
X-9490591Y30588279D01*
X-9321800Y30596074D01*
X-9321800Y31188200D01*
X-8458200Y31188200D01*
X-8458200Y30596074D01*
X-8289409Y30588279D01*
X-8166631Y30670292D01*
X-7995252Y30829663D01*
X-7858257Y31019406D01*
X-7381743Y31019406D01*
X-7244748Y30829663D01*
X-7073369Y30670292D01*
X-6950591Y30588279D01*
X-6781800Y30596074D01*
X-6781800Y31188200D01*
X-5918200Y31188200D01*
X-5918200Y30596074D01*
X-5749409Y30588279D01*
X-5626631Y30670292D01*
X-5455252Y30829663D01*
X-5318257Y31019406D01*
X-4841743Y31019406D01*
X-4704748Y30829663D01*
X-4533369Y30670292D01*
X-4410591Y30588279D01*
X-4241800Y30596074D01*
X-4241800Y31188200D01*
X-3378200Y31188200D01*
X-3378200Y30596074D01*
X-3209409Y30588279D01*
X-3086631Y30670292D01*
X-2915252Y30829663D01*
X-2778257Y31019406D01*
X-2779556Y31188200D01*
X-3378200Y31188200D01*
X-4241800Y31188200D01*
X-4840444Y31188200D01*
X-4841743Y31019406D01*
X-5318257Y31019406D01*
X-5319556Y31188200D01*
X-5918200Y31188200D01*
X-6781800Y31188200D01*
X-7380444Y31188200D01*
X-7381743Y31019406D01*
X-7858257Y31019406D01*
X-7859556Y31188200D01*
X-8458200Y31188200D01*
X-9321800Y31188200D01*
X-9920444Y31188200D01*
X-9921743Y31019406D01*
X-14119001Y31019406D01*
X-14119001Y31620000D01*
X-2415315Y31620000D01*
X-2393308Y31396560D01*
X-2328133Y31181707D01*
X-2222295Y30983697D01*
X-2079860Y30810140D01*
X-1906303Y30667705D01*
X-1708293Y30561867D01*
X-1493440Y30496692D01*
X-1325995Y30480200D01*
X-1214005Y30480200D01*
X-1046560Y30496692D01*
X-831707Y30561867D01*
X-633697Y30667705D01*
X-460140Y30810140D01*
X-317705Y30983697D01*
X-211867Y31181707D01*
X-146692Y31396560D01*
X-124685Y31620000D01*
X124685Y31620000D01*
X146692Y31396560D01*
X211867Y31181707D01*
X317705Y30983697D01*
X460140Y30810140D01*
X633697Y30667705D01*
X831707Y30561867D01*
X1046560Y30496692D01*
X1214005Y30480200D01*
X1325995Y30480200D01*
X1493440Y30496692D01*
X1708293Y30561867D01*
X1906303Y30667705D01*
X2079860Y30810140D01*
X2222295Y30983697D01*
X2328133Y31181707D01*
X2393308Y31396560D01*
X2415315Y31620000D01*
X2664685Y31620000D01*
X2686692Y31396560D01*
X2751867Y31181707D01*
X2857705Y30983697D01*
X3000140Y30810140D01*
X3173697Y30667705D01*
X3371707Y30561867D01*
X3586560Y30496692D01*
X3754005Y30480200D01*
X3865995Y30480200D01*
X4033440Y30496692D01*
X4248293Y30561867D01*
X4446303Y30667705D01*
X4619860Y30810140D01*
X4762295Y30983697D01*
X4868133Y31181707D01*
X4933308Y31396560D01*
X4955315Y31620000D01*
X5204685Y31620000D01*
X5226692Y31396560D01*
X5291867Y31181707D01*
X5397705Y30983697D01*
X5540140Y30810140D01*
X5713697Y30667705D01*
X5911707Y30561867D01*
X6126560Y30496692D01*
X6294005Y30480200D01*
X6405995Y30480200D01*
X6573440Y30496692D01*
X6788293Y30561867D01*
X6986303Y30667705D01*
X7159860Y30810140D01*
X7302295Y30983697D01*
X7408133Y31181707D01*
X7473308Y31396560D01*
X7495315Y31620000D01*
X7473308Y31843440D01*
X7408133Y32058293D01*
X7302295Y32256303D01*
X7159860Y32429860D01*
X7007200Y32555145D01*
X7007200Y32620779D01*
X7384221Y32997800D01*
X10459280Y32997800D01*
X11534801Y31922278D01*
X11534801Y31457448D01*
X11532111Y31466316D01*
X11471085Y31580487D01*
X11388958Y31680558D01*
X11363884Y31701136D01*
X11003136Y32061884D01*
X10982558Y32086958D01*
X10882487Y32169085D01*
X10768316Y32230111D01*
X10644434Y32267690D01*
X10547877Y32277200D01*
X10547869Y32277200D01*
X10515600Y32280378D01*
X10483331Y32277200D01*
X10031136Y32277200D01*
X10031136Y32483600D01*
X10025803Y32537745D01*
X10010010Y32589808D01*
X9984363Y32637791D01*
X9949848Y32679848D01*
X9907791Y32714363D01*
X9859808Y32740010D01*
X9807745Y32755803D01*
X9753600Y32761136D01*
X8026400Y32761136D01*
X7972255Y32755803D01*
X7920192Y32740010D01*
X7872209Y32714363D01*
X7830152Y32679848D01*
X7795637Y32637791D01*
X7769990Y32589808D01*
X7754197Y32537745D01*
X7748864Y32483600D01*
X7748864Y30756400D01*
X7754197Y30702255D01*
X7769990Y30650192D01*
X7795637Y30602209D01*
X7830152Y30560152D01*
X7872209Y30525637D01*
X7920192Y30499990D01*
X7972255Y30484197D01*
X8026400Y30478864D01*
X9753600Y30478864D01*
X9807745Y30484197D01*
X9859808Y30499990D01*
X9907791Y30525637D01*
X9949848Y30560152D01*
X9984363Y30602209D01*
X10010010Y30650192D01*
X10025803Y30702255D01*
X10031136Y30756400D01*
X10031136Y30962800D01*
X10243380Y30962800D01*
X10264801Y30941379D01*
X10264800Y21989221D01*
X7853111Y19577531D01*
X7828043Y19556958D01*
X7807470Y19531890D01*
X7807467Y19531887D01*
X7745915Y19456886D01*
X7684890Y19342716D01*
X7647310Y19218833D01*
X7634622Y19090000D01*
X7637801Y19057721D01*
X7637801Y18187551D01*
X7494804Y18070197D01*
X7354068Y17898710D01*
X7249493Y17703063D01*
X7185095Y17490774D01*
X7168800Y17325325D01*
X7168800Y16964676D01*
X7185095Y16799227D01*
X7249493Y16586938D01*
X7354068Y16391290D01*
X7494803Y16219803D01*
X7666290Y16079068D01*
X7861937Y15974493D01*
X8074226Y15910095D01*
X8295000Y15888351D01*
X8515773Y15910095D01*
X8728062Y15974493D01*
X8923710Y16079068D01*
X9095197Y16219803D01*
X9235932Y16391290D01*
X9340507Y16586937D01*
X9404905Y16799226D01*
X9421200Y16964675D01*
X9421200Y17325324D01*
X9404905Y17490773D01*
X9340507Y17703062D01*
X9235932Y17898710D01*
X9095197Y18070197D01*
X8952200Y18187551D01*
X8952200Y18817780D01*
X10178686Y20044266D01*
X10147310Y19940833D01*
X10134622Y19812000D01*
X10137801Y19779721D01*
X10137800Y18391903D01*
X10092083Y18387400D01*
X9993121Y18357380D01*
X9901917Y18308630D01*
X9821976Y18243024D01*
X9756370Y18163083D01*
X9707620Y18071879D01*
X9677600Y17972917D01*
X9667464Y17870000D01*
X9667464Y16420000D01*
X9677600Y16317083D01*
X9707620Y16218121D01*
X9756370Y16126917D01*
X9821976Y16046976D01*
X9901917Y15981370D01*
X9993121Y15932620D01*
X10092083Y15902600D01*
X10195000Y15892464D01*
X11395000Y15892464D01*
X11497917Y15902600D01*
X11596879Y15932620D01*
X11688083Y15981370D01*
X11768024Y16046976D01*
X11833630Y16126917D01*
X11882380Y16218121D01*
X11912400Y16317083D01*
X11922536Y16420000D01*
X11922536Y17870000D01*
X11912400Y17972917D01*
X11882380Y18071879D01*
X11833630Y18163083D01*
X11768024Y18243024D01*
X11688083Y18308630D01*
X11596879Y18357380D01*
X11497917Y18387400D01*
X11452200Y18391903D01*
X11452200Y19539780D01*
X12633891Y20721470D01*
X12658958Y20742042D01*
X12741085Y20842113D01*
X12802111Y20956284D01*
X12839690Y21080166D01*
X12849200Y21176723D01*
X12849200Y21176732D01*
X12852378Y21208999D01*
X12849200Y21241266D01*
X12849200Y32162231D01*
X12852378Y32194500D01*
X12849200Y32226769D01*
X12849200Y32226777D01*
X12839690Y32323334D01*
X12802111Y32447216D01*
X12741085Y32561387D01*
X12658958Y32661458D01*
X12633890Y32682031D01*
X11219035Y34096885D01*
X11198458Y34121958D01*
X11098387Y34204085D01*
X10984216Y34265111D01*
X10860334Y34302690D01*
X10763777Y34312200D01*
X10763769Y34312200D01*
X10731500Y34315378D01*
X10699231Y34312200D01*
X7144269Y34312200D01*
X7112000Y34315378D01*
X7079731Y34312200D01*
X7079723Y34312200D01*
X6983166Y34302690D01*
X6859283Y34265111D01*
X6745113Y34204085D01*
X6670112Y34142534D01*
X6670104Y34142526D01*
X6645042Y34121958D01*
X6624473Y34096895D01*
X5908115Y33380535D01*
X5883042Y33359958D01*
X5800915Y33259886D01*
X5739889Y33145715D01*
X5702310Y33021833D01*
X5692800Y32925276D01*
X5692800Y32925269D01*
X5689622Y32893000D01*
X5692800Y32860730D01*
X5692800Y32555145D01*
X5540140Y32429860D01*
X5397705Y32256303D01*
X5291867Y32058293D01*
X5226692Y31843440D01*
X5204685Y31620000D01*
X4955315Y31620000D01*
X4933308Y31843440D01*
X4868133Y32058293D01*
X4762295Y32256303D01*
X4619860Y32429860D01*
X4446303Y32572295D01*
X4248293Y32678133D01*
X4033440Y32743308D01*
X3865995Y32759800D01*
X3754005Y32759800D01*
X3586560Y32743308D01*
X3371707Y32678133D01*
X3173697Y32572295D01*
X3000140Y32429860D01*
X2857705Y32256303D01*
X2751867Y32058293D01*
X2686692Y31843440D01*
X2664685Y31620000D01*
X2415315Y31620000D01*
X2393308Y31843440D01*
X2328133Y32058293D01*
X2222295Y32256303D01*
X2079860Y32429860D01*
X1906303Y32572295D01*
X1708293Y32678133D01*
X1493440Y32743308D01*
X1325995Y32759800D01*
X1214005Y32759800D01*
X1046560Y32743308D01*
X831707Y32678133D01*
X633697Y32572295D01*
X460140Y32429860D01*
X317705Y32256303D01*
X211867Y32058293D01*
X146692Y31843440D01*
X124685Y31620000D01*
X-124685Y31620000D01*
X-146692Y31843440D01*
X-211867Y32058293D01*
X-317705Y32256303D01*
X-460140Y32429860D01*
X-633697Y32572295D01*
X-831707Y32678133D01*
X-1046560Y32743308D01*
X-1214005Y32759800D01*
X-1325995Y32759800D01*
X-1493440Y32743308D01*
X-1708293Y32678133D01*
X-1906303Y32572295D01*
X-2079860Y32429860D01*
X-2222295Y32256303D01*
X-2328133Y32058293D01*
X-2393308Y31843440D01*
X-2415315Y31620000D01*
X-14119001Y31620000D01*
X-14119001Y32220594D01*
X-9921743Y32220594D01*
X-9920444Y32051800D01*
X-9321800Y32051800D01*
X-9321800Y32643926D01*
X-8458200Y32643926D01*
X-8458200Y32051800D01*
X-7859556Y32051800D01*
X-7858257Y32220594D01*
X-7381743Y32220594D01*
X-7380444Y32051800D01*
X-6781800Y32051800D01*
X-6781800Y32643926D01*
X-5918200Y32643926D01*
X-5918200Y32051800D01*
X-5319556Y32051800D01*
X-5318257Y32220594D01*
X-4841743Y32220594D01*
X-4840444Y32051800D01*
X-4241800Y32051800D01*
X-4241800Y32643926D01*
X-3378200Y32643926D01*
X-3378200Y32051800D01*
X-2779556Y32051800D01*
X-2778257Y32220594D01*
X-2915252Y32410337D01*
X-3086631Y32569708D01*
X-3209409Y32651721D01*
X-3378200Y32643926D01*
X-4241800Y32643926D01*
X-4410591Y32651721D01*
X-4533369Y32569708D01*
X-4704748Y32410337D01*
X-4841743Y32220594D01*
X-5318257Y32220594D01*
X-5455252Y32410337D01*
X-5626631Y32569708D01*
X-5749409Y32651721D01*
X-5918200Y32643926D01*
X-6781800Y32643926D01*
X-6950591Y32651721D01*
X-7073369Y32569708D01*
X-7244748Y32410337D01*
X-7381743Y32220594D01*
X-7858257Y32220594D01*
X-7995252Y32410337D01*
X-8166631Y32569708D01*
X-8289409Y32651721D01*
X-8458200Y32643926D01*
X-9321800Y32643926D01*
X-9490591Y32651721D01*
X-9613369Y32569708D01*
X-9784748Y32410337D01*
X-9921743Y32220594D01*
X-14119001Y32220594D01*
X-14119001Y44842376D01*
X-12476200Y44842376D01*
X-12476200Y44157624D01*
X-12342612Y43486030D01*
X-12080569Y42853402D01*
X-11700141Y42284052D01*
X-11215948Y41799859D01*
X-10646598Y41419431D01*
X-10013970Y41157388D01*
X-9342376Y41023800D01*
X-8657624Y41023800D01*
X-7986030Y41157388D01*
X-7353402Y41419431D01*
X-6784052Y41799859D01*
X-6299859Y42284052D01*
X-5919431Y42853402D01*
X-5657388Y43486030D01*
X-5523800Y44157624D01*
X-5523800Y44842376D01*
X5523800Y44842376D01*
X5523800Y44157624D01*
X5657388Y43486030D01*
X5919431Y42853402D01*
X6299859Y42284052D01*
X6784052Y41799859D01*
X7353402Y41419431D01*
X7986030Y41157388D01*
X8657624Y41023800D01*
X9342376Y41023800D01*
X10013970Y41157388D01*
X10646598Y41419431D01*
X11215948Y41799859D01*
X11700141Y42284052D01*
X12080569Y42853402D01*
X12342612Y43486030D01*
X12476200Y44157624D01*
X12476200Y44842376D01*
X12342612Y45513970D01*
X12080569Y46146598D01*
X11700141Y46715948D01*
X11215948Y47200141D01*
X10646598Y47580569D01*
X10013970Y47842612D01*
X9342376Y47976200D01*
X8657624Y47976200D01*
X7986030Y47842612D01*
X7353402Y47580569D01*
X6784052Y47200141D01*
X6299859Y46715948D01*
X5919431Y46146598D01*
X5657388Y45513970D01*
X5523800Y44842376D01*
X-5523800Y44842376D01*
X-5657388Y45513970D01*
X-5919431Y46146598D01*
X-6299859Y46715948D01*
X-6784052Y47200141D01*
X-7353402Y47580569D01*
X-7986030Y47842612D01*
X-8657624Y47976200D01*
X-9342376Y47976200D01*
X-10013970Y47842612D01*
X-10646598Y47580569D01*
X-11215948Y47200141D01*
X-11700141Y46715948D01*
X-12080569Y46146598D01*
X-12342612Y45513970D01*
X-12476200Y44842376D01*
X-14119001Y44842376D01*
X-14119001Y48981360D01*
X-14105419Y49119876D01*
X-14070606Y49235185D01*
X-14014058Y49341537D01*
X-13937927Y49434883D01*
X-13845119Y49511660D01*
X-13739163Y49568951D01*
X-13624102Y49604568D01*
X-13486783Y49619001D01*
X13481362Y49619001D01*
X13619877Y49605419D01*
M02*
