G04 #@! TF.GenerationSoftware,KiCad,Pcbnew,(5.1.4)-1*
G04 #@! TF.CreationDate,2020-03-27T16:00:44-04:00*
G04 #@! TF.ProjectId,extruder_breakout,65787472-7564-4657-925f-627265616b6f,rev?*
G04 #@! TF.SameCoordinates,PX8f0d180PY5f5e100*
G04 #@! TF.FileFunction,Legend,Bot*
G04 #@! TF.FilePolarity,Positive*
%FSLAX46Y46*%
G04 Gerber Fmt 4.6, Leading zero omitted, Abs format (unit mm)*
G04 Created by KiCad (PCBNEW (5.1.4)-1) date 2020-03-27 16:00:44*
%MOMM*%
%LPD*%
G04 APERTURE LIST*
%ADD10C,0.317500*%
%ADD11C,0.476250*%
%ADD12C,6.501600*%
%ADD13C,4.101600*%
%ADD14R,3.901600X3.901600*%
%ADD15O,2.101600X1.801600*%
%ADD16C,0.100000*%
%ADD17C,1.801600*%
%ADD18O,1.801600X2.051600*%
%ADD19C,2.201600*%
%ADD20R,2.201600X2.201600*%
%ADD21O,1.828800X1.828800*%
%ADD22R,1.828800X1.828800*%
G04 APERTURE END LIST*
D10*
X12427857Y35620477D02*
X12427857Y36890477D01*
X11883571Y35680953D02*
X11762619Y35620477D01*
X11520714Y35620477D01*
X11399761Y35680953D01*
X11339285Y35801905D01*
X11339285Y35862381D01*
X11399761Y35983334D01*
X11520714Y36043810D01*
X11702142Y36043810D01*
X11823095Y36104286D01*
X11883571Y36225239D01*
X11883571Y36285715D01*
X11823095Y36406667D01*
X11702142Y36467143D01*
X11520714Y36467143D01*
X11399761Y36406667D01*
X10795000Y35620477D02*
X10795000Y36890477D01*
X10250714Y35620477D02*
X10250714Y36285715D01*
X10311190Y36406667D01*
X10432142Y36467143D01*
X10613571Y36467143D01*
X10734523Y36406667D01*
X10795000Y36346191D01*
X9101666Y35620477D02*
X9101666Y36285715D01*
X9162142Y36406667D01*
X9283095Y36467143D01*
X9525000Y36467143D01*
X9645952Y36406667D01*
X9101666Y35680953D02*
X9222619Y35620477D01*
X9525000Y35620477D01*
X9645952Y35680953D01*
X9706428Y35801905D01*
X9706428Y35922858D01*
X9645952Y36043810D01*
X9525000Y36104286D01*
X9222619Y36104286D01*
X9101666Y36164762D01*
X7952619Y35620477D02*
X7952619Y36285715D01*
X8013095Y36406667D01*
X8134047Y36467143D01*
X8375952Y36467143D01*
X8496904Y36406667D01*
X7952619Y35680953D02*
X8073571Y35620477D01*
X8375952Y35620477D01*
X8496904Y35680953D01*
X8557380Y35801905D01*
X8557380Y35922858D01*
X8496904Y36043810D01*
X8375952Y36104286D01*
X8073571Y36104286D01*
X7952619Y36164762D01*
X7347857Y36467143D02*
X7347857Y35620477D01*
X7347857Y36346191D02*
X7287380Y36406667D01*
X7166428Y36467143D01*
X6985000Y36467143D01*
X6864047Y36406667D01*
X6803571Y36285715D01*
X6803571Y35620477D01*
X4565952Y36830000D02*
X4686904Y36890477D01*
X4868333Y36890477D01*
X5049761Y36830000D01*
X5170714Y36709048D01*
X5231190Y36588096D01*
X5291666Y36346191D01*
X5291666Y36164762D01*
X5231190Y35922858D01*
X5170714Y35801905D01*
X5049761Y35680953D01*
X4868333Y35620477D01*
X4747380Y35620477D01*
X4565952Y35680953D01*
X4505476Y35741429D01*
X4505476Y36164762D01*
X4747380Y36164762D01*
X3779761Y35620477D02*
X3900714Y35680953D01*
X3961190Y35741429D01*
X4021666Y35862381D01*
X4021666Y36225239D01*
X3961190Y36346191D01*
X3900714Y36406667D01*
X3779761Y36467143D01*
X3598333Y36467143D01*
X3477380Y36406667D01*
X3416904Y36346191D01*
X3356428Y36225239D01*
X3356428Y35862381D01*
X3416904Y35741429D01*
X3477380Y35680953D01*
X3598333Y35620477D01*
X3779761Y35620477D01*
X2933095Y36467143D02*
X2630714Y35620477D01*
X2328333Y36467143D01*
X-4324048Y36890477D02*
X-4324048Y35983334D01*
X-4263572Y35801905D01*
X-4142620Y35680953D01*
X-3961191Y35620477D01*
X-3840239Y35620477D01*
X-5473096Y35620477D02*
X-5473096Y36285715D01*
X-5412620Y36406667D01*
X-5291667Y36467143D01*
X-5049762Y36467143D01*
X-4928810Y36406667D01*
X-5473096Y35680953D02*
X-5352143Y35620477D01*
X-5049762Y35620477D01*
X-4928810Y35680953D01*
X-4868334Y35801905D01*
X-4868334Y35922858D01*
X-4928810Y36043810D01*
X-5049762Y36104286D01*
X-5352143Y36104286D01*
X-5473096Y36164762D01*
X-6077858Y36467143D02*
X-6077858Y35620477D01*
X-6077858Y36346191D02*
X-6138334Y36406667D01*
X-6259286Y36467143D01*
X-6440715Y36467143D01*
X-6561667Y36406667D01*
X-6622143Y36285715D01*
X-6622143Y35620477D01*
X-8134048Y36769524D02*
X-8194524Y36830000D01*
X-8315477Y36890477D01*
X-8617858Y36890477D01*
X-8738810Y36830000D01*
X-8799286Y36769524D01*
X-8859762Y36648572D01*
X-8859762Y36527620D01*
X-8799286Y36346191D01*
X-8073572Y35620477D01*
X-8859762Y35620477D01*
X-9645953Y36890477D02*
X-9766905Y36890477D01*
X-9887858Y36830000D01*
X-9948334Y36769524D01*
X-10008810Y36648572D01*
X-10069286Y36406667D01*
X-10069286Y36104286D01*
X-10008810Y35862381D01*
X-9948334Y35741429D01*
X-9887858Y35680953D01*
X-9766905Y35620477D01*
X-9645953Y35620477D01*
X-9525000Y35680953D01*
X-9464524Y35741429D01*
X-9404048Y35862381D01*
X-9343572Y36104286D01*
X-9343572Y36406667D01*
X-9404048Y36648572D01*
X-9464524Y36769524D01*
X-9525000Y36830000D01*
X-9645953Y36890477D01*
X-10553096Y36769524D02*
X-10613572Y36830000D01*
X-10734524Y36890477D01*
X-11036905Y36890477D01*
X-11157858Y36830000D01*
X-11218334Y36769524D01*
X-11278810Y36648572D01*
X-11278810Y36527620D01*
X-11218334Y36346191D01*
X-10492620Y35620477D01*
X-11278810Y35620477D01*
X-12065000Y36890477D02*
X-12185953Y36890477D01*
X-12306905Y36830000D01*
X-12367381Y36769524D01*
X-12427858Y36648572D01*
X-12488334Y36406667D01*
X-12488334Y36104286D01*
X-12427858Y35862381D01*
X-12367381Y35741429D01*
X-12306905Y35680953D01*
X-12185953Y35620477D01*
X-12065000Y35620477D01*
X-11944048Y35680953D01*
X-11883572Y35741429D01*
X-11823096Y35862381D01*
X-11762620Y36104286D01*
X-11762620Y36406667D01*
X-11823096Y36648572D01*
X-11883572Y36769524D01*
X-11944048Y36830000D01*
X-12065000Y36890477D01*
D11*
X12427857Y38871072D02*
X11792857Y38871072D01*
X11520714Y37873215D02*
X12427857Y37873215D01*
X12427857Y39778215D01*
X11520714Y39778215D01*
X10885714Y37873215D02*
X9887857Y39143215D01*
X10885714Y39143215D02*
X9887857Y37873215D01*
X9434285Y39143215D02*
X8708571Y39143215D01*
X9162142Y39778215D02*
X9162142Y38145358D01*
X9071428Y37963929D01*
X8890000Y37873215D01*
X8708571Y37873215D01*
X8073571Y37873215D02*
X8073571Y39143215D01*
X8073571Y38780358D02*
X7982857Y38961786D01*
X7892142Y39052500D01*
X7710714Y39143215D01*
X7529285Y39143215D01*
X6077857Y39143215D02*
X6077857Y37873215D01*
X6894285Y39143215D02*
X6894285Y38145358D01*
X6803571Y37963929D01*
X6622142Y37873215D01*
X6350000Y37873215D01*
X6168571Y37963929D01*
X6077857Y38054643D01*
X4354285Y37873215D02*
X4354285Y39778215D01*
X4354285Y37963929D02*
X4535714Y37873215D01*
X4898571Y37873215D01*
X5080000Y37963929D01*
X5170714Y38054643D01*
X5261428Y38236072D01*
X5261428Y38780358D01*
X5170714Y38961786D01*
X5080000Y39052500D01*
X4898571Y39143215D01*
X4535714Y39143215D01*
X4354285Y39052500D01*
X2721428Y37963929D02*
X2902857Y37873215D01*
X3265714Y37873215D01*
X3447142Y37963929D01*
X3537857Y38145358D01*
X3537857Y38871072D01*
X3447142Y39052500D01*
X3265714Y39143215D01*
X2902857Y39143215D01*
X2721428Y39052500D01*
X2630714Y38871072D01*
X2630714Y38689643D01*
X3537857Y38508215D01*
X1814285Y37873215D02*
X1814285Y39143215D01*
X1814285Y38780358D02*
X1723571Y38961786D01*
X1632857Y39052500D01*
X1451428Y39143215D01*
X1270000Y39143215D01*
X-1451429Y38871072D02*
X-1723572Y38780358D01*
X-1814286Y38689643D01*
X-1905000Y38508215D01*
X-1905000Y38236072D01*
X-1814286Y38054643D01*
X-1723572Y37963929D01*
X-1542143Y37873215D01*
X-816429Y37873215D01*
X-816429Y39778215D01*
X-1451429Y39778215D01*
X-1632858Y39687500D01*
X-1723572Y39596786D01*
X-1814286Y39415358D01*
X-1814286Y39233929D01*
X-1723572Y39052500D01*
X-1632858Y38961786D01*
X-1451429Y38871072D01*
X-816429Y38871072D01*
X-2721429Y37873215D02*
X-2721429Y39143215D01*
X-2721429Y38780358D02*
X-2812143Y38961786D01*
X-2902858Y39052500D01*
X-3084286Y39143215D01*
X-3265715Y39143215D01*
X-4626429Y37963929D02*
X-4445000Y37873215D01*
X-4082143Y37873215D01*
X-3900715Y37963929D01*
X-3810000Y38145358D01*
X-3810000Y38871072D01*
X-3900715Y39052500D01*
X-4082143Y39143215D01*
X-4445000Y39143215D01*
X-4626429Y39052500D01*
X-4717143Y38871072D01*
X-4717143Y38689643D01*
X-3810000Y38508215D01*
X-6350000Y37873215D02*
X-6350000Y38871072D01*
X-6259286Y39052500D01*
X-6077858Y39143215D01*
X-5715000Y39143215D01*
X-5533572Y39052500D01*
X-6350000Y37963929D02*
X-6168572Y37873215D01*
X-5715000Y37873215D01*
X-5533572Y37963929D01*
X-5442858Y38145358D01*
X-5442858Y38326786D01*
X-5533572Y38508215D01*
X-5715000Y38598929D01*
X-6168572Y38598929D01*
X-6350000Y38689643D01*
X-7257143Y37873215D02*
X-7257143Y39778215D01*
X-7438572Y38598929D02*
X-7982858Y37873215D01*
X-7982858Y39143215D02*
X-7257143Y38417500D01*
X-9071429Y37873215D02*
X-8890000Y37963929D01*
X-8799286Y38054643D01*
X-8708572Y38236072D01*
X-8708572Y38780358D01*
X-8799286Y38961786D01*
X-8890000Y39052500D01*
X-9071429Y39143215D01*
X-9343572Y39143215D01*
X-9525000Y39052500D01*
X-9615715Y38961786D01*
X-9706429Y38780358D01*
X-9706429Y38236072D01*
X-9615715Y38054643D01*
X-9525000Y37963929D01*
X-9343572Y37873215D01*
X-9071429Y37873215D01*
X-11339286Y39143215D02*
X-11339286Y37873215D01*
X-10522858Y39143215D02*
X-10522858Y38145358D01*
X-10613572Y37963929D01*
X-10795000Y37873215D01*
X-11067143Y37873215D01*
X-11248572Y37963929D01*
X-11339286Y38054643D01*
X-11974286Y39143215D02*
X-12700000Y39143215D01*
X-12246429Y39778215D02*
X-12246429Y38145358D01*
X-12337143Y37963929D01*
X-12518572Y37873215D01*
X-12700000Y37873215D01*
%LPC*%
D12*
X9000000Y44500000D03*
X-9000000Y44500000D03*
D13*
X-10715000Y17780000D03*
D14*
X-5715000Y17780000D03*
D15*
X3175000Y10755000D03*
D16*
G36*
X3986828Y9154524D02*
G01*
X4012546Y9150709D01*
X4037767Y9144392D01*
X4062248Y9135633D01*
X4085751Y9124516D01*
X4108052Y9111149D01*
X4128936Y9095661D01*
X4148201Y9078201D01*
X4165661Y9058936D01*
X4181149Y9038052D01*
X4194516Y9015751D01*
X4205633Y8992248D01*
X4214392Y8967767D01*
X4220709Y8942546D01*
X4224524Y8916828D01*
X4225800Y8890859D01*
X4225800Y7619141D01*
X4224524Y7593172D01*
X4220709Y7567454D01*
X4214392Y7542233D01*
X4205633Y7517752D01*
X4194516Y7494249D01*
X4181149Y7471948D01*
X4165661Y7451064D01*
X4148201Y7431799D01*
X4128936Y7414339D01*
X4108052Y7398851D01*
X4085751Y7385484D01*
X4062248Y7374367D01*
X4037767Y7365608D01*
X4012546Y7359291D01*
X3986828Y7355476D01*
X3960859Y7354200D01*
X2389141Y7354200D01*
X2363172Y7355476D01*
X2337454Y7359291D01*
X2312233Y7365608D01*
X2287752Y7374367D01*
X2264249Y7385484D01*
X2241948Y7398851D01*
X2221064Y7414339D01*
X2201799Y7431799D01*
X2184339Y7451064D01*
X2168851Y7471948D01*
X2155484Y7494249D01*
X2144367Y7517752D01*
X2135608Y7542233D01*
X2129291Y7567454D01*
X2125476Y7593172D01*
X2124200Y7619141D01*
X2124200Y8890859D01*
X2125476Y8916828D01*
X2129291Y8942546D01*
X2135608Y8967767D01*
X2144367Y8992248D01*
X2155484Y9015751D01*
X2168851Y9038052D01*
X2184339Y9058936D01*
X2201799Y9078201D01*
X2221064Y9095661D01*
X2241948Y9111149D01*
X2264249Y9124516D01*
X2287752Y9135633D01*
X2312233Y9144392D01*
X2337454Y9150709D01*
X2363172Y9154524D01*
X2389141Y9155800D01*
X3960859Y9155800D01*
X3986828Y9154524D01*
X3986828Y9154524D01*
G37*
D17*
X3175000Y8255000D03*
D15*
X10160000Y10755000D03*
D16*
G36*
X10971828Y9154524D02*
G01*
X10997546Y9150709D01*
X11022767Y9144392D01*
X11047248Y9135633D01*
X11070751Y9124516D01*
X11093052Y9111149D01*
X11113936Y9095661D01*
X11133201Y9078201D01*
X11150661Y9058936D01*
X11166149Y9038052D01*
X11179516Y9015751D01*
X11190633Y8992248D01*
X11199392Y8967767D01*
X11205709Y8942546D01*
X11209524Y8916828D01*
X11210800Y8890859D01*
X11210800Y7619141D01*
X11209524Y7593172D01*
X11205709Y7567454D01*
X11199392Y7542233D01*
X11190633Y7517752D01*
X11179516Y7494249D01*
X11166149Y7471948D01*
X11150661Y7451064D01*
X11133201Y7431799D01*
X11113936Y7414339D01*
X11093052Y7398851D01*
X11070751Y7385484D01*
X11047248Y7374367D01*
X11022767Y7365608D01*
X10997546Y7359291D01*
X10971828Y7355476D01*
X10945859Y7354200D01*
X9374141Y7354200D01*
X9348172Y7355476D01*
X9322454Y7359291D01*
X9297233Y7365608D01*
X9272752Y7374367D01*
X9249249Y7385484D01*
X9226948Y7398851D01*
X9206064Y7414339D01*
X9186799Y7431799D01*
X9169339Y7451064D01*
X9153851Y7471948D01*
X9140484Y7494249D01*
X9129367Y7517752D01*
X9120608Y7542233D01*
X9114291Y7567454D01*
X9110476Y7593172D01*
X9109200Y7619141D01*
X9109200Y8890859D01*
X9110476Y8916828D01*
X9114291Y8942546D01*
X9120608Y8967767D01*
X9129367Y8992248D01*
X9140484Y9015751D01*
X9153851Y9038052D01*
X9169339Y9058936D01*
X9186799Y9078201D01*
X9206064Y9095661D01*
X9226948Y9111149D01*
X9249249Y9124516D01*
X9272752Y9135633D01*
X9297233Y9144392D01*
X9322454Y9150709D01*
X9348172Y9154524D01*
X9374141Y9155800D01*
X10945859Y9155800D01*
X10971828Y9154524D01*
X10971828Y9154524D01*
G37*
D17*
X10160000Y8255000D03*
D15*
X-3810000Y10755000D03*
D16*
G36*
X-2998172Y9154524D02*
G01*
X-2972454Y9150709D01*
X-2947233Y9144392D01*
X-2922752Y9135633D01*
X-2899249Y9124516D01*
X-2876948Y9111149D01*
X-2856064Y9095661D01*
X-2836799Y9078201D01*
X-2819339Y9058936D01*
X-2803851Y9038052D01*
X-2790484Y9015751D01*
X-2779367Y8992248D01*
X-2770608Y8967767D01*
X-2764291Y8942546D01*
X-2760476Y8916828D01*
X-2759200Y8890859D01*
X-2759200Y7619141D01*
X-2760476Y7593172D01*
X-2764291Y7567454D01*
X-2770608Y7542233D01*
X-2779367Y7517752D01*
X-2790484Y7494249D01*
X-2803851Y7471948D01*
X-2819339Y7451064D01*
X-2836799Y7431799D01*
X-2856064Y7414339D01*
X-2876948Y7398851D01*
X-2899249Y7385484D01*
X-2922752Y7374367D01*
X-2947233Y7365608D01*
X-2972454Y7359291D01*
X-2998172Y7355476D01*
X-3024141Y7354200D01*
X-4595859Y7354200D01*
X-4621828Y7355476D01*
X-4647546Y7359291D01*
X-4672767Y7365608D01*
X-4697248Y7374367D01*
X-4720751Y7385484D01*
X-4743052Y7398851D01*
X-4763936Y7414339D01*
X-4783201Y7431799D01*
X-4800661Y7451064D01*
X-4816149Y7471948D01*
X-4829516Y7494249D01*
X-4840633Y7517752D01*
X-4849392Y7542233D01*
X-4855709Y7567454D01*
X-4859524Y7593172D01*
X-4860800Y7619141D01*
X-4860800Y8890859D01*
X-4859524Y8916828D01*
X-4855709Y8942546D01*
X-4849392Y8967767D01*
X-4840633Y8992248D01*
X-4829516Y9015751D01*
X-4816149Y9038052D01*
X-4800661Y9058936D01*
X-4783201Y9078201D01*
X-4763936Y9095661D01*
X-4743052Y9111149D01*
X-4720751Y9124516D01*
X-4697248Y9135633D01*
X-4672767Y9144392D01*
X-4647546Y9150709D01*
X-4621828Y9154524D01*
X-4595859Y9155800D01*
X-3024141Y9155800D01*
X-2998172Y9154524D01*
X-2998172Y9154524D01*
G37*
D17*
X-3810000Y8255000D03*
D18*
X3295000Y17145000D03*
X5795000Y17145000D03*
X8295000Y17145000D03*
D16*
G36*
X11456828Y18169524D02*
G01*
X11482546Y18165709D01*
X11507767Y18159392D01*
X11532248Y18150633D01*
X11555751Y18139516D01*
X11578052Y18126149D01*
X11598936Y18110661D01*
X11618201Y18093201D01*
X11635661Y18073936D01*
X11651149Y18053052D01*
X11664516Y18030751D01*
X11675633Y18007248D01*
X11684392Y17982767D01*
X11690709Y17957546D01*
X11694524Y17931828D01*
X11695800Y17905859D01*
X11695800Y16384141D01*
X11694524Y16358172D01*
X11690709Y16332454D01*
X11684392Y16307233D01*
X11675633Y16282752D01*
X11664516Y16259249D01*
X11651149Y16236948D01*
X11635661Y16216064D01*
X11618201Y16196799D01*
X11598936Y16179339D01*
X11578052Y16163851D01*
X11555751Y16150484D01*
X11532248Y16139367D01*
X11507767Y16130608D01*
X11482546Y16124291D01*
X11456828Y16120476D01*
X11430859Y16119200D01*
X10159141Y16119200D01*
X10133172Y16120476D01*
X10107454Y16124291D01*
X10082233Y16130608D01*
X10057752Y16139367D01*
X10034249Y16150484D01*
X10011948Y16163851D01*
X9991064Y16179339D01*
X9971799Y16196799D01*
X9954339Y16216064D01*
X9938851Y16236948D01*
X9925484Y16259249D01*
X9914367Y16282752D01*
X9905608Y16307233D01*
X9899291Y16332454D01*
X9895476Y16358172D01*
X9894200Y16384141D01*
X9894200Y17905859D01*
X9895476Y17931828D01*
X9899291Y17957546D01*
X9905608Y17982767D01*
X9914367Y18007248D01*
X9925484Y18030751D01*
X9938851Y18053052D01*
X9954339Y18073936D01*
X9971799Y18093201D01*
X9991064Y18110661D01*
X10011948Y18126149D01*
X10034249Y18139516D01*
X10057752Y18150633D01*
X10082233Y18159392D01*
X10107454Y18165709D01*
X10133172Y18169524D01*
X10159141Y18170800D01*
X11430859Y18170800D01*
X11456828Y18169524D01*
X11456828Y18169524D01*
G37*
D17*
X10795000Y17145000D03*
D19*
X-10795000Y8255000D03*
D20*
X-10795000Y10795000D03*
D21*
X-8890000Y29080000D03*
X-8890000Y31620000D03*
X-6350000Y29080000D03*
X-6350000Y31620000D03*
X-3810000Y29080000D03*
X-3810000Y31620000D03*
X-1270000Y29080000D03*
X-1270000Y31620000D03*
X1270000Y29080000D03*
X1270000Y31620000D03*
X3810000Y29080000D03*
X3810000Y31620000D03*
X6350000Y29080000D03*
X6350000Y31620000D03*
X8890000Y29080000D03*
D22*
X8890000Y31620000D03*
M02*
