G04 #@! TF.GenerationSoftware,KiCad,Pcbnew,(5.1.4)-1*
G04 #@! TF.CreationDate,2020-03-27T03:56:46-04:00*
G04 #@! TF.ProjectId,USB Adapter,55534220-4164-4617-9074-65722e6b6963,rev?*
G04 #@! TF.SameCoordinates,Original*
G04 #@! TF.FileFunction,Copper,L1,Top*
G04 #@! TF.FilePolarity,Positive*
%FSLAX46Y46*%
G04 Gerber Fmt 4.6, Leading zero omitted, Abs format (unit mm)*
G04 Created by KiCad (PCBNEW (5.1.4)-1) date 2020-03-27 03:56:46*
%MOMM*%
%LPD*%
G04 APERTURE LIST*
%ADD10O,1.700000X1.700000*%
%ADD11R,1.700000X1.700000*%
%ADD12C,0.100000*%
%ADD13C,1.750000*%
%ADD14C,2.250000*%
%ADD15C,1.100000*%
%ADD16C,0.254000*%
G04 APERTURE END LIST*
D10*
X111760000Y-67310000D03*
X111760000Y-64770000D03*
X111760000Y-62230000D03*
D11*
X111760000Y-59690000D03*
D10*
X96520000Y-67310000D03*
D11*
X99060000Y-67310000D03*
D10*
X96520000Y-59690000D03*
D11*
X99060000Y-59690000D03*
D12*
G36*
X100780382Y-61877107D02*
G01*
X100822852Y-61883406D01*
X100864500Y-61893839D01*
X100904924Y-61908303D01*
X100943736Y-61926659D01*
X100980562Y-61948732D01*
X101015047Y-61974308D01*
X101046859Y-62003141D01*
X101075692Y-62034953D01*
X101101268Y-62069438D01*
X101123341Y-62106264D01*
X101141697Y-62145076D01*
X101156161Y-62185500D01*
X101166594Y-62227148D01*
X101172893Y-62269618D01*
X101175000Y-62312500D01*
X101175000Y-64687500D01*
X101172893Y-64730382D01*
X101166594Y-64772852D01*
X101156161Y-64814500D01*
X101141697Y-64854924D01*
X101123341Y-64893736D01*
X101101268Y-64930562D01*
X101075692Y-64965047D01*
X101046859Y-64996859D01*
X101015047Y-65025692D01*
X100980562Y-65051268D01*
X100943736Y-65073341D01*
X100904924Y-65091697D01*
X100864500Y-65106161D01*
X100822852Y-65116594D01*
X100780382Y-65122893D01*
X100737500Y-65125000D01*
X99862500Y-65125000D01*
X99819618Y-65122893D01*
X99777148Y-65116594D01*
X99735500Y-65106161D01*
X99695076Y-65091697D01*
X99656264Y-65073341D01*
X99619438Y-65051268D01*
X99584953Y-65025692D01*
X99553141Y-64996859D01*
X99524308Y-64965047D01*
X99498732Y-64930562D01*
X99476659Y-64893736D01*
X99458303Y-64854924D01*
X99443839Y-64814500D01*
X99433406Y-64772852D01*
X99427107Y-64730382D01*
X99425000Y-64687500D01*
X99425000Y-62312500D01*
X99427107Y-62269618D01*
X99433406Y-62227148D01*
X99443839Y-62185500D01*
X99458303Y-62145076D01*
X99476659Y-62106264D01*
X99498732Y-62069438D01*
X99524308Y-62034953D01*
X99553141Y-62003141D01*
X99584953Y-61974308D01*
X99619438Y-61948732D01*
X99656264Y-61926659D01*
X99695076Y-61908303D01*
X99735500Y-61893839D01*
X99777148Y-61883406D01*
X99819618Y-61877107D01*
X99862500Y-61875000D01*
X100737500Y-61875000D01*
X100780382Y-61877107D01*
X100780382Y-61877107D01*
G37*
D13*
X100300000Y-63500000D03*
D12*
G36*
X106567635Y-59252709D02*
G01*
X106622238Y-59260808D01*
X106675785Y-59274221D01*
X106727759Y-59292818D01*
X106777661Y-59316419D01*
X106825008Y-59344798D01*
X106869346Y-59377682D01*
X106910248Y-59414752D01*
X106947318Y-59455654D01*
X106980202Y-59499992D01*
X107008581Y-59547339D01*
X107032182Y-59597241D01*
X107050779Y-59649215D01*
X107064192Y-59702762D01*
X107072291Y-59757365D01*
X107075000Y-59812500D01*
X107075000Y-61687500D01*
X107072291Y-61742635D01*
X107064192Y-61797238D01*
X107050779Y-61850785D01*
X107032182Y-61902759D01*
X107008581Y-61952661D01*
X106980202Y-62000008D01*
X106947318Y-62044346D01*
X106910248Y-62085248D01*
X106869346Y-62122318D01*
X106825008Y-62155202D01*
X106777661Y-62183581D01*
X106727759Y-62207182D01*
X106675785Y-62225779D01*
X106622238Y-62239192D01*
X106567635Y-62247291D01*
X106512500Y-62250000D01*
X105387500Y-62250000D01*
X105332365Y-62247291D01*
X105277762Y-62239192D01*
X105224215Y-62225779D01*
X105172241Y-62207182D01*
X105122339Y-62183581D01*
X105074992Y-62155202D01*
X105030654Y-62122318D01*
X104989752Y-62085248D01*
X104952682Y-62044346D01*
X104919798Y-62000008D01*
X104891419Y-61952661D01*
X104867818Y-61902759D01*
X104849221Y-61850785D01*
X104835808Y-61797238D01*
X104827709Y-61742635D01*
X104825000Y-61687500D01*
X104825000Y-59812500D01*
X104827709Y-59757365D01*
X104835808Y-59702762D01*
X104849221Y-59649215D01*
X104867818Y-59597241D01*
X104891419Y-59547339D01*
X104919798Y-59499992D01*
X104952682Y-59455654D01*
X104989752Y-59414752D01*
X105030654Y-59377682D01*
X105074992Y-59344798D01*
X105122339Y-59316419D01*
X105172241Y-59292818D01*
X105224215Y-59274221D01*
X105277762Y-59260808D01*
X105332365Y-59252709D01*
X105387500Y-59250000D01*
X106512500Y-59250000D01*
X106567635Y-59252709D01*
X106567635Y-59252709D01*
G37*
D14*
X105950000Y-60750000D03*
D12*
G36*
X106567635Y-64752709D02*
G01*
X106622238Y-64760808D01*
X106675785Y-64774221D01*
X106727759Y-64792818D01*
X106777661Y-64816419D01*
X106825008Y-64844798D01*
X106869346Y-64877682D01*
X106910248Y-64914752D01*
X106947318Y-64955654D01*
X106980202Y-64999992D01*
X107008581Y-65047339D01*
X107032182Y-65097241D01*
X107050779Y-65149215D01*
X107064192Y-65202762D01*
X107072291Y-65257365D01*
X107075000Y-65312500D01*
X107075000Y-67187500D01*
X107072291Y-67242635D01*
X107064192Y-67297238D01*
X107050779Y-67350785D01*
X107032182Y-67402759D01*
X107008581Y-67452661D01*
X106980202Y-67500008D01*
X106947318Y-67544346D01*
X106910248Y-67585248D01*
X106869346Y-67622318D01*
X106825008Y-67655202D01*
X106777661Y-67683581D01*
X106727759Y-67707182D01*
X106675785Y-67725779D01*
X106622238Y-67739192D01*
X106567635Y-67747291D01*
X106512500Y-67750000D01*
X105387500Y-67750000D01*
X105332365Y-67747291D01*
X105277762Y-67739192D01*
X105224215Y-67725779D01*
X105172241Y-67707182D01*
X105122339Y-67683581D01*
X105074992Y-67655202D01*
X105030654Y-67622318D01*
X104989752Y-67585248D01*
X104952682Y-67544346D01*
X104919798Y-67500008D01*
X104891419Y-67452661D01*
X104867818Y-67402759D01*
X104849221Y-67350785D01*
X104835808Y-67297238D01*
X104827709Y-67242635D01*
X104825000Y-67187500D01*
X104825000Y-65312500D01*
X104827709Y-65257365D01*
X104835808Y-65202762D01*
X104849221Y-65149215D01*
X104867818Y-65097241D01*
X104891419Y-65047339D01*
X104919798Y-64999992D01*
X104952682Y-64955654D01*
X104989752Y-64914752D01*
X105030654Y-64877682D01*
X105074992Y-64844798D01*
X105122339Y-64816419D01*
X105172241Y-64792818D01*
X105224215Y-64774221D01*
X105277762Y-64760808D01*
X105332365Y-64752709D01*
X105387500Y-64750000D01*
X106512500Y-64750000D01*
X106567635Y-64752709D01*
X106567635Y-64752709D01*
G37*
D14*
X105950000Y-66250000D03*
D12*
G36*
X109151955Y-60851324D02*
G01*
X109178650Y-60855284D01*
X109204828Y-60861841D01*
X109230238Y-60870933D01*
X109254634Y-60882472D01*
X109277782Y-60896346D01*
X109299458Y-60912422D01*
X109319454Y-60930546D01*
X109337578Y-60950542D01*
X109353654Y-60972218D01*
X109367528Y-60995366D01*
X109379067Y-61019762D01*
X109388159Y-61045172D01*
X109394716Y-61071350D01*
X109398676Y-61098045D01*
X109400000Y-61125000D01*
X109400000Y-61675000D01*
X109398676Y-61701955D01*
X109394716Y-61728650D01*
X109388159Y-61754828D01*
X109379067Y-61780238D01*
X109367528Y-61804634D01*
X109353654Y-61827782D01*
X109337578Y-61849458D01*
X109319454Y-61869454D01*
X109299458Y-61887578D01*
X109277782Y-61903654D01*
X109254634Y-61917528D01*
X109230238Y-61929067D01*
X109204828Y-61938159D01*
X109178650Y-61944716D01*
X109151955Y-61948676D01*
X109125000Y-61950000D01*
X107675000Y-61950000D01*
X107648045Y-61948676D01*
X107621350Y-61944716D01*
X107595172Y-61938159D01*
X107569762Y-61929067D01*
X107545366Y-61917528D01*
X107522218Y-61903654D01*
X107500542Y-61887578D01*
X107480546Y-61869454D01*
X107462422Y-61849458D01*
X107446346Y-61827782D01*
X107432472Y-61804634D01*
X107420933Y-61780238D01*
X107411841Y-61754828D01*
X107405284Y-61728650D01*
X107401324Y-61701955D01*
X107400000Y-61675000D01*
X107400000Y-61125000D01*
X107401324Y-61098045D01*
X107405284Y-61071350D01*
X107411841Y-61045172D01*
X107420933Y-61019762D01*
X107432472Y-60995366D01*
X107446346Y-60972218D01*
X107462422Y-60950542D01*
X107480546Y-60930546D01*
X107500542Y-60912422D01*
X107522218Y-60896346D01*
X107545366Y-60882472D01*
X107569762Y-60870933D01*
X107595172Y-60861841D01*
X107621350Y-60855284D01*
X107648045Y-60851324D01*
X107675000Y-60850000D01*
X109125000Y-60850000D01*
X109151955Y-60851324D01*
X109151955Y-60851324D01*
G37*
D15*
X108400000Y-61400000D03*
D12*
G36*
X109151955Y-62251324D02*
G01*
X109178650Y-62255284D01*
X109204828Y-62261841D01*
X109230238Y-62270933D01*
X109254634Y-62282472D01*
X109277782Y-62296346D01*
X109299458Y-62312422D01*
X109319454Y-62330546D01*
X109337578Y-62350542D01*
X109353654Y-62372218D01*
X109367528Y-62395366D01*
X109379067Y-62419762D01*
X109388159Y-62445172D01*
X109394716Y-62471350D01*
X109398676Y-62498045D01*
X109400000Y-62525000D01*
X109400000Y-63075000D01*
X109398676Y-63101955D01*
X109394716Y-63128650D01*
X109388159Y-63154828D01*
X109379067Y-63180238D01*
X109367528Y-63204634D01*
X109353654Y-63227782D01*
X109337578Y-63249458D01*
X109319454Y-63269454D01*
X109299458Y-63287578D01*
X109277782Y-63303654D01*
X109254634Y-63317528D01*
X109230238Y-63329067D01*
X109204828Y-63338159D01*
X109178650Y-63344716D01*
X109151955Y-63348676D01*
X109125000Y-63350000D01*
X107675000Y-63350000D01*
X107648045Y-63348676D01*
X107621350Y-63344716D01*
X107595172Y-63338159D01*
X107569762Y-63329067D01*
X107545366Y-63317528D01*
X107522218Y-63303654D01*
X107500542Y-63287578D01*
X107480546Y-63269454D01*
X107462422Y-63249458D01*
X107446346Y-63227782D01*
X107432472Y-63204634D01*
X107420933Y-63180238D01*
X107411841Y-63154828D01*
X107405284Y-63128650D01*
X107401324Y-63101955D01*
X107400000Y-63075000D01*
X107400000Y-62525000D01*
X107401324Y-62498045D01*
X107405284Y-62471350D01*
X107411841Y-62445172D01*
X107420933Y-62419762D01*
X107432472Y-62395366D01*
X107446346Y-62372218D01*
X107462422Y-62350542D01*
X107480546Y-62330546D01*
X107500542Y-62312422D01*
X107522218Y-62296346D01*
X107545366Y-62282472D01*
X107569762Y-62270933D01*
X107595172Y-62261841D01*
X107621350Y-62255284D01*
X107648045Y-62251324D01*
X107675000Y-62250000D01*
X109125000Y-62250000D01*
X109151955Y-62251324D01*
X109151955Y-62251324D01*
G37*
D15*
X108400000Y-62800000D03*
D12*
G36*
X109151955Y-63651324D02*
G01*
X109178650Y-63655284D01*
X109204828Y-63661841D01*
X109230238Y-63670933D01*
X109254634Y-63682472D01*
X109277782Y-63696346D01*
X109299458Y-63712422D01*
X109319454Y-63730546D01*
X109337578Y-63750542D01*
X109353654Y-63772218D01*
X109367528Y-63795366D01*
X109379067Y-63819762D01*
X109388159Y-63845172D01*
X109394716Y-63871350D01*
X109398676Y-63898045D01*
X109400000Y-63925000D01*
X109400000Y-64475000D01*
X109398676Y-64501955D01*
X109394716Y-64528650D01*
X109388159Y-64554828D01*
X109379067Y-64580238D01*
X109367528Y-64604634D01*
X109353654Y-64627782D01*
X109337578Y-64649458D01*
X109319454Y-64669454D01*
X109299458Y-64687578D01*
X109277782Y-64703654D01*
X109254634Y-64717528D01*
X109230238Y-64729067D01*
X109204828Y-64738159D01*
X109178650Y-64744716D01*
X109151955Y-64748676D01*
X109125000Y-64750000D01*
X107675000Y-64750000D01*
X107648045Y-64748676D01*
X107621350Y-64744716D01*
X107595172Y-64738159D01*
X107569762Y-64729067D01*
X107545366Y-64717528D01*
X107522218Y-64703654D01*
X107500542Y-64687578D01*
X107480546Y-64669454D01*
X107462422Y-64649458D01*
X107446346Y-64627782D01*
X107432472Y-64604634D01*
X107420933Y-64580238D01*
X107411841Y-64554828D01*
X107405284Y-64528650D01*
X107401324Y-64501955D01*
X107400000Y-64475000D01*
X107400000Y-63925000D01*
X107401324Y-63898045D01*
X107405284Y-63871350D01*
X107411841Y-63845172D01*
X107420933Y-63819762D01*
X107432472Y-63795366D01*
X107446346Y-63772218D01*
X107462422Y-63750542D01*
X107480546Y-63730546D01*
X107500542Y-63712422D01*
X107522218Y-63696346D01*
X107545366Y-63682472D01*
X107569762Y-63670933D01*
X107595172Y-63661841D01*
X107621350Y-63655284D01*
X107648045Y-63651324D01*
X107675000Y-63650000D01*
X109125000Y-63650000D01*
X109151955Y-63651324D01*
X109151955Y-63651324D01*
G37*
D15*
X108400000Y-64200000D03*
D12*
G36*
X109151955Y-65051324D02*
G01*
X109178650Y-65055284D01*
X109204828Y-65061841D01*
X109230238Y-65070933D01*
X109254634Y-65082472D01*
X109277782Y-65096346D01*
X109299458Y-65112422D01*
X109319454Y-65130546D01*
X109337578Y-65150542D01*
X109353654Y-65172218D01*
X109367528Y-65195366D01*
X109379067Y-65219762D01*
X109388159Y-65245172D01*
X109394716Y-65271350D01*
X109398676Y-65298045D01*
X109400000Y-65325000D01*
X109400000Y-65875000D01*
X109398676Y-65901955D01*
X109394716Y-65928650D01*
X109388159Y-65954828D01*
X109379067Y-65980238D01*
X109367528Y-66004634D01*
X109353654Y-66027782D01*
X109337578Y-66049458D01*
X109319454Y-66069454D01*
X109299458Y-66087578D01*
X109277782Y-66103654D01*
X109254634Y-66117528D01*
X109230238Y-66129067D01*
X109204828Y-66138159D01*
X109178650Y-66144716D01*
X109151955Y-66148676D01*
X109125000Y-66150000D01*
X107675000Y-66150000D01*
X107648045Y-66148676D01*
X107621350Y-66144716D01*
X107595172Y-66138159D01*
X107569762Y-66129067D01*
X107545366Y-66117528D01*
X107522218Y-66103654D01*
X107500542Y-66087578D01*
X107480546Y-66069454D01*
X107462422Y-66049458D01*
X107446346Y-66027782D01*
X107432472Y-66004634D01*
X107420933Y-65980238D01*
X107411841Y-65954828D01*
X107405284Y-65928650D01*
X107401324Y-65901955D01*
X107400000Y-65875000D01*
X107400000Y-65325000D01*
X107401324Y-65298045D01*
X107405284Y-65271350D01*
X107411841Y-65245172D01*
X107420933Y-65219762D01*
X107432472Y-65195366D01*
X107446346Y-65172218D01*
X107462422Y-65150542D01*
X107480546Y-65130546D01*
X107500542Y-65112422D01*
X107522218Y-65096346D01*
X107545366Y-65082472D01*
X107569762Y-65070933D01*
X107595172Y-65061841D01*
X107621350Y-65055284D01*
X107648045Y-65051324D01*
X107675000Y-65050000D01*
X109125000Y-65050000D01*
X109151955Y-65051324D01*
X109151955Y-65051324D01*
G37*
D15*
X108400000Y-65600000D03*
D16*
X107950000Y-62800000D02*
X110047000Y-62800000D01*
X110047000Y-62800000D02*
X110617000Y-62230000D01*
X110617000Y-62230000D02*
X111760000Y-62230000D01*
X107950000Y-64200000D02*
X110047000Y-64200000D01*
X110047000Y-64200000D02*
X110617000Y-64770000D01*
X110617000Y-64770000D02*
X111760000Y-64770000D01*
G36*
X97827157Y-58840000D02*
G01*
X97827157Y-60540000D01*
X97834513Y-60614689D01*
X97856299Y-60686508D01*
X97891678Y-60752696D01*
X97939289Y-60810711D01*
X97997304Y-60858322D01*
X98063492Y-60893701D01*
X98135311Y-60915487D01*
X98210000Y-60922843D01*
X99910000Y-60922843D01*
X99984689Y-60915487D01*
X100056508Y-60893701D01*
X100122696Y-60858322D01*
X100180711Y-60810711D01*
X100228322Y-60752696D01*
X100263701Y-60686508D01*
X100285487Y-60614689D01*
X100292843Y-60540000D01*
X100292843Y-58840000D01*
X100291464Y-58826000D01*
X110528536Y-58826000D01*
X110527157Y-58840000D01*
X110527157Y-60540000D01*
X110534513Y-60614689D01*
X110556299Y-60686508D01*
X110591678Y-60752696D01*
X110639289Y-60810711D01*
X110697304Y-60858322D01*
X110763492Y-60893701D01*
X110835311Y-60915487D01*
X110910000Y-60922843D01*
X112610000Y-60922843D01*
X112624000Y-60921464D01*
X112624000Y-61346592D01*
X112447216Y-61201509D01*
X112233363Y-61087202D01*
X112001318Y-61016812D01*
X111820472Y-60999000D01*
X111699528Y-60999000D01*
X111518682Y-61016812D01*
X111286637Y-61087202D01*
X111072784Y-61201509D01*
X110885340Y-61355340D01*
X110731509Y-61542784D01*
X110636027Y-61721417D01*
X110617000Y-61719543D01*
X110592056Y-61722000D01*
X110592053Y-61722000D01*
X110517415Y-61729351D01*
X110421657Y-61758399D01*
X110333405Y-61805571D01*
X110256052Y-61869052D01*
X110240145Y-61888435D01*
X109836580Y-62292000D01*
X109738455Y-62292000D01*
X109732768Y-62273254D01*
X109671976Y-62159522D01*
X109623128Y-62100000D01*
X109671976Y-62040478D01*
X109732768Y-61926746D01*
X109770203Y-61803339D01*
X109782843Y-61675000D01*
X109782843Y-61125000D01*
X109770203Y-60996661D01*
X109732768Y-60873254D01*
X109671976Y-60759522D01*
X109590165Y-60659835D01*
X109490478Y-60578024D01*
X109376746Y-60517232D01*
X109253339Y-60479797D01*
X109125000Y-60467157D01*
X107675000Y-60467157D01*
X107546661Y-60479797D01*
X107457843Y-60506740D01*
X107457843Y-59812500D01*
X107439678Y-59628073D01*
X107385883Y-59450733D01*
X107298524Y-59287296D01*
X107180958Y-59144042D01*
X107037704Y-59026476D01*
X106874267Y-58939117D01*
X106696927Y-58885322D01*
X106512500Y-58867157D01*
X105387500Y-58867157D01*
X105203073Y-58885322D01*
X105025733Y-58939117D01*
X104862296Y-59026476D01*
X104719042Y-59144042D01*
X104601476Y-59287296D01*
X104514117Y-59450733D01*
X104460322Y-59628073D01*
X104442157Y-59812500D01*
X104442157Y-61687500D01*
X104460322Y-61871927D01*
X104514117Y-62049267D01*
X104601476Y-62212704D01*
X104719042Y-62355958D01*
X104862296Y-62473524D01*
X105025733Y-62560883D01*
X105203073Y-62614678D01*
X105387500Y-62632843D01*
X106512500Y-62632843D01*
X106696927Y-62614678D01*
X106874267Y-62560883D01*
X107021367Y-62482256D01*
X107017157Y-62525000D01*
X107017157Y-63075000D01*
X107029797Y-63203339D01*
X107067232Y-63326746D01*
X107128024Y-63440478D01*
X107176872Y-63500000D01*
X107128024Y-63559522D01*
X107067232Y-63673254D01*
X107029797Y-63796661D01*
X107017157Y-63925000D01*
X107017157Y-64475000D01*
X107021367Y-64517744D01*
X106874267Y-64439117D01*
X106696927Y-64385322D01*
X106512500Y-64367157D01*
X105387500Y-64367157D01*
X105203073Y-64385322D01*
X105025733Y-64439117D01*
X104862296Y-64526476D01*
X104719042Y-64644042D01*
X104601476Y-64787296D01*
X104514117Y-64950733D01*
X104460322Y-65128073D01*
X104442157Y-65312500D01*
X104442157Y-67187500D01*
X104460322Y-67371927D01*
X104514117Y-67549267D01*
X104601476Y-67712704D01*
X104719042Y-67855958D01*
X104862296Y-67973524D01*
X105025733Y-68060883D01*
X105203073Y-68114678D01*
X105387500Y-68132843D01*
X106512500Y-68132843D01*
X106696927Y-68114678D01*
X106874267Y-68060883D01*
X107037704Y-67973524D01*
X107180958Y-67855958D01*
X107298524Y-67712704D01*
X107385883Y-67549267D01*
X107439678Y-67371927D01*
X107457843Y-67187500D01*
X107457843Y-66931594D01*
X110588603Y-66931594D01*
X110640340Y-67119500D01*
X111569500Y-67119500D01*
X111569500Y-66189071D01*
X111381593Y-66138595D01*
X111160334Y-66234927D01*
X110962120Y-66372573D01*
X110794568Y-66546244D01*
X110664117Y-66749266D01*
X110588603Y-66931594D01*
X107457843Y-66931594D01*
X107457843Y-66532694D01*
X108114250Y-66531000D01*
X108209500Y-66435750D01*
X108209500Y-65790500D01*
X108590500Y-65790500D01*
X108590500Y-66435750D01*
X108685750Y-66531000D01*
X109400000Y-66532843D01*
X109474689Y-66525487D01*
X109546508Y-66503701D01*
X109612696Y-66468322D01*
X109670711Y-66420711D01*
X109718322Y-66362696D01*
X109753701Y-66296508D01*
X109775487Y-66224689D01*
X109782843Y-66150000D01*
X109781000Y-65885750D01*
X109685750Y-65790500D01*
X108590500Y-65790500D01*
X108209500Y-65790500D01*
X108189500Y-65790500D01*
X108189500Y-65409500D01*
X108209500Y-65409500D01*
X108209500Y-65389500D01*
X108590500Y-65389500D01*
X108590500Y-65409500D01*
X109685750Y-65409500D01*
X109781000Y-65314250D01*
X109782843Y-65050000D01*
X109775487Y-64975311D01*
X109753701Y-64903492D01*
X109718322Y-64837304D01*
X109691283Y-64804357D01*
X109732768Y-64726746D01*
X109738455Y-64708000D01*
X109836580Y-64708000D01*
X110240145Y-65111565D01*
X110256052Y-65130948D01*
X110333405Y-65194429D01*
X110421657Y-65241601D01*
X110517415Y-65270649D01*
X110592053Y-65278000D01*
X110592056Y-65278000D01*
X110617000Y-65280457D01*
X110636027Y-65278583D01*
X110731509Y-65457216D01*
X110885340Y-65644660D01*
X111072784Y-65798491D01*
X111286637Y-65912798D01*
X111518682Y-65983188D01*
X111699528Y-66001000D01*
X111820472Y-66001000D01*
X112001318Y-65983188D01*
X112233363Y-65912798D01*
X112447216Y-65798491D01*
X112624001Y-65653408D01*
X112624001Y-66441109D01*
X112557880Y-66372573D01*
X112359666Y-66234927D01*
X112138407Y-66138595D01*
X111950500Y-66189071D01*
X111950500Y-67119500D01*
X111970500Y-67119500D01*
X111970500Y-67500500D01*
X111950500Y-67500500D01*
X111950500Y-67520500D01*
X111569500Y-67520500D01*
X111569500Y-67500500D01*
X110640340Y-67500500D01*
X110588603Y-67688406D01*
X110664117Y-67870734D01*
X110794568Y-68073756D01*
X110891280Y-68174000D01*
X100291464Y-68174000D01*
X100292843Y-68160000D01*
X100292843Y-66460000D01*
X100285487Y-66385311D01*
X100263701Y-66313492D01*
X100228322Y-66247304D01*
X100180711Y-66189289D01*
X100122696Y-66141678D01*
X100056508Y-66106299D01*
X99984689Y-66084513D01*
X99910000Y-66077157D01*
X98210000Y-66077157D01*
X98135311Y-66084513D01*
X98063492Y-66106299D01*
X97997304Y-66141678D01*
X97939289Y-66189289D01*
X97891678Y-66247304D01*
X97856299Y-66313492D01*
X97834513Y-66385311D01*
X97827157Y-66460000D01*
X97827157Y-68160000D01*
X97828536Y-68174000D01*
X97403408Y-68174000D01*
X97548491Y-67997216D01*
X97662798Y-67783363D01*
X97733188Y-67551318D01*
X97756956Y-67310000D01*
X97733188Y-67068682D01*
X97662798Y-66836637D01*
X97548491Y-66622784D01*
X97394660Y-66435340D01*
X97207216Y-66281509D01*
X96993363Y-66167202D01*
X96761318Y-66096812D01*
X96580472Y-66079000D01*
X96459528Y-66079000D01*
X96278682Y-66096812D01*
X96046637Y-66167202D01*
X95832784Y-66281509D01*
X95656000Y-66426592D01*
X95656000Y-62312500D01*
X99042157Y-62312500D01*
X99042157Y-64687500D01*
X99057920Y-64847541D01*
X99104602Y-65001432D01*
X99180410Y-65143258D01*
X99282430Y-65267570D01*
X99406742Y-65369590D01*
X99548568Y-65445398D01*
X99702459Y-65492080D01*
X99862500Y-65507843D01*
X100737500Y-65507843D01*
X100897541Y-65492080D01*
X101051432Y-65445398D01*
X101193258Y-65369590D01*
X101317570Y-65267570D01*
X101419590Y-65143258D01*
X101495398Y-65001432D01*
X101542080Y-64847541D01*
X101557843Y-64687500D01*
X101557843Y-62312500D01*
X101542080Y-62152459D01*
X101495398Y-61998568D01*
X101419590Y-61856742D01*
X101317570Y-61732430D01*
X101193258Y-61630410D01*
X101051432Y-61554602D01*
X100897541Y-61507920D01*
X100737500Y-61492157D01*
X99862500Y-61492157D01*
X99702459Y-61507920D01*
X99548568Y-61554602D01*
X99406742Y-61630410D01*
X99282430Y-61732430D01*
X99180410Y-61856742D01*
X99104602Y-61998568D01*
X99057920Y-62152459D01*
X99042157Y-62312500D01*
X95656000Y-62312500D01*
X95656000Y-60573408D01*
X95832784Y-60718491D01*
X96046637Y-60832798D01*
X96278682Y-60903188D01*
X96459528Y-60921000D01*
X96580472Y-60921000D01*
X96761318Y-60903188D01*
X96993363Y-60832798D01*
X97207216Y-60718491D01*
X97394660Y-60564660D01*
X97548491Y-60377216D01*
X97662798Y-60163363D01*
X97733188Y-59931318D01*
X97756956Y-59690000D01*
X97733188Y-59448682D01*
X97662798Y-59216637D01*
X97548491Y-59002784D01*
X97403408Y-58826000D01*
X97828536Y-58826000D01*
X97827157Y-58840000D01*
X97827157Y-58840000D01*
G37*
X97827157Y-58840000D02*
X97827157Y-60540000D01*
X97834513Y-60614689D01*
X97856299Y-60686508D01*
X97891678Y-60752696D01*
X97939289Y-60810711D01*
X97997304Y-60858322D01*
X98063492Y-60893701D01*
X98135311Y-60915487D01*
X98210000Y-60922843D01*
X99910000Y-60922843D01*
X99984689Y-60915487D01*
X100056508Y-60893701D01*
X100122696Y-60858322D01*
X100180711Y-60810711D01*
X100228322Y-60752696D01*
X100263701Y-60686508D01*
X100285487Y-60614689D01*
X100292843Y-60540000D01*
X100292843Y-58840000D01*
X100291464Y-58826000D01*
X110528536Y-58826000D01*
X110527157Y-58840000D01*
X110527157Y-60540000D01*
X110534513Y-60614689D01*
X110556299Y-60686508D01*
X110591678Y-60752696D01*
X110639289Y-60810711D01*
X110697304Y-60858322D01*
X110763492Y-60893701D01*
X110835311Y-60915487D01*
X110910000Y-60922843D01*
X112610000Y-60922843D01*
X112624000Y-60921464D01*
X112624000Y-61346592D01*
X112447216Y-61201509D01*
X112233363Y-61087202D01*
X112001318Y-61016812D01*
X111820472Y-60999000D01*
X111699528Y-60999000D01*
X111518682Y-61016812D01*
X111286637Y-61087202D01*
X111072784Y-61201509D01*
X110885340Y-61355340D01*
X110731509Y-61542784D01*
X110636027Y-61721417D01*
X110617000Y-61719543D01*
X110592056Y-61722000D01*
X110592053Y-61722000D01*
X110517415Y-61729351D01*
X110421657Y-61758399D01*
X110333405Y-61805571D01*
X110256052Y-61869052D01*
X110240145Y-61888435D01*
X109836580Y-62292000D01*
X109738455Y-62292000D01*
X109732768Y-62273254D01*
X109671976Y-62159522D01*
X109623128Y-62100000D01*
X109671976Y-62040478D01*
X109732768Y-61926746D01*
X109770203Y-61803339D01*
X109782843Y-61675000D01*
X109782843Y-61125000D01*
X109770203Y-60996661D01*
X109732768Y-60873254D01*
X109671976Y-60759522D01*
X109590165Y-60659835D01*
X109490478Y-60578024D01*
X109376746Y-60517232D01*
X109253339Y-60479797D01*
X109125000Y-60467157D01*
X107675000Y-60467157D01*
X107546661Y-60479797D01*
X107457843Y-60506740D01*
X107457843Y-59812500D01*
X107439678Y-59628073D01*
X107385883Y-59450733D01*
X107298524Y-59287296D01*
X107180958Y-59144042D01*
X107037704Y-59026476D01*
X106874267Y-58939117D01*
X106696927Y-58885322D01*
X106512500Y-58867157D01*
X105387500Y-58867157D01*
X105203073Y-58885322D01*
X105025733Y-58939117D01*
X104862296Y-59026476D01*
X104719042Y-59144042D01*
X104601476Y-59287296D01*
X104514117Y-59450733D01*
X104460322Y-59628073D01*
X104442157Y-59812500D01*
X104442157Y-61687500D01*
X104460322Y-61871927D01*
X104514117Y-62049267D01*
X104601476Y-62212704D01*
X104719042Y-62355958D01*
X104862296Y-62473524D01*
X105025733Y-62560883D01*
X105203073Y-62614678D01*
X105387500Y-62632843D01*
X106512500Y-62632843D01*
X106696927Y-62614678D01*
X106874267Y-62560883D01*
X107021367Y-62482256D01*
X107017157Y-62525000D01*
X107017157Y-63075000D01*
X107029797Y-63203339D01*
X107067232Y-63326746D01*
X107128024Y-63440478D01*
X107176872Y-63500000D01*
X107128024Y-63559522D01*
X107067232Y-63673254D01*
X107029797Y-63796661D01*
X107017157Y-63925000D01*
X107017157Y-64475000D01*
X107021367Y-64517744D01*
X106874267Y-64439117D01*
X106696927Y-64385322D01*
X106512500Y-64367157D01*
X105387500Y-64367157D01*
X105203073Y-64385322D01*
X105025733Y-64439117D01*
X104862296Y-64526476D01*
X104719042Y-64644042D01*
X104601476Y-64787296D01*
X104514117Y-64950733D01*
X104460322Y-65128073D01*
X104442157Y-65312500D01*
X104442157Y-67187500D01*
X104460322Y-67371927D01*
X104514117Y-67549267D01*
X104601476Y-67712704D01*
X104719042Y-67855958D01*
X104862296Y-67973524D01*
X105025733Y-68060883D01*
X105203073Y-68114678D01*
X105387500Y-68132843D01*
X106512500Y-68132843D01*
X106696927Y-68114678D01*
X106874267Y-68060883D01*
X107037704Y-67973524D01*
X107180958Y-67855958D01*
X107298524Y-67712704D01*
X107385883Y-67549267D01*
X107439678Y-67371927D01*
X107457843Y-67187500D01*
X107457843Y-66931594D01*
X110588603Y-66931594D01*
X110640340Y-67119500D01*
X111569500Y-67119500D01*
X111569500Y-66189071D01*
X111381593Y-66138595D01*
X111160334Y-66234927D01*
X110962120Y-66372573D01*
X110794568Y-66546244D01*
X110664117Y-66749266D01*
X110588603Y-66931594D01*
X107457843Y-66931594D01*
X107457843Y-66532694D01*
X108114250Y-66531000D01*
X108209500Y-66435750D01*
X108209500Y-65790500D01*
X108590500Y-65790500D01*
X108590500Y-66435750D01*
X108685750Y-66531000D01*
X109400000Y-66532843D01*
X109474689Y-66525487D01*
X109546508Y-66503701D01*
X109612696Y-66468322D01*
X109670711Y-66420711D01*
X109718322Y-66362696D01*
X109753701Y-66296508D01*
X109775487Y-66224689D01*
X109782843Y-66150000D01*
X109781000Y-65885750D01*
X109685750Y-65790500D01*
X108590500Y-65790500D01*
X108209500Y-65790500D01*
X108189500Y-65790500D01*
X108189500Y-65409500D01*
X108209500Y-65409500D01*
X108209500Y-65389500D01*
X108590500Y-65389500D01*
X108590500Y-65409500D01*
X109685750Y-65409500D01*
X109781000Y-65314250D01*
X109782843Y-65050000D01*
X109775487Y-64975311D01*
X109753701Y-64903492D01*
X109718322Y-64837304D01*
X109691283Y-64804357D01*
X109732768Y-64726746D01*
X109738455Y-64708000D01*
X109836580Y-64708000D01*
X110240145Y-65111565D01*
X110256052Y-65130948D01*
X110333405Y-65194429D01*
X110421657Y-65241601D01*
X110517415Y-65270649D01*
X110592053Y-65278000D01*
X110592056Y-65278000D01*
X110617000Y-65280457D01*
X110636027Y-65278583D01*
X110731509Y-65457216D01*
X110885340Y-65644660D01*
X111072784Y-65798491D01*
X111286637Y-65912798D01*
X111518682Y-65983188D01*
X111699528Y-66001000D01*
X111820472Y-66001000D01*
X112001318Y-65983188D01*
X112233363Y-65912798D01*
X112447216Y-65798491D01*
X112624001Y-65653408D01*
X112624001Y-66441109D01*
X112557880Y-66372573D01*
X112359666Y-66234927D01*
X112138407Y-66138595D01*
X111950500Y-66189071D01*
X111950500Y-67119500D01*
X111970500Y-67119500D01*
X111970500Y-67500500D01*
X111950500Y-67500500D01*
X111950500Y-67520500D01*
X111569500Y-67520500D01*
X111569500Y-67500500D01*
X110640340Y-67500500D01*
X110588603Y-67688406D01*
X110664117Y-67870734D01*
X110794568Y-68073756D01*
X110891280Y-68174000D01*
X100291464Y-68174000D01*
X100292843Y-68160000D01*
X100292843Y-66460000D01*
X100285487Y-66385311D01*
X100263701Y-66313492D01*
X100228322Y-66247304D01*
X100180711Y-66189289D01*
X100122696Y-66141678D01*
X100056508Y-66106299D01*
X99984689Y-66084513D01*
X99910000Y-66077157D01*
X98210000Y-66077157D01*
X98135311Y-66084513D01*
X98063492Y-66106299D01*
X97997304Y-66141678D01*
X97939289Y-66189289D01*
X97891678Y-66247304D01*
X97856299Y-66313492D01*
X97834513Y-66385311D01*
X97827157Y-66460000D01*
X97827157Y-68160000D01*
X97828536Y-68174000D01*
X97403408Y-68174000D01*
X97548491Y-67997216D01*
X97662798Y-67783363D01*
X97733188Y-67551318D01*
X97756956Y-67310000D01*
X97733188Y-67068682D01*
X97662798Y-66836637D01*
X97548491Y-66622784D01*
X97394660Y-66435340D01*
X97207216Y-66281509D01*
X96993363Y-66167202D01*
X96761318Y-66096812D01*
X96580472Y-66079000D01*
X96459528Y-66079000D01*
X96278682Y-66096812D01*
X96046637Y-66167202D01*
X95832784Y-66281509D01*
X95656000Y-66426592D01*
X95656000Y-62312500D01*
X99042157Y-62312500D01*
X99042157Y-64687500D01*
X99057920Y-64847541D01*
X99104602Y-65001432D01*
X99180410Y-65143258D01*
X99282430Y-65267570D01*
X99406742Y-65369590D01*
X99548568Y-65445398D01*
X99702459Y-65492080D01*
X99862500Y-65507843D01*
X100737500Y-65507843D01*
X100897541Y-65492080D01*
X101051432Y-65445398D01*
X101193258Y-65369590D01*
X101317570Y-65267570D01*
X101419590Y-65143258D01*
X101495398Y-65001432D01*
X101542080Y-64847541D01*
X101557843Y-64687500D01*
X101557843Y-62312500D01*
X101542080Y-62152459D01*
X101495398Y-61998568D01*
X101419590Y-61856742D01*
X101317570Y-61732430D01*
X101193258Y-61630410D01*
X101051432Y-61554602D01*
X100897541Y-61507920D01*
X100737500Y-61492157D01*
X99862500Y-61492157D01*
X99702459Y-61507920D01*
X99548568Y-61554602D01*
X99406742Y-61630410D01*
X99282430Y-61732430D01*
X99180410Y-61856742D01*
X99104602Y-61998568D01*
X99057920Y-62152459D01*
X99042157Y-62312500D01*
X95656000Y-62312500D01*
X95656000Y-60573408D01*
X95832784Y-60718491D01*
X96046637Y-60832798D01*
X96278682Y-60903188D01*
X96459528Y-60921000D01*
X96580472Y-60921000D01*
X96761318Y-60903188D01*
X96993363Y-60832798D01*
X97207216Y-60718491D01*
X97394660Y-60564660D01*
X97548491Y-60377216D01*
X97662798Y-60163363D01*
X97733188Y-59931318D01*
X97756956Y-59690000D01*
X97733188Y-59448682D01*
X97662798Y-59216637D01*
X97548491Y-59002784D01*
X97403408Y-58826000D01*
X97828536Y-58826000D01*
X97827157Y-58840000D01*
M02*
