G04 #@! TF.GenerationSoftware,KiCad,Pcbnew,(5.1.4)-1*
G04 #@! TF.CreationDate,2020-03-27T03:56:46-04:00*
G04 #@! TF.ProjectId,USB Adapter,55534220-4164-4617-9074-65722e6b6963,rev?*
G04 #@! TF.SameCoordinates,Original*
G04 #@! TF.FileFunction,Soldermask,Top*
G04 #@! TF.FilePolarity,Negative*
%FSLAX46Y46*%
G04 Gerber Fmt 4.6, Leading zero omitted, Abs format (unit mm)*
G04 Created by KiCad (PCBNEW (5.1.4)-1) date 2020-03-27 03:56:46*
%MOMM*%
%LPD*%
G04 APERTURE LIST*
%ADD10C,0.100000*%
G04 APERTURE END LIST*
D10*
G36*
X99961000Y-68211000D02*
G01*
X98159000Y-68211000D01*
X98159000Y-66409000D01*
X99961000Y-66409000D01*
X99961000Y-68211000D01*
X99961000Y-68211000D01*
G37*
G36*
X96630443Y-66415519D02*
G01*
X96696627Y-66422037D01*
X96866466Y-66473557D01*
X97022991Y-66557222D01*
X97058729Y-66586552D01*
X97160186Y-66669814D01*
X97243448Y-66771271D01*
X97272778Y-66807009D01*
X97356443Y-66963534D01*
X97407963Y-67133373D01*
X97425359Y-67310000D01*
X97407963Y-67486627D01*
X97356443Y-67656466D01*
X97272778Y-67812991D01*
X97243448Y-67848729D01*
X97160186Y-67950186D01*
X97058729Y-68033448D01*
X97022991Y-68062778D01*
X96866466Y-68146443D01*
X96696627Y-68197963D01*
X96630443Y-68204481D01*
X96564260Y-68211000D01*
X96475740Y-68211000D01*
X96409557Y-68204481D01*
X96343373Y-68197963D01*
X96173534Y-68146443D01*
X96017009Y-68062778D01*
X95981271Y-68033448D01*
X95879814Y-67950186D01*
X95796552Y-67848729D01*
X95767222Y-67812991D01*
X95683557Y-67656466D01*
X95632037Y-67486627D01*
X95614641Y-67310000D01*
X95632037Y-67133373D01*
X95683557Y-66963534D01*
X95767222Y-66807009D01*
X95796552Y-66771271D01*
X95879814Y-66669814D01*
X95981271Y-66586552D01*
X96017009Y-66557222D01*
X96173534Y-66473557D01*
X96343373Y-66422037D01*
X96409557Y-66415519D01*
X96475740Y-66409000D01*
X96564260Y-66409000D01*
X96630443Y-66415519D01*
X96630443Y-66415519D01*
G37*
G36*
X111870443Y-66415519D02*
G01*
X111936627Y-66422037D01*
X112106466Y-66473557D01*
X112262991Y-66557222D01*
X112298729Y-66586552D01*
X112400186Y-66669814D01*
X112483448Y-66771271D01*
X112512778Y-66807009D01*
X112596443Y-66963534D01*
X112647963Y-67133373D01*
X112665359Y-67310000D01*
X112647963Y-67486627D01*
X112596443Y-67656466D01*
X112512778Y-67812991D01*
X112483448Y-67848729D01*
X112400186Y-67950186D01*
X112298729Y-68033448D01*
X112262991Y-68062778D01*
X112106466Y-68146443D01*
X111936627Y-68197963D01*
X111870443Y-68204481D01*
X111804260Y-68211000D01*
X111715740Y-68211000D01*
X111649557Y-68204481D01*
X111583373Y-68197963D01*
X111413534Y-68146443D01*
X111257009Y-68062778D01*
X111221271Y-68033448D01*
X111119814Y-67950186D01*
X111036552Y-67848729D01*
X111007222Y-67812991D01*
X110923557Y-67656466D01*
X110872037Y-67486627D01*
X110854641Y-67310000D01*
X110872037Y-67133373D01*
X110923557Y-66963534D01*
X111007222Y-66807009D01*
X111036552Y-66771271D01*
X111119814Y-66669814D01*
X111221271Y-66586552D01*
X111257009Y-66557222D01*
X111413534Y-66473557D01*
X111583373Y-66422037D01*
X111649557Y-66415519D01*
X111715740Y-66409000D01*
X111804260Y-66409000D01*
X111870443Y-66415519D01*
X111870443Y-66415519D01*
G37*
G36*
X106702900Y-59209690D02*
G01*
X106801371Y-59239561D01*
X106892115Y-59288065D01*
X106971657Y-59353343D01*
X107036935Y-59432885D01*
X107085439Y-59523629D01*
X107115310Y-59622100D01*
X107126000Y-59730640D01*
X107126000Y-60900176D01*
X107128402Y-60924562D01*
X107135515Y-60948011D01*
X107147066Y-60969622D01*
X107162611Y-60988564D01*
X107181553Y-61004109D01*
X107203164Y-61015660D01*
X107226613Y-61022773D01*
X107250999Y-61025175D01*
X107275385Y-61022773D01*
X107298834Y-61015660D01*
X107320445Y-61004109D01*
X107339387Y-60988564D01*
X107354932Y-60969622D01*
X107361094Y-60956594D01*
X107361873Y-60957010D01*
X107389615Y-60905108D01*
X107419136Y-60869136D01*
X107455108Y-60839615D01*
X107496157Y-60817674D01*
X107540685Y-60804166D01*
X107593140Y-60799000D01*
X109206860Y-60799000D01*
X109259315Y-60804166D01*
X109303843Y-60817674D01*
X109344892Y-60839615D01*
X109380864Y-60869136D01*
X109410385Y-60905108D01*
X109432326Y-60946157D01*
X109445834Y-60990685D01*
X109451000Y-61043140D01*
X109451000Y-61756860D01*
X109445834Y-61809315D01*
X109432326Y-61853843D01*
X109410385Y-61894892D01*
X109380864Y-61930864D01*
X109344892Y-61960385D01*
X109297943Y-61985480D01*
X109287605Y-61989762D01*
X109267231Y-62003376D01*
X109249904Y-62020703D01*
X109236291Y-62041077D01*
X109226914Y-62063716D01*
X109222134Y-62087750D01*
X109222134Y-62112254D01*
X109226915Y-62136287D01*
X109236293Y-62158926D01*
X109249907Y-62179300D01*
X109267234Y-62196627D01*
X109287608Y-62210240D01*
X109297947Y-62214522D01*
X109344892Y-62239615D01*
X109380864Y-62269136D01*
X109410385Y-62305108D01*
X109432326Y-62346157D01*
X109445834Y-62390685D01*
X109451000Y-62443140D01*
X109451000Y-63156860D01*
X109445834Y-63209315D01*
X109432326Y-63253843D01*
X109410385Y-63294892D01*
X109380864Y-63330864D01*
X109344892Y-63360385D01*
X109297943Y-63385480D01*
X109287605Y-63389762D01*
X109267231Y-63403376D01*
X109249904Y-63420703D01*
X109236291Y-63441077D01*
X109226914Y-63463716D01*
X109222134Y-63487750D01*
X109222134Y-63512254D01*
X109226915Y-63536287D01*
X109236293Y-63558926D01*
X109249907Y-63579300D01*
X109267234Y-63596627D01*
X109287608Y-63610240D01*
X109297947Y-63614522D01*
X109344892Y-63639615D01*
X109380864Y-63669136D01*
X109410385Y-63705108D01*
X109432326Y-63746157D01*
X109445834Y-63790685D01*
X109451000Y-63843140D01*
X109451000Y-64556860D01*
X109445834Y-64609315D01*
X109432326Y-64653843D01*
X109410385Y-64694892D01*
X109380864Y-64730864D01*
X109344892Y-64760385D01*
X109297943Y-64785480D01*
X109287605Y-64789762D01*
X109267231Y-64803376D01*
X109249904Y-64820703D01*
X109236291Y-64841077D01*
X109226914Y-64863716D01*
X109222134Y-64887750D01*
X109222134Y-64912254D01*
X109226915Y-64936287D01*
X109236293Y-64958926D01*
X109249907Y-64979300D01*
X109267234Y-64996627D01*
X109287608Y-65010240D01*
X109297947Y-65014522D01*
X109344892Y-65039615D01*
X109380864Y-65069136D01*
X109410385Y-65105108D01*
X109432326Y-65146157D01*
X109445834Y-65190685D01*
X109451000Y-65243140D01*
X109451000Y-65956860D01*
X109445834Y-66009315D01*
X109432326Y-66053843D01*
X109410385Y-66094892D01*
X109380864Y-66130864D01*
X109344892Y-66160385D01*
X109303843Y-66182326D01*
X109259315Y-66195834D01*
X109206860Y-66201000D01*
X107593140Y-66201000D01*
X107540685Y-66195834D01*
X107496157Y-66182326D01*
X107455108Y-66160385D01*
X107419136Y-66130864D01*
X107389615Y-66094892D01*
X107362898Y-66044908D01*
X107361238Y-66040900D01*
X107347624Y-66020525D01*
X107330297Y-66003198D01*
X107309923Y-65989585D01*
X107287284Y-65980207D01*
X107263251Y-65975427D01*
X107238747Y-65975427D01*
X107214713Y-65980208D01*
X107192075Y-65989585D01*
X107171700Y-66003199D01*
X107154373Y-66020526D01*
X107140760Y-66040900D01*
X107131382Y-66063539D01*
X107126000Y-66099824D01*
X107126000Y-67269360D01*
X107115310Y-67377900D01*
X107085439Y-67476371D01*
X107036935Y-67567115D01*
X106971657Y-67646657D01*
X106892115Y-67711935D01*
X106801371Y-67760439D01*
X106702900Y-67790310D01*
X106594360Y-67801000D01*
X105305640Y-67801000D01*
X105197100Y-67790310D01*
X105098629Y-67760439D01*
X105007885Y-67711935D01*
X104928343Y-67646657D01*
X104863065Y-67567115D01*
X104814561Y-67476371D01*
X104784690Y-67377900D01*
X104774000Y-67269360D01*
X104774000Y-65230640D01*
X104784690Y-65122100D01*
X104814561Y-65023629D01*
X104863065Y-64932885D01*
X104928343Y-64853343D01*
X105007885Y-64788065D01*
X105098629Y-64739561D01*
X105197100Y-64709690D01*
X105305640Y-64699000D01*
X106594360Y-64699000D01*
X106702900Y-64709690D01*
X106801371Y-64739561D01*
X106892115Y-64788065D01*
X106971657Y-64853343D01*
X107036935Y-64932885D01*
X107085439Y-65023629D01*
X107115310Y-65122100D01*
X107117358Y-65142897D01*
X107122138Y-65166931D01*
X107131515Y-65189570D01*
X107145128Y-65209944D01*
X107162455Y-65227271D01*
X107182829Y-65240886D01*
X107205468Y-65250263D01*
X107229501Y-65255044D01*
X107254005Y-65255044D01*
X107278039Y-65250264D01*
X107300678Y-65240887D01*
X107321052Y-65227274D01*
X107338379Y-65209947D01*
X107351994Y-65189573D01*
X107361371Y-65166935D01*
X107367675Y-65146155D01*
X107389615Y-65105108D01*
X107419136Y-65069136D01*
X107455108Y-65039615D01*
X107502057Y-65014520D01*
X107512395Y-65010238D01*
X107532769Y-64996624D01*
X107550096Y-64979297D01*
X107563709Y-64958923D01*
X107573086Y-64936284D01*
X107577866Y-64912250D01*
X107577866Y-64887746D01*
X107573085Y-64863713D01*
X107563707Y-64841074D01*
X107550093Y-64820700D01*
X107532766Y-64803373D01*
X107512392Y-64789760D01*
X107502053Y-64785478D01*
X107455108Y-64760385D01*
X107419136Y-64730864D01*
X107389615Y-64694892D01*
X107367674Y-64653843D01*
X107354166Y-64609315D01*
X107349000Y-64556860D01*
X107349000Y-63843140D01*
X107354166Y-63790685D01*
X107367674Y-63746157D01*
X107389615Y-63705108D01*
X107419136Y-63669136D01*
X107455108Y-63639615D01*
X107502057Y-63614520D01*
X107512395Y-63610238D01*
X107532769Y-63596624D01*
X107550096Y-63579297D01*
X107563709Y-63558923D01*
X107573086Y-63536284D01*
X107577866Y-63512250D01*
X107577866Y-63487746D01*
X107573085Y-63463713D01*
X107563707Y-63441074D01*
X107550093Y-63420700D01*
X107532766Y-63403373D01*
X107512392Y-63389760D01*
X107502053Y-63385478D01*
X107455108Y-63360385D01*
X107419136Y-63330864D01*
X107389615Y-63294892D01*
X107367674Y-63253843D01*
X107354166Y-63209315D01*
X107349000Y-63156860D01*
X107349000Y-62443140D01*
X107354166Y-62390685D01*
X107367674Y-62346157D01*
X107389615Y-62305108D01*
X107419136Y-62269136D01*
X107455108Y-62239615D01*
X107502057Y-62214520D01*
X107512395Y-62210238D01*
X107532769Y-62196624D01*
X107550096Y-62179297D01*
X107563709Y-62158923D01*
X107573086Y-62136284D01*
X107577866Y-62112250D01*
X107577866Y-62087746D01*
X107573085Y-62063713D01*
X107563707Y-62041074D01*
X107550093Y-62020700D01*
X107532766Y-62003373D01*
X107512392Y-61989760D01*
X107502053Y-61985478D01*
X107455108Y-61960385D01*
X107419136Y-61930864D01*
X107389615Y-61894892D01*
X107367675Y-61853845D01*
X107361371Y-61833065D01*
X107351993Y-61810427D01*
X107338379Y-61790052D01*
X107321052Y-61772726D01*
X107300677Y-61759113D01*
X107278038Y-61749736D01*
X107254004Y-61744956D01*
X107229500Y-61744956D01*
X107205467Y-61749737D01*
X107182829Y-61759115D01*
X107162454Y-61772729D01*
X107145128Y-61790056D01*
X107131515Y-61810431D01*
X107122138Y-61833070D01*
X107117358Y-61857103D01*
X107115310Y-61877900D01*
X107085439Y-61976371D01*
X107036935Y-62067115D01*
X106971657Y-62146657D01*
X106892115Y-62211935D01*
X106801371Y-62260439D01*
X106702900Y-62290310D01*
X106594360Y-62301000D01*
X105305640Y-62301000D01*
X105197100Y-62290310D01*
X105098629Y-62260439D01*
X105007885Y-62211935D01*
X104928343Y-62146657D01*
X104863065Y-62067115D01*
X104814561Y-61976371D01*
X104784690Y-61877900D01*
X104774000Y-61769360D01*
X104774000Y-59730640D01*
X104784690Y-59622100D01*
X104814561Y-59523629D01*
X104863065Y-59432885D01*
X104928343Y-59353343D01*
X105007885Y-59288065D01*
X105098629Y-59239561D01*
X105197100Y-59209690D01*
X105305640Y-59199000D01*
X106594360Y-59199000D01*
X106702900Y-59209690D01*
X106702900Y-59209690D01*
G37*
G36*
X111870442Y-63875518D02*
G01*
X111936627Y-63882037D01*
X112106466Y-63933557D01*
X112262991Y-64017222D01*
X112298729Y-64046552D01*
X112400186Y-64129814D01*
X112483448Y-64231271D01*
X112512778Y-64267009D01*
X112596443Y-64423534D01*
X112647963Y-64593373D01*
X112665359Y-64770000D01*
X112647963Y-64946627D01*
X112596443Y-65116466D01*
X112512778Y-65272991D01*
X112501281Y-65287000D01*
X112400186Y-65410186D01*
X112298729Y-65493448D01*
X112262991Y-65522778D01*
X112106466Y-65606443D01*
X111936627Y-65657963D01*
X111870442Y-65664482D01*
X111804260Y-65671000D01*
X111715740Y-65671000D01*
X111649558Y-65664482D01*
X111583373Y-65657963D01*
X111413534Y-65606443D01*
X111257009Y-65522778D01*
X111221271Y-65493448D01*
X111119814Y-65410186D01*
X111018719Y-65287000D01*
X111007222Y-65272991D01*
X110923557Y-65116466D01*
X110872037Y-64946627D01*
X110854641Y-64770000D01*
X110872037Y-64593373D01*
X110923557Y-64423534D01*
X111007222Y-64267009D01*
X111036552Y-64231271D01*
X111119814Y-64129814D01*
X111221271Y-64046552D01*
X111257009Y-64017222D01*
X111413534Y-63933557D01*
X111583373Y-63882037D01*
X111649558Y-63875518D01*
X111715740Y-63869000D01*
X111804260Y-63869000D01*
X111870442Y-63875518D01*
X111870442Y-63875518D01*
G37*
G36*
X100903514Y-61832288D02*
G01*
X100978534Y-61855045D01*
X101047671Y-61892000D01*
X101108269Y-61941731D01*
X101158000Y-62002329D01*
X101194955Y-62071466D01*
X101217712Y-62146486D01*
X101226000Y-62230640D01*
X101226000Y-64769360D01*
X101217712Y-64853514D01*
X101194955Y-64928534D01*
X101158000Y-64997671D01*
X101108269Y-65058269D01*
X101047671Y-65108000D01*
X100978534Y-65144955D01*
X100903514Y-65167712D01*
X100819360Y-65176000D01*
X99780640Y-65176000D01*
X99696486Y-65167712D01*
X99621466Y-65144955D01*
X99552329Y-65108000D01*
X99491731Y-65058269D01*
X99442000Y-64997671D01*
X99405045Y-64928534D01*
X99382288Y-64853514D01*
X99374000Y-64769360D01*
X99374000Y-62230640D01*
X99382288Y-62146486D01*
X99405045Y-62071466D01*
X99442000Y-62002329D01*
X99491731Y-61941731D01*
X99552329Y-61892000D01*
X99621466Y-61855045D01*
X99696486Y-61832288D01*
X99780640Y-61824000D01*
X100819360Y-61824000D01*
X100903514Y-61832288D01*
X100903514Y-61832288D01*
G37*
G36*
X111870443Y-61335519D02*
G01*
X111936627Y-61342037D01*
X112106466Y-61393557D01*
X112262991Y-61477222D01*
X112298729Y-61506552D01*
X112400186Y-61589814D01*
X112483448Y-61691271D01*
X112512778Y-61727009D01*
X112596443Y-61883534D01*
X112647963Y-62053373D01*
X112665359Y-62230000D01*
X112647963Y-62406627D01*
X112596443Y-62576466D01*
X112512778Y-62732991D01*
X112483448Y-62768729D01*
X112400186Y-62870186D01*
X112298729Y-62953448D01*
X112262991Y-62982778D01*
X112106466Y-63066443D01*
X111936627Y-63117963D01*
X111870443Y-63124481D01*
X111804260Y-63131000D01*
X111715740Y-63131000D01*
X111649557Y-63124481D01*
X111583373Y-63117963D01*
X111413534Y-63066443D01*
X111257009Y-62982778D01*
X111221271Y-62953448D01*
X111119814Y-62870186D01*
X111036552Y-62768729D01*
X111007222Y-62732991D01*
X110923557Y-62576466D01*
X110872037Y-62406627D01*
X110854641Y-62230000D01*
X110872037Y-62053373D01*
X110923557Y-61883534D01*
X111007222Y-61727009D01*
X111036552Y-61691271D01*
X111119814Y-61589814D01*
X111221271Y-61506552D01*
X111257009Y-61477222D01*
X111413534Y-61393557D01*
X111583373Y-61342037D01*
X111649557Y-61335519D01*
X111715740Y-61329000D01*
X111804260Y-61329000D01*
X111870443Y-61335519D01*
X111870443Y-61335519D01*
G37*
G36*
X96630442Y-58795518D02*
G01*
X96696627Y-58802037D01*
X96866466Y-58853557D01*
X97022991Y-58937222D01*
X97058729Y-58966552D01*
X97160186Y-59049814D01*
X97243448Y-59151271D01*
X97272778Y-59187009D01*
X97356443Y-59343534D01*
X97407963Y-59513373D01*
X97425359Y-59690000D01*
X97407963Y-59866627D01*
X97356443Y-60036466D01*
X97272778Y-60192991D01*
X97243448Y-60228729D01*
X97160186Y-60330186D01*
X97058729Y-60413448D01*
X97022991Y-60442778D01*
X96866466Y-60526443D01*
X96696627Y-60577963D01*
X96630443Y-60584481D01*
X96564260Y-60591000D01*
X96475740Y-60591000D01*
X96409557Y-60584481D01*
X96343373Y-60577963D01*
X96173534Y-60526443D01*
X96017009Y-60442778D01*
X95981271Y-60413448D01*
X95879814Y-60330186D01*
X95796552Y-60228729D01*
X95767222Y-60192991D01*
X95683557Y-60036466D01*
X95632037Y-59866627D01*
X95614641Y-59690000D01*
X95632037Y-59513373D01*
X95683557Y-59343534D01*
X95767222Y-59187009D01*
X95796552Y-59151271D01*
X95879814Y-59049814D01*
X95981271Y-58966552D01*
X96017009Y-58937222D01*
X96173534Y-58853557D01*
X96343373Y-58802037D01*
X96409558Y-58795518D01*
X96475740Y-58789000D01*
X96564260Y-58789000D01*
X96630442Y-58795518D01*
X96630442Y-58795518D01*
G37*
G36*
X99961000Y-60591000D02*
G01*
X98159000Y-60591000D01*
X98159000Y-58789000D01*
X99961000Y-58789000D01*
X99961000Y-60591000D01*
X99961000Y-60591000D01*
G37*
G36*
X112661000Y-60591000D02*
G01*
X110859000Y-60591000D01*
X110859000Y-58789000D01*
X112661000Y-58789000D01*
X112661000Y-60591000D01*
X112661000Y-60591000D01*
G37*
M02*
