G04 #@! TF.GenerationSoftware,KiCad,Pcbnew,(5.1.4)-1*
G04 #@! TF.CreationDate,2020-03-27T03:56:46-04:00*
G04 #@! TF.ProjectId,USB Adapter,55534220-4164-4617-9074-65722e6b6963,rev?*
G04 #@! TF.SameCoordinates,Original*
G04 #@! TF.FileFunction,Legend,Top*
G04 #@! TF.FilePolarity,Positive*
%FSLAX46Y46*%
G04 Gerber Fmt 4.6, Leading zero omitted, Abs format (unit mm)*
G04 Created by KiCad (PCBNEW (5.1.4)-1) date 2020-03-27 03:56:46*
%MOMM*%
%LPD*%
G04 APERTURE LIST*
%ADD10C,0.250000*%
%ADD11O,1.802000X1.802000*%
%ADD12R,1.802000X1.802000*%
%ADD13C,0.100000*%
%ADD14C,1.852000*%
%ADD15C,2.352000*%
%ADD16C,1.202000*%
G04 APERTURE END LIST*
D10*
X95200000Y-66250000D02*
X104450000Y-66250000D01*
X95200000Y-60750000D02*
X95200000Y-66250000D01*
X104450000Y-60750000D02*
X95200000Y-60750000D01*
%LPC*%
D11*
X111760000Y-67310000D03*
X111760000Y-64770000D03*
X111760000Y-62230000D03*
D12*
X111760000Y-59690000D03*
D11*
X96520000Y-67310000D03*
D12*
X99060000Y-67310000D03*
D11*
X96520000Y-59690000D03*
D12*
X99060000Y-59690000D03*
D13*
G36*
X100808382Y-61826229D02*
G01*
X100853327Y-61832896D01*
X100897402Y-61843937D01*
X100940182Y-61859244D01*
X100981257Y-61878670D01*
X101020229Y-61902030D01*
X101056724Y-61929096D01*
X101090390Y-61959610D01*
X101120904Y-61993276D01*
X101147970Y-62029771D01*
X101171330Y-62068743D01*
X101190756Y-62109818D01*
X101206063Y-62152598D01*
X101217104Y-62196673D01*
X101223771Y-62241618D01*
X101226000Y-62287000D01*
X101226000Y-64713000D01*
X101223771Y-64758382D01*
X101217104Y-64803327D01*
X101206063Y-64847402D01*
X101190756Y-64890182D01*
X101171330Y-64931257D01*
X101147970Y-64970229D01*
X101120904Y-65006724D01*
X101090390Y-65040390D01*
X101056724Y-65070904D01*
X101020229Y-65097970D01*
X100981257Y-65121330D01*
X100940182Y-65140756D01*
X100897402Y-65156063D01*
X100853327Y-65167104D01*
X100808382Y-65173771D01*
X100763000Y-65176000D01*
X99837000Y-65176000D01*
X99791618Y-65173771D01*
X99746673Y-65167104D01*
X99702598Y-65156063D01*
X99659818Y-65140756D01*
X99618743Y-65121330D01*
X99579771Y-65097970D01*
X99543276Y-65070904D01*
X99509610Y-65040390D01*
X99479096Y-65006724D01*
X99452030Y-64970229D01*
X99428670Y-64931257D01*
X99409244Y-64890182D01*
X99393937Y-64847402D01*
X99382896Y-64803327D01*
X99376229Y-64758382D01*
X99374000Y-64713000D01*
X99374000Y-62287000D01*
X99376229Y-62241618D01*
X99382896Y-62196673D01*
X99393937Y-62152598D01*
X99409244Y-62109818D01*
X99428670Y-62068743D01*
X99452030Y-62029771D01*
X99479096Y-61993276D01*
X99509610Y-61959610D01*
X99543276Y-61929096D01*
X99579771Y-61902030D01*
X99618743Y-61878670D01*
X99659818Y-61859244D01*
X99702598Y-61843937D01*
X99746673Y-61832896D01*
X99791618Y-61826229D01*
X99837000Y-61824000D01*
X100763000Y-61824000D01*
X100808382Y-61826229D01*
X100808382Y-61826229D01*
G37*
D14*
X100300000Y-63500000D03*
D13*
G36*
X106595634Y-59201831D02*
G01*
X106652713Y-59210298D01*
X106708687Y-59224319D01*
X106763018Y-59243759D01*
X106815181Y-59268430D01*
X106864675Y-59298096D01*
X106911023Y-59332470D01*
X106953779Y-59371221D01*
X106992530Y-59413977D01*
X107026904Y-59460325D01*
X107056570Y-59509819D01*
X107081241Y-59561982D01*
X107100681Y-59616313D01*
X107114702Y-59672287D01*
X107123169Y-59729366D01*
X107126000Y-59787000D01*
X107126000Y-61713000D01*
X107123169Y-61770634D01*
X107114702Y-61827713D01*
X107100681Y-61883687D01*
X107081241Y-61938018D01*
X107056570Y-61990181D01*
X107026904Y-62039675D01*
X106992530Y-62086023D01*
X106953779Y-62128779D01*
X106911023Y-62167530D01*
X106864675Y-62201904D01*
X106815181Y-62231570D01*
X106763018Y-62256241D01*
X106708687Y-62275681D01*
X106652713Y-62289702D01*
X106595634Y-62298169D01*
X106538000Y-62301000D01*
X105362000Y-62301000D01*
X105304366Y-62298169D01*
X105247287Y-62289702D01*
X105191313Y-62275681D01*
X105136982Y-62256241D01*
X105084819Y-62231570D01*
X105035325Y-62201904D01*
X104988977Y-62167530D01*
X104946221Y-62128779D01*
X104907470Y-62086023D01*
X104873096Y-62039675D01*
X104843430Y-61990181D01*
X104818759Y-61938018D01*
X104799319Y-61883687D01*
X104785298Y-61827713D01*
X104776831Y-61770634D01*
X104774000Y-61713000D01*
X104774000Y-59787000D01*
X104776831Y-59729366D01*
X104785298Y-59672287D01*
X104799319Y-59616313D01*
X104818759Y-59561982D01*
X104843430Y-59509819D01*
X104873096Y-59460325D01*
X104907470Y-59413977D01*
X104946221Y-59371221D01*
X104988977Y-59332470D01*
X105035325Y-59298096D01*
X105084819Y-59268430D01*
X105136982Y-59243759D01*
X105191313Y-59224319D01*
X105247287Y-59210298D01*
X105304366Y-59201831D01*
X105362000Y-59199000D01*
X106538000Y-59199000D01*
X106595634Y-59201831D01*
X106595634Y-59201831D01*
G37*
D15*
X105950000Y-60750000D03*
D13*
G36*
X106595634Y-64701831D02*
G01*
X106652713Y-64710298D01*
X106708687Y-64724319D01*
X106763018Y-64743759D01*
X106815181Y-64768430D01*
X106864675Y-64798096D01*
X106911023Y-64832470D01*
X106953779Y-64871221D01*
X106992530Y-64913977D01*
X107026904Y-64960325D01*
X107056570Y-65009819D01*
X107081241Y-65061982D01*
X107100681Y-65116313D01*
X107114702Y-65172287D01*
X107123169Y-65229366D01*
X107126000Y-65287000D01*
X107126000Y-67213000D01*
X107123169Y-67270634D01*
X107114702Y-67327713D01*
X107100681Y-67383687D01*
X107081241Y-67438018D01*
X107056570Y-67490181D01*
X107026904Y-67539675D01*
X106992530Y-67586023D01*
X106953779Y-67628779D01*
X106911023Y-67667530D01*
X106864675Y-67701904D01*
X106815181Y-67731570D01*
X106763018Y-67756241D01*
X106708687Y-67775681D01*
X106652713Y-67789702D01*
X106595634Y-67798169D01*
X106538000Y-67801000D01*
X105362000Y-67801000D01*
X105304366Y-67798169D01*
X105247287Y-67789702D01*
X105191313Y-67775681D01*
X105136982Y-67756241D01*
X105084819Y-67731570D01*
X105035325Y-67701904D01*
X104988977Y-67667530D01*
X104946221Y-67628779D01*
X104907470Y-67586023D01*
X104873096Y-67539675D01*
X104843430Y-67490181D01*
X104818759Y-67438018D01*
X104799319Y-67383687D01*
X104785298Y-67327713D01*
X104776831Y-67270634D01*
X104774000Y-67213000D01*
X104774000Y-65287000D01*
X104776831Y-65229366D01*
X104785298Y-65172287D01*
X104799319Y-65116313D01*
X104818759Y-65061982D01*
X104843430Y-65009819D01*
X104873096Y-64960325D01*
X104907470Y-64913977D01*
X104946221Y-64871221D01*
X104988977Y-64832470D01*
X105035325Y-64798096D01*
X105084819Y-64768430D01*
X105136982Y-64743759D01*
X105191313Y-64724319D01*
X105247287Y-64710298D01*
X105304366Y-64701831D01*
X105362000Y-64699000D01*
X106538000Y-64699000D01*
X106595634Y-64701831D01*
X106595634Y-64701831D01*
G37*
D15*
X105950000Y-66250000D03*
D13*
G36*
X109179954Y-60800447D02*
G01*
X109209125Y-60804774D01*
X109237731Y-60811939D01*
X109265496Y-60821874D01*
X109292155Y-60834483D01*
X109317449Y-60849643D01*
X109341135Y-60867210D01*
X109362986Y-60887014D01*
X109382790Y-60908865D01*
X109400357Y-60932551D01*
X109415517Y-60957845D01*
X109428126Y-60984504D01*
X109438061Y-61012269D01*
X109445226Y-61040875D01*
X109449553Y-61070046D01*
X109451000Y-61099500D01*
X109451000Y-61700500D01*
X109449553Y-61729954D01*
X109445226Y-61759125D01*
X109438061Y-61787731D01*
X109428126Y-61815496D01*
X109415517Y-61842155D01*
X109400357Y-61867449D01*
X109382790Y-61891135D01*
X109362986Y-61912986D01*
X109341135Y-61932790D01*
X109317449Y-61950357D01*
X109292155Y-61965517D01*
X109265496Y-61978126D01*
X109237731Y-61988061D01*
X109209125Y-61995226D01*
X109179954Y-61999553D01*
X109150500Y-62001000D01*
X107649500Y-62001000D01*
X107620046Y-61999553D01*
X107590875Y-61995226D01*
X107562269Y-61988061D01*
X107534504Y-61978126D01*
X107507845Y-61965517D01*
X107482551Y-61950357D01*
X107458865Y-61932790D01*
X107437014Y-61912986D01*
X107417210Y-61891135D01*
X107399643Y-61867449D01*
X107384483Y-61842155D01*
X107371874Y-61815496D01*
X107361939Y-61787731D01*
X107354774Y-61759125D01*
X107350447Y-61729954D01*
X107349000Y-61700500D01*
X107349000Y-61099500D01*
X107350447Y-61070046D01*
X107354774Y-61040875D01*
X107361939Y-61012269D01*
X107371874Y-60984504D01*
X107384483Y-60957845D01*
X107399643Y-60932551D01*
X107417210Y-60908865D01*
X107437014Y-60887014D01*
X107458865Y-60867210D01*
X107482551Y-60849643D01*
X107507845Y-60834483D01*
X107534504Y-60821874D01*
X107562269Y-60811939D01*
X107590875Y-60804774D01*
X107620046Y-60800447D01*
X107649500Y-60799000D01*
X109150500Y-60799000D01*
X109179954Y-60800447D01*
X109179954Y-60800447D01*
G37*
D16*
X108400000Y-61400000D03*
D13*
G36*
X109179954Y-62200447D02*
G01*
X109209125Y-62204774D01*
X109237731Y-62211939D01*
X109265496Y-62221874D01*
X109292155Y-62234483D01*
X109317449Y-62249643D01*
X109341135Y-62267210D01*
X109362986Y-62287014D01*
X109382790Y-62308865D01*
X109400357Y-62332551D01*
X109415517Y-62357845D01*
X109428126Y-62384504D01*
X109438061Y-62412269D01*
X109445226Y-62440875D01*
X109449553Y-62470046D01*
X109451000Y-62499500D01*
X109451000Y-63100500D01*
X109449553Y-63129954D01*
X109445226Y-63159125D01*
X109438061Y-63187731D01*
X109428126Y-63215496D01*
X109415517Y-63242155D01*
X109400357Y-63267449D01*
X109382790Y-63291135D01*
X109362986Y-63312986D01*
X109341135Y-63332790D01*
X109317449Y-63350357D01*
X109292155Y-63365517D01*
X109265496Y-63378126D01*
X109237731Y-63388061D01*
X109209125Y-63395226D01*
X109179954Y-63399553D01*
X109150500Y-63401000D01*
X107649500Y-63401000D01*
X107620046Y-63399553D01*
X107590875Y-63395226D01*
X107562269Y-63388061D01*
X107534504Y-63378126D01*
X107507845Y-63365517D01*
X107482551Y-63350357D01*
X107458865Y-63332790D01*
X107437014Y-63312986D01*
X107417210Y-63291135D01*
X107399643Y-63267449D01*
X107384483Y-63242155D01*
X107371874Y-63215496D01*
X107361939Y-63187731D01*
X107354774Y-63159125D01*
X107350447Y-63129954D01*
X107349000Y-63100500D01*
X107349000Y-62499500D01*
X107350447Y-62470046D01*
X107354774Y-62440875D01*
X107361939Y-62412269D01*
X107371874Y-62384504D01*
X107384483Y-62357845D01*
X107399643Y-62332551D01*
X107417210Y-62308865D01*
X107437014Y-62287014D01*
X107458865Y-62267210D01*
X107482551Y-62249643D01*
X107507845Y-62234483D01*
X107534504Y-62221874D01*
X107562269Y-62211939D01*
X107590875Y-62204774D01*
X107620046Y-62200447D01*
X107649500Y-62199000D01*
X109150500Y-62199000D01*
X109179954Y-62200447D01*
X109179954Y-62200447D01*
G37*
D16*
X108400000Y-62800000D03*
D13*
G36*
X109179954Y-63600447D02*
G01*
X109209125Y-63604774D01*
X109237731Y-63611939D01*
X109265496Y-63621874D01*
X109292155Y-63634483D01*
X109317449Y-63649643D01*
X109341135Y-63667210D01*
X109362986Y-63687014D01*
X109382790Y-63708865D01*
X109400357Y-63732551D01*
X109415517Y-63757845D01*
X109428126Y-63784504D01*
X109438061Y-63812269D01*
X109445226Y-63840875D01*
X109449553Y-63870046D01*
X109451000Y-63899500D01*
X109451000Y-64500500D01*
X109449553Y-64529954D01*
X109445226Y-64559125D01*
X109438061Y-64587731D01*
X109428126Y-64615496D01*
X109415517Y-64642155D01*
X109400357Y-64667449D01*
X109382790Y-64691135D01*
X109362986Y-64712986D01*
X109341135Y-64732790D01*
X109317449Y-64750357D01*
X109292155Y-64765517D01*
X109265496Y-64778126D01*
X109237731Y-64788061D01*
X109209125Y-64795226D01*
X109179954Y-64799553D01*
X109150500Y-64801000D01*
X107649500Y-64801000D01*
X107620046Y-64799553D01*
X107590875Y-64795226D01*
X107562269Y-64788061D01*
X107534504Y-64778126D01*
X107507845Y-64765517D01*
X107482551Y-64750357D01*
X107458865Y-64732790D01*
X107437014Y-64712986D01*
X107417210Y-64691135D01*
X107399643Y-64667449D01*
X107384483Y-64642155D01*
X107371874Y-64615496D01*
X107361939Y-64587731D01*
X107354774Y-64559125D01*
X107350447Y-64529954D01*
X107349000Y-64500500D01*
X107349000Y-63899500D01*
X107350447Y-63870046D01*
X107354774Y-63840875D01*
X107361939Y-63812269D01*
X107371874Y-63784504D01*
X107384483Y-63757845D01*
X107399643Y-63732551D01*
X107417210Y-63708865D01*
X107437014Y-63687014D01*
X107458865Y-63667210D01*
X107482551Y-63649643D01*
X107507845Y-63634483D01*
X107534504Y-63621874D01*
X107562269Y-63611939D01*
X107590875Y-63604774D01*
X107620046Y-63600447D01*
X107649500Y-63599000D01*
X109150500Y-63599000D01*
X109179954Y-63600447D01*
X109179954Y-63600447D01*
G37*
D16*
X108400000Y-64200000D03*
D13*
G36*
X109179954Y-65000447D02*
G01*
X109209125Y-65004774D01*
X109237731Y-65011939D01*
X109265496Y-65021874D01*
X109292155Y-65034483D01*
X109317449Y-65049643D01*
X109341135Y-65067210D01*
X109362986Y-65087014D01*
X109382790Y-65108865D01*
X109400357Y-65132551D01*
X109415517Y-65157845D01*
X109428126Y-65184504D01*
X109438061Y-65212269D01*
X109445226Y-65240875D01*
X109449553Y-65270046D01*
X109451000Y-65299500D01*
X109451000Y-65900500D01*
X109449553Y-65929954D01*
X109445226Y-65959125D01*
X109438061Y-65987731D01*
X109428126Y-66015496D01*
X109415517Y-66042155D01*
X109400357Y-66067449D01*
X109382790Y-66091135D01*
X109362986Y-66112986D01*
X109341135Y-66132790D01*
X109317449Y-66150357D01*
X109292155Y-66165517D01*
X109265496Y-66178126D01*
X109237731Y-66188061D01*
X109209125Y-66195226D01*
X109179954Y-66199553D01*
X109150500Y-66201000D01*
X107649500Y-66201000D01*
X107620046Y-66199553D01*
X107590875Y-66195226D01*
X107562269Y-66188061D01*
X107534504Y-66178126D01*
X107507845Y-66165517D01*
X107482551Y-66150357D01*
X107458865Y-66132790D01*
X107437014Y-66112986D01*
X107417210Y-66091135D01*
X107399643Y-66067449D01*
X107384483Y-66042155D01*
X107371874Y-66015496D01*
X107361939Y-65987731D01*
X107354774Y-65959125D01*
X107350447Y-65929954D01*
X107349000Y-65900500D01*
X107349000Y-65299500D01*
X107350447Y-65270046D01*
X107354774Y-65240875D01*
X107361939Y-65212269D01*
X107371874Y-65184504D01*
X107384483Y-65157845D01*
X107399643Y-65132551D01*
X107417210Y-65108865D01*
X107437014Y-65087014D01*
X107458865Y-65067210D01*
X107482551Y-65049643D01*
X107507845Y-65034483D01*
X107534504Y-65021874D01*
X107562269Y-65011939D01*
X107590875Y-65004774D01*
X107620046Y-65000447D01*
X107649500Y-64999000D01*
X109150500Y-64999000D01*
X109179954Y-65000447D01*
X109179954Y-65000447D01*
G37*
D16*
X108400000Y-65600000D03*
M02*
