G04 #@! TF.GenerationSoftware,KiCad,Pcbnew,(5.1.4)-1*
G04 #@! TF.CreationDate,2020-03-27T03:57:59-04:00*
G04 #@! TF.ProjectId,y-z_motor_endstop_breakout,792d7a5f-6d6f-4746-9f72-5f656e647374,rev?*
G04 #@! TF.SameCoordinates,Original*
G04 #@! TF.FileFunction,Legend,Bot*
G04 #@! TF.FilePolarity,Positive*
%FSLAX46Y46*%
G04 Gerber Fmt 4.6, Leading zero omitted, Abs format (unit mm)*
G04 Created by KiCad (PCBNEW (5.1.4)-1) date 2020-03-27 03:57:59*
%MOMM*%
%LPD*%
G04 APERTURE LIST*
%ADD10C,0.254000*%
%ADD11C,0.317500*%
%ADD12O,2.102000X1.802000*%
%ADD13C,0.100000*%
%ADD14C,1.802000*%
%ADD15O,2.052000X1.802000*%
%ADD16O,1.829200X1.829200*%
%ADD17R,1.829200X1.829200*%
%ADD18C,10.702000*%
G04 APERTURE END LIST*
D10*
X139786952Y-110031619D02*
X139786952Y-110757333D01*
X139835333Y-110902476D01*
X139932095Y-110999238D01*
X140077238Y-111047619D01*
X140174000Y-111047619D01*
X138819333Y-111047619D02*
X139303142Y-111047619D01*
X139303142Y-110031619D01*
X137900095Y-110950857D02*
X137948476Y-110999238D01*
X138093619Y-111047619D01*
X138190380Y-111047619D01*
X138335523Y-110999238D01*
X138432285Y-110902476D01*
X138480666Y-110805714D01*
X138529047Y-110612190D01*
X138529047Y-110467047D01*
X138480666Y-110273523D01*
X138432285Y-110176761D01*
X138335523Y-110080000D01*
X138190380Y-110031619D01*
X138093619Y-110031619D01*
X137948476Y-110080000D01*
X137900095Y-110128380D01*
X137174380Y-110031619D02*
X137174380Y-110757333D01*
X137222761Y-110902476D01*
X137319523Y-110999238D01*
X137464666Y-111047619D01*
X137561428Y-111047619D01*
X136206761Y-111047619D02*
X136690571Y-111047619D01*
X136690571Y-110031619D01*
X135287523Y-110950857D02*
X135335904Y-110999238D01*
X135481047Y-111047619D01*
X135577809Y-111047619D01*
X135722952Y-110999238D01*
X135819714Y-110902476D01*
X135868095Y-110805714D01*
X135916476Y-110612190D01*
X135916476Y-110467047D01*
X135868095Y-110273523D01*
X135819714Y-110176761D01*
X135722952Y-110080000D01*
X135577809Y-110031619D01*
X135481047Y-110031619D01*
X135335904Y-110080000D01*
X135287523Y-110128380D01*
X134561809Y-110031619D02*
X134561809Y-110757333D01*
X134610190Y-110902476D01*
X134706952Y-110999238D01*
X134852095Y-111047619D01*
X134948857Y-111047619D01*
X133594190Y-111047619D02*
X134078000Y-111047619D01*
X134078000Y-110031619D01*
X132674952Y-110950857D02*
X132723333Y-110999238D01*
X132868476Y-111047619D01*
X132965238Y-111047619D01*
X133110380Y-110999238D01*
X133207142Y-110902476D01*
X133255523Y-110805714D01*
X133303904Y-110612190D01*
X133303904Y-110467047D01*
X133255523Y-110273523D01*
X133207142Y-110176761D01*
X133110380Y-110080000D01*
X132965238Y-110031619D01*
X132868476Y-110031619D01*
X132723333Y-110080000D01*
X132674952Y-110128380D01*
X131949238Y-110031619D02*
X131949238Y-110757333D01*
X131997619Y-110902476D01*
X132094380Y-110999238D01*
X132239523Y-111047619D01*
X132336285Y-111047619D01*
X130981619Y-111047619D02*
X131465428Y-111047619D01*
X131465428Y-110031619D01*
X130062380Y-110950857D02*
X130110761Y-110999238D01*
X130255904Y-111047619D01*
X130352666Y-111047619D01*
X130497809Y-110999238D01*
X130594571Y-110902476D01*
X130642952Y-110805714D01*
X130691333Y-110612190D01*
X130691333Y-110467047D01*
X130642952Y-110273523D01*
X130594571Y-110176761D01*
X130497809Y-110080000D01*
X130352666Y-110031619D01*
X130255904Y-110031619D01*
X130110761Y-110080000D01*
X130062380Y-110128380D01*
D11*
X147933095Y-103828273D02*
X147933095Y-102558273D01*
X147388809Y-103767797D02*
X147267857Y-103828273D01*
X147025952Y-103828273D01*
X146905000Y-103767797D01*
X146844523Y-103646845D01*
X146844523Y-103586369D01*
X146905000Y-103465416D01*
X147025952Y-103404940D01*
X147207380Y-103404940D01*
X147328333Y-103344464D01*
X147388809Y-103223511D01*
X147388809Y-103163035D01*
X147328333Y-103042083D01*
X147207380Y-102981607D01*
X147025952Y-102981607D01*
X146905000Y-103042083D01*
X146300238Y-103828273D02*
X146300238Y-102558273D01*
X145755952Y-103828273D02*
X145755952Y-103163035D01*
X145816428Y-103042083D01*
X145937380Y-102981607D01*
X146118809Y-102981607D01*
X146239761Y-103042083D01*
X146300238Y-103102559D01*
X144606904Y-103828273D02*
X144606904Y-103163035D01*
X144667380Y-103042083D01*
X144788333Y-102981607D01*
X145030238Y-102981607D01*
X145151190Y-103042083D01*
X144606904Y-103767797D02*
X144727857Y-103828273D01*
X145030238Y-103828273D01*
X145151190Y-103767797D01*
X145211666Y-103646845D01*
X145211666Y-103525892D01*
X145151190Y-103404940D01*
X145030238Y-103344464D01*
X144727857Y-103344464D01*
X144606904Y-103283988D01*
X143457857Y-103828273D02*
X143457857Y-103163035D01*
X143518333Y-103042083D01*
X143639285Y-102981607D01*
X143881190Y-102981607D01*
X144002142Y-103042083D01*
X143457857Y-103767797D02*
X143578809Y-103828273D01*
X143881190Y-103828273D01*
X144002142Y-103767797D01*
X144062619Y-103646845D01*
X144062619Y-103525892D01*
X144002142Y-103404940D01*
X143881190Y-103344464D01*
X143578809Y-103344464D01*
X143457857Y-103283988D01*
X142853095Y-102981607D02*
X142853095Y-103828273D01*
X142853095Y-103102559D02*
X142792619Y-103042083D01*
X142671666Y-102981607D01*
X142490238Y-102981607D01*
X142369285Y-103042083D01*
X142308809Y-103163035D01*
X142308809Y-103828273D01*
X140071190Y-102618750D02*
X140192142Y-102558273D01*
X140373571Y-102558273D01*
X140555000Y-102618750D01*
X140675952Y-102739702D01*
X140736428Y-102860654D01*
X140796904Y-103102559D01*
X140796904Y-103283988D01*
X140736428Y-103525892D01*
X140675952Y-103646845D01*
X140555000Y-103767797D01*
X140373571Y-103828273D01*
X140252619Y-103828273D01*
X140071190Y-103767797D01*
X140010714Y-103707321D01*
X140010714Y-103283988D01*
X140252619Y-103283988D01*
X139285000Y-103828273D02*
X139405952Y-103767797D01*
X139466428Y-103707321D01*
X139526904Y-103586369D01*
X139526904Y-103223511D01*
X139466428Y-103102559D01*
X139405952Y-103042083D01*
X139285000Y-102981607D01*
X139103571Y-102981607D01*
X138982619Y-103042083D01*
X138922142Y-103102559D01*
X138861666Y-103223511D01*
X138861666Y-103586369D01*
X138922142Y-103707321D01*
X138982619Y-103767797D01*
X139103571Y-103828273D01*
X139285000Y-103828273D01*
X138438333Y-102981607D02*
X138135952Y-103828273D01*
X137833571Y-102981607D01*
X145846666Y-104780773D02*
X145846666Y-105687916D01*
X145907142Y-105869345D01*
X146028095Y-105990297D01*
X146209523Y-106050773D01*
X146330476Y-106050773D01*
X144697619Y-106050773D02*
X144697619Y-105385535D01*
X144758095Y-105264583D01*
X144879047Y-105204107D01*
X145120952Y-105204107D01*
X145241904Y-105264583D01*
X144697619Y-105990297D02*
X144818571Y-106050773D01*
X145120952Y-106050773D01*
X145241904Y-105990297D01*
X145302380Y-105869345D01*
X145302380Y-105748392D01*
X145241904Y-105627440D01*
X145120952Y-105566964D01*
X144818571Y-105566964D01*
X144697619Y-105506488D01*
X144092857Y-105204107D02*
X144092857Y-106050773D01*
X144092857Y-105325059D02*
X144032380Y-105264583D01*
X143911428Y-105204107D01*
X143730000Y-105204107D01*
X143609047Y-105264583D01*
X143548571Y-105385535D01*
X143548571Y-106050773D01*
X142036666Y-104901726D02*
X141976190Y-104841250D01*
X141855238Y-104780773D01*
X141552857Y-104780773D01*
X141431904Y-104841250D01*
X141371428Y-104901726D01*
X141310952Y-105022678D01*
X141310952Y-105143630D01*
X141371428Y-105325059D01*
X142097142Y-106050773D01*
X141310952Y-106050773D01*
X140524761Y-104780773D02*
X140403809Y-104780773D01*
X140282857Y-104841250D01*
X140222380Y-104901726D01*
X140161904Y-105022678D01*
X140101428Y-105264583D01*
X140101428Y-105566964D01*
X140161904Y-105808869D01*
X140222380Y-105929821D01*
X140282857Y-105990297D01*
X140403809Y-106050773D01*
X140524761Y-106050773D01*
X140645714Y-105990297D01*
X140706190Y-105929821D01*
X140766666Y-105808869D01*
X140827142Y-105566964D01*
X140827142Y-105264583D01*
X140766666Y-105022678D01*
X140706190Y-104901726D01*
X140645714Y-104841250D01*
X140524761Y-104780773D01*
X139617619Y-104901726D02*
X139557142Y-104841250D01*
X139436190Y-104780773D01*
X139133809Y-104780773D01*
X139012857Y-104841250D01*
X138952380Y-104901726D01*
X138891904Y-105022678D01*
X138891904Y-105143630D01*
X138952380Y-105325059D01*
X139678095Y-106050773D01*
X138891904Y-106050773D01*
X138105714Y-104780773D02*
X137984761Y-104780773D01*
X137863809Y-104841250D01*
X137803333Y-104901726D01*
X137742857Y-105022678D01*
X137682380Y-105264583D01*
X137682380Y-105566964D01*
X137742857Y-105808869D01*
X137803333Y-105929821D01*
X137863809Y-105990297D01*
X137984761Y-106050773D01*
X138105714Y-106050773D01*
X138226666Y-105990297D01*
X138287142Y-105929821D01*
X138347619Y-105808869D01*
X138408095Y-105566964D01*
X138408095Y-105264583D01*
X138347619Y-105022678D01*
X138287142Y-104901726D01*
X138226666Y-104841250D01*
X138105714Y-104780773D01*
X155492619Y-107509761D02*
X155492619Y-108114523D01*
X155915952Y-106844523D02*
X155492619Y-107509761D01*
X155069285Y-106844523D01*
X153738809Y-106784047D02*
X154827380Y-108416904D01*
X153436428Y-106844523D02*
X152589761Y-106844523D01*
X153436428Y-108114523D01*
X152589761Y-108114523D01*
X152105952Y-107630714D02*
X151138333Y-107630714D01*
X150594047Y-107751666D02*
X149989285Y-107751666D01*
X150715000Y-108114523D02*
X150291666Y-106844523D01*
X149868333Y-108114523D01*
X149565952Y-108114523D02*
X148900714Y-107267857D01*
X149565952Y-107267857D02*
X148900714Y-108114523D01*
X148416904Y-108114523D02*
X148416904Y-107267857D01*
X148416904Y-106844523D02*
X148477380Y-106905000D01*
X148416904Y-106965476D01*
X148356428Y-106905000D01*
X148416904Y-106844523D01*
X148416904Y-106965476D01*
X147872619Y-108054047D02*
X147751666Y-108114523D01*
X147509761Y-108114523D01*
X147388809Y-108054047D01*
X147328333Y-107933095D01*
X147328333Y-107872619D01*
X147388809Y-107751666D01*
X147509761Y-107691190D01*
X147691190Y-107691190D01*
X147812142Y-107630714D01*
X147872619Y-107509761D01*
X147872619Y-107449285D01*
X147812142Y-107328333D01*
X147691190Y-107267857D01*
X147509761Y-107267857D01*
X147388809Y-107328333D01*
X145393095Y-107449285D02*
X145211666Y-107509761D01*
X145151190Y-107570238D01*
X145090714Y-107691190D01*
X145090714Y-107872619D01*
X145151190Y-107993571D01*
X145211666Y-108054047D01*
X145332619Y-108114523D01*
X145816428Y-108114523D01*
X145816428Y-106844523D01*
X145393095Y-106844523D01*
X145272142Y-106905000D01*
X145211666Y-106965476D01*
X145151190Y-107086428D01*
X145151190Y-107207380D01*
X145211666Y-107328333D01*
X145272142Y-107388809D01*
X145393095Y-107449285D01*
X145816428Y-107449285D01*
X144546428Y-108114523D02*
X144546428Y-107267857D01*
X144546428Y-107509761D02*
X144485952Y-107388809D01*
X144425476Y-107328333D01*
X144304523Y-107267857D01*
X144183571Y-107267857D01*
X143276428Y-108054047D02*
X143397380Y-108114523D01*
X143639285Y-108114523D01*
X143760238Y-108054047D01*
X143820714Y-107933095D01*
X143820714Y-107449285D01*
X143760238Y-107328333D01*
X143639285Y-107267857D01*
X143397380Y-107267857D01*
X143276428Y-107328333D01*
X143215952Y-107449285D01*
X143215952Y-107570238D01*
X143820714Y-107691190D01*
X142127380Y-108114523D02*
X142127380Y-107449285D01*
X142187857Y-107328333D01*
X142308809Y-107267857D01*
X142550714Y-107267857D01*
X142671666Y-107328333D01*
X142127380Y-108054047D02*
X142248333Y-108114523D01*
X142550714Y-108114523D01*
X142671666Y-108054047D01*
X142732142Y-107933095D01*
X142732142Y-107812142D01*
X142671666Y-107691190D01*
X142550714Y-107630714D01*
X142248333Y-107630714D01*
X142127380Y-107570238D01*
X141522619Y-108114523D02*
X141522619Y-106844523D01*
X141401666Y-107630714D02*
X141038809Y-108114523D01*
X141038809Y-107267857D02*
X141522619Y-107751666D01*
X140313095Y-108114523D02*
X140434047Y-108054047D01*
X140494523Y-107993571D01*
X140555000Y-107872619D01*
X140555000Y-107509761D01*
X140494523Y-107388809D01*
X140434047Y-107328333D01*
X140313095Y-107267857D01*
X140131666Y-107267857D01*
X140010714Y-107328333D01*
X139950238Y-107388809D01*
X139889761Y-107509761D01*
X139889761Y-107872619D01*
X139950238Y-107993571D01*
X140010714Y-108054047D01*
X140131666Y-108114523D01*
X140313095Y-108114523D01*
X138801190Y-107267857D02*
X138801190Y-108114523D01*
X139345476Y-107267857D02*
X139345476Y-107933095D01*
X139285000Y-108054047D01*
X139164047Y-108114523D01*
X138982619Y-108114523D01*
X138861666Y-108054047D01*
X138801190Y-107993571D01*
X138377857Y-107267857D02*
X137894047Y-107267857D01*
X138196428Y-106844523D02*
X138196428Y-107933095D01*
X138135952Y-108054047D01*
X138015000Y-108114523D01*
X137894047Y-108114523D01*
%LPC*%
D12*
X155160000Y-113890000D03*
D13*
G36*
X155971975Y-110490276D02*
G01*
X155997699Y-110494092D01*
X156022925Y-110500411D01*
X156047411Y-110509172D01*
X156070920Y-110520291D01*
X156093226Y-110533661D01*
X156114114Y-110549152D01*
X156133383Y-110566617D01*
X156150848Y-110585886D01*
X156166339Y-110606774D01*
X156179709Y-110629080D01*
X156190828Y-110652589D01*
X156199589Y-110677075D01*
X156205908Y-110702301D01*
X156209724Y-110728025D01*
X156211000Y-110754000D01*
X156211000Y-112026000D01*
X156209724Y-112051975D01*
X156205908Y-112077699D01*
X156199589Y-112102925D01*
X156190828Y-112127411D01*
X156179709Y-112150920D01*
X156166339Y-112173226D01*
X156150848Y-112194114D01*
X156133383Y-112213383D01*
X156114114Y-112230848D01*
X156093226Y-112246339D01*
X156070920Y-112259709D01*
X156047411Y-112270828D01*
X156022925Y-112279589D01*
X155997699Y-112285908D01*
X155971975Y-112289724D01*
X155946000Y-112291000D01*
X154374000Y-112291000D01*
X154348025Y-112289724D01*
X154322301Y-112285908D01*
X154297075Y-112279589D01*
X154272589Y-112270828D01*
X154249080Y-112259709D01*
X154226774Y-112246339D01*
X154205886Y-112230848D01*
X154186617Y-112213383D01*
X154169152Y-112194114D01*
X154153661Y-112173226D01*
X154140291Y-112150920D01*
X154129172Y-112127411D01*
X154120411Y-112102925D01*
X154114092Y-112077699D01*
X154110276Y-112051975D01*
X154109000Y-112026000D01*
X154109000Y-110754000D01*
X154110276Y-110728025D01*
X154114092Y-110702301D01*
X154120411Y-110677075D01*
X154129172Y-110652589D01*
X154140291Y-110629080D01*
X154153661Y-110606774D01*
X154169152Y-110585886D01*
X154186617Y-110566617D01*
X154205886Y-110549152D01*
X154226774Y-110533661D01*
X154249080Y-110520291D01*
X154272589Y-110509172D01*
X154297075Y-110500411D01*
X154322301Y-110494092D01*
X154348025Y-110490276D01*
X154374000Y-110489000D01*
X155946000Y-110489000D01*
X155971975Y-110490276D01*
X155971975Y-110490276D01*
G37*
D14*
X155160000Y-111390000D03*
D15*
X155160000Y-103610000D03*
X155160000Y-101110000D03*
X155160000Y-98610000D03*
D13*
G36*
X155946975Y-95210276D02*
G01*
X155972699Y-95214092D01*
X155997925Y-95220411D01*
X156022411Y-95229172D01*
X156045920Y-95240291D01*
X156068226Y-95253661D01*
X156089114Y-95269152D01*
X156108383Y-95286617D01*
X156125848Y-95305886D01*
X156141339Y-95326774D01*
X156154709Y-95349080D01*
X156165828Y-95372589D01*
X156174589Y-95397075D01*
X156180908Y-95422301D01*
X156184724Y-95448025D01*
X156186000Y-95474000D01*
X156186000Y-96746000D01*
X156184724Y-96771975D01*
X156180908Y-96797699D01*
X156174589Y-96822925D01*
X156165828Y-96847411D01*
X156154709Y-96870920D01*
X156141339Y-96893226D01*
X156125848Y-96914114D01*
X156108383Y-96933383D01*
X156089114Y-96950848D01*
X156068226Y-96966339D01*
X156045920Y-96979709D01*
X156022411Y-96990828D01*
X155997925Y-96999589D01*
X155972699Y-97005908D01*
X155946975Y-97009724D01*
X155921000Y-97011000D01*
X154399000Y-97011000D01*
X154373025Y-97009724D01*
X154347301Y-97005908D01*
X154322075Y-96999589D01*
X154297589Y-96990828D01*
X154274080Y-96979709D01*
X154251774Y-96966339D01*
X154230886Y-96950848D01*
X154211617Y-96933383D01*
X154194152Y-96914114D01*
X154178661Y-96893226D01*
X154165291Y-96870920D01*
X154154172Y-96847411D01*
X154145411Y-96822925D01*
X154139092Y-96797699D01*
X154135276Y-96771975D01*
X154134000Y-96746000D01*
X154134000Y-95474000D01*
X154135276Y-95448025D01*
X154139092Y-95422301D01*
X154145411Y-95397075D01*
X154154172Y-95372589D01*
X154165291Y-95349080D01*
X154178661Y-95326774D01*
X154194152Y-95305886D01*
X154211617Y-95286617D01*
X154230886Y-95269152D01*
X154251774Y-95253661D01*
X154274080Y-95240291D01*
X154297589Y-95229172D01*
X154322075Y-95220411D01*
X154347301Y-95214092D01*
X154373025Y-95210276D01*
X154399000Y-95209000D01*
X155921000Y-95209000D01*
X155946975Y-95210276D01*
X155946975Y-95210276D01*
G37*
D14*
X155160000Y-96110000D03*
D16*
X134840000Y-107540000D03*
X132300000Y-107540000D03*
X134840000Y-105000000D03*
X132300000Y-105000000D03*
X134840000Y-102460000D03*
D17*
X132300000Y-102460000D03*
D18*
X145000000Y-95000000D03*
X145000000Y-115000000D03*
M02*
