G04 #@! TF.GenerationSoftware,KiCad,Pcbnew,(5.1.4)-1*
G04 #@! TF.CreationDate,2020-03-27T13:23:33-04:00*
G04 #@! TF.ProjectId,stepUP_lcd,73746570-5550-45f6-9c63-642e6b696361,rev?*
G04 #@! TF.SameCoordinates,Original*
G04 #@! TF.FileFunction,Profile,NP*
%FSLAX46Y46*%
G04 Gerber Fmt 4.6, Leading zero omitted, Abs format (unit mm)*
G04 Created by KiCad (PCBNEW (5.1.4)-1) date 2020-03-27 13:23:33*
%MOMM*%
%LPD*%
G04 APERTURE LIST*
%ADD10C,0.304799*%
G04 APERTURE END LIST*
D10*
X172350000Y-94050000D02*
G75*
G02X171350000Y-95050000I-1000000J0D01*
G01*
X171350000Y-95050000D02*
X76150000Y-95050000D01*
X76150000Y-54950000D02*
X171350000Y-54950000D01*
X67029056Y-125500001D02*
X218249999Y-125500000D01*
X226249999Y-117500000D02*
G75*
G02X218249999Y-125500000I-8000000J0D01*
G01*
X226249999Y-117500000D02*
X226250000Y-53000001D01*
X172350000Y-55950000D02*
X172350000Y-94050000D01*
X75150000Y-94050000D02*
X75150000Y-55950000D01*
X67029056Y-125500001D02*
G75*
G02X60100852Y-121500001I0J8000001D01*
G01*
X75150000Y-55950000D02*
G75*
G02X76150000Y-54950000I1000000J0D01*
G01*
X171350000Y-54950000D02*
G75*
G02X172350000Y-55950000I0J-1000000D01*
G01*
X76149999Y-95050001D02*
G75*
G02X75150000Y-94050000I1J1000000D01*
G01*
X178363247Y-35500001D02*
X51250000Y-35500000D01*
X187023502Y-45500000D02*
X182693375Y-38000000D01*
X178363247Y-35500001D02*
G75*
G02X182693375Y-38000000I1J-5000000D01*
G01*
X221250000Y-48000001D02*
X191353629Y-48000000D01*
X47254809Y-99250000D02*
X60100852Y-121500001D01*
X47254809Y-99250000D02*
G75*
G02X46250000Y-95500000I6495191J3750000D01*
G01*
X46250000Y-40500000D02*
X46250000Y-95500000D01*
X46250000Y-40500000D02*
G75*
G02X51250000Y-35500000I5000000J0D01*
G01*
X191353629Y-48000000D02*
G75*
G02X187023502Y-45500000I0J5000000D01*
G01*
X221250000Y-48000001D02*
G75*
G02X226250000Y-53000001I0J-5000000D01*
G01*
M02*
