G04 #@! TF.GenerationSoftware,KiCad,Pcbnew,(5.1.4)-1*
G04 #@! TF.CreationDate,2020-03-27T13:23:33-04:00*
G04 #@! TF.ProjectId,stepUP_lcd,73746570-5550-45f6-9c63-642e6b696361,rev?*
G04 #@! TF.SameCoordinates,Original*
G04 #@! TF.FileFunction,Legend,Bot*
G04 #@! TF.FilePolarity,Positive*
%FSLAX46Y46*%
G04 Gerber Fmt 4.6, Leading zero omitted, Abs format (unit mm)*
G04 Created by KiCad (PCBNEW (5.1.4)-1) date 2020-03-27 13:23:33*
%MOMM*%
%LPD*%
G04 APERTURE LIST*
%ADD10C,0.150000*%
%ADD11C,0.317500*%
%ADD12C,0.476250*%
%ADD13C,0.120000*%
%ADD14C,0.100000*%
%ADD15C,1.026200*%
%ADD16C,0.676200*%
%ADD17R,1.376200X2.076200*%
%ADD18R,2.076200X2.076200*%
%ADD19R,1.276200X4.826200*%
%ADD20R,2.076200X4.276200*%
%ADD21O,1.876200X2.476200*%
%ADD22C,6.476200*%
%ADD23C,10.676200*%
%ADD24C,9.376200*%
%ADD25R,1.826200X0.526200*%
%ADD26R,1.076200X2.586200*%
%ADD27R,3.226200X1.076200*%
G04 APERTURE END LIST*
D10*
X134769047Y-117632380D02*
X134769047Y-118346666D01*
X134816666Y-118489523D01*
X134911904Y-118584761D01*
X135054761Y-118632380D01*
X135150000Y-118632380D01*
X133816666Y-118632380D02*
X134292857Y-118632380D01*
X134292857Y-117632380D01*
X132911904Y-118537142D02*
X132959523Y-118584761D01*
X133102380Y-118632380D01*
X133197619Y-118632380D01*
X133340476Y-118584761D01*
X133435714Y-118489523D01*
X133483333Y-118394285D01*
X133530952Y-118203809D01*
X133530952Y-118060952D01*
X133483333Y-117870476D01*
X133435714Y-117775238D01*
X133340476Y-117680000D01*
X133197619Y-117632380D01*
X133102380Y-117632380D01*
X132959523Y-117680000D01*
X132911904Y-117727619D01*
X132197619Y-117632380D02*
X132197619Y-118346666D01*
X132245238Y-118489523D01*
X132340476Y-118584761D01*
X132483333Y-118632380D01*
X132578571Y-118632380D01*
X131245238Y-118632380D02*
X131721428Y-118632380D01*
X131721428Y-117632380D01*
X130340476Y-118537142D02*
X130388095Y-118584761D01*
X130530952Y-118632380D01*
X130626190Y-118632380D01*
X130769047Y-118584761D01*
X130864285Y-118489523D01*
X130911904Y-118394285D01*
X130959523Y-118203809D01*
X130959523Y-118060952D01*
X130911904Y-117870476D01*
X130864285Y-117775238D01*
X130769047Y-117680000D01*
X130626190Y-117632380D01*
X130530952Y-117632380D01*
X130388095Y-117680000D01*
X130340476Y-117727619D01*
X129626190Y-117632380D02*
X129626190Y-118346666D01*
X129673809Y-118489523D01*
X129769047Y-118584761D01*
X129911904Y-118632380D01*
X130007142Y-118632380D01*
X128673809Y-118632380D02*
X129150000Y-118632380D01*
X129150000Y-117632380D01*
X127769047Y-118537142D02*
X127816666Y-118584761D01*
X127959523Y-118632380D01*
X128054761Y-118632380D01*
X128197619Y-118584761D01*
X128292857Y-118489523D01*
X128340476Y-118394285D01*
X128388095Y-118203809D01*
X128388095Y-118060952D01*
X128340476Y-117870476D01*
X128292857Y-117775238D01*
X128197619Y-117680000D01*
X128054761Y-117632380D01*
X127959523Y-117632380D01*
X127816666Y-117680000D01*
X127769047Y-117727619D01*
X127054761Y-117632380D02*
X127054761Y-118346666D01*
X127102380Y-118489523D01*
X127197619Y-118584761D01*
X127340476Y-118632380D01*
X127435714Y-118632380D01*
X126102380Y-118632380D02*
X126578571Y-118632380D01*
X126578571Y-117632380D01*
X125197619Y-118537142D02*
X125245238Y-118584761D01*
X125388095Y-118632380D01*
X125483333Y-118632380D01*
X125626190Y-118584761D01*
X125721428Y-118489523D01*
X125769047Y-118394285D01*
X125816666Y-118203809D01*
X125816666Y-118060952D01*
X125769047Y-117870476D01*
X125721428Y-117775238D01*
X125626190Y-117680000D01*
X125483333Y-117632380D01*
X125388095Y-117632380D01*
X125245238Y-117680000D01*
X125197619Y-117727619D01*
D11*
X135713809Y-102244523D02*
X135713809Y-100974523D01*
X135169523Y-102184047D02*
X135048571Y-102244523D01*
X134806666Y-102244523D01*
X134685714Y-102184047D01*
X134625238Y-102063095D01*
X134625238Y-102002619D01*
X134685714Y-101881666D01*
X134806666Y-101821190D01*
X134988095Y-101821190D01*
X135109047Y-101760714D01*
X135169523Y-101639761D01*
X135169523Y-101579285D01*
X135109047Y-101458333D01*
X134988095Y-101397857D01*
X134806666Y-101397857D01*
X134685714Y-101458333D01*
X134080952Y-102244523D02*
X134080952Y-100974523D01*
X133536666Y-102244523D02*
X133536666Y-101579285D01*
X133597142Y-101458333D01*
X133718095Y-101397857D01*
X133899523Y-101397857D01*
X134020476Y-101458333D01*
X134080952Y-101518809D01*
X132387619Y-102244523D02*
X132387619Y-101579285D01*
X132448095Y-101458333D01*
X132569047Y-101397857D01*
X132810952Y-101397857D01*
X132931904Y-101458333D01*
X132387619Y-102184047D02*
X132508571Y-102244523D01*
X132810952Y-102244523D01*
X132931904Y-102184047D01*
X132992380Y-102063095D01*
X132992380Y-101942142D01*
X132931904Y-101821190D01*
X132810952Y-101760714D01*
X132508571Y-101760714D01*
X132387619Y-101700238D01*
X131238571Y-102244523D02*
X131238571Y-101579285D01*
X131299047Y-101458333D01*
X131420000Y-101397857D01*
X131661904Y-101397857D01*
X131782857Y-101458333D01*
X131238571Y-102184047D02*
X131359523Y-102244523D01*
X131661904Y-102244523D01*
X131782857Y-102184047D01*
X131843333Y-102063095D01*
X131843333Y-101942142D01*
X131782857Y-101821190D01*
X131661904Y-101760714D01*
X131359523Y-101760714D01*
X131238571Y-101700238D01*
X130633809Y-101397857D02*
X130633809Y-102244523D01*
X130633809Y-101518809D02*
X130573333Y-101458333D01*
X130452380Y-101397857D01*
X130270952Y-101397857D01*
X130150000Y-101458333D01*
X130089523Y-101579285D01*
X130089523Y-102244523D01*
X127851904Y-101035000D02*
X127972857Y-100974523D01*
X128154285Y-100974523D01*
X128335714Y-101035000D01*
X128456666Y-101155952D01*
X128517142Y-101276904D01*
X128577619Y-101518809D01*
X128577619Y-101700238D01*
X128517142Y-101942142D01*
X128456666Y-102063095D01*
X128335714Y-102184047D01*
X128154285Y-102244523D01*
X128033333Y-102244523D01*
X127851904Y-102184047D01*
X127791428Y-102123571D01*
X127791428Y-101700238D01*
X128033333Y-101700238D01*
X127065714Y-102244523D02*
X127186666Y-102184047D01*
X127247142Y-102123571D01*
X127307619Y-102002619D01*
X127307619Y-101639761D01*
X127247142Y-101518809D01*
X127186666Y-101458333D01*
X127065714Y-101397857D01*
X126884285Y-101397857D01*
X126763333Y-101458333D01*
X126702857Y-101518809D01*
X126642380Y-101639761D01*
X126642380Y-102002619D01*
X126702857Y-102123571D01*
X126763333Y-102184047D01*
X126884285Y-102244523D01*
X127065714Y-102244523D01*
X126219047Y-101397857D02*
X125916666Y-102244523D01*
X125614285Y-101397857D01*
X125130476Y-102244523D02*
X125130476Y-101397857D01*
X125130476Y-100974523D02*
X125190952Y-101035000D01*
X125130476Y-101095476D01*
X125070000Y-101035000D01*
X125130476Y-100974523D01*
X125130476Y-101095476D01*
X124525714Y-101397857D02*
X124525714Y-102244523D01*
X124525714Y-101518809D02*
X124465238Y-101458333D01*
X124344285Y-101397857D01*
X124162857Y-101397857D01*
X124041904Y-101458333D01*
X123981428Y-101579285D01*
X123981428Y-102244523D01*
X122832380Y-102244523D02*
X122832380Y-100974523D01*
X122832380Y-102184047D02*
X122953333Y-102244523D01*
X123195238Y-102244523D01*
X123316190Y-102184047D01*
X123376666Y-102123571D01*
X123437142Y-102002619D01*
X123437142Y-101639761D01*
X123376666Y-101518809D01*
X123316190Y-101458333D01*
X123195238Y-101397857D01*
X122953333Y-101397857D01*
X122832380Y-101458333D01*
X121683333Y-102244523D02*
X121683333Y-101579285D01*
X121743809Y-101458333D01*
X121864761Y-101397857D01*
X122106666Y-101397857D01*
X122227619Y-101458333D01*
X121683333Y-102184047D02*
X121804285Y-102244523D01*
X122106666Y-102244523D01*
X122227619Y-102184047D01*
X122288095Y-102063095D01*
X122288095Y-101942142D01*
X122227619Y-101821190D01*
X122106666Y-101760714D01*
X121804285Y-101760714D01*
X121683333Y-101700238D01*
X121078571Y-102244523D02*
X121078571Y-101397857D01*
X121078571Y-101639761D02*
X121018095Y-101518809D01*
X120957619Y-101458333D01*
X120836666Y-101397857D01*
X120715714Y-101397857D01*
X119748095Y-102244523D02*
X119748095Y-101579285D01*
X119808571Y-101458333D01*
X119929523Y-101397857D01*
X120171428Y-101397857D01*
X120292380Y-101458333D01*
X119748095Y-102184047D02*
X119869047Y-102244523D01*
X120171428Y-102244523D01*
X120292380Y-102184047D01*
X120352857Y-102063095D01*
X120352857Y-101942142D01*
X120292380Y-101821190D01*
X120171428Y-101760714D01*
X119869047Y-101760714D01*
X119748095Y-101700238D01*
X119143333Y-101397857D02*
X119143333Y-102486428D01*
X119203809Y-102607380D01*
X119324761Y-102667857D01*
X119385238Y-102667857D01*
X119143333Y-100974523D02*
X119203809Y-101035000D01*
X119143333Y-101095476D01*
X119082857Y-101035000D01*
X119143333Y-100974523D01*
X119143333Y-101095476D01*
X117994285Y-102244523D02*
X117994285Y-101579285D01*
X118054761Y-101458333D01*
X118175714Y-101397857D01*
X118417619Y-101397857D01*
X118538571Y-101458333D01*
X117994285Y-102184047D02*
X118115238Y-102244523D01*
X118417619Y-102244523D01*
X118538571Y-102184047D01*
X118599047Y-102063095D01*
X118599047Y-101942142D01*
X118538571Y-101821190D01*
X118417619Y-101760714D01*
X118115238Y-101760714D01*
X117994285Y-101700238D01*
X117389523Y-101397857D02*
X117389523Y-102244523D01*
X117389523Y-101518809D02*
X117329047Y-101458333D01*
X117208095Y-101397857D01*
X117026666Y-101397857D01*
X116905714Y-101458333D01*
X116845238Y-101579285D01*
X116845238Y-102244523D01*
X114910000Y-100974523D02*
X114910000Y-101881666D01*
X114970476Y-102063095D01*
X115091428Y-102184047D01*
X115272857Y-102244523D01*
X115393809Y-102244523D01*
X113760952Y-102244523D02*
X113760952Y-101579285D01*
X113821428Y-101458333D01*
X113942380Y-101397857D01*
X114184285Y-101397857D01*
X114305238Y-101458333D01*
X113760952Y-102184047D02*
X113881904Y-102244523D01*
X114184285Y-102244523D01*
X114305238Y-102184047D01*
X114365714Y-102063095D01*
X114365714Y-101942142D01*
X114305238Y-101821190D01*
X114184285Y-101760714D01*
X113881904Y-101760714D01*
X113760952Y-101700238D01*
X113156190Y-101397857D02*
X113156190Y-102244523D01*
X113156190Y-101518809D02*
X113095714Y-101458333D01*
X112974761Y-101397857D01*
X112793333Y-101397857D01*
X112672380Y-101458333D01*
X112611904Y-101579285D01*
X112611904Y-102244523D01*
X111100000Y-101095476D02*
X111039523Y-101035000D01*
X110918571Y-100974523D01*
X110616190Y-100974523D01*
X110495238Y-101035000D01*
X110434761Y-101095476D01*
X110374285Y-101216428D01*
X110374285Y-101337380D01*
X110434761Y-101518809D01*
X111160476Y-102244523D01*
X110374285Y-102244523D01*
X109588095Y-100974523D02*
X109467142Y-100974523D01*
X109346190Y-101035000D01*
X109285714Y-101095476D01*
X109225238Y-101216428D01*
X109164761Y-101458333D01*
X109164761Y-101760714D01*
X109225238Y-102002619D01*
X109285714Y-102123571D01*
X109346190Y-102184047D01*
X109467142Y-102244523D01*
X109588095Y-102244523D01*
X109709047Y-102184047D01*
X109769523Y-102123571D01*
X109830000Y-102002619D01*
X109890476Y-101760714D01*
X109890476Y-101458333D01*
X109830000Y-101216428D01*
X109769523Y-101095476D01*
X109709047Y-101035000D01*
X109588095Y-100974523D01*
X108680952Y-101095476D02*
X108620476Y-101035000D01*
X108499523Y-100974523D01*
X108197142Y-100974523D01*
X108076190Y-101035000D01*
X108015714Y-101095476D01*
X107955238Y-101216428D01*
X107955238Y-101337380D01*
X108015714Y-101518809D01*
X108741428Y-102244523D01*
X107955238Y-102244523D01*
X107169047Y-100974523D02*
X107048095Y-100974523D01*
X106927142Y-101035000D01*
X106866666Y-101095476D01*
X106806190Y-101216428D01*
X106745714Y-101458333D01*
X106745714Y-101760714D01*
X106806190Y-102002619D01*
X106866666Y-102123571D01*
X106927142Y-102184047D01*
X107048095Y-102244523D01*
X107169047Y-102244523D01*
X107290000Y-102184047D01*
X107350476Y-102123571D01*
X107410952Y-102002619D01*
X107471428Y-101760714D01*
X107471428Y-101458333D01*
X107410952Y-101216428D01*
X107350476Y-101095476D01*
X107290000Y-101035000D01*
X107169047Y-100974523D01*
D12*
X136590714Y-99901071D02*
X136409285Y-99991785D01*
X136046428Y-99991785D01*
X135865000Y-99901071D01*
X135774285Y-99719642D01*
X135774285Y-99628928D01*
X135865000Y-99447500D01*
X136046428Y-99356785D01*
X136318571Y-99356785D01*
X136500000Y-99266071D01*
X136590714Y-99084642D01*
X136590714Y-98993928D01*
X136500000Y-98812500D01*
X136318571Y-98721785D01*
X136046428Y-98721785D01*
X135865000Y-98812500D01*
X135230000Y-98721785D02*
X134504285Y-98721785D01*
X134957857Y-98086785D02*
X134957857Y-99719642D01*
X134867142Y-99901071D01*
X134685714Y-99991785D01*
X134504285Y-99991785D01*
X133143571Y-99901071D02*
X133325000Y-99991785D01*
X133687857Y-99991785D01*
X133869285Y-99901071D01*
X133960000Y-99719642D01*
X133960000Y-98993928D01*
X133869285Y-98812500D01*
X133687857Y-98721785D01*
X133325000Y-98721785D01*
X133143571Y-98812500D01*
X133052857Y-98993928D01*
X133052857Y-99175357D01*
X133960000Y-99356785D01*
X132236428Y-98721785D02*
X132236428Y-100626785D01*
X132236428Y-98812500D02*
X132055000Y-98721785D01*
X131692142Y-98721785D01*
X131510714Y-98812500D01*
X131420000Y-98903214D01*
X131329285Y-99084642D01*
X131329285Y-99628928D01*
X131420000Y-99810357D01*
X131510714Y-99901071D01*
X131692142Y-99991785D01*
X132055000Y-99991785D01*
X132236428Y-99901071D01*
X130512857Y-98086785D02*
X130512857Y-99628928D01*
X130422142Y-99810357D01*
X130331428Y-99901071D01*
X130150000Y-99991785D01*
X129787142Y-99991785D01*
X129605714Y-99901071D01*
X129515000Y-99810357D01*
X129424285Y-99628928D01*
X129424285Y-98086785D01*
X128517142Y-99991785D02*
X128517142Y-98086785D01*
X127791428Y-98086785D01*
X127610000Y-98177500D01*
X127519285Y-98268214D01*
X127428571Y-98449642D01*
X127428571Y-98721785D01*
X127519285Y-98903214D01*
X127610000Y-98993928D01*
X127791428Y-99084642D01*
X128517142Y-99084642D01*
X124253571Y-99991785D02*
X125160714Y-99991785D01*
X125160714Y-98086785D01*
X122530000Y-99810357D02*
X122620714Y-99901071D01*
X122892857Y-99991785D01*
X123074285Y-99991785D01*
X123346428Y-99901071D01*
X123527857Y-99719642D01*
X123618571Y-99538214D01*
X123709285Y-99175357D01*
X123709285Y-98903214D01*
X123618571Y-98540357D01*
X123527857Y-98358928D01*
X123346428Y-98177500D01*
X123074285Y-98086785D01*
X122892857Y-98086785D01*
X122620714Y-98177500D01*
X122530000Y-98268214D01*
X121713571Y-99991785D02*
X121713571Y-98086785D01*
X121260000Y-98086785D01*
X120987857Y-98177500D01*
X120806428Y-98358928D01*
X120715714Y-98540357D01*
X120625000Y-98903214D01*
X120625000Y-99175357D01*
X120715714Y-99538214D01*
X120806428Y-99719642D01*
X120987857Y-99901071D01*
X121260000Y-99991785D01*
X121713571Y-99991785D01*
X117268571Y-99991785D02*
X117903571Y-99084642D01*
X118357142Y-99991785D02*
X118357142Y-98086785D01*
X117631428Y-98086785D01*
X117450000Y-98177500D01*
X117359285Y-98268214D01*
X117268571Y-98449642D01*
X117268571Y-98721785D01*
X117359285Y-98903214D01*
X117450000Y-98993928D01*
X117631428Y-99084642D01*
X118357142Y-99084642D01*
X115726428Y-99901071D02*
X115907857Y-99991785D01*
X116270714Y-99991785D01*
X116452142Y-99901071D01*
X116542857Y-99719642D01*
X116542857Y-98993928D01*
X116452142Y-98812500D01*
X116270714Y-98721785D01*
X115907857Y-98721785D01*
X115726428Y-98812500D01*
X115635714Y-98993928D01*
X115635714Y-99175357D01*
X116542857Y-99356785D01*
X114819285Y-99991785D02*
X114819285Y-98721785D01*
X114819285Y-98903214D02*
X114728571Y-98812500D01*
X114547142Y-98721785D01*
X114275000Y-98721785D01*
X114093571Y-98812500D01*
X114002857Y-98993928D01*
X114002857Y-99991785D01*
X114002857Y-98993928D02*
X113912142Y-98812500D01*
X113730714Y-98721785D01*
X113458571Y-98721785D01*
X113277142Y-98812500D01*
X113186428Y-98993928D01*
X113186428Y-99991785D01*
X111462857Y-99991785D02*
X111462857Y-98993928D01*
X111553571Y-98812500D01*
X111735000Y-98721785D01*
X112097857Y-98721785D01*
X112279285Y-98812500D01*
X111462857Y-99901071D02*
X111644285Y-99991785D01*
X112097857Y-99991785D01*
X112279285Y-99901071D01*
X112370000Y-99719642D01*
X112370000Y-99538214D01*
X112279285Y-99356785D01*
X112097857Y-99266071D01*
X111644285Y-99266071D01*
X111462857Y-99175357D01*
X110646428Y-99901071D02*
X110465000Y-99991785D01*
X110102142Y-99991785D01*
X109920714Y-99901071D01*
X109830000Y-99719642D01*
X109830000Y-99628928D01*
X109920714Y-99447500D01*
X110102142Y-99356785D01*
X110374285Y-99356785D01*
X110555714Y-99266071D01*
X110646428Y-99084642D01*
X110646428Y-98993928D01*
X110555714Y-98812500D01*
X110374285Y-98721785D01*
X110102142Y-98721785D01*
X109920714Y-98812500D01*
X109285714Y-98721785D02*
X108560000Y-98721785D01*
X109013571Y-98086785D02*
X109013571Y-99719642D01*
X108922857Y-99901071D01*
X108741428Y-99991785D01*
X108560000Y-99991785D01*
X107199285Y-99901071D02*
X107380714Y-99991785D01*
X107743571Y-99991785D01*
X107925000Y-99901071D01*
X108015714Y-99719642D01*
X108015714Y-98993928D01*
X107925000Y-98812500D01*
X107743571Y-98721785D01*
X107380714Y-98721785D01*
X107199285Y-98812500D01*
X107108571Y-98993928D01*
X107108571Y-99175357D01*
X108015714Y-99356785D01*
X106292142Y-99991785D02*
X106292142Y-98721785D01*
X106292142Y-99084642D02*
X106201428Y-98903214D01*
X106110714Y-98812500D01*
X105929285Y-98721785D01*
X105747857Y-98721785D01*
D13*
X194031000Y-92018000D02*
X195936000Y-92018000D01*
X180486267Y-73220000D02*
X180143733Y-73220000D01*
X180486267Y-74240000D02*
X180143733Y-74240000D01*
X180486267Y-75760000D02*
X180143733Y-75760000D01*
X180486267Y-76780000D02*
X180143733Y-76780000D01*
X211293000Y-81306000D02*
X213243000Y-81306000D01*
X211293000Y-81306000D02*
X209343000Y-81306000D01*
X211293000Y-86426000D02*
X213243000Y-86426000D01*
X211293000Y-86426000D02*
X207843000Y-86426000D01*
X70595000Y-59840000D02*
X71175000Y-59840000D01*
X68295000Y-59840000D02*
X68815000Y-59840000D01*
X65935000Y-59840000D02*
X66516000Y-59840000D01*
X69795000Y-54600000D02*
X71175000Y-54600000D01*
X65935000Y-54600000D02*
X67315000Y-54600000D01*
X71175000Y-54600000D02*
X71175000Y-59840000D01*
X65935000Y-54600000D02*
X65935000Y-59840000D01*
X193590000Y-95260000D02*
X193590000Y-100460000D01*
X206410000Y-95260000D02*
X206410000Y-100460000D01*
X194160000Y-93820000D02*
X194160000Y-95260000D01*
X193590000Y-95260000D02*
X194160000Y-95260000D01*
X193590000Y-100460000D02*
X194160000Y-100460000D01*
X205840000Y-95260000D02*
X206410000Y-95260000D01*
X205840000Y-100460000D02*
X206410000Y-100460000D01*
X195680000Y-95260000D02*
X196700000Y-95260000D01*
X195680000Y-100460000D02*
X196700000Y-100460000D01*
X198220000Y-95260000D02*
X199240000Y-95260000D01*
X198220000Y-100460000D02*
X199240000Y-100460000D01*
X200760000Y-95260000D02*
X201780000Y-95260000D01*
X200760000Y-100460000D02*
X201780000Y-100460000D01*
X203300000Y-95260000D02*
X204320000Y-95260000D01*
X203300000Y-100460000D02*
X204320000Y-100460000D01*
X209370000Y-77400000D02*
X208970000Y-77400000D01*
X209370000Y-79600000D02*
X209370000Y-77400000D01*
X209370000Y-72600000D02*
X209370000Y-70400000D01*
X218570000Y-72600000D02*
X218570000Y-70400000D01*
X218570000Y-70400000D02*
X209370000Y-70400000D01*
X218570000Y-79600000D02*
X218570000Y-77400000D01*
X209370000Y-79600000D02*
X218570000Y-79600000D01*
X73330000Y-84080000D02*
X69445000Y-84080000D01*
X69445000Y-84080000D02*
X69445000Y-81160000D01*
X69445000Y-81160000D02*
X73330000Y-81160000D01*
X73330000Y-68840000D02*
X69445000Y-68840000D01*
X69445000Y-68840000D02*
X69445000Y-65920000D01*
X69445000Y-65920000D02*
X73330000Y-65920000D01*
X73330000Y-76460000D02*
X69445000Y-76460000D01*
X69445000Y-76460000D02*
X69445000Y-73540000D01*
X69445000Y-73540000D02*
X73330000Y-73540000D01*
D10*
X197125000Y-66355000D02*
X197125000Y-65780000D01*
X202875000Y-66355000D02*
X202875000Y-65705000D01*
X202875000Y-55705000D02*
X202875000Y-56355000D01*
X197125000Y-55705000D02*
X197125000Y-56355000D01*
X197125000Y-66355000D02*
X202875000Y-66355000D01*
X197125000Y-55705000D02*
X202875000Y-55705000D01*
X197125000Y-65780000D02*
X195525000Y-65780000D01*
D13*
X71901267Y-79320000D02*
X71558733Y-79320000D01*
X71901267Y-78300000D02*
X71558733Y-78300000D01*
X71901267Y-64080000D02*
X71558733Y-64080000D01*
X71901267Y-63060000D02*
X71558733Y-63060000D01*
X71901267Y-71700000D02*
X71558733Y-71700000D01*
X71901267Y-70680000D02*
X71558733Y-70680000D01*
X183615000Y-98031267D02*
X183615000Y-97688733D01*
X184635000Y-98031267D02*
X184635000Y-97688733D01*
X185520000Y-98031267D02*
X185520000Y-97688733D01*
X186540000Y-98031267D02*
X186540000Y-97688733D01*
X187425000Y-98031267D02*
X187425000Y-97688733D01*
X188445000Y-98031267D02*
X188445000Y-97688733D01*
X131591267Y-50110000D02*
X131248733Y-50110000D01*
X131591267Y-49090000D02*
X131248733Y-49090000D01*
X131591267Y-48205000D02*
X131248733Y-48205000D01*
X131591267Y-47185000D02*
X131248733Y-47185000D01*
X131591267Y-46300000D02*
X131248733Y-46300000D01*
X131591267Y-45280000D02*
X131248733Y-45280000D01*
X215365000Y-84061267D02*
X215365000Y-83718733D01*
X216385000Y-84061267D02*
X216385000Y-83718733D01*
X206860000Y-60858733D02*
X206860000Y-61201267D01*
X205840000Y-60858733D02*
X205840000Y-61201267D01*
X206860000Y-83718733D02*
X206860000Y-84061267D01*
X205840000Y-83718733D02*
X205840000Y-84061267D01*
X129260000Y-48830000D02*
X129260000Y-46170000D01*
X83420000Y-48830000D02*
X83420000Y-46170000D01*
X129260000Y-46170000D02*
X126150000Y-46170000D01*
X128690000Y-48830000D02*
X128690000Y-50350000D01*
X129260000Y-48830000D02*
X128690000Y-48830000D01*
X83990000Y-46170000D02*
X83420000Y-46170000D01*
X124630000Y-46170000D02*
X121070000Y-46170000D01*
X119550000Y-46170000D02*
X115990000Y-46170000D01*
X114470000Y-46170000D02*
X110910000Y-46170000D01*
X109390000Y-46170000D02*
X105830000Y-46170000D01*
X104310000Y-46170000D02*
X100750000Y-46170000D01*
X99230000Y-46170000D02*
X95670000Y-46170000D01*
X94150000Y-46170000D02*
X90590000Y-46170000D01*
X89070000Y-46170000D02*
X85510000Y-46170000D01*
X127170000Y-48830000D02*
X123610000Y-48830000D01*
X122090000Y-48830000D02*
X118530000Y-48830000D01*
X117010000Y-48830000D02*
X113450000Y-48830000D01*
X111930000Y-48830000D02*
X108370000Y-48830000D01*
X106850000Y-48830000D02*
X103290000Y-48830000D01*
X101770000Y-48830000D02*
X98210000Y-48830000D01*
X96690000Y-48830000D02*
X93130000Y-48830000D01*
X91610000Y-48830000D02*
X88050000Y-48830000D01*
X86530000Y-48830000D02*
X83420000Y-48830000D01*
X184700000Y-77030000D02*
X184700000Y-78050000D01*
X189900000Y-77030000D02*
X189900000Y-78050000D01*
X184700000Y-74490000D02*
X184700000Y-75510000D01*
X189900000Y-74490000D02*
X189900000Y-75510000D01*
X184700000Y-71950000D02*
X184700000Y-72970000D01*
X189900000Y-71950000D02*
X189900000Y-72970000D01*
X184700000Y-79570000D02*
X184700000Y-80140000D01*
X189900000Y-79570000D02*
X189900000Y-80140000D01*
X184700000Y-69860000D02*
X184700000Y-70430000D01*
X189900000Y-69860000D02*
X189900000Y-70430000D01*
X191340000Y-70430000D02*
X189900000Y-70430000D01*
X189900000Y-80140000D02*
X184700000Y-80140000D01*
X189900000Y-69860000D02*
X184700000Y-69860000D01*
X218290000Y-83718733D02*
X218290000Y-84061267D01*
X217270000Y-83718733D02*
X217270000Y-84061267D01*
X200171267Y-55190000D02*
X199828733Y-55190000D01*
X200171267Y-54170000D02*
X199828733Y-54170000D01*
D10*
X177751047Y-74182380D02*
X178084380Y-73706190D01*
X178322476Y-74182380D02*
X178322476Y-73182380D01*
X177941523Y-73182380D01*
X177846285Y-73230000D01*
X177798666Y-73277619D01*
X177751047Y-73372857D01*
X177751047Y-73515714D01*
X177798666Y-73610952D01*
X177846285Y-73658571D01*
X177941523Y-73706190D01*
X178322476Y-73706190D01*
X176798666Y-74182380D02*
X177370095Y-74182380D01*
X177084380Y-74182380D02*
X177084380Y-73182380D01*
X177179619Y-73325238D01*
X177274857Y-73420476D01*
X177370095Y-73468095D01*
X176179619Y-73182380D02*
X176084380Y-73182380D01*
X175989142Y-73230000D01*
X175941523Y-73277619D01*
X175893904Y-73372857D01*
X175846285Y-73563333D01*
X175846285Y-73801428D01*
X175893904Y-73991904D01*
X175941523Y-74087142D01*
X175989142Y-74134761D01*
X176084380Y-74182380D01*
X176179619Y-74182380D01*
X176274857Y-74134761D01*
X176322476Y-74087142D01*
X176370095Y-73991904D01*
X176417714Y-73801428D01*
X176417714Y-73563333D01*
X176370095Y-73372857D01*
X176322476Y-73277619D01*
X176274857Y-73230000D01*
X176179619Y-73182380D01*
X175465333Y-73277619D02*
X175417714Y-73230000D01*
X175322476Y-73182380D01*
X175084380Y-73182380D01*
X174989142Y-73230000D01*
X174941523Y-73277619D01*
X174893904Y-73372857D01*
X174893904Y-73468095D01*
X174941523Y-73610952D01*
X175512952Y-74182380D01*
X174893904Y-74182380D01*
X177751047Y-76722380D02*
X178084380Y-76246190D01*
X178322476Y-76722380D02*
X178322476Y-75722380D01*
X177941523Y-75722380D01*
X177846285Y-75770000D01*
X177798666Y-75817619D01*
X177751047Y-75912857D01*
X177751047Y-76055714D01*
X177798666Y-76150952D01*
X177846285Y-76198571D01*
X177941523Y-76246190D01*
X178322476Y-76246190D01*
X176798666Y-76722380D02*
X177370095Y-76722380D01*
X177084380Y-76722380D02*
X177084380Y-75722380D01*
X177179619Y-75865238D01*
X177274857Y-75960476D01*
X177370095Y-76008095D01*
X176179619Y-75722380D02*
X176084380Y-75722380D01*
X175989142Y-75770000D01*
X175941523Y-75817619D01*
X175893904Y-75912857D01*
X175846285Y-76103333D01*
X175846285Y-76341428D01*
X175893904Y-76531904D01*
X175941523Y-76627142D01*
X175989142Y-76674761D01*
X176084380Y-76722380D01*
X176179619Y-76722380D01*
X176274857Y-76674761D01*
X176322476Y-76627142D01*
X176370095Y-76531904D01*
X176417714Y-76341428D01*
X176417714Y-76103333D01*
X176370095Y-75912857D01*
X176322476Y-75817619D01*
X176274857Y-75770000D01*
X176179619Y-75722380D01*
X174893904Y-76722380D02*
X175465333Y-76722380D01*
X175179619Y-76722380D02*
X175179619Y-75722380D01*
X175274857Y-75865238D01*
X175370095Y-75960476D01*
X175465333Y-76008095D01*
X212054904Y-86718380D02*
X212054904Y-87527904D01*
X212007285Y-87623142D01*
X211959666Y-87670761D01*
X211864428Y-87718380D01*
X211673952Y-87718380D01*
X211578714Y-87670761D01*
X211531095Y-87623142D01*
X211483476Y-87527904D01*
X211483476Y-86718380D01*
X211054904Y-86813619D02*
X211007285Y-86766000D01*
X210912047Y-86718380D01*
X210673952Y-86718380D01*
X210578714Y-86766000D01*
X210531095Y-86813619D01*
X210483476Y-86908857D01*
X210483476Y-87004095D01*
X210531095Y-87146952D01*
X211102523Y-87718380D01*
X210483476Y-87718380D01*
X65257380Y-56624761D02*
X64781190Y-56291428D01*
X65257380Y-56053333D02*
X64257380Y-56053333D01*
X64257380Y-56434285D01*
X64305000Y-56529523D01*
X64352619Y-56577142D01*
X64447857Y-56624761D01*
X64590714Y-56624761D01*
X64685952Y-56577142D01*
X64733571Y-56529523D01*
X64781190Y-56434285D01*
X64781190Y-56053333D01*
X64257380Y-56910476D02*
X65257380Y-57243809D01*
X64257380Y-57577142D01*
X65257380Y-58434285D02*
X65257380Y-57862857D01*
X65257380Y-58148571D02*
X64257380Y-58148571D01*
X64400238Y-58053333D01*
X64495476Y-57958095D01*
X64543095Y-57862857D01*
X192042380Y-97526666D02*
X192756666Y-97526666D01*
X192899523Y-97479047D01*
X192994761Y-97383809D01*
X193042380Y-97240952D01*
X193042380Y-97145714D01*
X193042380Y-98526666D02*
X193042380Y-97955238D01*
X193042380Y-98240952D02*
X192042380Y-98240952D01*
X192185238Y-98145714D01*
X192280476Y-98050476D01*
X192328095Y-97955238D01*
X214850952Y-69213571D02*
X214708095Y-69261190D01*
X214660476Y-69308809D01*
X214612857Y-69404047D01*
X214612857Y-69546904D01*
X214660476Y-69642142D01*
X214708095Y-69689761D01*
X214803333Y-69737380D01*
X215184285Y-69737380D01*
X215184285Y-68737380D01*
X214850952Y-68737380D01*
X214755714Y-68785000D01*
X214708095Y-68832619D01*
X214660476Y-68927857D01*
X214660476Y-69023095D01*
X214708095Y-69118333D01*
X214755714Y-69165952D01*
X214850952Y-69213571D01*
X215184285Y-69213571D01*
X214279523Y-68737380D02*
X213612857Y-68737380D01*
X214279523Y-69737380D01*
X213612857Y-69737380D01*
X212708095Y-69737380D02*
X213279523Y-69737380D01*
X212993809Y-69737380D02*
X212993809Y-68737380D01*
X213089047Y-68880238D01*
X213184285Y-68975476D01*
X213279523Y-69023095D01*
X68912095Y-83072380D02*
X68912095Y-82072380D01*
X68674000Y-82072380D01*
X68531142Y-82120000D01*
X68435904Y-82215238D01*
X68388285Y-82310476D01*
X68340666Y-82500952D01*
X68340666Y-82643809D01*
X68388285Y-82834285D01*
X68435904Y-82929523D01*
X68531142Y-83024761D01*
X68674000Y-83072380D01*
X68912095Y-83072380D01*
X68007333Y-82072380D02*
X67388285Y-82072380D01*
X67721619Y-82453333D01*
X67578761Y-82453333D01*
X67483523Y-82500952D01*
X67435904Y-82548571D01*
X67388285Y-82643809D01*
X67388285Y-82881904D01*
X67435904Y-82977142D01*
X67483523Y-83024761D01*
X67578761Y-83072380D01*
X67864476Y-83072380D01*
X67959714Y-83024761D01*
X68007333Y-82977142D01*
X68912095Y-67832380D02*
X68912095Y-66832380D01*
X68674000Y-66832380D01*
X68531142Y-66880000D01*
X68435904Y-66975238D01*
X68388285Y-67070476D01*
X68340666Y-67260952D01*
X68340666Y-67403809D01*
X68388285Y-67594285D01*
X68435904Y-67689523D01*
X68531142Y-67784761D01*
X68674000Y-67832380D01*
X68912095Y-67832380D01*
X67959714Y-66927619D02*
X67912095Y-66880000D01*
X67816857Y-66832380D01*
X67578761Y-66832380D01*
X67483523Y-66880000D01*
X67435904Y-66927619D01*
X67388285Y-67022857D01*
X67388285Y-67118095D01*
X67435904Y-67260952D01*
X68007333Y-67832380D01*
X67388285Y-67832380D01*
X68912095Y-75452380D02*
X68912095Y-74452380D01*
X68674000Y-74452380D01*
X68531142Y-74500000D01*
X68435904Y-74595238D01*
X68388285Y-74690476D01*
X68340666Y-74880952D01*
X68340666Y-75023809D01*
X68388285Y-75214285D01*
X68435904Y-75309523D01*
X68531142Y-75404761D01*
X68674000Y-75452380D01*
X68912095Y-75452380D01*
X67388285Y-75452380D02*
X67959714Y-75452380D01*
X67674000Y-75452380D02*
X67674000Y-74452380D01*
X67769238Y-74595238D01*
X67864476Y-74690476D01*
X67959714Y-74738095D01*
X200761904Y-66732380D02*
X200761904Y-67541904D01*
X200714285Y-67637142D01*
X200666666Y-67684761D01*
X200571428Y-67732380D01*
X200380952Y-67732380D01*
X200285714Y-67684761D01*
X200238095Y-67637142D01*
X200190476Y-67541904D01*
X200190476Y-66732380D01*
X199809523Y-66732380D02*
X199190476Y-66732380D01*
X199523809Y-67113333D01*
X199380952Y-67113333D01*
X199285714Y-67160952D01*
X199238095Y-67208571D01*
X199190476Y-67303809D01*
X199190476Y-67541904D01*
X199238095Y-67637142D01*
X199285714Y-67684761D01*
X199380952Y-67732380D01*
X199666666Y-67732380D01*
X199761904Y-67684761D01*
X199809523Y-67637142D01*
X69197857Y-79262380D02*
X69531190Y-78786190D01*
X69769285Y-79262380D02*
X69769285Y-78262380D01*
X69388333Y-78262380D01*
X69293095Y-78310000D01*
X69245476Y-78357619D01*
X69197857Y-78452857D01*
X69197857Y-78595714D01*
X69245476Y-78690952D01*
X69293095Y-78738571D01*
X69388333Y-78786190D01*
X69769285Y-78786190D01*
X68245476Y-79262380D02*
X68816904Y-79262380D01*
X68531190Y-79262380D02*
X68531190Y-78262380D01*
X68626428Y-78405238D01*
X68721666Y-78500476D01*
X68816904Y-78548095D01*
X67864523Y-78357619D02*
X67816904Y-78310000D01*
X67721666Y-78262380D01*
X67483571Y-78262380D01*
X67388333Y-78310000D01*
X67340714Y-78357619D01*
X67293095Y-78452857D01*
X67293095Y-78548095D01*
X67340714Y-78690952D01*
X67912142Y-79262380D01*
X67293095Y-79262380D01*
X69197857Y-64022380D02*
X69531190Y-63546190D01*
X69769285Y-64022380D02*
X69769285Y-63022380D01*
X69388333Y-63022380D01*
X69293095Y-63070000D01*
X69245476Y-63117619D01*
X69197857Y-63212857D01*
X69197857Y-63355714D01*
X69245476Y-63450952D01*
X69293095Y-63498571D01*
X69388333Y-63546190D01*
X69769285Y-63546190D01*
X68245476Y-64022380D02*
X68816904Y-64022380D01*
X68531190Y-64022380D02*
X68531190Y-63022380D01*
X68626428Y-63165238D01*
X68721666Y-63260476D01*
X68816904Y-63308095D01*
X67293095Y-64022380D02*
X67864523Y-64022380D01*
X67578809Y-64022380D02*
X67578809Y-63022380D01*
X67674047Y-63165238D01*
X67769285Y-63260476D01*
X67864523Y-63308095D01*
X69197857Y-71642380D02*
X69531190Y-71166190D01*
X69769285Y-71642380D02*
X69769285Y-70642380D01*
X69388333Y-70642380D01*
X69293095Y-70690000D01*
X69245476Y-70737619D01*
X69197857Y-70832857D01*
X69197857Y-70975714D01*
X69245476Y-71070952D01*
X69293095Y-71118571D01*
X69388333Y-71166190D01*
X69769285Y-71166190D01*
X68245476Y-71642380D02*
X68816904Y-71642380D01*
X68531190Y-71642380D02*
X68531190Y-70642380D01*
X68626428Y-70785238D01*
X68721666Y-70880476D01*
X68816904Y-70928095D01*
X67626428Y-70642380D02*
X67531190Y-70642380D01*
X67435952Y-70690000D01*
X67388333Y-70737619D01*
X67340714Y-70832857D01*
X67293095Y-71023333D01*
X67293095Y-71261428D01*
X67340714Y-71451904D01*
X67388333Y-71547142D01*
X67435952Y-71594761D01*
X67531190Y-71642380D01*
X67626428Y-71642380D01*
X67721666Y-71594761D01*
X67769285Y-71547142D01*
X67816904Y-71451904D01*
X67864523Y-71261428D01*
X67864523Y-71023333D01*
X67816904Y-70832857D01*
X67769285Y-70737619D01*
X67721666Y-70690000D01*
X67626428Y-70642380D01*
X184577380Y-94518333D02*
X184101190Y-94185000D01*
X184577380Y-93946904D02*
X183577380Y-93946904D01*
X183577380Y-94327857D01*
X183625000Y-94423095D01*
X183672619Y-94470714D01*
X183767857Y-94518333D01*
X183910714Y-94518333D01*
X184005952Y-94470714D01*
X184053571Y-94423095D01*
X184101190Y-94327857D01*
X184101190Y-93946904D01*
X184577380Y-94994523D02*
X184577380Y-95185000D01*
X184529761Y-95280238D01*
X184482142Y-95327857D01*
X184339285Y-95423095D01*
X184148809Y-95470714D01*
X183767857Y-95470714D01*
X183672619Y-95423095D01*
X183625000Y-95375476D01*
X183577380Y-95280238D01*
X183577380Y-95089761D01*
X183625000Y-94994523D01*
X183672619Y-94946904D01*
X183767857Y-94899285D01*
X184005952Y-94899285D01*
X184101190Y-94946904D01*
X184148809Y-94994523D01*
X184196428Y-95089761D01*
X184196428Y-95280238D01*
X184148809Y-95375476D01*
X184101190Y-95423095D01*
X184005952Y-95470714D01*
X186482380Y-94518333D02*
X186006190Y-94185000D01*
X186482380Y-93946904D02*
X185482380Y-93946904D01*
X185482380Y-94327857D01*
X185530000Y-94423095D01*
X185577619Y-94470714D01*
X185672857Y-94518333D01*
X185815714Y-94518333D01*
X185910952Y-94470714D01*
X185958571Y-94423095D01*
X186006190Y-94327857D01*
X186006190Y-93946904D01*
X185910952Y-95089761D02*
X185863333Y-94994523D01*
X185815714Y-94946904D01*
X185720476Y-94899285D01*
X185672857Y-94899285D01*
X185577619Y-94946904D01*
X185530000Y-94994523D01*
X185482380Y-95089761D01*
X185482380Y-95280238D01*
X185530000Y-95375476D01*
X185577619Y-95423095D01*
X185672857Y-95470714D01*
X185720476Y-95470714D01*
X185815714Y-95423095D01*
X185863333Y-95375476D01*
X185910952Y-95280238D01*
X185910952Y-95089761D01*
X185958571Y-94994523D01*
X186006190Y-94946904D01*
X186101428Y-94899285D01*
X186291904Y-94899285D01*
X186387142Y-94946904D01*
X186434761Y-94994523D01*
X186482380Y-95089761D01*
X186482380Y-95280238D01*
X186434761Y-95375476D01*
X186387142Y-95423095D01*
X186291904Y-95470714D01*
X186101428Y-95470714D01*
X186006190Y-95423095D01*
X185958571Y-95375476D01*
X185910952Y-95280238D01*
X188387380Y-94518333D02*
X187911190Y-94185000D01*
X188387380Y-93946904D02*
X187387380Y-93946904D01*
X187387380Y-94327857D01*
X187435000Y-94423095D01*
X187482619Y-94470714D01*
X187577857Y-94518333D01*
X187720714Y-94518333D01*
X187815952Y-94470714D01*
X187863571Y-94423095D01*
X187911190Y-94327857D01*
X187911190Y-93946904D01*
X187387380Y-94851666D02*
X187387380Y-95518333D01*
X188387380Y-95089761D01*
X134444166Y-50052380D02*
X134777500Y-49576190D01*
X135015595Y-50052380D02*
X135015595Y-49052380D01*
X134634642Y-49052380D01*
X134539404Y-49100000D01*
X134491785Y-49147619D01*
X134444166Y-49242857D01*
X134444166Y-49385714D01*
X134491785Y-49480952D01*
X134539404Y-49528571D01*
X134634642Y-49576190D01*
X135015595Y-49576190D01*
X133587023Y-49052380D02*
X133777500Y-49052380D01*
X133872738Y-49100000D01*
X133920357Y-49147619D01*
X134015595Y-49290476D01*
X134063214Y-49480952D01*
X134063214Y-49861904D01*
X134015595Y-49957142D01*
X133967976Y-50004761D01*
X133872738Y-50052380D01*
X133682261Y-50052380D01*
X133587023Y-50004761D01*
X133539404Y-49957142D01*
X133491785Y-49861904D01*
X133491785Y-49623809D01*
X133539404Y-49528571D01*
X133587023Y-49480952D01*
X133682261Y-49433333D01*
X133872738Y-49433333D01*
X133967976Y-49480952D01*
X134015595Y-49528571D01*
X134063214Y-49623809D01*
X134444166Y-48147380D02*
X134777500Y-47671190D01*
X135015595Y-48147380D02*
X135015595Y-47147380D01*
X134634642Y-47147380D01*
X134539404Y-47195000D01*
X134491785Y-47242619D01*
X134444166Y-47337857D01*
X134444166Y-47480714D01*
X134491785Y-47575952D01*
X134539404Y-47623571D01*
X134634642Y-47671190D01*
X135015595Y-47671190D01*
X133539404Y-47147380D02*
X134015595Y-47147380D01*
X134063214Y-47623571D01*
X134015595Y-47575952D01*
X133920357Y-47528333D01*
X133682261Y-47528333D01*
X133587023Y-47575952D01*
X133539404Y-47623571D01*
X133491785Y-47718809D01*
X133491785Y-47956904D01*
X133539404Y-48052142D01*
X133587023Y-48099761D01*
X133682261Y-48147380D01*
X133920357Y-48147380D01*
X134015595Y-48099761D01*
X134063214Y-48052142D01*
X134444166Y-46242380D02*
X134777500Y-45766190D01*
X135015595Y-46242380D02*
X135015595Y-45242380D01*
X134634642Y-45242380D01*
X134539404Y-45290000D01*
X134491785Y-45337619D01*
X134444166Y-45432857D01*
X134444166Y-45575714D01*
X134491785Y-45670952D01*
X134539404Y-45718571D01*
X134634642Y-45766190D01*
X135015595Y-45766190D01*
X133587023Y-45575714D02*
X133587023Y-46242380D01*
X133825119Y-45194761D02*
X134063214Y-45909047D01*
X133444166Y-45909047D01*
X216327380Y-86898333D02*
X215851190Y-86565000D01*
X216327380Y-86326904D02*
X215327380Y-86326904D01*
X215327380Y-86707857D01*
X215375000Y-86803095D01*
X215422619Y-86850714D01*
X215517857Y-86898333D01*
X215660714Y-86898333D01*
X215755952Y-86850714D01*
X215803571Y-86803095D01*
X215851190Y-86707857D01*
X215851190Y-86326904D01*
X215327380Y-87231666D02*
X215327380Y-87850714D01*
X215708333Y-87517380D01*
X215708333Y-87660238D01*
X215755952Y-87755476D01*
X215803571Y-87803095D01*
X215898809Y-87850714D01*
X216136904Y-87850714D01*
X216232142Y-87803095D01*
X216279761Y-87755476D01*
X216327380Y-87660238D01*
X216327380Y-87374523D01*
X216279761Y-87279285D01*
X216232142Y-87231666D01*
X208389880Y-60863333D02*
X207913690Y-60530000D01*
X208389880Y-60291904D02*
X207389880Y-60291904D01*
X207389880Y-60672857D01*
X207437500Y-60768095D01*
X207485119Y-60815714D01*
X207580357Y-60863333D01*
X207723214Y-60863333D01*
X207818452Y-60815714D01*
X207866071Y-60768095D01*
X207913690Y-60672857D01*
X207913690Y-60291904D01*
X207485119Y-61244285D02*
X207437500Y-61291904D01*
X207389880Y-61387142D01*
X207389880Y-61625238D01*
X207437500Y-61720476D01*
X207485119Y-61768095D01*
X207580357Y-61815714D01*
X207675595Y-61815714D01*
X207818452Y-61768095D01*
X208389880Y-61196666D01*
X208389880Y-61815714D01*
X206802380Y-86898333D02*
X206326190Y-86565000D01*
X206802380Y-86326904D02*
X205802380Y-86326904D01*
X205802380Y-86707857D01*
X205850000Y-86803095D01*
X205897619Y-86850714D01*
X205992857Y-86898333D01*
X206135714Y-86898333D01*
X206230952Y-86850714D01*
X206278571Y-86803095D01*
X206326190Y-86707857D01*
X206326190Y-86326904D01*
X206802380Y-87850714D02*
X206802380Y-87279285D01*
X206802380Y-87565000D02*
X205802380Y-87565000D01*
X205945238Y-87469761D01*
X206040476Y-87374523D01*
X206088095Y-87279285D01*
X82690833Y-46952380D02*
X82690833Y-47666666D01*
X82738452Y-47809523D01*
X82833690Y-47904761D01*
X82976547Y-47952380D01*
X83071785Y-47952380D01*
X82309880Y-46952380D02*
X81690833Y-46952380D01*
X82024166Y-47333333D01*
X81881309Y-47333333D01*
X81786071Y-47380952D01*
X81738452Y-47428571D01*
X81690833Y-47523809D01*
X81690833Y-47761904D01*
X81738452Y-47857142D01*
X81786071Y-47904761D01*
X81881309Y-47952380D01*
X82167023Y-47952380D01*
X82262261Y-47904761D01*
X82309880Y-47857142D01*
X187633333Y-68312380D02*
X187633333Y-69026666D01*
X187680952Y-69169523D01*
X187776190Y-69264761D01*
X187919047Y-69312380D01*
X188014285Y-69312380D01*
X187204761Y-68407619D02*
X187157142Y-68360000D01*
X187061904Y-68312380D01*
X186823809Y-68312380D01*
X186728571Y-68360000D01*
X186680952Y-68407619D01*
X186633333Y-68502857D01*
X186633333Y-68598095D01*
X186680952Y-68740952D01*
X187252380Y-69312380D01*
X186633333Y-69312380D01*
X218137142Y-86898333D02*
X218184761Y-86850714D01*
X218232380Y-86707857D01*
X218232380Y-86612619D01*
X218184761Y-86469761D01*
X218089523Y-86374523D01*
X217994285Y-86326904D01*
X217803809Y-86279285D01*
X217660952Y-86279285D01*
X217470476Y-86326904D01*
X217375238Y-86374523D01*
X217280000Y-86469761D01*
X217232380Y-86612619D01*
X217232380Y-86707857D01*
X217280000Y-86850714D01*
X217327619Y-86898333D01*
X217232380Y-87231666D02*
X217232380Y-87850714D01*
X217613333Y-87517380D01*
X217613333Y-87660238D01*
X217660952Y-87755476D01*
X217708571Y-87803095D01*
X217803809Y-87850714D01*
X218041904Y-87850714D01*
X218137142Y-87803095D01*
X218184761Y-87755476D01*
X218232380Y-87660238D01*
X218232380Y-87374523D01*
X218184761Y-87279285D01*
X218137142Y-87231666D01*
X200166666Y-53607142D02*
X200214285Y-53654761D01*
X200357142Y-53702380D01*
X200452380Y-53702380D01*
X200595238Y-53654761D01*
X200690476Y-53559523D01*
X200738095Y-53464285D01*
X200785714Y-53273809D01*
X200785714Y-53130952D01*
X200738095Y-52940476D01*
X200690476Y-52845238D01*
X200595238Y-52750000D01*
X200452380Y-52702380D01*
X200357142Y-52702380D01*
X200214285Y-52750000D01*
X200166666Y-52797619D01*
X199785714Y-52797619D02*
X199738095Y-52750000D01*
X199642857Y-52702380D01*
X199404761Y-52702380D01*
X199309523Y-52750000D01*
X199261904Y-52797619D01*
X199214285Y-52892857D01*
X199214285Y-52988095D01*
X199261904Y-53130952D01*
X199833333Y-53702380D01*
X199214285Y-53702380D01*
%LPC*%
D14*
G36*
X181521696Y-73218135D02*
G01*
X181546600Y-73221830D01*
X181571023Y-73227947D01*
X181594727Y-73236429D01*
X181617487Y-73247193D01*
X181639082Y-73260136D01*
X181659304Y-73275134D01*
X181677958Y-73292042D01*
X181694866Y-73310696D01*
X181709864Y-73330918D01*
X181722807Y-73352513D01*
X181733571Y-73375273D01*
X181742053Y-73398977D01*
X181748170Y-73423400D01*
X181751865Y-73448304D01*
X181753100Y-73473450D01*
X181753100Y-73986550D01*
X181751865Y-74011696D01*
X181748170Y-74036600D01*
X181742053Y-74061023D01*
X181733571Y-74084727D01*
X181722807Y-74107487D01*
X181709864Y-74129082D01*
X181694866Y-74149304D01*
X181677958Y-74167958D01*
X181659304Y-74184866D01*
X181639082Y-74199864D01*
X181617487Y-74212807D01*
X181594727Y-74223571D01*
X181571023Y-74232053D01*
X181546600Y-74238170D01*
X181521696Y-74241865D01*
X181496550Y-74243100D01*
X180883450Y-74243100D01*
X180858304Y-74241865D01*
X180833400Y-74238170D01*
X180808977Y-74232053D01*
X180785273Y-74223571D01*
X180762513Y-74212807D01*
X180740918Y-74199864D01*
X180720696Y-74184866D01*
X180702042Y-74167958D01*
X180685134Y-74149304D01*
X180670136Y-74129082D01*
X180657193Y-74107487D01*
X180646429Y-74084727D01*
X180637947Y-74061023D01*
X180631830Y-74036600D01*
X180628135Y-74011696D01*
X180626900Y-73986550D01*
X180626900Y-73473450D01*
X180628135Y-73448304D01*
X180631830Y-73423400D01*
X180637947Y-73398977D01*
X180646429Y-73375273D01*
X180657193Y-73352513D01*
X180670136Y-73330918D01*
X180685134Y-73310696D01*
X180702042Y-73292042D01*
X180720696Y-73275134D01*
X180740918Y-73260136D01*
X180762513Y-73247193D01*
X180785273Y-73236429D01*
X180808977Y-73227947D01*
X180833400Y-73221830D01*
X180858304Y-73218135D01*
X180883450Y-73216900D01*
X181496550Y-73216900D01*
X181521696Y-73218135D01*
X181521696Y-73218135D01*
G37*
D15*
X181190000Y-73730000D03*
D14*
G36*
X179771696Y-73218135D02*
G01*
X179796600Y-73221830D01*
X179821023Y-73227947D01*
X179844727Y-73236429D01*
X179867487Y-73247193D01*
X179889082Y-73260136D01*
X179909304Y-73275134D01*
X179927958Y-73292042D01*
X179944866Y-73310696D01*
X179959864Y-73330918D01*
X179972807Y-73352513D01*
X179983571Y-73375273D01*
X179992053Y-73398977D01*
X179998170Y-73423400D01*
X180001865Y-73448304D01*
X180003100Y-73473450D01*
X180003100Y-73986550D01*
X180001865Y-74011696D01*
X179998170Y-74036600D01*
X179992053Y-74061023D01*
X179983571Y-74084727D01*
X179972807Y-74107487D01*
X179959864Y-74129082D01*
X179944866Y-74149304D01*
X179927958Y-74167958D01*
X179909304Y-74184866D01*
X179889082Y-74199864D01*
X179867487Y-74212807D01*
X179844727Y-74223571D01*
X179821023Y-74232053D01*
X179796600Y-74238170D01*
X179771696Y-74241865D01*
X179746550Y-74243100D01*
X179133450Y-74243100D01*
X179108304Y-74241865D01*
X179083400Y-74238170D01*
X179058977Y-74232053D01*
X179035273Y-74223571D01*
X179012513Y-74212807D01*
X178990918Y-74199864D01*
X178970696Y-74184866D01*
X178952042Y-74167958D01*
X178935134Y-74149304D01*
X178920136Y-74129082D01*
X178907193Y-74107487D01*
X178896429Y-74084727D01*
X178887947Y-74061023D01*
X178881830Y-74036600D01*
X178878135Y-74011696D01*
X178876900Y-73986550D01*
X178876900Y-73473450D01*
X178878135Y-73448304D01*
X178881830Y-73423400D01*
X178887947Y-73398977D01*
X178896429Y-73375273D01*
X178907193Y-73352513D01*
X178920136Y-73330918D01*
X178935134Y-73310696D01*
X178952042Y-73292042D01*
X178970696Y-73275134D01*
X178990918Y-73260136D01*
X179012513Y-73247193D01*
X179035273Y-73236429D01*
X179058977Y-73227947D01*
X179083400Y-73221830D01*
X179108304Y-73218135D01*
X179133450Y-73216900D01*
X179746550Y-73216900D01*
X179771696Y-73218135D01*
X179771696Y-73218135D01*
G37*
D15*
X179440000Y-73730000D03*
D14*
G36*
X181521696Y-75758135D02*
G01*
X181546600Y-75761830D01*
X181571023Y-75767947D01*
X181594727Y-75776429D01*
X181617487Y-75787193D01*
X181639082Y-75800136D01*
X181659304Y-75815134D01*
X181677958Y-75832042D01*
X181694866Y-75850696D01*
X181709864Y-75870918D01*
X181722807Y-75892513D01*
X181733571Y-75915273D01*
X181742053Y-75938977D01*
X181748170Y-75963400D01*
X181751865Y-75988304D01*
X181753100Y-76013450D01*
X181753100Y-76526550D01*
X181751865Y-76551696D01*
X181748170Y-76576600D01*
X181742053Y-76601023D01*
X181733571Y-76624727D01*
X181722807Y-76647487D01*
X181709864Y-76669082D01*
X181694866Y-76689304D01*
X181677958Y-76707958D01*
X181659304Y-76724866D01*
X181639082Y-76739864D01*
X181617487Y-76752807D01*
X181594727Y-76763571D01*
X181571023Y-76772053D01*
X181546600Y-76778170D01*
X181521696Y-76781865D01*
X181496550Y-76783100D01*
X180883450Y-76783100D01*
X180858304Y-76781865D01*
X180833400Y-76778170D01*
X180808977Y-76772053D01*
X180785273Y-76763571D01*
X180762513Y-76752807D01*
X180740918Y-76739864D01*
X180720696Y-76724866D01*
X180702042Y-76707958D01*
X180685134Y-76689304D01*
X180670136Y-76669082D01*
X180657193Y-76647487D01*
X180646429Y-76624727D01*
X180637947Y-76601023D01*
X180631830Y-76576600D01*
X180628135Y-76551696D01*
X180626900Y-76526550D01*
X180626900Y-76013450D01*
X180628135Y-75988304D01*
X180631830Y-75963400D01*
X180637947Y-75938977D01*
X180646429Y-75915273D01*
X180657193Y-75892513D01*
X180670136Y-75870918D01*
X180685134Y-75850696D01*
X180702042Y-75832042D01*
X180720696Y-75815134D01*
X180740918Y-75800136D01*
X180762513Y-75787193D01*
X180785273Y-75776429D01*
X180808977Y-75767947D01*
X180833400Y-75761830D01*
X180858304Y-75758135D01*
X180883450Y-75756900D01*
X181496550Y-75756900D01*
X181521696Y-75758135D01*
X181521696Y-75758135D01*
G37*
D15*
X181190000Y-76270000D03*
D14*
G36*
X179771696Y-75758135D02*
G01*
X179796600Y-75761830D01*
X179821023Y-75767947D01*
X179844727Y-75776429D01*
X179867487Y-75787193D01*
X179889082Y-75800136D01*
X179909304Y-75815134D01*
X179927958Y-75832042D01*
X179944866Y-75850696D01*
X179959864Y-75870918D01*
X179972807Y-75892513D01*
X179983571Y-75915273D01*
X179992053Y-75938977D01*
X179998170Y-75963400D01*
X180001865Y-75988304D01*
X180003100Y-76013450D01*
X180003100Y-76526550D01*
X180001865Y-76551696D01*
X179998170Y-76576600D01*
X179992053Y-76601023D01*
X179983571Y-76624727D01*
X179972807Y-76647487D01*
X179959864Y-76669082D01*
X179944866Y-76689304D01*
X179927958Y-76707958D01*
X179909304Y-76724866D01*
X179889082Y-76739864D01*
X179867487Y-76752807D01*
X179844727Y-76763571D01*
X179821023Y-76772053D01*
X179796600Y-76778170D01*
X179771696Y-76781865D01*
X179746550Y-76783100D01*
X179133450Y-76783100D01*
X179108304Y-76781865D01*
X179083400Y-76778170D01*
X179058977Y-76772053D01*
X179035273Y-76763571D01*
X179012513Y-76752807D01*
X178990918Y-76739864D01*
X178970696Y-76724866D01*
X178952042Y-76707958D01*
X178935134Y-76689304D01*
X178920136Y-76669082D01*
X178907193Y-76647487D01*
X178896429Y-76624727D01*
X178887947Y-76601023D01*
X178881830Y-76576600D01*
X178878135Y-76551696D01*
X178876900Y-76526550D01*
X178876900Y-76013450D01*
X178878135Y-75988304D01*
X178881830Y-75963400D01*
X178887947Y-75938977D01*
X178896429Y-75915273D01*
X178907193Y-75892513D01*
X178920136Y-75870918D01*
X178935134Y-75850696D01*
X178952042Y-75832042D01*
X178970696Y-75815134D01*
X178990918Y-75800136D01*
X179012513Y-75787193D01*
X179035273Y-75776429D01*
X179058977Y-75767947D01*
X179083400Y-75761830D01*
X179108304Y-75758135D01*
X179133450Y-75756900D01*
X179746550Y-75756900D01*
X179771696Y-75758135D01*
X179771696Y-75758135D01*
G37*
D15*
X179440000Y-76270000D03*
D14*
G36*
X209678620Y-85433714D02*
G01*
X209695030Y-85436148D01*
X209711123Y-85440179D01*
X209726743Y-85445768D01*
X209741740Y-85452861D01*
X209755969Y-85461390D01*
X209769294Y-85471273D01*
X209781586Y-85482414D01*
X209792727Y-85494706D01*
X209802610Y-85508031D01*
X209811139Y-85522260D01*
X209818232Y-85537257D01*
X209823821Y-85552877D01*
X209827852Y-85568970D01*
X209830286Y-85585380D01*
X209831100Y-85601950D01*
X209831100Y-85940050D01*
X209830286Y-85956620D01*
X209827852Y-85973030D01*
X209823821Y-85989123D01*
X209818232Y-86004743D01*
X209811139Y-86019740D01*
X209802610Y-86033969D01*
X209792727Y-86047294D01*
X209781586Y-86059586D01*
X209769294Y-86070727D01*
X209755969Y-86080610D01*
X209741740Y-86089139D01*
X209726743Y-86096232D01*
X209711123Y-86101821D01*
X209695030Y-86105852D01*
X209678620Y-86108286D01*
X209662050Y-86109100D01*
X207973950Y-86109100D01*
X207957380Y-86108286D01*
X207940970Y-86105852D01*
X207924877Y-86101821D01*
X207909257Y-86096232D01*
X207894260Y-86089139D01*
X207880031Y-86080610D01*
X207866706Y-86070727D01*
X207854414Y-86059586D01*
X207843273Y-86047294D01*
X207833390Y-86033969D01*
X207824861Y-86019740D01*
X207817768Y-86004743D01*
X207812179Y-85989123D01*
X207808148Y-85973030D01*
X207805714Y-85956620D01*
X207804900Y-85940050D01*
X207804900Y-85601950D01*
X207805714Y-85585380D01*
X207808148Y-85568970D01*
X207812179Y-85552877D01*
X207817768Y-85537257D01*
X207824861Y-85522260D01*
X207833390Y-85508031D01*
X207843273Y-85494706D01*
X207854414Y-85482414D01*
X207866706Y-85471273D01*
X207880031Y-85461390D01*
X207894260Y-85452861D01*
X207909257Y-85445768D01*
X207924877Y-85440179D01*
X207940970Y-85436148D01*
X207957380Y-85433714D01*
X207973950Y-85432900D01*
X209662050Y-85432900D01*
X209678620Y-85433714D01*
X209678620Y-85433714D01*
G37*
D16*
X208818000Y-85771000D03*
D14*
G36*
X209678620Y-84163714D02*
G01*
X209695030Y-84166148D01*
X209711123Y-84170179D01*
X209726743Y-84175768D01*
X209741740Y-84182861D01*
X209755969Y-84191390D01*
X209769294Y-84201273D01*
X209781586Y-84212414D01*
X209792727Y-84224706D01*
X209802610Y-84238031D01*
X209811139Y-84252260D01*
X209818232Y-84267257D01*
X209823821Y-84282877D01*
X209827852Y-84298970D01*
X209830286Y-84315380D01*
X209831100Y-84331950D01*
X209831100Y-84670050D01*
X209830286Y-84686620D01*
X209827852Y-84703030D01*
X209823821Y-84719123D01*
X209818232Y-84734743D01*
X209811139Y-84749740D01*
X209802610Y-84763969D01*
X209792727Y-84777294D01*
X209781586Y-84789586D01*
X209769294Y-84800727D01*
X209755969Y-84810610D01*
X209741740Y-84819139D01*
X209726743Y-84826232D01*
X209711123Y-84831821D01*
X209695030Y-84835852D01*
X209678620Y-84838286D01*
X209662050Y-84839100D01*
X207973950Y-84839100D01*
X207957380Y-84838286D01*
X207940970Y-84835852D01*
X207924877Y-84831821D01*
X207909257Y-84826232D01*
X207894260Y-84819139D01*
X207880031Y-84810610D01*
X207866706Y-84800727D01*
X207854414Y-84789586D01*
X207843273Y-84777294D01*
X207833390Y-84763969D01*
X207824861Y-84749740D01*
X207817768Y-84734743D01*
X207812179Y-84719123D01*
X207808148Y-84703030D01*
X207805714Y-84686620D01*
X207804900Y-84670050D01*
X207804900Y-84331950D01*
X207805714Y-84315380D01*
X207808148Y-84298970D01*
X207812179Y-84282877D01*
X207817768Y-84267257D01*
X207824861Y-84252260D01*
X207833390Y-84238031D01*
X207843273Y-84224706D01*
X207854414Y-84212414D01*
X207866706Y-84201273D01*
X207880031Y-84191390D01*
X207894260Y-84182861D01*
X207909257Y-84175768D01*
X207924877Y-84170179D01*
X207940970Y-84166148D01*
X207957380Y-84163714D01*
X207973950Y-84162900D01*
X209662050Y-84162900D01*
X209678620Y-84163714D01*
X209678620Y-84163714D01*
G37*
D16*
X208818000Y-84501000D03*
D14*
G36*
X209678620Y-82893714D02*
G01*
X209695030Y-82896148D01*
X209711123Y-82900179D01*
X209726743Y-82905768D01*
X209741740Y-82912861D01*
X209755969Y-82921390D01*
X209769294Y-82931273D01*
X209781586Y-82942414D01*
X209792727Y-82954706D01*
X209802610Y-82968031D01*
X209811139Y-82982260D01*
X209818232Y-82997257D01*
X209823821Y-83012877D01*
X209827852Y-83028970D01*
X209830286Y-83045380D01*
X209831100Y-83061950D01*
X209831100Y-83400050D01*
X209830286Y-83416620D01*
X209827852Y-83433030D01*
X209823821Y-83449123D01*
X209818232Y-83464743D01*
X209811139Y-83479740D01*
X209802610Y-83493969D01*
X209792727Y-83507294D01*
X209781586Y-83519586D01*
X209769294Y-83530727D01*
X209755969Y-83540610D01*
X209741740Y-83549139D01*
X209726743Y-83556232D01*
X209711123Y-83561821D01*
X209695030Y-83565852D01*
X209678620Y-83568286D01*
X209662050Y-83569100D01*
X207973950Y-83569100D01*
X207957380Y-83568286D01*
X207940970Y-83565852D01*
X207924877Y-83561821D01*
X207909257Y-83556232D01*
X207894260Y-83549139D01*
X207880031Y-83540610D01*
X207866706Y-83530727D01*
X207854414Y-83519586D01*
X207843273Y-83507294D01*
X207833390Y-83493969D01*
X207824861Y-83479740D01*
X207817768Y-83464743D01*
X207812179Y-83449123D01*
X207808148Y-83433030D01*
X207805714Y-83416620D01*
X207804900Y-83400050D01*
X207804900Y-83061950D01*
X207805714Y-83045380D01*
X207808148Y-83028970D01*
X207812179Y-83012877D01*
X207817768Y-82997257D01*
X207824861Y-82982260D01*
X207833390Y-82968031D01*
X207843273Y-82954706D01*
X207854414Y-82942414D01*
X207866706Y-82931273D01*
X207880031Y-82921390D01*
X207894260Y-82912861D01*
X207909257Y-82905768D01*
X207924877Y-82900179D01*
X207940970Y-82896148D01*
X207957380Y-82893714D01*
X207973950Y-82892900D01*
X209662050Y-82892900D01*
X209678620Y-82893714D01*
X209678620Y-82893714D01*
G37*
D16*
X208818000Y-83231000D03*
D14*
G36*
X209678620Y-81623714D02*
G01*
X209695030Y-81626148D01*
X209711123Y-81630179D01*
X209726743Y-81635768D01*
X209741740Y-81642861D01*
X209755969Y-81651390D01*
X209769294Y-81661273D01*
X209781586Y-81672414D01*
X209792727Y-81684706D01*
X209802610Y-81698031D01*
X209811139Y-81712260D01*
X209818232Y-81727257D01*
X209823821Y-81742877D01*
X209827852Y-81758970D01*
X209830286Y-81775380D01*
X209831100Y-81791950D01*
X209831100Y-82130050D01*
X209830286Y-82146620D01*
X209827852Y-82163030D01*
X209823821Y-82179123D01*
X209818232Y-82194743D01*
X209811139Y-82209740D01*
X209802610Y-82223969D01*
X209792727Y-82237294D01*
X209781586Y-82249586D01*
X209769294Y-82260727D01*
X209755969Y-82270610D01*
X209741740Y-82279139D01*
X209726743Y-82286232D01*
X209711123Y-82291821D01*
X209695030Y-82295852D01*
X209678620Y-82298286D01*
X209662050Y-82299100D01*
X207973950Y-82299100D01*
X207957380Y-82298286D01*
X207940970Y-82295852D01*
X207924877Y-82291821D01*
X207909257Y-82286232D01*
X207894260Y-82279139D01*
X207880031Y-82270610D01*
X207866706Y-82260727D01*
X207854414Y-82249586D01*
X207843273Y-82237294D01*
X207833390Y-82223969D01*
X207824861Y-82209740D01*
X207817768Y-82194743D01*
X207812179Y-82179123D01*
X207808148Y-82163030D01*
X207805714Y-82146620D01*
X207804900Y-82130050D01*
X207804900Y-81791950D01*
X207805714Y-81775380D01*
X207808148Y-81758970D01*
X207812179Y-81742877D01*
X207817768Y-81727257D01*
X207824861Y-81712260D01*
X207833390Y-81698031D01*
X207843273Y-81684706D01*
X207854414Y-81672414D01*
X207866706Y-81661273D01*
X207880031Y-81651390D01*
X207894260Y-81642861D01*
X207909257Y-81635768D01*
X207924877Y-81630179D01*
X207940970Y-81626148D01*
X207957380Y-81623714D01*
X207973950Y-81622900D01*
X209662050Y-81622900D01*
X209678620Y-81623714D01*
X209678620Y-81623714D01*
G37*
D16*
X208818000Y-81961000D03*
D14*
G36*
X214628620Y-81623714D02*
G01*
X214645030Y-81626148D01*
X214661123Y-81630179D01*
X214676743Y-81635768D01*
X214691740Y-81642861D01*
X214705969Y-81651390D01*
X214719294Y-81661273D01*
X214731586Y-81672414D01*
X214742727Y-81684706D01*
X214752610Y-81698031D01*
X214761139Y-81712260D01*
X214768232Y-81727257D01*
X214773821Y-81742877D01*
X214777852Y-81758970D01*
X214780286Y-81775380D01*
X214781100Y-81791950D01*
X214781100Y-82130050D01*
X214780286Y-82146620D01*
X214777852Y-82163030D01*
X214773821Y-82179123D01*
X214768232Y-82194743D01*
X214761139Y-82209740D01*
X214752610Y-82223969D01*
X214742727Y-82237294D01*
X214731586Y-82249586D01*
X214719294Y-82260727D01*
X214705969Y-82270610D01*
X214691740Y-82279139D01*
X214676743Y-82286232D01*
X214661123Y-82291821D01*
X214645030Y-82295852D01*
X214628620Y-82298286D01*
X214612050Y-82299100D01*
X212923950Y-82299100D01*
X212907380Y-82298286D01*
X212890970Y-82295852D01*
X212874877Y-82291821D01*
X212859257Y-82286232D01*
X212844260Y-82279139D01*
X212830031Y-82270610D01*
X212816706Y-82260727D01*
X212804414Y-82249586D01*
X212793273Y-82237294D01*
X212783390Y-82223969D01*
X212774861Y-82209740D01*
X212767768Y-82194743D01*
X212762179Y-82179123D01*
X212758148Y-82163030D01*
X212755714Y-82146620D01*
X212754900Y-82130050D01*
X212754900Y-81791950D01*
X212755714Y-81775380D01*
X212758148Y-81758970D01*
X212762179Y-81742877D01*
X212767768Y-81727257D01*
X212774861Y-81712260D01*
X212783390Y-81698031D01*
X212793273Y-81684706D01*
X212804414Y-81672414D01*
X212816706Y-81661273D01*
X212830031Y-81651390D01*
X212844260Y-81642861D01*
X212859257Y-81635768D01*
X212874877Y-81630179D01*
X212890970Y-81626148D01*
X212907380Y-81623714D01*
X212923950Y-81622900D01*
X214612050Y-81622900D01*
X214628620Y-81623714D01*
X214628620Y-81623714D01*
G37*
D16*
X213768000Y-81961000D03*
D14*
G36*
X214628620Y-82893714D02*
G01*
X214645030Y-82896148D01*
X214661123Y-82900179D01*
X214676743Y-82905768D01*
X214691740Y-82912861D01*
X214705969Y-82921390D01*
X214719294Y-82931273D01*
X214731586Y-82942414D01*
X214742727Y-82954706D01*
X214752610Y-82968031D01*
X214761139Y-82982260D01*
X214768232Y-82997257D01*
X214773821Y-83012877D01*
X214777852Y-83028970D01*
X214780286Y-83045380D01*
X214781100Y-83061950D01*
X214781100Y-83400050D01*
X214780286Y-83416620D01*
X214777852Y-83433030D01*
X214773821Y-83449123D01*
X214768232Y-83464743D01*
X214761139Y-83479740D01*
X214752610Y-83493969D01*
X214742727Y-83507294D01*
X214731586Y-83519586D01*
X214719294Y-83530727D01*
X214705969Y-83540610D01*
X214691740Y-83549139D01*
X214676743Y-83556232D01*
X214661123Y-83561821D01*
X214645030Y-83565852D01*
X214628620Y-83568286D01*
X214612050Y-83569100D01*
X212923950Y-83569100D01*
X212907380Y-83568286D01*
X212890970Y-83565852D01*
X212874877Y-83561821D01*
X212859257Y-83556232D01*
X212844260Y-83549139D01*
X212830031Y-83540610D01*
X212816706Y-83530727D01*
X212804414Y-83519586D01*
X212793273Y-83507294D01*
X212783390Y-83493969D01*
X212774861Y-83479740D01*
X212767768Y-83464743D01*
X212762179Y-83449123D01*
X212758148Y-83433030D01*
X212755714Y-83416620D01*
X212754900Y-83400050D01*
X212754900Y-83061950D01*
X212755714Y-83045380D01*
X212758148Y-83028970D01*
X212762179Y-83012877D01*
X212767768Y-82997257D01*
X212774861Y-82982260D01*
X212783390Y-82968031D01*
X212793273Y-82954706D01*
X212804414Y-82942414D01*
X212816706Y-82931273D01*
X212830031Y-82921390D01*
X212844260Y-82912861D01*
X212859257Y-82905768D01*
X212874877Y-82900179D01*
X212890970Y-82896148D01*
X212907380Y-82893714D01*
X212923950Y-82892900D01*
X214612050Y-82892900D01*
X214628620Y-82893714D01*
X214628620Y-82893714D01*
G37*
D16*
X213768000Y-83231000D03*
D14*
G36*
X214628620Y-84163714D02*
G01*
X214645030Y-84166148D01*
X214661123Y-84170179D01*
X214676743Y-84175768D01*
X214691740Y-84182861D01*
X214705969Y-84191390D01*
X214719294Y-84201273D01*
X214731586Y-84212414D01*
X214742727Y-84224706D01*
X214752610Y-84238031D01*
X214761139Y-84252260D01*
X214768232Y-84267257D01*
X214773821Y-84282877D01*
X214777852Y-84298970D01*
X214780286Y-84315380D01*
X214781100Y-84331950D01*
X214781100Y-84670050D01*
X214780286Y-84686620D01*
X214777852Y-84703030D01*
X214773821Y-84719123D01*
X214768232Y-84734743D01*
X214761139Y-84749740D01*
X214752610Y-84763969D01*
X214742727Y-84777294D01*
X214731586Y-84789586D01*
X214719294Y-84800727D01*
X214705969Y-84810610D01*
X214691740Y-84819139D01*
X214676743Y-84826232D01*
X214661123Y-84831821D01*
X214645030Y-84835852D01*
X214628620Y-84838286D01*
X214612050Y-84839100D01*
X212923950Y-84839100D01*
X212907380Y-84838286D01*
X212890970Y-84835852D01*
X212874877Y-84831821D01*
X212859257Y-84826232D01*
X212844260Y-84819139D01*
X212830031Y-84810610D01*
X212816706Y-84800727D01*
X212804414Y-84789586D01*
X212793273Y-84777294D01*
X212783390Y-84763969D01*
X212774861Y-84749740D01*
X212767768Y-84734743D01*
X212762179Y-84719123D01*
X212758148Y-84703030D01*
X212755714Y-84686620D01*
X212754900Y-84670050D01*
X212754900Y-84331950D01*
X212755714Y-84315380D01*
X212758148Y-84298970D01*
X212762179Y-84282877D01*
X212767768Y-84267257D01*
X212774861Y-84252260D01*
X212783390Y-84238031D01*
X212793273Y-84224706D01*
X212804414Y-84212414D01*
X212816706Y-84201273D01*
X212830031Y-84191390D01*
X212844260Y-84182861D01*
X212859257Y-84175768D01*
X212874877Y-84170179D01*
X212890970Y-84166148D01*
X212907380Y-84163714D01*
X212923950Y-84162900D01*
X214612050Y-84162900D01*
X214628620Y-84163714D01*
X214628620Y-84163714D01*
G37*
D16*
X213768000Y-84501000D03*
D14*
G36*
X214628620Y-85433714D02*
G01*
X214645030Y-85436148D01*
X214661123Y-85440179D01*
X214676743Y-85445768D01*
X214691740Y-85452861D01*
X214705969Y-85461390D01*
X214719294Y-85471273D01*
X214731586Y-85482414D01*
X214742727Y-85494706D01*
X214752610Y-85508031D01*
X214761139Y-85522260D01*
X214768232Y-85537257D01*
X214773821Y-85552877D01*
X214777852Y-85568970D01*
X214780286Y-85585380D01*
X214781100Y-85601950D01*
X214781100Y-85940050D01*
X214780286Y-85956620D01*
X214777852Y-85973030D01*
X214773821Y-85989123D01*
X214768232Y-86004743D01*
X214761139Y-86019740D01*
X214752610Y-86033969D01*
X214742727Y-86047294D01*
X214731586Y-86059586D01*
X214719294Y-86070727D01*
X214705969Y-86080610D01*
X214691740Y-86089139D01*
X214676743Y-86096232D01*
X214661123Y-86101821D01*
X214645030Y-86105852D01*
X214628620Y-86108286D01*
X214612050Y-86109100D01*
X212923950Y-86109100D01*
X212907380Y-86108286D01*
X212890970Y-86105852D01*
X212874877Y-86101821D01*
X212859257Y-86096232D01*
X212844260Y-86089139D01*
X212830031Y-86080610D01*
X212816706Y-86070727D01*
X212804414Y-86059586D01*
X212793273Y-86047294D01*
X212783390Y-86033969D01*
X212774861Y-86019740D01*
X212767768Y-86004743D01*
X212762179Y-85989123D01*
X212758148Y-85973030D01*
X212755714Y-85956620D01*
X212754900Y-85940050D01*
X212754900Y-85601950D01*
X212755714Y-85585380D01*
X212758148Y-85568970D01*
X212762179Y-85552877D01*
X212767768Y-85537257D01*
X212774861Y-85522260D01*
X212783390Y-85508031D01*
X212793273Y-85494706D01*
X212804414Y-85482414D01*
X212816706Y-85471273D01*
X212830031Y-85461390D01*
X212844260Y-85452861D01*
X212859257Y-85445768D01*
X212874877Y-85440179D01*
X212890970Y-85436148D01*
X212907380Y-85433714D01*
X212923950Y-85432900D01*
X214612050Y-85432900D01*
X214628620Y-85433714D01*
X214628620Y-85433714D01*
G37*
D16*
X213768000Y-85771000D03*
D17*
X69705000Y-59220000D03*
D18*
X68555000Y-55220000D03*
D17*
X67405000Y-59220000D03*
D19*
X194920000Y-94985000D03*
X194920000Y-100735000D03*
X197460000Y-94985000D03*
X197460000Y-100735000D03*
X200000000Y-94985000D03*
X200000000Y-100735000D03*
X202540000Y-94985000D03*
X202540000Y-100735000D03*
X205080000Y-94985000D03*
X205080000Y-100735000D03*
D20*
X217970000Y-75000000D03*
X209970000Y-75000000D03*
D14*
G36*
X70507977Y-81707888D02*
G01*
X70527900Y-81710844D01*
X70547438Y-81715738D01*
X70566402Y-81722523D01*
X70584609Y-81731134D01*
X70601885Y-81741489D01*
X70618063Y-81753487D01*
X70632987Y-81767013D01*
X70646513Y-81781937D01*
X70658511Y-81798115D01*
X70668866Y-81815391D01*
X70677477Y-81833598D01*
X70684262Y-81852562D01*
X70689156Y-81872100D01*
X70692112Y-81892023D01*
X70693100Y-81912140D01*
X70693100Y-83327860D01*
X70692112Y-83347977D01*
X70689156Y-83367900D01*
X70684262Y-83387438D01*
X70677477Y-83406402D01*
X70668866Y-83424609D01*
X70658511Y-83441885D01*
X70646513Y-83458063D01*
X70632987Y-83472987D01*
X70618063Y-83486513D01*
X70601885Y-83498511D01*
X70584609Y-83508866D01*
X70566402Y-83517477D01*
X70547438Y-83524262D01*
X70527900Y-83529156D01*
X70507977Y-83532112D01*
X70487860Y-83533100D01*
X69872140Y-83533100D01*
X69852023Y-83532112D01*
X69832100Y-83529156D01*
X69812562Y-83524262D01*
X69793598Y-83517477D01*
X69775391Y-83508866D01*
X69758115Y-83498511D01*
X69741937Y-83486513D01*
X69727013Y-83472987D01*
X69713487Y-83458063D01*
X69701489Y-83441885D01*
X69691134Y-83424609D01*
X69682523Y-83406402D01*
X69675738Y-83387438D01*
X69670844Y-83367900D01*
X69667888Y-83347977D01*
X69666900Y-83327860D01*
X69666900Y-81912140D01*
X69667888Y-81892023D01*
X69670844Y-81872100D01*
X69675738Y-81852562D01*
X69682523Y-81833598D01*
X69691134Y-81815391D01*
X69701489Y-81798115D01*
X69713487Y-81781937D01*
X69727013Y-81767013D01*
X69741937Y-81753487D01*
X69758115Y-81741489D01*
X69775391Y-81731134D01*
X69793598Y-81722523D01*
X69812562Y-81715738D01*
X69832100Y-81710844D01*
X69852023Y-81707888D01*
X69872140Y-81706900D01*
X70487860Y-81706900D01*
X70507977Y-81707888D01*
X70507977Y-81707888D01*
G37*
D15*
X70180000Y-82620000D03*
D14*
G36*
X73607977Y-81707888D02*
G01*
X73627900Y-81710844D01*
X73647438Y-81715738D01*
X73666402Y-81722523D01*
X73684609Y-81731134D01*
X73701885Y-81741489D01*
X73718063Y-81753487D01*
X73732987Y-81767013D01*
X73746513Y-81781937D01*
X73758511Y-81798115D01*
X73768866Y-81815391D01*
X73777477Y-81833598D01*
X73784262Y-81852562D01*
X73789156Y-81872100D01*
X73792112Y-81892023D01*
X73793100Y-81912140D01*
X73793100Y-83327860D01*
X73792112Y-83347977D01*
X73789156Y-83367900D01*
X73784262Y-83387438D01*
X73777477Y-83406402D01*
X73768866Y-83424609D01*
X73758511Y-83441885D01*
X73746513Y-83458063D01*
X73732987Y-83472987D01*
X73718063Y-83486513D01*
X73701885Y-83498511D01*
X73684609Y-83508866D01*
X73666402Y-83517477D01*
X73647438Y-83524262D01*
X73627900Y-83529156D01*
X73607977Y-83532112D01*
X73587860Y-83533100D01*
X72972140Y-83533100D01*
X72952023Y-83532112D01*
X72932100Y-83529156D01*
X72912562Y-83524262D01*
X72893598Y-83517477D01*
X72875391Y-83508866D01*
X72858115Y-83498511D01*
X72841937Y-83486513D01*
X72827013Y-83472987D01*
X72813487Y-83458063D01*
X72801489Y-83441885D01*
X72791134Y-83424609D01*
X72782523Y-83406402D01*
X72775738Y-83387438D01*
X72770844Y-83367900D01*
X72767888Y-83347977D01*
X72766900Y-83327860D01*
X72766900Y-81912140D01*
X72767888Y-81892023D01*
X72770844Y-81872100D01*
X72775738Y-81852562D01*
X72782523Y-81833598D01*
X72791134Y-81815391D01*
X72801489Y-81798115D01*
X72813487Y-81781937D01*
X72827013Y-81767013D01*
X72841937Y-81753487D01*
X72858115Y-81741489D01*
X72875391Y-81731134D01*
X72893598Y-81722523D01*
X72912562Y-81715738D01*
X72932100Y-81710844D01*
X72952023Y-81707888D01*
X72972140Y-81706900D01*
X73587860Y-81706900D01*
X73607977Y-81707888D01*
X73607977Y-81707888D01*
G37*
D15*
X73280000Y-82620000D03*
D21*
X71730000Y-82620000D03*
D14*
G36*
X70507977Y-66467888D02*
G01*
X70527900Y-66470844D01*
X70547438Y-66475738D01*
X70566402Y-66482523D01*
X70584609Y-66491134D01*
X70601885Y-66501489D01*
X70618063Y-66513487D01*
X70632987Y-66527013D01*
X70646513Y-66541937D01*
X70658511Y-66558115D01*
X70668866Y-66575391D01*
X70677477Y-66593598D01*
X70684262Y-66612562D01*
X70689156Y-66632100D01*
X70692112Y-66652023D01*
X70693100Y-66672140D01*
X70693100Y-68087860D01*
X70692112Y-68107977D01*
X70689156Y-68127900D01*
X70684262Y-68147438D01*
X70677477Y-68166402D01*
X70668866Y-68184609D01*
X70658511Y-68201885D01*
X70646513Y-68218063D01*
X70632987Y-68232987D01*
X70618063Y-68246513D01*
X70601885Y-68258511D01*
X70584609Y-68268866D01*
X70566402Y-68277477D01*
X70547438Y-68284262D01*
X70527900Y-68289156D01*
X70507977Y-68292112D01*
X70487860Y-68293100D01*
X69872140Y-68293100D01*
X69852023Y-68292112D01*
X69832100Y-68289156D01*
X69812562Y-68284262D01*
X69793598Y-68277477D01*
X69775391Y-68268866D01*
X69758115Y-68258511D01*
X69741937Y-68246513D01*
X69727013Y-68232987D01*
X69713487Y-68218063D01*
X69701489Y-68201885D01*
X69691134Y-68184609D01*
X69682523Y-68166402D01*
X69675738Y-68147438D01*
X69670844Y-68127900D01*
X69667888Y-68107977D01*
X69666900Y-68087860D01*
X69666900Y-66672140D01*
X69667888Y-66652023D01*
X69670844Y-66632100D01*
X69675738Y-66612562D01*
X69682523Y-66593598D01*
X69691134Y-66575391D01*
X69701489Y-66558115D01*
X69713487Y-66541937D01*
X69727013Y-66527013D01*
X69741937Y-66513487D01*
X69758115Y-66501489D01*
X69775391Y-66491134D01*
X69793598Y-66482523D01*
X69812562Y-66475738D01*
X69832100Y-66470844D01*
X69852023Y-66467888D01*
X69872140Y-66466900D01*
X70487860Y-66466900D01*
X70507977Y-66467888D01*
X70507977Y-66467888D01*
G37*
D15*
X70180000Y-67380000D03*
D14*
G36*
X73607977Y-66467888D02*
G01*
X73627900Y-66470844D01*
X73647438Y-66475738D01*
X73666402Y-66482523D01*
X73684609Y-66491134D01*
X73701885Y-66501489D01*
X73718063Y-66513487D01*
X73732987Y-66527013D01*
X73746513Y-66541937D01*
X73758511Y-66558115D01*
X73768866Y-66575391D01*
X73777477Y-66593598D01*
X73784262Y-66612562D01*
X73789156Y-66632100D01*
X73792112Y-66652023D01*
X73793100Y-66672140D01*
X73793100Y-68087860D01*
X73792112Y-68107977D01*
X73789156Y-68127900D01*
X73784262Y-68147438D01*
X73777477Y-68166402D01*
X73768866Y-68184609D01*
X73758511Y-68201885D01*
X73746513Y-68218063D01*
X73732987Y-68232987D01*
X73718063Y-68246513D01*
X73701885Y-68258511D01*
X73684609Y-68268866D01*
X73666402Y-68277477D01*
X73647438Y-68284262D01*
X73627900Y-68289156D01*
X73607977Y-68292112D01*
X73587860Y-68293100D01*
X72972140Y-68293100D01*
X72952023Y-68292112D01*
X72932100Y-68289156D01*
X72912562Y-68284262D01*
X72893598Y-68277477D01*
X72875391Y-68268866D01*
X72858115Y-68258511D01*
X72841937Y-68246513D01*
X72827013Y-68232987D01*
X72813487Y-68218063D01*
X72801489Y-68201885D01*
X72791134Y-68184609D01*
X72782523Y-68166402D01*
X72775738Y-68147438D01*
X72770844Y-68127900D01*
X72767888Y-68107977D01*
X72766900Y-68087860D01*
X72766900Y-66672140D01*
X72767888Y-66652023D01*
X72770844Y-66632100D01*
X72775738Y-66612562D01*
X72782523Y-66593598D01*
X72791134Y-66575391D01*
X72801489Y-66558115D01*
X72813487Y-66541937D01*
X72827013Y-66527013D01*
X72841937Y-66513487D01*
X72858115Y-66501489D01*
X72875391Y-66491134D01*
X72893598Y-66482523D01*
X72912562Y-66475738D01*
X72932100Y-66470844D01*
X72952023Y-66467888D01*
X72972140Y-66466900D01*
X73587860Y-66466900D01*
X73607977Y-66467888D01*
X73607977Y-66467888D01*
G37*
D15*
X73280000Y-67380000D03*
D21*
X71730000Y-67380000D03*
D14*
G36*
X70507977Y-74087888D02*
G01*
X70527900Y-74090844D01*
X70547438Y-74095738D01*
X70566402Y-74102523D01*
X70584609Y-74111134D01*
X70601885Y-74121489D01*
X70618063Y-74133487D01*
X70632987Y-74147013D01*
X70646513Y-74161937D01*
X70658511Y-74178115D01*
X70668866Y-74195391D01*
X70677477Y-74213598D01*
X70684262Y-74232562D01*
X70689156Y-74252100D01*
X70692112Y-74272023D01*
X70693100Y-74292140D01*
X70693100Y-75707860D01*
X70692112Y-75727977D01*
X70689156Y-75747900D01*
X70684262Y-75767438D01*
X70677477Y-75786402D01*
X70668866Y-75804609D01*
X70658511Y-75821885D01*
X70646513Y-75838063D01*
X70632987Y-75852987D01*
X70618063Y-75866513D01*
X70601885Y-75878511D01*
X70584609Y-75888866D01*
X70566402Y-75897477D01*
X70547438Y-75904262D01*
X70527900Y-75909156D01*
X70507977Y-75912112D01*
X70487860Y-75913100D01*
X69872140Y-75913100D01*
X69852023Y-75912112D01*
X69832100Y-75909156D01*
X69812562Y-75904262D01*
X69793598Y-75897477D01*
X69775391Y-75888866D01*
X69758115Y-75878511D01*
X69741937Y-75866513D01*
X69727013Y-75852987D01*
X69713487Y-75838063D01*
X69701489Y-75821885D01*
X69691134Y-75804609D01*
X69682523Y-75786402D01*
X69675738Y-75767438D01*
X69670844Y-75747900D01*
X69667888Y-75727977D01*
X69666900Y-75707860D01*
X69666900Y-74292140D01*
X69667888Y-74272023D01*
X69670844Y-74252100D01*
X69675738Y-74232562D01*
X69682523Y-74213598D01*
X69691134Y-74195391D01*
X69701489Y-74178115D01*
X69713487Y-74161937D01*
X69727013Y-74147013D01*
X69741937Y-74133487D01*
X69758115Y-74121489D01*
X69775391Y-74111134D01*
X69793598Y-74102523D01*
X69812562Y-74095738D01*
X69832100Y-74090844D01*
X69852023Y-74087888D01*
X69872140Y-74086900D01*
X70487860Y-74086900D01*
X70507977Y-74087888D01*
X70507977Y-74087888D01*
G37*
D15*
X70180000Y-75000000D03*
D14*
G36*
X73607977Y-74087888D02*
G01*
X73627900Y-74090844D01*
X73647438Y-74095738D01*
X73666402Y-74102523D01*
X73684609Y-74111134D01*
X73701885Y-74121489D01*
X73718063Y-74133487D01*
X73732987Y-74147013D01*
X73746513Y-74161937D01*
X73758511Y-74178115D01*
X73768866Y-74195391D01*
X73777477Y-74213598D01*
X73784262Y-74232562D01*
X73789156Y-74252100D01*
X73792112Y-74272023D01*
X73793100Y-74292140D01*
X73793100Y-75707860D01*
X73792112Y-75727977D01*
X73789156Y-75747900D01*
X73784262Y-75767438D01*
X73777477Y-75786402D01*
X73768866Y-75804609D01*
X73758511Y-75821885D01*
X73746513Y-75838063D01*
X73732987Y-75852987D01*
X73718063Y-75866513D01*
X73701885Y-75878511D01*
X73684609Y-75888866D01*
X73666402Y-75897477D01*
X73647438Y-75904262D01*
X73627900Y-75909156D01*
X73607977Y-75912112D01*
X73587860Y-75913100D01*
X72972140Y-75913100D01*
X72952023Y-75912112D01*
X72932100Y-75909156D01*
X72912562Y-75904262D01*
X72893598Y-75897477D01*
X72875391Y-75888866D01*
X72858115Y-75878511D01*
X72841937Y-75866513D01*
X72827013Y-75852987D01*
X72813487Y-75838063D01*
X72801489Y-75821885D01*
X72791134Y-75804609D01*
X72782523Y-75786402D01*
X72775738Y-75767438D01*
X72770844Y-75747900D01*
X72767888Y-75727977D01*
X72766900Y-75707860D01*
X72766900Y-74292140D01*
X72767888Y-74272023D01*
X72770844Y-74252100D01*
X72775738Y-74232562D01*
X72782523Y-74213598D01*
X72791134Y-74195391D01*
X72801489Y-74178115D01*
X72813487Y-74161937D01*
X72827013Y-74147013D01*
X72841937Y-74133487D01*
X72858115Y-74121489D01*
X72875391Y-74111134D01*
X72893598Y-74102523D01*
X72912562Y-74095738D01*
X72932100Y-74090844D01*
X72952023Y-74087888D01*
X72972140Y-74086900D01*
X73587860Y-74086900D01*
X73607977Y-74087888D01*
X73607977Y-74087888D01*
G37*
D15*
X73280000Y-75000000D03*
D21*
X71730000Y-75000000D03*
D22*
X170250000Y-102500000D03*
X170250000Y-47500000D03*
X77250000Y-47500000D03*
X77250000Y-102500000D03*
X221250000Y-103000000D03*
X221250000Y-53000000D03*
X178363248Y-40500000D03*
X68750000Y-40500000D03*
X68750000Y-103000000D03*
D23*
X206250000Y-118000000D03*
X145000000Y-118000000D03*
X83750000Y-118000000D03*
X53750000Y-95500000D03*
X53750000Y-50500000D03*
D24*
X200000000Y-75000000D03*
D25*
X196400000Y-65255000D03*
X196400000Y-64605000D03*
X196400000Y-63955000D03*
X196400000Y-63305000D03*
X196400000Y-62655000D03*
X196400000Y-62005000D03*
X196400000Y-61355000D03*
X196400000Y-60705000D03*
X196400000Y-60055000D03*
X196400000Y-59405000D03*
X196400000Y-58755000D03*
X196400000Y-58105000D03*
X196400000Y-57455000D03*
X196400000Y-56805000D03*
X203600000Y-56805000D03*
X203600000Y-57455000D03*
X203600000Y-58105000D03*
X203600000Y-58755000D03*
X203600000Y-59405000D03*
X203600000Y-60055000D03*
X203600000Y-60705000D03*
X203600000Y-61355000D03*
X203600000Y-62005000D03*
X203600000Y-62655000D03*
X203600000Y-63305000D03*
X203600000Y-63955000D03*
X203600000Y-64605000D03*
X203600000Y-65255000D03*
D14*
G36*
X71186696Y-78298135D02*
G01*
X71211600Y-78301830D01*
X71236023Y-78307947D01*
X71259727Y-78316429D01*
X71282487Y-78327193D01*
X71304082Y-78340136D01*
X71324304Y-78355134D01*
X71342958Y-78372042D01*
X71359866Y-78390696D01*
X71374864Y-78410918D01*
X71387807Y-78432513D01*
X71398571Y-78455273D01*
X71407053Y-78478977D01*
X71413170Y-78503400D01*
X71416865Y-78528304D01*
X71418100Y-78553450D01*
X71418100Y-79066550D01*
X71416865Y-79091696D01*
X71413170Y-79116600D01*
X71407053Y-79141023D01*
X71398571Y-79164727D01*
X71387807Y-79187487D01*
X71374864Y-79209082D01*
X71359866Y-79229304D01*
X71342958Y-79247958D01*
X71324304Y-79264866D01*
X71304082Y-79279864D01*
X71282487Y-79292807D01*
X71259727Y-79303571D01*
X71236023Y-79312053D01*
X71211600Y-79318170D01*
X71186696Y-79321865D01*
X71161550Y-79323100D01*
X70548450Y-79323100D01*
X70523304Y-79321865D01*
X70498400Y-79318170D01*
X70473977Y-79312053D01*
X70450273Y-79303571D01*
X70427513Y-79292807D01*
X70405918Y-79279864D01*
X70385696Y-79264866D01*
X70367042Y-79247958D01*
X70350134Y-79229304D01*
X70335136Y-79209082D01*
X70322193Y-79187487D01*
X70311429Y-79164727D01*
X70302947Y-79141023D01*
X70296830Y-79116600D01*
X70293135Y-79091696D01*
X70291900Y-79066550D01*
X70291900Y-78553450D01*
X70293135Y-78528304D01*
X70296830Y-78503400D01*
X70302947Y-78478977D01*
X70311429Y-78455273D01*
X70322193Y-78432513D01*
X70335136Y-78410918D01*
X70350134Y-78390696D01*
X70367042Y-78372042D01*
X70385696Y-78355134D01*
X70405918Y-78340136D01*
X70427513Y-78327193D01*
X70450273Y-78316429D01*
X70473977Y-78307947D01*
X70498400Y-78301830D01*
X70523304Y-78298135D01*
X70548450Y-78296900D01*
X71161550Y-78296900D01*
X71186696Y-78298135D01*
X71186696Y-78298135D01*
G37*
D15*
X70855000Y-78810000D03*
D14*
G36*
X72936696Y-78298135D02*
G01*
X72961600Y-78301830D01*
X72986023Y-78307947D01*
X73009727Y-78316429D01*
X73032487Y-78327193D01*
X73054082Y-78340136D01*
X73074304Y-78355134D01*
X73092958Y-78372042D01*
X73109866Y-78390696D01*
X73124864Y-78410918D01*
X73137807Y-78432513D01*
X73148571Y-78455273D01*
X73157053Y-78478977D01*
X73163170Y-78503400D01*
X73166865Y-78528304D01*
X73168100Y-78553450D01*
X73168100Y-79066550D01*
X73166865Y-79091696D01*
X73163170Y-79116600D01*
X73157053Y-79141023D01*
X73148571Y-79164727D01*
X73137807Y-79187487D01*
X73124864Y-79209082D01*
X73109866Y-79229304D01*
X73092958Y-79247958D01*
X73074304Y-79264866D01*
X73054082Y-79279864D01*
X73032487Y-79292807D01*
X73009727Y-79303571D01*
X72986023Y-79312053D01*
X72961600Y-79318170D01*
X72936696Y-79321865D01*
X72911550Y-79323100D01*
X72298450Y-79323100D01*
X72273304Y-79321865D01*
X72248400Y-79318170D01*
X72223977Y-79312053D01*
X72200273Y-79303571D01*
X72177513Y-79292807D01*
X72155918Y-79279864D01*
X72135696Y-79264866D01*
X72117042Y-79247958D01*
X72100134Y-79229304D01*
X72085136Y-79209082D01*
X72072193Y-79187487D01*
X72061429Y-79164727D01*
X72052947Y-79141023D01*
X72046830Y-79116600D01*
X72043135Y-79091696D01*
X72041900Y-79066550D01*
X72041900Y-78553450D01*
X72043135Y-78528304D01*
X72046830Y-78503400D01*
X72052947Y-78478977D01*
X72061429Y-78455273D01*
X72072193Y-78432513D01*
X72085136Y-78410918D01*
X72100134Y-78390696D01*
X72117042Y-78372042D01*
X72135696Y-78355134D01*
X72155918Y-78340136D01*
X72177513Y-78327193D01*
X72200273Y-78316429D01*
X72223977Y-78307947D01*
X72248400Y-78301830D01*
X72273304Y-78298135D01*
X72298450Y-78296900D01*
X72911550Y-78296900D01*
X72936696Y-78298135D01*
X72936696Y-78298135D01*
G37*
D15*
X72605000Y-78810000D03*
D14*
G36*
X71186696Y-63058135D02*
G01*
X71211600Y-63061830D01*
X71236023Y-63067947D01*
X71259727Y-63076429D01*
X71282487Y-63087193D01*
X71304082Y-63100136D01*
X71324304Y-63115134D01*
X71342958Y-63132042D01*
X71359866Y-63150696D01*
X71374864Y-63170918D01*
X71387807Y-63192513D01*
X71398571Y-63215273D01*
X71407053Y-63238977D01*
X71413170Y-63263400D01*
X71416865Y-63288304D01*
X71418100Y-63313450D01*
X71418100Y-63826550D01*
X71416865Y-63851696D01*
X71413170Y-63876600D01*
X71407053Y-63901023D01*
X71398571Y-63924727D01*
X71387807Y-63947487D01*
X71374864Y-63969082D01*
X71359866Y-63989304D01*
X71342958Y-64007958D01*
X71324304Y-64024866D01*
X71304082Y-64039864D01*
X71282487Y-64052807D01*
X71259727Y-64063571D01*
X71236023Y-64072053D01*
X71211600Y-64078170D01*
X71186696Y-64081865D01*
X71161550Y-64083100D01*
X70548450Y-64083100D01*
X70523304Y-64081865D01*
X70498400Y-64078170D01*
X70473977Y-64072053D01*
X70450273Y-64063571D01*
X70427513Y-64052807D01*
X70405918Y-64039864D01*
X70385696Y-64024866D01*
X70367042Y-64007958D01*
X70350134Y-63989304D01*
X70335136Y-63969082D01*
X70322193Y-63947487D01*
X70311429Y-63924727D01*
X70302947Y-63901023D01*
X70296830Y-63876600D01*
X70293135Y-63851696D01*
X70291900Y-63826550D01*
X70291900Y-63313450D01*
X70293135Y-63288304D01*
X70296830Y-63263400D01*
X70302947Y-63238977D01*
X70311429Y-63215273D01*
X70322193Y-63192513D01*
X70335136Y-63170918D01*
X70350134Y-63150696D01*
X70367042Y-63132042D01*
X70385696Y-63115134D01*
X70405918Y-63100136D01*
X70427513Y-63087193D01*
X70450273Y-63076429D01*
X70473977Y-63067947D01*
X70498400Y-63061830D01*
X70523304Y-63058135D01*
X70548450Y-63056900D01*
X71161550Y-63056900D01*
X71186696Y-63058135D01*
X71186696Y-63058135D01*
G37*
D15*
X70855000Y-63570000D03*
D14*
G36*
X72936696Y-63058135D02*
G01*
X72961600Y-63061830D01*
X72986023Y-63067947D01*
X73009727Y-63076429D01*
X73032487Y-63087193D01*
X73054082Y-63100136D01*
X73074304Y-63115134D01*
X73092958Y-63132042D01*
X73109866Y-63150696D01*
X73124864Y-63170918D01*
X73137807Y-63192513D01*
X73148571Y-63215273D01*
X73157053Y-63238977D01*
X73163170Y-63263400D01*
X73166865Y-63288304D01*
X73168100Y-63313450D01*
X73168100Y-63826550D01*
X73166865Y-63851696D01*
X73163170Y-63876600D01*
X73157053Y-63901023D01*
X73148571Y-63924727D01*
X73137807Y-63947487D01*
X73124864Y-63969082D01*
X73109866Y-63989304D01*
X73092958Y-64007958D01*
X73074304Y-64024866D01*
X73054082Y-64039864D01*
X73032487Y-64052807D01*
X73009727Y-64063571D01*
X72986023Y-64072053D01*
X72961600Y-64078170D01*
X72936696Y-64081865D01*
X72911550Y-64083100D01*
X72298450Y-64083100D01*
X72273304Y-64081865D01*
X72248400Y-64078170D01*
X72223977Y-64072053D01*
X72200273Y-64063571D01*
X72177513Y-64052807D01*
X72155918Y-64039864D01*
X72135696Y-64024866D01*
X72117042Y-64007958D01*
X72100134Y-63989304D01*
X72085136Y-63969082D01*
X72072193Y-63947487D01*
X72061429Y-63924727D01*
X72052947Y-63901023D01*
X72046830Y-63876600D01*
X72043135Y-63851696D01*
X72041900Y-63826550D01*
X72041900Y-63313450D01*
X72043135Y-63288304D01*
X72046830Y-63263400D01*
X72052947Y-63238977D01*
X72061429Y-63215273D01*
X72072193Y-63192513D01*
X72085136Y-63170918D01*
X72100134Y-63150696D01*
X72117042Y-63132042D01*
X72135696Y-63115134D01*
X72155918Y-63100136D01*
X72177513Y-63087193D01*
X72200273Y-63076429D01*
X72223977Y-63067947D01*
X72248400Y-63061830D01*
X72273304Y-63058135D01*
X72298450Y-63056900D01*
X72911550Y-63056900D01*
X72936696Y-63058135D01*
X72936696Y-63058135D01*
G37*
D15*
X72605000Y-63570000D03*
D14*
G36*
X71186696Y-70678135D02*
G01*
X71211600Y-70681830D01*
X71236023Y-70687947D01*
X71259727Y-70696429D01*
X71282487Y-70707193D01*
X71304082Y-70720136D01*
X71324304Y-70735134D01*
X71342958Y-70752042D01*
X71359866Y-70770696D01*
X71374864Y-70790918D01*
X71387807Y-70812513D01*
X71398571Y-70835273D01*
X71407053Y-70858977D01*
X71413170Y-70883400D01*
X71416865Y-70908304D01*
X71418100Y-70933450D01*
X71418100Y-71446550D01*
X71416865Y-71471696D01*
X71413170Y-71496600D01*
X71407053Y-71521023D01*
X71398571Y-71544727D01*
X71387807Y-71567487D01*
X71374864Y-71589082D01*
X71359866Y-71609304D01*
X71342958Y-71627958D01*
X71324304Y-71644866D01*
X71304082Y-71659864D01*
X71282487Y-71672807D01*
X71259727Y-71683571D01*
X71236023Y-71692053D01*
X71211600Y-71698170D01*
X71186696Y-71701865D01*
X71161550Y-71703100D01*
X70548450Y-71703100D01*
X70523304Y-71701865D01*
X70498400Y-71698170D01*
X70473977Y-71692053D01*
X70450273Y-71683571D01*
X70427513Y-71672807D01*
X70405918Y-71659864D01*
X70385696Y-71644866D01*
X70367042Y-71627958D01*
X70350134Y-71609304D01*
X70335136Y-71589082D01*
X70322193Y-71567487D01*
X70311429Y-71544727D01*
X70302947Y-71521023D01*
X70296830Y-71496600D01*
X70293135Y-71471696D01*
X70291900Y-71446550D01*
X70291900Y-70933450D01*
X70293135Y-70908304D01*
X70296830Y-70883400D01*
X70302947Y-70858977D01*
X70311429Y-70835273D01*
X70322193Y-70812513D01*
X70335136Y-70790918D01*
X70350134Y-70770696D01*
X70367042Y-70752042D01*
X70385696Y-70735134D01*
X70405918Y-70720136D01*
X70427513Y-70707193D01*
X70450273Y-70696429D01*
X70473977Y-70687947D01*
X70498400Y-70681830D01*
X70523304Y-70678135D01*
X70548450Y-70676900D01*
X71161550Y-70676900D01*
X71186696Y-70678135D01*
X71186696Y-70678135D01*
G37*
D15*
X70855000Y-71190000D03*
D14*
G36*
X72936696Y-70678135D02*
G01*
X72961600Y-70681830D01*
X72986023Y-70687947D01*
X73009727Y-70696429D01*
X73032487Y-70707193D01*
X73054082Y-70720136D01*
X73074304Y-70735134D01*
X73092958Y-70752042D01*
X73109866Y-70770696D01*
X73124864Y-70790918D01*
X73137807Y-70812513D01*
X73148571Y-70835273D01*
X73157053Y-70858977D01*
X73163170Y-70883400D01*
X73166865Y-70908304D01*
X73168100Y-70933450D01*
X73168100Y-71446550D01*
X73166865Y-71471696D01*
X73163170Y-71496600D01*
X73157053Y-71521023D01*
X73148571Y-71544727D01*
X73137807Y-71567487D01*
X73124864Y-71589082D01*
X73109866Y-71609304D01*
X73092958Y-71627958D01*
X73074304Y-71644866D01*
X73054082Y-71659864D01*
X73032487Y-71672807D01*
X73009727Y-71683571D01*
X72986023Y-71692053D01*
X72961600Y-71698170D01*
X72936696Y-71701865D01*
X72911550Y-71703100D01*
X72298450Y-71703100D01*
X72273304Y-71701865D01*
X72248400Y-71698170D01*
X72223977Y-71692053D01*
X72200273Y-71683571D01*
X72177513Y-71672807D01*
X72155918Y-71659864D01*
X72135696Y-71644866D01*
X72117042Y-71627958D01*
X72100134Y-71609304D01*
X72085136Y-71589082D01*
X72072193Y-71567487D01*
X72061429Y-71544727D01*
X72052947Y-71521023D01*
X72046830Y-71496600D01*
X72043135Y-71471696D01*
X72041900Y-71446550D01*
X72041900Y-70933450D01*
X72043135Y-70908304D01*
X72046830Y-70883400D01*
X72052947Y-70858977D01*
X72061429Y-70835273D01*
X72072193Y-70812513D01*
X72085136Y-70790918D01*
X72100134Y-70770696D01*
X72117042Y-70752042D01*
X72135696Y-70735134D01*
X72155918Y-70720136D01*
X72177513Y-70707193D01*
X72200273Y-70696429D01*
X72223977Y-70687947D01*
X72248400Y-70681830D01*
X72273304Y-70678135D01*
X72298450Y-70676900D01*
X72911550Y-70676900D01*
X72936696Y-70678135D01*
X72936696Y-70678135D01*
G37*
D15*
X72605000Y-71190000D03*
D14*
G36*
X184406696Y-96423135D02*
G01*
X184431600Y-96426830D01*
X184456023Y-96432947D01*
X184479727Y-96441429D01*
X184502487Y-96452193D01*
X184524082Y-96465136D01*
X184544304Y-96480134D01*
X184562958Y-96497042D01*
X184579866Y-96515696D01*
X184594864Y-96535918D01*
X184607807Y-96557513D01*
X184618571Y-96580273D01*
X184627053Y-96603977D01*
X184633170Y-96628400D01*
X184636865Y-96653304D01*
X184638100Y-96678450D01*
X184638100Y-97291550D01*
X184636865Y-97316696D01*
X184633170Y-97341600D01*
X184627053Y-97366023D01*
X184618571Y-97389727D01*
X184607807Y-97412487D01*
X184594864Y-97434082D01*
X184579866Y-97454304D01*
X184562958Y-97472958D01*
X184544304Y-97489866D01*
X184524082Y-97504864D01*
X184502487Y-97517807D01*
X184479727Y-97528571D01*
X184456023Y-97537053D01*
X184431600Y-97543170D01*
X184406696Y-97546865D01*
X184381550Y-97548100D01*
X183868450Y-97548100D01*
X183843304Y-97546865D01*
X183818400Y-97543170D01*
X183793977Y-97537053D01*
X183770273Y-97528571D01*
X183747513Y-97517807D01*
X183725918Y-97504864D01*
X183705696Y-97489866D01*
X183687042Y-97472958D01*
X183670134Y-97454304D01*
X183655136Y-97434082D01*
X183642193Y-97412487D01*
X183631429Y-97389727D01*
X183622947Y-97366023D01*
X183616830Y-97341600D01*
X183613135Y-97316696D01*
X183611900Y-97291550D01*
X183611900Y-96678450D01*
X183613135Y-96653304D01*
X183616830Y-96628400D01*
X183622947Y-96603977D01*
X183631429Y-96580273D01*
X183642193Y-96557513D01*
X183655136Y-96535918D01*
X183670134Y-96515696D01*
X183687042Y-96497042D01*
X183705696Y-96480134D01*
X183725918Y-96465136D01*
X183747513Y-96452193D01*
X183770273Y-96441429D01*
X183793977Y-96432947D01*
X183818400Y-96426830D01*
X183843304Y-96423135D01*
X183868450Y-96421900D01*
X184381550Y-96421900D01*
X184406696Y-96423135D01*
X184406696Y-96423135D01*
G37*
D15*
X184125000Y-96985000D03*
D14*
G36*
X184406696Y-98173135D02*
G01*
X184431600Y-98176830D01*
X184456023Y-98182947D01*
X184479727Y-98191429D01*
X184502487Y-98202193D01*
X184524082Y-98215136D01*
X184544304Y-98230134D01*
X184562958Y-98247042D01*
X184579866Y-98265696D01*
X184594864Y-98285918D01*
X184607807Y-98307513D01*
X184618571Y-98330273D01*
X184627053Y-98353977D01*
X184633170Y-98378400D01*
X184636865Y-98403304D01*
X184638100Y-98428450D01*
X184638100Y-99041550D01*
X184636865Y-99066696D01*
X184633170Y-99091600D01*
X184627053Y-99116023D01*
X184618571Y-99139727D01*
X184607807Y-99162487D01*
X184594864Y-99184082D01*
X184579866Y-99204304D01*
X184562958Y-99222958D01*
X184544304Y-99239866D01*
X184524082Y-99254864D01*
X184502487Y-99267807D01*
X184479727Y-99278571D01*
X184456023Y-99287053D01*
X184431600Y-99293170D01*
X184406696Y-99296865D01*
X184381550Y-99298100D01*
X183868450Y-99298100D01*
X183843304Y-99296865D01*
X183818400Y-99293170D01*
X183793977Y-99287053D01*
X183770273Y-99278571D01*
X183747513Y-99267807D01*
X183725918Y-99254864D01*
X183705696Y-99239866D01*
X183687042Y-99222958D01*
X183670134Y-99204304D01*
X183655136Y-99184082D01*
X183642193Y-99162487D01*
X183631429Y-99139727D01*
X183622947Y-99116023D01*
X183616830Y-99091600D01*
X183613135Y-99066696D01*
X183611900Y-99041550D01*
X183611900Y-98428450D01*
X183613135Y-98403304D01*
X183616830Y-98378400D01*
X183622947Y-98353977D01*
X183631429Y-98330273D01*
X183642193Y-98307513D01*
X183655136Y-98285918D01*
X183670134Y-98265696D01*
X183687042Y-98247042D01*
X183705696Y-98230134D01*
X183725918Y-98215136D01*
X183747513Y-98202193D01*
X183770273Y-98191429D01*
X183793977Y-98182947D01*
X183818400Y-98176830D01*
X183843304Y-98173135D01*
X183868450Y-98171900D01*
X184381550Y-98171900D01*
X184406696Y-98173135D01*
X184406696Y-98173135D01*
G37*
D15*
X184125000Y-98735000D03*
D14*
G36*
X186311696Y-96423135D02*
G01*
X186336600Y-96426830D01*
X186361023Y-96432947D01*
X186384727Y-96441429D01*
X186407487Y-96452193D01*
X186429082Y-96465136D01*
X186449304Y-96480134D01*
X186467958Y-96497042D01*
X186484866Y-96515696D01*
X186499864Y-96535918D01*
X186512807Y-96557513D01*
X186523571Y-96580273D01*
X186532053Y-96603977D01*
X186538170Y-96628400D01*
X186541865Y-96653304D01*
X186543100Y-96678450D01*
X186543100Y-97291550D01*
X186541865Y-97316696D01*
X186538170Y-97341600D01*
X186532053Y-97366023D01*
X186523571Y-97389727D01*
X186512807Y-97412487D01*
X186499864Y-97434082D01*
X186484866Y-97454304D01*
X186467958Y-97472958D01*
X186449304Y-97489866D01*
X186429082Y-97504864D01*
X186407487Y-97517807D01*
X186384727Y-97528571D01*
X186361023Y-97537053D01*
X186336600Y-97543170D01*
X186311696Y-97546865D01*
X186286550Y-97548100D01*
X185773450Y-97548100D01*
X185748304Y-97546865D01*
X185723400Y-97543170D01*
X185698977Y-97537053D01*
X185675273Y-97528571D01*
X185652513Y-97517807D01*
X185630918Y-97504864D01*
X185610696Y-97489866D01*
X185592042Y-97472958D01*
X185575134Y-97454304D01*
X185560136Y-97434082D01*
X185547193Y-97412487D01*
X185536429Y-97389727D01*
X185527947Y-97366023D01*
X185521830Y-97341600D01*
X185518135Y-97316696D01*
X185516900Y-97291550D01*
X185516900Y-96678450D01*
X185518135Y-96653304D01*
X185521830Y-96628400D01*
X185527947Y-96603977D01*
X185536429Y-96580273D01*
X185547193Y-96557513D01*
X185560136Y-96535918D01*
X185575134Y-96515696D01*
X185592042Y-96497042D01*
X185610696Y-96480134D01*
X185630918Y-96465136D01*
X185652513Y-96452193D01*
X185675273Y-96441429D01*
X185698977Y-96432947D01*
X185723400Y-96426830D01*
X185748304Y-96423135D01*
X185773450Y-96421900D01*
X186286550Y-96421900D01*
X186311696Y-96423135D01*
X186311696Y-96423135D01*
G37*
D15*
X186030000Y-96985000D03*
D14*
G36*
X186311696Y-98173135D02*
G01*
X186336600Y-98176830D01*
X186361023Y-98182947D01*
X186384727Y-98191429D01*
X186407487Y-98202193D01*
X186429082Y-98215136D01*
X186449304Y-98230134D01*
X186467958Y-98247042D01*
X186484866Y-98265696D01*
X186499864Y-98285918D01*
X186512807Y-98307513D01*
X186523571Y-98330273D01*
X186532053Y-98353977D01*
X186538170Y-98378400D01*
X186541865Y-98403304D01*
X186543100Y-98428450D01*
X186543100Y-99041550D01*
X186541865Y-99066696D01*
X186538170Y-99091600D01*
X186532053Y-99116023D01*
X186523571Y-99139727D01*
X186512807Y-99162487D01*
X186499864Y-99184082D01*
X186484866Y-99204304D01*
X186467958Y-99222958D01*
X186449304Y-99239866D01*
X186429082Y-99254864D01*
X186407487Y-99267807D01*
X186384727Y-99278571D01*
X186361023Y-99287053D01*
X186336600Y-99293170D01*
X186311696Y-99296865D01*
X186286550Y-99298100D01*
X185773450Y-99298100D01*
X185748304Y-99296865D01*
X185723400Y-99293170D01*
X185698977Y-99287053D01*
X185675273Y-99278571D01*
X185652513Y-99267807D01*
X185630918Y-99254864D01*
X185610696Y-99239866D01*
X185592042Y-99222958D01*
X185575134Y-99204304D01*
X185560136Y-99184082D01*
X185547193Y-99162487D01*
X185536429Y-99139727D01*
X185527947Y-99116023D01*
X185521830Y-99091600D01*
X185518135Y-99066696D01*
X185516900Y-99041550D01*
X185516900Y-98428450D01*
X185518135Y-98403304D01*
X185521830Y-98378400D01*
X185527947Y-98353977D01*
X185536429Y-98330273D01*
X185547193Y-98307513D01*
X185560136Y-98285918D01*
X185575134Y-98265696D01*
X185592042Y-98247042D01*
X185610696Y-98230134D01*
X185630918Y-98215136D01*
X185652513Y-98202193D01*
X185675273Y-98191429D01*
X185698977Y-98182947D01*
X185723400Y-98176830D01*
X185748304Y-98173135D01*
X185773450Y-98171900D01*
X186286550Y-98171900D01*
X186311696Y-98173135D01*
X186311696Y-98173135D01*
G37*
D15*
X186030000Y-98735000D03*
D14*
G36*
X188216696Y-96423135D02*
G01*
X188241600Y-96426830D01*
X188266023Y-96432947D01*
X188289727Y-96441429D01*
X188312487Y-96452193D01*
X188334082Y-96465136D01*
X188354304Y-96480134D01*
X188372958Y-96497042D01*
X188389866Y-96515696D01*
X188404864Y-96535918D01*
X188417807Y-96557513D01*
X188428571Y-96580273D01*
X188437053Y-96603977D01*
X188443170Y-96628400D01*
X188446865Y-96653304D01*
X188448100Y-96678450D01*
X188448100Y-97291550D01*
X188446865Y-97316696D01*
X188443170Y-97341600D01*
X188437053Y-97366023D01*
X188428571Y-97389727D01*
X188417807Y-97412487D01*
X188404864Y-97434082D01*
X188389866Y-97454304D01*
X188372958Y-97472958D01*
X188354304Y-97489866D01*
X188334082Y-97504864D01*
X188312487Y-97517807D01*
X188289727Y-97528571D01*
X188266023Y-97537053D01*
X188241600Y-97543170D01*
X188216696Y-97546865D01*
X188191550Y-97548100D01*
X187678450Y-97548100D01*
X187653304Y-97546865D01*
X187628400Y-97543170D01*
X187603977Y-97537053D01*
X187580273Y-97528571D01*
X187557513Y-97517807D01*
X187535918Y-97504864D01*
X187515696Y-97489866D01*
X187497042Y-97472958D01*
X187480134Y-97454304D01*
X187465136Y-97434082D01*
X187452193Y-97412487D01*
X187441429Y-97389727D01*
X187432947Y-97366023D01*
X187426830Y-97341600D01*
X187423135Y-97316696D01*
X187421900Y-97291550D01*
X187421900Y-96678450D01*
X187423135Y-96653304D01*
X187426830Y-96628400D01*
X187432947Y-96603977D01*
X187441429Y-96580273D01*
X187452193Y-96557513D01*
X187465136Y-96535918D01*
X187480134Y-96515696D01*
X187497042Y-96497042D01*
X187515696Y-96480134D01*
X187535918Y-96465136D01*
X187557513Y-96452193D01*
X187580273Y-96441429D01*
X187603977Y-96432947D01*
X187628400Y-96426830D01*
X187653304Y-96423135D01*
X187678450Y-96421900D01*
X188191550Y-96421900D01*
X188216696Y-96423135D01*
X188216696Y-96423135D01*
G37*
D15*
X187935000Y-96985000D03*
D14*
G36*
X188216696Y-98173135D02*
G01*
X188241600Y-98176830D01*
X188266023Y-98182947D01*
X188289727Y-98191429D01*
X188312487Y-98202193D01*
X188334082Y-98215136D01*
X188354304Y-98230134D01*
X188372958Y-98247042D01*
X188389866Y-98265696D01*
X188404864Y-98285918D01*
X188417807Y-98307513D01*
X188428571Y-98330273D01*
X188437053Y-98353977D01*
X188443170Y-98378400D01*
X188446865Y-98403304D01*
X188448100Y-98428450D01*
X188448100Y-99041550D01*
X188446865Y-99066696D01*
X188443170Y-99091600D01*
X188437053Y-99116023D01*
X188428571Y-99139727D01*
X188417807Y-99162487D01*
X188404864Y-99184082D01*
X188389866Y-99204304D01*
X188372958Y-99222958D01*
X188354304Y-99239866D01*
X188334082Y-99254864D01*
X188312487Y-99267807D01*
X188289727Y-99278571D01*
X188266023Y-99287053D01*
X188241600Y-99293170D01*
X188216696Y-99296865D01*
X188191550Y-99298100D01*
X187678450Y-99298100D01*
X187653304Y-99296865D01*
X187628400Y-99293170D01*
X187603977Y-99287053D01*
X187580273Y-99278571D01*
X187557513Y-99267807D01*
X187535918Y-99254864D01*
X187515696Y-99239866D01*
X187497042Y-99222958D01*
X187480134Y-99204304D01*
X187465136Y-99184082D01*
X187452193Y-99162487D01*
X187441429Y-99139727D01*
X187432947Y-99116023D01*
X187426830Y-99091600D01*
X187423135Y-99066696D01*
X187421900Y-99041550D01*
X187421900Y-98428450D01*
X187423135Y-98403304D01*
X187426830Y-98378400D01*
X187432947Y-98353977D01*
X187441429Y-98330273D01*
X187452193Y-98307513D01*
X187465136Y-98285918D01*
X187480134Y-98265696D01*
X187497042Y-98247042D01*
X187515696Y-98230134D01*
X187535918Y-98215136D01*
X187557513Y-98202193D01*
X187580273Y-98191429D01*
X187603977Y-98182947D01*
X187628400Y-98176830D01*
X187653304Y-98173135D01*
X187678450Y-98171900D01*
X188191550Y-98171900D01*
X188216696Y-98173135D01*
X188216696Y-98173135D01*
G37*
D15*
X187935000Y-98735000D03*
D14*
G36*
X130876696Y-49088135D02*
G01*
X130901600Y-49091830D01*
X130926023Y-49097947D01*
X130949727Y-49106429D01*
X130972487Y-49117193D01*
X130994082Y-49130136D01*
X131014304Y-49145134D01*
X131032958Y-49162042D01*
X131049866Y-49180696D01*
X131064864Y-49200918D01*
X131077807Y-49222513D01*
X131088571Y-49245273D01*
X131097053Y-49268977D01*
X131103170Y-49293400D01*
X131106865Y-49318304D01*
X131108100Y-49343450D01*
X131108100Y-49856550D01*
X131106865Y-49881696D01*
X131103170Y-49906600D01*
X131097053Y-49931023D01*
X131088571Y-49954727D01*
X131077807Y-49977487D01*
X131064864Y-49999082D01*
X131049866Y-50019304D01*
X131032958Y-50037958D01*
X131014304Y-50054866D01*
X130994082Y-50069864D01*
X130972487Y-50082807D01*
X130949727Y-50093571D01*
X130926023Y-50102053D01*
X130901600Y-50108170D01*
X130876696Y-50111865D01*
X130851550Y-50113100D01*
X130238450Y-50113100D01*
X130213304Y-50111865D01*
X130188400Y-50108170D01*
X130163977Y-50102053D01*
X130140273Y-50093571D01*
X130117513Y-50082807D01*
X130095918Y-50069864D01*
X130075696Y-50054866D01*
X130057042Y-50037958D01*
X130040134Y-50019304D01*
X130025136Y-49999082D01*
X130012193Y-49977487D01*
X130001429Y-49954727D01*
X129992947Y-49931023D01*
X129986830Y-49906600D01*
X129983135Y-49881696D01*
X129981900Y-49856550D01*
X129981900Y-49343450D01*
X129983135Y-49318304D01*
X129986830Y-49293400D01*
X129992947Y-49268977D01*
X130001429Y-49245273D01*
X130012193Y-49222513D01*
X130025136Y-49200918D01*
X130040134Y-49180696D01*
X130057042Y-49162042D01*
X130075696Y-49145134D01*
X130095918Y-49130136D01*
X130117513Y-49117193D01*
X130140273Y-49106429D01*
X130163977Y-49097947D01*
X130188400Y-49091830D01*
X130213304Y-49088135D01*
X130238450Y-49086900D01*
X130851550Y-49086900D01*
X130876696Y-49088135D01*
X130876696Y-49088135D01*
G37*
D15*
X130545000Y-49600000D03*
D14*
G36*
X132626696Y-49088135D02*
G01*
X132651600Y-49091830D01*
X132676023Y-49097947D01*
X132699727Y-49106429D01*
X132722487Y-49117193D01*
X132744082Y-49130136D01*
X132764304Y-49145134D01*
X132782958Y-49162042D01*
X132799866Y-49180696D01*
X132814864Y-49200918D01*
X132827807Y-49222513D01*
X132838571Y-49245273D01*
X132847053Y-49268977D01*
X132853170Y-49293400D01*
X132856865Y-49318304D01*
X132858100Y-49343450D01*
X132858100Y-49856550D01*
X132856865Y-49881696D01*
X132853170Y-49906600D01*
X132847053Y-49931023D01*
X132838571Y-49954727D01*
X132827807Y-49977487D01*
X132814864Y-49999082D01*
X132799866Y-50019304D01*
X132782958Y-50037958D01*
X132764304Y-50054866D01*
X132744082Y-50069864D01*
X132722487Y-50082807D01*
X132699727Y-50093571D01*
X132676023Y-50102053D01*
X132651600Y-50108170D01*
X132626696Y-50111865D01*
X132601550Y-50113100D01*
X131988450Y-50113100D01*
X131963304Y-50111865D01*
X131938400Y-50108170D01*
X131913977Y-50102053D01*
X131890273Y-50093571D01*
X131867513Y-50082807D01*
X131845918Y-50069864D01*
X131825696Y-50054866D01*
X131807042Y-50037958D01*
X131790134Y-50019304D01*
X131775136Y-49999082D01*
X131762193Y-49977487D01*
X131751429Y-49954727D01*
X131742947Y-49931023D01*
X131736830Y-49906600D01*
X131733135Y-49881696D01*
X131731900Y-49856550D01*
X131731900Y-49343450D01*
X131733135Y-49318304D01*
X131736830Y-49293400D01*
X131742947Y-49268977D01*
X131751429Y-49245273D01*
X131762193Y-49222513D01*
X131775136Y-49200918D01*
X131790134Y-49180696D01*
X131807042Y-49162042D01*
X131825696Y-49145134D01*
X131845918Y-49130136D01*
X131867513Y-49117193D01*
X131890273Y-49106429D01*
X131913977Y-49097947D01*
X131938400Y-49091830D01*
X131963304Y-49088135D01*
X131988450Y-49086900D01*
X132601550Y-49086900D01*
X132626696Y-49088135D01*
X132626696Y-49088135D01*
G37*
D15*
X132295000Y-49600000D03*
D14*
G36*
X130876696Y-47183135D02*
G01*
X130901600Y-47186830D01*
X130926023Y-47192947D01*
X130949727Y-47201429D01*
X130972487Y-47212193D01*
X130994082Y-47225136D01*
X131014304Y-47240134D01*
X131032958Y-47257042D01*
X131049866Y-47275696D01*
X131064864Y-47295918D01*
X131077807Y-47317513D01*
X131088571Y-47340273D01*
X131097053Y-47363977D01*
X131103170Y-47388400D01*
X131106865Y-47413304D01*
X131108100Y-47438450D01*
X131108100Y-47951550D01*
X131106865Y-47976696D01*
X131103170Y-48001600D01*
X131097053Y-48026023D01*
X131088571Y-48049727D01*
X131077807Y-48072487D01*
X131064864Y-48094082D01*
X131049866Y-48114304D01*
X131032958Y-48132958D01*
X131014304Y-48149866D01*
X130994082Y-48164864D01*
X130972487Y-48177807D01*
X130949727Y-48188571D01*
X130926023Y-48197053D01*
X130901600Y-48203170D01*
X130876696Y-48206865D01*
X130851550Y-48208100D01*
X130238450Y-48208100D01*
X130213304Y-48206865D01*
X130188400Y-48203170D01*
X130163977Y-48197053D01*
X130140273Y-48188571D01*
X130117513Y-48177807D01*
X130095918Y-48164864D01*
X130075696Y-48149866D01*
X130057042Y-48132958D01*
X130040134Y-48114304D01*
X130025136Y-48094082D01*
X130012193Y-48072487D01*
X130001429Y-48049727D01*
X129992947Y-48026023D01*
X129986830Y-48001600D01*
X129983135Y-47976696D01*
X129981900Y-47951550D01*
X129981900Y-47438450D01*
X129983135Y-47413304D01*
X129986830Y-47388400D01*
X129992947Y-47363977D01*
X130001429Y-47340273D01*
X130012193Y-47317513D01*
X130025136Y-47295918D01*
X130040134Y-47275696D01*
X130057042Y-47257042D01*
X130075696Y-47240134D01*
X130095918Y-47225136D01*
X130117513Y-47212193D01*
X130140273Y-47201429D01*
X130163977Y-47192947D01*
X130188400Y-47186830D01*
X130213304Y-47183135D01*
X130238450Y-47181900D01*
X130851550Y-47181900D01*
X130876696Y-47183135D01*
X130876696Y-47183135D01*
G37*
D15*
X130545000Y-47695000D03*
D14*
G36*
X132626696Y-47183135D02*
G01*
X132651600Y-47186830D01*
X132676023Y-47192947D01*
X132699727Y-47201429D01*
X132722487Y-47212193D01*
X132744082Y-47225136D01*
X132764304Y-47240134D01*
X132782958Y-47257042D01*
X132799866Y-47275696D01*
X132814864Y-47295918D01*
X132827807Y-47317513D01*
X132838571Y-47340273D01*
X132847053Y-47363977D01*
X132853170Y-47388400D01*
X132856865Y-47413304D01*
X132858100Y-47438450D01*
X132858100Y-47951550D01*
X132856865Y-47976696D01*
X132853170Y-48001600D01*
X132847053Y-48026023D01*
X132838571Y-48049727D01*
X132827807Y-48072487D01*
X132814864Y-48094082D01*
X132799866Y-48114304D01*
X132782958Y-48132958D01*
X132764304Y-48149866D01*
X132744082Y-48164864D01*
X132722487Y-48177807D01*
X132699727Y-48188571D01*
X132676023Y-48197053D01*
X132651600Y-48203170D01*
X132626696Y-48206865D01*
X132601550Y-48208100D01*
X131988450Y-48208100D01*
X131963304Y-48206865D01*
X131938400Y-48203170D01*
X131913977Y-48197053D01*
X131890273Y-48188571D01*
X131867513Y-48177807D01*
X131845918Y-48164864D01*
X131825696Y-48149866D01*
X131807042Y-48132958D01*
X131790134Y-48114304D01*
X131775136Y-48094082D01*
X131762193Y-48072487D01*
X131751429Y-48049727D01*
X131742947Y-48026023D01*
X131736830Y-48001600D01*
X131733135Y-47976696D01*
X131731900Y-47951550D01*
X131731900Y-47438450D01*
X131733135Y-47413304D01*
X131736830Y-47388400D01*
X131742947Y-47363977D01*
X131751429Y-47340273D01*
X131762193Y-47317513D01*
X131775136Y-47295918D01*
X131790134Y-47275696D01*
X131807042Y-47257042D01*
X131825696Y-47240134D01*
X131845918Y-47225136D01*
X131867513Y-47212193D01*
X131890273Y-47201429D01*
X131913977Y-47192947D01*
X131938400Y-47186830D01*
X131963304Y-47183135D01*
X131988450Y-47181900D01*
X132601550Y-47181900D01*
X132626696Y-47183135D01*
X132626696Y-47183135D01*
G37*
D15*
X132295000Y-47695000D03*
D14*
G36*
X130876696Y-45278135D02*
G01*
X130901600Y-45281830D01*
X130926023Y-45287947D01*
X130949727Y-45296429D01*
X130972487Y-45307193D01*
X130994082Y-45320136D01*
X131014304Y-45335134D01*
X131032958Y-45352042D01*
X131049866Y-45370696D01*
X131064864Y-45390918D01*
X131077807Y-45412513D01*
X131088571Y-45435273D01*
X131097053Y-45458977D01*
X131103170Y-45483400D01*
X131106865Y-45508304D01*
X131108100Y-45533450D01*
X131108100Y-46046550D01*
X131106865Y-46071696D01*
X131103170Y-46096600D01*
X131097053Y-46121023D01*
X131088571Y-46144727D01*
X131077807Y-46167487D01*
X131064864Y-46189082D01*
X131049866Y-46209304D01*
X131032958Y-46227958D01*
X131014304Y-46244866D01*
X130994082Y-46259864D01*
X130972487Y-46272807D01*
X130949727Y-46283571D01*
X130926023Y-46292053D01*
X130901600Y-46298170D01*
X130876696Y-46301865D01*
X130851550Y-46303100D01*
X130238450Y-46303100D01*
X130213304Y-46301865D01*
X130188400Y-46298170D01*
X130163977Y-46292053D01*
X130140273Y-46283571D01*
X130117513Y-46272807D01*
X130095918Y-46259864D01*
X130075696Y-46244866D01*
X130057042Y-46227958D01*
X130040134Y-46209304D01*
X130025136Y-46189082D01*
X130012193Y-46167487D01*
X130001429Y-46144727D01*
X129992947Y-46121023D01*
X129986830Y-46096600D01*
X129983135Y-46071696D01*
X129981900Y-46046550D01*
X129981900Y-45533450D01*
X129983135Y-45508304D01*
X129986830Y-45483400D01*
X129992947Y-45458977D01*
X130001429Y-45435273D01*
X130012193Y-45412513D01*
X130025136Y-45390918D01*
X130040134Y-45370696D01*
X130057042Y-45352042D01*
X130075696Y-45335134D01*
X130095918Y-45320136D01*
X130117513Y-45307193D01*
X130140273Y-45296429D01*
X130163977Y-45287947D01*
X130188400Y-45281830D01*
X130213304Y-45278135D01*
X130238450Y-45276900D01*
X130851550Y-45276900D01*
X130876696Y-45278135D01*
X130876696Y-45278135D01*
G37*
D15*
X130545000Y-45790000D03*
D14*
G36*
X132626696Y-45278135D02*
G01*
X132651600Y-45281830D01*
X132676023Y-45287947D01*
X132699727Y-45296429D01*
X132722487Y-45307193D01*
X132744082Y-45320136D01*
X132764304Y-45335134D01*
X132782958Y-45352042D01*
X132799866Y-45370696D01*
X132814864Y-45390918D01*
X132827807Y-45412513D01*
X132838571Y-45435273D01*
X132847053Y-45458977D01*
X132853170Y-45483400D01*
X132856865Y-45508304D01*
X132858100Y-45533450D01*
X132858100Y-46046550D01*
X132856865Y-46071696D01*
X132853170Y-46096600D01*
X132847053Y-46121023D01*
X132838571Y-46144727D01*
X132827807Y-46167487D01*
X132814864Y-46189082D01*
X132799866Y-46209304D01*
X132782958Y-46227958D01*
X132764304Y-46244866D01*
X132744082Y-46259864D01*
X132722487Y-46272807D01*
X132699727Y-46283571D01*
X132676023Y-46292053D01*
X132651600Y-46298170D01*
X132626696Y-46301865D01*
X132601550Y-46303100D01*
X131988450Y-46303100D01*
X131963304Y-46301865D01*
X131938400Y-46298170D01*
X131913977Y-46292053D01*
X131890273Y-46283571D01*
X131867513Y-46272807D01*
X131845918Y-46259864D01*
X131825696Y-46244866D01*
X131807042Y-46227958D01*
X131790134Y-46209304D01*
X131775136Y-46189082D01*
X131762193Y-46167487D01*
X131751429Y-46144727D01*
X131742947Y-46121023D01*
X131736830Y-46096600D01*
X131733135Y-46071696D01*
X131731900Y-46046550D01*
X131731900Y-45533450D01*
X131733135Y-45508304D01*
X131736830Y-45483400D01*
X131742947Y-45458977D01*
X131751429Y-45435273D01*
X131762193Y-45412513D01*
X131775136Y-45390918D01*
X131790134Y-45370696D01*
X131807042Y-45352042D01*
X131825696Y-45335134D01*
X131845918Y-45320136D01*
X131867513Y-45307193D01*
X131890273Y-45296429D01*
X131913977Y-45287947D01*
X131938400Y-45281830D01*
X131963304Y-45278135D01*
X131988450Y-45276900D01*
X132601550Y-45276900D01*
X132626696Y-45278135D01*
X132626696Y-45278135D01*
G37*
D15*
X132295000Y-45790000D03*
D14*
G36*
X216156696Y-82453135D02*
G01*
X216181600Y-82456830D01*
X216206023Y-82462947D01*
X216229727Y-82471429D01*
X216252487Y-82482193D01*
X216274082Y-82495136D01*
X216294304Y-82510134D01*
X216312958Y-82527042D01*
X216329866Y-82545696D01*
X216344864Y-82565918D01*
X216357807Y-82587513D01*
X216368571Y-82610273D01*
X216377053Y-82633977D01*
X216383170Y-82658400D01*
X216386865Y-82683304D01*
X216388100Y-82708450D01*
X216388100Y-83321550D01*
X216386865Y-83346696D01*
X216383170Y-83371600D01*
X216377053Y-83396023D01*
X216368571Y-83419727D01*
X216357807Y-83442487D01*
X216344864Y-83464082D01*
X216329866Y-83484304D01*
X216312958Y-83502958D01*
X216294304Y-83519866D01*
X216274082Y-83534864D01*
X216252487Y-83547807D01*
X216229727Y-83558571D01*
X216206023Y-83567053D01*
X216181600Y-83573170D01*
X216156696Y-83576865D01*
X216131550Y-83578100D01*
X215618450Y-83578100D01*
X215593304Y-83576865D01*
X215568400Y-83573170D01*
X215543977Y-83567053D01*
X215520273Y-83558571D01*
X215497513Y-83547807D01*
X215475918Y-83534864D01*
X215455696Y-83519866D01*
X215437042Y-83502958D01*
X215420134Y-83484304D01*
X215405136Y-83464082D01*
X215392193Y-83442487D01*
X215381429Y-83419727D01*
X215372947Y-83396023D01*
X215366830Y-83371600D01*
X215363135Y-83346696D01*
X215361900Y-83321550D01*
X215361900Y-82708450D01*
X215363135Y-82683304D01*
X215366830Y-82658400D01*
X215372947Y-82633977D01*
X215381429Y-82610273D01*
X215392193Y-82587513D01*
X215405136Y-82565918D01*
X215420134Y-82545696D01*
X215437042Y-82527042D01*
X215455696Y-82510134D01*
X215475918Y-82495136D01*
X215497513Y-82482193D01*
X215520273Y-82471429D01*
X215543977Y-82462947D01*
X215568400Y-82456830D01*
X215593304Y-82453135D01*
X215618450Y-82451900D01*
X216131550Y-82451900D01*
X216156696Y-82453135D01*
X216156696Y-82453135D01*
G37*
D15*
X215875000Y-83015000D03*
D14*
G36*
X216156696Y-84203135D02*
G01*
X216181600Y-84206830D01*
X216206023Y-84212947D01*
X216229727Y-84221429D01*
X216252487Y-84232193D01*
X216274082Y-84245136D01*
X216294304Y-84260134D01*
X216312958Y-84277042D01*
X216329866Y-84295696D01*
X216344864Y-84315918D01*
X216357807Y-84337513D01*
X216368571Y-84360273D01*
X216377053Y-84383977D01*
X216383170Y-84408400D01*
X216386865Y-84433304D01*
X216388100Y-84458450D01*
X216388100Y-85071550D01*
X216386865Y-85096696D01*
X216383170Y-85121600D01*
X216377053Y-85146023D01*
X216368571Y-85169727D01*
X216357807Y-85192487D01*
X216344864Y-85214082D01*
X216329866Y-85234304D01*
X216312958Y-85252958D01*
X216294304Y-85269866D01*
X216274082Y-85284864D01*
X216252487Y-85297807D01*
X216229727Y-85308571D01*
X216206023Y-85317053D01*
X216181600Y-85323170D01*
X216156696Y-85326865D01*
X216131550Y-85328100D01*
X215618450Y-85328100D01*
X215593304Y-85326865D01*
X215568400Y-85323170D01*
X215543977Y-85317053D01*
X215520273Y-85308571D01*
X215497513Y-85297807D01*
X215475918Y-85284864D01*
X215455696Y-85269866D01*
X215437042Y-85252958D01*
X215420134Y-85234304D01*
X215405136Y-85214082D01*
X215392193Y-85192487D01*
X215381429Y-85169727D01*
X215372947Y-85146023D01*
X215366830Y-85121600D01*
X215363135Y-85096696D01*
X215361900Y-85071550D01*
X215361900Y-84458450D01*
X215363135Y-84433304D01*
X215366830Y-84408400D01*
X215372947Y-84383977D01*
X215381429Y-84360273D01*
X215392193Y-84337513D01*
X215405136Y-84315918D01*
X215420134Y-84295696D01*
X215437042Y-84277042D01*
X215455696Y-84260134D01*
X215475918Y-84245136D01*
X215497513Y-84232193D01*
X215520273Y-84221429D01*
X215543977Y-84212947D01*
X215568400Y-84206830D01*
X215593304Y-84203135D01*
X215618450Y-84201900D01*
X216131550Y-84201900D01*
X216156696Y-84203135D01*
X216156696Y-84203135D01*
G37*
D15*
X215875000Y-84765000D03*
D14*
G36*
X206631696Y-61343135D02*
G01*
X206656600Y-61346830D01*
X206681023Y-61352947D01*
X206704727Y-61361429D01*
X206727487Y-61372193D01*
X206749082Y-61385136D01*
X206769304Y-61400134D01*
X206787958Y-61417042D01*
X206804866Y-61435696D01*
X206819864Y-61455918D01*
X206832807Y-61477513D01*
X206843571Y-61500273D01*
X206852053Y-61523977D01*
X206858170Y-61548400D01*
X206861865Y-61573304D01*
X206863100Y-61598450D01*
X206863100Y-62211550D01*
X206861865Y-62236696D01*
X206858170Y-62261600D01*
X206852053Y-62286023D01*
X206843571Y-62309727D01*
X206832807Y-62332487D01*
X206819864Y-62354082D01*
X206804866Y-62374304D01*
X206787958Y-62392958D01*
X206769304Y-62409866D01*
X206749082Y-62424864D01*
X206727487Y-62437807D01*
X206704727Y-62448571D01*
X206681023Y-62457053D01*
X206656600Y-62463170D01*
X206631696Y-62466865D01*
X206606550Y-62468100D01*
X206093450Y-62468100D01*
X206068304Y-62466865D01*
X206043400Y-62463170D01*
X206018977Y-62457053D01*
X205995273Y-62448571D01*
X205972513Y-62437807D01*
X205950918Y-62424864D01*
X205930696Y-62409866D01*
X205912042Y-62392958D01*
X205895134Y-62374304D01*
X205880136Y-62354082D01*
X205867193Y-62332487D01*
X205856429Y-62309727D01*
X205847947Y-62286023D01*
X205841830Y-62261600D01*
X205838135Y-62236696D01*
X205836900Y-62211550D01*
X205836900Y-61598450D01*
X205838135Y-61573304D01*
X205841830Y-61548400D01*
X205847947Y-61523977D01*
X205856429Y-61500273D01*
X205867193Y-61477513D01*
X205880136Y-61455918D01*
X205895134Y-61435696D01*
X205912042Y-61417042D01*
X205930696Y-61400134D01*
X205950918Y-61385136D01*
X205972513Y-61372193D01*
X205995273Y-61361429D01*
X206018977Y-61352947D01*
X206043400Y-61346830D01*
X206068304Y-61343135D01*
X206093450Y-61341900D01*
X206606550Y-61341900D01*
X206631696Y-61343135D01*
X206631696Y-61343135D01*
G37*
D15*
X206350000Y-61905000D03*
D14*
G36*
X206631696Y-59593135D02*
G01*
X206656600Y-59596830D01*
X206681023Y-59602947D01*
X206704727Y-59611429D01*
X206727487Y-59622193D01*
X206749082Y-59635136D01*
X206769304Y-59650134D01*
X206787958Y-59667042D01*
X206804866Y-59685696D01*
X206819864Y-59705918D01*
X206832807Y-59727513D01*
X206843571Y-59750273D01*
X206852053Y-59773977D01*
X206858170Y-59798400D01*
X206861865Y-59823304D01*
X206863100Y-59848450D01*
X206863100Y-60461550D01*
X206861865Y-60486696D01*
X206858170Y-60511600D01*
X206852053Y-60536023D01*
X206843571Y-60559727D01*
X206832807Y-60582487D01*
X206819864Y-60604082D01*
X206804866Y-60624304D01*
X206787958Y-60642958D01*
X206769304Y-60659866D01*
X206749082Y-60674864D01*
X206727487Y-60687807D01*
X206704727Y-60698571D01*
X206681023Y-60707053D01*
X206656600Y-60713170D01*
X206631696Y-60716865D01*
X206606550Y-60718100D01*
X206093450Y-60718100D01*
X206068304Y-60716865D01*
X206043400Y-60713170D01*
X206018977Y-60707053D01*
X205995273Y-60698571D01*
X205972513Y-60687807D01*
X205950918Y-60674864D01*
X205930696Y-60659866D01*
X205912042Y-60642958D01*
X205895134Y-60624304D01*
X205880136Y-60604082D01*
X205867193Y-60582487D01*
X205856429Y-60559727D01*
X205847947Y-60536023D01*
X205841830Y-60511600D01*
X205838135Y-60486696D01*
X205836900Y-60461550D01*
X205836900Y-59848450D01*
X205838135Y-59823304D01*
X205841830Y-59798400D01*
X205847947Y-59773977D01*
X205856429Y-59750273D01*
X205867193Y-59727513D01*
X205880136Y-59705918D01*
X205895134Y-59685696D01*
X205912042Y-59667042D01*
X205930696Y-59650134D01*
X205950918Y-59635136D01*
X205972513Y-59622193D01*
X205995273Y-59611429D01*
X206018977Y-59602947D01*
X206043400Y-59596830D01*
X206068304Y-59593135D01*
X206093450Y-59591900D01*
X206606550Y-59591900D01*
X206631696Y-59593135D01*
X206631696Y-59593135D01*
G37*
D15*
X206350000Y-60155000D03*
D14*
G36*
X206631696Y-84203135D02*
G01*
X206656600Y-84206830D01*
X206681023Y-84212947D01*
X206704727Y-84221429D01*
X206727487Y-84232193D01*
X206749082Y-84245136D01*
X206769304Y-84260134D01*
X206787958Y-84277042D01*
X206804866Y-84295696D01*
X206819864Y-84315918D01*
X206832807Y-84337513D01*
X206843571Y-84360273D01*
X206852053Y-84383977D01*
X206858170Y-84408400D01*
X206861865Y-84433304D01*
X206863100Y-84458450D01*
X206863100Y-85071550D01*
X206861865Y-85096696D01*
X206858170Y-85121600D01*
X206852053Y-85146023D01*
X206843571Y-85169727D01*
X206832807Y-85192487D01*
X206819864Y-85214082D01*
X206804866Y-85234304D01*
X206787958Y-85252958D01*
X206769304Y-85269866D01*
X206749082Y-85284864D01*
X206727487Y-85297807D01*
X206704727Y-85308571D01*
X206681023Y-85317053D01*
X206656600Y-85323170D01*
X206631696Y-85326865D01*
X206606550Y-85328100D01*
X206093450Y-85328100D01*
X206068304Y-85326865D01*
X206043400Y-85323170D01*
X206018977Y-85317053D01*
X205995273Y-85308571D01*
X205972513Y-85297807D01*
X205950918Y-85284864D01*
X205930696Y-85269866D01*
X205912042Y-85252958D01*
X205895134Y-85234304D01*
X205880136Y-85214082D01*
X205867193Y-85192487D01*
X205856429Y-85169727D01*
X205847947Y-85146023D01*
X205841830Y-85121600D01*
X205838135Y-85096696D01*
X205836900Y-85071550D01*
X205836900Y-84458450D01*
X205838135Y-84433304D01*
X205841830Y-84408400D01*
X205847947Y-84383977D01*
X205856429Y-84360273D01*
X205867193Y-84337513D01*
X205880136Y-84315918D01*
X205895134Y-84295696D01*
X205912042Y-84277042D01*
X205930696Y-84260134D01*
X205950918Y-84245136D01*
X205972513Y-84232193D01*
X205995273Y-84221429D01*
X206018977Y-84212947D01*
X206043400Y-84206830D01*
X206068304Y-84203135D01*
X206093450Y-84201900D01*
X206606550Y-84201900D01*
X206631696Y-84203135D01*
X206631696Y-84203135D01*
G37*
D15*
X206350000Y-84765000D03*
D14*
G36*
X206631696Y-82453135D02*
G01*
X206656600Y-82456830D01*
X206681023Y-82462947D01*
X206704727Y-82471429D01*
X206727487Y-82482193D01*
X206749082Y-82495136D01*
X206769304Y-82510134D01*
X206787958Y-82527042D01*
X206804866Y-82545696D01*
X206819864Y-82565918D01*
X206832807Y-82587513D01*
X206843571Y-82610273D01*
X206852053Y-82633977D01*
X206858170Y-82658400D01*
X206861865Y-82683304D01*
X206863100Y-82708450D01*
X206863100Y-83321550D01*
X206861865Y-83346696D01*
X206858170Y-83371600D01*
X206852053Y-83396023D01*
X206843571Y-83419727D01*
X206832807Y-83442487D01*
X206819864Y-83464082D01*
X206804866Y-83484304D01*
X206787958Y-83502958D01*
X206769304Y-83519866D01*
X206749082Y-83534864D01*
X206727487Y-83547807D01*
X206704727Y-83558571D01*
X206681023Y-83567053D01*
X206656600Y-83573170D01*
X206631696Y-83576865D01*
X206606550Y-83578100D01*
X206093450Y-83578100D01*
X206068304Y-83576865D01*
X206043400Y-83573170D01*
X206018977Y-83567053D01*
X205995273Y-83558571D01*
X205972513Y-83547807D01*
X205950918Y-83534864D01*
X205930696Y-83519866D01*
X205912042Y-83502958D01*
X205895134Y-83484304D01*
X205880136Y-83464082D01*
X205867193Y-83442487D01*
X205856429Y-83419727D01*
X205847947Y-83396023D01*
X205841830Y-83371600D01*
X205838135Y-83346696D01*
X205836900Y-83321550D01*
X205836900Y-82708450D01*
X205838135Y-82683304D01*
X205841830Y-82658400D01*
X205847947Y-82633977D01*
X205856429Y-82610273D01*
X205867193Y-82587513D01*
X205880136Y-82565918D01*
X205895134Y-82545696D01*
X205912042Y-82527042D01*
X205930696Y-82510134D01*
X205950918Y-82495136D01*
X205972513Y-82482193D01*
X205995273Y-82471429D01*
X206018977Y-82462947D01*
X206043400Y-82456830D01*
X206068304Y-82453135D01*
X206093450Y-82451900D01*
X206606550Y-82451900D01*
X206631696Y-82453135D01*
X206631696Y-82453135D01*
G37*
D15*
X206350000Y-83015000D03*
D26*
X127930000Y-49155000D03*
X122850000Y-49155000D03*
X117770000Y-49155000D03*
X112690000Y-49155000D03*
X107610000Y-49155000D03*
X102530000Y-49155000D03*
X97450000Y-49155000D03*
X92370000Y-49155000D03*
X87290000Y-49155000D03*
X125390000Y-45845000D03*
X120310000Y-45845000D03*
X115230000Y-45845000D03*
X110150000Y-45845000D03*
X105070000Y-45845000D03*
X99990000Y-45845000D03*
X94910000Y-45845000D03*
X89830000Y-45845000D03*
X84750000Y-45845000D03*
D27*
X184775000Y-78810000D03*
X189825000Y-78810000D03*
X184775000Y-76270000D03*
X189825000Y-76270000D03*
X184775000Y-73730000D03*
X189825000Y-73730000D03*
X184775000Y-71190000D03*
X189825000Y-71190000D03*
D14*
G36*
X218061696Y-84203135D02*
G01*
X218086600Y-84206830D01*
X218111023Y-84212947D01*
X218134727Y-84221429D01*
X218157487Y-84232193D01*
X218179082Y-84245136D01*
X218199304Y-84260134D01*
X218217958Y-84277042D01*
X218234866Y-84295696D01*
X218249864Y-84315918D01*
X218262807Y-84337513D01*
X218273571Y-84360273D01*
X218282053Y-84383977D01*
X218288170Y-84408400D01*
X218291865Y-84433304D01*
X218293100Y-84458450D01*
X218293100Y-85071550D01*
X218291865Y-85096696D01*
X218288170Y-85121600D01*
X218282053Y-85146023D01*
X218273571Y-85169727D01*
X218262807Y-85192487D01*
X218249864Y-85214082D01*
X218234866Y-85234304D01*
X218217958Y-85252958D01*
X218199304Y-85269866D01*
X218179082Y-85284864D01*
X218157487Y-85297807D01*
X218134727Y-85308571D01*
X218111023Y-85317053D01*
X218086600Y-85323170D01*
X218061696Y-85326865D01*
X218036550Y-85328100D01*
X217523450Y-85328100D01*
X217498304Y-85326865D01*
X217473400Y-85323170D01*
X217448977Y-85317053D01*
X217425273Y-85308571D01*
X217402513Y-85297807D01*
X217380918Y-85284864D01*
X217360696Y-85269866D01*
X217342042Y-85252958D01*
X217325134Y-85234304D01*
X217310136Y-85214082D01*
X217297193Y-85192487D01*
X217286429Y-85169727D01*
X217277947Y-85146023D01*
X217271830Y-85121600D01*
X217268135Y-85096696D01*
X217266900Y-85071550D01*
X217266900Y-84458450D01*
X217268135Y-84433304D01*
X217271830Y-84408400D01*
X217277947Y-84383977D01*
X217286429Y-84360273D01*
X217297193Y-84337513D01*
X217310136Y-84315918D01*
X217325134Y-84295696D01*
X217342042Y-84277042D01*
X217360696Y-84260134D01*
X217380918Y-84245136D01*
X217402513Y-84232193D01*
X217425273Y-84221429D01*
X217448977Y-84212947D01*
X217473400Y-84206830D01*
X217498304Y-84203135D01*
X217523450Y-84201900D01*
X218036550Y-84201900D01*
X218061696Y-84203135D01*
X218061696Y-84203135D01*
G37*
D15*
X217780000Y-84765000D03*
D14*
G36*
X218061696Y-82453135D02*
G01*
X218086600Y-82456830D01*
X218111023Y-82462947D01*
X218134727Y-82471429D01*
X218157487Y-82482193D01*
X218179082Y-82495136D01*
X218199304Y-82510134D01*
X218217958Y-82527042D01*
X218234866Y-82545696D01*
X218249864Y-82565918D01*
X218262807Y-82587513D01*
X218273571Y-82610273D01*
X218282053Y-82633977D01*
X218288170Y-82658400D01*
X218291865Y-82683304D01*
X218293100Y-82708450D01*
X218293100Y-83321550D01*
X218291865Y-83346696D01*
X218288170Y-83371600D01*
X218282053Y-83396023D01*
X218273571Y-83419727D01*
X218262807Y-83442487D01*
X218249864Y-83464082D01*
X218234866Y-83484304D01*
X218217958Y-83502958D01*
X218199304Y-83519866D01*
X218179082Y-83534864D01*
X218157487Y-83547807D01*
X218134727Y-83558571D01*
X218111023Y-83567053D01*
X218086600Y-83573170D01*
X218061696Y-83576865D01*
X218036550Y-83578100D01*
X217523450Y-83578100D01*
X217498304Y-83576865D01*
X217473400Y-83573170D01*
X217448977Y-83567053D01*
X217425273Y-83558571D01*
X217402513Y-83547807D01*
X217380918Y-83534864D01*
X217360696Y-83519866D01*
X217342042Y-83502958D01*
X217325134Y-83484304D01*
X217310136Y-83464082D01*
X217297193Y-83442487D01*
X217286429Y-83419727D01*
X217277947Y-83396023D01*
X217271830Y-83371600D01*
X217268135Y-83346696D01*
X217266900Y-83321550D01*
X217266900Y-82708450D01*
X217268135Y-82683304D01*
X217271830Y-82658400D01*
X217277947Y-82633977D01*
X217286429Y-82610273D01*
X217297193Y-82587513D01*
X217310136Y-82565918D01*
X217325134Y-82545696D01*
X217342042Y-82527042D01*
X217360696Y-82510134D01*
X217380918Y-82495136D01*
X217402513Y-82482193D01*
X217425273Y-82471429D01*
X217448977Y-82462947D01*
X217473400Y-82456830D01*
X217498304Y-82453135D01*
X217523450Y-82451900D01*
X218036550Y-82451900D01*
X218061696Y-82453135D01*
X218061696Y-82453135D01*
G37*
D15*
X217780000Y-83015000D03*
D14*
G36*
X199456696Y-54168135D02*
G01*
X199481600Y-54171830D01*
X199506023Y-54177947D01*
X199529727Y-54186429D01*
X199552487Y-54197193D01*
X199574082Y-54210136D01*
X199594304Y-54225134D01*
X199612958Y-54242042D01*
X199629866Y-54260696D01*
X199644864Y-54280918D01*
X199657807Y-54302513D01*
X199668571Y-54325273D01*
X199677053Y-54348977D01*
X199683170Y-54373400D01*
X199686865Y-54398304D01*
X199688100Y-54423450D01*
X199688100Y-54936550D01*
X199686865Y-54961696D01*
X199683170Y-54986600D01*
X199677053Y-55011023D01*
X199668571Y-55034727D01*
X199657807Y-55057487D01*
X199644864Y-55079082D01*
X199629866Y-55099304D01*
X199612958Y-55117958D01*
X199594304Y-55134866D01*
X199574082Y-55149864D01*
X199552487Y-55162807D01*
X199529727Y-55173571D01*
X199506023Y-55182053D01*
X199481600Y-55188170D01*
X199456696Y-55191865D01*
X199431550Y-55193100D01*
X198818450Y-55193100D01*
X198793304Y-55191865D01*
X198768400Y-55188170D01*
X198743977Y-55182053D01*
X198720273Y-55173571D01*
X198697513Y-55162807D01*
X198675918Y-55149864D01*
X198655696Y-55134866D01*
X198637042Y-55117958D01*
X198620134Y-55099304D01*
X198605136Y-55079082D01*
X198592193Y-55057487D01*
X198581429Y-55034727D01*
X198572947Y-55011023D01*
X198566830Y-54986600D01*
X198563135Y-54961696D01*
X198561900Y-54936550D01*
X198561900Y-54423450D01*
X198563135Y-54398304D01*
X198566830Y-54373400D01*
X198572947Y-54348977D01*
X198581429Y-54325273D01*
X198592193Y-54302513D01*
X198605136Y-54280918D01*
X198620134Y-54260696D01*
X198637042Y-54242042D01*
X198655696Y-54225134D01*
X198675918Y-54210136D01*
X198697513Y-54197193D01*
X198720273Y-54186429D01*
X198743977Y-54177947D01*
X198768400Y-54171830D01*
X198793304Y-54168135D01*
X198818450Y-54166900D01*
X199431550Y-54166900D01*
X199456696Y-54168135D01*
X199456696Y-54168135D01*
G37*
D15*
X199125000Y-54680000D03*
D14*
G36*
X201206696Y-54168135D02*
G01*
X201231600Y-54171830D01*
X201256023Y-54177947D01*
X201279727Y-54186429D01*
X201302487Y-54197193D01*
X201324082Y-54210136D01*
X201344304Y-54225134D01*
X201362958Y-54242042D01*
X201379866Y-54260696D01*
X201394864Y-54280918D01*
X201407807Y-54302513D01*
X201418571Y-54325273D01*
X201427053Y-54348977D01*
X201433170Y-54373400D01*
X201436865Y-54398304D01*
X201438100Y-54423450D01*
X201438100Y-54936550D01*
X201436865Y-54961696D01*
X201433170Y-54986600D01*
X201427053Y-55011023D01*
X201418571Y-55034727D01*
X201407807Y-55057487D01*
X201394864Y-55079082D01*
X201379866Y-55099304D01*
X201362958Y-55117958D01*
X201344304Y-55134866D01*
X201324082Y-55149864D01*
X201302487Y-55162807D01*
X201279727Y-55173571D01*
X201256023Y-55182053D01*
X201231600Y-55188170D01*
X201206696Y-55191865D01*
X201181550Y-55193100D01*
X200568450Y-55193100D01*
X200543304Y-55191865D01*
X200518400Y-55188170D01*
X200493977Y-55182053D01*
X200470273Y-55173571D01*
X200447513Y-55162807D01*
X200425918Y-55149864D01*
X200405696Y-55134866D01*
X200387042Y-55117958D01*
X200370134Y-55099304D01*
X200355136Y-55079082D01*
X200342193Y-55057487D01*
X200331429Y-55034727D01*
X200322947Y-55011023D01*
X200316830Y-54986600D01*
X200313135Y-54961696D01*
X200311900Y-54936550D01*
X200311900Y-54423450D01*
X200313135Y-54398304D01*
X200316830Y-54373400D01*
X200322947Y-54348977D01*
X200331429Y-54325273D01*
X200342193Y-54302513D01*
X200355136Y-54280918D01*
X200370134Y-54260696D01*
X200387042Y-54242042D01*
X200405696Y-54225134D01*
X200425918Y-54210136D01*
X200447513Y-54197193D01*
X200470273Y-54186429D01*
X200493977Y-54177947D01*
X200518400Y-54171830D01*
X200543304Y-54168135D01*
X200568450Y-54166900D01*
X201181550Y-54166900D01*
X201206696Y-54168135D01*
X201206696Y-54168135D01*
G37*
D15*
X200875000Y-54680000D03*
M02*
