G04 #@! TF.GenerationSoftware,KiCad,Pcbnew,(5.1.4)-1*
G04 #@! TF.CreationDate,2020-03-27T13:23:33-04:00*
G04 #@! TF.ProjectId,stepUP_lcd,73746570-5550-45f6-9c63-642e6b696361,rev?*
G04 #@! TF.SameCoordinates,Original*
G04 #@! TF.FileFunction,Soldermask,Bot*
G04 #@! TF.FilePolarity,Negative*
%FSLAX46Y46*%
G04 Gerber Fmt 4.6, Leading zero omitted, Abs format (unit mm)*
G04 Created by KiCad (PCBNEW (5.1.4)-1) date 2020-03-27 13:23:33*
%MOMM*%
%LPD*%
G04 APERTURE LIST*
%ADD10C,0.100000*%
G04 APERTURE END LIST*
D10*
G36*
X84533584Y-112713185D02*
G01*
X85307069Y-112867040D01*
X86278540Y-113269437D01*
X87152836Y-113853623D01*
X87152838Y-113853625D01*
X87152841Y-113853627D01*
X87896373Y-114597159D01*
X87896375Y-114597162D01*
X87896377Y-114597164D01*
X88480563Y-115471460D01*
X88882960Y-116442931D01*
X89088100Y-117474244D01*
X89088100Y-118525756D01*
X88882960Y-119557069D01*
X88480563Y-120528540D01*
X87896377Y-121402836D01*
X87896375Y-121402838D01*
X87896373Y-121402841D01*
X87152841Y-122146373D01*
X87152838Y-122146375D01*
X87152836Y-122146377D01*
X86278540Y-122730563D01*
X85307069Y-123132960D01*
X84533584Y-123286815D01*
X84275757Y-123338100D01*
X83224243Y-123338100D01*
X82966416Y-123286815D01*
X82192931Y-123132960D01*
X81221460Y-122730563D01*
X80347164Y-122146377D01*
X80347162Y-122146375D01*
X80347159Y-122146373D01*
X79603627Y-121402841D01*
X79603625Y-121402838D01*
X79603623Y-121402836D01*
X79019437Y-120528540D01*
X78617040Y-119557069D01*
X78411900Y-118525756D01*
X78411900Y-117474244D01*
X78617040Y-116442931D01*
X79019437Y-115471460D01*
X79603623Y-114597164D01*
X79603625Y-114597162D01*
X79603627Y-114597159D01*
X80347159Y-113853627D01*
X80347162Y-113853625D01*
X80347164Y-113853623D01*
X81221460Y-113269437D01*
X82192931Y-112867040D01*
X82966416Y-112713185D01*
X83224243Y-112661900D01*
X84275757Y-112661900D01*
X84533584Y-112713185D01*
X84533584Y-112713185D01*
G37*
G36*
X145783584Y-112713185D02*
G01*
X146557069Y-112867040D01*
X147528540Y-113269437D01*
X148402836Y-113853623D01*
X148402838Y-113853625D01*
X148402841Y-113853627D01*
X149146373Y-114597159D01*
X149146375Y-114597162D01*
X149146377Y-114597164D01*
X149730563Y-115471460D01*
X150132960Y-116442931D01*
X150338100Y-117474244D01*
X150338100Y-118525756D01*
X150132960Y-119557069D01*
X149730563Y-120528540D01*
X149146377Y-121402836D01*
X149146375Y-121402838D01*
X149146373Y-121402841D01*
X148402841Y-122146373D01*
X148402838Y-122146375D01*
X148402836Y-122146377D01*
X147528540Y-122730563D01*
X146557069Y-123132960D01*
X145783584Y-123286815D01*
X145525757Y-123338100D01*
X144474243Y-123338100D01*
X144216416Y-123286815D01*
X143442931Y-123132960D01*
X142471460Y-122730563D01*
X141597164Y-122146377D01*
X141597162Y-122146375D01*
X141597159Y-122146373D01*
X140853627Y-121402841D01*
X140853625Y-121402838D01*
X140853623Y-121402836D01*
X140269437Y-120528540D01*
X139867040Y-119557069D01*
X139661900Y-118525756D01*
X139661900Y-117474244D01*
X139867040Y-116442931D01*
X140269437Y-115471460D01*
X140853623Y-114597164D01*
X140853625Y-114597162D01*
X140853627Y-114597159D01*
X141597159Y-113853627D01*
X141597162Y-113853625D01*
X141597164Y-113853623D01*
X142471460Y-113269437D01*
X143442931Y-112867040D01*
X144216416Y-112713185D01*
X144474243Y-112661900D01*
X145525757Y-112661900D01*
X145783584Y-112713185D01*
X145783584Y-112713185D01*
G37*
G36*
X207033584Y-112713185D02*
G01*
X207807069Y-112867040D01*
X208778540Y-113269437D01*
X209652836Y-113853623D01*
X209652838Y-113853625D01*
X209652841Y-113853627D01*
X210396373Y-114597159D01*
X210396375Y-114597162D01*
X210396377Y-114597164D01*
X210980563Y-115471460D01*
X211382960Y-116442931D01*
X211588100Y-117474244D01*
X211588100Y-118525756D01*
X211382960Y-119557069D01*
X210980563Y-120528540D01*
X210396377Y-121402836D01*
X210396375Y-121402838D01*
X210396373Y-121402841D01*
X209652841Y-122146373D01*
X209652838Y-122146375D01*
X209652836Y-122146377D01*
X208778540Y-122730563D01*
X207807069Y-123132960D01*
X207033584Y-123286815D01*
X206775757Y-123338100D01*
X205724243Y-123338100D01*
X205466416Y-123286815D01*
X204692931Y-123132960D01*
X203721460Y-122730563D01*
X202847164Y-122146377D01*
X202847162Y-122146375D01*
X202847159Y-122146373D01*
X202103627Y-121402841D01*
X202103625Y-121402838D01*
X202103623Y-121402836D01*
X201519437Y-120528540D01*
X201117040Y-119557069D01*
X200911900Y-118525756D01*
X200911900Y-117474244D01*
X201117040Y-116442931D01*
X201519437Y-115471460D01*
X202103623Y-114597164D01*
X202103625Y-114597162D01*
X202103627Y-114597159D01*
X202847159Y-113853627D01*
X202847162Y-113853625D01*
X202847164Y-113853623D01*
X203721460Y-113269437D01*
X204692931Y-112867040D01*
X205466416Y-112713185D01*
X205724243Y-112661900D01*
X206775757Y-112661900D01*
X207033584Y-112713185D01*
X207033584Y-112713185D01*
G37*
G36*
X222194519Y-99886338D02*
G01*
X222194521Y-99886339D01*
X222194522Y-99886339D01*
X222783817Y-100130433D01*
X223134999Y-100365086D01*
X223314169Y-100484803D01*
X223765197Y-100935831D01*
X223785478Y-100966184D01*
X224119567Y-101466183D01*
X224363661Y-102055478D01*
X224488100Y-102681076D01*
X224488100Y-103318924D01*
X224363661Y-103944522D01*
X224119567Y-104533817D01*
X224099286Y-104564169D01*
X223765197Y-105064169D01*
X223314169Y-105515197D01*
X223166807Y-105613661D01*
X222783817Y-105869567D01*
X222194522Y-106113661D01*
X222194521Y-106113661D01*
X222194519Y-106113662D01*
X221568925Y-106238100D01*
X220931075Y-106238100D01*
X220305481Y-106113662D01*
X220305479Y-106113661D01*
X220305478Y-106113661D01*
X219716183Y-105869567D01*
X219333193Y-105613661D01*
X219185831Y-105515197D01*
X218734803Y-105064169D01*
X218400714Y-104564169D01*
X218380433Y-104533817D01*
X218136339Y-103944522D01*
X218011900Y-103318924D01*
X218011900Y-102681076D01*
X218136339Y-102055478D01*
X218380433Y-101466183D01*
X218714522Y-100966184D01*
X218734803Y-100935831D01*
X219185831Y-100484803D01*
X219365001Y-100365086D01*
X219716183Y-100130433D01*
X220305478Y-99886339D01*
X220305479Y-99886339D01*
X220305481Y-99886338D01*
X220931075Y-99761900D01*
X221568925Y-99761900D01*
X222194519Y-99886338D01*
X222194519Y-99886338D01*
G37*
G36*
X69694519Y-99886338D02*
G01*
X69694521Y-99886339D01*
X69694522Y-99886339D01*
X70283817Y-100130433D01*
X70634999Y-100365086D01*
X70814169Y-100484803D01*
X71265197Y-100935831D01*
X71285478Y-100966184D01*
X71619567Y-101466183D01*
X71863661Y-102055478D01*
X71988100Y-102681076D01*
X71988100Y-103318924D01*
X71863661Y-103944522D01*
X71619567Y-104533817D01*
X71599286Y-104564169D01*
X71265197Y-105064169D01*
X70814169Y-105515197D01*
X70666807Y-105613661D01*
X70283817Y-105869567D01*
X69694522Y-106113661D01*
X69694521Y-106113661D01*
X69694519Y-106113662D01*
X69068925Y-106238100D01*
X68431075Y-106238100D01*
X67805481Y-106113662D01*
X67805479Y-106113661D01*
X67805478Y-106113661D01*
X67216183Y-105869567D01*
X66833193Y-105613661D01*
X66685831Y-105515197D01*
X66234803Y-105064169D01*
X65900714Y-104564169D01*
X65880433Y-104533817D01*
X65636339Y-103944522D01*
X65511900Y-103318924D01*
X65511900Y-102681076D01*
X65636339Y-102055478D01*
X65880433Y-101466183D01*
X66214522Y-100966184D01*
X66234803Y-100935831D01*
X66685831Y-100484803D01*
X66865001Y-100365086D01*
X67216183Y-100130433D01*
X67805478Y-99886339D01*
X67805479Y-99886339D01*
X67805481Y-99886338D01*
X68431075Y-99761900D01*
X69068925Y-99761900D01*
X69694519Y-99886338D01*
X69694519Y-99886338D01*
G37*
G36*
X78194519Y-99386338D02*
G01*
X78194521Y-99386339D01*
X78194522Y-99386339D01*
X78783817Y-99630433D01*
X78980571Y-99761900D01*
X79314169Y-99984803D01*
X79765197Y-100435831D01*
X79765200Y-100435836D01*
X80119567Y-100966183D01*
X80363661Y-101555478D01*
X80488100Y-102181076D01*
X80488100Y-102818924D01*
X80363661Y-103444522D01*
X80119567Y-104033817D01*
X79884914Y-104384999D01*
X79765197Y-104564169D01*
X79314169Y-105015197D01*
X79240877Y-105064169D01*
X78783817Y-105369567D01*
X78194522Y-105613661D01*
X78194521Y-105613661D01*
X78194519Y-105613662D01*
X77568925Y-105738100D01*
X76931075Y-105738100D01*
X76305481Y-105613662D01*
X76305479Y-105613661D01*
X76305478Y-105613661D01*
X75716183Y-105369567D01*
X75259123Y-105064169D01*
X75185831Y-105015197D01*
X74734803Y-104564169D01*
X74615086Y-104384999D01*
X74380433Y-104033817D01*
X74136339Y-103444522D01*
X74011900Y-102818924D01*
X74011900Y-102181076D01*
X74136339Y-101555478D01*
X74380433Y-100966183D01*
X74734800Y-100435836D01*
X74734803Y-100435831D01*
X75185831Y-99984803D01*
X75519429Y-99761900D01*
X75716183Y-99630433D01*
X76305478Y-99386339D01*
X76305479Y-99386339D01*
X76305481Y-99386338D01*
X76931075Y-99261900D01*
X77568925Y-99261900D01*
X78194519Y-99386338D01*
X78194519Y-99386338D01*
G37*
G36*
X171194519Y-99386338D02*
G01*
X171194521Y-99386339D01*
X171194522Y-99386339D01*
X171783817Y-99630433D01*
X171980571Y-99761900D01*
X172314169Y-99984803D01*
X172765197Y-100435831D01*
X172765200Y-100435836D01*
X173119567Y-100966183D01*
X173363661Y-101555478D01*
X173488100Y-102181076D01*
X173488100Y-102818924D01*
X173363661Y-103444522D01*
X173119567Y-104033817D01*
X172884914Y-104384999D01*
X172765197Y-104564169D01*
X172314169Y-105015197D01*
X172240877Y-105064169D01*
X171783817Y-105369567D01*
X171194522Y-105613661D01*
X171194521Y-105613661D01*
X171194519Y-105613662D01*
X170568925Y-105738100D01*
X169931075Y-105738100D01*
X169305481Y-105613662D01*
X169305479Y-105613661D01*
X169305478Y-105613661D01*
X168716183Y-105369567D01*
X168259123Y-105064169D01*
X168185831Y-105015197D01*
X167734803Y-104564169D01*
X167615086Y-104384999D01*
X167380433Y-104033817D01*
X167136339Y-103444522D01*
X167011900Y-102818924D01*
X167011900Y-102181076D01*
X167136339Y-101555478D01*
X167380433Y-100966183D01*
X167734800Y-100435836D01*
X167734803Y-100435831D01*
X168185831Y-99984803D01*
X168519429Y-99761900D01*
X168716183Y-99630433D01*
X169305478Y-99386339D01*
X169305479Y-99386339D01*
X169305481Y-99386338D01*
X169931075Y-99261900D01*
X170568925Y-99261900D01*
X171194519Y-99386338D01*
X171194519Y-99386338D01*
G37*
G36*
X205718100Y-103148100D02*
G01*
X204441900Y-103148100D01*
X204441900Y-98321900D01*
X205718100Y-98321900D01*
X205718100Y-103148100D01*
X205718100Y-103148100D01*
G37*
G36*
X198098100Y-103148100D02*
G01*
X196821900Y-103148100D01*
X196821900Y-98321900D01*
X198098100Y-98321900D01*
X198098100Y-103148100D01*
X198098100Y-103148100D01*
G37*
G36*
X195558100Y-103148100D02*
G01*
X194281900Y-103148100D01*
X194281900Y-98321900D01*
X195558100Y-98321900D01*
X195558100Y-103148100D01*
X195558100Y-103148100D01*
G37*
G36*
X203178100Y-103148100D02*
G01*
X201901900Y-103148100D01*
X201901900Y-98321900D01*
X203178100Y-98321900D01*
X203178100Y-103148100D01*
X203178100Y-103148100D01*
G37*
G36*
X200638100Y-103148100D02*
G01*
X199361900Y-103148100D01*
X199361900Y-98321900D01*
X200638100Y-98321900D01*
X200638100Y-103148100D01*
X200638100Y-103148100D01*
G37*
G36*
X54533584Y-90213185D02*
G01*
X55307069Y-90367040D01*
X56278540Y-90769437D01*
X57152836Y-91353623D01*
X57152838Y-91353625D01*
X57152841Y-91353627D01*
X57896373Y-92097159D01*
X57896375Y-92097162D01*
X57896377Y-92097164D01*
X58480563Y-92971460D01*
X58882960Y-93942931D01*
X59088100Y-94974244D01*
X59088100Y-96025756D01*
X58882960Y-97057069D01*
X58480563Y-98028540D01*
X57896377Y-98902836D01*
X57896375Y-98902838D01*
X57896373Y-98902841D01*
X57152841Y-99646373D01*
X57152838Y-99646375D01*
X57152836Y-99646377D01*
X56278540Y-100230563D01*
X55307069Y-100632960D01*
X54533584Y-100786815D01*
X54275757Y-100838100D01*
X53224243Y-100838100D01*
X52966416Y-100786815D01*
X52192931Y-100632960D01*
X51221460Y-100230563D01*
X50347164Y-99646377D01*
X50347162Y-99646375D01*
X50347159Y-99646373D01*
X49603627Y-98902841D01*
X49603625Y-98902838D01*
X49603623Y-98902836D01*
X49019437Y-98028540D01*
X48617040Y-97057069D01*
X48411900Y-96025756D01*
X48411900Y-94974244D01*
X48617040Y-93942931D01*
X49019437Y-92971460D01*
X49603623Y-92097164D01*
X49603625Y-92097162D01*
X49603627Y-92097159D01*
X50347159Y-91353627D01*
X50347162Y-91353625D01*
X50347164Y-91353623D01*
X51221460Y-90769437D01*
X52192931Y-90367040D01*
X52966416Y-90213185D01*
X53224243Y-90161900D01*
X54275757Y-90161900D01*
X54533584Y-90213185D01*
X54533584Y-90213185D01*
G37*
G36*
X186362095Y-98176521D02*
G01*
X186404208Y-98189295D01*
X186443024Y-98210043D01*
X186477041Y-98237959D01*
X186504957Y-98271976D01*
X186525705Y-98310792D01*
X186538479Y-98352905D01*
X186543100Y-98399817D01*
X186543100Y-99070183D01*
X186538479Y-99117095D01*
X186525705Y-99159208D01*
X186504957Y-99198024D01*
X186477041Y-99232041D01*
X186443024Y-99259957D01*
X186404208Y-99280705D01*
X186362095Y-99293479D01*
X186315183Y-99298100D01*
X185744817Y-99298100D01*
X185697905Y-99293479D01*
X185655792Y-99280705D01*
X185616976Y-99259957D01*
X185582959Y-99232041D01*
X185555043Y-99198024D01*
X185534295Y-99159208D01*
X185521521Y-99117095D01*
X185516900Y-99070183D01*
X185516900Y-98399817D01*
X185521521Y-98352905D01*
X185534295Y-98310792D01*
X185555043Y-98271976D01*
X185582959Y-98237959D01*
X185616976Y-98210043D01*
X185655792Y-98189295D01*
X185697905Y-98176521D01*
X185744817Y-98171900D01*
X186315183Y-98171900D01*
X186362095Y-98176521D01*
X186362095Y-98176521D01*
G37*
G36*
X188267095Y-98176521D02*
G01*
X188309208Y-98189295D01*
X188348024Y-98210043D01*
X188382041Y-98237959D01*
X188409957Y-98271976D01*
X188430705Y-98310792D01*
X188443479Y-98352905D01*
X188448100Y-98399817D01*
X188448100Y-99070183D01*
X188443479Y-99117095D01*
X188430705Y-99159208D01*
X188409957Y-99198024D01*
X188382041Y-99232041D01*
X188348024Y-99259957D01*
X188309208Y-99280705D01*
X188267095Y-99293479D01*
X188220183Y-99298100D01*
X187649817Y-99298100D01*
X187602905Y-99293479D01*
X187560792Y-99280705D01*
X187521976Y-99259957D01*
X187487959Y-99232041D01*
X187460043Y-99198024D01*
X187439295Y-99159208D01*
X187426521Y-99117095D01*
X187421900Y-99070183D01*
X187421900Y-98399817D01*
X187426521Y-98352905D01*
X187439295Y-98310792D01*
X187460043Y-98271976D01*
X187487959Y-98237959D01*
X187521976Y-98210043D01*
X187560792Y-98189295D01*
X187602905Y-98176521D01*
X187649817Y-98171900D01*
X188220183Y-98171900D01*
X188267095Y-98176521D01*
X188267095Y-98176521D01*
G37*
G36*
X184457095Y-98176521D02*
G01*
X184499208Y-98189295D01*
X184538024Y-98210043D01*
X184572041Y-98237959D01*
X184599957Y-98271976D01*
X184620705Y-98310792D01*
X184633479Y-98352905D01*
X184638100Y-98399817D01*
X184638100Y-99070183D01*
X184633479Y-99117095D01*
X184620705Y-99159208D01*
X184599957Y-99198024D01*
X184572041Y-99232041D01*
X184538024Y-99259957D01*
X184499208Y-99280705D01*
X184457095Y-99293479D01*
X184410183Y-99298100D01*
X183839817Y-99298100D01*
X183792905Y-99293479D01*
X183750792Y-99280705D01*
X183711976Y-99259957D01*
X183677959Y-99232041D01*
X183650043Y-99198024D01*
X183629295Y-99159208D01*
X183616521Y-99117095D01*
X183611900Y-99070183D01*
X183611900Y-98399817D01*
X183616521Y-98352905D01*
X183629295Y-98310792D01*
X183650043Y-98271976D01*
X183677959Y-98237959D01*
X183711976Y-98210043D01*
X183750792Y-98189295D01*
X183792905Y-98176521D01*
X183839817Y-98171900D01*
X184410183Y-98171900D01*
X184457095Y-98176521D01*
X184457095Y-98176521D01*
G37*
G36*
X184457095Y-96426521D02*
G01*
X184499208Y-96439295D01*
X184538024Y-96460043D01*
X184572041Y-96487959D01*
X184599957Y-96521976D01*
X184620705Y-96560792D01*
X184633479Y-96602905D01*
X184638100Y-96649817D01*
X184638100Y-97320183D01*
X184633479Y-97367095D01*
X184620705Y-97409208D01*
X184599957Y-97448024D01*
X184572041Y-97482041D01*
X184538024Y-97509957D01*
X184499208Y-97530705D01*
X184457095Y-97543479D01*
X184410183Y-97548100D01*
X183839817Y-97548100D01*
X183792905Y-97543479D01*
X183750792Y-97530705D01*
X183711976Y-97509957D01*
X183677959Y-97482041D01*
X183650043Y-97448024D01*
X183629295Y-97409208D01*
X183616521Y-97367095D01*
X183611900Y-97320183D01*
X183611900Y-96649817D01*
X183616521Y-96602905D01*
X183629295Y-96560792D01*
X183650043Y-96521976D01*
X183677959Y-96487959D01*
X183711976Y-96460043D01*
X183750792Y-96439295D01*
X183792905Y-96426521D01*
X183839817Y-96421900D01*
X184410183Y-96421900D01*
X184457095Y-96426521D01*
X184457095Y-96426521D01*
G37*
G36*
X188267095Y-96426521D02*
G01*
X188309208Y-96439295D01*
X188348024Y-96460043D01*
X188382041Y-96487959D01*
X188409957Y-96521976D01*
X188430705Y-96560792D01*
X188443479Y-96602905D01*
X188448100Y-96649817D01*
X188448100Y-97320183D01*
X188443479Y-97367095D01*
X188430705Y-97409208D01*
X188409957Y-97448024D01*
X188382041Y-97482041D01*
X188348024Y-97509957D01*
X188309208Y-97530705D01*
X188267095Y-97543479D01*
X188220183Y-97548100D01*
X187649817Y-97548100D01*
X187602905Y-97543479D01*
X187560792Y-97530705D01*
X187521976Y-97509957D01*
X187487959Y-97482041D01*
X187460043Y-97448024D01*
X187439295Y-97409208D01*
X187426521Y-97367095D01*
X187421900Y-97320183D01*
X187421900Y-96649817D01*
X187426521Y-96602905D01*
X187439295Y-96560792D01*
X187460043Y-96521976D01*
X187487959Y-96487959D01*
X187521976Y-96460043D01*
X187560792Y-96439295D01*
X187602905Y-96426521D01*
X187649817Y-96421900D01*
X188220183Y-96421900D01*
X188267095Y-96426521D01*
X188267095Y-96426521D01*
G37*
G36*
X186362095Y-96426521D02*
G01*
X186404208Y-96439295D01*
X186443024Y-96460043D01*
X186477041Y-96487959D01*
X186504957Y-96521976D01*
X186525705Y-96560792D01*
X186538479Y-96602905D01*
X186543100Y-96649817D01*
X186543100Y-97320183D01*
X186538479Y-97367095D01*
X186525705Y-97409208D01*
X186504957Y-97448024D01*
X186477041Y-97482041D01*
X186443024Y-97509957D01*
X186404208Y-97530705D01*
X186362095Y-97543479D01*
X186315183Y-97548100D01*
X185744817Y-97548100D01*
X185697905Y-97543479D01*
X185655792Y-97530705D01*
X185616976Y-97509957D01*
X185582959Y-97482041D01*
X185555043Y-97448024D01*
X185534295Y-97409208D01*
X185521521Y-97367095D01*
X185516900Y-97320183D01*
X185516900Y-96649817D01*
X185521521Y-96602905D01*
X185534295Y-96560792D01*
X185555043Y-96521976D01*
X185582959Y-96487959D01*
X185616976Y-96460043D01*
X185655792Y-96439295D01*
X185697905Y-96426521D01*
X185744817Y-96421900D01*
X186315183Y-96421900D01*
X186362095Y-96426521D01*
X186362095Y-96426521D01*
G37*
G36*
X205718100Y-97398100D02*
G01*
X204441900Y-97398100D01*
X204441900Y-92571900D01*
X205718100Y-92571900D01*
X205718100Y-97398100D01*
X205718100Y-97398100D01*
G37*
G36*
X203178100Y-97398100D02*
G01*
X201901900Y-97398100D01*
X201901900Y-92571900D01*
X203178100Y-92571900D01*
X203178100Y-97398100D01*
X203178100Y-97398100D01*
G37*
G36*
X200638100Y-97398100D02*
G01*
X199361900Y-97398100D01*
X199361900Y-92571900D01*
X200638100Y-92571900D01*
X200638100Y-97398100D01*
X200638100Y-97398100D01*
G37*
G36*
X198098100Y-97398100D02*
G01*
X196821900Y-97398100D01*
X196821900Y-92571900D01*
X198098100Y-92571900D01*
X198098100Y-97398100D01*
X198098100Y-97398100D01*
G37*
G36*
X195558100Y-97398100D02*
G01*
X194281900Y-97398100D01*
X194281900Y-92571900D01*
X195558100Y-92571900D01*
X195558100Y-97398100D01*
X195558100Y-97398100D01*
G37*
G36*
X214670522Y-85435839D02*
G01*
X214696228Y-85443637D01*
X214719908Y-85456294D01*
X214740668Y-85473332D01*
X214757706Y-85494092D01*
X214770363Y-85517772D01*
X214778161Y-85543478D01*
X214781100Y-85573317D01*
X214781100Y-85968683D01*
X214778161Y-85998522D01*
X214770363Y-86024228D01*
X214757706Y-86047908D01*
X214740668Y-86068668D01*
X214719908Y-86085706D01*
X214696228Y-86098363D01*
X214670522Y-86106161D01*
X214640683Y-86109100D01*
X212895317Y-86109100D01*
X212865478Y-86106161D01*
X212839772Y-86098363D01*
X212816092Y-86085706D01*
X212795332Y-86068668D01*
X212778294Y-86047908D01*
X212765637Y-86024228D01*
X212757839Y-85998522D01*
X212754900Y-85968683D01*
X212754900Y-85573317D01*
X212757839Y-85543478D01*
X212765637Y-85517772D01*
X212778294Y-85494092D01*
X212795332Y-85473332D01*
X212816092Y-85456294D01*
X212839772Y-85443637D01*
X212865478Y-85435839D01*
X212895317Y-85432900D01*
X214640683Y-85432900D01*
X214670522Y-85435839D01*
X214670522Y-85435839D01*
G37*
G36*
X209720522Y-85435839D02*
G01*
X209746228Y-85443637D01*
X209769908Y-85456294D01*
X209790668Y-85473332D01*
X209807706Y-85494092D01*
X209820363Y-85517772D01*
X209828161Y-85543478D01*
X209831100Y-85573317D01*
X209831100Y-85968683D01*
X209828161Y-85998522D01*
X209820363Y-86024228D01*
X209807706Y-86047908D01*
X209790668Y-86068668D01*
X209769908Y-86085706D01*
X209746228Y-86098363D01*
X209720522Y-86106161D01*
X209690683Y-86109100D01*
X207945317Y-86109100D01*
X207915478Y-86106161D01*
X207889772Y-86098363D01*
X207866092Y-86085706D01*
X207845332Y-86068668D01*
X207828294Y-86047908D01*
X207815637Y-86024228D01*
X207807839Y-85998522D01*
X207804900Y-85968683D01*
X207804900Y-85573317D01*
X207807839Y-85543478D01*
X207815637Y-85517772D01*
X207828294Y-85494092D01*
X207845332Y-85473332D01*
X207866092Y-85456294D01*
X207889772Y-85443637D01*
X207915478Y-85435839D01*
X207945317Y-85432900D01*
X209690683Y-85432900D01*
X209720522Y-85435839D01*
X209720522Y-85435839D01*
G37*
G36*
X216207095Y-84206521D02*
G01*
X216249208Y-84219295D01*
X216288024Y-84240043D01*
X216322041Y-84267959D01*
X216349957Y-84301976D01*
X216370705Y-84340792D01*
X216383479Y-84382905D01*
X216388100Y-84429817D01*
X216388100Y-85100183D01*
X216383479Y-85147095D01*
X216370705Y-85189208D01*
X216349957Y-85228024D01*
X216322041Y-85262041D01*
X216288024Y-85289957D01*
X216249208Y-85310705D01*
X216207095Y-85323479D01*
X216160183Y-85328100D01*
X215589817Y-85328100D01*
X215542905Y-85323479D01*
X215500792Y-85310705D01*
X215461976Y-85289957D01*
X215427959Y-85262041D01*
X215400043Y-85228024D01*
X215379295Y-85189208D01*
X215366521Y-85147095D01*
X215361900Y-85100183D01*
X215361900Y-84429817D01*
X215366521Y-84382905D01*
X215379295Y-84340792D01*
X215400043Y-84301976D01*
X215427959Y-84267959D01*
X215461976Y-84240043D01*
X215500792Y-84219295D01*
X215542905Y-84206521D01*
X215589817Y-84201900D01*
X216160183Y-84201900D01*
X216207095Y-84206521D01*
X216207095Y-84206521D01*
G37*
G36*
X206682095Y-84206521D02*
G01*
X206724208Y-84219295D01*
X206763024Y-84240043D01*
X206797041Y-84267959D01*
X206824957Y-84301976D01*
X206845705Y-84340792D01*
X206858479Y-84382905D01*
X206863100Y-84429817D01*
X206863100Y-85100183D01*
X206858479Y-85147095D01*
X206845705Y-85189208D01*
X206824957Y-85228024D01*
X206797041Y-85262041D01*
X206763024Y-85289957D01*
X206724208Y-85310705D01*
X206682095Y-85323479D01*
X206635183Y-85328100D01*
X206064817Y-85328100D01*
X206017905Y-85323479D01*
X205975792Y-85310705D01*
X205936976Y-85289957D01*
X205902959Y-85262041D01*
X205875043Y-85228024D01*
X205854295Y-85189208D01*
X205841521Y-85147095D01*
X205836900Y-85100183D01*
X205836900Y-84429817D01*
X205841521Y-84382905D01*
X205854295Y-84340792D01*
X205875043Y-84301976D01*
X205902959Y-84267959D01*
X205936976Y-84240043D01*
X205975792Y-84219295D01*
X206017905Y-84206521D01*
X206064817Y-84201900D01*
X206635183Y-84201900D01*
X206682095Y-84206521D01*
X206682095Y-84206521D01*
G37*
G36*
X218112095Y-84206521D02*
G01*
X218154208Y-84219295D01*
X218193024Y-84240043D01*
X218227041Y-84267959D01*
X218254957Y-84301976D01*
X218275705Y-84340792D01*
X218288479Y-84382905D01*
X218293100Y-84429817D01*
X218293100Y-85100183D01*
X218288479Y-85147095D01*
X218275705Y-85189208D01*
X218254957Y-85228024D01*
X218227041Y-85262041D01*
X218193024Y-85289957D01*
X218154208Y-85310705D01*
X218112095Y-85323479D01*
X218065183Y-85328100D01*
X217494817Y-85328100D01*
X217447905Y-85323479D01*
X217405792Y-85310705D01*
X217366976Y-85289957D01*
X217332959Y-85262041D01*
X217305043Y-85228024D01*
X217284295Y-85189208D01*
X217271521Y-85147095D01*
X217266900Y-85100183D01*
X217266900Y-84429817D01*
X217271521Y-84382905D01*
X217284295Y-84340792D01*
X217305043Y-84301976D01*
X217332959Y-84267959D01*
X217366976Y-84240043D01*
X217405792Y-84219295D01*
X217447905Y-84206521D01*
X217494817Y-84201900D01*
X218065183Y-84201900D01*
X218112095Y-84206521D01*
X218112095Y-84206521D01*
G37*
G36*
X209720522Y-84165839D02*
G01*
X209746228Y-84173637D01*
X209769908Y-84186294D01*
X209790668Y-84203332D01*
X209807706Y-84224092D01*
X209820363Y-84247772D01*
X209828161Y-84273478D01*
X209831100Y-84303317D01*
X209831100Y-84698683D01*
X209828161Y-84728522D01*
X209820363Y-84754228D01*
X209807706Y-84777908D01*
X209790668Y-84798668D01*
X209769908Y-84815706D01*
X209746228Y-84828363D01*
X209720522Y-84836161D01*
X209690683Y-84839100D01*
X207945317Y-84839100D01*
X207915478Y-84836161D01*
X207889772Y-84828363D01*
X207866092Y-84815706D01*
X207845332Y-84798668D01*
X207828294Y-84777908D01*
X207815637Y-84754228D01*
X207807839Y-84728522D01*
X207804900Y-84698683D01*
X207804900Y-84303317D01*
X207807839Y-84273478D01*
X207815637Y-84247772D01*
X207828294Y-84224092D01*
X207845332Y-84203332D01*
X207866092Y-84186294D01*
X207889772Y-84173637D01*
X207915478Y-84165839D01*
X207945317Y-84162900D01*
X209690683Y-84162900D01*
X209720522Y-84165839D01*
X209720522Y-84165839D01*
G37*
G36*
X214670522Y-84165839D02*
G01*
X214696228Y-84173637D01*
X214719908Y-84186294D01*
X214740668Y-84203332D01*
X214757706Y-84224092D01*
X214770363Y-84247772D01*
X214778161Y-84273478D01*
X214781100Y-84303317D01*
X214781100Y-84698683D01*
X214778161Y-84728522D01*
X214770363Y-84754228D01*
X214757706Y-84777908D01*
X214740668Y-84798668D01*
X214719908Y-84815706D01*
X214696228Y-84828363D01*
X214670522Y-84836161D01*
X214640683Y-84839100D01*
X212895317Y-84839100D01*
X212865478Y-84836161D01*
X212839772Y-84828363D01*
X212816092Y-84815706D01*
X212795332Y-84798668D01*
X212778294Y-84777908D01*
X212765637Y-84754228D01*
X212757839Y-84728522D01*
X212754900Y-84698683D01*
X212754900Y-84303317D01*
X212757839Y-84273478D01*
X212765637Y-84247772D01*
X212778294Y-84224092D01*
X212795332Y-84203332D01*
X212816092Y-84186294D01*
X212839772Y-84173637D01*
X212865478Y-84165839D01*
X212895317Y-84162900D01*
X214640683Y-84162900D01*
X214670522Y-84165839D01*
X214670522Y-84165839D01*
G37*
G36*
X71913899Y-81395474D02*
G01*
X72090731Y-81449115D01*
X72090734Y-81449116D01*
X72189091Y-81501689D01*
X72253701Y-81536224D01*
X72253702Y-81536225D01*
X72253704Y-81536226D01*
X72396547Y-81653453D01*
X72513775Y-81796296D01*
X72600884Y-81959265D01*
X72600884Y-81959266D01*
X72600885Y-81959268D01*
X72642638Y-82096909D01*
X72647400Y-82108405D01*
X72654316Y-82118755D01*
X72663118Y-82127557D01*
X72673468Y-82134473D01*
X72684968Y-82139237D01*
X72697177Y-82141665D01*
X72709625Y-82141665D01*
X72721834Y-82139237D01*
X72733334Y-82134473D01*
X72743684Y-82127557D01*
X72752486Y-82118755D01*
X72759402Y-82108405D01*
X72764166Y-82096905D01*
X72766594Y-82084696D01*
X72766900Y-82078472D01*
X72766900Y-81877158D01*
X72770413Y-81841493D01*
X72779906Y-81810197D01*
X72795324Y-81781353D01*
X72816072Y-81756072D01*
X72841353Y-81735324D01*
X72870197Y-81719906D01*
X72901493Y-81710413D01*
X72937158Y-81706900D01*
X73622842Y-81706900D01*
X73658507Y-81710413D01*
X73689803Y-81719906D01*
X73718647Y-81735324D01*
X73743928Y-81756072D01*
X73764676Y-81781353D01*
X73780094Y-81810197D01*
X73789587Y-81841493D01*
X73793100Y-81877158D01*
X73793100Y-83362842D01*
X73789587Y-83398507D01*
X73780094Y-83429803D01*
X73764676Y-83458647D01*
X73743928Y-83483928D01*
X73718647Y-83504676D01*
X73689803Y-83520094D01*
X73658507Y-83529587D01*
X73622842Y-83533100D01*
X72937158Y-83533100D01*
X72901493Y-83529587D01*
X72870197Y-83520094D01*
X72841353Y-83504676D01*
X72816072Y-83483928D01*
X72795324Y-83458647D01*
X72779906Y-83429803D01*
X72770413Y-83398507D01*
X72766900Y-83362842D01*
X72766900Y-83161527D01*
X72765680Y-83149139D01*
X72762066Y-83137227D01*
X72756198Y-83126249D01*
X72748302Y-83116626D01*
X72738679Y-83108730D01*
X72727701Y-83102862D01*
X72715789Y-83099248D01*
X72703401Y-83098028D01*
X72691013Y-83099248D01*
X72679101Y-83102862D01*
X72668123Y-83108730D01*
X72658500Y-83116626D01*
X72650604Y-83126249D01*
X72644736Y-83137227D01*
X72642641Y-83143081D01*
X72637045Y-83161527D01*
X72600884Y-83280735D01*
X72513775Y-83443704D01*
X72396547Y-83586547D01*
X72253704Y-83703775D01*
X72090735Y-83790884D01*
X72090732Y-83790885D01*
X71913900Y-83844526D01*
X71730000Y-83862639D01*
X71546101Y-83844526D01*
X71369269Y-83790885D01*
X71369266Y-83790884D01*
X71206297Y-83703775D01*
X71063454Y-83586547D01*
X70946226Y-83443704D01*
X70859117Y-83280735D01*
X70859116Y-83280732D01*
X70817362Y-83143090D01*
X70812600Y-83131594D01*
X70805684Y-83121244D01*
X70796882Y-83112441D01*
X70786532Y-83105526D01*
X70775032Y-83100762D01*
X70762823Y-83098334D01*
X70750375Y-83098334D01*
X70738166Y-83100762D01*
X70726666Y-83105526D01*
X70716316Y-83112442D01*
X70707513Y-83121244D01*
X70700598Y-83131594D01*
X70695834Y-83143094D01*
X70693100Y-83161527D01*
X70693100Y-83362842D01*
X70689587Y-83398507D01*
X70680094Y-83429803D01*
X70664676Y-83458647D01*
X70643928Y-83483928D01*
X70618647Y-83504676D01*
X70589803Y-83520094D01*
X70558507Y-83529587D01*
X70522842Y-83533100D01*
X69837158Y-83533100D01*
X69801493Y-83529587D01*
X69770197Y-83520094D01*
X69741353Y-83504676D01*
X69716072Y-83483928D01*
X69695324Y-83458647D01*
X69679906Y-83429803D01*
X69670413Y-83398507D01*
X69666900Y-83362842D01*
X69666900Y-81877158D01*
X69670413Y-81841493D01*
X69679906Y-81810197D01*
X69695324Y-81781353D01*
X69716072Y-81756072D01*
X69741353Y-81735324D01*
X69770197Y-81719906D01*
X69801493Y-81710413D01*
X69837158Y-81706900D01*
X70522842Y-81706900D01*
X70558507Y-81710413D01*
X70589803Y-81719906D01*
X70618647Y-81735324D01*
X70643928Y-81756072D01*
X70664676Y-81781353D01*
X70680094Y-81810197D01*
X70689587Y-81841493D01*
X70693100Y-81877158D01*
X70693100Y-82078473D01*
X70694320Y-82090861D01*
X70697934Y-82102773D01*
X70703802Y-82113751D01*
X70711698Y-82123374D01*
X70721321Y-82131270D01*
X70732299Y-82137138D01*
X70744211Y-82140752D01*
X70756599Y-82141972D01*
X70768987Y-82140752D01*
X70780899Y-82137138D01*
X70791877Y-82131270D01*
X70801500Y-82123374D01*
X70809396Y-82113751D01*
X70815264Y-82102773D01*
X70817364Y-82096906D01*
X70819198Y-82090861D01*
X70859115Y-81959269D01*
X70859116Y-81959266D01*
X70911689Y-81860909D01*
X70946224Y-81796299D01*
X70949793Y-81791950D01*
X71063453Y-81653453D01*
X71206296Y-81536225D01*
X71369265Y-81449116D01*
X71369268Y-81449115D01*
X71546100Y-81395474D01*
X71730000Y-81377361D01*
X71913899Y-81395474D01*
X71913899Y-81395474D01*
G37*
G36*
X206682095Y-82456521D02*
G01*
X206724208Y-82469295D01*
X206763024Y-82490043D01*
X206797041Y-82517959D01*
X206824957Y-82551976D01*
X206845705Y-82590792D01*
X206858479Y-82632905D01*
X206863100Y-82679817D01*
X206863100Y-83350183D01*
X206858479Y-83397095D01*
X206845705Y-83439208D01*
X206824957Y-83478024D01*
X206797041Y-83512041D01*
X206763024Y-83539957D01*
X206724208Y-83560705D01*
X206682095Y-83573479D01*
X206635183Y-83578100D01*
X206064817Y-83578100D01*
X206017905Y-83573479D01*
X205975792Y-83560705D01*
X205936976Y-83539957D01*
X205902959Y-83512041D01*
X205875043Y-83478024D01*
X205854295Y-83439208D01*
X205841521Y-83397095D01*
X205836900Y-83350183D01*
X205836900Y-82679817D01*
X205841521Y-82632905D01*
X205854295Y-82590792D01*
X205875043Y-82551976D01*
X205902959Y-82517959D01*
X205936976Y-82490043D01*
X205975792Y-82469295D01*
X206017905Y-82456521D01*
X206064817Y-82451900D01*
X206635183Y-82451900D01*
X206682095Y-82456521D01*
X206682095Y-82456521D01*
G37*
G36*
X216207095Y-82456521D02*
G01*
X216249208Y-82469295D01*
X216288024Y-82490043D01*
X216322041Y-82517959D01*
X216349957Y-82551976D01*
X216370705Y-82590792D01*
X216383479Y-82632905D01*
X216388100Y-82679817D01*
X216388100Y-83350183D01*
X216383479Y-83397095D01*
X216370705Y-83439208D01*
X216349957Y-83478024D01*
X216322041Y-83512041D01*
X216288024Y-83539957D01*
X216249208Y-83560705D01*
X216207095Y-83573479D01*
X216160183Y-83578100D01*
X215589817Y-83578100D01*
X215542905Y-83573479D01*
X215500792Y-83560705D01*
X215461976Y-83539957D01*
X215427959Y-83512041D01*
X215400043Y-83478024D01*
X215379295Y-83439208D01*
X215366521Y-83397095D01*
X215361900Y-83350183D01*
X215361900Y-82679817D01*
X215366521Y-82632905D01*
X215379295Y-82590792D01*
X215400043Y-82551976D01*
X215427959Y-82517959D01*
X215461976Y-82490043D01*
X215500792Y-82469295D01*
X215542905Y-82456521D01*
X215589817Y-82451900D01*
X216160183Y-82451900D01*
X216207095Y-82456521D01*
X216207095Y-82456521D01*
G37*
G36*
X218112095Y-82456521D02*
G01*
X218154208Y-82469295D01*
X218193024Y-82490043D01*
X218227041Y-82517959D01*
X218254957Y-82551976D01*
X218275705Y-82590792D01*
X218288479Y-82632905D01*
X218293100Y-82679817D01*
X218293100Y-83350183D01*
X218288479Y-83397095D01*
X218275705Y-83439208D01*
X218254957Y-83478024D01*
X218227041Y-83512041D01*
X218193024Y-83539957D01*
X218154208Y-83560705D01*
X218112095Y-83573479D01*
X218065183Y-83578100D01*
X217494817Y-83578100D01*
X217447905Y-83573479D01*
X217405792Y-83560705D01*
X217366976Y-83539957D01*
X217332959Y-83512041D01*
X217305043Y-83478024D01*
X217284295Y-83439208D01*
X217271521Y-83397095D01*
X217266900Y-83350183D01*
X217266900Y-82679817D01*
X217271521Y-82632905D01*
X217284295Y-82590792D01*
X217305043Y-82551976D01*
X217332959Y-82517959D01*
X217366976Y-82490043D01*
X217405792Y-82469295D01*
X217447905Y-82456521D01*
X217494817Y-82451900D01*
X218065183Y-82451900D01*
X218112095Y-82456521D01*
X218112095Y-82456521D01*
G37*
G36*
X209720522Y-82895839D02*
G01*
X209746228Y-82903637D01*
X209769908Y-82916294D01*
X209790668Y-82933332D01*
X209807706Y-82954092D01*
X209820363Y-82977772D01*
X209828161Y-83003478D01*
X209831100Y-83033317D01*
X209831100Y-83428683D01*
X209828161Y-83458522D01*
X209820363Y-83484228D01*
X209807706Y-83507908D01*
X209790668Y-83528668D01*
X209769908Y-83545706D01*
X209746228Y-83558363D01*
X209720522Y-83566161D01*
X209690683Y-83569100D01*
X207945317Y-83569100D01*
X207915478Y-83566161D01*
X207889772Y-83558363D01*
X207866092Y-83545706D01*
X207845332Y-83528668D01*
X207828294Y-83507908D01*
X207815637Y-83484228D01*
X207807839Y-83458522D01*
X207804900Y-83428683D01*
X207804900Y-83033317D01*
X207807839Y-83003478D01*
X207815637Y-82977772D01*
X207828294Y-82954092D01*
X207845332Y-82933332D01*
X207866092Y-82916294D01*
X207889772Y-82903637D01*
X207915478Y-82895839D01*
X207945317Y-82892900D01*
X209690683Y-82892900D01*
X209720522Y-82895839D01*
X209720522Y-82895839D01*
G37*
G36*
X214670522Y-82895839D02*
G01*
X214696228Y-82903637D01*
X214719908Y-82916294D01*
X214740668Y-82933332D01*
X214757706Y-82954092D01*
X214770363Y-82977772D01*
X214778161Y-83003478D01*
X214781100Y-83033317D01*
X214781100Y-83428683D01*
X214778161Y-83458522D01*
X214770363Y-83484228D01*
X214757706Y-83507908D01*
X214740668Y-83528668D01*
X214719908Y-83545706D01*
X214696228Y-83558363D01*
X214670522Y-83566161D01*
X214640683Y-83569100D01*
X212895317Y-83569100D01*
X212865478Y-83566161D01*
X212839772Y-83558363D01*
X212816092Y-83545706D01*
X212795332Y-83528668D01*
X212778294Y-83507908D01*
X212765637Y-83484228D01*
X212757839Y-83458522D01*
X212754900Y-83428683D01*
X212754900Y-83033317D01*
X212757839Y-83003478D01*
X212765637Y-82977772D01*
X212778294Y-82954092D01*
X212795332Y-82933332D01*
X212816092Y-82916294D01*
X212839772Y-82903637D01*
X212865478Y-82895839D01*
X212895317Y-82892900D01*
X214640683Y-82892900D01*
X214670522Y-82895839D01*
X214670522Y-82895839D01*
G37*
G36*
X209720522Y-81625839D02*
G01*
X209746228Y-81633637D01*
X209769908Y-81646294D01*
X209790668Y-81663332D01*
X209807706Y-81684092D01*
X209820363Y-81707772D01*
X209828161Y-81733478D01*
X209831100Y-81763317D01*
X209831100Y-82158683D01*
X209828161Y-82188522D01*
X209820363Y-82214228D01*
X209807706Y-82237908D01*
X209790668Y-82258668D01*
X209769908Y-82275706D01*
X209746228Y-82288363D01*
X209720522Y-82296161D01*
X209690683Y-82299100D01*
X207945317Y-82299100D01*
X207915478Y-82296161D01*
X207889772Y-82288363D01*
X207866092Y-82275706D01*
X207845332Y-82258668D01*
X207828294Y-82237908D01*
X207815637Y-82214228D01*
X207807839Y-82188522D01*
X207804900Y-82158683D01*
X207804900Y-81763317D01*
X207807839Y-81733478D01*
X207815637Y-81707772D01*
X207828294Y-81684092D01*
X207845332Y-81663332D01*
X207866092Y-81646294D01*
X207889772Y-81633637D01*
X207915478Y-81625839D01*
X207945317Y-81622900D01*
X209690683Y-81622900D01*
X209720522Y-81625839D01*
X209720522Y-81625839D01*
G37*
G36*
X214670522Y-81625839D02*
G01*
X214696228Y-81633637D01*
X214719908Y-81646294D01*
X214740668Y-81663332D01*
X214757706Y-81684092D01*
X214770363Y-81707772D01*
X214778161Y-81733478D01*
X214781100Y-81763317D01*
X214781100Y-82158683D01*
X214778161Y-82188522D01*
X214770363Y-82214228D01*
X214757706Y-82237908D01*
X214740668Y-82258668D01*
X214719908Y-82275706D01*
X214696228Y-82288363D01*
X214670522Y-82296161D01*
X214640683Y-82299100D01*
X212895317Y-82299100D01*
X212865478Y-82296161D01*
X212839772Y-82288363D01*
X212816092Y-82275706D01*
X212795332Y-82258668D01*
X212778294Y-82237908D01*
X212765637Y-82214228D01*
X212757839Y-82188522D01*
X212754900Y-82158683D01*
X212754900Y-81763317D01*
X212757839Y-81733478D01*
X212765637Y-81707772D01*
X212778294Y-81684092D01*
X212795332Y-81663332D01*
X212816092Y-81646294D01*
X212839772Y-81633637D01*
X212865478Y-81625839D01*
X212895317Y-81622900D01*
X214640683Y-81622900D01*
X214670522Y-81625839D01*
X214670522Y-81625839D01*
G37*
G36*
X200688170Y-70356940D02*
G01*
X201367471Y-70492061D01*
X201973191Y-70742959D01*
X202220648Y-70845459D01*
X202988490Y-71358515D01*
X203641485Y-72011510D01*
X204154541Y-72779352D01*
X204154542Y-72779355D01*
X204507939Y-73632529D01*
X204623520Y-74213598D01*
X204688100Y-74538262D01*
X204688100Y-75461738D01*
X204674693Y-75529139D01*
X204507939Y-76367471D01*
X204335779Y-76783100D01*
X204154541Y-77220648D01*
X203641485Y-77988490D01*
X202988490Y-78641485D01*
X202220648Y-79154541D01*
X202149025Y-79184208D01*
X201367471Y-79507939D01*
X200688171Y-79643060D01*
X200461738Y-79688100D01*
X199538262Y-79688100D01*
X199311830Y-79643060D01*
X198632529Y-79507939D01*
X197850975Y-79184208D01*
X197779352Y-79154541D01*
X197011510Y-78641485D01*
X196358515Y-77988490D01*
X195845459Y-77220648D01*
X195664221Y-76783100D01*
X195492061Y-76367471D01*
X195325307Y-75529139D01*
X195311900Y-75461738D01*
X195311900Y-74538262D01*
X195376480Y-74213598D01*
X195492061Y-73632529D01*
X195845458Y-72779355D01*
X195845459Y-72779352D01*
X196358515Y-72011510D01*
X197011510Y-71358515D01*
X197779352Y-70845459D01*
X198026809Y-70742959D01*
X198632529Y-70492061D01*
X199311830Y-70356940D01*
X199538262Y-70311900D01*
X200461738Y-70311900D01*
X200688170Y-70356940D01*
X200688170Y-70356940D01*
G37*
G36*
X191438100Y-79348100D02*
G01*
X188211900Y-79348100D01*
X188211900Y-78271900D01*
X191438100Y-78271900D01*
X191438100Y-79348100D01*
X191438100Y-79348100D01*
G37*
G36*
X186388100Y-79348100D02*
G01*
X183161900Y-79348100D01*
X183161900Y-78271900D01*
X186388100Y-78271900D01*
X186388100Y-79348100D01*
X186388100Y-79348100D01*
G37*
G36*
X71237095Y-78301521D02*
G01*
X71279208Y-78314295D01*
X71318024Y-78335043D01*
X71352041Y-78362959D01*
X71379957Y-78396976D01*
X71400705Y-78435792D01*
X71413479Y-78477905D01*
X71418100Y-78524817D01*
X71418100Y-79095183D01*
X71413479Y-79142095D01*
X71400705Y-79184208D01*
X71379957Y-79223024D01*
X71352041Y-79257041D01*
X71318024Y-79284957D01*
X71279208Y-79305705D01*
X71237095Y-79318479D01*
X71190183Y-79323100D01*
X70519817Y-79323100D01*
X70472905Y-79318479D01*
X70430792Y-79305705D01*
X70391976Y-79284957D01*
X70357959Y-79257041D01*
X70330043Y-79223024D01*
X70309295Y-79184208D01*
X70296521Y-79142095D01*
X70291900Y-79095183D01*
X70291900Y-78524817D01*
X70296521Y-78477905D01*
X70309295Y-78435792D01*
X70330043Y-78396976D01*
X70357959Y-78362959D01*
X70391976Y-78335043D01*
X70430792Y-78314295D01*
X70472905Y-78301521D01*
X70519817Y-78296900D01*
X71190183Y-78296900D01*
X71237095Y-78301521D01*
X71237095Y-78301521D01*
G37*
G36*
X72987095Y-78301521D02*
G01*
X73029208Y-78314295D01*
X73068024Y-78335043D01*
X73102041Y-78362959D01*
X73129957Y-78396976D01*
X73150705Y-78435792D01*
X73163479Y-78477905D01*
X73168100Y-78524817D01*
X73168100Y-79095183D01*
X73163479Y-79142095D01*
X73150705Y-79184208D01*
X73129957Y-79223024D01*
X73102041Y-79257041D01*
X73068024Y-79284957D01*
X73029208Y-79305705D01*
X72987095Y-79318479D01*
X72940183Y-79323100D01*
X72269817Y-79323100D01*
X72222905Y-79318479D01*
X72180792Y-79305705D01*
X72141976Y-79284957D01*
X72107959Y-79257041D01*
X72080043Y-79223024D01*
X72059295Y-79184208D01*
X72046521Y-79142095D01*
X72041900Y-79095183D01*
X72041900Y-78524817D01*
X72046521Y-78477905D01*
X72059295Y-78435792D01*
X72080043Y-78396976D01*
X72107959Y-78362959D01*
X72141976Y-78335043D01*
X72180792Y-78314295D01*
X72222905Y-78301521D01*
X72269817Y-78296900D01*
X72940183Y-78296900D01*
X72987095Y-78301521D01*
X72987095Y-78301521D01*
G37*
G36*
X211008100Y-77138100D02*
G01*
X208931900Y-77138100D01*
X208931900Y-72861900D01*
X211008100Y-72861900D01*
X211008100Y-77138100D01*
X211008100Y-77138100D01*
G37*
G36*
X219008100Y-77138100D02*
G01*
X216931900Y-77138100D01*
X216931900Y-72861900D01*
X219008100Y-72861900D01*
X219008100Y-77138100D01*
X219008100Y-77138100D01*
G37*
G36*
X186388100Y-76808100D02*
G01*
X183161900Y-76808100D01*
X183161900Y-75731900D01*
X186388100Y-75731900D01*
X186388100Y-76808100D01*
X186388100Y-76808100D01*
G37*
G36*
X191438100Y-76808100D02*
G01*
X188211900Y-76808100D01*
X188211900Y-75731900D01*
X191438100Y-75731900D01*
X191438100Y-76808100D01*
X191438100Y-76808100D01*
G37*
G36*
X181572095Y-75761521D02*
G01*
X181614208Y-75774295D01*
X181653024Y-75795043D01*
X181687041Y-75822959D01*
X181714957Y-75856976D01*
X181735705Y-75895792D01*
X181748479Y-75937905D01*
X181753100Y-75984817D01*
X181753100Y-76555183D01*
X181748479Y-76602095D01*
X181735705Y-76644208D01*
X181714957Y-76683024D01*
X181687041Y-76717041D01*
X181653024Y-76744957D01*
X181614208Y-76765705D01*
X181572095Y-76778479D01*
X181525183Y-76783100D01*
X180854817Y-76783100D01*
X180807905Y-76778479D01*
X180765792Y-76765705D01*
X180726976Y-76744957D01*
X180692959Y-76717041D01*
X180665043Y-76683024D01*
X180644295Y-76644208D01*
X180631521Y-76602095D01*
X180626900Y-76555183D01*
X180626900Y-75984817D01*
X180631521Y-75937905D01*
X180644295Y-75895792D01*
X180665043Y-75856976D01*
X180692959Y-75822959D01*
X180726976Y-75795043D01*
X180765792Y-75774295D01*
X180807905Y-75761521D01*
X180854817Y-75756900D01*
X181525183Y-75756900D01*
X181572095Y-75761521D01*
X181572095Y-75761521D01*
G37*
G36*
X179822095Y-75761521D02*
G01*
X179864208Y-75774295D01*
X179903024Y-75795043D01*
X179937041Y-75822959D01*
X179964957Y-75856976D01*
X179985705Y-75895792D01*
X179998479Y-75937905D01*
X180003100Y-75984817D01*
X180003100Y-76555183D01*
X179998479Y-76602095D01*
X179985705Y-76644208D01*
X179964957Y-76683024D01*
X179937041Y-76717041D01*
X179903024Y-76744957D01*
X179864208Y-76765705D01*
X179822095Y-76778479D01*
X179775183Y-76783100D01*
X179104817Y-76783100D01*
X179057905Y-76778479D01*
X179015792Y-76765705D01*
X178976976Y-76744957D01*
X178942959Y-76717041D01*
X178915043Y-76683024D01*
X178894295Y-76644208D01*
X178881521Y-76602095D01*
X178876900Y-76555183D01*
X178876900Y-75984817D01*
X178881521Y-75937905D01*
X178894295Y-75895792D01*
X178915043Y-75856976D01*
X178942959Y-75822959D01*
X178976976Y-75795043D01*
X179015792Y-75774295D01*
X179057905Y-75761521D01*
X179104817Y-75756900D01*
X179775183Y-75756900D01*
X179822095Y-75761521D01*
X179822095Y-75761521D01*
G37*
G36*
X71913899Y-73775474D02*
G01*
X72090731Y-73829115D01*
X72090734Y-73829116D01*
X72189091Y-73881689D01*
X72253701Y-73916224D01*
X72253702Y-73916225D01*
X72253704Y-73916226D01*
X72396547Y-74033453D01*
X72513775Y-74176296D01*
X72600884Y-74339265D01*
X72600884Y-74339266D01*
X72600885Y-74339268D01*
X72642638Y-74476909D01*
X72647400Y-74488405D01*
X72654316Y-74498755D01*
X72663118Y-74507557D01*
X72673468Y-74514473D01*
X72684968Y-74519237D01*
X72697177Y-74521665D01*
X72709625Y-74521665D01*
X72721834Y-74519237D01*
X72733334Y-74514473D01*
X72743684Y-74507557D01*
X72752486Y-74498755D01*
X72759402Y-74488405D01*
X72764166Y-74476905D01*
X72766594Y-74464696D01*
X72766900Y-74458472D01*
X72766900Y-74257158D01*
X72770413Y-74221493D01*
X72779906Y-74190197D01*
X72795324Y-74161353D01*
X72816072Y-74136072D01*
X72841353Y-74115324D01*
X72870197Y-74099906D01*
X72901493Y-74090413D01*
X72937158Y-74086900D01*
X73622842Y-74086900D01*
X73658507Y-74090413D01*
X73689803Y-74099906D01*
X73718647Y-74115324D01*
X73743928Y-74136072D01*
X73764676Y-74161353D01*
X73780094Y-74190197D01*
X73789587Y-74221493D01*
X73793100Y-74257158D01*
X73793100Y-75742842D01*
X73789587Y-75778507D01*
X73780094Y-75809803D01*
X73764676Y-75838647D01*
X73743928Y-75863928D01*
X73718647Y-75884676D01*
X73689803Y-75900094D01*
X73658507Y-75909587D01*
X73622842Y-75913100D01*
X72937158Y-75913100D01*
X72901493Y-75909587D01*
X72870197Y-75900094D01*
X72841353Y-75884676D01*
X72816072Y-75863928D01*
X72795324Y-75838647D01*
X72779906Y-75809803D01*
X72770413Y-75778507D01*
X72766900Y-75742842D01*
X72766900Y-75541527D01*
X72765680Y-75529139D01*
X72762066Y-75517227D01*
X72756198Y-75506249D01*
X72748302Y-75496626D01*
X72738679Y-75488730D01*
X72727701Y-75482862D01*
X72715789Y-75479248D01*
X72703401Y-75478028D01*
X72691013Y-75479248D01*
X72679101Y-75482862D01*
X72668123Y-75488730D01*
X72658500Y-75496626D01*
X72650604Y-75506249D01*
X72644736Y-75517227D01*
X72642641Y-75523081D01*
X72637045Y-75541527D01*
X72600884Y-75660735D01*
X72513775Y-75823704D01*
X72396547Y-75966547D01*
X72253704Y-76083775D01*
X72090735Y-76170884D01*
X72090732Y-76170885D01*
X71913900Y-76224526D01*
X71730000Y-76242639D01*
X71546101Y-76224526D01*
X71369269Y-76170885D01*
X71369266Y-76170884D01*
X71206297Y-76083775D01*
X71063454Y-75966547D01*
X70946226Y-75823704D01*
X70859117Y-75660735D01*
X70859116Y-75660732D01*
X70817362Y-75523090D01*
X70812600Y-75511594D01*
X70805684Y-75501244D01*
X70796882Y-75492441D01*
X70786532Y-75485526D01*
X70775032Y-75480762D01*
X70762823Y-75478334D01*
X70750375Y-75478334D01*
X70738166Y-75480762D01*
X70726666Y-75485526D01*
X70716316Y-75492442D01*
X70707513Y-75501244D01*
X70700598Y-75511594D01*
X70695834Y-75523094D01*
X70693100Y-75541527D01*
X70693100Y-75742842D01*
X70689587Y-75778507D01*
X70680094Y-75809803D01*
X70664676Y-75838647D01*
X70643928Y-75863928D01*
X70618647Y-75884676D01*
X70589803Y-75900094D01*
X70558507Y-75909587D01*
X70522842Y-75913100D01*
X69837158Y-75913100D01*
X69801493Y-75909587D01*
X69770197Y-75900094D01*
X69741353Y-75884676D01*
X69716072Y-75863928D01*
X69695324Y-75838647D01*
X69679906Y-75809803D01*
X69670413Y-75778507D01*
X69666900Y-75742842D01*
X69666900Y-74257158D01*
X69670413Y-74221493D01*
X69679906Y-74190197D01*
X69695324Y-74161353D01*
X69716072Y-74136072D01*
X69741353Y-74115324D01*
X69770197Y-74099906D01*
X69801493Y-74090413D01*
X69837158Y-74086900D01*
X70522842Y-74086900D01*
X70558507Y-74090413D01*
X70589803Y-74099906D01*
X70618647Y-74115324D01*
X70643928Y-74136072D01*
X70664676Y-74161353D01*
X70680094Y-74190197D01*
X70689587Y-74221493D01*
X70693100Y-74257158D01*
X70693100Y-74458473D01*
X70694320Y-74470861D01*
X70697934Y-74482773D01*
X70703802Y-74493751D01*
X70711698Y-74503374D01*
X70721321Y-74511270D01*
X70732299Y-74517138D01*
X70744211Y-74520752D01*
X70756599Y-74521972D01*
X70768987Y-74520752D01*
X70780899Y-74517138D01*
X70791877Y-74511270D01*
X70801500Y-74503374D01*
X70809396Y-74493751D01*
X70815264Y-74482773D01*
X70817364Y-74476906D01*
X70819198Y-74470861D01*
X70859115Y-74339269D01*
X70859116Y-74339266D01*
X70920957Y-74223571D01*
X70946224Y-74176299D01*
X70953069Y-74167958D01*
X71063453Y-74033453D01*
X71206296Y-73916225D01*
X71369265Y-73829116D01*
X71369268Y-73829115D01*
X71546100Y-73775474D01*
X71730000Y-73757361D01*
X71913899Y-73775474D01*
X71913899Y-73775474D01*
G37*
G36*
X186388100Y-74268100D02*
G01*
X183161900Y-74268100D01*
X183161900Y-73191900D01*
X186388100Y-73191900D01*
X186388100Y-74268100D01*
X186388100Y-74268100D01*
G37*
G36*
X191438100Y-74268100D02*
G01*
X188211900Y-74268100D01*
X188211900Y-73191900D01*
X191438100Y-73191900D01*
X191438100Y-74268100D01*
X191438100Y-74268100D01*
G37*
G36*
X181572095Y-73221521D02*
G01*
X181614208Y-73234295D01*
X181653024Y-73255043D01*
X181687041Y-73282959D01*
X181714957Y-73316976D01*
X181735705Y-73355792D01*
X181748479Y-73397905D01*
X181753100Y-73444817D01*
X181753100Y-74015183D01*
X181748479Y-74062095D01*
X181735705Y-74104208D01*
X181714957Y-74143024D01*
X181687041Y-74177041D01*
X181653024Y-74204957D01*
X181614208Y-74225705D01*
X181572095Y-74238479D01*
X181525183Y-74243100D01*
X180854817Y-74243100D01*
X180807905Y-74238479D01*
X180765792Y-74225705D01*
X180726976Y-74204957D01*
X180692959Y-74177041D01*
X180665043Y-74143024D01*
X180644295Y-74104208D01*
X180631521Y-74062095D01*
X180626900Y-74015183D01*
X180626900Y-73444817D01*
X180631521Y-73397905D01*
X180644295Y-73355792D01*
X180665043Y-73316976D01*
X180692959Y-73282959D01*
X180726976Y-73255043D01*
X180765792Y-73234295D01*
X180807905Y-73221521D01*
X180854817Y-73216900D01*
X181525183Y-73216900D01*
X181572095Y-73221521D01*
X181572095Y-73221521D01*
G37*
G36*
X179822095Y-73221521D02*
G01*
X179864208Y-73234295D01*
X179903024Y-73255043D01*
X179937041Y-73282959D01*
X179964957Y-73316976D01*
X179985705Y-73355792D01*
X179998479Y-73397905D01*
X180003100Y-73444817D01*
X180003100Y-74015183D01*
X179998479Y-74062095D01*
X179985705Y-74104208D01*
X179964957Y-74143024D01*
X179937041Y-74177041D01*
X179903024Y-74204957D01*
X179864208Y-74225705D01*
X179822095Y-74238479D01*
X179775183Y-74243100D01*
X179104817Y-74243100D01*
X179057905Y-74238479D01*
X179015792Y-74225705D01*
X178976976Y-74204957D01*
X178942959Y-74177041D01*
X178915043Y-74143024D01*
X178894295Y-74104208D01*
X178881521Y-74062095D01*
X178876900Y-74015183D01*
X178876900Y-73444817D01*
X178881521Y-73397905D01*
X178894295Y-73355792D01*
X178915043Y-73316976D01*
X178942959Y-73282959D01*
X178976976Y-73255043D01*
X179015792Y-73234295D01*
X179057905Y-73221521D01*
X179104817Y-73216900D01*
X179775183Y-73216900D01*
X179822095Y-73221521D01*
X179822095Y-73221521D01*
G37*
G36*
X191438100Y-71728100D02*
G01*
X188211900Y-71728100D01*
X188211900Y-70651900D01*
X191438100Y-70651900D01*
X191438100Y-71728100D01*
X191438100Y-71728100D01*
G37*
G36*
X186388100Y-71728100D02*
G01*
X183161900Y-71728100D01*
X183161900Y-70651900D01*
X186388100Y-70651900D01*
X186388100Y-71728100D01*
X186388100Y-71728100D01*
G37*
G36*
X71237095Y-70681521D02*
G01*
X71279208Y-70694295D01*
X71318024Y-70715043D01*
X71352041Y-70742959D01*
X71379957Y-70776976D01*
X71400705Y-70815792D01*
X71413479Y-70857905D01*
X71418100Y-70904817D01*
X71418100Y-71475183D01*
X71413479Y-71522095D01*
X71400705Y-71564208D01*
X71379957Y-71603024D01*
X71352041Y-71637041D01*
X71318024Y-71664957D01*
X71279208Y-71685705D01*
X71237095Y-71698479D01*
X71190183Y-71703100D01*
X70519817Y-71703100D01*
X70472905Y-71698479D01*
X70430792Y-71685705D01*
X70391976Y-71664957D01*
X70357959Y-71637041D01*
X70330043Y-71603024D01*
X70309295Y-71564208D01*
X70296521Y-71522095D01*
X70291900Y-71475183D01*
X70291900Y-70904817D01*
X70296521Y-70857905D01*
X70309295Y-70815792D01*
X70330043Y-70776976D01*
X70357959Y-70742959D01*
X70391976Y-70715043D01*
X70430792Y-70694295D01*
X70472905Y-70681521D01*
X70519817Y-70676900D01*
X71190183Y-70676900D01*
X71237095Y-70681521D01*
X71237095Y-70681521D01*
G37*
G36*
X72987095Y-70681521D02*
G01*
X73029208Y-70694295D01*
X73068024Y-70715043D01*
X73102041Y-70742959D01*
X73129957Y-70776976D01*
X73150705Y-70815792D01*
X73163479Y-70857905D01*
X73168100Y-70904817D01*
X73168100Y-71475183D01*
X73163479Y-71522095D01*
X73150705Y-71564208D01*
X73129957Y-71603024D01*
X73102041Y-71637041D01*
X73068024Y-71664957D01*
X73029208Y-71685705D01*
X72987095Y-71698479D01*
X72940183Y-71703100D01*
X72269817Y-71703100D01*
X72222905Y-71698479D01*
X72180792Y-71685705D01*
X72141976Y-71664957D01*
X72107959Y-71637041D01*
X72080043Y-71603024D01*
X72059295Y-71564208D01*
X72046521Y-71522095D01*
X72041900Y-71475183D01*
X72041900Y-70904817D01*
X72046521Y-70857905D01*
X72059295Y-70815792D01*
X72080043Y-70776976D01*
X72107959Y-70742959D01*
X72141976Y-70715043D01*
X72180792Y-70694295D01*
X72222905Y-70681521D01*
X72269817Y-70676900D01*
X72940183Y-70676900D01*
X72987095Y-70681521D01*
X72987095Y-70681521D01*
G37*
G36*
X71913899Y-66155474D02*
G01*
X72090731Y-66209115D01*
X72090734Y-66209116D01*
X72189091Y-66261689D01*
X72253701Y-66296224D01*
X72253702Y-66296225D01*
X72253704Y-66296226D01*
X72396547Y-66413453D01*
X72513775Y-66556296D01*
X72600884Y-66719265D01*
X72600884Y-66719266D01*
X72600885Y-66719268D01*
X72642638Y-66856909D01*
X72647400Y-66868405D01*
X72654316Y-66878755D01*
X72663118Y-66887557D01*
X72673468Y-66894473D01*
X72684968Y-66899237D01*
X72697177Y-66901665D01*
X72709625Y-66901665D01*
X72721834Y-66899237D01*
X72733334Y-66894473D01*
X72743684Y-66887557D01*
X72752486Y-66878755D01*
X72759402Y-66868405D01*
X72764166Y-66856905D01*
X72766594Y-66844696D01*
X72766900Y-66838472D01*
X72766900Y-66637158D01*
X72770413Y-66601493D01*
X72779906Y-66570197D01*
X72795324Y-66541353D01*
X72816072Y-66516072D01*
X72841353Y-66495324D01*
X72870197Y-66479906D01*
X72901493Y-66470413D01*
X72937158Y-66466900D01*
X73622842Y-66466900D01*
X73658507Y-66470413D01*
X73689803Y-66479906D01*
X73718647Y-66495324D01*
X73743928Y-66516072D01*
X73764676Y-66541353D01*
X73780094Y-66570197D01*
X73789587Y-66601493D01*
X73793100Y-66637158D01*
X73793100Y-68122842D01*
X73789587Y-68158507D01*
X73780094Y-68189803D01*
X73764676Y-68218647D01*
X73743928Y-68243928D01*
X73718647Y-68264676D01*
X73689803Y-68280094D01*
X73658507Y-68289587D01*
X73622842Y-68293100D01*
X72937158Y-68293100D01*
X72901493Y-68289587D01*
X72870197Y-68280094D01*
X72841353Y-68264676D01*
X72816072Y-68243928D01*
X72795324Y-68218647D01*
X72779906Y-68189803D01*
X72770413Y-68158507D01*
X72766900Y-68122842D01*
X72766900Y-67921527D01*
X72765680Y-67909139D01*
X72762066Y-67897227D01*
X72756198Y-67886249D01*
X72748302Y-67876626D01*
X72738679Y-67868730D01*
X72727701Y-67862862D01*
X72715789Y-67859248D01*
X72703401Y-67858028D01*
X72691013Y-67859248D01*
X72679101Y-67862862D01*
X72668123Y-67868730D01*
X72658500Y-67876626D01*
X72650604Y-67886249D01*
X72644736Y-67897227D01*
X72642641Y-67903081D01*
X72637045Y-67921527D01*
X72600884Y-68040735D01*
X72513775Y-68203704D01*
X72396547Y-68346547D01*
X72253704Y-68463775D01*
X72090735Y-68550884D01*
X72090732Y-68550885D01*
X71913900Y-68604526D01*
X71730000Y-68622639D01*
X71546101Y-68604526D01*
X71369269Y-68550885D01*
X71369266Y-68550884D01*
X71206297Y-68463775D01*
X71063454Y-68346547D01*
X70946226Y-68203704D01*
X70859117Y-68040735D01*
X70859116Y-68040732D01*
X70817362Y-67903090D01*
X70812600Y-67891594D01*
X70805684Y-67881244D01*
X70796882Y-67872441D01*
X70786532Y-67865526D01*
X70775032Y-67860762D01*
X70762823Y-67858334D01*
X70750375Y-67858334D01*
X70738166Y-67860762D01*
X70726666Y-67865526D01*
X70716316Y-67872442D01*
X70707513Y-67881244D01*
X70700598Y-67891594D01*
X70695834Y-67903094D01*
X70693100Y-67921527D01*
X70693100Y-68122842D01*
X70689587Y-68158507D01*
X70680094Y-68189803D01*
X70664676Y-68218647D01*
X70643928Y-68243928D01*
X70618647Y-68264676D01*
X70589803Y-68280094D01*
X70558507Y-68289587D01*
X70522842Y-68293100D01*
X69837158Y-68293100D01*
X69801493Y-68289587D01*
X69770197Y-68280094D01*
X69741353Y-68264676D01*
X69716072Y-68243928D01*
X69695324Y-68218647D01*
X69679906Y-68189803D01*
X69670413Y-68158507D01*
X69666900Y-68122842D01*
X69666900Y-66637158D01*
X69670413Y-66601493D01*
X69679906Y-66570197D01*
X69695324Y-66541353D01*
X69716072Y-66516072D01*
X69741353Y-66495324D01*
X69770197Y-66479906D01*
X69801493Y-66470413D01*
X69837158Y-66466900D01*
X70522842Y-66466900D01*
X70558507Y-66470413D01*
X70589803Y-66479906D01*
X70618647Y-66495324D01*
X70643928Y-66516072D01*
X70664676Y-66541353D01*
X70680094Y-66570197D01*
X70689587Y-66601493D01*
X70693100Y-66637158D01*
X70693100Y-66838473D01*
X70694320Y-66850861D01*
X70697934Y-66862773D01*
X70703802Y-66873751D01*
X70711698Y-66883374D01*
X70721321Y-66891270D01*
X70732299Y-66897138D01*
X70744211Y-66900752D01*
X70756599Y-66901972D01*
X70768987Y-66900752D01*
X70780899Y-66897138D01*
X70791877Y-66891270D01*
X70801500Y-66883374D01*
X70809396Y-66873751D01*
X70815264Y-66862773D01*
X70817364Y-66856906D01*
X70819198Y-66850861D01*
X70859115Y-66719269D01*
X70859116Y-66719266D01*
X70911689Y-66620909D01*
X70946224Y-66556299D01*
X70946226Y-66556296D01*
X71063453Y-66413453D01*
X71206296Y-66296225D01*
X71369265Y-66209116D01*
X71369268Y-66209115D01*
X71546100Y-66155474D01*
X71730000Y-66137361D01*
X71913899Y-66155474D01*
X71913899Y-66155474D01*
G37*
G36*
X197313100Y-65518100D02*
G01*
X195486900Y-65518100D01*
X195486900Y-56541900D01*
X197313100Y-56541900D01*
X197313100Y-65518100D01*
X197313100Y-65518100D01*
G37*
G36*
X204513100Y-65518100D02*
G01*
X202686900Y-65518100D01*
X202686900Y-56541900D01*
X204513100Y-56541900D01*
X204513100Y-65518100D01*
X204513100Y-65518100D01*
G37*
G36*
X71237095Y-63061521D02*
G01*
X71279208Y-63074295D01*
X71318024Y-63095043D01*
X71352041Y-63122959D01*
X71379957Y-63156976D01*
X71400705Y-63195792D01*
X71413479Y-63237905D01*
X71418100Y-63284817D01*
X71418100Y-63855183D01*
X71413479Y-63902095D01*
X71400705Y-63944208D01*
X71379957Y-63983024D01*
X71352041Y-64017041D01*
X71318024Y-64044957D01*
X71279208Y-64065705D01*
X71237095Y-64078479D01*
X71190183Y-64083100D01*
X70519817Y-64083100D01*
X70472905Y-64078479D01*
X70430792Y-64065705D01*
X70391976Y-64044957D01*
X70357959Y-64017041D01*
X70330043Y-63983024D01*
X70309295Y-63944208D01*
X70296521Y-63902095D01*
X70291900Y-63855183D01*
X70291900Y-63284817D01*
X70296521Y-63237905D01*
X70309295Y-63195792D01*
X70330043Y-63156976D01*
X70357959Y-63122959D01*
X70391976Y-63095043D01*
X70430792Y-63074295D01*
X70472905Y-63061521D01*
X70519817Y-63056900D01*
X71190183Y-63056900D01*
X71237095Y-63061521D01*
X71237095Y-63061521D01*
G37*
G36*
X72987095Y-63061521D02*
G01*
X73029208Y-63074295D01*
X73068024Y-63095043D01*
X73102041Y-63122959D01*
X73129957Y-63156976D01*
X73150705Y-63195792D01*
X73163479Y-63237905D01*
X73168100Y-63284817D01*
X73168100Y-63855183D01*
X73163479Y-63902095D01*
X73150705Y-63944208D01*
X73129957Y-63983024D01*
X73102041Y-64017041D01*
X73068024Y-64044957D01*
X73029208Y-64065705D01*
X72987095Y-64078479D01*
X72940183Y-64083100D01*
X72269817Y-64083100D01*
X72222905Y-64078479D01*
X72180792Y-64065705D01*
X72141976Y-64044957D01*
X72107959Y-64017041D01*
X72080043Y-63983024D01*
X72059295Y-63944208D01*
X72046521Y-63902095D01*
X72041900Y-63855183D01*
X72041900Y-63284817D01*
X72046521Y-63237905D01*
X72059295Y-63195792D01*
X72080043Y-63156976D01*
X72107959Y-63122959D01*
X72141976Y-63095043D01*
X72180792Y-63074295D01*
X72222905Y-63061521D01*
X72269817Y-63056900D01*
X72940183Y-63056900D01*
X72987095Y-63061521D01*
X72987095Y-63061521D01*
G37*
G36*
X206682095Y-61346521D02*
G01*
X206724208Y-61359295D01*
X206763024Y-61380043D01*
X206797041Y-61407959D01*
X206824957Y-61441976D01*
X206845705Y-61480792D01*
X206858479Y-61522905D01*
X206863100Y-61569817D01*
X206863100Y-62240183D01*
X206858479Y-62287095D01*
X206845705Y-62329208D01*
X206824957Y-62368024D01*
X206797041Y-62402041D01*
X206763024Y-62429957D01*
X206724208Y-62450705D01*
X206682095Y-62463479D01*
X206635183Y-62468100D01*
X206064817Y-62468100D01*
X206017905Y-62463479D01*
X205975792Y-62450705D01*
X205936976Y-62429957D01*
X205902959Y-62402041D01*
X205875043Y-62368024D01*
X205854295Y-62329208D01*
X205841521Y-62287095D01*
X205836900Y-62240183D01*
X205836900Y-61569817D01*
X205841521Y-61522905D01*
X205854295Y-61480792D01*
X205875043Y-61441976D01*
X205902959Y-61407959D01*
X205936976Y-61380043D01*
X205975792Y-61359295D01*
X206017905Y-61346521D01*
X206064817Y-61341900D01*
X206635183Y-61341900D01*
X206682095Y-61346521D01*
X206682095Y-61346521D01*
G37*
G36*
X206682095Y-59596521D02*
G01*
X206724208Y-59609295D01*
X206763024Y-59630043D01*
X206797041Y-59657959D01*
X206824957Y-59691976D01*
X206845705Y-59730792D01*
X206858479Y-59772905D01*
X206863100Y-59819817D01*
X206863100Y-60490183D01*
X206858479Y-60537095D01*
X206845705Y-60579208D01*
X206824957Y-60618024D01*
X206797041Y-60652041D01*
X206763024Y-60679957D01*
X206724208Y-60700705D01*
X206682095Y-60713479D01*
X206635183Y-60718100D01*
X206064817Y-60718100D01*
X206017905Y-60713479D01*
X205975792Y-60700705D01*
X205936976Y-60679957D01*
X205902959Y-60652041D01*
X205875043Y-60618024D01*
X205854295Y-60579208D01*
X205841521Y-60537095D01*
X205836900Y-60490183D01*
X205836900Y-59819817D01*
X205841521Y-59772905D01*
X205854295Y-59730792D01*
X205875043Y-59691976D01*
X205902959Y-59657959D01*
X205936976Y-59630043D01*
X205975792Y-59609295D01*
X206017905Y-59596521D01*
X206064817Y-59591900D01*
X206635183Y-59591900D01*
X206682095Y-59596521D01*
X206682095Y-59596521D01*
G37*
G36*
X68093100Y-60258100D02*
G01*
X66716900Y-60258100D01*
X66716900Y-58181900D01*
X68093100Y-58181900D01*
X68093100Y-60258100D01*
X68093100Y-60258100D01*
G37*
G36*
X70393100Y-60258100D02*
G01*
X69016900Y-60258100D01*
X69016900Y-58181900D01*
X70393100Y-58181900D01*
X70393100Y-60258100D01*
X70393100Y-60258100D01*
G37*
G36*
X69593100Y-56258100D02*
G01*
X67516900Y-56258100D01*
X67516900Y-54181900D01*
X69593100Y-54181900D01*
X69593100Y-56258100D01*
X69593100Y-56258100D01*
G37*
G36*
X222194519Y-49886338D02*
G01*
X222194521Y-49886339D01*
X222194522Y-49886339D01*
X222783817Y-50130433D01*
X223134999Y-50365086D01*
X223314169Y-50484803D01*
X223765197Y-50935831D01*
X223884914Y-51115001D01*
X224119567Y-51466183D01*
X224119567Y-51466184D01*
X224363662Y-52055481D01*
X224488100Y-52681075D01*
X224488100Y-53318924D01*
X224363661Y-53944522D01*
X224119567Y-54533817D01*
X223884914Y-54884999D01*
X223765197Y-55064169D01*
X223314169Y-55515197D01*
X223137924Y-55632960D01*
X222783817Y-55869567D01*
X222194522Y-56113661D01*
X222194521Y-56113661D01*
X222194519Y-56113662D01*
X221568925Y-56238100D01*
X220931075Y-56238100D01*
X220305481Y-56113662D01*
X220305479Y-56113661D01*
X220305478Y-56113661D01*
X219716183Y-55869567D01*
X219362076Y-55632960D01*
X219185831Y-55515197D01*
X218734803Y-55064169D01*
X218615086Y-54884999D01*
X218380433Y-54533817D01*
X218136339Y-53944522D01*
X218011900Y-53318924D01*
X218011900Y-52681075D01*
X218136338Y-52055481D01*
X218380433Y-51466184D01*
X218380433Y-51466183D01*
X218615086Y-51115001D01*
X218734803Y-50935831D01*
X219185831Y-50484803D01*
X219365001Y-50365086D01*
X219716183Y-50130433D01*
X220305478Y-49886339D01*
X220305479Y-49886339D01*
X220305481Y-49886338D01*
X220931075Y-49761900D01*
X221568925Y-49761900D01*
X222194519Y-49886338D01*
X222194519Y-49886338D01*
G37*
G36*
X54533584Y-45213185D02*
G01*
X55307069Y-45367040D01*
X56278540Y-45769437D01*
X57152836Y-46353623D01*
X57152838Y-46353625D01*
X57152841Y-46353627D01*
X57896373Y-47097159D01*
X57896375Y-47097162D01*
X57896377Y-47097164D01*
X58480563Y-47971460D01*
X58882960Y-48942931D01*
X58939224Y-49225792D01*
X59070615Y-49886338D01*
X59088100Y-49974244D01*
X59088100Y-51025756D01*
X58882960Y-52057069D01*
X58480563Y-53028540D01*
X57896377Y-53902836D01*
X57896375Y-53902838D01*
X57896373Y-53902841D01*
X57152841Y-54646373D01*
X57152838Y-54646375D01*
X57152836Y-54646377D01*
X56278540Y-55230563D01*
X55307069Y-55632960D01*
X54533584Y-55786815D01*
X54275757Y-55838100D01*
X53224243Y-55838100D01*
X52966416Y-55786815D01*
X52192931Y-55632960D01*
X51221460Y-55230563D01*
X50347164Y-54646377D01*
X50347162Y-54646375D01*
X50347159Y-54646373D01*
X49603627Y-53902841D01*
X49603625Y-53902838D01*
X49603623Y-53902836D01*
X49019437Y-53028540D01*
X48617040Y-52057069D01*
X48411900Y-51025756D01*
X48411900Y-49974244D01*
X48429386Y-49886338D01*
X48560776Y-49225792D01*
X48617040Y-48942931D01*
X49019437Y-47971460D01*
X49603623Y-47097164D01*
X49603625Y-47097162D01*
X49603627Y-47097159D01*
X50347159Y-46353627D01*
X50347162Y-46353625D01*
X50347164Y-46353623D01*
X51221460Y-45769437D01*
X52192931Y-45367040D01*
X52966416Y-45213185D01*
X53224243Y-45161900D01*
X54275757Y-45161900D01*
X54533584Y-45213185D01*
X54533584Y-45213185D01*
G37*
G36*
X201257095Y-54171521D02*
G01*
X201299208Y-54184295D01*
X201338024Y-54205043D01*
X201372041Y-54232959D01*
X201399957Y-54266976D01*
X201420705Y-54305792D01*
X201433479Y-54347905D01*
X201438100Y-54394817D01*
X201438100Y-54965183D01*
X201433479Y-55012095D01*
X201420705Y-55054208D01*
X201399957Y-55093024D01*
X201372041Y-55127041D01*
X201338024Y-55154957D01*
X201299208Y-55175705D01*
X201257095Y-55188479D01*
X201210183Y-55193100D01*
X200539817Y-55193100D01*
X200492905Y-55188479D01*
X200450792Y-55175705D01*
X200411976Y-55154957D01*
X200377959Y-55127041D01*
X200350043Y-55093024D01*
X200329295Y-55054208D01*
X200316521Y-55012095D01*
X200311900Y-54965183D01*
X200311900Y-54394817D01*
X200316521Y-54347905D01*
X200329295Y-54305792D01*
X200350043Y-54266976D01*
X200377959Y-54232959D01*
X200411976Y-54205043D01*
X200450792Y-54184295D01*
X200492905Y-54171521D01*
X200539817Y-54166900D01*
X201210183Y-54166900D01*
X201257095Y-54171521D01*
X201257095Y-54171521D01*
G37*
G36*
X199507095Y-54171521D02*
G01*
X199549208Y-54184295D01*
X199588024Y-54205043D01*
X199622041Y-54232959D01*
X199649957Y-54266976D01*
X199670705Y-54305792D01*
X199683479Y-54347905D01*
X199688100Y-54394817D01*
X199688100Y-54965183D01*
X199683479Y-55012095D01*
X199670705Y-55054208D01*
X199649957Y-55093024D01*
X199622041Y-55127041D01*
X199588024Y-55154957D01*
X199549208Y-55175705D01*
X199507095Y-55188479D01*
X199460183Y-55193100D01*
X198789817Y-55193100D01*
X198742905Y-55188479D01*
X198700792Y-55175705D01*
X198661976Y-55154957D01*
X198627959Y-55127041D01*
X198600043Y-55093024D01*
X198579295Y-55054208D01*
X198566521Y-55012095D01*
X198561900Y-54965183D01*
X198561900Y-54394817D01*
X198566521Y-54347905D01*
X198579295Y-54305792D01*
X198600043Y-54266976D01*
X198627959Y-54232959D01*
X198661976Y-54205043D01*
X198700792Y-54184295D01*
X198742905Y-54171521D01*
X198789817Y-54166900D01*
X199460183Y-54166900D01*
X199507095Y-54171521D01*
X199507095Y-54171521D01*
G37*
G36*
X171194519Y-44386338D02*
G01*
X171194521Y-44386339D01*
X171194522Y-44386339D01*
X171783817Y-44630433D01*
X172134999Y-44865086D01*
X172314169Y-44984803D01*
X172765197Y-45435831D01*
X172811292Y-45504817D01*
X173119567Y-45966183D01*
X173363661Y-46555478D01*
X173363662Y-46555481D01*
X173488100Y-47181075D01*
X173488100Y-47818925D01*
X173410689Y-48208100D01*
X173363661Y-48444522D01*
X173119567Y-49033817D01*
X172884914Y-49384999D01*
X172765197Y-49564169D01*
X172314169Y-50015197D01*
X172141706Y-50130433D01*
X171783817Y-50369567D01*
X171194522Y-50613661D01*
X171194521Y-50613661D01*
X171194519Y-50613662D01*
X170568925Y-50738100D01*
X169931075Y-50738100D01*
X169305481Y-50613662D01*
X169305479Y-50613661D01*
X169305478Y-50613661D01*
X168716183Y-50369567D01*
X168358294Y-50130433D01*
X168185831Y-50015197D01*
X167734803Y-49564169D01*
X167615086Y-49384999D01*
X167380433Y-49033817D01*
X167136339Y-48444522D01*
X167089312Y-48208100D01*
X167011900Y-47818925D01*
X167011900Y-47181075D01*
X167136338Y-46555481D01*
X167136339Y-46555478D01*
X167380433Y-45966183D01*
X167688708Y-45504817D01*
X167734803Y-45435831D01*
X168185831Y-44984803D01*
X168365001Y-44865086D01*
X168716183Y-44630433D01*
X169305478Y-44386339D01*
X169305479Y-44386339D01*
X169305481Y-44386338D01*
X169931075Y-44261900D01*
X170568925Y-44261900D01*
X171194519Y-44386338D01*
X171194519Y-44386338D01*
G37*
G36*
X78194519Y-44386338D02*
G01*
X78194521Y-44386339D01*
X78194522Y-44386339D01*
X78783817Y-44630433D01*
X79134999Y-44865086D01*
X79314169Y-44984803D01*
X79765197Y-45435831D01*
X79811292Y-45504817D01*
X80119567Y-45966183D01*
X80363661Y-46555478D01*
X80363662Y-46555481D01*
X80488100Y-47181075D01*
X80488100Y-47818925D01*
X80410689Y-48208100D01*
X80363661Y-48444522D01*
X80119567Y-49033817D01*
X79884914Y-49384999D01*
X79765197Y-49564169D01*
X79314169Y-50015197D01*
X79141706Y-50130433D01*
X78783817Y-50369567D01*
X78194522Y-50613661D01*
X78194521Y-50613661D01*
X78194519Y-50613662D01*
X77568925Y-50738100D01*
X76931075Y-50738100D01*
X76305481Y-50613662D01*
X76305479Y-50613661D01*
X76305478Y-50613661D01*
X75716183Y-50369567D01*
X75358294Y-50130433D01*
X75185831Y-50015197D01*
X74734803Y-49564169D01*
X74615086Y-49384999D01*
X74380433Y-49033817D01*
X74136339Y-48444522D01*
X74089312Y-48208100D01*
X74011900Y-47818925D01*
X74011900Y-47181075D01*
X74136338Y-46555481D01*
X74136339Y-46555478D01*
X74380433Y-45966183D01*
X74688708Y-45504817D01*
X74734803Y-45435831D01*
X75185831Y-44984803D01*
X75365001Y-44865086D01*
X75716183Y-44630433D01*
X76305478Y-44386339D01*
X76305479Y-44386339D01*
X76305481Y-44386338D01*
X76931075Y-44261900D01*
X77568925Y-44261900D01*
X78194519Y-44386338D01*
X78194519Y-44386338D01*
G37*
G36*
X123388100Y-50448100D02*
G01*
X122311900Y-50448100D01*
X122311900Y-47861900D01*
X123388100Y-47861900D01*
X123388100Y-50448100D01*
X123388100Y-50448100D01*
G37*
G36*
X87828100Y-50448100D02*
G01*
X86751900Y-50448100D01*
X86751900Y-47861900D01*
X87828100Y-47861900D01*
X87828100Y-50448100D01*
X87828100Y-50448100D01*
G37*
G36*
X92908100Y-50448100D02*
G01*
X91831900Y-50448100D01*
X91831900Y-47861900D01*
X92908100Y-47861900D01*
X92908100Y-50448100D01*
X92908100Y-50448100D01*
G37*
G36*
X97988100Y-50448100D02*
G01*
X96911900Y-50448100D01*
X96911900Y-47861900D01*
X97988100Y-47861900D01*
X97988100Y-50448100D01*
X97988100Y-50448100D01*
G37*
G36*
X103068100Y-50448100D02*
G01*
X101991900Y-50448100D01*
X101991900Y-47861900D01*
X103068100Y-47861900D01*
X103068100Y-50448100D01*
X103068100Y-50448100D01*
G37*
G36*
X108148100Y-50448100D02*
G01*
X107071900Y-50448100D01*
X107071900Y-47861900D01*
X108148100Y-47861900D01*
X108148100Y-50448100D01*
X108148100Y-50448100D01*
G37*
G36*
X113228100Y-50448100D02*
G01*
X112151900Y-50448100D01*
X112151900Y-47861900D01*
X113228100Y-47861900D01*
X113228100Y-50448100D01*
X113228100Y-50448100D01*
G37*
G36*
X118308100Y-50448100D02*
G01*
X117231900Y-50448100D01*
X117231900Y-47861900D01*
X118308100Y-47861900D01*
X118308100Y-50448100D01*
X118308100Y-50448100D01*
G37*
G36*
X128468100Y-50448100D02*
G01*
X127391900Y-50448100D01*
X127391900Y-47861900D01*
X128468100Y-47861900D01*
X128468100Y-50448100D01*
X128468100Y-50448100D01*
G37*
G36*
X130927095Y-49091521D02*
G01*
X130969208Y-49104295D01*
X131008024Y-49125043D01*
X131042041Y-49152959D01*
X131069957Y-49186976D01*
X131090705Y-49225792D01*
X131103479Y-49267905D01*
X131108100Y-49314817D01*
X131108100Y-49885183D01*
X131103479Y-49932095D01*
X131090705Y-49974208D01*
X131069957Y-50013024D01*
X131042041Y-50047041D01*
X131008024Y-50074957D01*
X130969208Y-50095705D01*
X130927095Y-50108479D01*
X130880183Y-50113100D01*
X130209817Y-50113100D01*
X130162905Y-50108479D01*
X130120792Y-50095705D01*
X130081976Y-50074957D01*
X130047959Y-50047041D01*
X130020043Y-50013024D01*
X129999295Y-49974208D01*
X129986521Y-49932095D01*
X129981900Y-49885183D01*
X129981900Y-49314817D01*
X129986521Y-49267905D01*
X129999295Y-49225792D01*
X130020043Y-49186976D01*
X130047959Y-49152959D01*
X130081976Y-49125043D01*
X130120792Y-49104295D01*
X130162905Y-49091521D01*
X130209817Y-49086900D01*
X130880183Y-49086900D01*
X130927095Y-49091521D01*
X130927095Y-49091521D01*
G37*
G36*
X132677095Y-49091521D02*
G01*
X132719208Y-49104295D01*
X132758024Y-49125043D01*
X132792041Y-49152959D01*
X132819957Y-49186976D01*
X132840705Y-49225792D01*
X132853479Y-49267905D01*
X132858100Y-49314817D01*
X132858100Y-49885183D01*
X132853479Y-49932095D01*
X132840705Y-49974208D01*
X132819957Y-50013024D01*
X132792041Y-50047041D01*
X132758024Y-50074957D01*
X132719208Y-50095705D01*
X132677095Y-50108479D01*
X132630183Y-50113100D01*
X131959817Y-50113100D01*
X131912905Y-50108479D01*
X131870792Y-50095705D01*
X131831976Y-50074957D01*
X131797959Y-50047041D01*
X131770043Y-50013024D01*
X131749295Y-49974208D01*
X131736521Y-49932095D01*
X131731900Y-49885183D01*
X131731900Y-49314817D01*
X131736521Y-49267905D01*
X131749295Y-49225792D01*
X131770043Y-49186976D01*
X131797959Y-49152959D01*
X131831976Y-49125043D01*
X131870792Y-49104295D01*
X131912905Y-49091521D01*
X131959817Y-49086900D01*
X132630183Y-49086900D01*
X132677095Y-49091521D01*
X132677095Y-49091521D01*
G37*
G36*
X132677095Y-47186521D02*
G01*
X132719208Y-47199295D01*
X132758024Y-47220043D01*
X132792041Y-47247959D01*
X132819957Y-47281976D01*
X132840705Y-47320792D01*
X132853479Y-47362905D01*
X132858100Y-47409817D01*
X132858100Y-47980183D01*
X132853479Y-48027095D01*
X132840705Y-48069208D01*
X132819957Y-48108024D01*
X132792041Y-48142041D01*
X132758024Y-48169957D01*
X132719208Y-48190705D01*
X132677095Y-48203479D01*
X132630183Y-48208100D01*
X131959817Y-48208100D01*
X131912905Y-48203479D01*
X131870792Y-48190705D01*
X131831976Y-48169957D01*
X131797959Y-48142041D01*
X131770043Y-48108024D01*
X131749295Y-48069208D01*
X131736521Y-48027095D01*
X131731900Y-47980183D01*
X131731900Y-47409817D01*
X131736521Y-47362905D01*
X131749295Y-47320792D01*
X131770043Y-47281976D01*
X131797959Y-47247959D01*
X131831976Y-47220043D01*
X131870792Y-47199295D01*
X131912905Y-47186521D01*
X131959817Y-47181900D01*
X132630183Y-47181900D01*
X132677095Y-47186521D01*
X132677095Y-47186521D01*
G37*
G36*
X130927095Y-47186521D02*
G01*
X130969208Y-47199295D01*
X131008024Y-47220043D01*
X131042041Y-47247959D01*
X131069957Y-47281976D01*
X131090705Y-47320792D01*
X131103479Y-47362905D01*
X131108100Y-47409817D01*
X131108100Y-47980183D01*
X131103479Y-48027095D01*
X131090705Y-48069208D01*
X131069957Y-48108024D01*
X131042041Y-48142041D01*
X131008024Y-48169957D01*
X130969208Y-48190705D01*
X130927095Y-48203479D01*
X130880183Y-48208100D01*
X130209817Y-48208100D01*
X130162905Y-48203479D01*
X130120792Y-48190705D01*
X130081976Y-48169957D01*
X130047959Y-48142041D01*
X130020043Y-48108024D01*
X129999295Y-48069208D01*
X129986521Y-48027095D01*
X129981900Y-47980183D01*
X129981900Y-47409817D01*
X129986521Y-47362905D01*
X129999295Y-47320792D01*
X130020043Y-47281976D01*
X130047959Y-47247959D01*
X130081976Y-47220043D01*
X130120792Y-47199295D01*
X130162905Y-47186521D01*
X130209817Y-47181900D01*
X130880183Y-47181900D01*
X130927095Y-47186521D01*
X130927095Y-47186521D01*
G37*
G36*
X110688100Y-47138100D02*
G01*
X109611900Y-47138100D01*
X109611900Y-44551900D01*
X110688100Y-44551900D01*
X110688100Y-47138100D01*
X110688100Y-47138100D01*
G37*
G36*
X85288100Y-47138100D02*
G01*
X84211900Y-47138100D01*
X84211900Y-44551900D01*
X85288100Y-44551900D01*
X85288100Y-47138100D01*
X85288100Y-47138100D01*
G37*
G36*
X90368100Y-47138100D02*
G01*
X89291900Y-47138100D01*
X89291900Y-44551900D01*
X90368100Y-44551900D01*
X90368100Y-47138100D01*
X90368100Y-47138100D01*
G37*
G36*
X95448100Y-47138100D02*
G01*
X94371900Y-47138100D01*
X94371900Y-44551900D01*
X95448100Y-44551900D01*
X95448100Y-47138100D01*
X95448100Y-47138100D01*
G37*
G36*
X100528100Y-47138100D02*
G01*
X99451900Y-47138100D01*
X99451900Y-44551900D01*
X100528100Y-44551900D01*
X100528100Y-47138100D01*
X100528100Y-47138100D01*
G37*
G36*
X105608100Y-47138100D02*
G01*
X104531900Y-47138100D01*
X104531900Y-44551900D01*
X105608100Y-44551900D01*
X105608100Y-47138100D01*
X105608100Y-47138100D01*
G37*
G36*
X115768100Y-47138100D02*
G01*
X114691900Y-47138100D01*
X114691900Y-44551900D01*
X115768100Y-44551900D01*
X115768100Y-47138100D01*
X115768100Y-47138100D01*
G37*
G36*
X120848100Y-47138100D02*
G01*
X119771900Y-47138100D01*
X119771900Y-44551900D01*
X120848100Y-44551900D01*
X120848100Y-47138100D01*
X120848100Y-47138100D01*
G37*
G36*
X125928100Y-47138100D02*
G01*
X124851900Y-47138100D01*
X124851900Y-44551900D01*
X125928100Y-44551900D01*
X125928100Y-47138100D01*
X125928100Y-47138100D01*
G37*
G36*
X130927095Y-45281521D02*
G01*
X130969208Y-45294295D01*
X131008024Y-45315043D01*
X131042041Y-45342959D01*
X131069957Y-45376976D01*
X131090705Y-45415792D01*
X131103479Y-45457905D01*
X131108100Y-45504817D01*
X131108100Y-46075183D01*
X131103479Y-46122095D01*
X131090705Y-46164208D01*
X131069957Y-46203024D01*
X131042041Y-46237041D01*
X131008024Y-46264957D01*
X130969208Y-46285705D01*
X130927095Y-46298479D01*
X130880183Y-46303100D01*
X130209817Y-46303100D01*
X130162905Y-46298479D01*
X130120792Y-46285705D01*
X130081976Y-46264957D01*
X130047959Y-46237041D01*
X130020043Y-46203024D01*
X129999295Y-46164208D01*
X129986521Y-46122095D01*
X129981900Y-46075183D01*
X129981900Y-45504817D01*
X129986521Y-45457905D01*
X129999295Y-45415792D01*
X130020043Y-45376976D01*
X130047959Y-45342959D01*
X130081976Y-45315043D01*
X130120792Y-45294295D01*
X130162905Y-45281521D01*
X130209817Y-45276900D01*
X130880183Y-45276900D01*
X130927095Y-45281521D01*
X130927095Y-45281521D01*
G37*
G36*
X132677095Y-45281521D02*
G01*
X132719208Y-45294295D01*
X132758024Y-45315043D01*
X132792041Y-45342959D01*
X132819957Y-45376976D01*
X132840705Y-45415792D01*
X132853479Y-45457905D01*
X132858100Y-45504817D01*
X132858100Y-46075183D01*
X132853479Y-46122095D01*
X132840705Y-46164208D01*
X132819957Y-46203024D01*
X132792041Y-46237041D01*
X132758024Y-46264957D01*
X132719208Y-46285705D01*
X132677095Y-46298479D01*
X132630183Y-46303100D01*
X131959817Y-46303100D01*
X131912905Y-46298479D01*
X131870792Y-46285705D01*
X131831976Y-46264957D01*
X131797959Y-46237041D01*
X131770043Y-46203024D01*
X131749295Y-46164208D01*
X131736521Y-46122095D01*
X131731900Y-46075183D01*
X131731900Y-45504817D01*
X131736521Y-45457905D01*
X131749295Y-45415792D01*
X131770043Y-45376976D01*
X131797959Y-45342959D01*
X131831976Y-45315043D01*
X131870792Y-45294295D01*
X131912905Y-45281521D01*
X131959817Y-45276900D01*
X132630183Y-45276900D01*
X132677095Y-45281521D01*
X132677095Y-45281521D01*
G37*
G36*
X179307767Y-37386338D02*
G01*
X179307769Y-37386339D01*
X179307770Y-37386339D01*
X179897065Y-37630433D01*
X180248247Y-37865086D01*
X180427417Y-37984803D01*
X180878445Y-38435831D01*
X180878448Y-38435836D01*
X181232815Y-38966183D01*
X181476909Y-39555478D01*
X181601348Y-40181076D01*
X181601348Y-40818924D01*
X181476909Y-41444522D01*
X181232815Y-42033817D01*
X180998162Y-42384999D01*
X180878445Y-42564169D01*
X180427417Y-43015197D01*
X180248247Y-43134914D01*
X179897065Y-43369567D01*
X179307770Y-43613661D01*
X179307769Y-43613661D01*
X179307767Y-43613662D01*
X178682173Y-43738100D01*
X178044323Y-43738100D01*
X177418729Y-43613662D01*
X177418727Y-43613661D01*
X177418726Y-43613661D01*
X176829431Y-43369567D01*
X176478249Y-43134914D01*
X176299079Y-43015197D01*
X175848051Y-42564169D01*
X175728334Y-42384999D01*
X175493681Y-42033817D01*
X175249587Y-41444522D01*
X175125148Y-40818924D01*
X175125148Y-40181076D01*
X175249587Y-39555478D01*
X175493681Y-38966183D01*
X175848048Y-38435836D01*
X175848051Y-38435831D01*
X176299079Y-37984803D01*
X176478249Y-37865086D01*
X176829431Y-37630433D01*
X177418726Y-37386339D01*
X177418727Y-37386339D01*
X177418729Y-37386338D01*
X178044323Y-37261900D01*
X178682173Y-37261900D01*
X179307767Y-37386338D01*
X179307767Y-37386338D01*
G37*
G36*
X69694519Y-37386338D02*
G01*
X69694521Y-37386339D01*
X69694522Y-37386339D01*
X70283817Y-37630433D01*
X70634999Y-37865086D01*
X70814169Y-37984803D01*
X71265197Y-38435831D01*
X71265200Y-38435836D01*
X71619567Y-38966183D01*
X71863661Y-39555478D01*
X71988100Y-40181076D01*
X71988100Y-40818924D01*
X71863661Y-41444522D01*
X71619567Y-42033817D01*
X71384914Y-42384999D01*
X71265197Y-42564169D01*
X70814169Y-43015197D01*
X70634999Y-43134914D01*
X70283817Y-43369567D01*
X69694522Y-43613661D01*
X69694521Y-43613661D01*
X69694519Y-43613662D01*
X69068925Y-43738100D01*
X68431075Y-43738100D01*
X67805481Y-43613662D01*
X67805479Y-43613661D01*
X67805478Y-43613661D01*
X67216183Y-43369567D01*
X66865001Y-43134914D01*
X66685831Y-43015197D01*
X66234803Y-42564169D01*
X66115086Y-42384999D01*
X65880433Y-42033817D01*
X65636339Y-41444522D01*
X65511900Y-40818924D01*
X65511900Y-40181076D01*
X65636339Y-39555478D01*
X65880433Y-38966183D01*
X66234800Y-38435836D01*
X66234803Y-38435831D01*
X66685831Y-37984803D01*
X66865001Y-37865086D01*
X67216183Y-37630433D01*
X67805478Y-37386339D01*
X67805479Y-37386339D01*
X67805481Y-37386338D01*
X68431075Y-37261900D01*
X69068925Y-37261900D01*
X69694519Y-37386338D01*
X69694519Y-37386338D01*
G37*
M02*
