G04 #@! TF.GenerationSoftware,KiCad,Pcbnew,(5.1.4)-1*
G04 #@! TF.CreationDate,2020-03-27T13:23:33-04:00*
G04 #@! TF.ProjectId,stepUP_lcd,73746570-5550-45f6-9c63-642e6b696361,rev?*
G04 #@! TF.SameCoordinates,Original*
G04 #@! TF.FileFunction,Paste,Bot*
G04 #@! TF.FilePolarity,Positive*
%FSLAX46Y46*%
G04 Gerber Fmt 4.6, Leading zero omitted, Abs format (unit mm)*
G04 Created by KiCad (PCBNEW (5.1.4)-1) date 2020-03-27 13:23:33*
%MOMM*%
%LPD*%
G04 APERTURE LIST*
%ADD10C,0.100000*%
%ADD11C,0.950000*%
%ADD12C,0.600000*%
%ADD13R,1.300000X2.000000*%
%ADD14R,2.000000X2.000000*%
%ADD15R,1.200000X4.750000*%
%ADD16R,2.000000X4.200000*%
%ADD17R,1.750000X0.450000*%
%ADD18R,1.000000X2.510000*%
%ADD19R,3.150000X1.000000*%
G04 APERTURE END LIST*
D10*
G36*
X181500779Y-73256144D02*
G01*
X181523834Y-73259563D01*
X181546443Y-73265227D01*
X181568387Y-73273079D01*
X181589457Y-73283044D01*
X181609448Y-73295026D01*
X181628168Y-73308910D01*
X181645438Y-73324562D01*
X181661090Y-73341832D01*
X181674974Y-73360552D01*
X181686956Y-73380543D01*
X181696921Y-73401613D01*
X181704773Y-73423557D01*
X181710437Y-73446166D01*
X181713856Y-73469221D01*
X181715000Y-73492500D01*
X181715000Y-73967500D01*
X181713856Y-73990779D01*
X181710437Y-74013834D01*
X181704773Y-74036443D01*
X181696921Y-74058387D01*
X181686956Y-74079457D01*
X181674974Y-74099448D01*
X181661090Y-74118168D01*
X181645438Y-74135438D01*
X181628168Y-74151090D01*
X181609448Y-74164974D01*
X181589457Y-74176956D01*
X181568387Y-74186921D01*
X181546443Y-74194773D01*
X181523834Y-74200437D01*
X181500779Y-74203856D01*
X181477500Y-74205000D01*
X180902500Y-74205000D01*
X180879221Y-74203856D01*
X180856166Y-74200437D01*
X180833557Y-74194773D01*
X180811613Y-74186921D01*
X180790543Y-74176956D01*
X180770552Y-74164974D01*
X180751832Y-74151090D01*
X180734562Y-74135438D01*
X180718910Y-74118168D01*
X180705026Y-74099448D01*
X180693044Y-74079457D01*
X180683079Y-74058387D01*
X180675227Y-74036443D01*
X180669563Y-74013834D01*
X180666144Y-73990779D01*
X180665000Y-73967500D01*
X180665000Y-73492500D01*
X180666144Y-73469221D01*
X180669563Y-73446166D01*
X180675227Y-73423557D01*
X180683079Y-73401613D01*
X180693044Y-73380543D01*
X180705026Y-73360552D01*
X180718910Y-73341832D01*
X180734562Y-73324562D01*
X180751832Y-73308910D01*
X180770552Y-73295026D01*
X180790543Y-73283044D01*
X180811613Y-73273079D01*
X180833557Y-73265227D01*
X180856166Y-73259563D01*
X180879221Y-73256144D01*
X180902500Y-73255000D01*
X181477500Y-73255000D01*
X181500779Y-73256144D01*
X181500779Y-73256144D01*
G37*
D11*
X181190000Y-73730000D03*
D10*
G36*
X179750779Y-73256144D02*
G01*
X179773834Y-73259563D01*
X179796443Y-73265227D01*
X179818387Y-73273079D01*
X179839457Y-73283044D01*
X179859448Y-73295026D01*
X179878168Y-73308910D01*
X179895438Y-73324562D01*
X179911090Y-73341832D01*
X179924974Y-73360552D01*
X179936956Y-73380543D01*
X179946921Y-73401613D01*
X179954773Y-73423557D01*
X179960437Y-73446166D01*
X179963856Y-73469221D01*
X179965000Y-73492500D01*
X179965000Y-73967500D01*
X179963856Y-73990779D01*
X179960437Y-74013834D01*
X179954773Y-74036443D01*
X179946921Y-74058387D01*
X179936956Y-74079457D01*
X179924974Y-74099448D01*
X179911090Y-74118168D01*
X179895438Y-74135438D01*
X179878168Y-74151090D01*
X179859448Y-74164974D01*
X179839457Y-74176956D01*
X179818387Y-74186921D01*
X179796443Y-74194773D01*
X179773834Y-74200437D01*
X179750779Y-74203856D01*
X179727500Y-74205000D01*
X179152500Y-74205000D01*
X179129221Y-74203856D01*
X179106166Y-74200437D01*
X179083557Y-74194773D01*
X179061613Y-74186921D01*
X179040543Y-74176956D01*
X179020552Y-74164974D01*
X179001832Y-74151090D01*
X178984562Y-74135438D01*
X178968910Y-74118168D01*
X178955026Y-74099448D01*
X178943044Y-74079457D01*
X178933079Y-74058387D01*
X178925227Y-74036443D01*
X178919563Y-74013834D01*
X178916144Y-73990779D01*
X178915000Y-73967500D01*
X178915000Y-73492500D01*
X178916144Y-73469221D01*
X178919563Y-73446166D01*
X178925227Y-73423557D01*
X178933079Y-73401613D01*
X178943044Y-73380543D01*
X178955026Y-73360552D01*
X178968910Y-73341832D01*
X178984562Y-73324562D01*
X179001832Y-73308910D01*
X179020552Y-73295026D01*
X179040543Y-73283044D01*
X179061613Y-73273079D01*
X179083557Y-73265227D01*
X179106166Y-73259563D01*
X179129221Y-73256144D01*
X179152500Y-73255000D01*
X179727500Y-73255000D01*
X179750779Y-73256144D01*
X179750779Y-73256144D01*
G37*
D11*
X179440000Y-73730000D03*
D10*
G36*
X181500779Y-75796144D02*
G01*
X181523834Y-75799563D01*
X181546443Y-75805227D01*
X181568387Y-75813079D01*
X181589457Y-75823044D01*
X181609448Y-75835026D01*
X181628168Y-75848910D01*
X181645438Y-75864562D01*
X181661090Y-75881832D01*
X181674974Y-75900552D01*
X181686956Y-75920543D01*
X181696921Y-75941613D01*
X181704773Y-75963557D01*
X181710437Y-75986166D01*
X181713856Y-76009221D01*
X181715000Y-76032500D01*
X181715000Y-76507500D01*
X181713856Y-76530779D01*
X181710437Y-76553834D01*
X181704773Y-76576443D01*
X181696921Y-76598387D01*
X181686956Y-76619457D01*
X181674974Y-76639448D01*
X181661090Y-76658168D01*
X181645438Y-76675438D01*
X181628168Y-76691090D01*
X181609448Y-76704974D01*
X181589457Y-76716956D01*
X181568387Y-76726921D01*
X181546443Y-76734773D01*
X181523834Y-76740437D01*
X181500779Y-76743856D01*
X181477500Y-76745000D01*
X180902500Y-76745000D01*
X180879221Y-76743856D01*
X180856166Y-76740437D01*
X180833557Y-76734773D01*
X180811613Y-76726921D01*
X180790543Y-76716956D01*
X180770552Y-76704974D01*
X180751832Y-76691090D01*
X180734562Y-76675438D01*
X180718910Y-76658168D01*
X180705026Y-76639448D01*
X180693044Y-76619457D01*
X180683079Y-76598387D01*
X180675227Y-76576443D01*
X180669563Y-76553834D01*
X180666144Y-76530779D01*
X180665000Y-76507500D01*
X180665000Y-76032500D01*
X180666144Y-76009221D01*
X180669563Y-75986166D01*
X180675227Y-75963557D01*
X180683079Y-75941613D01*
X180693044Y-75920543D01*
X180705026Y-75900552D01*
X180718910Y-75881832D01*
X180734562Y-75864562D01*
X180751832Y-75848910D01*
X180770552Y-75835026D01*
X180790543Y-75823044D01*
X180811613Y-75813079D01*
X180833557Y-75805227D01*
X180856166Y-75799563D01*
X180879221Y-75796144D01*
X180902500Y-75795000D01*
X181477500Y-75795000D01*
X181500779Y-75796144D01*
X181500779Y-75796144D01*
G37*
D11*
X181190000Y-76270000D03*
D10*
G36*
X179750779Y-75796144D02*
G01*
X179773834Y-75799563D01*
X179796443Y-75805227D01*
X179818387Y-75813079D01*
X179839457Y-75823044D01*
X179859448Y-75835026D01*
X179878168Y-75848910D01*
X179895438Y-75864562D01*
X179911090Y-75881832D01*
X179924974Y-75900552D01*
X179936956Y-75920543D01*
X179946921Y-75941613D01*
X179954773Y-75963557D01*
X179960437Y-75986166D01*
X179963856Y-76009221D01*
X179965000Y-76032500D01*
X179965000Y-76507500D01*
X179963856Y-76530779D01*
X179960437Y-76553834D01*
X179954773Y-76576443D01*
X179946921Y-76598387D01*
X179936956Y-76619457D01*
X179924974Y-76639448D01*
X179911090Y-76658168D01*
X179895438Y-76675438D01*
X179878168Y-76691090D01*
X179859448Y-76704974D01*
X179839457Y-76716956D01*
X179818387Y-76726921D01*
X179796443Y-76734773D01*
X179773834Y-76740437D01*
X179750779Y-76743856D01*
X179727500Y-76745000D01*
X179152500Y-76745000D01*
X179129221Y-76743856D01*
X179106166Y-76740437D01*
X179083557Y-76734773D01*
X179061613Y-76726921D01*
X179040543Y-76716956D01*
X179020552Y-76704974D01*
X179001832Y-76691090D01*
X178984562Y-76675438D01*
X178968910Y-76658168D01*
X178955026Y-76639448D01*
X178943044Y-76619457D01*
X178933079Y-76598387D01*
X178925227Y-76576443D01*
X178919563Y-76553834D01*
X178916144Y-76530779D01*
X178915000Y-76507500D01*
X178915000Y-76032500D01*
X178916144Y-76009221D01*
X178919563Y-75986166D01*
X178925227Y-75963557D01*
X178933079Y-75941613D01*
X178943044Y-75920543D01*
X178955026Y-75900552D01*
X178968910Y-75881832D01*
X178984562Y-75864562D01*
X179001832Y-75848910D01*
X179020552Y-75835026D01*
X179040543Y-75823044D01*
X179061613Y-75813079D01*
X179083557Y-75805227D01*
X179106166Y-75799563D01*
X179129221Y-75796144D01*
X179152500Y-75795000D01*
X179727500Y-75795000D01*
X179750779Y-75796144D01*
X179750779Y-75796144D01*
G37*
D11*
X179440000Y-76270000D03*
D10*
G36*
X209657703Y-85471722D02*
G01*
X209672264Y-85473882D01*
X209686543Y-85477459D01*
X209700403Y-85482418D01*
X209713710Y-85488712D01*
X209726336Y-85496280D01*
X209738159Y-85505048D01*
X209749066Y-85514934D01*
X209758952Y-85525841D01*
X209767720Y-85537664D01*
X209775288Y-85550290D01*
X209781582Y-85563597D01*
X209786541Y-85577457D01*
X209790118Y-85591736D01*
X209792278Y-85606297D01*
X209793000Y-85621000D01*
X209793000Y-85921000D01*
X209792278Y-85935703D01*
X209790118Y-85950264D01*
X209786541Y-85964543D01*
X209781582Y-85978403D01*
X209775288Y-85991710D01*
X209767720Y-86004336D01*
X209758952Y-86016159D01*
X209749066Y-86027066D01*
X209738159Y-86036952D01*
X209726336Y-86045720D01*
X209713710Y-86053288D01*
X209700403Y-86059582D01*
X209686543Y-86064541D01*
X209672264Y-86068118D01*
X209657703Y-86070278D01*
X209643000Y-86071000D01*
X207993000Y-86071000D01*
X207978297Y-86070278D01*
X207963736Y-86068118D01*
X207949457Y-86064541D01*
X207935597Y-86059582D01*
X207922290Y-86053288D01*
X207909664Y-86045720D01*
X207897841Y-86036952D01*
X207886934Y-86027066D01*
X207877048Y-86016159D01*
X207868280Y-86004336D01*
X207860712Y-85991710D01*
X207854418Y-85978403D01*
X207849459Y-85964543D01*
X207845882Y-85950264D01*
X207843722Y-85935703D01*
X207843000Y-85921000D01*
X207843000Y-85621000D01*
X207843722Y-85606297D01*
X207845882Y-85591736D01*
X207849459Y-85577457D01*
X207854418Y-85563597D01*
X207860712Y-85550290D01*
X207868280Y-85537664D01*
X207877048Y-85525841D01*
X207886934Y-85514934D01*
X207897841Y-85505048D01*
X207909664Y-85496280D01*
X207922290Y-85488712D01*
X207935597Y-85482418D01*
X207949457Y-85477459D01*
X207963736Y-85473882D01*
X207978297Y-85471722D01*
X207993000Y-85471000D01*
X209643000Y-85471000D01*
X209657703Y-85471722D01*
X209657703Y-85471722D01*
G37*
D12*
X208818000Y-85771000D03*
D10*
G36*
X209657703Y-84201722D02*
G01*
X209672264Y-84203882D01*
X209686543Y-84207459D01*
X209700403Y-84212418D01*
X209713710Y-84218712D01*
X209726336Y-84226280D01*
X209738159Y-84235048D01*
X209749066Y-84244934D01*
X209758952Y-84255841D01*
X209767720Y-84267664D01*
X209775288Y-84280290D01*
X209781582Y-84293597D01*
X209786541Y-84307457D01*
X209790118Y-84321736D01*
X209792278Y-84336297D01*
X209793000Y-84351000D01*
X209793000Y-84651000D01*
X209792278Y-84665703D01*
X209790118Y-84680264D01*
X209786541Y-84694543D01*
X209781582Y-84708403D01*
X209775288Y-84721710D01*
X209767720Y-84734336D01*
X209758952Y-84746159D01*
X209749066Y-84757066D01*
X209738159Y-84766952D01*
X209726336Y-84775720D01*
X209713710Y-84783288D01*
X209700403Y-84789582D01*
X209686543Y-84794541D01*
X209672264Y-84798118D01*
X209657703Y-84800278D01*
X209643000Y-84801000D01*
X207993000Y-84801000D01*
X207978297Y-84800278D01*
X207963736Y-84798118D01*
X207949457Y-84794541D01*
X207935597Y-84789582D01*
X207922290Y-84783288D01*
X207909664Y-84775720D01*
X207897841Y-84766952D01*
X207886934Y-84757066D01*
X207877048Y-84746159D01*
X207868280Y-84734336D01*
X207860712Y-84721710D01*
X207854418Y-84708403D01*
X207849459Y-84694543D01*
X207845882Y-84680264D01*
X207843722Y-84665703D01*
X207843000Y-84651000D01*
X207843000Y-84351000D01*
X207843722Y-84336297D01*
X207845882Y-84321736D01*
X207849459Y-84307457D01*
X207854418Y-84293597D01*
X207860712Y-84280290D01*
X207868280Y-84267664D01*
X207877048Y-84255841D01*
X207886934Y-84244934D01*
X207897841Y-84235048D01*
X207909664Y-84226280D01*
X207922290Y-84218712D01*
X207935597Y-84212418D01*
X207949457Y-84207459D01*
X207963736Y-84203882D01*
X207978297Y-84201722D01*
X207993000Y-84201000D01*
X209643000Y-84201000D01*
X209657703Y-84201722D01*
X209657703Y-84201722D01*
G37*
D12*
X208818000Y-84501000D03*
D10*
G36*
X209657703Y-82931722D02*
G01*
X209672264Y-82933882D01*
X209686543Y-82937459D01*
X209700403Y-82942418D01*
X209713710Y-82948712D01*
X209726336Y-82956280D01*
X209738159Y-82965048D01*
X209749066Y-82974934D01*
X209758952Y-82985841D01*
X209767720Y-82997664D01*
X209775288Y-83010290D01*
X209781582Y-83023597D01*
X209786541Y-83037457D01*
X209790118Y-83051736D01*
X209792278Y-83066297D01*
X209793000Y-83081000D01*
X209793000Y-83381000D01*
X209792278Y-83395703D01*
X209790118Y-83410264D01*
X209786541Y-83424543D01*
X209781582Y-83438403D01*
X209775288Y-83451710D01*
X209767720Y-83464336D01*
X209758952Y-83476159D01*
X209749066Y-83487066D01*
X209738159Y-83496952D01*
X209726336Y-83505720D01*
X209713710Y-83513288D01*
X209700403Y-83519582D01*
X209686543Y-83524541D01*
X209672264Y-83528118D01*
X209657703Y-83530278D01*
X209643000Y-83531000D01*
X207993000Y-83531000D01*
X207978297Y-83530278D01*
X207963736Y-83528118D01*
X207949457Y-83524541D01*
X207935597Y-83519582D01*
X207922290Y-83513288D01*
X207909664Y-83505720D01*
X207897841Y-83496952D01*
X207886934Y-83487066D01*
X207877048Y-83476159D01*
X207868280Y-83464336D01*
X207860712Y-83451710D01*
X207854418Y-83438403D01*
X207849459Y-83424543D01*
X207845882Y-83410264D01*
X207843722Y-83395703D01*
X207843000Y-83381000D01*
X207843000Y-83081000D01*
X207843722Y-83066297D01*
X207845882Y-83051736D01*
X207849459Y-83037457D01*
X207854418Y-83023597D01*
X207860712Y-83010290D01*
X207868280Y-82997664D01*
X207877048Y-82985841D01*
X207886934Y-82974934D01*
X207897841Y-82965048D01*
X207909664Y-82956280D01*
X207922290Y-82948712D01*
X207935597Y-82942418D01*
X207949457Y-82937459D01*
X207963736Y-82933882D01*
X207978297Y-82931722D01*
X207993000Y-82931000D01*
X209643000Y-82931000D01*
X209657703Y-82931722D01*
X209657703Y-82931722D01*
G37*
D12*
X208818000Y-83231000D03*
D10*
G36*
X209657703Y-81661722D02*
G01*
X209672264Y-81663882D01*
X209686543Y-81667459D01*
X209700403Y-81672418D01*
X209713710Y-81678712D01*
X209726336Y-81686280D01*
X209738159Y-81695048D01*
X209749066Y-81704934D01*
X209758952Y-81715841D01*
X209767720Y-81727664D01*
X209775288Y-81740290D01*
X209781582Y-81753597D01*
X209786541Y-81767457D01*
X209790118Y-81781736D01*
X209792278Y-81796297D01*
X209793000Y-81811000D01*
X209793000Y-82111000D01*
X209792278Y-82125703D01*
X209790118Y-82140264D01*
X209786541Y-82154543D01*
X209781582Y-82168403D01*
X209775288Y-82181710D01*
X209767720Y-82194336D01*
X209758952Y-82206159D01*
X209749066Y-82217066D01*
X209738159Y-82226952D01*
X209726336Y-82235720D01*
X209713710Y-82243288D01*
X209700403Y-82249582D01*
X209686543Y-82254541D01*
X209672264Y-82258118D01*
X209657703Y-82260278D01*
X209643000Y-82261000D01*
X207993000Y-82261000D01*
X207978297Y-82260278D01*
X207963736Y-82258118D01*
X207949457Y-82254541D01*
X207935597Y-82249582D01*
X207922290Y-82243288D01*
X207909664Y-82235720D01*
X207897841Y-82226952D01*
X207886934Y-82217066D01*
X207877048Y-82206159D01*
X207868280Y-82194336D01*
X207860712Y-82181710D01*
X207854418Y-82168403D01*
X207849459Y-82154543D01*
X207845882Y-82140264D01*
X207843722Y-82125703D01*
X207843000Y-82111000D01*
X207843000Y-81811000D01*
X207843722Y-81796297D01*
X207845882Y-81781736D01*
X207849459Y-81767457D01*
X207854418Y-81753597D01*
X207860712Y-81740290D01*
X207868280Y-81727664D01*
X207877048Y-81715841D01*
X207886934Y-81704934D01*
X207897841Y-81695048D01*
X207909664Y-81686280D01*
X207922290Y-81678712D01*
X207935597Y-81672418D01*
X207949457Y-81667459D01*
X207963736Y-81663882D01*
X207978297Y-81661722D01*
X207993000Y-81661000D01*
X209643000Y-81661000D01*
X209657703Y-81661722D01*
X209657703Y-81661722D01*
G37*
D12*
X208818000Y-81961000D03*
D10*
G36*
X214607703Y-81661722D02*
G01*
X214622264Y-81663882D01*
X214636543Y-81667459D01*
X214650403Y-81672418D01*
X214663710Y-81678712D01*
X214676336Y-81686280D01*
X214688159Y-81695048D01*
X214699066Y-81704934D01*
X214708952Y-81715841D01*
X214717720Y-81727664D01*
X214725288Y-81740290D01*
X214731582Y-81753597D01*
X214736541Y-81767457D01*
X214740118Y-81781736D01*
X214742278Y-81796297D01*
X214743000Y-81811000D01*
X214743000Y-82111000D01*
X214742278Y-82125703D01*
X214740118Y-82140264D01*
X214736541Y-82154543D01*
X214731582Y-82168403D01*
X214725288Y-82181710D01*
X214717720Y-82194336D01*
X214708952Y-82206159D01*
X214699066Y-82217066D01*
X214688159Y-82226952D01*
X214676336Y-82235720D01*
X214663710Y-82243288D01*
X214650403Y-82249582D01*
X214636543Y-82254541D01*
X214622264Y-82258118D01*
X214607703Y-82260278D01*
X214593000Y-82261000D01*
X212943000Y-82261000D01*
X212928297Y-82260278D01*
X212913736Y-82258118D01*
X212899457Y-82254541D01*
X212885597Y-82249582D01*
X212872290Y-82243288D01*
X212859664Y-82235720D01*
X212847841Y-82226952D01*
X212836934Y-82217066D01*
X212827048Y-82206159D01*
X212818280Y-82194336D01*
X212810712Y-82181710D01*
X212804418Y-82168403D01*
X212799459Y-82154543D01*
X212795882Y-82140264D01*
X212793722Y-82125703D01*
X212793000Y-82111000D01*
X212793000Y-81811000D01*
X212793722Y-81796297D01*
X212795882Y-81781736D01*
X212799459Y-81767457D01*
X212804418Y-81753597D01*
X212810712Y-81740290D01*
X212818280Y-81727664D01*
X212827048Y-81715841D01*
X212836934Y-81704934D01*
X212847841Y-81695048D01*
X212859664Y-81686280D01*
X212872290Y-81678712D01*
X212885597Y-81672418D01*
X212899457Y-81667459D01*
X212913736Y-81663882D01*
X212928297Y-81661722D01*
X212943000Y-81661000D01*
X214593000Y-81661000D01*
X214607703Y-81661722D01*
X214607703Y-81661722D01*
G37*
D12*
X213768000Y-81961000D03*
D10*
G36*
X214607703Y-82931722D02*
G01*
X214622264Y-82933882D01*
X214636543Y-82937459D01*
X214650403Y-82942418D01*
X214663710Y-82948712D01*
X214676336Y-82956280D01*
X214688159Y-82965048D01*
X214699066Y-82974934D01*
X214708952Y-82985841D01*
X214717720Y-82997664D01*
X214725288Y-83010290D01*
X214731582Y-83023597D01*
X214736541Y-83037457D01*
X214740118Y-83051736D01*
X214742278Y-83066297D01*
X214743000Y-83081000D01*
X214743000Y-83381000D01*
X214742278Y-83395703D01*
X214740118Y-83410264D01*
X214736541Y-83424543D01*
X214731582Y-83438403D01*
X214725288Y-83451710D01*
X214717720Y-83464336D01*
X214708952Y-83476159D01*
X214699066Y-83487066D01*
X214688159Y-83496952D01*
X214676336Y-83505720D01*
X214663710Y-83513288D01*
X214650403Y-83519582D01*
X214636543Y-83524541D01*
X214622264Y-83528118D01*
X214607703Y-83530278D01*
X214593000Y-83531000D01*
X212943000Y-83531000D01*
X212928297Y-83530278D01*
X212913736Y-83528118D01*
X212899457Y-83524541D01*
X212885597Y-83519582D01*
X212872290Y-83513288D01*
X212859664Y-83505720D01*
X212847841Y-83496952D01*
X212836934Y-83487066D01*
X212827048Y-83476159D01*
X212818280Y-83464336D01*
X212810712Y-83451710D01*
X212804418Y-83438403D01*
X212799459Y-83424543D01*
X212795882Y-83410264D01*
X212793722Y-83395703D01*
X212793000Y-83381000D01*
X212793000Y-83081000D01*
X212793722Y-83066297D01*
X212795882Y-83051736D01*
X212799459Y-83037457D01*
X212804418Y-83023597D01*
X212810712Y-83010290D01*
X212818280Y-82997664D01*
X212827048Y-82985841D01*
X212836934Y-82974934D01*
X212847841Y-82965048D01*
X212859664Y-82956280D01*
X212872290Y-82948712D01*
X212885597Y-82942418D01*
X212899457Y-82937459D01*
X212913736Y-82933882D01*
X212928297Y-82931722D01*
X212943000Y-82931000D01*
X214593000Y-82931000D01*
X214607703Y-82931722D01*
X214607703Y-82931722D01*
G37*
D12*
X213768000Y-83231000D03*
D10*
G36*
X214607703Y-84201722D02*
G01*
X214622264Y-84203882D01*
X214636543Y-84207459D01*
X214650403Y-84212418D01*
X214663710Y-84218712D01*
X214676336Y-84226280D01*
X214688159Y-84235048D01*
X214699066Y-84244934D01*
X214708952Y-84255841D01*
X214717720Y-84267664D01*
X214725288Y-84280290D01*
X214731582Y-84293597D01*
X214736541Y-84307457D01*
X214740118Y-84321736D01*
X214742278Y-84336297D01*
X214743000Y-84351000D01*
X214743000Y-84651000D01*
X214742278Y-84665703D01*
X214740118Y-84680264D01*
X214736541Y-84694543D01*
X214731582Y-84708403D01*
X214725288Y-84721710D01*
X214717720Y-84734336D01*
X214708952Y-84746159D01*
X214699066Y-84757066D01*
X214688159Y-84766952D01*
X214676336Y-84775720D01*
X214663710Y-84783288D01*
X214650403Y-84789582D01*
X214636543Y-84794541D01*
X214622264Y-84798118D01*
X214607703Y-84800278D01*
X214593000Y-84801000D01*
X212943000Y-84801000D01*
X212928297Y-84800278D01*
X212913736Y-84798118D01*
X212899457Y-84794541D01*
X212885597Y-84789582D01*
X212872290Y-84783288D01*
X212859664Y-84775720D01*
X212847841Y-84766952D01*
X212836934Y-84757066D01*
X212827048Y-84746159D01*
X212818280Y-84734336D01*
X212810712Y-84721710D01*
X212804418Y-84708403D01*
X212799459Y-84694543D01*
X212795882Y-84680264D01*
X212793722Y-84665703D01*
X212793000Y-84651000D01*
X212793000Y-84351000D01*
X212793722Y-84336297D01*
X212795882Y-84321736D01*
X212799459Y-84307457D01*
X212804418Y-84293597D01*
X212810712Y-84280290D01*
X212818280Y-84267664D01*
X212827048Y-84255841D01*
X212836934Y-84244934D01*
X212847841Y-84235048D01*
X212859664Y-84226280D01*
X212872290Y-84218712D01*
X212885597Y-84212418D01*
X212899457Y-84207459D01*
X212913736Y-84203882D01*
X212928297Y-84201722D01*
X212943000Y-84201000D01*
X214593000Y-84201000D01*
X214607703Y-84201722D01*
X214607703Y-84201722D01*
G37*
D12*
X213768000Y-84501000D03*
D10*
G36*
X214607703Y-85471722D02*
G01*
X214622264Y-85473882D01*
X214636543Y-85477459D01*
X214650403Y-85482418D01*
X214663710Y-85488712D01*
X214676336Y-85496280D01*
X214688159Y-85505048D01*
X214699066Y-85514934D01*
X214708952Y-85525841D01*
X214717720Y-85537664D01*
X214725288Y-85550290D01*
X214731582Y-85563597D01*
X214736541Y-85577457D01*
X214740118Y-85591736D01*
X214742278Y-85606297D01*
X214743000Y-85621000D01*
X214743000Y-85921000D01*
X214742278Y-85935703D01*
X214740118Y-85950264D01*
X214736541Y-85964543D01*
X214731582Y-85978403D01*
X214725288Y-85991710D01*
X214717720Y-86004336D01*
X214708952Y-86016159D01*
X214699066Y-86027066D01*
X214688159Y-86036952D01*
X214676336Y-86045720D01*
X214663710Y-86053288D01*
X214650403Y-86059582D01*
X214636543Y-86064541D01*
X214622264Y-86068118D01*
X214607703Y-86070278D01*
X214593000Y-86071000D01*
X212943000Y-86071000D01*
X212928297Y-86070278D01*
X212913736Y-86068118D01*
X212899457Y-86064541D01*
X212885597Y-86059582D01*
X212872290Y-86053288D01*
X212859664Y-86045720D01*
X212847841Y-86036952D01*
X212836934Y-86027066D01*
X212827048Y-86016159D01*
X212818280Y-86004336D01*
X212810712Y-85991710D01*
X212804418Y-85978403D01*
X212799459Y-85964543D01*
X212795882Y-85950264D01*
X212793722Y-85935703D01*
X212793000Y-85921000D01*
X212793000Y-85621000D01*
X212793722Y-85606297D01*
X212795882Y-85591736D01*
X212799459Y-85577457D01*
X212804418Y-85563597D01*
X212810712Y-85550290D01*
X212818280Y-85537664D01*
X212827048Y-85525841D01*
X212836934Y-85514934D01*
X212847841Y-85505048D01*
X212859664Y-85496280D01*
X212872290Y-85488712D01*
X212885597Y-85482418D01*
X212899457Y-85477459D01*
X212913736Y-85473882D01*
X212928297Y-85471722D01*
X212943000Y-85471000D01*
X214593000Y-85471000D01*
X214607703Y-85471722D01*
X214607703Y-85471722D01*
G37*
D12*
X213768000Y-85771000D03*
D13*
X69705000Y-59220000D03*
D14*
X68555000Y-55220000D03*
D13*
X67405000Y-59220000D03*
D15*
X194920000Y-94985000D03*
X194920000Y-100735000D03*
X197460000Y-94985000D03*
X197460000Y-100735000D03*
X200000000Y-94985000D03*
X200000000Y-100735000D03*
X202540000Y-94985000D03*
X202540000Y-100735000D03*
X205080000Y-94985000D03*
X205080000Y-100735000D03*
D16*
X217970000Y-75000000D03*
X209970000Y-75000000D03*
D10*
G36*
X70483623Y-81745915D02*
G01*
X70502067Y-81748651D01*
X70520154Y-81753181D01*
X70537710Y-81759463D01*
X70554565Y-81767435D01*
X70570558Y-81777021D01*
X70585535Y-81788128D01*
X70599350Y-81800650D01*
X70611872Y-81814465D01*
X70622979Y-81829442D01*
X70632565Y-81845435D01*
X70640537Y-81862290D01*
X70646819Y-81879846D01*
X70651349Y-81897933D01*
X70654085Y-81916377D01*
X70655000Y-81935000D01*
X70655000Y-83305000D01*
X70654085Y-83323623D01*
X70651349Y-83342067D01*
X70646819Y-83360154D01*
X70640537Y-83377710D01*
X70632565Y-83394565D01*
X70622979Y-83410558D01*
X70611872Y-83425535D01*
X70599350Y-83439350D01*
X70585535Y-83451872D01*
X70570558Y-83462979D01*
X70554565Y-83472565D01*
X70537710Y-83480537D01*
X70520154Y-83486819D01*
X70502067Y-83491349D01*
X70483623Y-83494085D01*
X70465000Y-83495000D01*
X69895000Y-83495000D01*
X69876377Y-83494085D01*
X69857933Y-83491349D01*
X69839846Y-83486819D01*
X69822290Y-83480537D01*
X69805435Y-83472565D01*
X69789442Y-83462979D01*
X69774465Y-83451872D01*
X69760650Y-83439350D01*
X69748128Y-83425535D01*
X69737021Y-83410558D01*
X69727435Y-83394565D01*
X69719463Y-83377710D01*
X69713181Y-83360154D01*
X69708651Y-83342067D01*
X69705915Y-83323623D01*
X69705000Y-83305000D01*
X69705000Y-81935000D01*
X69705915Y-81916377D01*
X69708651Y-81897933D01*
X69713181Y-81879846D01*
X69719463Y-81862290D01*
X69727435Y-81845435D01*
X69737021Y-81829442D01*
X69748128Y-81814465D01*
X69760650Y-81800650D01*
X69774465Y-81788128D01*
X69789442Y-81777021D01*
X69805435Y-81767435D01*
X69822290Y-81759463D01*
X69839846Y-81753181D01*
X69857933Y-81748651D01*
X69876377Y-81745915D01*
X69895000Y-81745000D01*
X70465000Y-81745000D01*
X70483623Y-81745915D01*
X70483623Y-81745915D01*
G37*
D11*
X70180000Y-82620000D03*
D10*
G36*
X73583623Y-81745915D02*
G01*
X73602067Y-81748651D01*
X73620154Y-81753181D01*
X73637710Y-81759463D01*
X73654565Y-81767435D01*
X73670558Y-81777021D01*
X73685535Y-81788128D01*
X73699350Y-81800650D01*
X73711872Y-81814465D01*
X73722979Y-81829442D01*
X73732565Y-81845435D01*
X73740537Y-81862290D01*
X73746819Y-81879846D01*
X73751349Y-81897933D01*
X73754085Y-81916377D01*
X73755000Y-81935000D01*
X73755000Y-83305000D01*
X73754085Y-83323623D01*
X73751349Y-83342067D01*
X73746819Y-83360154D01*
X73740537Y-83377710D01*
X73732565Y-83394565D01*
X73722979Y-83410558D01*
X73711872Y-83425535D01*
X73699350Y-83439350D01*
X73685535Y-83451872D01*
X73670558Y-83462979D01*
X73654565Y-83472565D01*
X73637710Y-83480537D01*
X73620154Y-83486819D01*
X73602067Y-83491349D01*
X73583623Y-83494085D01*
X73565000Y-83495000D01*
X72995000Y-83495000D01*
X72976377Y-83494085D01*
X72957933Y-83491349D01*
X72939846Y-83486819D01*
X72922290Y-83480537D01*
X72905435Y-83472565D01*
X72889442Y-83462979D01*
X72874465Y-83451872D01*
X72860650Y-83439350D01*
X72848128Y-83425535D01*
X72837021Y-83410558D01*
X72827435Y-83394565D01*
X72819463Y-83377710D01*
X72813181Y-83360154D01*
X72808651Y-83342067D01*
X72805915Y-83323623D01*
X72805000Y-83305000D01*
X72805000Y-81935000D01*
X72805915Y-81916377D01*
X72808651Y-81897933D01*
X72813181Y-81879846D01*
X72819463Y-81862290D01*
X72827435Y-81845435D01*
X72837021Y-81829442D01*
X72848128Y-81814465D01*
X72860650Y-81800650D01*
X72874465Y-81788128D01*
X72889442Y-81777021D01*
X72905435Y-81767435D01*
X72922290Y-81759463D01*
X72939846Y-81753181D01*
X72957933Y-81748651D01*
X72976377Y-81745915D01*
X72995000Y-81745000D01*
X73565000Y-81745000D01*
X73583623Y-81745915D01*
X73583623Y-81745915D01*
G37*
D11*
X73280000Y-82620000D03*
D10*
G36*
X70483623Y-66505915D02*
G01*
X70502067Y-66508651D01*
X70520154Y-66513181D01*
X70537710Y-66519463D01*
X70554565Y-66527435D01*
X70570558Y-66537021D01*
X70585535Y-66548128D01*
X70599350Y-66560650D01*
X70611872Y-66574465D01*
X70622979Y-66589442D01*
X70632565Y-66605435D01*
X70640537Y-66622290D01*
X70646819Y-66639846D01*
X70651349Y-66657933D01*
X70654085Y-66676377D01*
X70655000Y-66695000D01*
X70655000Y-68065000D01*
X70654085Y-68083623D01*
X70651349Y-68102067D01*
X70646819Y-68120154D01*
X70640537Y-68137710D01*
X70632565Y-68154565D01*
X70622979Y-68170558D01*
X70611872Y-68185535D01*
X70599350Y-68199350D01*
X70585535Y-68211872D01*
X70570558Y-68222979D01*
X70554565Y-68232565D01*
X70537710Y-68240537D01*
X70520154Y-68246819D01*
X70502067Y-68251349D01*
X70483623Y-68254085D01*
X70465000Y-68255000D01*
X69895000Y-68255000D01*
X69876377Y-68254085D01*
X69857933Y-68251349D01*
X69839846Y-68246819D01*
X69822290Y-68240537D01*
X69805435Y-68232565D01*
X69789442Y-68222979D01*
X69774465Y-68211872D01*
X69760650Y-68199350D01*
X69748128Y-68185535D01*
X69737021Y-68170558D01*
X69727435Y-68154565D01*
X69719463Y-68137710D01*
X69713181Y-68120154D01*
X69708651Y-68102067D01*
X69705915Y-68083623D01*
X69705000Y-68065000D01*
X69705000Y-66695000D01*
X69705915Y-66676377D01*
X69708651Y-66657933D01*
X69713181Y-66639846D01*
X69719463Y-66622290D01*
X69727435Y-66605435D01*
X69737021Y-66589442D01*
X69748128Y-66574465D01*
X69760650Y-66560650D01*
X69774465Y-66548128D01*
X69789442Y-66537021D01*
X69805435Y-66527435D01*
X69822290Y-66519463D01*
X69839846Y-66513181D01*
X69857933Y-66508651D01*
X69876377Y-66505915D01*
X69895000Y-66505000D01*
X70465000Y-66505000D01*
X70483623Y-66505915D01*
X70483623Y-66505915D01*
G37*
D11*
X70180000Y-67380000D03*
D10*
G36*
X73583623Y-66505915D02*
G01*
X73602067Y-66508651D01*
X73620154Y-66513181D01*
X73637710Y-66519463D01*
X73654565Y-66527435D01*
X73670558Y-66537021D01*
X73685535Y-66548128D01*
X73699350Y-66560650D01*
X73711872Y-66574465D01*
X73722979Y-66589442D01*
X73732565Y-66605435D01*
X73740537Y-66622290D01*
X73746819Y-66639846D01*
X73751349Y-66657933D01*
X73754085Y-66676377D01*
X73755000Y-66695000D01*
X73755000Y-68065000D01*
X73754085Y-68083623D01*
X73751349Y-68102067D01*
X73746819Y-68120154D01*
X73740537Y-68137710D01*
X73732565Y-68154565D01*
X73722979Y-68170558D01*
X73711872Y-68185535D01*
X73699350Y-68199350D01*
X73685535Y-68211872D01*
X73670558Y-68222979D01*
X73654565Y-68232565D01*
X73637710Y-68240537D01*
X73620154Y-68246819D01*
X73602067Y-68251349D01*
X73583623Y-68254085D01*
X73565000Y-68255000D01*
X72995000Y-68255000D01*
X72976377Y-68254085D01*
X72957933Y-68251349D01*
X72939846Y-68246819D01*
X72922290Y-68240537D01*
X72905435Y-68232565D01*
X72889442Y-68222979D01*
X72874465Y-68211872D01*
X72860650Y-68199350D01*
X72848128Y-68185535D01*
X72837021Y-68170558D01*
X72827435Y-68154565D01*
X72819463Y-68137710D01*
X72813181Y-68120154D01*
X72808651Y-68102067D01*
X72805915Y-68083623D01*
X72805000Y-68065000D01*
X72805000Y-66695000D01*
X72805915Y-66676377D01*
X72808651Y-66657933D01*
X72813181Y-66639846D01*
X72819463Y-66622290D01*
X72827435Y-66605435D01*
X72837021Y-66589442D01*
X72848128Y-66574465D01*
X72860650Y-66560650D01*
X72874465Y-66548128D01*
X72889442Y-66537021D01*
X72905435Y-66527435D01*
X72922290Y-66519463D01*
X72939846Y-66513181D01*
X72957933Y-66508651D01*
X72976377Y-66505915D01*
X72995000Y-66505000D01*
X73565000Y-66505000D01*
X73583623Y-66505915D01*
X73583623Y-66505915D01*
G37*
D11*
X73280000Y-67380000D03*
D10*
G36*
X70483623Y-74125915D02*
G01*
X70502067Y-74128651D01*
X70520154Y-74133181D01*
X70537710Y-74139463D01*
X70554565Y-74147435D01*
X70570558Y-74157021D01*
X70585535Y-74168128D01*
X70599350Y-74180650D01*
X70611872Y-74194465D01*
X70622979Y-74209442D01*
X70632565Y-74225435D01*
X70640537Y-74242290D01*
X70646819Y-74259846D01*
X70651349Y-74277933D01*
X70654085Y-74296377D01*
X70655000Y-74315000D01*
X70655000Y-75685000D01*
X70654085Y-75703623D01*
X70651349Y-75722067D01*
X70646819Y-75740154D01*
X70640537Y-75757710D01*
X70632565Y-75774565D01*
X70622979Y-75790558D01*
X70611872Y-75805535D01*
X70599350Y-75819350D01*
X70585535Y-75831872D01*
X70570558Y-75842979D01*
X70554565Y-75852565D01*
X70537710Y-75860537D01*
X70520154Y-75866819D01*
X70502067Y-75871349D01*
X70483623Y-75874085D01*
X70465000Y-75875000D01*
X69895000Y-75875000D01*
X69876377Y-75874085D01*
X69857933Y-75871349D01*
X69839846Y-75866819D01*
X69822290Y-75860537D01*
X69805435Y-75852565D01*
X69789442Y-75842979D01*
X69774465Y-75831872D01*
X69760650Y-75819350D01*
X69748128Y-75805535D01*
X69737021Y-75790558D01*
X69727435Y-75774565D01*
X69719463Y-75757710D01*
X69713181Y-75740154D01*
X69708651Y-75722067D01*
X69705915Y-75703623D01*
X69705000Y-75685000D01*
X69705000Y-74315000D01*
X69705915Y-74296377D01*
X69708651Y-74277933D01*
X69713181Y-74259846D01*
X69719463Y-74242290D01*
X69727435Y-74225435D01*
X69737021Y-74209442D01*
X69748128Y-74194465D01*
X69760650Y-74180650D01*
X69774465Y-74168128D01*
X69789442Y-74157021D01*
X69805435Y-74147435D01*
X69822290Y-74139463D01*
X69839846Y-74133181D01*
X69857933Y-74128651D01*
X69876377Y-74125915D01*
X69895000Y-74125000D01*
X70465000Y-74125000D01*
X70483623Y-74125915D01*
X70483623Y-74125915D01*
G37*
D11*
X70180000Y-75000000D03*
D10*
G36*
X73583623Y-74125915D02*
G01*
X73602067Y-74128651D01*
X73620154Y-74133181D01*
X73637710Y-74139463D01*
X73654565Y-74147435D01*
X73670558Y-74157021D01*
X73685535Y-74168128D01*
X73699350Y-74180650D01*
X73711872Y-74194465D01*
X73722979Y-74209442D01*
X73732565Y-74225435D01*
X73740537Y-74242290D01*
X73746819Y-74259846D01*
X73751349Y-74277933D01*
X73754085Y-74296377D01*
X73755000Y-74315000D01*
X73755000Y-75685000D01*
X73754085Y-75703623D01*
X73751349Y-75722067D01*
X73746819Y-75740154D01*
X73740537Y-75757710D01*
X73732565Y-75774565D01*
X73722979Y-75790558D01*
X73711872Y-75805535D01*
X73699350Y-75819350D01*
X73685535Y-75831872D01*
X73670558Y-75842979D01*
X73654565Y-75852565D01*
X73637710Y-75860537D01*
X73620154Y-75866819D01*
X73602067Y-75871349D01*
X73583623Y-75874085D01*
X73565000Y-75875000D01*
X72995000Y-75875000D01*
X72976377Y-75874085D01*
X72957933Y-75871349D01*
X72939846Y-75866819D01*
X72922290Y-75860537D01*
X72905435Y-75852565D01*
X72889442Y-75842979D01*
X72874465Y-75831872D01*
X72860650Y-75819350D01*
X72848128Y-75805535D01*
X72837021Y-75790558D01*
X72827435Y-75774565D01*
X72819463Y-75757710D01*
X72813181Y-75740154D01*
X72808651Y-75722067D01*
X72805915Y-75703623D01*
X72805000Y-75685000D01*
X72805000Y-74315000D01*
X72805915Y-74296377D01*
X72808651Y-74277933D01*
X72813181Y-74259846D01*
X72819463Y-74242290D01*
X72827435Y-74225435D01*
X72837021Y-74209442D01*
X72848128Y-74194465D01*
X72860650Y-74180650D01*
X72874465Y-74168128D01*
X72889442Y-74157021D01*
X72905435Y-74147435D01*
X72922290Y-74139463D01*
X72939846Y-74133181D01*
X72957933Y-74128651D01*
X72976377Y-74125915D01*
X72995000Y-74125000D01*
X73565000Y-74125000D01*
X73583623Y-74125915D01*
X73583623Y-74125915D01*
G37*
D11*
X73280000Y-75000000D03*
D17*
X196400000Y-65255000D03*
X196400000Y-64605000D03*
X196400000Y-63955000D03*
X196400000Y-63305000D03*
X196400000Y-62655000D03*
X196400000Y-62005000D03*
X196400000Y-61355000D03*
X196400000Y-60705000D03*
X196400000Y-60055000D03*
X196400000Y-59405000D03*
X196400000Y-58755000D03*
X196400000Y-58105000D03*
X196400000Y-57455000D03*
X196400000Y-56805000D03*
X203600000Y-56805000D03*
X203600000Y-57455000D03*
X203600000Y-58105000D03*
X203600000Y-58755000D03*
X203600000Y-59405000D03*
X203600000Y-60055000D03*
X203600000Y-60705000D03*
X203600000Y-61355000D03*
X203600000Y-62005000D03*
X203600000Y-62655000D03*
X203600000Y-63305000D03*
X203600000Y-63955000D03*
X203600000Y-64605000D03*
X203600000Y-65255000D03*
D10*
G36*
X71165779Y-78336144D02*
G01*
X71188834Y-78339563D01*
X71211443Y-78345227D01*
X71233387Y-78353079D01*
X71254457Y-78363044D01*
X71274448Y-78375026D01*
X71293168Y-78388910D01*
X71310438Y-78404562D01*
X71326090Y-78421832D01*
X71339974Y-78440552D01*
X71351956Y-78460543D01*
X71361921Y-78481613D01*
X71369773Y-78503557D01*
X71375437Y-78526166D01*
X71378856Y-78549221D01*
X71380000Y-78572500D01*
X71380000Y-79047500D01*
X71378856Y-79070779D01*
X71375437Y-79093834D01*
X71369773Y-79116443D01*
X71361921Y-79138387D01*
X71351956Y-79159457D01*
X71339974Y-79179448D01*
X71326090Y-79198168D01*
X71310438Y-79215438D01*
X71293168Y-79231090D01*
X71274448Y-79244974D01*
X71254457Y-79256956D01*
X71233387Y-79266921D01*
X71211443Y-79274773D01*
X71188834Y-79280437D01*
X71165779Y-79283856D01*
X71142500Y-79285000D01*
X70567500Y-79285000D01*
X70544221Y-79283856D01*
X70521166Y-79280437D01*
X70498557Y-79274773D01*
X70476613Y-79266921D01*
X70455543Y-79256956D01*
X70435552Y-79244974D01*
X70416832Y-79231090D01*
X70399562Y-79215438D01*
X70383910Y-79198168D01*
X70370026Y-79179448D01*
X70358044Y-79159457D01*
X70348079Y-79138387D01*
X70340227Y-79116443D01*
X70334563Y-79093834D01*
X70331144Y-79070779D01*
X70330000Y-79047500D01*
X70330000Y-78572500D01*
X70331144Y-78549221D01*
X70334563Y-78526166D01*
X70340227Y-78503557D01*
X70348079Y-78481613D01*
X70358044Y-78460543D01*
X70370026Y-78440552D01*
X70383910Y-78421832D01*
X70399562Y-78404562D01*
X70416832Y-78388910D01*
X70435552Y-78375026D01*
X70455543Y-78363044D01*
X70476613Y-78353079D01*
X70498557Y-78345227D01*
X70521166Y-78339563D01*
X70544221Y-78336144D01*
X70567500Y-78335000D01*
X71142500Y-78335000D01*
X71165779Y-78336144D01*
X71165779Y-78336144D01*
G37*
D11*
X70855000Y-78810000D03*
D10*
G36*
X72915779Y-78336144D02*
G01*
X72938834Y-78339563D01*
X72961443Y-78345227D01*
X72983387Y-78353079D01*
X73004457Y-78363044D01*
X73024448Y-78375026D01*
X73043168Y-78388910D01*
X73060438Y-78404562D01*
X73076090Y-78421832D01*
X73089974Y-78440552D01*
X73101956Y-78460543D01*
X73111921Y-78481613D01*
X73119773Y-78503557D01*
X73125437Y-78526166D01*
X73128856Y-78549221D01*
X73130000Y-78572500D01*
X73130000Y-79047500D01*
X73128856Y-79070779D01*
X73125437Y-79093834D01*
X73119773Y-79116443D01*
X73111921Y-79138387D01*
X73101956Y-79159457D01*
X73089974Y-79179448D01*
X73076090Y-79198168D01*
X73060438Y-79215438D01*
X73043168Y-79231090D01*
X73024448Y-79244974D01*
X73004457Y-79256956D01*
X72983387Y-79266921D01*
X72961443Y-79274773D01*
X72938834Y-79280437D01*
X72915779Y-79283856D01*
X72892500Y-79285000D01*
X72317500Y-79285000D01*
X72294221Y-79283856D01*
X72271166Y-79280437D01*
X72248557Y-79274773D01*
X72226613Y-79266921D01*
X72205543Y-79256956D01*
X72185552Y-79244974D01*
X72166832Y-79231090D01*
X72149562Y-79215438D01*
X72133910Y-79198168D01*
X72120026Y-79179448D01*
X72108044Y-79159457D01*
X72098079Y-79138387D01*
X72090227Y-79116443D01*
X72084563Y-79093834D01*
X72081144Y-79070779D01*
X72080000Y-79047500D01*
X72080000Y-78572500D01*
X72081144Y-78549221D01*
X72084563Y-78526166D01*
X72090227Y-78503557D01*
X72098079Y-78481613D01*
X72108044Y-78460543D01*
X72120026Y-78440552D01*
X72133910Y-78421832D01*
X72149562Y-78404562D01*
X72166832Y-78388910D01*
X72185552Y-78375026D01*
X72205543Y-78363044D01*
X72226613Y-78353079D01*
X72248557Y-78345227D01*
X72271166Y-78339563D01*
X72294221Y-78336144D01*
X72317500Y-78335000D01*
X72892500Y-78335000D01*
X72915779Y-78336144D01*
X72915779Y-78336144D01*
G37*
D11*
X72605000Y-78810000D03*
D10*
G36*
X71165779Y-63096144D02*
G01*
X71188834Y-63099563D01*
X71211443Y-63105227D01*
X71233387Y-63113079D01*
X71254457Y-63123044D01*
X71274448Y-63135026D01*
X71293168Y-63148910D01*
X71310438Y-63164562D01*
X71326090Y-63181832D01*
X71339974Y-63200552D01*
X71351956Y-63220543D01*
X71361921Y-63241613D01*
X71369773Y-63263557D01*
X71375437Y-63286166D01*
X71378856Y-63309221D01*
X71380000Y-63332500D01*
X71380000Y-63807500D01*
X71378856Y-63830779D01*
X71375437Y-63853834D01*
X71369773Y-63876443D01*
X71361921Y-63898387D01*
X71351956Y-63919457D01*
X71339974Y-63939448D01*
X71326090Y-63958168D01*
X71310438Y-63975438D01*
X71293168Y-63991090D01*
X71274448Y-64004974D01*
X71254457Y-64016956D01*
X71233387Y-64026921D01*
X71211443Y-64034773D01*
X71188834Y-64040437D01*
X71165779Y-64043856D01*
X71142500Y-64045000D01*
X70567500Y-64045000D01*
X70544221Y-64043856D01*
X70521166Y-64040437D01*
X70498557Y-64034773D01*
X70476613Y-64026921D01*
X70455543Y-64016956D01*
X70435552Y-64004974D01*
X70416832Y-63991090D01*
X70399562Y-63975438D01*
X70383910Y-63958168D01*
X70370026Y-63939448D01*
X70358044Y-63919457D01*
X70348079Y-63898387D01*
X70340227Y-63876443D01*
X70334563Y-63853834D01*
X70331144Y-63830779D01*
X70330000Y-63807500D01*
X70330000Y-63332500D01*
X70331144Y-63309221D01*
X70334563Y-63286166D01*
X70340227Y-63263557D01*
X70348079Y-63241613D01*
X70358044Y-63220543D01*
X70370026Y-63200552D01*
X70383910Y-63181832D01*
X70399562Y-63164562D01*
X70416832Y-63148910D01*
X70435552Y-63135026D01*
X70455543Y-63123044D01*
X70476613Y-63113079D01*
X70498557Y-63105227D01*
X70521166Y-63099563D01*
X70544221Y-63096144D01*
X70567500Y-63095000D01*
X71142500Y-63095000D01*
X71165779Y-63096144D01*
X71165779Y-63096144D01*
G37*
D11*
X70855000Y-63570000D03*
D10*
G36*
X72915779Y-63096144D02*
G01*
X72938834Y-63099563D01*
X72961443Y-63105227D01*
X72983387Y-63113079D01*
X73004457Y-63123044D01*
X73024448Y-63135026D01*
X73043168Y-63148910D01*
X73060438Y-63164562D01*
X73076090Y-63181832D01*
X73089974Y-63200552D01*
X73101956Y-63220543D01*
X73111921Y-63241613D01*
X73119773Y-63263557D01*
X73125437Y-63286166D01*
X73128856Y-63309221D01*
X73130000Y-63332500D01*
X73130000Y-63807500D01*
X73128856Y-63830779D01*
X73125437Y-63853834D01*
X73119773Y-63876443D01*
X73111921Y-63898387D01*
X73101956Y-63919457D01*
X73089974Y-63939448D01*
X73076090Y-63958168D01*
X73060438Y-63975438D01*
X73043168Y-63991090D01*
X73024448Y-64004974D01*
X73004457Y-64016956D01*
X72983387Y-64026921D01*
X72961443Y-64034773D01*
X72938834Y-64040437D01*
X72915779Y-64043856D01*
X72892500Y-64045000D01*
X72317500Y-64045000D01*
X72294221Y-64043856D01*
X72271166Y-64040437D01*
X72248557Y-64034773D01*
X72226613Y-64026921D01*
X72205543Y-64016956D01*
X72185552Y-64004974D01*
X72166832Y-63991090D01*
X72149562Y-63975438D01*
X72133910Y-63958168D01*
X72120026Y-63939448D01*
X72108044Y-63919457D01*
X72098079Y-63898387D01*
X72090227Y-63876443D01*
X72084563Y-63853834D01*
X72081144Y-63830779D01*
X72080000Y-63807500D01*
X72080000Y-63332500D01*
X72081144Y-63309221D01*
X72084563Y-63286166D01*
X72090227Y-63263557D01*
X72098079Y-63241613D01*
X72108044Y-63220543D01*
X72120026Y-63200552D01*
X72133910Y-63181832D01*
X72149562Y-63164562D01*
X72166832Y-63148910D01*
X72185552Y-63135026D01*
X72205543Y-63123044D01*
X72226613Y-63113079D01*
X72248557Y-63105227D01*
X72271166Y-63099563D01*
X72294221Y-63096144D01*
X72317500Y-63095000D01*
X72892500Y-63095000D01*
X72915779Y-63096144D01*
X72915779Y-63096144D01*
G37*
D11*
X72605000Y-63570000D03*
D10*
G36*
X71165779Y-70716144D02*
G01*
X71188834Y-70719563D01*
X71211443Y-70725227D01*
X71233387Y-70733079D01*
X71254457Y-70743044D01*
X71274448Y-70755026D01*
X71293168Y-70768910D01*
X71310438Y-70784562D01*
X71326090Y-70801832D01*
X71339974Y-70820552D01*
X71351956Y-70840543D01*
X71361921Y-70861613D01*
X71369773Y-70883557D01*
X71375437Y-70906166D01*
X71378856Y-70929221D01*
X71380000Y-70952500D01*
X71380000Y-71427500D01*
X71378856Y-71450779D01*
X71375437Y-71473834D01*
X71369773Y-71496443D01*
X71361921Y-71518387D01*
X71351956Y-71539457D01*
X71339974Y-71559448D01*
X71326090Y-71578168D01*
X71310438Y-71595438D01*
X71293168Y-71611090D01*
X71274448Y-71624974D01*
X71254457Y-71636956D01*
X71233387Y-71646921D01*
X71211443Y-71654773D01*
X71188834Y-71660437D01*
X71165779Y-71663856D01*
X71142500Y-71665000D01*
X70567500Y-71665000D01*
X70544221Y-71663856D01*
X70521166Y-71660437D01*
X70498557Y-71654773D01*
X70476613Y-71646921D01*
X70455543Y-71636956D01*
X70435552Y-71624974D01*
X70416832Y-71611090D01*
X70399562Y-71595438D01*
X70383910Y-71578168D01*
X70370026Y-71559448D01*
X70358044Y-71539457D01*
X70348079Y-71518387D01*
X70340227Y-71496443D01*
X70334563Y-71473834D01*
X70331144Y-71450779D01*
X70330000Y-71427500D01*
X70330000Y-70952500D01*
X70331144Y-70929221D01*
X70334563Y-70906166D01*
X70340227Y-70883557D01*
X70348079Y-70861613D01*
X70358044Y-70840543D01*
X70370026Y-70820552D01*
X70383910Y-70801832D01*
X70399562Y-70784562D01*
X70416832Y-70768910D01*
X70435552Y-70755026D01*
X70455543Y-70743044D01*
X70476613Y-70733079D01*
X70498557Y-70725227D01*
X70521166Y-70719563D01*
X70544221Y-70716144D01*
X70567500Y-70715000D01*
X71142500Y-70715000D01*
X71165779Y-70716144D01*
X71165779Y-70716144D01*
G37*
D11*
X70855000Y-71190000D03*
D10*
G36*
X72915779Y-70716144D02*
G01*
X72938834Y-70719563D01*
X72961443Y-70725227D01*
X72983387Y-70733079D01*
X73004457Y-70743044D01*
X73024448Y-70755026D01*
X73043168Y-70768910D01*
X73060438Y-70784562D01*
X73076090Y-70801832D01*
X73089974Y-70820552D01*
X73101956Y-70840543D01*
X73111921Y-70861613D01*
X73119773Y-70883557D01*
X73125437Y-70906166D01*
X73128856Y-70929221D01*
X73130000Y-70952500D01*
X73130000Y-71427500D01*
X73128856Y-71450779D01*
X73125437Y-71473834D01*
X73119773Y-71496443D01*
X73111921Y-71518387D01*
X73101956Y-71539457D01*
X73089974Y-71559448D01*
X73076090Y-71578168D01*
X73060438Y-71595438D01*
X73043168Y-71611090D01*
X73024448Y-71624974D01*
X73004457Y-71636956D01*
X72983387Y-71646921D01*
X72961443Y-71654773D01*
X72938834Y-71660437D01*
X72915779Y-71663856D01*
X72892500Y-71665000D01*
X72317500Y-71665000D01*
X72294221Y-71663856D01*
X72271166Y-71660437D01*
X72248557Y-71654773D01*
X72226613Y-71646921D01*
X72205543Y-71636956D01*
X72185552Y-71624974D01*
X72166832Y-71611090D01*
X72149562Y-71595438D01*
X72133910Y-71578168D01*
X72120026Y-71559448D01*
X72108044Y-71539457D01*
X72098079Y-71518387D01*
X72090227Y-71496443D01*
X72084563Y-71473834D01*
X72081144Y-71450779D01*
X72080000Y-71427500D01*
X72080000Y-70952500D01*
X72081144Y-70929221D01*
X72084563Y-70906166D01*
X72090227Y-70883557D01*
X72098079Y-70861613D01*
X72108044Y-70840543D01*
X72120026Y-70820552D01*
X72133910Y-70801832D01*
X72149562Y-70784562D01*
X72166832Y-70768910D01*
X72185552Y-70755026D01*
X72205543Y-70743044D01*
X72226613Y-70733079D01*
X72248557Y-70725227D01*
X72271166Y-70719563D01*
X72294221Y-70716144D01*
X72317500Y-70715000D01*
X72892500Y-70715000D01*
X72915779Y-70716144D01*
X72915779Y-70716144D01*
G37*
D11*
X72605000Y-71190000D03*
D10*
G36*
X184385779Y-96461144D02*
G01*
X184408834Y-96464563D01*
X184431443Y-96470227D01*
X184453387Y-96478079D01*
X184474457Y-96488044D01*
X184494448Y-96500026D01*
X184513168Y-96513910D01*
X184530438Y-96529562D01*
X184546090Y-96546832D01*
X184559974Y-96565552D01*
X184571956Y-96585543D01*
X184581921Y-96606613D01*
X184589773Y-96628557D01*
X184595437Y-96651166D01*
X184598856Y-96674221D01*
X184600000Y-96697500D01*
X184600000Y-97272500D01*
X184598856Y-97295779D01*
X184595437Y-97318834D01*
X184589773Y-97341443D01*
X184581921Y-97363387D01*
X184571956Y-97384457D01*
X184559974Y-97404448D01*
X184546090Y-97423168D01*
X184530438Y-97440438D01*
X184513168Y-97456090D01*
X184494448Y-97469974D01*
X184474457Y-97481956D01*
X184453387Y-97491921D01*
X184431443Y-97499773D01*
X184408834Y-97505437D01*
X184385779Y-97508856D01*
X184362500Y-97510000D01*
X183887500Y-97510000D01*
X183864221Y-97508856D01*
X183841166Y-97505437D01*
X183818557Y-97499773D01*
X183796613Y-97491921D01*
X183775543Y-97481956D01*
X183755552Y-97469974D01*
X183736832Y-97456090D01*
X183719562Y-97440438D01*
X183703910Y-97423168D01*
X183690026Y-97404448D01*
X183678044Y-97384457D01*
X183668079Y-97363387D01*
X183660227Y-97341443D01*
X183654563Y-97318834D01*
X183651144Y-97295779D01*
X183650000Y-97272500D01*
X183650000Y-96697500D01*
X183651144Y-96674221D01*
X183654563Y-96651166D01*
X183660227Y-96628557D01*
X183668079Y-96606613D01*
X183678044Y-96585543D01*
X183690026Y-96565552D01*
X183703910Y-96546832D01*
X183719562Y-96529562D01*
X183736832Y-96513910D01*
X183755552Y-96500026D01*
X183775543Y-96488044D01*
X183796613Y-96478079D01*
X183818557Y-96470227D01*
X183841166Y-96464563D01*
X183864221Y-96461144D01*
X183887500Y-96460000D01*
X184362500Y-96460000D01*
X184385779Y-96461144D01*
X184385779Y-96461144D01*
G37*
D11*
X184125000Y-96985000D03*
D10*
G36*
X184385779Y-98211144D02*
G01*
X184408834Y-98214563D01*
X184431443Y-98220227D01*
X184453387Y-98228079D01*
X184474457Y-98238044D01*
X184494448Y-98250026D01*
X184513168Y-98263910D01*
X184530438Y-98279562D01*
X184546090Y-98296832D01*
X184559974Y-98315552D01*
X184571956Y-98335543D01*
X184581921Y-98356613D01*
X184589773Y-98378557D01*
X184595437Y-98401166D01*
X184598856Y-98424221D01*
X184600000Y-98447500D01*
X184600000Y-99022500D01*
X184598856Y-99045779D01*
X184595437Y-99068834D01*
X184589773Y-99091443D01*
X184581921Y-99113387D01*
X184571956Y-99134457D01*
X184559974Y-99154448D01*
X184546090Y-99173168D01*
X184530438Y-99190438D01*
X184513168Y-99206090D01*
X184494448Y-99219974D01*
X184474457Y-99231956D01*
X184453387Y-99241921D01*
X184431443Y-99249773D01*
X184408834Y-99255437D01*
X184385779Y-99258856D01*
X184362500Y-99260000D01*
X183887500Y-99260000D01*
X183864221Y-99258856D01*
X183841166Y-99255437D01*
X183818557Y-99249773D01*
X183796613Y-99241921D01*
X183775543Y-99231956D01*
X183755552Y-99219974D01*
X183736832Y-99206090D01*
X183719562Y-99190438D01*
X183703910Y-99173168D01*
X183690026Y-99154448D01*
X183678044Y-99134457D01*
X183668079Y-99113387D01*
X183660227Y-99091443D01*
X183654563Y-99068834D01*
X183651144Y-99045779D01*
X183650000Y-99022500D01*
X183650000Y-98447500D01*
X183651144Y-98424221D01*
X183654563Y-98401166D01*
X183660227Y-98378557D01*
X183668079Y-98356613D01*
X183678044Y-98335543D01*
X183690026Y-98315552D01*
X183703910Y-98296832D01*
X183719562Y-98279562D01*
X183736832Y-98263910D01*
X183755552Y-98250026D01*
X183775543Y-98238044D01*
X183796613Y-98228079D01*
X183818557Y-98220227D01*
X183841166Y-98214563D01*
X183864221Y-98211144D01*
X183887500Y-98210000D01*
X184362500Y-98210000D01*
X184385779Y-98211144D01*
X184385779Y-98211144D01*
G37*
D11*
X184125000Y-98735000D03*
D10*
G36*
X186290779Y-96461144D02*
G01*
X186313834Y-96464563D01*
X186336443Y-96470227D01*
X186358387Y-96478079D01*
X186379457Y-96488044D01*
X186399448Y-96500026D01*
X186418168Y-96513910D01*
X186435438Y-96529562D01*
X186451090Y-96546832D01*
X186464974Y-96565552D01*
X186476956Y-96585543D01*
X186486921Y-96606613D01*
X186494773Y-96628557D01*
X186500437Y-96651166D01*
X186503856Y-96674221D01*
X186505000Y-96697500D01*
X186505000Y-97272500D01*
X186503856Y-97295779D01*
X186500437Y-97318834D01*
X186494773Y-97341443D01*
X186486921Y-97363387D01*
X186476956Y-97384457D01*
X186464974Y-97404448D01*
X186451090Y-97423168D01*
X186435438Y-97440438D01*
X186418168Y-97456090D01*
X186399448Y-97469974D01*
X186379457Y-97481956D01*
X186358387Y-97491921D01*
X186336443Y-97499773D01*
X186313834Y-97505437D01*
X186290779Y-97508856D01*
X186267500Y-97510000D01*
X185792500Y-97510000D01*
X185769221Y-97508856D01*
X185746166Y-97505437D01*
X185723557Y-97499773D01*
X185701613Y-97491921D01*
X185680543Y-97481956D01*
X185660552Y-97469974D01*
X185641832Y-97456090D01*
X185624562Y-97440438D01*
X185608910Y-97423168D01*
X185595026Y-97404448D01*
X185583044Y-97384457D01*
X185573079Y-97363387D01*
X185565227Y-97341443D01*
X185559563Y-97318834D01*
X185556144Y-97295779D01*
X185555000Y-97272500D01*
X185555000Y-96697500D01*
X185556144Y-96674221D01*
X185559563Y-96651166D01*
X185565227Y-96628557D01*
X185573079Y-96606613D01*
X185583044Y-96585543D01*
X185595026Y-96565552D01*
X185608910Y-96546832D01*
X185624562Y-96529562D01*
X185641832Y-96513910D01*
X185660552Y-96500026D01*
X185680543Y-96488044D01*
X185701613Y-96478079D01*
X185723557Y-96470227D01*
X185746166Y-96464563D01*
X185769221Y-96461144D01*
X185792500Y-96460000D01*
X186267500Y-96460000D01*
X186290779Y-96461144D01*
X186290779Y-96461144D01*
G37*
D11*
X186030000Y-96985000D03*
D10*
G36*
X186290779Y-98211144D02*
G01*
X186313834Y-98214563D01*
X186336443Y-98220227D01*
X186358387Y-98228079D01*
X186379457Y-98238044D01*
X186399448Y-98250026D01*
X186418168Y-98263910D01*
X186435438Y-98279562D01*
X186451090Y-98296832D01*
X186464974Y-98315552D01*
X186476956Y-98335543D01*
X186486921Y-98356613D01*
X186494773Y-98378557D01*
X186500437Y-98401166D01*
X186503856Y-98424221D01*
X186505000Y-98447500D01*
X186505000Y-99022500D01*
X186503856Y-99045779D01*
X186500437Y-99068834D01*
X186494773Y-99091443D01*
X186486921Y-99113387D01*
X186476956Y-99134457D01*
X186464974Y-99154448D01*
X186451090Y-99173168D01*
X186435438Y-99190438D01*
X186418168Y-99206090D01*
X186399448Y-99219974D01*
X186379457Y-99231956D01*
X186358387Y-99241921D01*
X186336443Y-99249773D01*
X186313834Y-99255437D01*
X186290779Y-99258856D01*
X186267500Y-99260000D01*
X185792500Y-99260000D01*
X185769221Y-99258856D01*
X185746166Y-99255437D01*
X185723557Y-99249773D01*
X185701613Y-99241921D01*
X185680543Y-99231956D01*
X185660552Y-99219974D01*
X185641832Y-99206090D01*
X185624562Y-99190438D01*
X185608910Y-99173168D01*
X185595026Y-99154448D01*
X185583044Y-99134457D01*
X185573079Y-99113387D01*
X185565227Y-99091443D01*
X185559563Y-99068834D01*
X185556144Y-99045779D01*
X185555000Y-99022500D01*
X185555000Y-98447500D01*
X185556144Y-98424221D01*
X185559563Y-98401166D01*
X185565227Y-98378557D01*
X185573079Y-98356613D01*
X185583044Y-98335543D01*
X185595026Y-98315552D01*
X185608910Y-98296832D01*
X185624562Y-98279562D01*
X185641832Y-98263910D01*
X185660552Y-98250026D01*
X185680543Y-98238044D01*
X185701613Y-98228079D01*
X185723557Y-98220227D01*
X185746166Y-98214563D01*
X185769221Y-98211144D01*
X185792500Y-98210000D01*
X186267500Y-98210000D01*
X186290779Y-98211144D01*
X186290779Y-98211144D01*
G37*
D11*
X186030000Y-98735000D03*
D10*
G36*
X188195779Y-96461144D02*
G01*
X188218834Y-96464563D01*
X188241443Y-96470227D01*
X188263387Y-96478079D01*
X188284457Y-96488044D01*
X188304448Y-96500026D01*
X188323168Y-96513910D01*
X188340438Y-96529562D01*
X188356090Y-96546832D01*
X188369974Y-96565552D01*
X188381956Y-96585543D01*
X188391921Y-96606613D01*
X188399773Y-96628557D01*
X188405437Y-96651166D01*
X188408856Y-96674221D01*
X188410000Y-96697500D01*
X188410000Y-97272500D01*
X188408856Y-97295779D01*
X188405437Y-97318834D01*
X188399773Y-97341443D01*
X188391921Y-97363387D01*
X188381956Y-97384457D01*
X188369974Y-97404448D01*
X188356090Y-97423168D01*
X188340438Y-97440438D01*
X188323168Y-97456090D01*
X188304448Y-97469974D01*
X188284457Y-97481956D01*
X188263387Y-97491921D01*
X188241443Y-97499773D01*
X188218834Y-97505437D01*
X188195779Y-97508856D01*
X188172500Y-97510000D01*
X187697500Y-97510000D01*
X187674221Y-97508856D01*
X187651166Y-97505437D01*
X187628557Y-97499773D01*
X187606613Y-97491921D01*
X187585543Y-97481956D01*
X187565552Y-97469974D01*
X187546832Y-97456090D01*
X187529562Y-97440438D01*
X187513910Y-97423168D01*
X187500026Y-97404448D01*
X187488044Y-97384457D01*
X187478079Y-97363387D01*
X187470227Y-97341443D01*
X187464563Y-97318834D01*
X187461144Y-97295779D01*
X187460000Y-97272500D01*
X187460000Y-96697500D01*
X187461144Y-96674221D01*
X187464563Y-96651166D01*
X187470227Y-96628557D01*
X187478079Y-96606613D01*
X187488044Y-96585543D01*
X187500026Y-96565552D01*
X187513910Y-96546832D01*
X187529562Y-96529562D01*
X187546832Y-96513910D01*
X187565552Y-96500026D01*
X187585543Y-96488044D01*
X187606613Y-96478079D01*
X187628557Y-96470227D01*
X187651166Y-96464563D01*
X187674221Y-96461144D01*
X187697500Y-96460000D01*
X188172500Y-96460000D01*
X188195779Y-96461144D01*
X188195779Y-96461144D01*
G37*
D11*
X187935000Y-96985000D03*
D10*
G36*
X188195779Y-98211144D02*
G01*
X188218834Y-98214563D01*
X188241443Y-98220227D01*
X188263387Y-98228079D01*
X188284457Y-98238044D01*
X188304448Y-98250026D01*
X188323168Y-98263910D01*
X188340438Y-98279562D01*
X188356090Y-98296832D01*
X188369974Y-98315552D01*
X188381956Y-98335543D01*
X188391921Y-98356613D01*
X188399773Y-98378557D01*
X188405437Y-98401166D01*
X188408856Y-98424221D01*
X188410000Y-98447500D01*
X188410000Y-99022500D01*
X188408856Y-99045779D01*
X188405437Y-99068834D01*
X188399773Y-99091443D01*
X188391921Y-99113387D01*
X188381956Y-99134457D01*
X188369974Y-99154448D01*
X188356090Y-99173168D01*
X188340438Y-99190438D01*
X188323168Y-99206090D01*
X188304448Y-99219974D01*
X188284457Y-99231956D01*
X188263387Y-99241921D01*
X188241443Y-99249773D01*
X188218834Y-99255437D01*
X188195779Y-99258856D01*
X188172500Y-99260000D01*
X187697500Y-99260000D01*
X187674221Y-99258856D01*
X187651166Y-99255437D01*
X187628557Y-99249773D01*
X187606613Y-99241921D01*
X187585543Y-99231956D01*
X187565552Y-99219974D01*
X187546832Y-99206090D01*
X187529562Y-99190438D01*
X187513910Y-99173168D01*
X187500026Y-99154448D01*
X187488044Y-99134457D01*
X187478079Y-99113387D01*
X187470227Y-99091443D01*
X187464563Y-99068834D01*
X187461144Y-99045779D01*
X187460000Y-99022500D01*
X187460000Y-98447500D01*
X187461144Y-98424221D01*
X187464563Y-98401166D01*
X187470227Y-98378557D01*
X187478079Y-98356613D01*
X187488044Y-98335543D01*
X187500026Y-98315552D01*
X187513910Y-98296832D01*
X187529562Y-98279562D01*
X187546832Y-98263910D01*
X187565552Y-98250026D01*
X187585543Y-98238044D01*
X187606613Y-98228079D01*
X187628557Y-98220227D01*
X187651166Y-98214563D01*
X187674221Y-98211144D01*
X187697500Y-98210000D01*
X188172500Y-98210000D01*
X188195779Y-98211144D01*
X188195779Y-98211144D01*
G37*
D11*
X187935000Y-98735000D03*
D10*
G36*
X130855779Y-49126144D02*
G01*
X130878834Y-49129563D01*
X130901443Y-49135227D01*
X130923387Y-49143079D01*
X130944457Y-49153044D01*
X130964448Y-49165026D01*
X130983168Y-49178910D01*
X131000438Y-49194562D01*
X131016090Y-49211832D01*
X131029974Y-49230552D01*
X131041956Y-49250543D01*
X131051921Y-49271613D01*
X131059773Y-49293557D01*
X131065437Y-49316166D01*
X131068856Y-49339221D01*
X131070000Y-49362500D01*
X131070000Y-49837500D01*
X131068856Y-49860779D01*
X131065437Y-49883834D01*
X131059773Y-49906443D01*
X131051921Y-49928387D01*
X131041956Y-49949457D01*
X131029974Y-49969448D01*
X131016090Y-49988168D01*
X131000438Y-50005438D01*
X130983168Y-50021090D01*
X130964448Y-50034974D01*
X130944457Y-50046956D01*
X130923387Y-50056921D01*
X130901443Y-50064773D01*
X130878834Y-50070437D01*
X130855779Y-50073856D01*
X130832500Y-50075000D01*
X130257500Y-50075000D01*
X130234221Y-50073856D01*
X130211166Y-50070437D01*
X130188557Y-50064773D01*
X130166613Y-50056921D01*
X130145543Y-50046956D01*
X130125552Y-50034974D01*
X130106832Y-50021090D01*
X130089562Y-50005438D01*
X130073910Y-49988168D01*
X130060026Y-49969448D01*
X130048044Y-49949457D01*
X130038079Y-49928387D01*
X130030227Y-49906443D01*
X130024563Y-49883834D01*
X130021144Y-49860779D01*
X130020000Y-49837500D01*
X130020000Y-49362500D01*
X130021144Y-49339221D01*
X130024563Y-49316166D01*
X130030227Y-49293557D01*
X130038079Y-49271613D01*
X130048044Y-49250543D01*
X130060026Y-49230552D01*
X130073910Y-49211832D01*
X130089562Y-49194562D01*
X130106832Y-49178910D01*
X130125552Y-49165026D01*
X130145543Y-49153044D01*
X130166613Y-49143079D01*
X130188557Y-49135227D01*
X130211166Y-49129563D01*
X130234221Y-49126144D01*
X130257500Y-49125000D01*
X130832500Y-49125000D01*
X130855779Y-49126144D01*
X130855779Y-49126144D01*
G37*
D11*
X130545000Y-49600000D03*
D10*
G36*
X132605779Y-49126144D02*
G01*
X132628834Y-49129563D01*
X132651443Y-49135227D01*
X132673387Y-49143079D01*
X132694457Y-49153044D01*
X132714448Y-49165026D01*
X132733168Y-49178910D01*
X132750438Y-49194562D01*
X132766090Y-49211832D01*
X132779974Y-49230552D01*
X132791956Y-49250543D01*
X132801921Y-49271613D01*
X132809773Y-49293557D01*
X132815437Y-49316166D01*
X132818856Y-49339221D01*
X132820000Y-49362500D01*
X132820000Y-49837500D01*
X132818856Y-49860779D01*
X132815437Y-49883834D01*
X132809773Y-49906443D01*
X132801921Y-49928387D01*
X132791956Y-49949457D01*
X132779974Y-49969448D01*
X132766090Y-49988168D01*
X132750438Y-50005438D01*
X132733168Y-50021090D01*
X132714448Y-50034974D01*
X132694457Y-50046956D01*
X132673387Y-50056921D01*
X132651443Y-50064773D01*
X132628834Y-50070437D01*
X132605779Y-50073856D01*
X132582500Y-50075000D01*
X132007500Y-50075000D01*
X131984221Y-50073856D01*
X131961166Y-50070437D01*
X131938557Y-50064773D01*
X131916613Y-50056921D01*
X131895543Y-50046956D01*
X131875552Y-50034974D01*
X131856832Y-50021090D01*
X131839562Y-50005438D01*
X131823910Y-49988168D01*
X131810026Y-49969448D01*
X131798044Y-49949457D01*
X131788079Y-49928387D01*
X131780227Y-49906443D01*
X131774563Y-49883834D01*
X131771144Y-49860779D01*
X131770000Y-49837500D01*
X131770000Y-49362500D01*
X131771144Y-49339221D01*
X131774563Y-49316166D01*
X131780227Y-49293557D01*
X131788079Y-49271613D01*
X131798044Y-49250543D01*
X131810026Y-49230552D01*
X131823910Y-49211832D01*
X131839562Y-49194562D01*
X131856832Y-49178910D01*
X131875552Y-49165026D01*
X131895543Y-49153044D01*
X131916613Y-49143079D01*
X131938557Y-49135227D01*
X131961166Y-49129563D01*
X131984221Y-49126144D01*
X132007500Y-49125000D01*
X132582500Y-49125000D01*
X132605779Y-49126144D01*
X132605779Y-49126144D01*
G37*
D11*
X132295000Y-49600000D03*
D10*
G36*
X130855779Y-47221144D02*
G01*
X130878834Y-47224563D01*
X130901443Y-47230227D01*
X130923387Y-47238079D01*
X130944457Y-47248044D01*
X130964448Y-47260026D01*
X130983168Y-47273910D01*
X131000438Y-47289562D01*
X131016090Y-47306832D01*
X131029974Y-47325552D01*
X131041956Y-47345543D01*
X131051921Y-47366613D01*
X131059773Y-47388557D01*
X131065437Y-47411166D01*
X131068856Y-47434221D01*
X131070000Y-47457500D01*
X131070000Y-47932500D01*
X131068856Y-47955779D01*
X131065437Y-47978834D01*
X131059773Y-48001443D01*
X131051921Y-48023387D01*
X131041956Y-48044457D01*
X131029974Y-48064448D01*
X131016090Y-48083168D01*
X131000438Y-48100438D01*
X130983168Y-48116090D01*
X130964448Y-48129974D01*
X130944457Y-48141956D01*
X130923387Y-48151921D01*
X130901443Y-48159773D01*
X130878834Y-48165437D01*
X130855779Y-48168856D01*
X130832500Y-48170000D01*
X130257500Y-48170000D01*
X130234221Y-48168856D01*
X130211166Y-48165437D01*
X130188557Y-48159773D01*
X130166613Y-48151921D01*
X130145543Y-48141956D01*
X130125552Y-48129974D01*
X130106832Y-48116090D01*
X130089562Y-48100438D01*
X130073910Y-48083168D01*
X130060026Y-48064448D01*
X130048044Y-48044457D01*
X130038079Y-48023387D01*
X130030227Y-48001443D01*
X130024563Y-47978834D01*
X130021144Y-47955779D01*
X130020000Y-47932500D01*
X130020000Y-47457500D01*
X130021144Y-47434221D01*
X130024563Y-47411166D01*
X130030227Y-47388557D01*
X130038079Y-47366613D01*
X130048044Y-47345543D01*
X130060026Y-47325552D01*
X130073910Y-47306832D01*
X130089562Y-47289562D01*
X130106832Y-47273910D01*
X130125552Y-47260026D01*
X130145543Y-47248044D01*
X130166613Y-47238079D01*
X130188557Y-47230227D01*
X130211166Y-47224563D01*
X130234221Y-47221144D01*
X130257500Y-47220000D01*
X130832500Y-47220000D01*
X130855779Y-47221144D01*
X130855779Y-47221144D01*
G37*
D11*
X130545000Y-47695000D03*
D10*
G36*
X132605779Y-47221144D02*
G01*
X132628834Y-47224563D01*
X132651443Y-47230227D01*
X132673387Y-47238079D01*
X132694457Y-47248044D01*
X132714448Y-47260026D01*
X132733168Y-47273910D01*
X132750438Y-47289562D01*
X132766090Y-47306832D01*
X132779974Y-47325552D01*
X132791956Y-47345543D01*
X132801921Y-47366613D01*
X132809773Y-47388557D01*
X132815437Y-47411166D01*
X132818856Y-47434221D01*
X132820000Y-47457500D01*
X132820000Y-47932500D01*
X132818856Y-47955779D01*
X132815437Y-47978834D01*
X132809773Y-48001443D01*
X132801921Y-48023387D01*
X132791956Y-48044457D01*
X132779974Y-48064448D01*
X132766090Y-48083168D01*
X132750438Y-48100438D01*
X132733168Y-48116090D01*
X132714448Y-48129974D01*
X132694457Y-48141956D01*
X132673387Y-48151921D01*
X132651443Y-48159773D01*
X132628834Y-48165437D01*
X132605779Y-48168856D01*
X132582500Y-48170000D01*
X132007500Y-48170000D01*
X131984221Y-48168856D01*
X131961166Y-48165437D01*
X131938557Y-48159773D01*
X131916613Y-48151921D01*
X131895543Y-48141956D01*
X131875552Y-48129974D01*
X131856832Y-48116090D01*
X131839562Y-48100438D01*
X131823910Y-48083168D01*
X131810026Y-48064448D01*
X131798044Y-48044457D01*
X131788079Y-48023387D01*
X131780227Y-48001443D01*
X131774563Y-47978834D01*
X131771144Y-47955779D01*
X131770000Y-47932500D01*
X131770000Y-47457500D01*
X131771144Y-47434221D01*
X131774563Y-47411166D01*
X131780227Y-47388557D01*
X131788079Y-47366613D01*
X131798044Y-47345543D01*
X131810026Y-47325552D01*
X131823910Y-47306832D01*
X131839562Y-47289562D01*
X131856832Y-47273910D01*
X131875552Y-47260026D01*
X131895543Y-47248044D01*
X131916613Y-47238079D01*
X131938557Y-47230227D01*
X131961166Y-47224563D01*
X131984221Y-47221144D01*
X132007500Y-47220000D01*
X132582500Y-47220000D01*
X132605779Y-47221144D01*
X132605779Y-47221144D01*
G37*
D11*
X132295000Y-47695000D03*
D10*
G36*
X130855779Y-45316144D02*
G01*
X130878834Y-45319563D01*
X130901443Y-45325227D01*
X130923387Y-45333079D01*
X130944457Y-45343044D01*
X130964448Y-45355026D01*
X130983168Y-45368910D01*
X131000438Y-45384562D01*
X131016090Y-45401832D01*
X131029974Y-45420552D01*
X131041956Y-45440543D01*
X131051921Y-45461613D01*
X131059773Y-45483557D01*
X131065437Y-45506166D01*
X131068856Y-45529221D01*
X131070000Y-45552500D01*
X131070000Y-46027500D01*
X131068856Y-46050779D01*
X131065437Y-46073834D01*
X131059773Y-46096443D01*
X131051921Y-46118387D01*
X131041956Y-46139457D01*
X131029974Y-46159448D01*
X131016090Y-46178168D01*
X131000438Y-46195438D01*
X130983168Y-46211090D01*
X130964448Y-46224974D01*
X130944457Y-46236956D01*
X130923387Y-46246921D01*
X130901443Y-46254773D01*
X130878834Y-46260437D01*
X130855779Y-46263856D01*
X130832500Y-46265000D01*
X130257500Y-46265000D01*
X130234221Y-46263856D01*
X130211166Y-46260437D01*
X130188557Y-46254773D01*
X130166613Y-46246921D01*
X130145543Y-46236956D01*
X130125552Y-46224974D01*
X130106832Y-46211090D01*
X130089562Y-46195438D01*
X130073910Y-46178168D01*
X130060026Y-46159448D01*
X130048044Y-46139457D01*
X130038079Y-46118387D01*
X130030227Y-46096443D01*
X130024563Y-46073834D01*
X130021144Y-46050779D01*
X130020000Y-46027500D01*
X130020000Y-45552500D01*
X130021144Y-45529221D01*
X130024563Y-45506166D01*
X130030227Y-45483557D01*
X130038079Y-45461613D01*
X130048044Y-45440543D01*
X130060026Y-45420552D01*
X130073910Y-45401832D01*
X130089562Y-45384562D01*
X130106832Y-45368910D01*
X130125552Y-45355026D01*
X130145543Y-45343044D01*
X130166613Y-45333079D01*
X130188557Y-45325227D01*
X130211166Y-45319563D01*
X130234221Y-45316144D01*
X130257500Y-45315000D01*
X130832500Y-45315000D01*
X130855779Y-45316144D01*
X130855779Y-45316144D01*
G37*
D11*
X130545000Y-45790000D03*
D10*
G36*
X132605779Y-45316144D02*
G01*
X132628834Y-45319563D01*
X132651443Y-45325227D01*
X132673387Y-45333079D01*
X132694457Y-45343044D01*
X132714448Y-45355026D01*
X132733168Y-45368910D01*
X132750438Y-45384562D01*
X132766090Y-45401832D01*
X132779974Y-45420552D01*
X132791956Y-45440543D01*
X132801921Y-45461613D01*
X132809773Y-45483557D01*
X132815437Y-45506166D01*
X132818856Y-45529221D01*
X132820000Y-45552500D01*
X132820000Y-46027500D01*
X132818856Y-46050779D01*
X132815437Y-46073834D01*
X132809773Y-46096443D01*
X132801921Y-46118387D01*
X132791956Y-46139457D01*
X132779974Y-46159448D01*
X132766090Y-46178168D01*
X132750438Y-46195438D01*
X132733168Y-46211090D01*
X132714448Y-46224974D01*
X132694457Y-46236956D01*
X132673387Y-46246921D01*
X132651443Y-46254773D01*
X132628834Y-46260437D01*
X132605779Y-46263856D01*
X132582500Y-46265000D01*
X132007500Y-46265000D01*
X131984221Y-46263856D01*
X131961166Y-46260437D01*
X131938557Y-46254773D01*
X131916613Y-46246921D01*
X131895543Y-46236956D01*
X131875552Y-46224974D01*
X131856832Y-46211090D01*
X131839562Y-46195438D01*
X131823910Y-46178168D01*
X131810026Y-46159448D01*
X131798044Y-46139457D01*
X131788079Y-46118387D01*
X131780227Y-46096443D01*
X131774563Y-46073834D01*
X131771144Y-46050779D01*
X131770000Y-46027500D01*
X131770000Y-45552500D01*
X131771144Y-45529221D01*
X131774563Y-45506166D01*
X131780227Y-45483557D01*
X131788079Y-45461613D01*
X131798044Y-45440543D01*
X131810026Y-45420552D01*
X131823910Y-45401832D01*
X131839562Y-45384562D01*
X131856832Y-45368910D01*
X131875552Y-45355026D01*
X131895543Y-45343044D01*
X131916613Y-45333079D01*
X131938557Y-45325227D01*
X131961166Y-45319563D01*
X131984221Y-45316144D01*
X132007500Y-45315000D01*
X132582500Y-45315000D01*
X132605779Y-45316144D01*
X132605779Y-45316144D01*
G37*
D11*
X132295000Y-45790000D03*
D10*
G36*
X216135779Y-82491144D02*
G01*
X216158834Y-82494563D01*
X216181443Y-82500227D01*
X216203387Y-82508079D01*
X216224457Y-82518044D01*
X216244448Y-82530026D01*
X216263168Y-82543910D01*
X216280438Y-82559562D01*
X216296090Y-82576832D01*
X216309974Y-82595552D01*
X216321956Y-82615543D01*
X216331921Y-82636613D01*
X216339773Y-82658557D01*
X216345437Y-82681166D01*
X216348856Y-82704221D01*
X216350000Y-82727500D01*
X216350000Y-83302500D01*
X216348856Y-83325779D01*
X216345437Y-83348834D01*
X216339773Y-83371443D01*
X216331921Y-83393387D01*
X216321956Y-83414457D01*
X216309974Y-83434448D01*
X216296090Y-83453168D01*
X216280438Y-83470438D01*
X216263168Y-83486090D01*
X216244448Y-83499974D01*
X216224457Y-83511956D01*
X216203387Y-83521921D01*
X216181443Y-83529773D01*
X216158834Y-83535437D01*
X216135779Y-83538856D01*
X216112500Y-83540000D01*
X215637500Y-83540000D01*
X215614221Y-83538856D01*
X215591166Y-83535437D01*
X215568557Y-83529773D01*
X215546613Y-83521921D01*
X215525543Y-83511956D01*
X215505552Y-83499974D01*
X215486832Y-83486090D01*
X215469562Y-83470438D01*
X215453910Y-83453168D01*
X215440026Y-83434448D01*
X215428044Y-83414457D01*
X215418079Y-83393387D01*
X215410227Y-83371443D01*
X215404563Y-83348834D01*
X215401144Y-83325779D01*
X215400000Y-83302500D01*
X215400000Y-82727500D01*
X215401144Y-82704221D01*
X215404563Y-82681166D01*
X215410227Y-82658557D01*
X215418079Y-82636613D01*
X215428044Y-82615543D01*
X215440026Y-82595552D01*
X215453910Y-82576832D01*
X215469562Y-82559562D01*
X215486832Y-82543910D01*
X215505552Y-82530026D01*
X215525543Y-82518044D01*
X215546613Y-82508079D01*
X215568557Y-82500227D01*
X215591166Y-82494563D01*
X215614221Y-82491144D01*
X215637500Y-82490000D01*
X216112500Y-82490000D01*
X216135779Y-82491144D01*
X216135779Y-82491144D01*
G37*
D11*
X215875000Y-83015000D03*
D10*
G36*
X216135779Y-84241144D02*
G01*
X216158834Y-84244563D01*
X216181443Y-84250227D01*
X216203387Y-84258079D01*
X216224457Y-84268044D01*
X216244448Y-84280026D01*
X216263168Y-84293910D01*
X216280438Y-84309562D01*
X216296090Y-84326832D01*
X216309974Y-84345552D01*
X216321956Y-84365543D01*
X216331921Y-84386613D01*
X216339773Y-84408557D01*
X216345437Y-84431166D01*
X216348856Y-84454221D01*
X216350000Y-84477500D01*
X216350000Y-85052500D01*
X216348856Y-85075779D01*
X216345437Y-85098834D01*
X216339773Y-85121443D01*
X216331921Y-85143387D01*
X216321956Y-85164457D01*
X216309974Y-85184448D01*
X216296090Y-85203168D01*
X216280438Y-85220438D01*
X216263168Y-85236090D01*
X216244448Y-85249974D01*
X216224457Y-85261956D01*
X216203387Y-85271921D01*
X216181443Y-85279773D01*
X216158834Y-85285437D01*
X216135779Y-85288856D01*
X216112500Y-85290000D01*
X215637500Y-85290000D01*
X215614221Y-85288856D01*
X215591166Y-85285437D01*
X215568557Y-85279773D01*
X215546613Y-85271921D01*
X215525543Y-85261956D01*
X215505552Y-85249974D01*
X215486832Y-85236090D01*
X215469562Y-85220438D01*
X215453910Y-85203168D01*
X215440026Y-85184448D01*
X215428044Y-85164457D01*
X215418079Y-85143387D01*
X215410227Y-85121443D01*
X215404563Y-85098834D01*
X215401144Y-85075779D01*
X215400000Y-85052500D01*
X215400000Y-84477500D01*
X215401144Y-84454221D01*
X215404563Y-84431166D01*
X215410227Y-84408557D01*
X215418079Y-84386613D01*
X215428044Y-84365543D01*
X215440026Y-84345552D01*
X215453910Y-84326832D01*
X215469562Y-84309562D01*
X215486832Y-84293910D01*
X215505552Y-84280026D01*
X215525543Y-84268044D01*
X215546613Y-84258079D01*
X215568557Y-84250227D01*
X215591166Y-84244563D01*
X215614221Y-84241144D01*
X215637500Y-84240000D01*
X216112500Y-84240000D01*
X216135779Y-84241144D01*
X216135779Y-84241144D01*
G37*
D11*
X215875000Y-84765000D03*
D10*
G36*
X206610779Y-61381144D02*
G01*
X206633834Y-61384563D01*
X206656443Y-61390227D01*
X206678387Y-61398079D01*
X206699457Y-61408044D01*
X206719448Y-61420026D01*
X206738168Y-61433910D01*
X206755438Y-61449562D01*
X206771090Y-61466832D01*
X206784974Y-61485552D01*
X206796956Y-61505543D01*
X206806921Y-61526613D01*
X206814773Y-61548557D01*
X206820437Y-61571166D01*
X206823856Y-61594221D01*
X206825000Y-61617500D01*
X206825000Y-62192500D01*
X206823856Y-62215779D01*
X206820437Y-62238834D01*
X206814773Y-62261443D01*
X206806921Y-62283387D01*
X206796956Y-62304457D01*
X206784974Y-62324448D01*
X206771090Y-62343168D01*
X206755438Y-62360438D01*
X206738168Y-62376090D01*
X206719448Y-62389974D01*
X206699457Y-62401956D01*
X206678387Y-62411921D01*
X206656443Y-62419773D01*
X206633834Y-62425437D01*
X206610779Y-62428856D01*
X206587500Y-62430000D01*
X206112500Y-62430000D01*
X206089221Y-62428856D01*
X206066166Y-62425437D01*
X206043557Y-62419773D01*
X206021613Y-62411921D01*
X206000543Y-62401956D01*
X205980552Y-62389974D01*
X205961832Y-62376090D01*
X205944562Y-62360438D01*
X205928910Y-62343168D01*
X205915026Y-62324448D01*
X205903044Y-62304457D01*
X205893079Y-62283387D01*
X205885227Y-62261443D01*
X205879563Y-62238834D01*
X205876144Y-62215779D01*
X205875000Y-62192500D01*
X205875000Y-61617500D01*
X205876144Y-61594221D01*
X205879563Y-61571166D01*
X205885227Y-61548557D01*
X205893079Y-61526613D01*
X205903044Y-61505543D01*
X205915026Y-61485552D01*
X205928910Y-61466832D01*
X205944562Y-61449562D01*
X205961832Y-61433910D01*
X205980552Y-61420026D01*
X206000543Y-61408044D01*
X206021613Y-61398079D01*
X206043557Y-61390227D01*
X206066166Y-61384563D01*
X206089221Y-61381144D01*
X206112500Y-61380000D01*
X206587500Y-61380000D01*
X206610779Y-61381144D01*
X206610779Y-61381144D01*
G37*
D11*
X206350000Y-61905000D03*
D10*
G36*
X206610779Y-59631144D02*
G01*
X206633834Y-59634563D01*
X206656443Y-59640227D01*
X206678387Y-59648079D01*
X206699457Y-59658044D01*
X206719448Y-59670026D01*
X206738168Y-59683910D01*
X206755438Y-59699562D01*
X206771090Y-59716832D01*
X206784974Y-59735552D01*
X206796956Y-59755543D01*
X206806921Y-59776613D01*
X206814773Y-59798557D01*
X206820437Y-59821166D01*
X206823856Y-59844221D01*
X206825000Y-59867500D01*
X206825000Y-60442500D01*
X206823856Y-60465779D01*
X206820437Y-60488834D01*
X206814773Y-60511443D01*
X206806921Y-60533387D01*
X206796956Y-60554457D01*
X206784974Y-60574448D01*
X206771090Y-60593168D01*
X206755438Y-60610438D01*
X206738168Y-60626090D01*
X206719448Y-60639974D01*
X206699457Y-60651956D01*
X206678387Y-60661921D01*
X206656443Y-60669773D01*
X206633834Y-60675437D01*
X206610779Y-60678856D01*
X206587500Y-60680000D01*
X206112500Y-60680000D01*
X206089221Y-60678856D01*
X206066166Y-60675437D01*
X206043557Y-60669773D01*
X206021613Y-60661921D01*
X206000543Y-60651956D01*
X205980552Y-60639974D01*
X205961832Y-60626090D01*
X205944562Y-60610438D01*
X205928910Y-60593168D01*
X205915026Y-60574448D01*
X205903044Y-60554457D01*
X205893079Y-60533387D01*
X205885227Y-60511443D01*
X205879563Y-60488834D01*
X205876144Y-60465779D01*
X205875000Y-60442500D01*
X205875000Y-59867500D01*
X205876144Y-59844221D01*
X205879563Y-59821166D01*
X205885227Y-59798557D01*
X205893079Y-59776613D01*
X205903044Y-59755543D01*
X205915026Y-59735552D01*
X205928910Y-59716832D01*
X205944562Y-59699562D01*
X205961832Y-59683910D01*
X205980552Y-59670026D01*
X206000543Y-59658044D01*
X206021613Y-59648079D01*
X206043557Y-59640227D01*
X206066166Y-59634563D01*
X206089221Y-59631144D01*
X206112500Y-59630000D01*
X206587500Y-59630000D01*
X206610779Y-59631144D01*
X206610779Y-59631144D01*
G37*
D11*
X206350000Y-60155000D03*
D10*
G36*
X206610779Y-84241144D02*
G01*
X206633834Y-84244563D01*
X206656443Y-84250227D01*
X206678387Y-84258079D01*
X206699457Y-84268044D01*
X206719448Y-84280026D01*
X206738168Y-84293910D01*
X206755438Y-84309562D01*
X206771090Y-84326832D01*
X206784974Y-84345552D01*
X206796956Y-84365543D01*
X206806921Y-84386613D01*
X206814773Y-84408557D01*
X206820437Y-84431166D01*
X206823856Y-84454221D01*
X206825000Y-84477500D01*
X206825000Y-85052500D01*
X206823856Y-85075779D01*
X206820437Y-85098834D01*
X206814773Y-85121443D01*
X206806921Y-85143387D01*
X206796956Y-85164457D01*
X206784974Y-85184448D01*
X206771090Y-85203168D01*
X206755438Y-85220438D01*
X206738168Y-85236090D01*
X206719448Y-85249974D01*
X206699457Y-85261956D01*
X206678387Y-85271921D01*
X206656443Y-85279773D01*
X206633834Y-85285437D01*
X206610779Y-85288856D01*
X206587500Y-85290000D01*
X206112500Y-85290000D01*
X206089221Y-85288856D01*
X206066166Y-85285437D01*
X206043557Y-85279773D01*
X206021613Y-85271921D01*
X206000543Y-85261956D01*
X205980552Y-85249974D01*
X205961832Y-85236090D01*
X205944562Y-85220438D01*
X205928910Y-85203168D01*
X205915026Y-85184448D01*
X205903044Y-85164457D01*
X205893079Y-85143387D01*
X205885227Y-85121443D01*
X205879563Y-85098834D01*
X205876144Y-85075779D01*
X205875000Y-85052500D01*
X205875000Y-84477500D01*
X205876144Y-84454221D01*
X205879563Y-84431166D01*
X205885227Y-84408557D01*
X205893079Y-84386613D01*
X205903044Y-84365543D01*
X205915026Y-84345552D01*
X205928910Y-84326832D01*
X205944562Y-84309562D01*
X205961832Y-84293910D01*
X205980552Y-84280026D01*
X206000543Y-84268044D01*
X206021613Y-84258079D01*
X206043557Y-84250227D01*
X206066166Y-84244563D01*
X206089221Y-84241144D01*
X206112500Y-84240000D01*
X206587500Y-84240000D01*
X206610779Y-84241144D01*
X206610779Y-84241144D01*
G37*
D11*
X206350000Y-84765000D03*
D10*
G36*
X206610779Y-82491144D02*
G01*
X206633834Y-82494563D01*
X206656443Y-82500227D01*
X206678387Y-82508079D01*
X206699457Y-82518044D01*
X206719448Y-82530026D01*
X206738168Y-82543910D01*
X206755438Y-82559562D01*
X206771090Y-82576832D01*
X206784974Y-82595552D01*
X206796956Y-82615543D01*
X206806921Y-82636613D01*
X206814773Y-82658557D01*
X206820437Y-82681166D01*
X206823856Y-82704221D01*
X206825000Y-82727500D01*
X206825000Y-83302500D01*
X206823856Y-83325779D01*
X206820437Y-83348834D01*
X206814773Y-83371443D01*
X206806921Y-83393387D01*
X206796956Y-83414457D01*
X206784974Y-83434448D01*
X206771090Y-83453168D01*
X206755438Y-83470438D01*
X206738168Y-83486090D01*
X206719448Y-83499974D01*
X206699457Y-83511956D01*
X206678387Y-83521921D01*
X206656443Y-83529773D01*
X206633834Y-83535437D01*
X206610779Y-83538856D01*
X206587500Y-83540000D01*
X206112500Y-83540000D01*
X206089221Y-83538856D01*
X206066166Y-83535437D01*
X206043557Y-83529773D01*
X206021613Y-83521921D01*
X206000543Y-83511956D01*
X205980552Y-83499974D01*
X205961832Y-83486090D01*
X205944562Y-83470438D01*
X205928910Y-83453168D01*
X205915026Y-83434448D01*
X205903044Y-83414457D01*
X205893079Y-83393387D01*
X205885227Y-83371443D01*
X205879563Y-83348834D01*
X205876144Y-83325779D01*
X205875000Y-83302500D01*
X205875000Y-82727500D01*
X205876144Y-82704221D01*
X205879563Y-82681166D01*
X205885227Y-82658557D01*
X205893079Y-82636613D01*
X205903044Y-82615543D01*
X205915026Y-82595552D01*
X205928910Y-82576832D01*
X205944562Y-82559562D01*
X205961832Y-82543910D01*
X205980552Y-82530026D01*
X206000543Y-82518044D01*
X206021613Y-82508079D01*
X206043557Y-82500227D01*
X206066166Y-82494563D01*
X206089221Y-82491144D01*
X206112500Y-82490000D01*
X206587500Y-82490000D01*
X206610779Y-82491144D01*
X206610779Y-82491144D01*
G37*
D11*
X206350000Y-83015000D03*
D18*
X127930000Y-49155000D03*
X122850000Y-49155000D03*
X117770000Y-49155000D03*
X112690000Y-49155000D03*
X107610000Y-49155000D03*
X102530000Y-49155000D03*
X97450000Y-49155000D03*
X92370000Y-49155000D03*
X87290000Y-49155000D03*
X125390000Y-45845000D03*
X120310000Y-45845000D03*
X115230000Y-45845000D03*
X110150000Y-45845000D03*
X105070000Y-45845000D03*
X99990000Y-45845000D03*
X94910000Y-45845000D03*
X89830000Y-45845000D03*
X84750000Y-45845000D03*
D19*
X184775000Y-78810000D03*
X189825000Y-78810000D03*
X184775000Y-76270000D03*
X189825000Y-76270000D03*
X184775000Y-73730000D03*
X189825000Y-73730000D03*
X184775000Y-71190000D03*
X189825000Y-71190000D03*
D10*
G36*
X218040779Y-84241144D02*
G01*
X218063834Y-84244563D01*
X218086443Y-84250227D01*
X218108387Y-84258079D01*
X218129457Y-84268044D01*
X218149448Y-84280026D01*
X218168168Y-84293910D01*
X218185438Y-84309562D01*
X218201090Y-84326832D01*
X218214974Y-84345552D01*
X218226956Y-84365543D01*
X218236921Y-84386613D01*
X218244773Y-84408557D01*
X218250437Y-84431166D01*
X218253856Y-84454221D01*
X218255000Y-84477500D01*
X218255000Y-85052500D01*
X218253856Y-85075779D01*
X218250437Y-85098834D01*
X218244773Y-85121443D01*
X218236921Y-85143387D01*
X218226956Y-85164457D01*
X218214974Y-85184448D01*
X218201090Y-85203168D01*
X218185438Y-85220438D01*
X218168168Y-85236090D01*
X218149448Y-85249974D01*
X218129457Y-85261956D01*
X218108387Y-85271921D01*
X218086443Y-85279773D01*
X218063834Y-85285437D01*
X218040779Y-85288856D01*
X218017500Y-85290000D01*
X217542500Y-85290000D01*
X217519221Y-85288856D01*
X217496166Y-85285437D01*
X217473557Y-85279773D01*
X217451613Y-85271921D01*
X217430543Y-85261956D01*
X217410552Y-85249974D01*
X217391832Y-85236090D01*
X217374562Y-85220438D01*
X217358910Y-85203168D01*
X217345026Y-85184448D01*
X217333044Y-85164457D01*
X217323079Y-85143387D01*
X217315227Y-85121443D01*
X217309563Y-85098834D01*
X217306144Y-85075779D01*
X217305000Y-85052500D01*
X217305000Y-84477500D01*
X217306144Y-84454221D01*
X217309563Y-84431166D01*
X217315227Y-84408557D01*
X217323079Y-84386613D01*
X217333044Y-84365543D01*
X217345026Y-84345552D01*
X217358910Y-84326832D01*
X217374562Y-84309562D01*
X217391832Y-84293910D01*
X217410552Y-84280026D01*
X217430543Y-84268044D01*
X217451613Y-84258079D01*
X217473557Y-84250227D01*
X217496166Y-84244563D01*
X217519221Y-84241144D01*
X217542500Y-84240000D01*
X218017500Y-84240000D01*
X218040779Y-84241144D01*
X218040779Y-84241144D01*
G37*
D11*
X217780000Y-84765000D03*
D10*
G36*
X218040779Y-82491144D02*
G01*
X218063834Y-82494563D01*
X218086443Y-82500227D01*
X218108387Y-82508079D01*
X218129457Y-82518044D01*
X218149448Y-82530026D01*
X218168168Y-82543910D01*
X218185438Y-82559562D01*
X218201090Y-82576832D01*
X218214974Y-82595552D01*
X218226956Y-82615543D01*
X218236921Y-82636613D01*
X218244773Y-82658557D01*
X218250437Y-82681166D01*
X218253856Y-82704221D01*
X218255000Y-82727500D01*
X218255000Y-83302500D01*
X218253856Y-83325779D01*
X218250437Y-83348834D01*
X218244773Y-83371443D01*
X218236921Y-83393387D01*
X218226956Y-83414457D01*
X218214974Y-83434448D01*
X218201090Y-83453168D01*
X218185438Y-83470438D01*
X218168168Y-83486090D01*
X218149448Y-83499974D01*
X218129457Y-83511956D01*
X218108387Y-83521921D01*
X218086443Y-83529773D01*
X218063834Y-83535437D01*
X218040779Y-83538856D01*
X218017500Y-83540000D01*
X217542500Y-83540000D01*
X217519221Y-83538856D01*
X217496166Y-83535437D01*
X217473557Y-83529773D01*
X217451613Y-83521921D01*
X217430543Y-83511956D01*
X217410552Y-83499974D01*
X217391832Y-83486090D01*
X217374562Y-83470438D01*
X217358910Y-83453168D01*
X217345026Y-83434448D01*
X217333044Y-83414457D01*
X217323079Y-83393387D01*
X217315227Y-83371443D01*
X217309563Y-83348834D01*
X217306144Y-83325779D01*
X217305000Y-83302500D01*
X217305000Y-82727500D01*
X217306144Y-82704221D01*
X217309563Y-82681166D01*
X217315227Y-82658557D01*
X217323079Y-82636613D01*
X217333044Y-82615543D01*
X217345026Y-82595552D01*
X217358910Y-82576832D01*
X217374562Y-82559562D01*
X217391832Y-82543910D01*
X217410552Y-82530026D01*
X217430543Y-82518044D01*
X217451613Y-82508079D01*
X217473557Y-82500227D01*
X217496166Y-82494563D01*
X217519221Y-82491144D01*
X217542500Y-82490000D01*
X218017500Y-82490000D01*
X218040779Y-82491144D01*
X218040779Y-82491144D01*
G37*
D11*
X217780000Y-83015000D03*
D10*
G36*
X199435779Y-54206144D02*
G01*
X199458834Y-54209563D01*
X199481443Y-54215227D01*
X199503387Y-54223079D01*
X199524457Y-54233044D01*
X199544448Y-54245026D01*
X199563168Y-54258910D01*
X199580438Y-54274562D01*
X199596090Y-54291832D01*
X199609974Y-54310552D01*
X199621956Y-54330543D01*
X199631921Y-54351613D01*
X199639773Y-54373557D01*
X199645437Y-54396166D01*
X199648856Y-54419221D01*
X199650000Y-54442500D01*
X199650000Y-54917500D01*
X199648856Y-54940779D01*
X199645437Y-54963834D01*
X199639773Y-54986443D01*
X199631921Y-55008387D01*
X199621956Y-55029457D01*
X199609974Y-55049448D01*
X199596090Y-55068168D01*
X199580438Y-55085438D01*
X199563168Y-55101090D01*
X199544448Y-55114974D01*
X199524457Y-55126956D01*
X199503387Y-55136921D01*
X199481443Y-55144773D01*
X199458834Y-55150437D01*
X199435779Y-55153856D01*
X199412500Y-55155000D01*
X198837500Y-55155000D01*
X198814221Y-55153856D01*
X198791166Y-55150437D01*
X198768557Y-55144773D01*
X198746613Y-55136921D01*
X198725543Y-55126956D01*
X198705552Y-55114974D01*
X198686832Y-55101090D01*
X198669562Y-55085438D01*
X198653910Y-55068168D01*
X198640026Y-55049448D01*
X198628044Y-55029457D01*
X198618079Y-55008387D01*
X198610227Y-54986443D01*
X198604563Y-54963834D01*
X198601144Y-54940779D01*
X198600000Y-54917500D01*
X198600000Y-54442500D01*
X198601144Y-54419221D01*
X198604563Y-54396166D01*
X198610227Y-54373557D01*
X198618079Y-54351613D01*
X198628044Y-54330543D01*
X198640026Y-54310552D01*
X198653910Y-54291832D01*
X198669562Y-54274562D01*
X198686832Y-54258910D01*
X198705552Y-54245026D01*
X198725543Y-54233044D01*
X198746613Y-54223079D01*
X198768557Y-54215227D01*
X198791166Y-54209563D01*
X198814221Y-54206144D01*
X198837500Y-54205000D01*
X199412500Y-54205000D01*
X199435779Y-54206144D01*
X199435779Y-54206144D01*
G37*
D11*
X199125000Y-54680000D03*
D10*
G36*
X201185779Y-54206144D02*
G01*
X201208834Y-54209563D01*
X201231443Y-54215227D01*
X201253387Y-54223079D01*
X201274457Y-54233044D01*
X201294448Y-54245026D01*
X201313168Y-54258910D01*
X201330438Y-54274562D01*
X201346090Y-54291832D01*
X201359974Y-54310552D01*
X201371956Y-54330543D01*
X201381921Y-54351613D01*
X201389773Y-54373557D01*
X201395437Y-54396166D01*
X201398856Y-54419221D01*
X201400000Y-54442500D01*
X201400000Y-54917500D01*
X201398856Y-54940779D01*
X201395437Y-54963834D01*
X201389773Y-54986443D01*
X201381921Y-55008387D01*
X201371956Y-55029457D01*
X201359974Y-55049448D01*
X201346090Y-55068168D01*
X201330438Y-55085438D01*
X201313168Y-55101090D01*
X201294448Y-55114974D01*
X201274457Y-55126956D01*
X201253387Y-55136921D01*
X201231443Y-55144773D01*
X201208834Y-55150437D01*
X201185779Y-55153856D01*
X201162500Y-55155000D01*
X200587500Y-55155000D01*
X200564221Y-55153856D01*
X200541166Y-55150437D01*
X200518557Y-55144773D01*
X200496613Y-55136921D01*
X200475543Y-55126956D01*
X200455552Y-55114974D01*
X200436832Y-55101090D01*
X200419562Y-55085438D01*
X200403910Y-55068168D01*
X200390026Y-55049448D01*
X200378044Y-55029457D01*
X200368079Y-55008387D01*
X200360227Y-54986443D01*
X200354563Y-54963834D01*
X200351144Y-54940779D01*
X200350000Y-54917500D01*
X200350000Y-54442500D01*
X200351144Y-54419221D01*
X200354563Y-54396166D01*
X200360227Y-54373557D01*
X200368079Y-54351613D01*
X200378044Y-54330543D01*
X200390026Y-54310552D01*
X200403910Y-54291832D01*
X200419562Y-54274562D01*
X200436832Y-54258910D01*
X200455552Y-54245026D01*
X200475543Y-54233044D01*
X200496613Y-54223079D01*
X200518557Y-54215227D01*
X200541166Y-54209563D01*
X200564221Y-54206144D01*
X200587500Y-54205000D01*
X201162500Y-54205000D01*
X201185779Y-54206144D01*
X201185779Y-54206144D01*
G37*
D11*
X200875000Y-54680000D03*
M02*
