G04 #@! TF.GenerationSoftware,KiCad,Pcbnew,(5.1.4)-1*
G04 #@! TF.CreationDate,2020-03-27T13:23:33-04:00*
G04 #@! TF.ProjectId,stepUP_lcd,73746570-5550-45f6-9c63-642e6b696361,rev?*
G04 #@! TF.SameCoordinates,Original*
G04 #@! TF.FileFunction,Soldermask,Top*
G04 #@! TF.FilePolarity,Negative*
%FSLAX46Y46*%
G04 Gerber Fmt 4.6, Leading zero omitted, Abs format (unit mm)*
G04 Created by KiCad (PCBNEW (5.1.4)-1) date 2020-03-27 13:23:33*
%MOMM*%
%LPD*%
G04 APERTURE LIST*
%ADD10C,0.100000*%
G04 APERTURE END LIST*
D10*
G36*
X207033584Y-112713185D02*
G01*
X207807069Y-112867040D01*
X208778540Y-113269437D01*
X209652836Y-113853623D01*
X209652838Y-113853625D01*
X209652841Y-113853627D01*
X210396373Y-114597159D01*
X210396375Y-114597162D01*
X210396377Y-114597164D01*
X210980563Y-115471460D01*
X211382960Y-116442931D01*
X211588100Y-117474244D01*
X211588100Y-118525756D01*
X211382960Y-119557069D01*
X210980563Y-120528540D01*
X210396377Y-121402836D01*
X210396375Y-121402838D01*
X210396373Y-121402841D01*
X209652841Y-122146373D01*
X209652838Y-122146375D01*
X209652836Y-122146377D01*
X208778540Y-122730563D01*
X207807069Y-123132960D01*
X207033584Y-123286815D01*
X206775757Y-123338100D01*
X205724243Y-123338100D01*
X205466416Y-123286815D01*
X204692931Y-123132960D01*
X203721460Y-122730563D01*
X202847164Y-122146377D01*
X202847162Y-122146375D01*
X202847159Y-122146373D01*
X202103627Y-121402841D01*
X202103625Y-121402838D01*
X202103623Y-121402836D01*
X201519437Y-120528540D01*
X201117040Y-119557069D01*
X200911900Y-118525756D01*
X200911900Y-117474244D01*
X201117040Y-116442931D01*
X201519437Y-115471460D01*
X202103623Y-114597164D01*
X202103625Y-114597162D01*
X202103627Y-114597159D01*
X202847159Y-113853627D01*
X202847162Y-113853625D01*
X202847164Y-113853623D01*
X203721460Y-113269437D01*
X204692931Y-112867040D01*
X205466416Y-112713185D01*
X205724243Y-112661900D01*
X206775757Y-112661900D01*
X207033584Y-112713185D01*
X207033584Y-112713185D01*
G37*
G36*
X84533584Y-112713185D02*
G01*
X85307069Y-112867040D01*
X86278540Y-113269437D01*
X87152836Y-113853623D01*
X87152838Y-113853625D01*
X87152841Y-113853627D01*
X87896373Y-114597159D01*
X87896375Y-114597162D01*
X87896377Y-114597164D01*
X88480563Y-115471460D01*
X88882960Y-116442931D01*
X89088100Y-117474244D01*
X89088100Y-118525756D01*
X88882960Y-119557069D01*
X88480563Y-120528540D01*
X87896377Y-121402836D01*
X87896375Y-121402838D01*
X87896373Y-121402841D01*
X87152841Y-122146373D01*
X87152838Y-122146375D01*
X87152836Y-122146377D01*
X86278540Y-122730563D01*
X85307069Y-123132960D01*
X84533584Y-123286815D01*
X84275757Y-123338100D01*
X83224243Y-123338100D01*
X82966416Y-123286815D01*
X82192931Y-123132960D01*
X81221460Y-122730563D01*
X80347164Y-122146377D01*
X80347162Y-122146375D01*
X80347159Y-122146373D01*
X79603627Y-121402841D01*
X79603625Y-121402838D01*
X79603623Y-121402836D01*
X79019437Y-120528540D01*
X78617040Y-119557069D01*
X78411900Y-118525756D01*
X78411900Y-117474244D01*
X78617040Y-116442931D01*
X79019437Y-115471460D01*
X79603623Y-114597164D01*
X79603625Y-114597162D01*
X79603627Y-114597159D01*
X80347159Y-113853627D01*
X80347162Y-113853625D01*
X80347164Y-113853623D01*
X81221460Y-113269437D01*
X82192931Y-112867040D01*
X82966416Y-112713185D01*
X83224243Y-112661900D01*
X84275757Y-112661900D01*
X84533584Y-112713185D01*
X84533584Y-112713185D01*
G37*
G36*
X145783584Y-112713185D02*
G01*
X146557069Y-112867040D01*
X147528540Y-113269437D01*
X148402836Y-113853623D01*
X148402838Y-113853625D01*
X148402841Y-113853627D01*
X149146373Y-114597159D01*
X149146375Y-114597162D01*
X149146377Y-114597164D01*
X149730563Y-115471460D01*
X150132960Y-116442931D01*
X150338100Y-117474244D01*
X150338100Y-118525756D01*
X150132960Y-119557069D01*
X149730563Y-120528540D01*
X149146377Y-121402836D01*
X149146375Y-121402838D01*
X149146373Y-121402841D01*
X148402841Y-122146373D01*
X148402838Y-122146375D01*
X148402836Y-122146377D01*
X147528540Y-122730563D01*
X146557069Y-123132960D01*
X145783584Y-123286815D01*
X145525757Y-123338100D01*
X144474243Y-123338100D01*
X144216416Y-123286815D01*
X143442931Y-123132960D01*
X142471460Y-122730563D01*
X141597164Y-122146377D01*
X141597162Y-122146375D01*
X141597159Y-122146373D01*
X140853627Y-121402841D01*
X140853625Y-121402838D01*
X140853623Y-121402836D01*
X140269437Y-120528540D01*
X139867040Y-119557069D01*
X139661900Y-118525756D01*
X139661900Y-117474244D01*
X139867040Y-116442931D01*
X140269437Y-115471460D01*
X140853623Y-114597164D01*
X140853625Y-114597162D01*
X140853627Y-114597159D01*
X141597159Y-113853627D01*
X141597162Y-113853625D01*
X141597164Y-113853623D01*
X142471460Y-113269437D01*
X143442931Y-112867040D01*
X144216416Y-112713185D01*
X144474243Y-112661900D01*
X145525757Y-112661900D01*
X145783584Y-112713185D01*
X145783584Y-112713185D01*
G37*
G36*
X69694519Y-99886338D02*
G01*
X69694521Y-99886339D01*
X69694522Y-99886339D01*
X70283817Y-100130433D01*
X70634999Y-100365086D01*
X70814169Y-100484803D01*
X71265197Y-100935831D01*
X71285478Y-100966184D01*
X71619567Y-101466183D01*
X71863661Y-102055478D01*
X71988100Y-102681076D01*
X71988100Y-103318924D01*
X71863661Y-103944522D01*
X71619567Y-104533817D01*
X71599286Y-104564169D01*
X71265197Y-105064169D01*
X70814169Y-105515197D01*
X70666807Y-105613661D01*
X70283817Y-105869567D01*
X69694522Y-106113661D01*
X69694521Y-106113661D01*
X69694519Y-106113662D01*
X69068925Y-106238100D01*
X68431075Y-106238100D01*
X67805481Y-106113662D01*
X67805479Y-106113661D01*
X67805478Y-106113661D01*
X67216183Y-105869567D01*
X66833193Y-105613661D01*
X66685831Y-105515197D01*
X66234803Y-105064169D01*
X65900714Y-104564169D01*
X65880433Y-104533817D01*
X65636339Y-103944522D01*
X65511900Y-103318924D01*
X65511900Y-102681076D01*
X65636339Y-102055478D01*
X65880433Y-101466183D01*
X66214522Y-100966184D01*
X66234803Y-100935831D01*
X66685831Y-100484803D01*
X66865001Y-100365086D01*
X67216183Y-100130433D01*
X67805478Y-99886339D01*
X67805479Y-99886339D01*
X67805481Y-99886338D01*
X68431075Y-99761900D01*
X69068925Y-99761900D01*
X69694519Y-99886338D01*
X69694519Y-99886338D01*
G37*
G36*
X222194519Y-99886338D02*
G01*
X222194521Y-99886339D01*
X222194522Y-99886339D01*
X222783817Y-100130433D01*
X223134999Y-100365086D01*
X223314169Y-100484803D01*
X223765197Y-100935831D01*
X223785478Y-100966184D01*
X224119567Y-101466183D01*
X224363661Y-102055478D01*
X224488100Y-102681076D01*
X224488100Y-103318924D01*
X224363661Y-103944522D01*
X224119567Y-104533817D01*
X224099286Y-104564169D01*
X223765197Y-105064169D01*
X223314169Y-105515197D01*
X223166807Y-105613661D01*
X222783817Y-105869567D01*
X222194522Y-106113661D01*
X222194521Y-106113661D01*
X222194519Y-106113662D01*
X221568925Y-106238100D01*
X220931075Y-106238100D01*
X220305481Y-106113662D01*
X220305479Y-106113661D01*
X220305478Y-106113661D01*
X219716183Y-105869567D01*
X219333193Y-105613661D01*
X219185831Y-105515197D01*
X218734803Y-105064169D01*
X218400714Y-104564169D01*
X218380433Y-104533817D01*
X218136339Y-103944522D01*
X218011900Y-103318924D01*
X218011900Y-102681076D01*
X218136339Y-102055478D01*
X218380433Y-101466183D01*
X218714522Y-100966184D01*
X218734803Y-100935831D01*
X219185831Y-100484803D01*
X219365001Y-100365086D01*
X219716183Y-100130433D01*
X220305478Y-99886339D01*
X220305479Y-99886339D01*
X220305481Y-99886338D01*
X220931075Y-99761900D01*
X221568925Y-99761900D01*
X222194519Y-99886338D01*
X222194519Y-99886338D01*
G37*
G36*
X171194519Y-99386338D02*
G01*
X171194521Y-99386339D01*
X171194522Y-99386339D01*
X171783817Y-99630433D01*
X171980571Y-99761900D01*
X172314169Y-99984803D01*
X172765197Y-100435831D01*
X172765200Y-100435836D01*
X173119567Y-100966183D01*
X173363661Y-101555478D01*
X173488100Y-102181076D01*
X173488100Y-102818924D01*
X173363661Y-103444522D01*
X173119567Y-104033817D01*
X172884914Y-104384999D01*
X172765197Y-104564169D01*
X172314169Y-105015197D01*
X172240877Y-105064169D01*
X171783817Y-105369567D01*
X171194522Y-105613661D01*
X171194521Y-105613661D01*
X171194519Y-105613662D01*
X170568925Y-105738100D01*
X169931075Y-105738100D01*
X169305481Y-105613662D01*
X169305479Y-105613661D01*
X169305478Y-105613661D01*
X168716183Y-105369567D01*
X168259123Y-105064169D01*
X168185831Y-105015197D01*
X167734803Y-104564169D01*
X167615086Y-104384999D01*
X167380433Y-104033817D01*
X167136339Y-103444522D01*
X167011900Y-102818924D01*
X167011900Y-102181076D01*
X167136339Y-101555478D01*
X167380433Y-100966183D01*
X167734800Y-100435836D01*
X167734803Y-100435831D01*
X168185831Y-99984803D01*
X168519429Y-99761900D01*
X168716183Y-99630433D01*
X169305478Y-99386339D01*
X169305479Y-99386339D01*
X169305481Y-99386338D01*
X169931075Y-99261900D01*
X170568925Y-99261900D01*
X171194519Y-99386338D01*
X171194519Y-99386338D01*
G37*
G36*
X78194519Y-99386338D02*
G01*
X78194521Y-99386339D01*
X78194522Y-99386339D01*
X78783817Y-99630433D01*
X78980571Y-99761900D01*
X79314169Y-99984803D01*
X79765197Y-100435831D01*
X79765200Y-100435836D01*
X80119567Y-100966183D01*
X80363661Y-101555478D01*
X80488100Y-102181076D01*
X80488100Y-102818924D01*
X80363661Y-103444522D01*
X80119567Y-104033817D01*
X79884914Y-104384999D01*
X79765197Y-104564169D01*
X79314169Y-105015197D01*
X79240877Y-105064169D01*
X78783817Y-105369567D01*
X78194522Y-105613661D01*
X78194521Y-105613661D01*
X78194519Y-105613662D01*
X77568925Y-105738100D01*
X76931075Y-105738100D01*
X76305481Y-105613662D01*
X76305479Y-105613661D01*
X76305478Y-105613661D01*
X75716183Y-105369567D01*
X75259123Y-105064169D01*
X75185831Y-105015197D01*
X74734803Y-104564169D01*
X74615086Y-104384999D01*
X74380433Y-104033817D01*
X74136339Y-103444522D01*
X74011900Y-102818924D01*
X74011900Y-102181076D01*
X74136339Y-101555478D01*
X74380433Y-100966183D01*
X74734800Y-100435836D01*
X74734803Y-100435831D01*
X75185831Y-99984803D01*
X75519429Y-99761900D01*
X75716183Y-99630433D01*
X76305478Y-99386339D01*
X76305479Y-99386339D01*
X76305481Y-99386338D01*
X76931075Y-99261900D01*
X77568925Y-99261900D01*
X78194519Y-99386338D01*
X78194519Y-99386338D01*
G37*
G36*
X54533584Y-90213185D02*
G01*
X55307069Y-90367040D01*
X56278540Y-90769437D01*
X57152836Y-91353623D01*
X57152838Y-91353625D01*
X57152841Y-91353627D01*
X57896373Y-92097159D01*
X57896375Y-92097162D01*
X57896377Y-92097164D01*
X58480563Y-92971460D01*
X58882960Y-93942931D01*
X59088100Y-94974244D01*
X59088100Y-96025756D01*
X58882960Y-97057069D01*
X58480563Y-98028540D01*
X57896377Y-98902836D01*
X57896375Y-98902838D01*
X57896373Y-98902841D01*
X57152841Y-99646373D01*
X57152838Y-99646375D01*
X57152836Y-99646377D01*
X56278540Y-100230563D01*
X55307069Y-100632960D01*
X54533584Y-100786815D01*
X54275757Y-100838100D01*
X53224243Y-100838100D01*
X52966416Y-100786815D01*
X52192931Y-100632960D01*
X51221460Y-100230563D01*
X50347164Y-99646377D01*
X50347162Y-99646375D01*
X50347159Y-99646373D01*
X49603627Y-98902841D01*
X49603625Y-98902838D01*
X49603623Y-98902836D01*
X49019437Y-98028540D01*
X48617040Y-97057069D01*
X48411900Y-96025756D01*
X48411900Y-94974244D01*
X48617040Y-93942931D01*
X49019437Y-92971460D01*
X49603623Y-92097164D01*
X49603625Y-92097162D01*
X49603627Y-92097159D01*
X50347159Y-91353627D01*
X50347162Y-91353625D01*
X50347164Y-91353623D01*
X51221460Y-90769437D01*
X52192931Y-90367040D01*
X52966416Y-90213185D01*
X53224243Y-90161900D01*
X54275757Y-90161900D01*
X54533584Y-90213185D01*
X54533584Y-90213185D01*
G37*
G36*
X71913899Y-81395474D02*
G01*
X72090731Y-81449115D01*
X72090734Y-81449116D01*
X72189091Y-81501689D01*
X72253701Y-81536224D01*
X72253702Y-81536225D01*
X72253704Y-81536226D01*
X72396547Y-81653453D01*
X72513775Y-81796296D01*
X72600884Y-81959265D01*
X72600884Y-81959266D01*
X72600885Y-81959268D01*
X72654526Y-82136100D01*
X72668100Y-82273916D01*
X72668100Y-82966084D01*
X72654526Y-83103900D01*
X72600885Y-83280732D01*
X72600884Y-83280735D01*
X72513775Y-83443704D01*
X72396547Y-83586547D01*
X72253704Y-83703775D01*
X72090735Y-83790884D01*
X72090732Y-83790885D01*
X71913900Y-83844526D01*
X71730000Y-83862639D01*
X71546101Y-83844526D01*
X71369269Y-83790885D01*
X71369266Y-83790884D01*
X71206297Y-83703775D01*
X71063454Y-83586547D01*
X70946226Y-83443704D01*
X70859117Y-83280735D01*
X70859116Y-83280732D01*
X70805474Y-83103900D01*
X70791900Y-82966084D01*
X70791900Y-82273917D01*
X70805474Y-82136101D01*
X70859115Y-81959269D01*
X70859116Y-81959266D01*
X70946226Y-81796296D01*
X71063453Y-81653453D01*
X71206296Y-81536225D01*
X71369265Y-81449116D01*
X71369268Y-81449115D01*
X71546100Y-81395474D01*
X71730000Y-81377361D01*
X71913899Y-81395474D01*
X71913899Y-81395474D01*
G37*
G36*
X200688170Y-70356940D02*
G01*
X201367471Y-70492061D01*
X202081269Y-70787726D01*
X202220648Y-70845459D01*
X202988490Y-71358515D01*
X203641485Y-72011510D01*
X204154541Y-72779352D01*
X204154542Y-72779355D01*
X204507939Y-73632529D01*
X204688100Y-74538263D01*
X204688100Y-75461737D01*
X204507939Y-76367471D01*
X204212274Y-77081269D01*
X204154541Y-77220648D01*
X203641485Y-77988490D01*
X202988490Y-78641485D01*
X202220648Y-79154541D01*
X202081269Y-79212274D01*
X201367471Y-79507939D01*
X200688171Y-79643060D01*
X200461738Y-79688100D01*
X199538262Y-79688100D01*
X199311830Y-79643060D01*
X198632529Y-79507939D01*
X197918731Y-79212274D01*
X197779352Y-79154541D01*
X197011510Y-78641485D01*
X196358515Y-77988490D01*
X195845459Y-77220648D01*
X195787726Y-77081269D01*
X195492061Y-76367471D01*
X195311900Y-75461737D01*
X195311900Y-74538263D01*
X195492061Y-73632529D01*
X195845458Y-72779355D01*
X195845459Y-72779352D01*
X196358515Y-72011510D01*
X197011510Y-71358515D01*
X197779352Y-70845459D01*
X197918731Y-70787726D01*
X198632529Y-70492061D01*
X199311830Y-70356940D01*
X199538262Y-70311900D01*
X200461738Y-70311900D01*
X200688170Y-70356940D01*
X200688170Y-70356940D01*
G37*
G36*
X71913899Y-73775474D02*
G01*
X72090731Y-73829115D01*
X72090734Y-73829116D01*
X72189091Y-73881689D01*
X72253701Y-73916224D01*
X72253702Y-73916225D01*
X72253704Y-73916226D01*
X72396547Y-74033453D01*
X72513775Y-74176296D01*
X72600884Y-74339265D01*
X72600884Y-74339266D01*
X72600885Y-74339268D01*
X72654526Y-74516100D01*
X72668100Y-74653916D01*
X72668100Y-75346084D01*
X72654526Y-75483900D01*
X72600885Y-75660732D01*
X72600884Y-75660735D01*
X72513775Y-75823704D01*
X72396547Y-75966547D01*
X72253704Y-76083775D01*
X72090735Y-76170884D01*
X72090732Y-76170885D01*
X71913900Y-76224526D01*
X71730000Y-76242639D01*
X71546101Y-76224526D01*
X71369269Y-76170885D01*
X71369266Y-76170884D01*
X71206297Y-76083775D01*
X71063454Y-75966547D01*
X70946226Y-75823704D01*
X70859117Y-75660735D01*
X70859116Y-75660732D01*
X70805474Y-75483900D01*
X70791900Y-75346084D01*
X70791900Y-74653917D01*
X70805474Y-74516101D01*
X70859115Y-74339269D01*
X70859116Y-74339266D01*
X70946226Y-74176296D01*
X71063453Y-74033453D01*
X71206296Y-73916225D01*
X71369265Y-73829116D01*
X71369268Y-73829115D01*
X71546100Y-73775474D01*
X71730000Y-73757361D01*
X71913899Y-73775474D01*
X71913899Y-73775474D01*
G37*
G36*
X71913899Y-66155474D02*
G01*
X72090731Y-66209115D01*
X72090734Y-66209116D01*
X72189091Y-66261689D01*
X72253701Y-66296224D01*
X72253702Y-66296225D01*
X72253704Y-66296226D01*
X72396547Y-66413453D01*
X72513775Y-66556296D01*
X72600884Y-66719265D01*
X72600884Y-66719266D01*
X72600885Y-66719268D01*
X72654526Y-66896100D01*
X72668100Y-67033916D01*
X72668100Y-67726084D01*
X72654526Y-67863900D01*
X72600885Y-68040732D01*
X72600884Y-68040735D01*
X72513775Y-68203704D01*
X72396547Y-68346547D01*
X72253704Y-68463775D01*
X72090735Y-68550884D01*
X72090732Y-68550885D01*
X71913900Y-68604526D01*
X71730000Y-68622639D01*
X71546101Y-68604526D01*
X71369269Y-68550885D01*
X71369266Y-68550884D01*
X71206297Y-68463775D01*
X71063454Y-68346547D01*
X70946226Y-68203704D01*
X70859117Y-68040735D01*
X70859116Y-68040732D01*
X70805474Y-67863900D01*
X70791900Y-67726084D01*
X70791900Y-67033917D01*
X70805474Y-66896101D01*
X70859115Y-66719269D01*
X70859116Y-66719266D01*
X70946226Y-66556296D01*
X71063453Y-66413453D01*
X71206296Y-66296225D01*
X71369265Y-66209116D01*
X71369268Y-66209115D01*
X71546100Y-66155474D01*
X71730000Y-66137361D01*
X71913899Y-66155474D01*
X71913899Y-66155474D01*
G37*
G36*
X222194519Y-49886338D02*
G01*
X222194521Y-49886339D01*
X222194522Y-49886339D01*
X222783817Y-50130433D01*
X223134999Y-50365086D01*
X223314169Y-50484803D01*
X223765197Y-50935831D01*
X223884914Y-51115001D01*
X224119567Y-51466183D01*
X224119567Y-51466184D01*
X224363662Y-52055481D01*
X224488100Y-52681075D01*
X224488100Y-53318924D01*
X224363661Y-53944522D01*
X224119567Y-54533817D01*
X223884914Y-54884999D01*
X223765197Y-55064169D01*
X223314169Y-55515197D01*
X223137924Y-55632960D01*
X222783817Y-55869567D01*
X222194522Y-56113661D01*
X222194521Y-56113661D01*
X222194519Y-56113662D01*
X221568925Y-56238100D01*
X220931075Y-56238100D01*
X220305481Y-56113662D01*
X220305479Y-56113661D01*
X220305478Y-56113661D01*
X219716183Y-55869567D01*
X219362076Y-55632960D01*
X219185831Y-55515197D01*
X218734803Y-55064169D01*
X218615086Y-54884999D01*
X218380433Y-54533817D01*
X218136339Y-53944522D01*
X218011900Y-53318924D01*
X218011900Y-52681075D01*
X218136338Y-52055481D01*
X218380433Y-51466184D01*
X218380433Y-51466183D01*
X218615086Y-51115001D01*
X218734803Y-50935831D01*
X219185831Y-50484803D01*
X219365001Y-50365086D01*
X219716183Y-50130433D01*
X220305478Y-49886339D01*
X220305479Y-49886339D01*
X220305481Y-49886338D01*
X220931075Y-49761900D01*
X221568925Y-49761900D01*
X222194519Y-49886338D01*
X222194519Y-49886338D01*
G37*
G36*
X54533584Y-45213185D02*
G01*
X55307069Y-45367040D01*
X56278540Y-45769437D01*
X57152836Y-46353623D01*
X57152838Y-46353625D01*
X57152841Y-46353627D01*
X57896373Y-47097159D01*
X57896375Y-47097162D01*
X57896377Y-47097164D01*
X58480563Y-47971460D01*
X58882960Y-48942931D01*
X58901038Y-49033816D01*
X59070615Y-49886338D01*
X59088100Y-49974244D01*
X59088100Y-51025756D01*
X58882960Y-52057069D01*
X58480563Y-53028540D01*
X57896377Y-53902836D01*
X57896375Y-53902838D01*
X57896373Y-53902841D01*
X57152841Y-54646373D01*
X57152838Y-54646375D01*
X57152836Y-54646377D01*
X56278540Y-55230563D01*
X55307069Y-55632960D01*
X54533584Y-55786815D01*
X54275757Y-55838100D01*
X53224243Y-55838100D01*
X52966416Y-55786815D01*
X52192931Y-55632960D01*
X51221460Y-55230563D01*
X50347164Y-54646377D01*
X50347162Y-54646375D01*
X50347159Y-54646373D01*
X49603627Y-53902841D01*
X49603625Y-53902838D01*
X49603623Y-53902836D01*
X49019437Y-53028540D01*
X48617040Y-52057069D01*
X48411900Y-51025756D01*
X48411900Y-49974244D01*
X48429386Y-49886338D01*
X48598962Y-49033816D01*
X48617040Y-48942931D01*
X49019437Y-47971460D01*
X49603623Y-47097164D01*
X49603625Y-47097162D01*
X49603627Y-47097159D01*
X50347159Y-46353627D01*
X50347162Y-46353625D01*
X50347164Y-46353623D01*
X51221460Y-45769437D01*
X52192931Y-45367040D01*
X52966416Y-45213185D01*
X53224243Y-45161900D01*
X54275757Y-45161900D01*
X54533584Y-45213185D01*
X54533584Y-45213185D01*
G37*
G36*
X171194519Y-44386338D02*
G01*
X171194521Y-44386339D01*
X171194522Y-44386339D01*
X171783817Y-44630433D01*
X172134999Y-44865086D01*
X172314169Y-44984803D01*
X172765197Y-45435831D01*
X172765200Y-45435836D01*
X173119567Y-45966183D01*
X173363661Y-46555478D01*
X173488100Y-47181076D01*
X173488100Y-47818924D01*
X173363661Y-48444522D01*
X173119567Y-49033817D01*
X172884914Y-49384999D01*
X172765197Y-49564169D01*
X172314169Y-50015197D01*
X172141706Y-50130433D01*
X171783817Y-50369567D01*
X171194522Y-50613661D01*
X171194521Y-50613661D01*
X171194519Y-50613662D01*
X170568925Y-50738100D01*
X169931075Y-50738100D01*
X169305481Y-50613662D01*
X169305479Y-50613661D01*
X169305478Y-50613661D01*
X168716183Y-50369567D01*
X168358294Y-50130433D01*
X168185831Y-50015197D01*
X167734803Y-49564169D01*
X167615086Y-49384999D01*
X167380433Y-49033817D01*
X167136339Y-48444522D01*
X167011900Y-47818924D01*
X167011900Y-47181076D01*
X167136339Y-46555478D01*
X167380433Y-45966183D01*
X167734800Y-45435836D01*
X167734803Y-45435831D01*
X168185831Y-44984803D01*
X168365001Y-44865086D01*
X168716183Y-44630433D01*
X169305478Y-44386339D01*
X169305479Y-44386339D01*
X169305481Y-44386338D01*
X169931075Y-44261900D01*
X170568925Y-44261900D01*
X171194519Y-44386338D01*
X171194519Y-44386338D01*
G37*
G36*
X78194519Y-44386338D02*
G01*
X78194521Y-44386339D01*
X78194522Y-44386339D01*
X78783817Y-44630433D01*
X79134999Y-44865086D01*
X79314169Y-44984803D01*
X79765197Y-45435831D01*
X79765200Y-45435836D01*
X80119567Y-45966183D01*
X80363661Y-46555478D01*
X80488100Y-47181076D01*
X80488100Y-47818924D01*
X80363661Y-48444522D01*
X80119567Y-49033817D01*
X79884914Y-49384999D01*
X79765197Y-49564169D01*
X79314169Y-50015197D01*
X79141706Y-50130433D01*
X78783817Y-50369567D01*
X78194522Y-50613661D01*
X78194521Y-50613661D01*
X78194519Y-50613662D01*
X77568925Y-50738100D01*
X76931075Y-50738100D01*
X76305481Y-50613662D01*
X76305479Y-50613661D01*
X76305478Y-50613661D01*
X75716183Y-50369567D01*
X75358294Y-50130433D01*
X75185831Y-50015197D01*
X74734803Y-49564169D01*
X74615086Y-49384999D01*
X74380433Y-49033817D01*
X74136339Y-48444522D01*
X74011900Y-47818924D01*
X74011900Y-47181076D01*
X74136339Y-46555478D01*
X74380433Y-45966183D01*
X74734800Y-45435836D01*
X74734803Y-45435831D01*
X75185831Y-44984803D01*
X75365001Y-44865086D01*
X75716183Y-44630433D01*
X76305478Y-44386339D01*
X76305479Y-44386339D01*
X76305481Y-44386338D01*
X76931075Y-44261900D01*
X77568925Y-44261900D01*
X78194519Y-44386338D01*
X78194519Y-44386338D01*
G37*
G36*
X69694519Y-37386338D02*
G01*
X69694521Y-37386339D01*
X69694522Y-37386339D01*
X70283817Y-37630433D01*
X70634999Y-37865086D01*
X70814169Y-37984803D01*
X71265197Y-38435831D01*
X71265200Y-38435836D01*
X71619567Y-38966183D01*
X71863661Y-39555478D01*
X71988100Y-40181076D01*
X71988100Y-40818924D01*
X71863661Y-41444522D01*
X71619567Y-42033817D01*
X71384914Y-42384999D01*
X71265197Y-42564169D01*
X70814169Y-43015197D01*
X70634999Y-43134914D01*
X70283817Y-43369567D01*
X69694522Y-43613661D01*
X69694521Y-43613661D01*
X69694519Y-43613662D01*
X69068925Y-43738100D01*
X68431075Y-43738100D01*
X67805481Y-43613662D01*
X67805479Y-43613661D01*
X67805478Y-43613661D01*
X67216183Y-43369567D01*
X66865001Y-43134914D01*
X66685831Y-43015197D01*
X66234803Y-42564169D01*
X66115086Y-42384999D01*
X65880433Y-42033817D01*
X65636339Y-41444522D01*
X65511900Y-40818924D01*
X65511900Y-40181076D01*
X65636339Y-39555478D01*
X65880433Y-38966183D01*
X66234800Y-38435836D01*
X66234803Y-38435831D01*
X66685831Y-37984803D01*
X66865001Y-37865086D01*
X67216183Y-37630433D01*
X67805478Y-37386339D01*
X67805479Y-37386339D01*
X67805481Y-37386338D01*
X68431075Y-37261900D01*
X69068925Y-37261900D01*
X69694519Y-37386338D01*
X69694519Y-37386338D01*
G37*
G36*
X179307767Y-37386338D02*
G01*
X179307769Y-37386339D01*
X179307770Y-37386339D01*
X179897065Y-37630433D01*
X180248247Y-37865086D01*
X180427417Y-37984803D01*
X180878445Y-38435831D01*
X180878448Y-38435836D01*
X181232815Y-38966183D01*
X181476909Y-39555478D01*
X181601348Y-40181076D01*
X181601348Y-40818924D01*
X181476909Y-41444522D01*
X181232815Y-42033817D01*
X180998162Y-42384999D01*
X180878445Y-42564169D01*
X180427417Y-43015197D01*
X180248247Y-43134914D01*
X179897065Y-43369567D01*
X179307770Y-43613661D01*
X179307769Y-43613661D01*
X179307767Y-43613662D01*
X178682173Y-43738100D01*
X178044323Y-43738100D01*
X177418729Y-43613662D01*
X177418727Y-43613661D01*
X177418726Y-43613661D01*
X176829431Y-43369567D01*
X176478249Y-43134914D01*
X176299079Y-43015197D01*
X175848051Y-42564169D01*
X175728334Y-42384999D01*
X175493681Y-42033817D01*
X175249587Y-41444522D01*
X175125148Y-40818924D01*
X175125148Y-40181076D01*
X175249587Y-39555478D01*
X175493681Y-38966183D01*
X175848048Y-38435836D01*
X175848051Y-38435831D01*
X176299079Y-37984803D01*
X176478249Y-37865086D01*
X176829431Y-37630433D01*
X177418726Y-37386339D01*
X177418727Y-37386339D01*
X177418729Y-37386338D01*
X178044323Y-37261900D01*
X178682173Y-37261900D01*
X179307767Y-37386338D01*
X179307767Y-37386338D01*
G37*
M02*
