M48
; DRILL file {KiCad (5.1.4)-1} date 3/27/2020 4:01:55 PM
; FORMAT={-:-/ absolute / inch / decimal}
; #@! TF.CreationDate,2020-03-27T16:01:55-04:00
; #@! TF.GenerationSoftware,Kicad,Pcbnew,(5.1.4)-1
; #@! TF.FileFunction,Plated,1,2,PTH
FMAT,2
INCH
T1C0.0157
T2C0.0394
T3C0.0400
T4C0.1772
T5C0.2087
%
G90
G05
T1
X0.25Y-0.175
T2
X0.025Y-0.49
X0.025Y-0.5884
T3
X-1.725Y0.05
X-1.725Y-0.05
X-1.625Y0.05
X-1.625Y-0.05
X-1.525Y0.05
X-1.525Y-0.05
X-1.425Y0.05
X-1.425Y-0.05
X-1.325Y0.05
X-1.325Y-0.05
X-1.225Y0.05
X-1.225Y-0.05
X-1.125Y0.05
X-1.125Y-0.05
X-1.025Y0.05
X-1.025Y-0.05
X-0.925Y0.05
X-0.925Y-0.05
X-0.825Y0.05
X-0.825Y-0.05
X-0.725Y0.05
X-0.725Y-0.05
X-0.625Y0.05
X-0.625Y-0.05
X-0.525Y0.05
X-0.525Y-0.05
T4
X0.0Y0.1407
X0.0Y-0.1407
T5
X-2.2185Y0.0
X0.5374Y0.0
T0
M30
