G04 #@! TF.GenerationSoftware,KiCad,Pcbnew,(5.1.4)-1*
G04 #@! TF.CreationDate,2020-03-27T15:30:10-04:00*
G04 #@! TF.ProjectId,y-z_motor_endstop_breakout,792d7a5f-6d6f-4746-9f72-5f656e647374,rev?*
G04 #@! TF.SameCoordinates,PX8a48640PY6422c40*
G04 #@! TF.FileFunction,Legend,Bot*
G04 #@! TF.FilePolarity,Positive*
%FSLAX46Y46*%
G04 Gerber Fmt 4.6, Leading zero omitted, Abs format (unit mm)*
G04 Created by KiCad (PCBNEW (5.1.4)-1) date 2020-03-27 15:30:10*
%MOMM*%
%LPD*%
G04 APERTURE LIST*
%ADD10C,0.254000*%
%ADD11C,0.317500*%
%ADD12O,2.101600X1.801600*%
%ADD13C,0.100000*%
%ADD14C,1.801600*%
%ADD15O,2.051600X1.801600*%
%ADD16O,1.828800X1.828800*%
%ADD17R,1.828800X1.828800*%
%ADD18C,10.701600*%
G04 APERTURE END LIST*
D10*
X-5213048Y-5031619D02*
X-5213048Y-5757333D01*
X-5164667Y-5902476D01*
X-5067905Y-5999238D01*
X-4922762Y-6047619D01*
X-4826000Y-6047619D01*
X-6180667Y-6047619D02*
X-5696858Y-6047619D01*
X-5696858Y-5031619D01*
X-7099905Y-5950857D02*
X-7051524Y-5999238D01*
X-6906381Y-6047619D01*
X-6809620Y-6047619D01*
X-6664477Y-5999238D01*
X-6567715Y-5902476D01*
X-6519334Y-5805714D01*
X-6470953Y-5612190D01*
X-6470953Y-5467047D01*
X-6519334Y-5273523D01*
X-6567715Y-5176761D01*
X-6664477Y-5080000D01*
X-6809620Y-5031619D01*
X-6906381Y-5031619D01*
X-7051524Y-5080000D01*
X-7099905Y-5128380D01*
X-7825620Y-5031619D02*
X-7825620Y-5757333D01*
X-7777239Y-5902476D01*
X-7680477Y-5999238D01*
X-7535334Y-6047619D01*
X-7438572Y-6047619D01*
X-8793239Y-6047619D02*
X-8309429Y-6047619D01*
X-8309429Y-5031619D01*
X-9712477Y-5950857D02*
X-9664096Y-5999238D01*
X-9518953Y-6047619D01*
X-9422191Y-6047619D01*
X-9277048Y-5999238D01*
X-9180286Y-5902476D01*
X-9131905Y-5805714D01*
X-9083524Y-5612190D01*
X-9083524Y-5467047D01*
X-9131905Y-5273523D01*
X-9180286Y-5176761D01*
X-9277048Y-5080000D01*
X-9422191Y-5031619D01*
X-9518953Y-5031619D01*
X-9664096Y-5080000D01*
X-9712477Y-5128380D01*
X-10438191Y-5031619D02*
X-10438191Y-5757333D01*
X-10389810Y-5902476D01*
X-10293048Y-5999238D01*
X-10147905Y-6047619D01*
X-10051143Y-6047619D01*
X-11405810Y-6047619D02*
X-10922000Y-6047619D01*
X-10922000Y-5031619D01*
X-12325048Y-5950857D02*
X-12276667Y-5999238D01*
X-12131524Y-6047619D01*
X-12034762Y-6047619D01*
X-11889620Y-5999238D01*
X-11792858Y-5902476D01*
X-11744477Y-5805714D01*
X-11696096Y-5612190D01*
X-11696096Y-5467047D01*
X-11744477Y-5273523D01*
X-11792858Y-5176761D01*
X-11889620Y-5080000D01*
X-12034762Y-5031619D01*
X-12131524Y-5031619D01*
X-12276667Y-5080000D01*
X-12325048Y-5128380D01*
X-13050762Y-5031619D02*
X-13050762Y-5757333D01*
X-13002381Y-5902476D01*
X-12905620Y-5999238D01*
X-12760477Y-6047619D01*
X-12663715Y-6047619D01*
X-14018381Y-6047619D02*
X-13534572Y-6047619D01*
X-13534572Y-5031619D01*
X-14937620Y-5950857D02*
X-14889239Y-5999238D01*
X-14744096Y-6047619D01*
X-14647334Y-6047619D01*
X-14502191Y-5999238D01*
X-14405429Y-5902476D01*
X-14357048Y-5805714D01*
X-14308667Y-5612190D01*
X-14308667Y-5467047D01*
X-14357048Y-5273523D01*
X-14405429Y-5176761D01*
X-14502191Y-5080000D01*
X-14647334Y-5031619D01*
X-14744096Y-5031619D01*
X-14889239Y-5080000D01*
X-14937620Y-5128380D01*
D11*
X2933095Y1171727D02*
X2933095Y2441727D01*
X2388809Y1232203D02*
X2267857Y1171727D01*
X2025952Y1171727D01*
X1905000Y1232203D01*
X1844523Y1353155D01*
X1844523Y1413631D01*
X1905000Y1534584D01*
X2025952Y1595060D01*
X2207380Y1595060D01*
X2328333Y1655536D01*
X2388809Y1776489D01*
X2388809Y1836965D01*
X2328333Y1957917D01*
X2207380Y2018393D01*
X2025952Y2018393D01*
X1905000Y1957917D01*
X1300238Y1171727D02*
X1300238Y2441727D01*
X755952Y1171727D02*
X755952Y1836965D01*
X816428Y1957917D01*
X937380Y2018393D01*
X1118809Y2018393D01*
X1239761Y1957917D01*
X1300238Y1897441D01*
X-393096Y1171727D02*
X-393096Y1836965D01*
X-332620Y1957917D01*
X-211667Y2018393D01*
X30238Y2018393D01*
X151190Y1957917D01*
X-393096Y1232203D02*
X-272143Y1171727D01*
X30238Y1171727D01*
X151190Y1232203D01*
X211666Y1353155D01*
X211666Y1474108D01*
X151190Y1595060D01*
X30238Y1655536D01*
X-272143Y1655536D01*
X-393096Y1716012D01*
X-1542143Y1171727D02*
X-1542143Y1836965D01*
X-1481667Y1957917D01*
X-1360715Y2018393D01*
X-1118810Y2018393D01*
X-997858Y1957917D01*
X-1542143Y1232203D02*
X-1421191Y1171727D01*
X-1118810Y1171727D01*
X-997858Y1232203D01*
X-937381Y1353155D01*
X-937381Y1474108D01*
X-997858Y1595060D01*
X-1118810Y1655536D01*
X-1421191Y1655536D01*
X-1542143Y1716012D01*
X-2146905Y2018393D02*
X-2146905Y1171727D01*
X-2146905Y1897441D02*
X-2207381Y1957917D01*
X-2328334Y2018393D01*
X-2509762Y2018393D01*
X-2630715Y1957917D01*
X-2691191Y1836965D01*
X-2691191Y1171727D01*
X-4928810Y2381250D02*
X-4807858Y2441727D01*
X-4626429Y2441727D01*
X-4445000Y2381250D01*
X-4324048Y2260298D01*
X-4263572Y2139346D01*
X-4203096Y1897441D01*
X-4203096Y1716012D01*
X-4263572Y1474108D01*
X-4324048Y1353155D01*
X-4445000Y1232203D01*
X-4626429Y1171727D01*
X-4747381Y1171727D01*
X-4928810Y1232203D01*
X-4989286Y1292679D01*
X-4989286Y1716012D01*
X-4747381Y1716012D01*
X-5715000Y1171727D02*
X-5594048Y1232203D01*
X-5533572Y1292679D01*
X-5473096Y1413631D01*
X-5473096Y1776489D01*
X-5533572Y1897441D01*
X-5594048Y1957917D01*
X-5715000Y2018393D01*
X-5896429Y2018393D01*
X-6017381Y1957917D01*
X-6077858Y1897441D01*
X-6138334Y1776489D01*
X-6138334Y1413631D01*
X-6077858Y1292679D01*
X-6017381Y1232203D01*
X-5896429Y1171727D01*
X-5715000Y1171727D01*
X-6561667Y2018393D02*
X-6864048Y1171727D01*
X-7166429Y2018393D01*
X846666Y219227D02*
X846666Y-687916D01*
X907142Y-869345D01*
X1028095Y-990297D01*
X1209523Y-1050773D01*
X1330476Y-1050773D01*
X-302381Y-1050773D02*
X-302381Y-385535D01*
X-241905Y-264583D01*
X-120953Y-204107D01*
X120952Y-204107D01*
X241904Y-264583D01*
X-302381Y-990297D02*
X-181429Y-1050773D01*
X120952Y-1050773D01*
X241904Y-990297D01*
X302380Y-869345D01*
X302380Y-748392D01*
X241904Y-627440D01*
X120952Y-566964D01*
X-181429Y-566964D01*
X-302381Y-506488D01*
X-907143Y-204107D02*
X-907143Y-1050773D01*
X-907143Y-325059D02*
X-967620Y-264583D01*
X-1088572Y-204107D01*
X-1270000Y-204107D01*
X-1390953Y-264583D01*
X-1451429Y-385535D01*
X-1451429Y-1050773D01*
X-2963334Y98274D02*
X-3023810Y158750D01*
X-3144762Y219227D01*
X-3447143Y219227D01*
X-3568096Y158750D01*
X-3628572Y98274D01*
X-3689048Y-22678D01*
X-3689048Y-143630D01*
X-3628572Y-325059D01*
X-2902858Y-1050773D01*
X-3689048Y-1050773D01*
X-4475239Y219227D02*
X-4596191Y219227D01*
X-4717143Y158750D01*
X-4777620Y98274D01*
X-4838096Y-22678D01*
X-4898572Y-264583D01*
X-4898572Y-566964D01*
X-4838096Y-808869D01*
X-4777620Y-929821D01*
X-4717143Y-990297D01*
X-4596191Y-1050773D01*
X-4475239Y-1050773D01*
X-4354286Y-990297D01*
X-4293810Y-929821D01*
X-4233334Y-808869D01*
X-4172858Y-566964D01*
X-4172858Y-264583D01*
X-4233334Y-22678D01*
X-4293810Y98274D01*
X-4354286Y158750D01*
X-4475239Y219227D01*
X-5382381Y98274D02*
X-5442858Y158750D01*
X-5563810Y219227D01*
X-5866191Y219227D01*
X-5987143Y158750D01*
X-6047620Y98274D01*
X-6108096Y-22678D01*
X-6108096Y-143630D01*
X-6047620Y-325059D01*
X-5321905Y-1050773D01*
X-6108096Y-1050773D01*
X-6894286Y219227D02*
X-7015239Y219227D01*
X-7136191Y158750D01*
X-7196667Y98274D01*
X-7257143Y-22678D01*
X-7317620Y-264583D01*
X-7317620Y-566964D01*
X-7257143Y-808869D01*
X-7196667Y-929821D01*
X-7136191Y-990297D01*
X-7015239Y-1050773D01*
X-6894286Y-1050773D01*
X-6773334Y-990297D01*
X-6712858Y-929821D01*
X-6652381Y-808869D01*
X-6591905Y-566964D01*
X-6591905Y-264583D01*
X-6652381Y-22678D01*
X-6712858Y98274D01*
X-6773334Y158750D01*
X-6894286Y219227D01*
X10492619Y-2509761D02*
X10492619Y-3114523D01*
X10915952Y-1844523D02*
X10492619Y-2509761D01*
X10069285Y-1844523D01*
X8738809Y-1784047D02*
X9827380Y-3416904D01*
X8436428Y-1844523D02*
X7589761Y-1844523D01*
X8436428Y-3114523D01*
X7589761Y-3114523D01*
X7105952Y-2630714D02*
X6138333Y-2630714D01*
X5594047Y-2751666D02*
X4989285Y-2751666D01*
X5715000Y-3114523D02*
X5291666Y-1844523D01*
X4868333Y-3114523D01*
X4565952Y-3114523D02*
X3900714Y-2267857D01*
X4565952Y-2267857D02*
X3900714Y-3114523D01*
X3416904Y-3114523D02*
X3416904Y-2267857D01*
X3416904Y-1844523D02*
X3477380Y-1905000D01*
X3416904Y-1965476D01*
X3356428Y-1905000D01*
X3416904Y-1844523D01*
X3416904Y-1965476D01*
X2872619Y-3054047D02*
X2751666Y-3114523D01*
X2509761Y-3114523D01*
X2388809Y-3054047D01*
X2328333Y-2933095D01*
X2328333Y-2872619D01*
X2388809Y-2751666D01*
X2509761Y-2691190D01*
X2691190Y-2691190D01*
X2812142Y-2630714D01*
X2872619Y-2509761D01*
X2872619Y-2449285D01*
X2812142Y-2328333D01*
X2691190Y-2267857D01*
X2509761Y-2267857D01*
X2388809Y-2328333D01*
X393095Y-2449285D02*
X211666Y-2509761D01*
X151190Y-2570238D01*
X90714Y-2691190D01*
X90714Y-2872619D01*
X151190Y-2993571D01*
X211666Y-3054047D01*
X332619Y-3114523D01*
X816428Y-3114523D01*
X816428Y-1844523D01*
X393095Y-1844523D01*
X272142Y-1905000D01*
X211666Y-1965476D01*
X151190Y-2086428D01*
X151190Y-2207380D01*
X211666Y-2328333D01*
X272142Y-2388809D01*
X393095Y-2449285D01*
X816428Y-2449285D01*
X-453572Y-3114523D02*
X-453572Y-2267857D01*
X-453572Y-2509761D02*
X-514048Y-2388809D01*
X-574524Y-2328333D01*
X-695477Y-2267857D01*
X-816429Y-2267857D01*
X-1723572Y-3054047D02*
X-1602620Y-3114523D01*
X-1360715Y-3114523D01*
X-1239762Y-3054047D01*
X-1179286Y-2933095D01*
X-1179286Y-2449285D01*
X-1239762Y-2328333D01*
X-1360715Y-2267857D01*
X-1602620Y-2267857D01*
X-1723572Y-2328333D01*
X-1784048Y-2449285D01*
X-1784048Y-2570238D01*
X-1179286Y-2691190D01*
X-2872620Y-3114523D02*
X-2872620Y-2449285D01*
X-2812143Y-2328333D01*
X-2691191Y-2267857D01*
X-2449286Y-2267857D01*
X-2328334Y-2328333D01*
X-2872620Y-3054047D02*
X-2751667Y-3114523D01*
X-2449286Y-3114523D01*
X-2328334Y-3054047D01*
X-2267858Y-2933095D01*
X-2267858Y-2812142D01*
X-2328334Y-2691190D01*
X-2449286Y-2630714D01*
X-2751667Y-2630714D01*
X-2872620Y-2570238D01*
X-3477381Y-3114523D02*
X-3477381Y-1844523D01*
X-3598334Y-2630714D02*
X-3961191Y-3114523D01*
X-3961191Y-2267857D02*
X-3477381Y-2751666D01*
X-4686905Y-3114523D02*
X-4565953Y-3054047D01*
X-4505477Y-2993571D01*
X-4445000Y-2872619D01*
X-4445000Y-2509761D01*
X-4505477Y-2388809D01*
X-4565953Y-2328333D01*
X-4686905Y-2267857D01*
X-4868334Y-2267857D01*
X-4989286Y-2328333D01*
X-5049762Y-2388809D01*
X-5110239Y-2509761D01*
X-5110239Y-2872619D01*
X-5049762Y-2993571D01*
X-4989286Y-3054047D01*
X-4868334Y-3114523D01*
X-4686905Y-3114523D01*
X-6198810Y-2267857D02*
X-6198810Y-3114523D01*
X-5654524Y-2267857D02*
X-5654524Y-2933095D01*
X-5715000Y-3054047D01*
X-5835953Y-3114523D01*
X-6017381Y-3114523D01*
X-6138334Y-3054047D01*
X-6198810Y-2993571D01*
X-6622143Y-2267857D02*
X-7105953Y-2267857D01*
X-6803572Y-1844523D02*
X-6803572Y-2933095D01*
X-6864048Y-3054047D01*
X-6985000Y-3114523D01*
X-7105953Y-3114523D01*
%LPC*%
D12*
X10160000Y-8890000D03*
D13*
G36*
X10971828Y-5490476D02*
G01*
X10997546Y-5494291D01*
X11022767Y-5500608D01*
X11047248Y-5509367D01*
X11070751Y-5520484D01*
X11093052Y-5533851D01*
X11113936Y-5549339D01*
X11133201Y-5566799D01*
X11150661Y-5586064D01*
X11166149Y-5606948D01*
X11179516Y-5629249D01*
X11190633Y-5652752D01*
X11199392Y-5677233D01*
X11205709Y-5702454D01*
X11209524Y-5728172D01*
X11210800Y-5754141D01*
X11210800Y-7025859D01*
X11209524Y-7051828D01*
X11205709Y-7077546D01*
X11199392Y-7102767D01*
X11190633Y-7127248D01*
X11179516Y-7150751D01*
X11166149Y-7173052D01*
X11150661Y-7193936D01*
X11133201Y-7213201D01*
X11113936Y-7230661D01*
X11093052Y-7246149D01*
X11070751Y-7259516D01*
X11047248Y-7270633D01*
X11022767Y-7279392D01*
X10997546Y-7285709D01*
X10971828Y-7289524D01*
X10945859Y-7290800D01*
X9374141Y-7290800D01*
X9348172Y-7289524D01*
X9322454Y-7285709D01*
X9297233Y-7279392D01*
X9272752Y-7270633D01*
X9249249Y-7259516D01*
X9226948Y-7246149D01*
X9206064Y-7230661D01*
X9186799Y-7213201D01*
X9169339Y-7193936D01*
X9153851Y-7173052D01*
X9140484Y-7150751D01*
X9129367Y-7127248D01*
X9120608Y-7102767D01*
X9114291Y-7077546D01*
X9110476Y-7051828D01*
X9109200Y-7025859D01*
X9109200Y-5754141D01*
X9110476Y-5728172D01*
X9114291Y-5702454D01*
X9120608Y-5677233D01*
X9129367Y-5652752D01*
X9140484Y-5629249D01*
X9153851Y-5606948D01*
X9169339Y-5586064D01*
X9186799Y-5566799D01*
X9206064Y-5549339D01*
X9226948Y-5533851D01*
X9249249Y-5520484D01*
X9272752Y-5509367D01*
X9297233Y-5500608D01*
X9322454Y-5494291D01*
X9348172Y-5490476D01*
X9374141Y-5489200D01*
X10945859Y-5489200D01*
X10971828Y-5490476D01*
X10971828Y-5490476D01*
G37*
D14*
X10160000Y-6390000D03*
D15*
X10160000Y1390000D03*
X10160000Y3890000D03*
X10160000Y6390000D03*
D13*
G36*
X10946828Y9789524D02*
G01*
X10972546Y9785709D01*
X10997767Y9779392D01*
X11022248Y9770633D01*
X11045751Y9759516D01*
X11068052Y9746149D01*
X11088936Y9730661D01*
X11108201Y9713201D01*
X11125661Y9693936D01*
X11141149Y9673052D01*
X11154516Y9650751D01*
X11165633Y9627248D01*
X11174392Y9602767D01*
X11180709Y9577546D01*
X11184524Y9551828D01*
X11185800Y9525859D01*
X11185800Y8254141D01*
X11184524Y8228172D01*
X11180709Y8202454D01*
X11174392Y8177233D01*
X11165633Y8152752D01*
X11154516Y8129249D01*
X11141149Y8106948D01*
X11125661Y8086064D01*
X11108201Y8066799D01*
X11088936Y8049339D01*
X11068052Y8033851D01*
X11045751Y8020484D01*
X11022248Y8009367D01*
X10997767Y8000608D01*
X10972546Y7994291D01*
X10946828Y7990476D01*
X10920859Y7989200D01*
X9399141Y7989200D01*
X9373172Y7990476D01*
X9347454Y7994291D01*
X9322233Y8000608D01*
X9297752Y8009367D01*
X9274249Y8020484D01*
X9251948Y8033851D01*
X9231064Y8049339D01*
X9211799Y8066799D01*
X9194339Y8086064D01*
X9178851Y8106948D01*
X9165484Y8129249D01*
X9154367Y8152752D01*
X9145608Y8177233D01*
X9139291Y8202454D01*
X9135476Y8228172D01*
X9134200Y8254141D01*
X9134200Y9525859D01*
X9135476Y9551828D01*
X9139291Y9577546D01*
X9145608Y9602767D01*
X9154367Y9627248D01*
X9165484Y9650751D01*
X9178851Y9673052D01*
X9194339Y9693936D01*
X9211799Y9713201D01*
X9231064Y9730661D01*
X9251948Y9746149D01*
X9274249Y9759516D01*
X9297752Y9770633D01*
X9322233Y9779392D01*
X9347454Y9785709D01*
X9373172Y9789524D01*
X9399141Y9790800D01*
X10920859Y9790800D01*
X10946828Y9789524D01*
X10946828Y9789524D01*
G37*
D14*
X10160000Y8890000D03*
D16*
X-10160000Y-2540000D03*
X-12700000Y-2540000D03*
X-10160000Y0D03*
X-12700000Y0D03*
X-10160000Y2540000D03*
D17*
X-12700000Y2540000D03*
D18*
X0Y10000000D03*
X0Y-10000000D03*
M02*
