G04 #@! TF.GenerationSoftware,KiCad,Pcbnew,(5.1.4)-1*
G04 #@! TF.CreationDate,2020-03-27T04:02:31-04:00*
G04 #@! TF.ProjectId,stepUP_lcd,73746570-5550-45f6-9c63-642e6b696361,rev?*
G04 #@! TF.SameCoordinates,Original*
G04 #@! TF.FileFunction,Soldermask,Bot*
G04 #@! TF.FilePolarity,Negative*
%FSLAX46Y46*%
G04 Gerber Fmt 4.6, Leading zero omitted, Abs format (unit mm)*
G04 Created by KiCad (PCBNEW (5.1.4)-1) date 2020-03-27 04:02:31*
%MOMM*%
%LPD*%
G04 APERTURE LIST*
%ADD10C,0.100000*%
G04 APERTURE END LIST*
D10*
G36*
X84966228Y-112786091D02*
G01*
X85310829Y-112854636D01*
X86284649Y-113258005D01*
X87161064Y-113843607D01*
X87906393Y-114588936D01*
X88491995Y-115465351D01*
X88895364Y-116439171D01*
X89101000Y-117472973D01*
X89101000Y-118527027D01*
X88895364Y-119560829D01*
X88491995Y-120534649D01*
X87906393Y-121411064D01*
X87161064Y-122156393D01*
X86284649Y-122741995D01*
X85310829Y-123145364D01*
X84966228Y-123213909D01*
X84277029Y-123351000D01*
X83222971Y-123351000D01*
X82533772Y-123213909D01*
X82189171Y-123145364D01*
X81215351Y-122741995D01*
X80338936Y-122156393D01*
X79593607Y-121411064D01*
X79008005Y-120534649D01*
X78604636Y-119560829D01*
X78399000Y-118527027D01*
X78399000Y-117472973D01*
X78604636Y-116439171D01*
X79008005Y-115465351D01*
X79593607Y-114588936D01*
X80338936Y-113843607D01*
X81215351Y-113258005D01*
X82189171Y-112854636D01*
X82533772Y-112786091D01*
X83222971Y-112649000D01*
X84277029Y-112649000D01*
X84966228Y-112786091D01*
X84966228Y-112786091D01*
G37*
G36*
X146216228Y-112786091D02*
G01*
X146560829Y-112854636D01*
X147534649Y-113258005D01*
X148411064Y-113843607D01*
X149156393Y-114588936D01*
X149741995Y-115465351D01*
X150145364Y-116439171D01*
X150351000Y-117472973D01*
X150351000Y-118527027D01*
X150145364Y-119560829D01*
X149741995Y-120534649D01*
X149156393Y-121411064D01*
X148411064Y-122156393D01*
X147534649Y-122741995D01*
X146560829Y-123145364D01*
X146216228Y-123213909D01*
X145527029Y-123351000D01*
X144472971Y-123351000D01*
X143783772Y-123213909D01*
X143439171Y-123145364D01*
X142465351Y-122741995D01*
X141588936Y-122156393D01*
X140843607Y-121411064D01*
X140258005Y-120534649D01*
X139854636Y-119560829D01*
X139649000Y-118527027D01*
X139649000Y-117472973D01*
X139854636Y-116439171D01*
X140258005Y-115465351D01*
X140843607Y-114588936D01*
X141588936Y-113843607D01*
X142465351Y-113258005D01*
X143439171Y-112854636D01*
X143783772Y-112786091D01*
X144472971Y-112649000D01*
X145527029Y-112649000D01*
X146216228Y-112786091D01*
X146216228Y-112786091D01*
G37*
G36*
X207466228Y-112786091D02*
G01*
X207810829Y-112854636D01*
X208784649Y-113258005D01*
X209661064Y-113843607D01*
X210406393Y-114588936D01*
X210991995Y-115465351D01*
X211395364Y-116439171D01*
X211601000Y-117472973D01*
X211601000Y-118527027D01*
X211395364Y-119560829D01*
X210991995Y-120534649D01*
X210406393Y-121411064D01*
X209661064Y-122156393D01*
X208784649Y-122741995D01*
X207810829Y-123145364D01*
X207466228Y-123213909D01*
X206777029Y-123351000D01*
X205722971Y-123351000D01*
X205033772Y-123213909D01*
X204689171Y-123145364D01*
X203715351Y-122741995D01*
X202838936Y-122156393D01*
X202093607Y-121411064D01*
X201508005Y-120534649D01*
X201104636Y-119560829D01*
X200899000Y-118527027D01*
X200899000Y-117472973D01*
X201104636Y-116439171D01*
X201508005Y-115465351D01*
X202093607Y-114588936D01*
X202838936Y-113843607D01*
X203715351Y-113258005D01*
X204689171Y-112854636D01*
X205033772Y-112786091D01*
X205722971Y-112649000D01*
X206777029Y-112649000D01*
X207466228Y-112786091D01*
X207466228Y-112786091D01*
G37*
G36*
X221884239Y-99811467D02*
G01*
X222198282Y-99873934D01*
X222789926Y-100119001D01*
X223216477Y-100404014D01*
X223322391Y-100474783D01*
X223775217Y-100927609D01*
X223845986Y-101033523D01*
X224130999Y-101460074D01*
X224376066Y-102051718D01*
X224501000Y-102679804D01*
X224501000Y-103320196D01*
X224376066Y-103948282D01*
X224130999Y-104539926D01*
X223845986Y-104966477D01*
X223806738Y-105025217D01*
X223775216Y-105072392D01*
X223322392Y-105525216D01*
X222789926Y-105880999D01*
X222198282Y-106126066D01*
X221884239Y-106188533D01*
X221570197Y-106251000D01*
X220929803Y-106251000D01*
X220615761Y-106188533D01*
X220301718Y-106126066D01*
X219710074Y-105880999D01*
X219177608Y-105525216D01*
X218724784Y-105072392D01*
X218693263Y-105025217D01*
X218654014Y-104966477D01*
X218369001Y-104539926D01*
X218123934Y-103948282D01*
X217999000Y-103320196D01*
X217999000Y-102679804D01*
X218123934Y-102051718D01*
X218369001Y-101460074D01*
X218654014Y-101033523D01*
X218724783Y-100927609D01*
X219177609Y-100474783D01*
X219283523Y-100404014D01*
X219710074Y-100119001D01*
X220301718Y-99873934D01*
X220615761Y-99811467D01*
X220929803Y-99749000D01*
X221570197Y-99749000D01*
X221884239Y-99811467D01*
X221884239Y-99811467D01*
G37*
G36*
X69384239Y-99811467D02*
G01*
X69698282Y-99873934D01*
X70289926Y-100119001D01*
X70716477Y-100404014D01*
X70822391Y-100474783D01*
X71275217Y-100927609D01*
X71345986Y-101033523D01*
X71630999Y-101460074D01*
X71876066Y-102051718D01*
X72001000Y-102679804D01*
X72001000Y-103320196D01*
X71876066Y-103948282D01*
X71630999Y-104539926D01*
X71345986Y-104966477D01*
X71306738Y-105025217D01*
X71275216Y-105072392D01*
X70822392Y-105525216D01*
X70289926Y-105880999D01*
X69698282Y-106126066D01*
X69384239Y-106188533D01*
X69070197Y-106251000D01*
X68429803Y-106251000D01*
X68115761Y-106188533D01*
X67801718Y-106126066D01*
X67210074Y-105880999D01*
X66677608Y-105525216D01*
X66224784Y-105072392D01*
X66193263Y-105025217D01*
X66154014Y-104966477D01*
X65869001Y-104539926D01*
X65623934Y-103948282D01*
X65499000Y-103320196D01*
X65499000Y-102679804D01*
X65623934Y-102051718D01*
X65869001Y-101460074D01*
X66154014Y-101033523D01*
X66224783Y-100927609D01*
X66677609Y-100474783D01*
X66783523Y-100404014D01*
X67210074Y-100119001D01*
X67801718Y-99873934D01*
X68115761Y-99811467D01*
X68429803Y-99749000D01*
X69070197Y-99749000D01*
X69384239Y-99811467D01*
X69384239Y-99811467D01*
G37*
G36*
X77709494Y-99276708D02*
G01*
X78198282Y-99373934D01*
X78789926Y-99619001D01*
X79216477Y-99904014D01*
X79322391Y-99974783D01*
X79775217Y-100427609D01*
X79806738Y-100474784D01*
X80130999Y-100960074D01*
X80376066Y-101551718D01*
X80501000Y-102179804D01*
X80501000Y-102820196D01*
X80376066Y-103448282D01*
X80130999Y-104039926D01*
X79845986Y-104466477D01*
X79796911Y-104539924D01*
X79775216Y-104572392D01*
X79322392Y-105025216D01*
X78789926Y-105380999D01*
X78198282Y-105626066D01*
X77884239Y-105688533D01*
X77570197Y-105751000D01*
X76929803Y-105751000D01*
X76615761Y-105688533D01*
X76301718Y-105626066D01*
X75710074Y-105380999D01*
X75177608Y-105025216D01*
X74724784Y-104572392D01*
X74703090Y-104539924D01*
X74654014Y-104466477D01*
X74369001Y-104039926D01*
X74123934Y-103448282D01*
X73999000Y-102820196D01*
X73999000Y-102179804D01*
X74123934Y-101551718D01*
X74369001Y-100960074D01*
X74693262Y-100474784D01*
X74724783Y-100427609D01*
X75177609Y-99974783D01*
X75283523Y-99904014D01*
X75710074Y-99619001D01*
X76301718Y-99373934D01*
X76790506Y-99276708D01*
X76929803Y-99249000D01*
X77570197Y-99249000D01*
X77709494Y-99276708D01*
X77709494Y-99276708D01*
G37*
G36*
X170709494Y-99276708D02*
G01*
X171198282Y-99373934D01*
X171789926Y-99619001D01*
X172216477Y-99904014D01*
X172322391Y-99974783D01*
X172775217Y-100427609D01*
X172806738Y-100474784D01*
X173130999Y-100960074D01*
X173376066Y-101551718D01*
X173501000Y-102179804D01*
X173501000Y-102820196D01*
X173376066Y-103448282D01*
X173130999Y-104039926D01*
X172845986Y-104466477D01*
X172796911Y-104539924D01*
X172775216Y-104572392D01*
X172322392Y-105025216D01*
X171789926Y-105380999D01*
X171198282Y-105626066D01*
X170884239Y-105688533D01*
X170570197Y-105751000D01*
X169929803Y-105751000D01*
X169615761Y-105688533D01*
X169301718Y-105626066D01*
X168710074Y-105380999D01*
X168177608Y-105025216D01*
X167724784Y-104572392D01*
X167703090Y-104539924D01*
X167654014Y-104466477D01*
X167369001Y-104039926D01*
X167123934Y-103448282D01*
X166999000Y-102820196D01*
X166999000Y-102179804D01*
X167123934Y-101551718D01*
X167369001Y-100960074D01*
X167693262Y-100474784D01*
X167724783Y-100427609D01*
X168177609Y-99974783D01*
X168283523Y-99904014D01*
X168710074Y-99619001D01*
X169301718Y-99373934D01*
X169790506Y-99276708D01*
X169929803Y-99249000D01*
X170570197Y-99249000D01*
X170709494Y-99276708D01*
X170709494Y-99276708D01*
G37*
G36*
X205731000Y-103161000D02*
G01*
X204429000Y-103161000D01*
X204429000Y-98309000D01*
X205731000Y-98309000D01*
X205731000Y-103161000D01*
X205731000Y-103161000D01*
G37*
G36*
X198111000Y-103161000D02*
G01*
X196809000Y-103161000D01*
X196809000Y-98309000D01*
X198111000Y-98309000D01*
X198111000Y-103161000D01*
X198111000Y-103161000D01*
G37*
G36*
X195571000Y-103161000D02*
G01*
X194269000Y-103161000D01*
X194269000Y-98309000D01*
X195571000Y-98309000D01*
X195571000Y-103161000D01*
X195571000Y-103161000D01*
G37*
G36*
X203191000Y-103161000D02*
G01*
X201889000Y-103161000D01*
X201889000Y-98309000D01*
X203191000Y-98309000D01*
X203191000Y-103161000D01*
X203191000Y-103161000D01*
G37*
G36*
X200651000Y-103161000D02*
G01*
X199349000Y-103161000D01*
X199349000Y-98309000D01*
X200651000Y-98309000D01*
X200651000Y-103161000D01*
X200651000Y-103161000D01*
G37*
G36*
X54966228Y-90286091D02*
G01*
X55310829Y-90354636D01*
X56284649Y-90758005D01*
X57161064Y-91343607D01*
X57906393Y-92088936D01*
X58491995Y-92965351D01*
X58895364Y-93939171D01*
X58895364Y-93939172D01*
X59101000Y-94972971D01*
X59101000Y-96027029D01*
X59007229Y-96498446D01*
X58895364Y-97060829D01*
X58491995Y-98034649D01*
X57906393Y-98911064D01*
X57161064Y-99656393D01*
X56284649Y-100241995D01*
X55310829Y-100645364D01*
X54966228Y-100713909D01*
X54277029Y-100851000D01*
X53222971Y-100851000D01*
X52533772Y-100713909D01*
X52189171Y-100645364D01*
X51215351Y-100241995D01*
X50338936Y-99656393D01*
X49593607Y-98911064D01*
X49008005Y-98034649D01*
X48604636Y-97060829D01*
X48492771Y-96498446D01*
X48399000Y-96027029D01*
X48399000Y-94972971D01*
X48604636Y-93939172D01*
X48604636Y-93939171D01*
X49008005Y-92965351D01*
X49593607Y-92088936D01*
X50338936Y-91343607D01*
X51215351Y-90758005D01*
X52189171Y-90354636D01*
X52533772Y-90286091D01*
X53222971Y-90149000D01*
X54277029Y-90149000D01*
X54966228Y-90286091D01*
X54966228Y-90286091D01*
G37*
G36*
X186394499Y-98163445D02*
G01*
X186431995Y-98174820D01*
X186466554Y-98193292D01*
X186496847Y-98218153D01*
X186521708Y-98248446D01*
X186540180Y-98283005D01*
X186551555Y-98320501D01*
X186556000Y-98365638D01*
X186556000Y-99104362D01*
X186551555Y-99149499D01*
X186540180Y-99186995D01*
X186521708Y-99221554D01*
X186496847Y-99251847D01*
X186466554Y-99276708D01*
X186431995Y-99295180D01*
X186394499Y-99306555D01*
X186349362Y-99311000D01*
X185710638Y-99311000D01*
X185665501Y-99306555D01*
X185628005Y-99295180D01*
X185593446Y-99276708D01*
X185563153Y-99251847D01*
X185538292Y-99221554D01*
X185519820Y-99186995D01*
X185508445Y-99149499D01*
X185504000Y-99104362D01*
X185504000Y-98365638D01*
X185508445Y-98320501D01*
X185519820Y-98283005D01*
X185538292Y-98248446D01*
X185563153Y-98218153D01*
X185593446Y-98193292D01*
X185628005Y-98174820D01*
X185665501Y-98163445D01*
X185710638Y-98159000D01*
X186349362Y-98159000D01*
X186394499Y-98163445D01*
X186394499Y-98163445D01*
G37*
G36*
X188299499Y-98163445D02*
G01*
X188336995Y-98174820D01*
X188371554Y-98193292D01*
X188401847Y-98218153D01*
X188426708Y-98248446D01*
X188445180Y-98283005D01*
X188456555Y-98320501D01*
X188461000Y-98365638D01*
X188461000Y-99104362D01*
X188456555Y-99149499D01*
X188445180Y-99186995D01*
X188426708Y-99221554D01*
X188401847Y-99251847D01*
X188371554Y-99276708D01*
X188336995Y-99295180D01*
X188299499Y-99306555D01*
X188254362Y-99311000D01*
X187615638Y-99311000D01*
X187570501Y-99306555D01*
X187533005Y-99295180D01*
X187498446Y-99276708D01*
X187468153Y-99251847D01*
X187443292Y-99221554D01*
X187424820Y-99186995D01*
X187413445Y-99149499D01*
X187409000Y-99104362D01*
X187409000Y-98365638D01*
X187413445Y-98320501D01*
X187424820Y-98283005D01*
X187443292Y-98248446D01*
X187468153Y-98218153D01*
X187498446Y-98193292D01*
X187533005Y-98174820D01*
X187570501Y-98163445D01*
X187615638Y-98159000D01*
X188254362Y-98159000D01*
X188299499Y-98163445D01*
X188299499Y-98163445D01*
G37*
G36*
X184489499Y-98163445D02*
G01*
X184526995Y-98174820D01*
X184561554Y-98193292D01*
X184591847Y-98218153D01*
X184616708Y-98248446D01*
X184635180Y-98283005D01*
X184646555Y-98320501D01*
X184651000Y-98365638D01*
X184651000Y-99104362D01*
X184646555Y-99149499D01*
X184635180Y-99186995D01*
X184616708Y-99221554D01*
X184591847Y-99251847D01*
X184561554Y-99276708D01*
X184526995Y-99295180D01*
X184489499Y-99306555D01*
X184444362Y-99311000D01*
X183805638Y-99311000D01*
X183760501Y-99306555D01*
X183723005Y-99295180D01*
X183688446Y-99276708D01*
X183658153Y-99251847D01*
X183633292Y-99221554D01*
X183614820Y-99186995D01*
X183603445Y-99149499D01*
X183599000Y-99104362D01*
X183599000Y-98365638D01*
X183603445Y-98320501D01*
X183614820Y-98283005D01*
X183633292Y-98248446D01*
X183658153Y-98218153D01*
X183688446Y-98193292D01*
X183723005Y-98174820D01*
X183760501Y-98163445D01*
X183805638Y-98159000D01*
X184444362Y-98159000D01*
X184489499Y-98163445D01*
X184489499Y-98163445D01*
G37*
G36*
X186394499Y-96413445D02*
G01*
X186431995Y-96424820D01*
X186466554Y-96443292D01*
X186496847Y-96468153D01*
X186521708Y-96498446D01*
X186540180Y-96533005D01*
X186551555Y-96570501D01*
X186556000Y-96615638D01*
X186556000Y-97354362D01*
X186551555Y-97399499D01*
X186540180Y-97436995D01*
X186521708Y-97471554D01*
X186496847Y-97501847D01*
X186466554Y-97526708D01*
X186431995Y-97545180D01*
X186394499Y-97556555D01*
X186349362Y-97561000D01*
X185710638Y-97561000D01*
X185665501Y-97556555D01*
X185628005Y-97545180D01*
X185593446Y-97526708D01*
X185563153Y-97501847D01*
X185538292Y-97471554D01*
X185519820Y-97436995D01*
X185508445Y-97399499D01*
X185504000Y-97354362D01*
X185504000Y-96615638D01*
X185508445Y-96570501D01*
X185519820Y-96533005D01*
X185538292Y-96498446D01*
X185563153Y-96468153D01*
X185593446Y-96443292D01*
X185628005Y-96424820D01*
X185665501Y-96413445D01*
X185710638Y-96409000D01*
X186349362Y-96409000D01*
X186394499Y-96413445D01*
X186394499Y-96413445D01*
G37*
G36*
X188299499Y-96413445D02*
G01*
X188336995Y-96424820D01*
X188371554Y-96443292D01*
X188401847Y-96468153D01*
X188426708Y-96498446D01*
X188445180Y-96533005D01*
X188456555Y-96570501D01*
X188461000Y-96615638D01*
X188461000Y-97354362D01*
X188456555Y-97399499D01*
X188445180Y-97436995D01*
X188426708Y-97471554D01*
X188401847Y-97501847D01*
X188371554Y-97526708D01*
X188336995Y-97545180D01*
X188299499Y-97556555D01*
X188254362Y-97561000D01*
X187615638Y-97561000D01*
X187570501Y-97556555D01*
X187533005Y-97545180D01*
X187498446Y-97526708D01*
X187468153Y-97501847D01*
X187443292Y-97471554D01*
X187424820Y-97436995D01*
X187413445Y-97399499D01*
X187409000Y-97354362D01*
X187409000Y-96615638D01*
X187413445Y-96570501D01*
X187424820Y-96533005D01*
X187443292Y-96498446D01*
X187468153Y-96468153D01*
X187498446Y-96443292D01*
X187533005Y-96424820D01*
X187570501Y-96413445D01*
X187615638Y-96409000D01*
X188254362Y-96409000D01*
X188299499Y-96413445D01*
X188299499Y-96413445D01*
G37*
G36*
X184489499Y-96413445D02*
G01*
X184526995Y-96424820D01*
X184561554Y-96443292D01*
X184591847Y-96468153D01*
X184616708Y-96498446D01*
X184635180Y-96533005D01*
X184646555Y-96570501D01*
X184651000Y-96615638D01*
X184651000Y-97354362D01*
X184646555Y-97399499D01*
X184635180Y-97436995D01*
X184616708Y-97471554D01*
X184591847Y-97501847D01*
X184561554Y-97526708D01*
X184526995Y-97545180D01*
X184489499Y-97556555D01*
X184444362Y-97561000D01*
X183805638Y-97561000D01*
X183760501Y-97556555D01*
X183723005Y-97545180D01*
X183688446Y-97526708D01*
X183658153Y-97501847D01*
X183633292Y-97471554D01*
X183614820Y-97436995D01*
X183603445Y-97399499D01*
X183599000Y-97354362D01*
X183599000Y-96615638D01*
X183603445Y-96570501D01*
X183614820Y-96533005D01*
X183633292Y-96498446D01*
X183658153Y-96468153D01*
X183688446Y-96443292D01*
X183723005Y-96424820D01*
X183760501Y-96413445D01*
X183805638Y-96409000D01*
X184444362Y-96409000D01*
X184489499Y-96413445D01*
X184489499Y-96413445D01*
G37*
G36*
X205731000Y-97411000D02*
G01*
X204429000Y-97411000D01*
X204429000Y-92559000D01*
X205731000Y-92559000D01*
X205731000Y-97411000D01*
X205731000Y-97411000D01*
G37*
G36*
X203191000Y-97411000D02*
G01*
X201889000Y-97411000D01*
X201889000Y-92559000D01*
X203191000Y-92559000D01*
X203191000Y-97411000D01*
X203191000Y-97411000D01*
G37*
G36*
X200651000Y-97411000D02*
G01*
X199349000Y-97411000D01*
X199349000Y-92559000D01*
X200651000Y-92559000D01*
X200651000Y-97411000D01*
X200651000Y-97411000D01*
G37*
G36*
X198111000Y-97411000D02*
G01*
X196809000Y-97411000D01*
X196809000Y-92559000D01*
X198111000Y-92559000D01*
X198111000Y-97411000D01*
X198111000Y-97411000D01*
G37*
G36*
X195571000Y-97411000D02*
G01*
X194269000Y-97411000D01*
X194269000Y-92559000D01*
X195571000Y-92559000D01*
X195571000Y-97411000D01*
X195571000Y-97411000D01*
G37*
G36*
X214702928Y-85422764D02*
G01*
X214724009Y-85429160D01*
X214743445Y-85439548D01*
X214760476Y-85453524D01*
X214774452Y-85470555D01*
X214784840Y-85489991D01*
X214791236Y-85511072D01*
X214794000Y-85539140D01*
X214794000Y-86002860D01*
X214791236Y-86030928D01*
X214784840Y-86052009D01*
X214774452Y-86071445D01*
X214760476Y-86088476D01*
X214743445Y-86102452D01*
X214724009Y-86112840D01*
X214702928Y-86119236D01*
X214674860Y-86122000D01*
X212861140Y-86122000D01*
X212833072Y-86119236D01*
X212811991Y-86112840D01*
X212792555Y-86102452D01*
X212775524Y-86088476D01*
X212761548Y-86071445D01*
X212751160Y-86052009D01*
X212744764Y-86030928D01*
X212742000Y-86002860D01*
X212742000Y-85539140D01*
X212744764Y-85511072D01*
X212751160Y-85489991D01*
X212761548Y-85470555D01*
X212775524Y-85453524D01*
X212792555Y-85439548D01*
X212811991Y-85429160D01*
X212833072Y-85422764D01*
X212861140Y-85420000D01*
X214674860Y-85420000D01*
X214702928Y-85422764D01*
X214702928Y-85422764D01*
G37*
G36*
X209752928Y-85422764D02*
G01*
X209774009Y-85429160D01*
X209793445Y-85439548D01*
X209810476Y-85453524D01*
X209824452Y-85470555D01*
X209834840Y-85489991D01*
X209841236Y-85511072D01*
X209844000Y-85539140D01*
X209844000Y-86002860D01*
X209841236Y-86030928D01*
X209834840Y-86052009D01*
X209824452Y-86071445D01*
X209810476Y-86088476D01*
X209793445Y-86102452D01*
X209774009Y-86112840D01*
X209752928Y-86119236D01*
X209724860Y-86122000D01*
X207911140Y-86122000D01*
X207883072Y-86119236D01*
X207861991Y-86112840D01*
X207842555Y-86102452D01*
X207825524Y-86088476D01*
X207811548Y-86071445D01*
X207801160Y-86052009D01*
X207794764Y-86030928D01*
X207792000Y-86002860D01*
X207792000Y-85539140D01*
X207794764Y-85511072D01*
X207801160Y-85489991D01*
X207811548Y-85470555D01*
X207825524Y-85453524D01*
X207842555Y-85439548D01*
X207861991Y-85429160D01*
X207883072Y-85422764D01*
X207911140Y-85420000D01*
X209724860Y-85420000D01*
X209752928Y-85422764D01*
X209752928Y-85422764D01*
G37*
G36*
X216239499Y-84193445D02*
G01*
X216276995Y-84204820D01*
X216311554Y-84223292D01*
X216341847Y-84248153D01*
X216366708Y-84278446D01*
X216385180Y-84313005D01*
X216396555Y-84350501D01*
X216401000Y-84395638D01*
X216401000Y-85134362D01*
X216396555Y-85179499D01*
X216385180Y-85216995D01*
X216366708Y-85251554D01*
X216341847Y-85281847D01*
X216311554Y-85306708D01*
X216276995Y-85325180D01*
X216239499Y-85336555D01*
X216194362Y-85341000D01*
X215555638Y-85341000D01*
X215510501Y-85336555D01*
X215473005Y-85325180D01*
X215438446Y-85306708D01*
X215408153Y-85281847D01*
X215383292Y-85251554D01*
X215364820Y-85216995D01*
X215353445Y-85179499D01*
X215349000Y-85134362D01*
X215349000Y-84395638D01*
X215353445Y-84350501D01*
X215364820Y-84313005D01*
X215383292Y-84278446D01*
X215408153Y-84248153D01*
X215438446Y-84223292D01*
X215473005Y-84204820D01*
X215510501Y-84193445D01*
X215555638Y-84189000D01*
X216194362Y-84189000D01*
X216239499Y-84193445D01*
X216239499Y-84193445D01*
G37*
G36*
X206714499Y-84193445D02*
G01*
X206751995Y-84204820D01*
X206786554Y-84223292D01*
X206816847Y-84248153D01*
X206841708Y-84278446D01*
X206860180Y-84313005D01*
X206871555Y-84350501D01*
X206876000Y-84395638D01*
X206876000Y-85134362D01*
X206871555Y-85179499D01*
X206860180Y-85216995D01*
X206841708Y-85251554D01*
X206816847Y-85281847D01*
X206786554Y-85306708D01*
X206751995Y-85325180D01*
X206714499Y-85336555D01*
X206669362Y-85341000D01*
X206030638Y-85341000D01*
X205985501Y-85336555D01*
X205948005Y-85325180D01*
X205913446Y-85306708D01*
X205883153Y-85281847D01*
X205858292Y-85251554D01*
X205839820Y-85216995D01*
X205828445Y-85179499D01*
X205824000Y-85134362D01*
X205824000Y-84395638D01*
X205828445Y-84350501D01*
X205839820Y-84313005D01*
X205858292Y-84278446D01*
X205883153Y-84248153D01*
X205913446Y-84223292D01*
X205948005Y-84204820D01*
X205985501Y-84193445D01*
X206030638Y-84189000D01*
X206669362Y-84189000D01*
X206714499Y-84193445D01*
X206714499Y-84193445D01*
G37*
G36*
X218144499Y-84193445D02*
G01*
X218181995Y-84204820D01*
X218216554Y-84223292D01*
X218246847Y-84248153D01*
X218271708Y-84278446D01*
X218290180Y-84313005D01*
X218301555Y-84350501D01*
X218306000Y-84395638D01*
X218306000Y-85134362D01*
X218301555Y-85179499D01*
X218290180Y-85216995D01*
X218271708Y-85251554D01*
X218246847Y-85281847D01*
X218216554Y-85306708D01*
X218181995Y-85325180D01*
X218144499Y-85336555D01*
X218099362Y-85341000D01*
X217460638Y-85341000D01*
X217415501Y-85336555D01*
X217378005Y-85325180D01*
X217343446Y-85306708D01*
X217313153Y-85281847D01*
X217288292Y-85251554D01*
X217269820Y-85216995D01*
X217258445Y-85179499D01*
X217254000Y-85134362D01*
X217254000Y-84395638D01*
X217258445Y-84350501D01*
X217269820Y-84313005D01*
X217288292Y-84278446D01*
X217313153Y-84248153D01*
X217343446Y-84223292D01*
X217378005Y-84204820D01*
X217415501Y-84193445D01*
X217460638Y-84189000D01*
X218099362Y-84189000D01*
X218144499Y-84193445D01*
X218144499Y-84193445D01*
G37*
G36*
X209752928Y-84152764D02*
G01*
X209774009Y-84159160D01*
X209793445Y-84169548D01*
X209810476Y-84183524D01*
X209824452Y-84200555D01*
X209834840Y-84219991D01*
X209841236Y-84241072D01*
X209844000Y-84269140D01*
X209844000Y-84732860D01*
X209841236Y-84760928D01*
X209834840Y-84782009D01*
X209824452Y-84801445D01*
X209810476Y-84818476D01*
X209793445Y-84832452D01*
X209774009Y-84842840D01*
X209752928Y-84849236D01*
X209724860Y-84852000D01*
X207911140Y-84852000D01*
X207883072Y-84849236D01*
X207861991Y-84842840D01*
X207842555Y-84832452D01*
X207825524Y-84818476D01*
X207811548Y-84801445D01*
X207801160Y-84782009D01*
X207794764Y-84760928D01*
X207792000Y-84732860D01*
X207792000Y-84269140D01*
X207794764Y-84241072D01*
X207801160Y-84219991D01*
X207811548Y-84200555D01*
X207825524Y-84183524D01*
X207842555Y-84169548D01*
X207861991Y-84159160D01*
X207883072Y-84152764D01*
X207911140Y-84150000D01*
X209724860Y-84150000D01*
X209752928Y-84152764D01*
X209752928Y-84152764D01*
G37*
G36*
X214702928Y-84152764D02*
G01*
X214724009Y-84159160D01*
X214743445Y-84169548D01*
X214760476Y-84183524D01*
X214774452Y-84200555D01*
X214784840Y-84219991D01*
X214791236Y-84241072D01*
X214794000Y-84269140D01*
X214794000Y-84732860D01*
X214791236Y-84760928D01*
X214784840Y-84782009D01*
X214774452Y-84801445D01*
X214760476Y-84818476D01*
X214743445Y-84832452D01*
X214724009Y-84842840D01*
X214702928Y-84849236D01*
X214674860Y-84852000D01*
X212861140Y-84852000D01*
X212833072Y-84849236D01*
X212811991Y-84842840D01*
X212792555Y-84832452D01*
X212775524Y-84818476D01*
X212761548Y-84801445D01*
X212751160Y-84782009D01*
X212744764Y-84760928D01*
X212742000Y-84732860D01*
X212742000Y-84269140D01*
X212744764Y-84241072D01*
X212751160Y-84219991D01*
X212761548Y-84200555D01*
X212775524Y-84183524D01*
X212792555Y-84169548D01*
X212811991Y-84159160D01*
X212833072Y-84152764D01*
X212861140Y-84150000D01*
X214674860Y-84150000D01*
X214702928Y-84152764D01*
X214702928Y-84152764D01*
G37*
G36*
X71916424Y-81382760D02*
G01*
X71916427Y-81382761D01*
X71916428Y-81382761D01*
X72095692Y-81437140D01*
X72095695Y-81437142D01*
X72095696Y-81437142D01*
X72260903Y-81525446D01*
X72405712Y-81644288D01*
X72524552Y-81789095D01*
X72533421Y-81805688D01*
X72547035Y-81826063D01*
X72564362Y-81843390D01*
X72584736Y-81857004D01*
X72607375Y-81866381D01*
X72631408Y-81871162D01*
X72655912Y-81871162D01*
X72679945Y-81866382D01*
X72702584Y-81857005D01*
X72722959Y-81843391D01*
X72740286Y-81826064D01*
X72753900Y-81805690D01*
X72763276Y-81783054D01*
X72764864Y-81777820D01*
X72777321Y-81754514D01*
X72794086Y-81734086D01*
X72814514Y-81717321D01*
X72837817Y-81704865D01*
X72863104Y-81697194D01*
X72895538Y-81694000D01*
X73664462Y-81694000D01*
X73696896Y-81697194D01*
X73722183Y-81704865D01*
X73745486Y-81717321D01*
X73765914Y-81734086D01*
X73782679Y-81754514D01*
X73795135Y-81777817D01*
X73802806Y-81803104D01*
X73806000Y-81835538D01*
X73806000Y-83404462D01*
X73802806Y-83436896D01*
X73795135Y-83462183D01*
X73782679Y-83485486D01*
X73765914Y-83505914D01*
X73745486Y-83522679D01*
X73722183Y-83535135D01*
X73696896Y-83542806D01*
X73664462Y-83546000D01*
X72895538Y-83546000D01*
X72863104Y-83542806D01*
X72837817Y-83535135D01*
X72814514Y-83522679D01*
X72794086Y-83505914D01*
X72777321Y-83485486D01*
X72764864Y-83462180D01*
X72763276Y-83456946D01*
X72753899Y-83434308D01*
X72740284Y-83413934D01*
X72722957Y-83396607D01*
X72702582Y-83382994D01*
X72679943Y-83373617D01*
X72655909Y-83368838D01*
X72631405Y-83368838D01*
X72607372Y-83373620D01*
X72584734Y-83382997D01*
X72564360Y-83396612D01*
X72547033Y-83413939D01*
X72533421Y-83434312D01*
X72524552Y-83450905D01*
X72405712Y-83595712D01*
X72260903Y-83714554D01*
X72095697Y-83802858D01*
X72095693Y-83802860D01*
X71916429Y-83857239D01*
X71916428Y-83857239D01*
X71916425Y-83857240D01*
X71730000Y-83875601D01*
X71543576Y-83857240D01*
X71543573Y-83857239D01*
X71543572Y-83857239D01*
X71364308Y-83802860D01*
X71364304Y-83802858D01*
X71199098Y-83714554D01*
X71054289Y-83595712D01*
X70935448Y-83450904D01*
X70926578Y-83434309D01*
X70912964Y-83413935D01*
X70895637Y-83396608D01*
X70875263Y-83382994D01*
X70852624Y-83373617D01*
X70828591Y-83368837D01*
X70804086Y-83368837D01*
X70780053Y-83373618D01*
X70757414Y-83382995D01*
X70737040Y-83396609D01*
X70719713Y-83413936D01*
X70706099Y-83434310D01*
X70696723Y-83456947D01*
X70695135Y-83462183D01*
X70682679Y-83485486D01*
X70665914Y-83505914D01*
X70645486Y-83522679D01*
X70622183Y-83535135D01*
X70596896Y-83542806D01*
X70564462Y-83546000D01*
X69795538Y-83546000D01*
X69763104Y-83542806D01*
X69737817Y-83535135D01*
X69714514Y-83522679D01*
X69694086Y-83505914D01*
X69677321Y-83485486D01*
X69664865Y-83462183D01*
X69657194Y-83436896D01*
X69654000Y-83404462D01*
X69654000Y-81835538D01*
X69657194Y-81803104D01*
X69664865Y-81777817D01*
X69677321Y-81754514D01*
X69694086Y-81734086D01*
X69714514Y-81717321D01*
X69737817Y-81704865D01*
X69763104Y-81697194D01*
X69795538Y-81694000D01*
X70564462Y-81694000D01*
X70596896Y-81697194D01*
X70622183Y-81704865D01*
X70645486Y-81717321D01*
X70665914Y-81734086D01*
X70682679Y-81754514D01*
X70695136Y-81777820D01*
X70696724Y-81783054D01*
X70706101Y-81805692D01*
X70719716Y-81826066D01*
X70737043Y-81843393D01*
X70757418Y-81857006D01*
X70780057Y-81866383D01*
X70804091Y-81871162D01*
X70828595Y-81871162D01*
X70852628Y-81866380D01*
X70875266Y-81857003D01*
X70895640Y-81843388D01*
X70912967Y-81826061D01*
X70926579Y-81805688D01*
X70935448Y-81789095D01*
X71054288Y-81644288D01*
X71199097Y-81525446D01*
X71364303Y-81437142D01*
X71364304Y-81437142D01*
X71364307Y-81437140D01*
X71543571Y-81382761D01*
X71543572Y-81382761D01*
X71543575Y-81382760D01*
X71730000Y-81364399D01*
X71916424Y-81382760D01*
X71916424Y-81382760D01*
G37*
G36*
X218144499Y-82443445D02*
G01*
X218181995Y-82454820D01*
X218216554Y-82473292D01*
X218246847Y-82498153D01*
X218271708Y-82528446D01*
X218290180Y-82563005D01*
X218301555Y-82600501D01*
X218306000Y-82645638D01*
X218306000Y-83384362D01*
X218301555Y-83429499D01*
X218290180Y-83466995D01*
X218271708Y-83501554D01*
X218246847Y-83531847D01*
X218216554Y-83556708D01*
X218181995Y-83575180D01*
X218144499Y-83586555D01*
X218099362Y-83591000D01*
X217460638Y-83591000D01*
X217415501Y-83586555D01*
X217378005Y-83575180D01*
X217343446Y-83556708D01*
X217313153Y-83531847D01*
X217288292Y-83501554D01*
X217269820Y-83466995D01*
X217258445Y-83429499D01*
X217254000Y-83384362D01*
X217254000Y-82645638D01*
X217258445Y-82600501D01*
X217269820Y-82563005D01*
X217288292Y-82528446D01*
X217313153Y-82498153D01*
X217343446Y-82473292D01*
X217378005Y-82454820D01*
X217415501Y-82443445D01*
X217460638Y-82439000D01*
X218099362Y-82439000D01*
X218144499Y-82443445D01*
X218144499Y-82443445D01*
G37*
G36*
X206714499Y-82443445D02*
G01*
X206751995Y-82454820D01*
X206786554Y-82473292D01*
X206816847Y-82498153D01*
X206841708Y-82528446D01*
X206860180Y-82563005D01*
X206871555Y-82600501D01*
X206876000Y-82645638D01*
X206876000Y-83384362D01*
X206871555Y-83429499D01*
X206860180Y-83466995D01*
X206841708Y-83501554D01*
X206816847Y-83531847D01*
X206786554Y-83556708D01*
X206751995Y-83575180D01*
X206714499Y-83586555D01*
X206669362Y-83591000D01*
X206030638Y-83591000D01*
X205985501Y-83586555D01*
X205948005Y-83575180D01*
X205913446Y-83556708D01*
X205883153Y-83531847D01*
X205858292Y-83501554D01*
X205839820Y-83466995D01*
X205828445Y-83429499D01*
X205824000Y-83384362D01*
X205824000Y-82645638D01*
X205828445Y-82600501D01*
X205839820Y-82563005D01*
X205858292Y-82528446D01*
X205883153Y-82498153D01*
X205913446Y-82473292D01*
X205948005Y-82454820D01*
X205985501Y-82443445D01*
X206030638Y-82439000D01*
X206669362Y-82439000D01*
X206714499Y-82443445D01*
X206714499Y-82443445D01*
G37*
G36*
X216239499Y-82443445D02*
G01*
X216276995Y-82454820D01*
X216311554Y-82473292D01*
X216341847Y-82498153D01*
X216366708Y-82528446D01*
X216385180Y-82563005D01*
X216396555Y-82600501D01*
X216401000Y-82645638D01*
X216401000Y-83384362D01*
X216396555Y-83429499D01*
X216385180Y-83466995D01*
X216366708Y-83501554D01*
X216341847Y-83531847D01*
X216311554Y-83556708D01*
X216276995Y-83575180D01*
X216239499Y-83586555D01*
X216194362Y-83591000D01*
X215555638Y-83591000D01*
X215510501Y-83586555D01*
X215473005Y-83575180D01*
X215438446Y-83556708D01*
X215408153Y-83531847D01*
X215383292Y-83501554D01*
X215364820Y-83466995D01*
X215353445Y-83429499D01*
X215349000Y-83384362D01*
X215349000Y-82645638D01*
X215353445Y-82600501D01*
X215364820Y-82563005D01*
X215383292Y-82528446D01*
X215408153Y-82498153D01*
X215438446Y-82473292D01*
X215473005Y-82454820D01*
X215510501Y-82443445D01*
X215555638Y-82439000D01*
X216194362Y-82439000D01*
X216239499Y-82443445D01*
X216239499Y-82443445D01*
G37*
G36*
X214702928Y-82882764D02*
G01*
X214724009Y-82889160D01*
X214743445Y-82899548D01*
X214760476Y-82913524D01*
X214774452Y-82930555D01*
X214784840Y-82949991D01*
X214791236Y-82971072D01*
X214794000Y-82999140D01*
X214794000Y-83462860D01*
X214791236Y-83490928D01*
X214784840Y-83512009D01*
X214774452Y-83531445D01*
X214760476Y-83548476D01*
X214743445Y-83562452D01*
X214724009Y-83572840D01*
X214702928Y-83579236D01*
X214674860Y-83582000D01*
X212861140Y-83582000D01*
X212833072Y-83579236D01*
X212811991Y-83572840D01*
X212792555Y-83562452D01*
X212775524Y-83548476D01*
X212761548Y-83531445D01*
X212751160Y-83512009D01*
X212744764Y-83490928D01*
X212742000Y-83462860D01*
X212742000Y-82999140D01*
X212744764Y-82971072D01*
X212751160Y-82949991D01*
X212761548Y-82930555D01*
X212775524Y-82913524D01*
X212792555Y-82899548D01*
X212811991Y-82889160D01*
X212833072Y-82882764D01*
X212861140Y-82880000D01*
X214674860Y-82880000D01*
X214702928Y-82882764D01*
X214702928Y-82882764D01*
G37*
G36*
X209752928Y-82882764D02*
G01*
X209774009Y-82889160D01*
X209793445Y-82899548D01*
X209810476Y-82913524D01*
X209824452Y-82930555D01*
X209834840Y-82949991D01*
X209841236Y-82971072D01*
X209844000Y-82999140D01*
X209844000Y-83462860D01*
X209841236Y-83490928D01*
X209834840Y-83512009D01*
X209824452Y-83531445D01*
X209810476Y-83548476D01*
X209793445Y-83562452D01*
X209774009Y-83572840D01*
X209752928Y-83579236D01*
X209724860Y-83582000D01*
X207911140Y-83582000D01*
X207883072Y-83579236D01*
X207861991Y-83572840D01*
X207842555Y-83562452D01*
X207825524Y-83548476D01*
X207811548Y-83531445D01*
X207801160Y-83512009D01*
X207794764Y-83490928D01*
X207792000Y-83462860D01*
X207792000Y-82999140D01*
X207794764Y-82971072D01*
X207801160Y-82949991D01*
X207811548Y-82930555D01*
X207825524Y-82913524D01*
X207842555Y-82899548D01*
X207861991Y-82889160D01*
X207883072Y-82882764D01*
X207911140Y-82880000D01*
X209724860Y-82880000D01*
X209752928Y-82882764D01*
X209752928Y-82882764D01*
G37*
G36*
X214702928Y-81612764D02*
G01*
X214724009Y-81619160D01*
X214743445Y-81629548D01*
X214760476Y-81643524D01*
X214774452Y-81660555D01*
X214784840Y-81679991D01*
X214791236Y-81701072D01*
X214794000Y-81729140D01*
X214794000Y-82192860D01*
X214791236Y-82220928D01*
X214784840Y-82242009D01*
X214774452Y-82261445D01*
X214760476Y-82278476D01*
X214743445Y-82292452D01*
X214724009Y-82302840D01*
X214702928Y-82309236D01*
X214674860Y-82312000D01*
X212861140Y-82312000D01*
X212833072Y-82309236D01*
X212811991Y-82302840D01*
X212792555Y-82292452D01*
X212775524Y-82278476D01*
X212761548Y-82261445D01*
X212751160Y-82242009D01*
X212744764Y-82220928D01*
X212742000Y-82192860D01*
X212742000Y-81729140D01*
X212744764Y-81701072D01*
X212751160Y-81679991D01*
X212761548Y-81660555D01*
X212775524Y-81643524D01*
X212792555Y-81629548D01*
X212811991Y-81619160D01*
X212833072Y-81612764D01*
X212861140Y-81610000D01*
X214674860Y-81610000D01*
X214702928Y-81612764D01*
X214702928Y-81612764D01*
G37*
G36*
X209752928Y-81612764D02*
G01*
X209774009Y-81619160D01*
X209793445Y-81629548D01*
X209810476Y-81643524D01*
X209824452Y-81660555D01*
X209834840Y-81679991D01*
X209841236Y-81701072D01*
X209844000Y-81729140D01*
X209844000Y-82192860D01*
X209841236Y-82220928D01*
X209834840Y-82242009D01*
X209824452Y-82261445D01*
X209810476Y-82278476D01*
X209793445Y-82292452D01*
X209774009Y-82302840D01*
X209752928Y-82309236D01*
X209724860Y-82312000D01*
X207911140Y-82312000D01*
X207883072Y-82309236D01*
X207861991Y-82302840D01*
X207842555Y-82292452D01*
X207825524Y-82278476D01*
X207811548Y-82261445D01*
X207801160Y-82242009D01*
X207794764Y-82220928D01*
X207792000Y-82192860D01*
X207792000Y-81729140D01*
X207794764Y-81701072D01*
X207801160Y-81679991D01*
X207811548Y-81660555D01*
X207825524Y-81643524D01*
X207842555Y-81629548D01*
X207861991Y-81619160D01*
X207883072Y-81612764D01*
X207911140Y-81610000D01*
X209724860Y-81610000D01*
X209752928Y-81612764D01*
X209752928Y-81612764D01*
G37*
G36*
X201371230Y-70479656D02*
G01*
X202226757Y-70834027D01*
X202365901Y-70927000D01*
X202996713Y-71348495D01*
X203651505Y-72003287D01*
X203995261Y-72517755D01*
X204165973Y-72773243D01*
X204520344Y-73628770D01*
X204701000Y-74536991D01*
X204701000Y-75463009D01*
X204520344Y-76371230D01*
X204165973Y-77226757D01*
X204165972Y-77226758D01*
X203651505Y-77996713D01*
X202996713Y-78651505D01*
X202482245Y-78995261D01*
X202226757Y-79165973D01*
X201371230Y-79520344D01*
X200463009Y-79701000D01*
X199536991Y-79701000D01*
X198628770Y-79520344D01*
X197773243Y-79165973D01*
X197517755Y-78995261D01*
X197003287Y-78651505D01*
X196348495Y-77996713D01*
X195834028Y-77226758D01*
X195834027Y-77226757D01*
X195479656Y-76371230D01*
X195299000Y-75463009D01*
X195299000Y-74536991D01*
X195479656Y-73628770D01*
X195834027Y-72773243D01*
X196004739Y-72517755D01*
X196348495Y-72003287D01*
X197003287Y-71348495D01*
X197634099Y-70927000D01*
X197773243Y-70834027D01*
X198628770Y-70479656D01*
X199536991Y-70299000D01*
X200463009Y-70299000D01*
X201371230Y-70479656D01*
X201371230Y-70479656D01*
G37*
G36*
X186401000Y-79361000D02*
G01*
X183149000Y-79361000D01*
X183149000Y-78259000D01*
X186401000Y-78259000D01*
X186401000Y-79361000D01*
X186401000Y-79361000D01*
G37*
G36*
X191451000Y-79361000D02*
G01*
X188199000Y-79361000D01*
X188199000Y-78259000D01*
X191451000Y-78259000D01*
X191451000Y-79361000D01*
X191451000Y-79361000D01*
G37*
G36*
X71269499Y-78288445D02*
G01*
X71306995Y-78299820D01*
X71341554Y-78318292D01*
X71371847Y-78343153D01*
X71396708Y-78373446D01*
X71415180Y-78408005D01*
X71426555Y-78445501D01*
X71431000Y-78490638D01*
X71431000Y-79129362D01*
X71426555Y-79174499D01*
X71415180Y-79211995D01*
X71396708Y-79246554D01*
X71371847Y-79276847D01*
X71341554Y-79301708D01*
X71306995Y-79320180D01*
X71269499Y-79331555D01*
X71224362Y-79336000D01*
X70485638Y-79336000D01*
X70440501Y-79331555D01*
X70403005Y-79320180D01*
X70368446Y-79301708D01*
X70338153Y-79276847D01*
X70313292Y-79246554D01*
X70294820Y-79211995D01*
X70283445Y-79174499D01*
X70279000Y-79129362D01*
X70279000Y-78490638D01*
X70283445Y-78445501D01*
X70294820Y-78408005D01*
X70313292Y-78373446D01*
X70338153Y-78343153D01*
X70368446Y-78318292D01*
X70403005Y-78299820D01*
X70440501Y-78288445D01*
X70485638Y-78284000D01*
X71224362Y-78284000D01*
X71269499Y-78288445D01*
X71269499Y-78288445D01*
G37*
G36*
X73019499Y-78288445D02*
G01*
X73056995Y-78299820D01*
X73091554Y-78318292D01*
X73121847Y-78343153D01*
X73146708Y-78373446D01*
X73165180Y-78408005D01*
X73176555Y-78445501D01*
X73181000Y-78490638D01*
X73181000Y-79129362D01*
X73176555Y-79174499D01*
X73165180Y-79211995D01*
X73146708Y-79246554D01*
X73121847Y-79276847D01*
X73091554Y-79301708D01*
X73056995Y-79320180D01*
X73019499Y-79331555D01*
X72974362Y-79336000D01*
X72235638Y-79336000D01*
X72190501Y-79331555D01*
X72153005Y-79320180D01*
X72118446Y-79301708D01*
X72088153Y-79276847D01*
X72063292Y-79246554D01*
X72044820Y-79211995D01*
X72033445Y-79174499D01*
X72029000Y-79129362D01*
X72029000Y-78490638D01*
X72033445Y-78445501D01*
X72044820Y-78408005D01*
X72063292Y-78373446D01*
X72088153Y-78343153D01*
X72118446Y-78318292D01*
X72153005Y-78299820D01*
X72190501Y-78288445D01*
X72235638Y-78284000D01*
X72974362Y-78284000D01*
X73019499Y-78288445D01*
X73019499Y-78288445D01*
G37*
G36*
X219021000Y-77151000D02*
G01*
X216919000Y-77151000D01*
X216919000Y-72849000D01*
X219021000Y-72849000D01*
X219021000Y-77151000D01*
X219021000Y-77151000D01*
G37*
G36*
X211021000Y-77151000D02*
G01*
X208919000Y-77151000D01*
X208919000Y-72849000D01*
X211021000Y-72849000D01*
X211021000Y-77151000D01*
X211021000Y-77151000D01*
G37*
G36*
X186401000Y-76821000D02*
G01*
X183149000Y-76821000D01*
X183149000Y-75719000D01*
X186401000Y-75719000D01*
X186401000Y-76821000D01*
X186401000Y-76821000D01*
G37*
G36*
X191451000Y-76821000D02*
G01*
X188199000Y-76821000D01*
X188199000Y-75719000D01*
X191451000Y-75719000D01*
X191451000Y-76821000D01*
X191451000Y-76821000D01*
G37*
G36*
X179854499Y-75748445D02*
G01*
X179891995Y-75759820D01*
X179926554Y-75778292D01*
X179956847Y-75803153D01*
X179981708Y-75833446D01*
X180000180Y-75868005D01*
X180011555Y-75905501D01*
X180016000Y-75950638D01*
X180016000Y-76589362D01*
X180011555Y-76634499D01*
X180000180Y-76671995D01*
X179981708Y-76706554D01*
X179956847Y-76736847D01*
X179926554Y-76761708D01*
X179891995Y-76780180D01*
X179854499Y-76791555D01*
X179809362Y-76796000D01*
X179070638Y-76796000D01*
X179025501Y-76791555D01*
X178988005Y-76780180D01*
X178953446Y-76761708D01*
X178923153Y-76736847D01*
X178898292Y-76706554D01*
X178879820Y-76671995D01*
X178868445Y-76634499D01*
X178864000Y-76589362D01*
X178864000Y-75950638D01*
X178868445Y-75905501D01*
X178879820Y-75868005D01*
X178898292Y-75833446D01*
X178923153Y-75803153D01*
X178953446Y-75778292D01*
X178988005Y-75759820D01*
X179025501Y-75748445D01*
X179070638Y-75744000D01*
X179809362Y-75744000D01*
X179854499Y-75748445D01*
X179854499Y-75748445D01*
G37*
G36*
X181604499Y-75748445D02*
G01*
X181641995Y-75759820D01*
X181676554Y-75778292D01*
X181706847Y-75803153D01*
X181731708Y-75833446D01*
X181750180Y-75868005D01*
X181761555Y-75905501D01*
X181766000Y-75950638D01*
X181766000Y-76589362D01*
X181761555Y-76634499D01*
X181750180Y-76671995D01*
X181731708Y-76706554D01*
X181706847Y-76736847D01*
X181676554Y-76761708D01*
X181641995Y-76780180D01*
X181604499Y-76791555D01*
X181559362Y-76796000D01*
X180820638Y-76796000D01*
X180775501Y-76791555D01*
X180738005Y-76780180D01*
X180703446Y-76761708D01*
X180673153Y-76736847D01*
X180648292Y-76706554D01*
X180629820Y-76671995D01*
X180618445Y-76634499D01*
X180614000Y-76589362D01*
X180614000Y-75950638D01*
X180618445Y-75905501D01*
X180629820Y-75868005D01*
X180648292Y-75833446D01*
X180673153Y-75803153D01*
X180703446Y-75778292D01*
X180738005Y-75759820D01*
X180775501Y-75748445D01*
X180820638Y-75744000D01*
X181559362Y-75744000D01*
X181604499Y-75748445D01*
X181604499Y-75748445D01*
G37*
G36*
X71916424Y-73762760D02*
G01*
X71916427Y-73762761D01*
X71916428Y-73762761D01*
X72095692Y-73817140D01*
X72095695Y-73817142D01*
X72095696Y-73817142D01*
X72260903Y-73905446D01*
X72405712Y-74024288D01*
X72524552Y-74169095D01*
X72533421Y-74185688D01*
X72547035Y-74206063D01*
X72564362Y-74223390D01*
X72584736Y-74237004D01*
X72607375Y-74246381D01*
X72631408Y-74251162D01*
X72655912Y-74251162D01*
X72679945Y-74246382D01*
X72702584Y-74237005D01*
X72722959Y-74223391D01*
X72740286Y-74206064D01*
X72753900Y-74185690D01*
X72763276Y-74163054D01*
X72764864Y-74157820D01*
X72777321Y-74134514D01*
X72794086Y-74114086D01*
X72814514Y-74097321D01*
X72837817Y-74084865D01*
X72863104Y-74077194D01*
X72895538Y-74074000D01*
X73664462Y-74074000D01*
X73696896Y-74077194D01*
X73722183Y-74084865D01*
X73745486Y-74097321D01*
X73765914Y-74114086D01*
X73782679Y-74134514D01*
X73795135Y-74157817D01*
X73802806Y-74183104D01*
X73806000Y-74215538D01*
X73806000Y-75784462D01*
X73802806Y-75816896D01*
X73795135Y-75842183D01*
X73782679Y-75865486D01*
X73765914Y-75885914D01*
X73745486Y-75902679D01*
X73722183Y-75915135D01*
X73696896Y-75922806D01*
X73664462Y-75926000D01*
X72895538Y-75926000D01*
X72863104Y-75922806D01*
X72837817Y-75915135D01*
X72814514Y-75902679D01*
X72794086Y-75885914D01*
X72777321Y-75865486D01*
X72764864Y-75842180D01*
X72763276Y-75836946D01*
X72753899Y-75814308D01*
X72740284Y-75793934D01*
X72722957Y-75776607D01*
X72702582Y-75762994D01*
X72679943Y-75753617D01*
X72655909Y-75748838D01*
X72631405Y-75748838D01*
X72607372Y-75753620D01*
X72584734Y-75762997D01*
X72564360Y-75776612D01*
X72547033Y-75793939D01*
X72533421Y-75814312D01*
X72524552Y-75830905D01*
X72405712Y-75975712D01*
X72260903Y-76094554D01*
X72095697Y-76182858D01*
X72095693Y-76182860D01*
X71916429Y-76237239D01*
X71916428Y-76237239D01*
X71916425Y-76237240D01*
X71730000Y-76255601D01*
X71543576Y-76237240D01*
X71543573Y-76237239D01*
X71543572Y-76237239D01*
X71364308Y-76182860D01*
X71364304Y-76182858D01*
X71199098Y-76094554D01*
X71054289Y-75975712D01*
X70935448Y-75830904D01*
X70926578Y-75814309D01*
X70912964Y-75793935D01*
X70895637Y-75776608D01*
X70875263Y-75762994D01*
X70852624Y-75753617D01*
X70828591Y-75748837D01*
X70804086Y-75748837D01*
X70780053Y-75753618D01*
X70757414Y-75762995D01*
X70737040Y-75776609D01*
X70719713Y-75793936D01*
X70706099Y-75814310D01*
X70696723Y-75836947D01*
X70695135Y-75842183D01*
X70682679Y-75865486D01*
X70665914Y-75885914D01*
X70645486Y-75902679D01*
X70622183Y-75915135D01*
X70596896Y-75922806D01*
X70564462Y-75926000D01*
X69795538Y-75926000D01*
X69763104Y-75922806D01*
X69737817Y-75915135D01*
X69714514Y-75902679D01*
X69694086Y-75885914D01*
X69677321Y-75865486D01*
X69664865Y-75842183D01*
X69657194Y-75816896D01*
X69654000Y-75784462D01*
X69654000Y-74215538D01*
X69657194Y-74183104D01*
X69664865Y-74157817D01*
X69677321Y-74134514D01*
X69694086Y-74114086D01*
X69714514Y-74097321D01*
X69737817Y-74084865D01*
X69763104Y-74077194D01*
X69795538Y-74074000D01*
X70564462Y-74074000D01*
X70596896Y-74077194D01*
X70622183Y-74084865D01*
X70645486Y-74097321D01*
X70665914Y-74114086D01*
X70682679Y-74134514D01*
X70695136Y-74157820D01*
X70696724Y-74163054D01*
X70706101Y-74185692D01*
X70719716Y-74206066D01*
X70737043Y-74223393D01*
X70757418Y-74237006D01*
X70780057Y-74246383D01*
X70804091Y-74251162D01*
X70828595Y-74251162D01*
X70852628Y-74246380D01*
X70875266Y-74237003D01*
X70895640Y-74223388D01*
X70912967Y-74206061D01*
X70926579Y-74185688D01*
X70935448Y-74169095D01*
X71054288Y-74024288D01*
X71199097Y-73905446D01*
X71364303Y-73817142D01*
X71364304Y-73817142D01*
X71364307Y-73817140D01*
X71543571Y-73762761D01*
X71543572Y-73762761D01*
X71543575Y-73762760D01*
X71730000Y-73744399D01*
X71916424Y-73762760D01*
X71916424Y-73762760D01*
G37*
G36*
X186401000Y-74281000D02*
G01*
X183149000Y-74281000D01*
X183149000Y-73179000D01*
X186401000Y-73179000D01*
X186401000Y-74281000D01*
X186401000Y-74281000D01*
G37*
G36*
X191451000Y-74281000D02*
G01*
X188199000Y-74281000D01*
X188199000Y-73179000D01*
X191451000Y-73179000D01*
X191451000Y-74281000D01*
X191451000Y-74281000D01*
G37*
G36*
X179854499Y-73208445D02*
G01*
X179891995Y-73219820D01*
X179926554Y-73238292D01*
X179956847Y-73263153D01*
X179981708Y-73293446D01*
X180000180Y-73328005D01*
X180011555Y-73365501D01*
X180016000Y-73410638D01*
X180016000Y-74049362D01*
X180011555Y-74094499D01*
X180000180Y-74131995D01*
X179981708Y-74166554D01*
X179956847Y-74196847D01*
X179926554Y-74221708D01*
X179891995Y-74240180D01*
X179854499Y-74251555D01*
X179809362Y-74256000D01*
X179070638Y-74256000D01*
X179025501Y-74251555D01*
X178988005Y-74240180D01*
X178953446Y-74221708D01*
X178923153Y-74196847D01*
X178898292Y-74166554D01*
X178879820Y-74131995D01*
X178868445Y-74094499D01*
X178864000Y-74049362D01*
X178864000Y-73410638D01*
X178868445Y-73365501D01*
X178879820Y-73328005D01*
X178898292Y-73293446D01*
X178923153Y-73263153D01*
X178953446Y-73238292D01*
X178988005Y-73219820D01*
X179025501Y-73208445D01*
X179070638Y-73204000D01*
X179809362Y-73204000D01*
X179854499Y-73208445D01*
X179854499Y-73208445D01*
G37*
G36*
X181604499Y-73208445D02*
G01*
X181641995Y-73219820D01*
X181676554Y-73238292D01*
X181706847Y-73263153D01*
X181731708Y-73293446D01*
X181750180Y-73328005D01*
X181761555Y-73365501D01*
X181766000Y-73410638D01*
X181766000Y-74049362D01*
X181761555Y-74094499D01*
X181750180Y-74131995D01*
X181731708Y-74166554D01*
X181706847Y-74196847D01*
X181676554Y-74221708D01*
X181641995Y-74240180D01*
X181604499Y-74251555D01*
X181559362Y-74256000D01*
X180820638Y-74256000D01*
X180775501Y-74251555D01*
X180738005Y-74240180D01*
X180703446Y-74221708D01*
X180673153Y-74196847D01*
X180648292Y-74166554D01*
X180629820Y-74131995D01*
X180618445Y-74094499D01*
X180614000Y-74049362D01*
X180614000Y-73410638D01*
X180618445Y-73365501D01*
X180629820Y-73328005D01*
X180648292Y-73293446D01*
X180673153Y-73263153D01*
X180703446Y-73238292D01*
X180738005Y-73219820D01*
X180775501Y-73208445D01*
X180820638Y-73204000D01*
X181559362Y-73204000D01*
X181604499Y-73208445D01*
X181604499Y-73208445D01*
G37*
G36*
X191451000Y-71741000D02*
G01*
X188199000Y-71741000D01*
X188199000Y-70639000D01*
X191451000Y-70639000D01*
X191451000Y-71741000D01*
X191451000Y-71741000D01*
G37*
G36*
X186401000Y-71741000D02*
G01*
X183149000Y-71741000D01*
X183149000Y-70639000D01*
X186401000Y-70639000D01*
X186401000Y-71741000D01*
X186401000Y-71741000D01*
G37*
G36*
X73019499Y-70668445D02*
G01*
X73056995Y-70679820D01*
X73091554Y-70698292D01*
X73121847Y-70723153D01*
X73146708Y-70753446D01*
X73165180Y-70788005D01*
X73176555Y-70825501D01*
X73181000Y-70870638D01*
X73181000Y-71509362D01*
X73176555Y-71554499D01*
X73165180Y-71591995D01*
X73146708Y-71626554D01*
X73121847Y-71656847D01*
X73091554Y-71681708D01*
X73056995Y-71700180D01*
X73019499Y-71711555D01*
X72974362Y-71716000D01*
X72235638Y-71716000D01*
X72190501Y-71711555D01*
X72153005Y-71700180D01*
X72118446Y-71681708D01*
X72088153Y-71656847D01*
X72063292Y-71626554D01*
X72044820Y-71591995D01*
X72033445Y-71554499D01*
X72029000Y-71509362D01*
X72029000Y-70870638D01*
X72033445Y-70825501D01*
X72044820Y-70788005D01*
X72063292Y-70753446D01*
X72088153Y-70723153D01*
X72118446Y-70698292D01*
X72153005Y-70679820D01*
X72190501Y-70668445D01*
X72235638Y-70664000D01*
X72974362Y-70664000D01*
X73019499Y-70668445D01*
X73019499Y-70668445D01*
G37*
G36*
X71269499Y-70668445D02*
G01*
X71306995Y-70679820D01*
X71341554Y-70698292D01*
X71371847Y-70723153D01*
X71396708Y-70753446D01*
X71415180Y-70788005D01*
X71426555Y-70825501D01*
X71431000Y-70870638D01*
X71431000Y-71509362D01*
X71426555Y-71554499D01*
X71415180Y-71591995D01*
X71396708Y-71626554D01*
X71371847Y-71656847D01*
X71341554Y-71681708D01*
X71306995Y-71700180D01*
X71269499Y-71711555D01*
X71224362Y-71716000D01*
X70485638Y-71716000D01*
X70440501Y-71711555D01*
X70403005Y-71700180D01*
X70368446Y-71681708D01*
X70338153Y-71656847D01*
X70313292Y-71626554D01*
X70294820Y-71591995D01*
X70283445Y-71554499D01*
X70279000Y-71509362D01*
X70279000Y-70870638D01*
X70283445Y-70825501D01*
X70294820Y-70788005D01*
X70313292Y-70753446D01*
X70338153Y-70723153D01*
X70368446Y-70698292D01*
X70403005Y-70679820D01*
X70440501Y-70668445D01*
X70485638Y-70664000D01*
X71224362Y-70664000D01*
X71269499Y-70668445D01*
X71269499Y-70668445D01*
G37*
G36*
X71916424Y-66142760D02*
G01*
X71916427Y-66142761D01*
X71916428Y-66142761D01*
X72095692Y-66197140D01*
X72095695Y-66197142D01*
X72095696Y-66197142D01*
X72260903Y-66285446D01*
X72405712Y-66404288D01*
X72524552Y-66549095D01*
X72533421Y-66565688D01*
X72547035Y-66586063D01*
X72564362Y-66603390D01*
X72584736Y-66617004D01*
X72607375Y-66626381D01*
X72631408Y-66631162D01*
X72655912Y-66631162D01*
X72679945Y-66626382D01*
X72702584Y-66617005D01*
X72722959Y-66603391D01*
X72740286Y-66586064D01*
X72753900Y-66565690D01*
X72763276Y-66543054D01*
X72764864Y-66537820D01*
X72777321Y-66514514D01*
X72794086Y-66494086D01*
X72814514Y-66477321D01*
X72837817Y-66464865D01*
X72863104Y-66457194D01*
X72895538Y-66454000D01*
X73664462Y-66454000D01*
X73696896Y-66457194D01*
X73722183Y-66464865D01*
X73745486Y-66477321D01*
X73765914Y-66494086D01*
X73782679Y-66514514D01*
X73795135Y-66537817D01*
X73802806Y-66563104D01*
X73806000Y-66595538D01*
X73806000Y-68164462D01*
X73802806Y-68196896D01*
X73795135Y-68222183D01*
X73782679Y-68245486D01*
X73765914Y-68265914D01*
X73745486Y-68282679D01*
X73722183Y-68295135D01*
X73696896Y-68302806D01*
X73664462Y-68306000D01*
X72895538Y-68306000D01*
X72863104Y-68302806D01*
X72837817Y-68295135D01*
X72814514Y-68282679D01*
X72794086Y-68265914D01*
X72777321Y-68245486D01*
X72764864Y-68222180D01*
X72763276Y-68216946D01*
X72753899Y-68194308D01*
X72740284Y-68173934D01*
X72722957Y-68156607D01*
X72702582Y-68142994D01*
X72679943Y-68133617D01*
X72655909Y-68128838D01*
X72631405Y-68128838D01*
X72607372Y-68133620D01*
X72584734Y-68142997D01*
X72564360Y-68156612D01*
X72547033Y-68173939D01*
X72533421Y-68194312D01*
X72524552Y-68210905D01*
X72405712Y-68355712D01*
X72260903Y-68474554D01*
X72095697Y-68562858D01*
X72095693Y-68562860D01*
X71916429Y-68617239D01*
X71916428Y-68617239D01*
X71916425Y-68617240D01*
X71730000Y-68635601D01*
X71543576Y-68617240D01*
X71543573Y-68617239D01*
X71543572Y-68617239D01*
X71364308Y-68562860D01*
X71364304Y-68562858D01*
X71199098Y-68474554D01*
X71054289Y-68355712D01*
X70935448Y-68210904D01*
X70926578Y-68194309D01*
X70912964Y-68173935D01*
X70895637Y-68156608D01*
X70875263Y-68142994D01*
X70852624Y-68133617D01*
X70828591Y-68128837D01*
X70804086Y-68128837D01*
X70780053Y-68133618D01*
X70757414Y-68142995D01*
X70737040Y-68156609D01*
X70719713Y-68173936D01*
X70706099Y-68194310D01*
X70696723Y-68216947D01*
X70695135Y-68222183D01*
X70682679Y-68245486D01*
X70665914Y-68265914D01*
X70645486Y-68282679D01*
X70622183Y-68295135D01*
X70596896Y-68302806D01*
X70564462Y-68306000D01*
X69795538Y-68306000D01*
X69763104Y-68302806D01*
X69737817Y-68295135D01*
X69714514Y-68282679D01*
X69694086Y-68265914D01*
X69677321Y-68245486D01*
X69664865Y-68222183D01*
X69657194Y-68196896D01*
X69654000Y-68164462D01*
X69654000Y-66595538D01*
X69657194Y-66563104D01*
X69664865Y-66537817D01*
X69677321Y-66514514D01*
X69694086Y-66494086D01*
X69714514Y-66477321D01*
X69737817Y-66464865D01*
X69763104Y-66457194D01*
X69795538Y-66454000D01*
X70564462Y-66454000D01*
X70596896Y-66457194D01*
X70622183Y-66464865D01*
X70645486Y-66477321D01*
X70665914Y-66494086D01*
X70682679Y-66514514D01*
X70695136Y-66537820D01*
X70696724Y-66543054D01*
X70706101Y-66565692D01*
X70719716Y-66586066D01*
X70737043Y-66603393D01*
X70757418Y-66617006D01*
X70780057Y-66626383D01*
X70804091Y-66631162D01*
X70828595Y-66631162D01*
X70852628Y-66626380D01*
X70875266Y-66617003D01*
X70895640Y-66603388D01*
X70912967Y-66586061D01*
X70926579Y-66565688D01*
X70935448Y-66549095D01*
X71054288Y-66404288D01*
X71199097Y-66285446D01*
X71364303Y-66197142D01*
X71364304Y-66197142D01*
X71364307Y-66197140D01*
X71543571Y-66142761D01*
X71543572Y-66142761D01*
X71543575Y-66142760D01*
X71730000Y-66124399D01*
X71916424Y-66142760D01*
X71916424Y-66142760D01*
G37*
G36*
X197326000Y-65531000D02*
G01*
X195474000Y-65531000D01*
X195474000Y-56529000D01*
X197326000Y-56529000D01*
X197326000Y-65531000D01*
X197326000Y-65531000D01*
G37*
G36*
X204526000Y-65531000D02*
G01*
X202674000Y-65531000D01*
X202674000Y-56529000D01*
X204526000Y-56529000D01*
X204526000Y-65531000D01*
X204526000Y-65531000D01*
G37*
G36*
X73019499Y-63048445D02*
G01*
X73056995Y-63059820D01*
X73091554Y-63078292D01*
X73121847Y-63103153D01*
X73146708Y-63133446D01*
X73165180Y-63168005D01*
X73176555Y-63205501D01*
X73181000Y-63250638D01*
X73181000Y-63889362D01*
X73176555Y-63934499D01*
X73165180Y-63971995D01*
X73146708Y-64006554D01*
X73121847Y-64036847D01*
X73091554Y-64061708D01*
X73056995Y-64080180D01*
X73019499Y-64091555D01*
X72974362Y-64096000D01*
X72235638Y-64096000D01*
X72190501Y-64091555D01*
X72153005Y-64080180D01*
X72118446Y-64061708D01*
X72088153Y-64036847D01*
X72063292Y-64006554D01*
X72044820Y-63971995D01*
X72033445Y-63934499D01*
X72029000Y-63889362D01*
X72029000Y-63250638D01*
X72033445Y-63205501D01*
X72044820Y-63168005D01*
X72063292Y-63133446D01*
X72088153Y-63103153D01*
X72118446Y-63078292D01*
X72153005Y-63059820D01*
X72190501Y-63048445D01*
X72235638Y-63044000D01*
X72974362Y-63044000D01*
X73019499Y-63048445D01*
X73019499Y-63048445D01*
G37*
G36*
X71269499Y-63048445D02*
G01*
X71306995Y-63059820D01*
X71341554Y-63078292D01*
X71371847Y-63103153D01*
X71396708Y-63133446D01*
X71415180Y-63168005D01*
X71426555Y-63205501D01*
X71431000Y-63250638D01*
X71431000Y-63889362D01*
X71426555Y-63934499D01*
X71415180Y-63971995D01*
X71396708Y-64006554D01*
X71371847Y-64036847D01*
X71341554Y-64061708D01*
X71306995Y-64080180D01*
X71269499Y-64091555D01*
X71224362Y-64096000D01*
X70485638Y-64096000D01*
X70440501Y-64091555D01*
X70403005Y-64080180D01*
X70368446Y-64061708D01*
X70338153Y-64036847D01*
X70313292Y-64006554D01*
X70294820Y-63971995D01*
X70283445Y-63934499D01*
X70279000Y-63889362D01*
X70279000Y-63250638D01*
X70283445Y-63205501D01*
X70294820Y-63168005D01*
X70313292Y-63133446D01*
X70338153Y-63103153D01*
X70368446Y-63078292D01*
X70403005Y-63059820D01*
X70440501Y-63048445D01*
X70485638Y-63044000D01*
X71224362Y-63044000D01*
X71269499Y-63048445D01*
X71269499Y-63048445D01*
G37*
G36*
X206714499Y-61333445D02*
G01*
X206751995Y-61344820D01*
X206786554Y-61363292D01*
X206816847Y-61388153D01*
X206841708Y-61418446D01*
X206860180Y-61453005D01*
X206871555Y-61490501D01*
X206876000Y-61535638D01*
X206876000Y-62274362D01*
X206871555Y-62319499D01*
X206860180Y-62356995D01*
X206841708Y-62391554D01*
X206816847Y-62421847D01*
X206786554Y-62446708D01*
X206751995Y-62465180D01*
X206714499Y-62476555D01*
X206669362Y-62481000D01*
X206030638Y-62481000D01*
X205985501Y-62476555D01*
X205948005Y-62465180D01*
X205913446Y-62446708D01*
X205883153Y-62421847D01*
X205858292Y-62391554D01*
X205839820Y-62356995D01*
X205828445Y-62319499D01*
X205824000Y-62274362D01*
X205824000Y-61535638D01*
X205828445Y-61490501D01*
X205839820Y-61453005D01*
X205858292Y-61418446D01*
X205883153Y-61388153D01*
X205913446Y-61363292D01*
X205948005Y-61344820D01*
X205985501Y-61333445D01*
X206030638Y-61329000D01*
X206669362Y-61329000D01*
X206714499Y-61333445D01*
X206714499Y-61333445D01*
G37*
G36*
X206714499Y-59583445D02*
G01*
X206751995Y-59594820D01*
X206786554Y-59613292D01*
X206816847Y-59638153D01*
X206841708Y-59668446D01*
X206860180Y-59703005D01*
X206871555Y-59740501D01*
X206876000Y-59785638D01*
X206876000Y-60524362D01*
X206871555Y-60569499D01*
X206860180Y-60606995D01*
X206841708Y-60641554D01*
X206816847Y-60671847D01*
X206786554Y-60696708D01*
X206751995Y-60715180D01*
X206714499Y-60726555D01*
X206669362Y-60731000D01*
X206030638Y-60731000D01*
X205985501Y-60726555D01*
X205948005Y-60715180D01*
X205913446Y-60696708D01*
X205883153Y-60671847D01*
X205858292Y-60641554D01*
X205839820Y-60606995D01*
X205828445Y-60569499D01*
X205824000Y-60524362D01*
X205824000Y-59785638D01*
X205828445Y-59740501D01*
X205839820Y-59703005D01*
X205858292Y-59668446D01*
X205883153Y-59638153D01*
X205913446Y-59613292D01*
X205948005Y-59594820D01*
X205985501Y-59583445D01*
X206030638Y-59579000D01*
X206669362Y-59579000D01*
X206714499Y-59583445D01*
X206714499Y-59583445D01*
G37*
G36*
X70406000Y-60271000D02*
G01*
X69004000Y-60271000D01*
X69004000Y-58169000D01*
X70406000Y-58169000D01*
X70406000Y-60271000D01*
X70406000Y-60271000D01*
G37*
G36*
X68106000Y-60271000D02*
G01*
X66704000Y-60271000D01*
X66704000Y-58169000D01*
X68106000Y-58169000D01*
X68106000Y-60271000D01*
X68106000Y-60271000D01*
G37*
G36*
X69606000Y-56271000D02*
G01*
X67504000Y-56271000D01*
X67504000Y-54169000D01*
X69606000Y-54169000D01*
X69606000Y-56271000D01*
X69606000Y-56271000D01*
G37*
G36*
X221884239Y-49811467D02*
G01*
X222198282Y-49873934D01*
X222789926Y-50119001D01*
X223322392Y-50474784D01*
X223775216Y-50927608D01*
X224130999Y-51460074D01*
X224376066Y-52051718D01*
X224501000Y-52679804D01*
X224501000Y-53320196D01*
X224376066Y-53948282D01*
X224130999Y-54539926D01*
X223861673Y-54943000D01*
X223794424Y-55043646D01*
X223775216Y-55072392D01*
X223322392Y-55525216D01*
X222789926Y-55880999D01*
X222198282Y-56126066D01*
X221884239Y-56188533D01*
X221570197Y-56251000D01*
X220929803Y-56251000D01*
X220615761Y-56188533D01*
X220301718Y-56126066D01*
X219710074Y-55880999D01*
X219177608Y-55525216D01*
X218724784Y-55072392D01*
X218705577Y-55043646D01*
X218638327Y-54943000D01*
X218369001Y-54539926D01*
X218123934Y-53948282D01*
X217999000Y-53320196D01*
X217999000Y-52679804D01*
X218123934Y-52051718D01*
X218369001Y-51460074D01*
X218724784Y-50927608D01*
X219177608Y-50474784D01*
X219710074Y-50119001D01*
X220301718Y-49873934D01*
X220615761Y-49811467D01*
X220929803Y-49749000D01*
X221570197Y-49749000D01*
X221884239Y-49811467D01*
X221884239Y-49811467D01*
G37*
G36*
X54855171Y-45264000D02*
G01*
X55310829Y-45354636D01*
X56284649Y-45758005D01*
X57161064Y-46343607D01*
X57906393Y-47088936D01*
X58491995Y-47965351D01*
X58895364Y-48939171D01*
X58939975Y-49163446D01*
X59099315Y-49964499D01*
X59101000Y-49972973D01*
X59101000Y-51027027D01*
X58895364Y-52060829D01*
X58491995Y-53034649D01*
X57906393Y-53911064D01*
X57161064Y-54656393D01*
X56284649Y-55241995D01*
X55310829Y-55645364D01*
X54966228Y-55713909D01*
X54277029Y-55851000D01*
X53222971Y-55851000D01*
X52533772Y-55713909D01*
X52189171Y-55645364D01*
X51215351Y-55241995D01*
X50338936Y-54656393D01*
X49593607Y-53911064D01*
X49008005Y-53034649D01*
X48604636Y-52060829D01*
X48399000Y-51027027D01*
X48399000Y-49972973D01*
X48400686Y-49964499D01*
X48560025Y-49163446D01*
X48604636Y-48939171D01*
X49008005Y-47965351D01*
X49593607Y-47088936D01*
X50338936Y-46343607D01*
X51215351Y-45758005D01*
X52189171Y-45354636D01*
X52644829Y-45264000D01*
X53222971Y-45149000D01*
X54277029Y-45149000D01*
X54855171Y-45264000D01*
X54855171Y-45264000D01*
G37*
G36*
X201289499Y-54158445D02*
G01*
X201326995Y-54169820D01*
X201361554Y-54188292D01*
X201391847Y-54213153D01*
X201416708Y-54243446D01*
X201435180Y-54278005D01*
X201446555Y-54315501D01*
X201451000Y-54360638D01*
X201451000Y-54999362D01*
X201446555Y-55044499D01*
X201435180Y-55081995D01*
X201416708Y-55116554D01*
X201391847Y-55146847D01*
X201361554Y-55171708D01*
X201326995Y-55190180D01*
X201289499Y-55201555D01*
X201244362Y-55206000D01*
X200505638Y-55206000D01*
X200460501Y-55201555D01*
X200423005Y-55190180D01*
X200388446Y-55171708D01*
X200358153Y-55146847D01*
X200333292Y-55116554D01*
X200314820Y-55081995D01*
X200303445Y-55044499D01*
X200299000Y-54999362D01*
X200299000Y-54360638D01*
X200303445Y-54315501D01*
X200314820Y-54278005D01*
X200333292Y-54243446D01*
X200358153Y-54213153D01*
X200388446Y-54188292D01*
X200423005Y-54169820D01*
X200460501Y-54158445D01*
X200505638Y-54154000D01*
X201244362Y-54154000D01*
X201289499Y-54158445D01*
X201289499Y-54158445D01*
G37*
G36*
X199539499Y-54158445D02*
G01*
X199576995Y-54169820D01*
X199611554Y-54188292D01*
X199641847Y-54213153D01*
X199666708Y-54243446D01*
X199685180Y-54278005D01*
X199696555Y-54315501D01*
X199701000Y-54360638D01*
X199701000Y-54999362D01*
X199696555Y-55044499D01*
X199685180Y-55081995D01*
X199666708Y-55116554D01*
X199641847Y-55146847D01*
X199611554Y-55171708D01*
X199576995Y-55190180D01*
X199539499Y-55201555D01*
X199494362Y-55206000D01*
X198755638Y-55206000D01*
X198710501Y-55201555D01*
X198673005Y-55190180D01*
X198638446Y-55171708D01*
X198608153Y-55146847D01*
X198583292Y-55116554D01*
X198564820Y-55081995D01*
X198553445Y-55044499D01*
X198549000Y-54999362D01*
X198549000Y-54360638D01*
X198553445Y-54315501D01*
X198564820Y-54278005D01*
X198583292Y-54243446D01*
X198608153Y-54213153D01*
X198638446Y-54188292D01*
X198673005Y-54169820D01*
X198710501Y-54158445D01*
X198755638Y-54154000D01*
X199494362Y-54154000D01*
X199539499Y-54158445D01*
X199539499Y-54158445D01*
G37*
G36*
X170884239Y-44311467D02*
G01*
X171198282Y-44373934D01*
X171789926Y-44619001D01*
X172322392Y-44974784D01*
X172775216Y-45427608D01*
X173130999Y-45960074D01*
X173376066Y-46551718D01*
X173376066Y-46551719D01*
X173501000Y-47179803D01*
X173501000Y-47820197D01*
X173463383Y-48009309D01*
X173376066Y-48448282D01*
X173130999Y-49039926D01*
X172932500Y-49337000D01*
X172775217Y-49572391D01*
X172322391Y-50025217D01*
X172260087Y-50066847D01*
X171789926Y-50380999D01*
X171198282Y-50626066D01*
X170884239Y-50688533D01*
X170570197Y-50751000D01*
X169929803Y-50751000D01*
X169615761Y-50688533D01*
X169301718Y-50626066D01*
X168710074Y-50380999D01*
X168239913Y-50066847D01*
X168177609Y-50025217D01*
X167724783Y-49572391D01*
X167567500Y-49337000D01*
X167369001Y-49039926D01*
X167123934Y-48448282D01*
X167036617Y-48009309D01*
X166999000Y-47820197D01*
X166999000Y-47179803D01*
X167123934Y-46551719D01*
X167123934Y-46551718D01*
X167369001Y-45960074D01*
X167724784Y-45427608D01*
X168177608Y-44974784D01*
X168710074Y-44619001D01*
X169301718Y-44373934D01*
X169615761Y-44311467D01*
X169929803Y-44249000D01*
X170570197Y-44249000D01*
X170884239Y-44311467D01*
X170884239Y-44311467D01*
G37*
G36*
X77884239Y-44311467D02*
G01*
X78198282Y-44373934D01*
X78789926Y-44619001D01*
X79322392Y-44974784D01*
X79775216Y-45427608D01*
X80130999Y-45960074D01*
X80376066Y-46551718D01*
X80376066Y-46551719D01*
X80501000Y-47179803D01*
X80501000Y-47820197D01*
X80463383Y-48009309D01*
X80376066Y-48448282D01*
X80130999Y-49039926D01*
X79932500Y-49337000D01*
X79775217Y-49572391D01*
X79322391Y-50025217D01*
X79260087Y-50066847D01*
X78789926Y-50380999D01*
X78198282Y-50626066D01*
X77884239Y-50688533D01*
X77570197Y-50751000D01*
X76929803Y-50751000D01*
X76615761Y-50688533D01*
X76301718Y-50626066D01*
X75710074Y-50380999D01*
X75239913Y-50066847D01*
X75177609Y-50025217D01*
X74724783Y-49572391D01*
X74567500Y-49337000D01*
X74369001Y-49039926D01*
X74123934Y-48448282D01*
X74036617Y-48009309D01*
X73999000Y-47820197D01*
X73999000Y-47179803D01*
X74123934Y-46551719D01*
X74123934Y-46551718D01*
X74369001Y-45960074D01*
X74724784Y-45427608D01*
X75177608Y-44974784D01*
X75710074Y-44619001D01*
X76301718Y-44373934D01*
X76615761Y-44311467D01*
X76929803Y-44249000D01*
X77570197Y-44249000D01*
X77884239Y-44311467D01*
X77884239Y-44311467D01*
G37*
G36*
X123401000Y-50461000D02*
G01*
X122299000Y-50461000D01*
X122299000Y-47849000D01*
X123401000Y-47849000D01*
X123401000Y-50461000D01*
X123401000Y-50461000D01*
G37*
G36*
X128481000Y-50461000D02*
G01*
X127379000Y-50461000D01*
X127379000Y-47849000D01*
X128481000Y-47849000D01*
X128481000Y-50461000D01*
X128481000Y-50461000D01*
G37*
G36*
X118321000Y-50461000D02*
G01*
X117219000Y-50461000D01*
X117219000Y-47849000D01*
X118321000Y-47849000D01*
X118321000Y-50461000D01*
X118321000Y-50461000D01*
G37*
G36*
X113241000Y-50461000D02*
G01*
X112139000Y-50461000D01*
X112139000Y-47849000D01*
X113241000Y-47849000D01*
X113241000Y-50461000D01*
X113241000Y-50461000D01*
G37*
G36*
X108161000Y-50461000D02*
G01*
X107059000Y-50461000D01*
X107059000Y-47849000D01*
X108161000Y-47849000D01*
X108161000Y-50461000D01*
X108161000Y-50461000D01*
G37*
G36*
X98001000Y-50461000D02*
G01*
X96899000Y-50461000D01*
X96899000Y-47849000D01*
X98001000Y-47849000D01*
X98001000Y-50461000D01*
X98001000Y-50461000D01*
G37*
G36*
X92921000Y-50461000D02*
G01*
X91819000Y-50461000D01*
X91819000Y-47849000D01*
X92921000Y-47849000D01*
X92921000Y-50461000D01*
X92921000Y-50461000D01*
G37*
G36*
X87841000Y-50461000D02*
G01*
X86739000Y-50461000D01*
X86739000Y-47849000D01*
X87841000Y-47849000D01*
X87841000Y-50461000D01*
X87841000Y-50461000D01*
G37*
G36*
X103081000Y-50461000D02*
G01*
X101979000Y-50461000D01*
X101979000Y-47849000D01*
X103081000Y-47849000D01*
X103081000Y-50461000D01*
X103081000Y-50461000D01*
G37*
G36*
X130959499Y-49078445D02*
G01*
X130996995Y-49089820D01*
X131031554Y-49108292D01*
X131061847Y-49133153D01*
X131086708Y-49163446D01*
X131105180Y-49198005D01*
X131116555Y-49235501D01*
X131121000Y-49280638D01*
X131121000Y-49919362D01*
X131116555Y-49964499D01*
X131105180Y-50001995D01*
X131086708Y-50036554D01*
X131061847Y-50066847D01*
X131031554Y-50091708D01*
X130996995Y-50110180D01*
X130959499Y-50121555D01*
X130914362Y-50126000D01*
X130175638Y-50126000D01*
X130130501Y-50121555D01*
X130093005Y-50110180D01*
X130058446Y-50091708D01*
X130028153Y-50066847D01*
X130003292Y-50036554D01*
X129984820Y-50001995D01*
X129973445Y-49964499D01*
X129969000Y-49919362D01*
X129969000Y-49280638D01*
X129973445Y-49235501D01*
X129984820Y-49198005D01*
X130003292Y-49163446D01*
X130028153Y-49133153D01*
X130058446Y-49108292D01*
X130093005Y-49089820D01*
X130130501Y-49078445D01*
X130175638Y-49074000D01*
X130914362Y-49074000D01*
X130959499Y-49078445D01*
X130959499Y-49078445D01*
G37*
G36*
X132709499Y-49078445D02*
G01*
X132746995Y-49089820D01*
X132781554Y-49108292D01*
X132811847Y-49133153D01*
X132836708Y-49163446D01*
X132855180Y-49198005D01*
X132866555Y-49235501D01*
X132871000Y-49280638D01*
X132871000Y-49919362D01*
X132866555Y-49964499D01*
X132855180Y-50001995D01*
X132836708Y-50036554D01*
X132811847Y-50066847D01*
X132781554Y-50091708D01*
X132746995Y-50110180D01*
X132709499Y-50121555D01*
X132664362Y-50126000D01*
X131925638Y-50126000D01*
X131880501Y-50121555D01*
X131843005Y-50110180D01*
X131808446Y-50091708D01*
X131778153Y-50066847D01*
X131753292Y-50036554D01*
X131734820Y-50001995D01*
X131723445Y-49964499D01*
X131719000Y-49919362D01*
X131719000Y-49280638D01*
X131723445Y-49235501D01*
X131734820Y-49198005D01*
X131753292Y-49163446D01*
X131778153Y-49133153D01*
X131808446Y-49108292D01*
X131843005Y-49089820D01*
X131880501Y-49078445D01*
X131925638Y-49074000D01*
X132664362Y-49074000D01*
X132709499Y-49078445D01*
X132709499Y-49078445D01*
G37*
G36*
X130959499Y-47173445D02*
G01*
X130996995Y-47184820D01*
X131031554Y-47203292D01*
X131061847Y-47228153D01*
X131086708Y-47258446D01*
X131105180Y-47293005D01*
X131116555Y-47330501D01*
X131121000Y-47375638D01*
X131121000Y-48014362D01*
X131116555Y-48059499D01*
X131105180Y-48096995D01*
X131086708Y-48131554D01*
X131061847Y-48161847D01*
X131031554Y-48186708D01*
X130996995Y-48205180D01*
X130959499Y-48216555D01*
X130914362Y-48221000D01*
X130175638Y-48221000D01*
X130130501Y-48216555D01*
X130093005Y-48205180D01*
X130058446Y-48186708D01*
X130028153Y-48161847D01*
X130003292Y-48131554D01*
X129984820Y-48096995D01*
X129973445Y-48059499D01*
X129969000Y-48014362D01*
X129969000Y-47375638D01*
X129973445Y-47330501D01*
X129984820Y-47293005D01*
X130003292Y-47258446D01*
X130028153Y-47228153D01*
X130058446Y-47203292D01*
X130093005Y-47184820D01*
X130130501Y-47173445D01*
X130175638Y-47169000D01*
X130914362Y-47169000D01*
X130959499Y-47173445D01*
X130959499Y-47173445D01*
G37*
G36*
X132709499Y-47173445D02*
G01*
X132746995Y-47184820D01*
X132781554Y-47203292D01*
X132811847Y-47228153D01*
X132836708Y-47258446D01*
X132855180Y-47293005D01*
X132866555Y-47330501D01*
X132871000Y-47375638D01*
X132871000Y-48014362D01*
X132866555Y-48059499D01*
X132855180Y-48096995D01*
X132836708Y-48131554D01*
X132811847Y-48161847D01*
X132781554Y-48186708D01*
X132746995Y-48205180D01*
X132709499Y-48216555D01*
X132664362Y-48221000D01*
X131925638Y-48221000D01*
X131880501Y-48216555D01*
X131843005Y-48205180D01*
X131808446Y-48186708D01*
X131778153Y-48161847D01*
X131753292Y-48131554D01*
X131734820Y-48096995D01*
X131723445Y-48059499D01*
X131719000Y-48014362D01*
X131719000Y-47375638D01*
X131723445Y-47330501D01*
X131734820Y-47293005D01*
X131753292Y-47258446D01*
X131778153Y-47228153D01*
X131808446Y-47203292D01*
X131843005Y-47184820D01*
X131880501Y-47173445D01*
X131925638Y-47169000D01*
X132664362Y-47169000D01*
X132709499Y-47173445D01*
X132709499Y-47173445D01*
G37*
G36*
X90381000Y-47151000D02*
G01*
X89279000Y-47151000D01*
X89279000Y-44539000D01*
X90381000Y-44539000D01*
X90381000Y-47151000D01*
X90381000Y-47151000D01*
G37*
G36*
X125941000Y-47151000D02*
G01*
X124839000Y-47151000D01*
X124839000Y-44539000D01*
X125941000Y-44539000D01*
X125941000Y-47151000D01*
X125941000Y-47151000D01*
G37*
G36*
X120861000Y-47151000D02*
G01*
X119759000Y-47151000D01*
X119759000Y-44539000D01*
X120861000Y-44539000D01*
X120861000Y-47151000D01*
X120861000Y-47151000D01*
G37*
G36*
X115781000Y-47151000D02*
G01*
X114679000Y-47151000D01*
X114679000Y-44539000D01*
X115781000Y-44539000D01*
X115781000Y-47151000D01*
X115781000Y-47151000D01*
G37*
G36*
X105621000Y-47151000D02*
G01*
X104519000Y-47151000D01*
X104519000Y-44539000D01*
X105621000Y-44539000D01*
X105621000Y-47151000D01*
X105621000Y-47151000D01*
G37*
G36*
X100541000Y-47151000D02*
G01*
X99439000Y-47151000D01*
X99439000Y-44539000D01*
X100541000Y-44539000D01*
X100541000Y-47151000D01*
X100541000Y-47151000D01*
G37*
G36*
X95461000Y-47151000D02*
G01*
X94359000Y-47151000D01*
X94359000Y-44539000D01*
X95461000Y-44539000D01*
X95461000Y-47151000D01*
X95461000Y-47151000D01*
G37*
G36*
X85301000Y-47151000D02*
G01*
X84199000Y-47151000D01*
X84199000Y-44539000D01*
X85301000Y-44539000D01*
X85301000Y-47151000D01*
X85301000Y-47151000D01*
G37*
G36*
X110701000Y-47151000D02*
G01*
X109599000Y-47151000D01*
X109599000Y-44539000D01*
X110701000Y-44539000D01*
X110701000Y-47151000D01*
X110701000Y-47151000D01*
G37*
G36*
X130959499Y-45268445D02*
G01*
X130996995Y-45279820D01*
X131031554Y-45298292D01*
X131061847Y-45323153D01*
X131086708Y-45353446D01*
X131105180Y-45388005D01*
X131116555Y-45425501D01*
X131121000Y-45470638D01*
X131121000Y-46109362D01*
X131116555Y-46154499D01*
X131105180Y-46191995D01*
X131086708Y-46226554D01*
X131061847Y-46256847D01*
X131031554Y-46281708D01*
X130996995Y-46300180D01*
X130959499Y-46311555D01*
X130914362Y-46316000D01*
X130175638Y-46316000D01*
X130130501Y-46311555D01*
X130093005Y-46300180D01*
X130058446Y-46281708D01*
X130028153Y-46256847D01*
X130003292Y-46226554D01*
X129984820Y-46191995D01*
X129973445Y-46154499D01*
X129969000Y-46109362D01*
X129969000Y-45470638D01*
X129973445Y-45425501D01*
X129984820Y-45388005D01*
X130003292Y-45353446D01*
X130028153Y-45323153D01*
X130058446Y-45298292D01*
X130093005Y-45279820D01*
X130130501Y-45268445D01*
X130175638Y-45264000D01*
X130914362Y-45264000D01*
X130959499Y-45268445D01*
X130959499Y-45268445D01*
G37*
G36*
X132709499Y-45268445D02*
G01*
X132746995Y-45279820D01*
X132781554Y-45298292D01*
X132811847Y-45323153D01*
X132836708Y-45353446D01*
X132855180Y-45388005D01*
X132866555Y-45425501D01*
X132871000Y-45470638D01*
X132871000Y-46109362D01*
X132866555Y-46154499D01*
X132855180Y-46191995D01*
X132836708Y-46226554D01*
X132811847Y-46256847D01*
X132781554Y-46281708D01*
X132746995Y-46300180D01*
X132709499Y-46311555D01*
X132664362Y-46316000D01*
X131925638Y-46316000D01*
X131880501Y-46311555D01*
X131843005Y-46300180D01*
X131808446Y-46281708D01*
X131778153Y-46256847D01*
X131753292Y-46226554D01*
X131734820Y-46191995D01*
X131723445Y-46154499D01*
X131719000Y-46109362D01*
X131719000Y-45470638D01*
X131723445Y-45425501D01*
X131734820Y-45388005D01*
X131753292Y-45353446D01*
X131778153Y-45323153D01*
X131808446Y-45298292D01*
X131843005Y-45279820D01*
X131880501Y-45268445D01*
X131925638Y-45264000D01*
X132664362Y-45264000D01*
X132709499Y-45268445D01*
X132709499Y-45268445D01*
G37*
G36*
X178997487Y-37311467D02*
G01*
X179311530Y-37373934D01*
X179903174Y-37619001D01*
X180435640Y-37974784D01*
X180888464Y-38427608D01*
X181244247Y-38960074D01*
X181489314Y-39551718D01*
X181614248Y-40179804D01*
X181614248Y-40820196D01*
X181489314Y-41448282D01*
X181244247Y-42039926D01*
X180888464Y-42572392D01*
X180435640Y-43025216D01*
X179903174Y-43380999D01*
X179311530Y-43626066D01*
X178997487Y-43688533D01*
X178683445Y-43751000D01*
X178043051Y-43751000D01*
X177729009Y-43688533D01*
X177414966Y-43626066D01*
X176823322Y-43380999D01*
X176290856Y-43025216D01*
X175838032Y-42572392D01*
X175482249Y-42039926D01*
X175237182Y-41448282D01*
X175112248Y-40820196D01*
X175112248Y-40179804D01*
X175237182Y-39551718D01*
X175482249Y-38960074D01*
X175838032Y-38427608D01*
X176290856Y-37974784D01*
X176823322Y-37619001D01*
X177414966Y-37373934D01*
X177729009Y-37311467D01*
X178043051Y-37249000D01*
X178683445Y-37249000D01*
X178997487Y-37311467D01*
X178997487Y-37311467D01*
G37*
G36*
X69384239Y-37311467D02*
G01*
X69698282Y-37373934D01*
X70289926Y-37619001D01*
X70822392Y-37974784D01*
X71275216Y-38427608D01*
X71630999Y-38960074D01*
X71876066Y-39551718D01*
X72001000Y-40179804D01*
X72001000Y-40820196D01*
X71876066Y-41448282D01*
X71630999Y-42039926D01*
X71275216Y-42572392D01*
X70822392Y-43025216D01*
X70289926Y-43380999D01*
X69698282Y-43626066D01*
X69384239Y-43688533D01*
X69070197Y-43751000D01*
X68429803Y-43751000D01*
X68115761Y-43688533D01*
X67801718Y-43626066D01*
X67210074Y-43380999D01*
X66677608Y-43025216D01*
X66224784Y-42572392D01*
X65869001Y-42039926D01*
X65623934Y-41448282D01*
X65499000Y-40820196D01*
X65499000Y-40179804D01*
X65623934Y-39551718D01*
X65869001Y-38960074D01*
X66224784Y-38427608D01*
X66677608Y-37974784D01*
X67210074Y-37619001D01*
X67801718Y-37373934D01*
X68115761Y-37311467D01*
X68429803Y-37249000D01*
X69070197Y-37249000D01*
X69384239Y-37311467D01*
X69384239Y-37311467D01*
G37*
M02*
