G04 #@! TF.GenerationSoftware,KiCad,Pcbnew,(5.1.4)-1*
G04 #@! TF.CreationDate,2020-03-27T04:02:31-04:00*
G04 #@! TF.ProjectId,stepUP_lcd,73746570-5550-45f6-9c63-642e6b696361,rev?*
G04 #@! TF.SameCoordinates,Original*
G04 #@! TF.FileFunction,Soldermask,Top*
G04 #@! TF.FilePolarity,Negative*
%FSLAX46Y46*%
G04 Gerber Fmt 4.6, Leading zero omitted, Abs format (unit mm)*
G04 Created by KiCad (PCBNEW (5.1.4)-1) date 2020-03-27 04:02:31*
%MOMM*%
%LPD*%
G04 APERTURE LIST*
%ADD10C,0.100000*%
G04 APERTURE END LIST*
D10*
G36*
X207466228Y-112786091D02*
G01*
X207810829Y-112854636D01*
X208784649Y-113258005D01*
X209661064Y-113843607D01*
X210406393Y-114588936D01*
X210991995Y-115465351D01*
X211395364Y-116439171D01*
X211601000Y-117472973D01*
X211601000Y-118527027D01*
X211395364Y-119560829D01*
X210991995Y-120534649D01*
X210406393Y-121411064D01*
X209661064Y-122156393D01*
X208784649Y-122741995D01*
X207810829Y-123145364D01*
X207466228Y-123213909D01*
X206777029Y-123351000D01*
X205722971Y-123351000D01*
X205033772Y-123213909D01*
X204689171Y-123145364D01*
X203715351Y-122741995D01*
X202838936Y-122156393D01*
X202093607Y-121411064D01*
X201508005Y-120534649D01*
X201104636Y-119560829D01*
X200899000Y-118527027D01*
X200899000Y-117472973D01*
X201104636Y-116439171D01*
X201508005Y-115465351D01*
X202093607Y-114588936D01*
X202838936Y-113843607D01*
X203715351Y-113258005D01*
X204689171Y-112854636D01*
X205033772Y-112786091D01*
X205722971Y-112649000D01*
X206777029Y-112649000D01*
X207466228Y-112786091D01*
X207466228Y-112786091D01*
G37*
G36*
X84966228Y-112786091D02*
G01*
X85310829Y-112854636D01*
X86284649Y-113258005D01*
X87161064Y-113843607D01*
X87906393Y-114588936D01*
X88491995Y-115465351D01*
X88895364Y-116439171D01*
X89101000Y-117472973D01*
X89101000Y-118527027D01*
X88895364Y-119560829D01*
X88491995Y-120534649D01*
X87906393Y-121411064D01*
X87161064Y-122156393D01*
X86284649Y-122741995D01*
X85310829Y-123145364D01*
X84966228Y-123213909D01*
X84277029Y-123351000D01*
X83222971Y-123351000D01*
X82533772Y-123213909D01*
X82189171Y-123145364D01*
X81215351Y-122741995D01*
X80338936Y-122156393D01*
X79593607Y-121411064D01*
X79008005Y-120534649D01*
X78604636Y-119560829D01*
X78399000Y-118527027D01*
X78399000Y-117472973D01*
X78604636Y-116439171D01*
X79008005Y-115465351D01*
X79593607Y-114588936D01*
X80338936Y-113843607D01*
X81215351Y-113258005D01*
X82189171Y-112854636D01*
X82533772Y-112786091D01*
X83222971Y-112649000D01*
X84277029Y-112649000D01*
X84966228Y-112786091D01*
X84966228Y-112786091D01*
G37*
G36*
X146216228Y-112786091D02*
G01*
X146560829Y-112854636D01*
X147534649Y-113258005D01*
X148411064Y-113843607D01*
X149156393Y-114588936D01*
X149741995Y-115465351D01*
X150145364Y-116439171D01*
X150351000Y-117472973D01*
X150351000Y-118527027D01*
X150145364Y-119560829D01*
X149741995Y-120534649D01*
X149156393Y-121411064D01*
X148411064Y-122156393D01*
X147534649Y-122741995D01*
X146560829Y-123145364D01*
X146216228Y-123213909D01*
X145527029Y-123351000D01*
X144472971Y-123351000D01*
X143783772Y-123213909D01*
X143439171Y-123145364D01*
X142465351Y-122741995D01*
X141588936Y-122156393D01*
X140843607Y-121411064D01*
X140258005Y-120534649D01*
X139854636Y-119560829D01*
X139649000Y-118527027D01*
X139649000Y-117472973D01*
X139854636Y-116439171D01*
X140258005Y-115465351D01*
X140843607Y-114588936D01*
X141588936Y-113843607D01*
X142465351Y-113258005D01*
X143439171Y-112854636D01*
X143783772Y-112786091D01*
X144472971Y-112649000D01*
X145527029Y-112649000D01*
X146216228Y-112786091D01*
X146216228Y-112786091D01*
G37*
G36*
X69384239Y-99811467D02*
G01*
X69698282Y-99873934D01*
X70289926Y-100119001D01*
X70716477Y-100404014D01*
X70822391Y-100474783D01*
X71275217Y-100927609D01*
X71345986Y-101033523D01*
X71630999Y-101460074D01*
X71876066Y-102051718D01*
X72001000Y-102679804D01*
X72001000Y-103320196D01*
X71876066Y-103948282D01*
X71630999Y-104539926D01*
X71345986Y-104966477D01*
X71306738Y-105025217D01*
X71275216Y-105072392D01*
X70822392Y-105525216D01*
X70289926Y-105880999D01*
X69698282Y-106126066D01*
X69384239Y-106188533D01*
X69070197Y-106251000D01*
X68429803Y-106251000D01*
X68115761Y-106188533D01*
X67801718Y-106126066D01*
X67210074Y-105880999D01*
X66677608Y-105525216D01*
X66224784Y-105072392D01*
X66193263Y-105025217D01*
X66154014Y-104966477D01*
X65869001Y-104539926D01*
X65623934Y-103948282D01*
X65499000Y-103320196D01*
X65499000Y-102679804D01*
X65623934Y-102051718D01*
X65869001Y-101460074D01*
X66154014Y-101033523D01*
X66224783Y-100927609D01*
X66677609Y-100474783D01*
X66783523Y-100404014D01*
X67210074Y-100119001D01*
X67801718Y-99873934D01*
X68115761Y-99811467D01*
X68429803Y-99749000D01*
X69070197Y-99749000D01*
X69384239Y-99811467D01*
X69384239Y-99811467D01*
G37*
G36*
X221884239Y-99811467D02*
G01*
X222198282Y-99873934D01*
X222789926Y-100119001D01*
X223216477Y-100404014D01*
X223322391Y-100474783D01*
X223775217Y-100927609D01*
X223845986Y-101033523D01*
X224130999Y-101460074D01*
X224376066Y-102051718D01*
X224501000Y-102679804D01*
X224501000Y-103320196D01*
X224376066Y-103948282D01*
X224130999Y-104539926D01*
X223845986Y-104966477D01*
X223806738Y-105025217D01*
X223775216Y-105072392D01*
X223322392Y-105525216D01*
X222789926Y-105880999D01*
X222198282Y-106126066D01*
X221884239Y-106188533D01*
X221570197Y-106251000D01*
X220929803Y-106251000D01*
X220615761Y-106188533D01*
X220301718Y-106126066D01*
X219710074Y-105880999D01*
X219177608Y-105525216D01*
X218724784Y-105072392D01*
X218693263Y-105025217D01*
X218654014Y-104966477D01*
X218369001Y-104539926D01*
X218123934Y-103948282D01*
X217999000Y-103320196D01*
X217999000Y-102679804D01*
X218123934Y-102051718D01*
X218369001Y-101460074D01*
X218654014Y-101033523D01*
X218724783Y-100927609D01*
X219177609Y-100474783D01*
X219283523Y-100404014D01*
X219710074Y-100119001D01*
X220301718Y-99873934D01*
X220615761Y-99811467D01*
X220929803Y-99749000D01*
X221570197Y-99749000D01*
X221884239Y-99811467D01*
X221884239Y-99811467D01*
G37*
G36*
X170884239Y-99311467D02*
G01*
X171198282Y-99373934D01*
X171789926Y-99619001D01*
X172216477Y-99904014D01*
X172322391Y-99974783D01*
X172775217Y-100427609D01*
X172806738Y-100474784D01*
X173130999Y-100960074D01*
X173376066Y-101551718D01*
X173501000Y-102179804D01*
X173501000Y-102820196D01*
X173376066Y-103448282D01*
X173130999Y-104039926D01*
X172845986Y-104466477D01*
X172796911Y-104539924D01*
X172775216Y-104572392D01*
X172322392Y-105025216D01*
X171789926Y-105380999D01*
X171198282Y-105626066D01*
X170884239Y-105688533D01*
X170570197Y-105751000D01*
X169929803Y-105751000D01*
X169615761Y-105688533D01*
X169301718Y-105626066D01*
X168710074Y-105380999D01*
X168177608Y-105025216D01*
X167724784Y-104572392D01*
X167703090Y-104539924D01*
X167654014Y-104466477D01*
X167369001Y-104039926D01*
X167123934Y-103448282D01*
X166999000Y-102820196D01*
X166999000Y-102179804D01*
X167123934Y-101551718D01*
X167369001Y-100960074D01*
X167693262Y-100474784D01*
X167724783Y-100427609D01*
X168177609Y-99974783D01*
X168283523Y-99904014D01*
X168710074Y-99619001D01*
X169301718Y-99373934D01*
X169615761Y-99311467D01*
X169929803Y-99249000D01*
X170570197Y-99249000D01*
X170884239Y-99311467D01*
X170884239Y-99311467D01*
G37*
G36*
X77884239Y-99311467D02*
G01*
X78198282Y-99373934D01*
X78789926Y-99619001D01*
X79216477Y-99904014D01*
X79322391Y-99974783D01*
X79775217Y-100427609D01*
X79806738Y-100474784D01*
X80130999Y-100960074D01*
X80376066Y-101551718D01*
X80501000Y-102179804D01*
X80501000Y-102820196D01*
X80376066Y-103448282D01*
X80130999Y-104039926D01*
X79845986Y-104466477D01*
X79796911Y-104539924D01*
X79775216Y-104572392D01*
X79322392Y-105025216D01*
X78789926Y-105380999D01*
X78198282Y-105626066D01*
X77884239Y-105688533D01*
X77570197Y-105751000D01*
X76929803Y-105751000D01*
X76615761Y-105688533D01*
X76301718Y-105626066D01*
X75710074Y-105380999D01*
X75177608Y-105025216D01*
X74724784Y-104572392D01*
X74703090Y-104539924D01*
X74654014Y-104466477D01*
X74369001Y-104039926D01*
X74123934Y-103448282D01*
X73999000Y-102820196D01*
X73999000Y-102179804D01*
X74123934Y-101551718D01*
X74369001Y-100960074D01*
X74693262Y-100474784D01*
X74724783Y-100427609D01*
X75177609Y-99974783D01*
X75283523Y-99904014D01*
X75710074Y-99619001D01*
X76301718Y-99373934D01*
X76615761Y-99311467D01*
X76929803Y-99249000D01*
X77570197Y-99249000D01*
X77884239Y-99311467D01*
X77884239Y-99311467D01*
G37*
G36*
X54966228Y-90286091D02*
G01*
X55310829Y-90354636D01*
X56284649Y-90758005D01*
X57161064Y-91343607D01*
X57906393Y-92088936D01*
X58491995Y-92965351D01*
X58895364Y-93939171D01*
X59101000Y-94972973D01*
X59101000Y-96027027D01*
X58895364Y-97060829D01*
X58491995Y-98034649D01*
X57906393Y-98911064D01*
X57161064Y-99656393D01*
X56284649Y-100241995D01*
X55310829Y-100645364D01*
X54966228Y-100713909D01*
X54277029Y-100851000D01*
X53222971Y-100851000D01*
X52533772Y-100713909D01*
X52189171Y-100645364D01*
X51215351Y-100241995D01*
X50338936Y-99656393D01*
X49593607Y-98911064D01*
X49008005Y-98034649D01*
X48604636Y-97060829D01*
X48399000Y-96027027D01*
X48399000Y-94972973D01*
X48604636Y-93939171D01*
X49008005Y-92965351D01*
X49593607Y-92088936D01*
X50338936Y-91343607D01*
X51215351Y-90758005D01*
X52189171Y-90354636D01*
X52533772Y-90286091D01*
X53222971Y-90149000D01*
X54277029Y-90149000D01*
X54966228Y-90286091D01*
X54966228Y-90286091D01*
G37*
G36*
X71916424Y-81382760D02*
G01*
X71916427Y-81382761D01*
X71916428Y-81382761D01*
X72095692Y-81437140D01*
X72095695Y-81437142D01*
X72095696Y-81437142D01*
X72260903Y-81525446D01*
X72405712Y-81644288D01*
X72524554Y-81789097D01*
X72612858Y-81954303D01*
X72612860Y-81954307D01*
X72612860Y-81954308D01*
X72667240Y-82133575D01*
X72681000Y-82273282D01*
X72681000Y-82966717D01*
X72667240Y-83106424D01*
X72667239Y-83106426D01*
X72667239Y-83106429D01*
X72612860Y-83285693D01*
X72612858Y-83285696D01*
X72524554Y-83450903D01*
X72405712Y-83595712D01*
X72260903Y-83714554D01*
X72095697Y-83802858D01*
X72095693Y-83802860D01*
X71916429Y-83857239D01*
X71916428Y-83857239D01*
X71916425Y-83857240D01*
X71730000Y-83875601D01*
X71543576Y-83857240D01*
X71543573Y-83857239D01*
X71543572Y-83857239D01*
X71364308Y-83802860D01*
X71364304Y-83802858D01*
X71199098Y-83714554D01*
X71054289Y-83595712D01*
X70935447Y-83450903D01*
X70847140Y-83285692D01*
X70792760Y-83106430D01*
X70779000Y-82966718D01*
X70779000Y-82273283D01*
X70792760Y-82133576D01*
X70792761Y-82133572D01*
X70847140Y-81954308D01*
X70847143Y-81954303D01*
X70935446Y-81789097D01*
X71054288Y-81644288D01*
X71199097Y-81525446D01*
X71364303Y-81437142D01*
X71364304Y-81437142D01*
X71364307Y-81437140D01*
X71543571Y-81382761D01*
X71543572Y-81382761D01*
X71543575Y-81382760D01*
X71730000Y-81364399D01*
X71916424Y-81382760D01*
X71916424Y-81382760D01*
G37*
G36*
X201371230Y-70479656D02*
G01*
X202226757Y-70834027D01*
X202226758Y-70834028D01*
X202996713Y-71348495D01*
X203651505Y-72003287D01*
X203995261Y-72517755D01*
X204165973Y-72773243D01*
X204520344Y-73628770D01*
X204701000Y-74536991D01*
X204701000Y-75463009D01*
X204520344Y-76371230D01*
X204165973Y-77226757D01*
X204165972Y-77226758D01*
X203651505Y-77996713D01*
X202996713Y-78651505D01*
X202482245Y-78995261D01*
X202226757Y-79165973D01*
X201371230Y-79520344D01*
X200463009Y-79701000D01*
X199536991Y-79701000D01*
X198628770Y-79520344D01*
X197773243Y-79165973D01*
X197517755Y-78995261D01*
X197003287Y-78651505D01*
X196348495Y-77996713D01*
X195834028Y-77226758D01*
X195834027Y-77226757D01*
X195479656Y-76371230D01*
X195299000Y-75463009D01*
X195299000Y-74536991D01*
X195479656Y-73628770D01*
X195834027Y-72773243D01*
X196004739Y-72517755D01*
X196348495Y-72003287D01*
X197003287Y-71348495D01*
X197773242Y-70834028D01*
X197773243Y-70834027D01*
X198628770Y-70479656D01*
X199536991Y-70299000D01*
X200463009Y-70299000D01*
X201371230Y-70479656D01*
X201371230Y-70479656D01*
G37*
G36*
X71916424Y-73762760D02*
G01*
X71916427Y-73762761D01*
X71916428Y-73762761D01*
X72095692Y-73817140D01*
X72095695Y-73817142D01*
X72095696Y-73817142D01*
X72260903Y-73905446D01*
X72405712Y-74024288D01*
X72524554Y-74169097D01*
X72612858Y-74334303D01*
X72612860Y-74334307D01*
X72612860Y-74334308D01*
X72667240Y-74513575D01*
X72681000Y-74653282D01*
X72681000Y-75346717D01*
X72667240Y-75486424D01*
X72667239Y-75486426D01*
X72667239Y-75486429D01*
X72612860Y-75665693D01*
X72612858Y-75665696D01*
X72524554Y-75830903D01*
X72405712Y-75975712D01*
X72260903Y-76094554D01*
X72095697Y-76182858D01*
X72095693Y-76182860D01*
X71916429Y-76237239D01*
X71916428Y-76237239D01*
X71916425Y-76237240D01*
X71730000Y-76255601D01*
X71543576Y-76237240D01*
X71543573Y-76237239D01*
X71543572Y-76237239D01*
X71364308Y-76182860D01*
X71364304Y-76182858D01*
X71199098Y-76094554D01*
X71054289Y-75975712D01*
X70935447Y-75830903D01*
X70847140Y-75665692D01*
X70792760Y-75486430D01*
X70779000Y-75346718D01*
X70779000Y-74653283D01*
X70792760Y-74513576D01*
X70792761Y-74513572D01*
X70847140Y-74334308D01*
X70847143Y-74334303D01*
X70935446Y-74169097D01*
X71054288Y-74024288D01*
X71199097Y-73905446D01*
X71364303Y-73817142D01*
X71364304Y-73817142D01*
X71364307Y-73817140D01*
X71543571Y-73762761D01*
X71543572Y-73762761D01*
X71543575Y-73762760D01*
X71730000Y-73744399D01*
X71916424Y-73762760D01*
X71916424Y-73762760D01*
G37*
G36*
X71916424Y-66142760D02*
G01*
X71916427Y-66142761D01*
X71916428Y-66142761D01*
X72095692Y-66197140D01*
X72095695Y-66197142D01*
X72095696Y-66197142D01*
X72260903Y-66285446D01*
X72405712Y-66404288D01*
X72524554Y-66549097D01*
X72612858Y-66714303D01*
X72612860Y-66714307D01*
X72612860Y-66714308D01*
X72667240Y-66893575D01*
X72681000Y-67033282D01*
X72681000Y-67726717D01*
X72667240Y-67866424D01*
X72667239Y-67866426D01*
X72667239Y-67866429D01*
X72612860Y-68045693D01*
X72612858Y-68045696D01*
X72524554Y-68210903D01*
X72405712Y-68355712D01*
X72260903Y-68474554D01*
X72095697Y-68562858D01*
X72095693Y-68562860D01*
X71916429Y-68617239D01*
X71916428Y-68617239D01*
X71916425Y-68617240D01*
X71730000Y-68635601D01*
X71543576Y-68617240D01*
X71543573Y-68617239D01*
X71543572Y-68617239D01*
X71364308Y-68562860D01*
X71364304Y-68562858D01*
X71199098Y-68474554D01*
X71054289Y-68355712D01*
X70935447Y-68210903D01*
X70847140Y-68045692D01*
X70792760Y-67866430D01*
X70779000Y-67726718D01*
X70779000Y-67033283D01*
X70792760Y-66893576D01*
X70792761Y-66893572D01*
X70847140Y-66714308D01*
X70847143Y-66714303D01*
X70935446Y-66549097D01*
X71054288Y-66404288D01*
X71199097Y-66285446D01*
X71364303Y-66197142D01*
X71364304Y-66197142D01*
X71364307Y-66197140D01*
X71543571Y-66142761D01*
X71543572Y-66142761D01*
X71543575Y-66142760D01*
X71730000Y-66124399D01*
X71916424Y-66142760D01*
X71916424Y-66142760D01*
G37*
G36*
X221884239Y-49811467D02*
G01*
X222198282Y-49873934D01*
X222789926Y-50119001D01*
X223322392Y-50474784D01*
X223775216Y-50927608D01*
X224130999Y-51460074D01*
X224376066Y-52051718D01*
X224501000Y-52679804D01*
X224501000Y-53320196D01*
X224376066Y-53948282D01*
X224130999Y-54539926D01*
X223775216Y-55072392D01*
X223322392Y-55525216D01*
X222789926Y-55880999D01*
X222198282Y-56126066D01*
X221884239Y-56188533D01*
X221570197Y-56251000D01*
X220929803Y-56251000D01*
X220615761Y-56188533D01*
X220301718Y-56126066D01*
X219710074Y-55880999D01*
X219177608Y-55525216D01*
X218724784Y-55072392D01*
X218369001Y-54539926D01*
X218123934Y-53948282D01*
X217999000Y-53320196D01*
X217999000Y-52679804D01*
X218123934Y-52051718D01*
X218369001Y-51460074D01*
X218724784Y-50927608D01*
X219177608Y-50474784D01*
X219710074Y-50119001D01*
X220301718Y-49873934D01*
X220615761Y-49811467D01*
X220929803Y-49749000D01*
X221570197Y-49749000D01*
X221884239Y-49811467D01*
X221884239Y-49811467D01*
G37*
G36*
X54966228Y-45286091D02*
G01*
X55310829Y-45354636D01*
X56284649Y-45758005D01*
X57161064Y-46343607D01*
X57906393Y-47088936D01*
X58491995Y-47965351D01*
X58692031Y-48448282D01*
X58895364Y-48939172D01*
X59021320Y-49572392D01*
X59101000Y-49972973D01*
X59101000Y-51027027D01*
X58895364Y-52060829D01*
X58491995Y-53034649D01*
X57906393Y-53911064D01*
X57161064Y-54656393D01*
X56284649Y-55241995D01*
X55310829Y-55645364D01*
X54966228Y-55713909D01*
X54277029Y-55851000D01*
X53222971Y-55851000D01*
X52533772Y-55713909D01*
X52189171Y-55645364D01*
X51215351Y-55241995D01*
X50338936Y-54656393D01*
X49593607Y-53911064D01*
X49008005Y-53034649D01*
X48604636Y-52060829D01*
X48399000Y-51027027D01*
X48399000Y-49972973D01*
X48478681Y-49572392D01*
X48604636Y-48939172D01*
X48807969Y-48448282D01*
X49008005Y-47965351D01*
X49593607Y-47088936D01*
X50338936Y-46343607D01*
X51215351Y-45758005D01*
X52189171Y-45354636D01*
X52533772Y-45286091D01*
X53222971Y-45149000D01*
X54277029Y-45149000D01*
X54966228Y-45286091D01*
X54966228Y-45286091D01*
G37*
G36*
X170884239Y-44311467D02*
G01*
X171198282Y-44373934D01*
X171789926Y-44619001D01*
X172322392Y-44974784D01*
X172775216Y-45427608D01*
X173130999Y-45960074D01*
X173376066Y-46551718D01*
X173376066Y-46551719D01*
X173501000Y-47179803D01*
X173501000Y-47820197D01*
X173438533Y-48134239D01*
X173376066Y-48448282D01*
X173130999Y-49039926D01*
X172775216Y-49572392D01*
X172322392Y-50025216D01*
X171789926Y-50380999D01*
X171198282Y-50626066D01*
X170884239Y-50688533D01*
X170570197Y-50751000D01*
X169929803Y-50751000D01*
X169615761Y-50688533D01*
X169301718Y-50626066D01*
X168710074Y-50380999D01*
X168177608Y-50025216D01*
X167724784Y-49572392D01*
X167369001Y-49039926D01*
X167123934Y-48448282D01*
X167061467Y-48134239D01*
X166999000Y-47820197D01*
X166999000Y-47179803D01*
X167123934Y-46551719D01*
X167123934Y-46551718D01*
X167369001Y-45960074D01*
X167724784Y-45427608D01*
X168177608Y-44974784D01*
X168710074Y-44619001D01*
X169301718Y-44373934D01*
X169615761Y-44311467D01*
X169929803Y-44249000D01*
X170570197Y-44249000D01*
X170884239Y-44311467D01*
X170884239Y-44311467D01*
G37*
G36*
X77884239Y-44311467D02*
G01*
X78198282Y-44373934D01*
X78789926Y-44619001D01*
X79322392Y-44974784D01*
X79775216Y-45427608D01*
X80130999Y-45960074D01*
X80376066Y-46551718D01*
X80376066Y-46551719D01*
X80501000Y-47179803D01*
X80501000Y-47820197D01*
X80438533Y-48134239D01*
X80376066Y-48448282D01*
X80130999Y-49039926D01*
X79775216Y-49572392D01*
X79322392Y-50025216D01*
X78789926Y-50380999D01*
X78198282Y-50626066D01*
X77884239Y-50688533D01*
X77570197Y-50751000D01*
X76929803Y-50751000D01*
X76615761Y-50688533D01*
X76301718Y-50626066D01*
X75710074Y-50380999D01*
X75177608Y-50025216D01*
X74724784Y-49572392D01*
X74369001Y-49039926D01*
X74123934Y-48448282D01*
X74061467Y-48134239D01*
X73999000Y-47820197D01*
X73999000Y-47179803D01*
X74123934Y-46551719D01*
X74123934Y-46551718D01*
X74369001Y-45960074D01*
X74724784Y-45427608D01*
X75177608Y-44974784D01*
X75710074Y-44619001D01*
X76301718Y-44373934D01*
X76615761Y-44311467D01*
X76929803Y-44249000D01*
X77570197Y-44249000D01*
X77884239Y-44311467D01*
X77884239Y-44311467D01*
G37*
G36*
X69384239Y-37311467D02*
G01*
X69698282Y-37373934D01*
X70289926Y-37619001D01*
X70822392Y-37974784D01*
X71275216Y-38427608D01*
X71630999Y-38960074D01*
X71876066Y-39551718D01*
X72001000Y-40179804D01*
X72001000Y-40820196D01*
X71876066Y-41448282D01*
X71630999Y-42039926D01*
X71275216Y-42572392D01*
X70822392Y-43025216D01*
X70289926Y-43380999D01*
X69698282Y-43626066D01*
X69384239Y-43688533D01*
X69070197Y-43751000D01*
X68429803Y-43751000D01*
X68115761Y-43688533D01*
X67801718Y-43626066D01*
X67210074Y-43380999D01*
X66677608Y-43025216D01*
X66224784Y-42572392D01*
X65869001Y-42039926D01*
X65623934Y-41448282D01*
X65499000Y-40820196D01*
X65499000Y-40179804D01*
X65623934Y-39551718D01*
X65869001Y-38960074D01*
X66224784Y-38427608D01*
X66677608Y-37974784D01*
X67210074Y-37619001D01*
X67801718Y-37373934D01*
X68115761Y-37311467D01*
X68429803Y-37249000D01*
X69070197Y-37249000D01*
X69384239Y-37311467D01*
X69384239Y-37311467D01*
G37*
G36*
X178997487Y-37311467D02*
G01*
X179311530Y-37373934D01*
X179903174Y-37619001D01*
X180435640Y-37974784D01*
X180888464Y-38427608D01*
X181244247Y-38960074D01*
X181489314Y-39551718D01*
X181614248Y-40179804D01*
X181614248Y-40820196D01*
X181489314Y-41448282D01*
X181244247Y-42039926D01*
X180888464Y-42572392D01*
X180435640Y-43025216D01*
X179903174Y-43380999D01*
X179311530Y-43626066D01*
X178997487Y-43688533D01*
X178683445Y-43751000D01*
X178043051Y-43751000D01*
X177729009Y-43688533D01*
X177414966Y-43626066D01*
X176823322Y-43380999D01*
X176290856Y-43025216D01*
X175838032Y-42572392D01*
X175482249Y-42039926D01*
X175237182Y-41448282D01*
X175112248Y-40820196D01*
X175112248Y-40179804D01*
X175237182Y-39551718D01*
X175482249Y-38960074D01*
X175838032Y-38427608D01*
X176290856Y-37974784D01*
X176823322Y-37619001D01*
X177414966Y-37373934D01*
X177729009Y-37311467D01*
X178043051Y-37249000D01*
X178683445Y-37249000D01*
X178997487Y-37311467D01*
X178997487Y-37311467D01*
G37*
M02*
