M48
; DRILL file {KiCad (5.1.4)-1} date 3/27/2020 3:55:45 AM
; FORMAT={-:-/ absolute / inch / decimal}
; #@! TF.CreationDate,2020-03-27T03:55:45-04:00
; #@! TF.GenerationSoftware,Kicad,Pcbnew,(5.1.4)-1
; #@! TF.FileFunction,Plated,1,2,PTH
FMAT,2
INCH
T1C0.0157
T2C0.0374
T3C0.0394
T4C0.0400
T5C0.2087
%
G90
G05
T1
X5.8861Y-4.1239
X5.9261Y-4.1239
X5.9661Y-4.1239
X6.1911Y-4.3139
X6.2311Y-4.3139
X6.2711Y-4.3139
T2
X5.4661Y-4.1886
X5.4661Y-4.287
X5.4661Y-4.3854
X5.4661Y-4.4839
X5.1661Y-4.1886
X5.1661Y-4.287
X5.1661Y-4.3854
X5.1661Y-4.4839
T3
X5.4661Y-3.7839
X5.4661Y-3.8823
T4
X6.2661Y-4.0339
X6.2661Y-4.1339
X6.2661Y-4.2339
X6.3661Y-4.0339
X6.3661Y-4.1339
X6.3661Y-4.2339
T5
X5.8661Y-3.7402
X5.8661Y-4.5276
T0
M30
