G04 #@! TF.GenerationSoftware,KiCad,Pcbnew,(5.1.4)-1*
G04 #@! TF.CreationDate,2020-03-27T03:55:43-04:00*
G04 #@! TF.ProjectId,RGB_endstop_breakout,5247425f-656e-4647-9374-6f705f627265,rev?*
G04 #@! TF.SameCoordinates,Original*
G04 #@! TF.FileFunction,Legend,Bot*
G04 #@! TF.FilePolarity,Positive*
%FSLAX46Y46*%
G04 Gerber Fmt 4.6, Leading zero omitted, Abs format (unit mm)*
G04 Created by KiCad (PCBNEW (5.1.4)-1) date 2020-03-27 03:55:43*
%MOMM*%
%LPD*%
G04 APERTURE LIST*
%ADD10C,0.254000*%
%ADD11C,0.317500*%
%ADD12C,0.476250*%
%ADD13O,2.102000X1.802000*%
%ADD14C,0.100000*%
%ADD15C,1.802000*%
%ADD16O,2.052000X1.802000*%
%ADD17O,1.829200X1.829200*%
%ADD18R,1.829200X1.829200*%
%ADD19C,10.702000*%
G04 APERTURE END LIST*
D10*
X127443619Y-105307047D02*
X128169333Y-105307047D01*
X128314476Y-105258666D01*
X128411238Y-105161904D01*
X128459619Y-105016761D01*
X128459619Y-104920000D01*
X128459619Y-106274666D02*
X128459619Y-105790857D01*
X127443619Y-105790857D01*
X128362857Y-107193904D02*
X128411238Y-107145523D01*
X128459619Y-107000380D01*
X128459619Y-106903619D01*
X128411238Y-106758476D01*
X128314476Y-106661714D01*
X128217714Y-106613333D01*
X128024190Y-106564952D01*
X127879047Y-106564952D01*
X127685523Y-106613333D01*
X127588761Y-106661714D01*
X127492000Y-106758476D01*
X127443619Y-106903619D01*
X127443619Y-107000380D01*
X127492000Y-107145523D01*
X127540380Y-107193904D01*
X127443619Y-107919619D02*
X128169333Y-107919619D01*
X128314476Y-107871238D01*
X128411238Y-107774476D01*
X128459619Y-107629333D01*
X128459619Y-107532571D01*
X128459619Y-108887238D02*
X128459619Y-108403428D01*
X127443619Y-108403428D01*
X128362857Y-109806476D02*
X128411238Y-109758095D01*
X128459619Y-109612952D01*
X128459619Y-109516190D01*
X128411238Y-109371047D01*
X128314476Y-109274285D01*
X128217714Y-109225904D01*
X128024190Y-109177523D01*
X127879047Y-109177523D01*
X127685523Y-109225904D01*
X127588761Y-109274285D01*
X127492000Y-109371047D01*
X127443619Y-109516190D01*
X127443619Y-109612952D01*
X127492000Y-109758095D01*
X127540380Y-109806476D01*
X127443619Y-110532190D02*
X128169333Y-110532190D01*
X128314476Y-110483809D01*
X128411238Y-110387047D01*
X128459619Y-110241904D01*
X128459619Y-110145142D01*
X128459619Y-111499809D02*
X128459619Y-111016000D01*
X127443619Y-111016000D01*
X128362857Y-112419047D02*
X128411238Y-112370666D01*
X128459619Y-112225523D01*
X128459619Y-112128761D01*
X128411238Y-111983619D01*
X128314476Y-111886857D01*
X128217714Y-111838476D01*
X128024190Y-111790095D01*
X127879047Y-111790095D01*
X127685523Y-111838476D01*
X127588761Y-111886857D01*
X127492000Y-111983619D01*
X127443619Y-112128761D01*
X127443619Y-112225523D01*
X127492000Y-112370666D01*
X127540380Y-112419047D01*
X127443619Y-113144761D02*
X128169333Y-113144761D01*
X128314476Y-113096380D01*
X128411238Y-112999619D01*
X128459619Y-112854476D01*
X128459619Y-112757714D01*
X128459619Y-114112380D02*
X128459619Y-113628571D01*
X127443619Y-113628571D01*
X128362857Y-115031619D02*
X128411238Y-114983238D01*
X128459619Y-114838095D01*
X128459619Y-114741333D01*
X128411238Y-114596190D01*
X128314476Y-114499428D01*
X128217714Y-114451047D01*
X128024190Y-114402666D01*
X127879047Y-114402666D01*
X127685523Y-114451047D01*
X127588761Y-114499428D01*
X127492000Y-114596190D01*
X127443619Y-114741333D01*
X127443619Y-114838095D01*
X127492000Y-114983238D01*
X127540380Y-115031619D01*
D11*
X156989285Y-106463273D02*
X156989285Y-105193273D01*
X156445000Y-106402797D02*
X156324047Y-106463273D01*
X156082142Y-106463273D01*
X155961190Y-106402797D01*
X155900714Y-106281845D01*
X155900714Y-106221369D01*
X155961190Y-106100416D01*
X156082142Y-106039940D01*
X156263571Y-106039940D01*
X156384523Y-105979464D01*
X156445000Y-105858511D01*
X156445000Y-105798035D01*
X156384523Y-105677083D01*
X156263571Y-105616607D01*
X156082142Y-105616607D01*
X155961190Y-105677083D01*
X155356428Y-106463273D02*
X155356428Y-105193273D01*
X154812142Y-106463273D02*
X154812142Y-105798035D01*
X154872619Y-105677083D01*
X154993571Y-105616607D01*
X155175000Y-105616607D01*
X155295952Y-105677083D01*
X155356428Y-105737559D01*
X153663095Y-106463273D02*
X153663095Y-105798035D01*
X153723571Y-105677083D01*
X153844523Y-105616607D01*
X154086428Y-105616607D01*
X154207380Y-105677083D01*
X153663095Y-106402797D02*
X153784047Y-106463273D01*
X154086428Y-106463273D01*
X154207380Y-106402797D01*
X154267857Y-106281845D01*
X154267857Y-106160892D01*
X154207380Y-106039940D01*
X154086428Y-105979464D01*
X153784047Y-105979464D01*
X153663095Y-105918988D01*
X152514047Y-106463273D02*
X152514047Y-105798035D01*
X152574523Y-105677083D01*
X152695476Y-105616607D01*
X152937380Y-105616607D01*
X153058333Y-105677083D01*
X152514047Y-106402797D02*
X152635000Y-106463273D01*
X152937380Y-106463273D01*
X153058333Y-106402797D01*
X153118809Y-106281845D01*
X153118809Y-106160892D01*
X153058333Y-106039940D01*
X152937380Y-105979464D01*
X152635000Y-105979464D01*
X152514047Y-105918988D01*
X151909285Y-105616607D02*
X151909285Y-106463273D01*
X151909285Y-105737559D02*
X151848809Y-105677083D01*
X151727857Y-105616607D01*
X151546428Y-105616607D01*
X151425476Y-105677083D01*
X151365000Y-105798035D01*
X151365000Y-106463273D01*
X149127380Y-105253750D02*
X149248333Y-105193273D01*
X149429761Y-105193273D01*
X149611190Y-105253750D01*
X149732142Y-105374702D01*
X149792619Y-105495654D01*
X149853095Y-105737559D01*
X149853095Y-105918988D01*
X149792619Y-106160892D01*
X149732142Y-106281845D01*
X149611190Y-106402797D01*
X149429761Y-106463273D01*
X149308809Y-106463273D01*
X149127380Y-106402797D01*
X149066904Y-106342321D01*
X149066904Y-105918988D01*
X149308809Y-105918988D01*
X148341190Y-106463273D02*
X148462142Y-106402797D01*
X148522619Y-106342321D01*
X148583095Y-106221369D01*
X148583095Y-105858511D01*
X148522619Y-105737559D01*
X148462142Y-105677083D01*
X148341190Y-105616607D01*
X148159761Y-105616607D01*
X148038809Y-105677083D01*
X147978333Y-105737559D01*
X147917857Y-105858511D01*
X147917857Y-106221369D01*
X147978333Y-106342321D01*
X148038809Y-106402797D01*
X148159761Y-106463273D01*
X148341190Y-106463273D01*
X147494523Y-105616607D02*
X147192142Y-106463273D01*
X146889761Y-105616607D01*
X155870476Y-107415773D02*
X155870476Y-108322916D01*
X155930952Y-108504345D01*
X156051904Y-108625297D01*
X156233333Y-108685773D01*
X156354285Y-108685773D01*
X154721428Y-108685773D02*
X154721428Y-108020535D01*
X154781904Y-107899583D01*
X154902857Y-107839107D01*
X155144761Y-107839107D01*
X155265714Y-107899583D01*
X154721428Y-108625297D02*
X154842380Y-108685773D01*
X155144761Y-108685773D01*
X155265714Y-108625297D01*
X155326190Y-108504345D01*
X155326190Y-108383392D01*
X155265714Y-108262440D01*
X155144761Y-108201964D01*
X154842380Y-108201964D01*
X154721428Y-108141488D01*
X154116666Y-107839107D02*
X154116666Y-108685773D01*
X154116666Y-107960059D02*
X154056190Y-107899583D01*
X153935238Y-107839107D01*
X153753809Y-107839107D01*
X153632857Y-107899583D01*
X153572380Y-108020535D01*
X153572380Y-108685773D01*
X152060476Y-107536726D02*
X152000000Y-107476250D01*
X151879047Y-107415773D01*
X151576666Y-107415773D01*
X151455714Y-107476250D01*
X151395238Y-107536726D01*
X151334761Y-107657678D01*
X151334761Y-107778630D01*
X151395238Y-107960059D01*
X152120952Y-108685773D01*
X151334761Y-108685773D01*
X150548571Y-107415773D02*
X150427619Y-107415773D01*
X150306666Y-107476250D01*
X150246190Y-107536726D01*
X150185714Y-107657678D01*
X150125238Y-107899583D01*
X150125238Y-108201964D01*
X150185714Y-108443869D01*
X150246190Y-108564821D01*
X150306666Y-108625297D01*
X150427619Y-108685773D01*
X150548571Y-108685773D01*
X150669523Y-108625297D01*
X150730000Y-108564821D01*
X150790476Y-108443869D01*
X150850952Y-108201964D01*
X150850952Y-107899583D01*
X150790476Y-107657678D01*
X150730000Y-107536726D01*
X150669523Y-107476250D01*
X150548571Y-107415773D01*
X149641428Y-107536726D02*
X149580952Y-107476250D01*
X149460000Y-107415773D01*
X149157619Y-107415773D01*
X149036666Y-107476250D01*
X148976190Y-107536726D01*
X148915714Y-107657678D01*
X148915714Y-107778630D01*
X148976190Y-107960059D01*
X149701904Y-108685773D01*
X148915714Y-108685773D01*
X148129523Y-107415773D02*
X148008571Y-107415773D01*
X147887619Y-107476250D01*
X147827142Y-107536726D01*
X147766666Y-107657678D01*
X147706190Y-107899583D01*
X147706190Y-108201964D01*
X147766666Y-108443869D01*
X147827142Y-108564821D01*
X147887619Y-108625297D01*
X148008571Y-108685773D01*
X148129523Y-108685773D01*
X148250476Y-108625297D01*
X148310952Y-108564821D01*
X148371428Y-108443869D01*
X148431904Y-108201964D01*
X148431904Y-107899583D01*
X148371428Y-107657678D01*
X148310952Y-107536726D01*
X148250476Y-107476250D01*
X148129523Y-107415773D01*
D12*
X156209642Y-103861785D02*
X157116785Y-103861785D01*
X157116785Y-101956785D01*
X155574642Y-102863928D02*
X154939642Y-102863928D01*
X154667500Y-103861785D02*
X155574642Y-103861785D01*
X155574642Y-101956785D01*
X154667500Y-101956785D01*
X153851071Y-103861785D02*
X153851071Y-101956785D01*
X153397500Y-101956785D01*
X153125357Y-102047500D01*
X152943928Y-102228928D01*
X152853214Y-102410357D01*
X152762500Y-102773214D01*
X152762500Y-103045357D01*
X152853214Y-103408214D01*
X152943928Y-103589642D01*
X153125357Y-103771071D01*
X153397500Y-103861785D01*
X153851071Y-103861785D01*
X149859642Y-102863928D02*
X149587500Y-102954642D01*
X149496785Y-103045357D01*
X149406071Y-103226785D01*
X149406071Y-103498928D01*
X149496785Y-103680357D01*
X149587500Y-103771071D01*
X149768928Y-103861785D01*
X150494642Y-103861785D01*
X150494642Y-101956785D01*
X149859642Y-101956785D01*
X149678214Y-102047500D01*
X149587500Y-102138214D01*
X149496785Y-102319642D01*
X149496785Y-102501071D01*
X149587500Y-102682500D01*
X149678214Y-102773214D01*
X149859642Y-102863928D01*
X150494642Y-102863928D01*
X148589642Y-103861785D02*
X148589642Y-102591785D01*
X148589642Y-102954642D02*
X148498928Y-102773214D01*
X148408214Y-102682500D01*
X148226785Y-102591785D01*
X148045357Y-102591785D01*
X146684642Y-103771071D02*
X146866071Y-103861785D01*
X147228928Y-103861785D01*
X147410357Y-103771071D01*
X147501071Y-103589642D01*
X147501071Y-102863928D01*
X147410357Y-102682500D01*
X147228928Y-102591785D01*
X146866071Y-102591785D01*
X146684642Y-102682500D01*
X146593928Y-102863928D01*
X146593928Y-103045357D01*
X147501071Y-103226785D01*
X144961071Y-103861785D02*
X144961071Y-102863928D01*
X145051785Y-102682500D01*
X145233214Y-102591785D01*
X145596071Y-102591785D01*
X145777500Y-102682500D01*
X144961071Y-103771071D02*
X145142500Y-103861785D01*
X145596071Y-103861785D01*
X145777500Y-103771071D01*
X145868214Y-103589642D01*
X145868214Y-103408214D01*
X145777500Y-103226785D01*
X145596071Y-103136071D01*
X145142500Y-103136071D01*
X144961071Y-103045357D01*
X144053928Y-103861785D02*
X144053928Y-101956785D01*
X143872500Y-103136071D02*
X143328214Y-103861785D01*
X143328214Y-102591785D02*
X144053928Y-103317500D01*
X142239642Y-103861785D02*
X142421071Y-103771071D01*
X142511785Y-103680357D01*
X142602500Y-103498928D01*
X142602500Y-102954642D01*
X142511785Y-102773214D01*
X142421071Y-102682500D01*
X142239642Y-102591785D01*
X141967500Y-102591785D01*
X141786071Y-102682500D01*
X141695357Y-102773214D01*
X141604642Y-102954642D01*
X141604642Y-103498928D01*
X141695357Y-103680357D01*
X141786071Y-103771071D01*
X141967500Y-103861785D01*
X142239642Y-103861785D01*
X139971785Y-102591785D02*
X139971785Y-103861785D01*
X140788214Y-102591785D02*
X140788214Y-103589642D01*
X140697500Y-103771071D01*
X140516071Y-103861785D01*
X140243928Y-103861785D01*
X140062500Y-103771071D01*
X139971785Y-103680357D01*
X139336785Y-102591785D02*
X138611071Y-102591785D01*
X139064642Y-101956785D02*
X139064642Y-103589642D01*
X138973928Y-103771071D01*
X138792500Y-103861785D01*
X138611071Y-103861785D01*
%LPC*%
D13*
X138840000Y-96110000D03*
D14*
G36*
X139651975Y-97710276D02*
G01*
X139677699Y-97714092D01*
X139702925Y-97720411D01*
X139727411Y-97729172D01*
X139750920Y-97740291D01*
X139773226Y-97753661D01*
X139794114Y-97769152D01*
X139813383Y-97786617D01*
X139830848Y-97805886D01*
X139846339Y-97826774D01*
X139859709Y-97849080D01*
X139870828Y-97872589D01*
X139879589Y-97897075D01*
X139885908Y-97922301D01*
X139889724Y-97948025D01*
X139891000Y-97974000D01*
X139891000Y-99246000D01*
X139889724Y-99271975D01*
X139885908Y-99297699D01*
X139879589Y-99322925D01*
X139870828Y-99347411D01*
X139859709Y-99370920D01*
X139846339Y-99393226D01*
X139830848Y-99414114D01*
X139813383Y-99433383D01*
X139794114Y-99450848D01*
X139773226Y-99466339D01*
X139750920Y-99479709D01*
X139727411Y-99490828D01*
X139702925Y-99499589D01*
X139677699Y-99505908D01*
X139651975Y-99509724D01*
X139626000Y-99511000D01*
X138054000Y-99511000D01*
X138028025Y-99509724D01*
X138002301Y-99505908D01*
X137977075Y-99499589D01*
X137952589Y-99490828D01*
X137929080Y-99479709D01*
X137906774Y-99466339D01*
X137885886Y-99450848D01*
X137866617Y-99433383D01*
X137849152Y-99414114D01*
X137833661Y-99393226D01*
X137820291Y-99370920D01*
X137809172Y-99347411D01*
X137800411Y-99322925D01*
X137794092Y-99297699D01*
X137790276Y-99271975D01*
X137789000Y-99246000D01*
X137789000Y-97974000D01*
X137790276Y-97948025D01*
X137794092Y-97922301D01*
X137800411Y-97897075D01*
X137809172Y-97872589D01*
X137820291Y-97849080D01*
X137833661Y-97826774D01*
X137849152Y-97805886D01*
X137866617Y-97786617D01*
X137885886Y-97769152D01*
X137906774Y-97753661D01*
X137929080Y-97740291D01*
X137952589Y-97729172D01*
X137977075Y-97720411D01*
X138002301Y-97714092D01*
X138028025Y-97710276D01*
X138054000Y-97709000D01*
X139626000Y-97709000D01*
X139651975Y-97710276D01*
X139651975Y-97710276D01*
G37*
D15*
X138840000Y-98610000D03*
D16*
X138840000Y-106390000D03*
X138840000Y-108890000D03*
X138840000Y-111390000D03*
D14*
G36*
X139626975Y-112990276D02*
G01*
X139652699Y-112994092D01*
X139677925Y-113000411D01*
X139702411Y-113009172D01*
X139725920Y-113020291D01*
X139748226Y-113033661D01*
X139769114Y-113049152D01*
X139788383Y-113066617D01*
X139805848Y-113085886D01*
X139821339Y-113106774D01*
X139834709Y-113129080D01*
X139845828Y-113152589D01*
X139854589Y-113177075D01*
X139860908Y-113202301D01*
X139864724Y-113228025D01*
X139866000Y-113254000D01*
X139866000Y-114526000D01*
X139864724Y-114551975D01*
X139860908Y-114577699D01*
X139854589Y-114602925D01*
X139845828Y-114627411D01*
X139834709Y-114650920D01*
X139821339Y-114673226D01*
X139805848Y-114694114D01*
X139788383Y-114713383D01*
X139769114Y-114730848D01*
X139748226Y-114746339D01*
X139725920Y-114759709D01*
X139702411Y-114770828D01*
X139677925Y-114779589D01*
X139652699Y-114785908D01*
X139626975Y-114789724D01*
X139601000Y-114791000D01*
X138079000Y-114791000D01*
X138053025Y-114789724D01*
X138027301Y-114785908D01*
X138002075Y-114779589D01*
X137977589Y-114770828D01*
X137954080Y-114759709D01*
X137931774Y-114746339D01*
X137910886Y-114730848D01*
X137891617Y-114713383D01*
X137874152Y-114694114D01*
X137858661Y-114673226D01*
X137845291Y-114650920D01*
X137834172Y-114627411D01*
X137825411Y-114602925D01*
X137819092Y-114577699D01*
X137815276Y-114551975D01*
X137814000Y-114526000D01*
X137814000Y-113254000D01*
X137815276Y-113228025D01*
X137819092Y-113202301D01*
X137825411Y-113177075D01*
X137834172Y-113152589D01*
X137845291Y-113129080D01*
X137858661Y-113106774D01*
X137874152Y-113085886D01*
X137891617Y-113066617D01*
X137910886Y-113049152D01*
X137931774Y-113033661D01*
X137954080Y-113020291D01*
X137977589Y-113009172D01*
X138002075Y-113000411D01*
X138027301Y-112994092D01*
X138053025Y-112990276D01*
X138079000Y-112989000D01*
X139601000Y-112989000D01*
X139626975Y-112990276D01*
X139626975Y-112990276D01*
G37*
D15*
X138840000Y-113890000D03*
D16*
X131220000Y-106390000D03*
X131220000Y-108890000D03*
X131220000Y-111390000D03*
D14*
G36*
X132006975Y-112990276D02*
G01*
X132032699Y-112994092D01*
X132057925Y-113000411D01*
X132082411Y-113009172D01*
X132105920Y-113020291D01*
X132128226Y-113033661D01*
X132149114Y-113049152D01*
X132168383Y-113066617D01*
X132185848Y-113085886D01*
X132201339Y-113106774D01*
X132214709Y-113129080D01*
X132225828Y-113152589D01*
X132234589Y-113177075D01*
X132240908Y-113202301D01*
X132244724Y-113228025D01*
X132246000Y-113254000D01*
X132246000Y-114526000D01*
X132244724Y-114551975D01*
X132240908Y-114577699D01*
X132234589Y-114602925D01*
X132225828Y-114627411D01*
X132214709Y-114650920D01*
X132201339Y-114673226D01*
X132185848Y-114694114D01*
X132168383Y-114713383D01*
X132149114Y-114730848D01*
X132128226Y-114746339D01*
X132105920Y-114759709D01*
X132082411Y-114770828D01*
X132057925Y-114779589D01*
X132032699Y-114785908D01*
X132006975Y-114789724D01*
X131981000Y-114791000D01*
X130459000Y-114791000D01*
X130433025Y-114789724D01*
X130407301Y-114785908D01*
X130382075Y-114779589D01*
X130357589Y-114770828D01*
X130334080Y-114759709D01*
X130311774Y-114746339D01*
X130290886Y-114730848D01*
X130271617Y-114713383D01*
X130254152Y-114694114D01*
X130238661Y-114673226D01*
X130225291Y-114650920D01*
X130214172Y-114627411D01*
X130205411Y-114602925D01*
X130199092Y-114577699D01*
X130195276Y-114551975D01*
X130194000Y-114526000D01*
X130194000Y-113254000D01*
X130195276Y-113228025D01*
X130199092Y-113202301D01*
X130205411Y-113177075D01*
X130214172Y-113152589D01*
X130225291Y-113129080D01*
X130238661Y-113106774D01*
X130254152Y-113085886D01*
X130271617Y-113066617D01*
X130290886Y-113049152D01*
X130311774Y-113033661D01*
X130334080Y-113020291D01*
X130357589Y-113009172D01*
X130382075Y-113000411D01*
X130407301Y-112994092D01*
X130433025Y-112990276D01*
X130459000Y-112989000D01*
X131981000Y-112989000D01*
X132006975Y-112990276D01*
X132006975Y-112990276D01*
G37*
D15*
X131220000Y-113890000D03*
D17*
X159160000Y-102460000D03*
X161700000Y-102460000D03*
X159160000Y-105000000D03*
X161700000Y-105000000D03*
X159160000Y-107540000D03*
D18*
X161700000Y-107540000D03*
D19*
X149000000Y-115000000D03*
X149000000Y-95000000D03*
M02*
