G04 #@! TF.GenerationSoftware,KiCad,Pcbnew,(5.1.4)-1*
G04 #@! TF.CreationDate,2020-03-27T03:55:43-04:00*
G04 #@! TF.ProjectId,RGB_endstop_breakout,5247425f-656e-4647-9374-6f705f627265,rev?*
G04 #@! TF.SameCoordinates,Original*
G04 #@! TF.FileFunction,Copper,L1,Top*
G04 #@! TF.FilePolarity,Positive*
%FSLAX46Y46*%
G04 Gerber Fmt 4.6, Leading zero omitted, Abs format (unit mm)*
G04 Created by KiCad (PCBNEW (5.1.4)-1) date 2020-03-27 03:55:43*
%MOMM*%
%LPD*%
G04 APERTURE LIST*
%ADD10O,2.000000X1.700000*%
%ADD11C,0.100000*%
%ADD12C,1.700000*%
%ADD13O,1.950000X1.700000*%
%ADD14O,1.727200X1.727200*%
%ADD15R,1.727200X1.727200*%
%ADD16C,10.600000*%
%ADD17C,0.800000*%
%ADD18C,0.304800*%
%ADD19C,0.762000*%
%ADD20C,0.152400*%
G04 APERTURE END LIST*
D10*
X138840000Y-96110000D03*
D11*
G36*
X139614504Y-97761204D02*
G01*
X139638773Y-97764804D01*
X139662571Y-97770765D01*
X139685671Y-97779030D01*
X139707849Y-97789520D01*
X139728893Y-97802133D01*
X139748598Y-97816747D01*
X139766777Y-97833223D01*
X139783253Y-97851402D01*
X139797867Y-97871107D01*
X139810480Y-97892151D01*
X139820970Y-97914329D01*
X139829235Y-97937429D01*
X139835196Y-97961227D01*
X139838796Y-97985496D01*
X139840000Y-98010000D01*
X139840000Y-99210000D01*
X139838796Y-99234504D01*
X139835196Y-99258773D01*
X139829235Y-99282571D01*
X139820970Y-99305671D01*
X139810480Y-99327849D01*
X139797867Y-99348893D01*
X139783253Y-99368598D01*
X139766777Y-99386777D01*
X139748598Y-99403253D01*
X139728893Y-99417867D01*
X139707849Y-99430480D01*
X139685671Y-99440970D01*
X139662571Y-99449235D01*
X139638773Y-99455196D01*
X139614504Y-99458796D01*
X139590000Y-99460000D01*
X138090000Y-99460000D01*
X138065496Y-99458796D01*
X138041227Y-99455196D01*
X138017429Y-99449235D01*
X137994329Y-99440970D01*
X137972151Y-99430480D01*
X137951107Y-99417867D01*
X137931402Y-99403253D01*
X137913223Y-99386777D01*
X137896747Y-99368598D01*
X137882133Y-99348893D01*
X137869520Y-99327849D01*
X137859030Y-99305671D01*
X137850765Y-99282571D01*
X137844804Y-99258773D01*
X137841204Y-99234504D01*
X137840000Y-99210000D01*
X137840000Y-98010000D01*
X137841204Y-97985496D01*
X137844804Y-97961227D01*
X137850765Y-97937429D01*
X137859030Y-97914329D01*
X137869520Y-97892151D01*
X137882133Y-97871107D01*
X137896747Y-97851402D01*
X137913223Y-97833223D01*
X137931402Y-97816747D01*
X137951107Y-97802133D01*
X137972151Y-97789520D01*
X137994329Y-97779030D01*
X138017429Y-97770765D01*
X138041227Y-97764804D01*
X138065496Y-97761204D01*
X138090000Y-97760000D01*
X139590000Y-97760000D01*
X139614504Y-97761204D01*
X139614504Y-97761204D01*
G37*
D12*
X138840000Y-98610000D03*
D13*
X138840000Y-106390000D03*
X138840000Y-108890000D03*
X138840000Y-111390000D03*
D11*
G36*
X139589504Y-113041204D02*
G01*
X139613773Y-113044804D01*
X139637571Y-113050765D01*
X139660671Y-113059030D01*
X139682849Y-113069520D01*
X139703893Y-113082133D01*
X139723598Y-113096747D01*
X139741777Y-113113223D01*
X139758253Y-113131402D01*
X139772867Y-113151107D01*
X139785480Y-113172151D01*
X139795970Y-113194329D01*
X139804235Y-113217429D01*
X139810196Y-113241227D01*
X139813796Y-113265496D01*
X139815000Y-113290000D01*
X139815000Y-114490000D01*
X139813796Y-114514504D01*
X139810196Y-114538773D01*
X139804235Y-114562571D01*
X139795970Y-114585671D01*
X139785480Y-114607849D01*
X139772867Y-114628893D01*
X139758253Y-114648598D01*
X139741777Y-114666777D01*
X139723598Y-114683253D01*
X139703893Y-114697867D01*
X139682849Y-114710480D01*
X139660671Y-114720970D01*
X139637571Y-114729235D01*
X139613773Y-114735196D01*
X139589504Y-114738796D01*
X139565000Y-114740000D01*
X138115000Y-114740000D01*
X138090496Y-114738796D01*
X138066227Y-114735196D01*
X138042429Y-114729235D01*
X138019329Y-114720970D01*
X137997151Y-114710480D01*
X137976107Y-114697867D01*
X137956402Y-114683253D01*
X137938223Y-114666777D01*
X137921747Y-114648598D01*
X137907133Y-114628893D01*
X137894520Y-114607849D01*
X137884030Y-114585671D01*
X137875765Y-114562571D01*
X137869804Y-114538773D01*
X137866204Y-114514504D01*
X137865000Y-114490000D01*
X137865000Y-113290000D01*
X137866204Y-113265496D01*
X137869804Y-113241227D01*
X137875765Y-113217429D01*
X137884030Y-113194329D01*
X137894520Y-113172151D01*
X137907133Y-113151107D01*
X137921747Y-113131402D01*
X137938223Y-113113223D01*
X137956402Y-113096747D01*
X137976107Y-113082133D01*
X137997151Y-113069520D01*
X138019329Y-113059030D01*
X138042429Y-113050765D01*
X138066227Y-113044804D01*
X138090496Y-113041204D01*
X138115000Y-113040000D01*
X139565000Y-113040000D01*
X139589504Y-113041204D01*
X139589504Y-113041204D01*
G37*
D12*
X138840000Y-113890000D03*
D13*
X131220000Y-106390000D03*
X131220000Y-108890000D03*
X131220000Y-111390000D03*
D11*
G36*
X131969504Y-113041204D02*
G01*
X131993773Y-113044804D01*
X132017571Y-113050765D01*
X132040671Y-113059030D01*
X132062849Y-113069520D01*
X132083893Y-113082133D01*
X132103598Y-113096747D01*
X132121777Y-113113223D01*
X132138253Y-113131402D01*
X132152867Y-113151107D01*
X132165480Y-113172151D01*
X132175970Y-113194329D01*
X132184235Y-113217429D01*
X132190196Y-113241227D01*
X132193796Y-113265496D01*
X132195000Y-113290000D01*
X132195000Y-114490000D01*
X132193796Y-114514504D01*
X132190196Y-114538773D01*
X132184235Y-114562571D01*
X132175970Y-114585671D01*
X132165480Y-114607849D01*
X132152867Y-114628893D01*
X132138253Y-114648598D01*
X132121777Y-114666777D01*
X132103598Y-114683253D01*
X132083893Y-114697867D01*
X132062849Y-114710480D01*
X132040671Y-114720970D01*
X132017571Y-114729235D01*
X131993773Y-114735196D01*
X131969504Y-114738796D01*
X131945000Y-114740000D01*
X130495000Y-114740000D01*
X130470496Y-114738796D01*
X130446227Y-114735196D01*
X130422429Y-114729235D01*
X130399329Y-114720970D01*
X130377151Y-114710480D01*
X130356107Y-114697867D01*
X130336402Y-114683253D01*
X130318223Y-114666777D01*
X130301747Y-114648598D01*
X130287133Y-114628893D01*
X130274520Y-114607849D01*
X130264030Y-114585671D01*
X130255765Y-114562571D01*
X130249804Y-114538773D01*
X130246204Y-114514504D01*
X130245000Y-114490000D01*
X130245000Y-113290000D01*
X130246204Y-113265496D01*
X130249804Y-113241227D01*
X130255765Y-113217429D01*
X130264030Y-113194329D01*
X130274520Y-113172151D01*
X130287133Y-113151107D01*
X130301747Y-113131402D01*
X130318223Y-113113223D01*
X130336402Y-113096747D01*
X130356107Y-113082133D01*
X130377151Y-113069520D01*
X130399329Y-113059030D01*
X130422429Y-113050765D01*
X130446227Y-113044804D01*
X130470496Y-113041204D01*
X130495000Y-113040000D01*
X131945000Y-113040000D01*
X131969504Y-113041204D01*
X131969504Y-113041204D01*
G37*
D12*
X131220000Y-113890000D03*
D14*
X159160000Y-102460000D03*
X161700000Y-102460000D03*
X159160000Y-105000000D03*
X161700000Y-105000000D03*
X159160000Y-107540000D03*
D15*
X161700000Y-107540000D03*
D16*
X149000000Y-115000000D03*
X149000000Y-95000000D03*
D17*
X157255000Y-109572000D03*
X158271000Y-109572000D03*
X159287000Y-109572000D03*
X149508000Y-104746000D03*
X150524000Y-104746000D03*
X151540000Y-104746000D03*
D18*
X140578000Y-98610000D02*
X138840000Y-98610000D01*
X159160000Y-102460000D02*
X144428000Y-102460000D01*
X144428000Y-102460000D02*
X140578000Y-98610000D01*
X161700000Y-102460000D02*
X160176000Y-100936000D01*
X160176000Y-100936000D02*
X158398000Y-100936000D01*
X158398000Y-100936000D02*
X157636000Y-101698000D01*
X157636000Y-101698000D02*
X144682000Y-101698000D01*
X144682000Y-101698000D02*
X140618000Y-97634000D01*
X140618000Y-97634000D02*
X140618000Y-96618000D01*
X140618000Y-96618000D02*
X140110000Y-96110000D01*
X140110000Y-96110000D02*
X138840000Y-96110000D01*
D19*
X131220000Y-106390000D02*
X138840000Y-106390000D01*
X159668000Y-109572000D02*
X161700000Y-107540000D01*
X157255000Y-109572000D02*
X158271000Y-109572000D01*
X158271000Y-109572000D02*
X159287000Y-109572000D01*
X159287000Y-109572000D02*
X159668000Y-109572000D01*
X141895000Y-106390000D02*
X138840000Y-106390000D01*
X151540000Y-104746000D02*
X143539000Y-104746000D01*
X143539000Y-104746000D02*
X141895000Y-106390000D01*
X138840000Y-111390000D02*
X131220000Y-111390000D01*
X159160000Y-107540000D02*
X145190000Y-107540000D01*
X141340000Y-111390000D02*
X138840000Y-111390000D01*
X145190000Y-107540000D02*
X141340000Y-111390000D01*
X138840000Y-108890000D02*
X131220000Y-108890000D01*
X141617500Y-108890000D02*
X138840000Y-108890000D01*
X144364500Y-106143000D02*
X141617500Y-108890000D01*
X156747000Y-106143000D02*
X144364500Y-106143000D01*
X159160000Y-105000000D02*
X157890000Y-105000000D01*
X157890000Y-105000000D02*
X156747000Y-106143000D01*
D20*
G36*
X150170067Y-88082121D02*
G01*
X151156458Y-88323489D01*
X152097664Y-88704716D01*
X152973980Y-89217821D01*
X153767050Y-89852054D01*
X154460257Y-90594128D01*
X155039080Y-91428499D01*
X155491393Y-92337683D01*
X155807724Y-93302646D01*
X155982383Y-94308579D01*
X156017443Y-95012850D01*
X156017453Y-95015656D01*
X156017708Y-95018162D01*
X156017998Y-95023995D01*
X156019581Y-95036891D01*
X156019436Y-95057703D01*
X156020094Y-95064409D01*
X156060895Y-95452601D01*
X156069683Y-95495413D01*
X156077886Y-95538414D01*
X156079834Y-95544864D01*
X156195258Y-95917739D01*
X156212206Y-95958057D01*
X156228593Y-95998617D01*
X156231756Y-96004566D01*
X156417407Y-96347922D01*
X156441874Y-96384195D01*
X156465818Y-96420785D01*
X156470077Y-96426007D01*
X156718883Y-96726762D01*
X156749935Y-96757597D01*
X156780523Y-96788833D01*
X156785715Y-96793128D01*
X157088200Y-97039829D01*
X157124610Y-97064020D01*
X157160723Y-97088747D01*
X157166650Y-97091951D01*
X157511291Y-97275201D01*
X157551729Y-97291869D01*
X157591936Y-97309101D01*
X157598373Y-97311094D01*
X157972044Y-97423911D01*
X158014956Y-97432408D01*
X158057736Y-97441501D01*
X158064437Y-97442206D01*
X158452906Y-97480296D01*
X158452910Y-97480296D01*
X158476293Y-97482599D01*
X164517400Y-97482599D01*
X164517401Y-112517400D01*
X158476293Y-112517400D01*
X158454748Y-112519522D01*
X158442297Y-112519435D01*
X158435591Y-112520093D01*
X158047398Y-112560894D01*
X158004580Y-112569683D01*
X157961586Y-112577885D01*
X157955136Y-112579833D01*
X157582260Y-112695256D01*
X157541921Y-112712213D01*
X157501382Y-112728592D01*
X157495437Y-112731753D01*
X157495433Y-112731755D01*
X157495432Y-112731756D01*
X157152078Y-112917407D01*
X157115843Y-112941848D01*
X157079215Y-112965816D01*
X157073994Y-112970075D01*
X156773238Y-113218882D01*
X156742402Y-113249934D01*
X156711166Y-113280523D01*
X156706871Y-113285714D01*
X156460170Y-113588199D01*
X156435957Y-113624643D01*
X156411252Y-113660723D01*
X156408047Y-113666650D01*
X156224797Y-114011292D01*
X156208123Y-114051747D01*
X156190898Y-114091936D01*
X156188905Y-114098373D01*
X156076087Y-114472045D01*
X156067586Y-114514980D01*
X156058498Y-114557736D01*
X156057793Y-114564437D01*
X156019703Y-114952906D01*
X156019703Y-114956622D01*
X156018665Y-114965075D01*
X155942642Y-116012821D01*
X155723718Y-117004424D01*
X155363941Y-117954041D01*
X154870850Y-118841774D01*
X154254776Y-119649024D01*
X153528615Y-120358893D01*
X152707593Y-120956497D01*
X151808901Y-121429322D01*
X150851372Y-121767461D01*
X149855048Y-121963834D01*
X148840821Y-122014326D01*
X147829934Y-121917878D01*
X146843543Y-121676510D01*
X145902337Y-121295283D01*
X145026021Y-120782179D01*
X144232951Y-120147945D01*
X143539744Y-119405871D01*
X142957785Y-118566980D01*
X142624321Y-117933185D01*
X142621985Y-117929432D01*
X142620739Y-117926504D01*
X142617467Y-117920614D01*
X142461470Y-117644333D01*
X142438875Y-117612125D01*
X142417339Y-117579214D01*
X142413080Y-117573992D01*
X142164273Y-117273237D01*
X142133240Y-117242420D01*
X142102633Y-117211165D01*
X142097441Y-117206870D01*
X141794955Y-116960169D01*
X141758518Y-116935961D01*
X141722432Y-116911252D01*
X141716505Y-116908047D01*
X141371863Y-116724798D01*
X141331442Y-116708138D01*
X141291221Y-116690899D01*
X141284785Y-116688907D01*
X140911112Y-116576088D01*
X140868215Y-116567594D01*
X140825419Y-116558497D01*
X140818722Y-116557793D01*
X140818718Y-116557793D01*
X140430249Y-116519704D01*
X140430247Y-116519704D01*
X140406864Y-116517401D01*
X125482599Y-116517401D01*
X125482599Y-114740000D01*
X129913202Y-114740000D01*
X129919577Y-114804731D01*
X129938459Y-114866974D01*
X129969120Y-114924337D01*
X130010383Y-114974617D01*
X130060663Y-115015880D01*
X130118026Y-115046541D01*
X130180269Y-115065423D01*
X130245000Y-115071798D01*
X130705650Y-115070200D01*
X130788200Y-114987650D01*
X130788200Y-114321800D01*
X131651800Y-114321800D01*
X131651800Y-114987650D01*
X131734350Y-115070200D01*
X132195000Y-115071798D01*
X132259731Y-115065423D01*
X132321974Y-115046541D01*
X132379337Y-115015880D01*
X132429617Y-114974617D01*
X132470880Y-114924337D01*
X132501541Y-114866974D01*
X132520423Y-114804731D01*
X132526798Y-114740000D01*
X137533202Y-114740000D01*
X137539577Y-114804731D01*
X137558459Y-114866974D01*
X137589120Y-114924337D01*
X137630383Y-114974617D01*
X137680663Y-115015880D01*
X137738026Y-115046541D01*
X137800269Y-115065423D01*
X137865000Y-115071798D01*
X138325650Y-115070200D01*
X138408200Y-114987650D01*
X138408200Y-114321800D01*
X139271800Y-114321800D01*
X139271800Y-114987650D01*
X139354350Y-115070200D01*
X139815000Y-115071798D01*
X139879731Y-115065423D01*
X139941974Y-115046541D01*
X139999337Y-115015880D01*
X140049617Y-114974617D01*
X140090880Y-114924337D01*
X140121541Y-114866974D01*
X140140423Y-114804731D01*
X140146798Y-114740000D01*
X140145396Y-114445474D01*
X143369800Y-114445474D01*
X143369800Y-115554526D01*
X143586166Y-116642269D01*
X144010582Y-117666900D01*
X144626738Y-118589043D01*
X145410957Y-119373262D01*
X146333100Y-119989418D01*
X147357731Y-120413834D01*
X148445474Y-120630200D01*
X149554526Y-120630200D01*
X150642269Y-120413834D01*
X151666900Y-119989418D01*
X152589043Y-119373262D01*
X153373262Y-118589043D01*
X153989418Y-117666900D01*
X154413834Y-116642269D01*
X154630200Y-115554526D01*
X154630200Y-114445474D01*
X154413834Y-113357731D01*
X153989418Y-112333100D01*
X153373262Y-111410957D01*
X152589043Y-110626738D01*
X151666900Y-110010582D01*
X150642269Y-109586166D01*
X149554526Y-109369800D01*
X148445474Y-109369800D01*
X147357731Y-109586166D01*
X146333100Y-110010582D01*
X145410957Y-110626738D01*
X144626738Y-111410957D01*
X144010582Y-112333100D01*
X143586166Y-113357731D01*
X143369800Y-114445474D01*
X140145396Y-114445474D01*
X140145200Y-114404350D01*
X140062650Y-114321800D01*
X139271800Y-114321800D01*
X138408200Y-114321800D01*
X137617350Y-114321800D01*
X137534800Y-114404350D01*
X137533202Y-114740000D01*
X132526798Y-114740000D01*
X132525200Y-114404350D01*
X132442650Y-114321800D01*
X131651800Y-114321800D01*
X130788200Y-114321800D01*
X129997350Y-114321800D01*
X129914800Y-114404350D01*
X129913202Y-114740000D01*
X125482599Y-114740000D01*
X125482599Y-113040000D01*
X129913202Y-113040000D01*
X129914800Y-113375650D01*
X129997350Y-113458200D01*
X130788200Y-113458200D01*
X130788200Y-112792350D01*
X131651800Y-112792350D01*
X131651800Y-113458200D01*
X132442650Y-113458200D01*
X132525200Y-113375650D01*
X132526798Y-113040000D01*
X137533202Y-113040000D01*
X137534800Y-113375650D01*
X137617350Y-113458200D01*
X138408200Y-113458200D01*
X138408200Y-112792350D01*
X139271800Y-112792350D01*
X139271800Y-113458200D01*
X140062650Y-113458200D01*
X140145200Y-113375650D01*
X140146798Y-113040000D01*
X140140423Y-112975269D01*
X140121541Y-112913026D01*
X140090880Y-112855663D01*
X140049617Y-112805383D01*
X139999337Y-112764120D01*
X139941974Y-112733459D01*
X139879731Y-112714577D01*
X139815000Y-112708202D01*
X139354350Y-112709800D01*
X139271800Y-112792350D01*
X138408200Y-112792350D01*
X138325650Y-112709800D01*
X137865000Y-112708202D01*
X137800269Y-112714577D01*
X137738026Y-112733459D01*
X137680663Y-112764120D01*
X137630383Y-112805383D01*
X137589120Y-112855663D01*
X137558459Y-112913026D01*
X137539577Y-112975269D01*
X137533202Y-113040000D01*
X132526798Y-113040000D01*
X132520423Y-112975269D01*
X132501541Y-112913026D01*
X132470880Y-112855663D01*
X132429617Y-112805383D01*
X132379337Y-112764120D01*
X132321974Y-112733459D01*
X132259731Y-112714577D01*
X132195000Y-112708202D01*
X131734350Y-112709800D01*
X131651800Y-112792350D01*
X130788200Y-112792350D01*
X130705650Y-112709800D01*
X130245000Y-112708202D01*
X130180269Y-112714577D01*
X130118026Y-112733459D01*
X130060663Y-112764120D01*
X130010383Y-112805383D01*
X129969120Y-112855663D01*
X129938459Y-112913026D01*
X129919577Y-112975269D01*
X129913202Y-113040000D01*
X125482599Y-113040000D01*
X125482599Y-106390000D01*
X129909090Y-106390000D01*
X129931877Y-106621360D01*
X129999362Y-106843828D01*
X130108952Y-107048856D01*
X130256435Y-107228565D01*
X130436144Y-107376048D01*
X130641172Y-107485638D01*
X130863640Y-107553123D01*
X131037025Y-107570200D01*
X131402975Y-107570200D01*
X131576360Y-107553123D01*
X131798828Y-107485638D01*
X132003856Y-107376048D01*
X132183565Y-107228565D01*
X132288090Y-107101200D01*
X137771910Y-107101200D01*
X137876435Y-107228565D01*
X138056144Y-107376048D01*
X138261172Y-107485638D01*
X138483640Y-107553123D01*
X138657025Y-107570200D01*
X139022975Y-107570200D01*
X139196360Y-107553123D01*
X139418828Y-107485638D01*
X139623856Y-107376048D01*
X139803565Y-107228565D01*
X139908090Y-107101200D01*
X141860074Y-107101200D01*
X141895000Y-107104640D01*
X141929926Y-107101200D01*
X141929936Y-107101200D01*
X142034420Y-107090909D01*
X142168481Y-107050242D01*
X142292033Y-106984202D01*
X142400327Y-106895327D01*
X142422602Y-106868185D01*
X143833588Y-105457200D01*
X144175272Y-105457200D01*
X144091018Y-105482758D01*
X143967467Y-105548798D01*
X143886309Y-105615402D01*
X143886304Y-105615407D01*
X143859173Y-105637673D01*
X143836907Y-105664804D01*
X141322913Y-108178800D01*
X139908090Y-108178800D01*
X139803565Y-108051435D01*
X139623856Y-107903952D01*
X139418828Y-107794362D01*
X139196360Y-107726877D01*
X139022975Y-107709800D01*
X138657025Y-107709800D01*
X138483640Y-107726877D01*
X138261172Y-107794362D01*
X138056144Y-107903952D01*
X137876435Y-108051435D01*
X137771910Y-108178800D01*
X132288090Y-108178800D01*
X132183565Y-108051435D01*
X132003856Y-107903952D01*
X131798828Y-107794362D01*
X131576360Y-107726877D01*
X131402975Y-107709800D01*
X131037025Y-107709800D01*
X130863640Y-107726877D01*
X130641172Y-107794362D01*
X130436144Y-107903952D01*
X130256435Y-108051435D01*
X130108952Y-108231144D01*
X129999362Y-108436172D01*
X129931877Y-108658640D01*
X129909090Y-108890000D01*
X129931877Y-109121360D01*
X129999362Y-109343828D01*
X130108952Y-109548856D01*
X130256435Y-109728565D01*
X130436144Y-109876048D01*
X130641172Y-109985638D01*
X130863640Y-110053123D01*
X131037025Y-110070200D01*
X131402975Y-110070200D01*
X131576360Y-110053123D01*
X131798828Y-109985638D01*
X132003856Y-109876048D01*
X132183565Y-109728565D01*
X132288090Y-109601200D01*
X137771910Y-109601200D01*
X137876435Y-109728565D01*
X138056144Y-109876048D01*
X138261172Y-109985638D01*
X138483640Y-110053123D01*
X138657025Y-110070200D01*
X139022975Y-110070200D01*
X139196360Y-110053123D01*
X139418828Y-109985638D01*
X139623856Y-109876048D01*
X139803565Y-109728565D01*
X139908090Y-109601200D01*
X141582574Y-109601200D01*
X141617500Y-109604640D01*
X141652426Y-109601200D01*
X141652436Y-109601200D01*
X141756920Y-109590909D01*
X141890981Y-109550242D01*
X142014533Y-109484202D01*
X142122827Y-109395327D01*
X142145102Y-109368185D01*
X144659089Y-106854200D01*
X145000772Y-106854200D01*
X144916519Y-106879758D01*
X144792967Y-106945798D01*
X144711808Y-107012403D01*
X144711804Y-107012407D01*
X144684673Y-107034673D01*
X144662407Y-107061804D01*
X141045413Y-110678800D01*
X139908090Y-110678800D01*
X139803565Y-110551435D01*
X139623856Y-110403952D01*
X139418828Y-110294362D01*
X139196360Y-110226877D01*
X139022975Y-110209800D01*
X138657025Y-110209800D01*
X138483640Y-110226877D01*
X138261172Y-110294362D01*
X138056144Y-110403952D01*
X137876435Y-110551435D01*
X137771910Y-110678800D01*
X132288090Y-110678800D01*
X132183565Y-110551435D01*
X132003856Y-110403952D01*
X131798828Y-110294362D01*
X131576360Y-110226877D01*
X131402975Y-110209800D01*
X131037025Y-110209800D01*
X130863640Y-110226877D01*
X130641172Y-110294362D01*
X130436144Y-110403952D01*
X130256435Y-110551435D01*
X130108952Y-110731144D01*
X129999362Y-110936172D01*
X129931877Y-111158640D01*
X129909090Y-111390000D01*
X129931877Y-111621360D01*
X129999362Y-111843828D01*
X130108952Y-112048856D01*
X130256435Y-112228565D01*
X130436144Y-112376048D01*
X130641172Y-112485638D01*
X130863640Y-112553123D01*
X131037025Y-112570200D01*
X131402975Y-112570200D01*
X131576360Y-112553123D01*
X131798828Y-112485638D01*
X132003856Y-112376048D01*
X132183565Y-112228565D01*
X132288090Y-112101200D01*
X137771910Y-112101200D01*
X137876435Y-112228565D01*
X138056144Y-112376048D01*
X138261172Y-112485638D01*
X138483640Y-112553123D01*
X138657025Y-112570200D01*
X139022975Y-112570200D01*
X139196360Y-112553123D01*
X139418828Y-112485638D01*
X139623856Y-112376048D01*
X139803565Y-112228565D01*
X139908090Y-112101200D01*
X141305074Y-112101200D01*
X141340000Y-112104640D01*
X141374926Y-112101200D01*
X141374936Y-112101200D01*
X141479420Y-112090909D01*
X141613481Y-112050242D01*
X141737033Y-111984202D01*
X141845327Y-111895327D01*
X141867602Y-111868185D01*
X145484589Y-108251200D01*
X158199315Y-108251200D01*
X158311772Y-108388228D01*
X158493551Y-108537411D01*
X158700942Y-108648264D01*
X158925974Y-108716526D01*
X159101356Y-108733800D01*
X159218644Y-108733800D01*
X159394026Y-108716526D01*
X159571532Y-108662681D01*
X159386856Y-108847357D01*
X159358918Y-108841800D01*
X159215082Y-108841800D01*
X159119562Y-108860800D01*
X158438438Y-108860800D01*
X158342918Y-108841800D01*
X158199082Y-108841800D01*
X158103562Y-108860800D01*
X157422438Y-108860800D01*
X157326918Y-108841800D01*
X157183082Y-108841800D01*
X157042009Y-108869861D01*
X156909121Y-108924905D01*
X156789525Y-109004817D01*
X156687817Y-109106525D01*
X156607905Y-109226121D01*
X156552861Y-109359009D01*
X156524800Y-109500082D01*
X156524800Y-109643918D01*
X156552861Y-109784991D01*
X156607905Y-109917879D01*
X156687817Y-110037475D01*
X156789525Y-110139183D01*
X156909121Y-110219095D01*
X157042009Y-110274139D01*
X157183082Y-110302200D01*
X157326918Y-110302200D01*
X157422438Y-110283200D01*
X158103562Y-110283200D01*
X158199082Y-110302200D01*
X158342918Y-110302200D01*
X158438438Y-110283200D01*
X159119562Y-110283200D01*
X159215082Y-110302200D01*
X159358918Y-110302200D01*
X159454438Y-110283200D01*
X159633074Y-110283200D01*
X159668000Y-110286640D01*
X159702926Y-110283200D01*
X159702936Y-110283200D01*
X159807420Y-110272909D01*
X159941481Y-110232242D01*
X160065033Y-110166202D01*
X160173327Y-110077327D01*
X160195602Y-110050185D01*
X161510391Y-108735397D01*
X162563600Y-108735397D01*
X162628330Y-108729022D01*
X162690573Y-108710140D01*
X162747937Y-108679479D01*
X162798216Y-108638216D01*
X162839479Y-108587937D01*
X162870140Y-108530573D01*
X162889022Y-108468330D01*
X162895397Y-108403600D01*
X162895397Y-106676400D01*
X162889022Y-106611670D01*
X162870140Y-106549427D01*
X162839479Y-106492063D01*
X162798216Y-106441784D01*
X162747937Y-106400521D01*
X162690573Y-106369860D01*
X162628330Y-106350978D01*
X162563600Y-106344603D01*
X160836400Y-106344603D01*
X160771670Y-106350978D01*
X160709427Y-106369860D01*
X160652063Y-106400521D01*
X160601784Y-106441784D01*
X160560521Y-106492063D01*
X160529860Y-106549427D01*
X160510978Y-106611670D01*
X160504603Y-106676400D01*
X160504603Y-107729609D01*
X160282681Y-107951532D01*
X160336526Y-107774026D01*
X160359576Y-107540000D01*
X160336526Y-107305974D01*
X160268264Y-107080942D01*
X160157411Y-106873551D01*
X160008228Y-106691772D01*
X159826449Y-106542589D01*
X159619058Y-106431736D01*
X159394026Y-106363474D01*
X159218644Y-106346200D01*
X159101356Y-106346200D01*
X158925974Y-106363474D01*
X158700942Y-106431736D01*
X158493551Y-106542589D01*
X158311772Y-106691772D01*
X158199315Y-106828800D01*
X156936228Y-106828800D01*
X157020481Y-106803242D01*
X157144033Y-106737202D01*
X157252327Y-106648327D01*
X157274602Y-106621185D01*
X158184588Y-105711200D01*
X158199315Y-105711200D01*
X158311772Y-105848228D01*
X158493551Y-105997411D01*
X158700942Y-106108264D01*
X158925974Y-106176526D01*
X159101356Y-106193800D01*
X159218644Y-106193800D01*
X159394026Y-106176526D01*
X159619058Y-106108264D01*
X159826449Y-105997411D01*
X160008228Y-105848228D01*
X160157411Y-105666449D01*
X160192612Y-105600591D01*
X160668279Y-105600591D01*
X160750292Y-105723369D01*
X160909663Y-105894748D01*
X161099406Y-106031743D01*
X161268200Y-106030444D01*
X161268200Y-105431800D01*
X162131800Y-105431800D01*
X162131800Y-106030444D01*
X162300594Y-106031743D01*
X162490337Y-105894748D01*
X162649708Y-105723369D01*
X162731721Y-105600591D01*
X162723926Y-105431800D01*
X162131800Y-105431800D01*
X161268200Y-105431800D01*
X160676074Y-105431800D01*
X160668279Y-105600591D01*
X160192612Y-105600591D01*
X160268264Y-105459058D01*
X160336526Y-105234026D01*
X160359576Y-105000000D01*
X160336526Y-104765974D01*
X160268264Y-104540942D01*
X160192613Y-104399409D01*
X160668279Y-104399409D01*
X160676074Y-104568200D01*
X161268200Y-104568200D01*
X161268200Y-103969556D01*
X162131800Y-103969556D01*
X162131800Y-104568200D01*
X162723926Y-104568200D01*
X162731721Y-104399409D01*
X162649708Y-104276631D01*
X162490337Y-104105252D01*
X162300594Y-103968257D01*
X162131800Y-103969556D01*
X161268200Y-103969556D01*
X161099406Y-103968257D01*
X160909663Y-104105252D01*
X160750292Y-104276631D01*
X160668279Y-104399409D01*
X160192613Y-104399409D01*
X160157411Y-104333551D01*
X160008228Y-104151772D01*
X159826449Y-104002589D01*
X159619058Y-103891736D01*
X159394026Y-103823474D01*
X159218644Y-103806200D01*
X159101356Y-103806200D01*
X158925974Y-103823474D01*
X158700942Y-103891736D01*
X158493551Y-104002589D01*
X158311772Y-104151772D01*
X158199315Y-104288800D01*
X157924925Y-104288800D01*
X157889999Y-104285360D01*
X157855073Y-104288800D01*
X157855064Y-104288800D01*
X157750580Y-104299091D01*
X157616519Y-104339758D01*
X157492967Y-104405798D01*
X157384673Y-104494673D01*
X157362403Y-104521809D01*
X156452413Y-105431800D01*
X151792437Y-105431800D01*
X151885879Y-105393095D01*
X152005475Y-105313183D01*
X152107183Y-105211475D01*
X152187095Y-105091879D01*
X152242139Y-104958991D01*
X152270200Y-104817918D01*
X152270200Y-104674082D01*
X152242139Y-104533009D01*
X152187095Y-104400121D01*
X152107183Y-104280525D01*
X152005475Y-104178817D01*
X151885879Y-104098905D01*
X151752991Y-104043861D01*
X151611918Y-104015800D01*
X151468082Y-104015800D01*
X151372562Y-104034800D01*
X150691438Y-104034800D01*
X150595918Y-104015800D01*
X150452082Y-104015800D01*
X150356562Y-104034800D01*
X149675438Y-104034800D01*
X149579918Y-104015800D01*
X149436082Y-104015800D01*
X149340562Y-104034800D01*
X143573925Y-104034800D01*
X143538999Y-104031360D01*
X143504073Y-104034800D01*
X143504064Y-104034800D01*
X143399580Y-104045091D01*
X143265519Y-104085758D01*
X143141967Y-104151798D01*
X143033673Y-104240673D01*
X143011403Y-104267809D01*
X141600413Y-105678800D01*
X139908090Y-105678800D01*
X139803565Y-105551435D01*
X139623856Y-105403952D01*
X139418828Y-105294362D01*
X139196360Y-105226877D01*
X139022975Y-105209800D01*
X138657025Y-105209800D01*
X138483640Y-105226877D01*
X138261172Y-105294362D01*
X138056144Y-105403952D01*
X137876435Y-105551435D01*
X137771910Y-105678800D01*
X132288090Y-105678800D01*
X132183565Y-105551435D01*
X132003856Y-105403952D01*
X131798828Y-105294362D01*
X131576360Y-105226877D01*
X131402975Y-105209800D01*
X131037025Y-105209800D01*
X130863640Y-105226877D01*
X130641172Y-105294362D01*
X130436144Y-105403952D01*
X130256435Y-105551435D01*
X130108952Y-105731144D01*
X129999362Y-105936172D01*
X129931877Y-106158640D01*
X129909090Y-106390000D01*
X125482599Y-106390000D01*
X125482599Y-103482600D01*
X134023707Y-103482600D01*
X134045252Y-103480478D01*
X134057703Y-103480565D01*
X134064409Y-103479907D01*
X134452601Y-103439106D01*
X134495413Y-103430318D01*
X134538414Y-103422115D01*
X134544864Y-103420167D01*
X134917739Y-103304743D01*
X134958057Y-103287795D01*
X134998617Y-103271408D01*
X135004566Y-103268245D01*
X135347922Y-103082594D01*
X135384195Y-103058127D01*
X135420785Y-103034183D01*
X135426007Y-103029924D01*
X135726762Y-102781118D01*
X135757597Y-102750066D01*
X135788833Y-102719478D01*
X135793128Y-102714286D01*
X136039829Y-102411801D01*
X136064020Y-102375391D01*
X136088747Y-102339278D01*
X136091951Y-102333351D01*
X136275201Y-101988710D01*
X136291869Y-101948272D01*
X136309101Y-101908065D01*
X136311094Y-101901628D01*
X136423911Y-101527957D01*
X136432408Y-101485045D01*
X136441501Y-101442265D01*
X136442206Y-101435564D01*
X136480296Y-101047095D01*
X136480296Y-101047091D01*
X136482599Y-101023708D01*
X136482599Y-96110000D01*
X137504090Y-96110000D01*
X137526877Y-96341360D01*
X137594362Y-96563828D01*
X137703952Y-96768856D01*
X137851435Y-96948565D01*
X138031144Y-97096048D01*
X138236172Y-97205638D01*
X138458640Y-97273123D01*
X138632025Y-97290200D01*
X139047975Y-97290200D01*
X139221360Y-97273123D01*
X139443828Y-97205638D01*
X139648856Y-97096048D01*
X139828565Y-96948565D01*
X139976048Y-96768856D01*
X140014472Y-96696971D01*
X140135401Y-96817900D01*
X140135400Y-97610295D01*
X140133065Y-97634000D01*
X140135400Y-97657705D01*
X140135400Y-97657706D01*
X140142383Y-97728605D01*
X140169978Y-97819576D01*
X140214791Y-97903415D01*
X140275099Y-97976901D01*
X140293518Y-97992017D01*
X140428901Y-98127400D01*
X140171797Y-98127400D01*
X140171797Y-98010000D01*
X140160618Y-97896497D01*
X140127510Y-97787356D01*
X140073747Y-97686771D01*
X140001393Y-97598607D01*
X139913229Y-97526253D01*
X139812644Y-97472490D01*
X139703503Y-97439382D01*
X139590000Y-97428203D01*
X138090000Y-97428203D01*
X137976497Y-97439382D01*
X137867356Y-97472490D01*
X137766771Y-97526253D01*
X137678607Y-97598607D01*
X137606253Y-97686771D01*
X137552490Y-97787356D01*
X137519382Y-97896497D01*
X137508203Y-98010000D01*
X137508203Y-99210000D01*
X137519382Y-99323503D01*
X137552490Y-99432644D01*
X137606253Y-99533229D01*
X137678607Y-99621393D01*
X137766771Y-99693747D01*
X137867356Y-99747510D01*
X137976497Y-99780618D01*
X138090000Y-99791797D01*
X139590000Y-99791797D01*
X139703503Y-99780618D01*
X139812644Y-99747510D01*
X139913229Y-99693747D01*
X140001393Y-99621393D01*
X140073747Y-99533229D01*
X140127510Y-99432644D01*
X140160618Y-99323503D01*
X140171797Y-99210000D01*
X140171797Y-99092600D01*
X140378101Y-99092600D01*
X144069983Y-102784482D01*
X144085099Y-102802901D01*
X144158585Y-102863209D01*
X144242423Y-102908022D01*
X144333394Y-102935617D01*
X144404293Y-102942600D01*
X144404294Y-102942600D01*
X144427999Y-102944935D01*
X144451704Y-102942600D01*
X158064319Y-102942600D01*
X158162589Y-103126449D01*
X158311772Y-103308228D01*
X158493551Y-103457411D01*
X158700942Y-103568264D01*
X158925974Y-103636526D01*
X159101356Y-103653800D01*
X159218644Y-103653800D01*
X159394026Y-103636526D01*
X159619058Y-103568264D01*
X159826449Y-103457411D01*
X160008228Y-103308228D01*
X160157411Y-103126449D01*
X160268264Y-102919058D01*
X160336526Y-102694026D01*
X160359576Y-102460000D01*
X160336526Y-102225974D01*
X160268264Y-102000942D01*
X160157411Y-101793551D01*
X160008228Y-101611772D01*
X159826449Y-101462589D01*
X159744152Y-101418600D01*
X159976101Y-101418600D01*
X160583987Y-102026486D01*
X160523474Y-102225974D01*
X160500424Y-102460000D01*
X160523474Y-102694026D01*
X160591736Y-102919058D01*
X160702589Y-103126449D01*
X160851772Y-103308228D01*
X161033551Y-103457411D01*
X161240942Y-103568264D01*
X161465974Y-103636526D01*
X161641356Y-103653800D01*
X161758644Y-103653800D01*
X161934026Y-103636526D01*
X162159058Y-103568264D01*
X162366449Y-103457411D01*
X162548228Y-103308228D01*
X162697411Y-103126449D01*
X162808264Y-102919058D01*
X162876526Y-102694026D01*
X162899576Y-102460000D01*
X162876526Y-102225974D01*
X162808264Y-102000942D01*
X162697411Y-101793551D01*
X162548228Y-101611772D01*
X162366449Y-101462589D01*
X162159058Y-101351736D01*
X161934026Y-101283474D01*
X161758644Y-101266200D01*
X161641356Y-101266200D01*
X161465974Y-101283474D01*
X161266486Y-101343987D01*
X160534017Y-100611518D01*
X160518901Y-100593099D01*
X160445415Y-100532791D01*
X160361577Y-100487978D01*
X160270606Y-100460383D01*
X160199707Y-100453400D01*
X160199705Y-100453400D01*
X160176000Y-100451065D01*
X160152295Y-100453400D01*
X158421707Y-100453400D01*
X158398000Y-100451065D01*
X158303393Y-100460383D01*
X158212423Y-100487978D01*
X158128585Y-100532791D01*
X158055099Y-100593099D01*
X158039987Y-100611513D01*
X157436101Y-101215400D01*
X144881900Y-101215400D01*
X141100600Y-97434101D01*
X141100600Y-96641696D01*
X141102934Y-96617999D01*
X141100600Y-96594302D01*
X141100600Y-96594293D01*
X141093617Y-96523394D01*
X141066022Y-96432423D01*
X141021209Y-96348585D01*
X140960901Y-96275099D01*
X140942482Y-96259983D01*
X140468017Y-95785518D01*
X140452901Y-95767099D01*
X140379415Y-95706791D01*
X140295577Y-95661978D01*
X140204606Y-95634383D01*
X140133707Y-95627400D01*
X140133705Y-95627400D01*
X140110000Y-95625065D01*
X140086295Y-95627400D01*
X140070259Y-95627400D01*
X139976048Y-95451144D01*
X139828565Y-95271435D01*
X139648856Y-95123952D01*
X139443828Y-95014362D01*
X139221360Y-94946877D01*
X139047975Y-94929800D01*
X138632025Y-94929800D01*
X138458640Y-94946877D01*
X138236172Y-95014362D01*
X138031144Y-95123952D01*
X137851435Y-95271435D01*
X137703952Y-95451144D01*
X137594362Y-95656172D01*
X137526877Y-95878640D01*
X137504090Y-96110000D01*
X136482599Y-96110000D01*
X136482599Y-94445474D01*
X143369800Y-94445474D01*
X143369800Y-95554526D01*
X143586166Y-96642269D01*
X144010582Y-97666900D01*
X144626738Y-98589043D01*
X145410957Y-99373262D01*
X146333100Y-99989418D01*
X147357731Y-100413834D01*
X148445474Y-100630200D01*
X149554526Y-100630200D01*
X150642269Y-100413834D01*
X151666900Y-99989418D01*
X152589043Y-99373262D01*
X153373262Y-98589043D01*
X153989418Y-97666900D01*
X154413834Y-96642269D01*
X154630200Y-95554526D01*
X154630200Y-94445474D01*
X154413834Y-93357731D01*
X153989418Y-92333100D01*
X153373262Y-91410957D01*
X152589043Y-90626738D01*
X151666900Y-90010582D01*
X150642269Y-89586166D01*
X149554526Y-89369800D01*
X148445474Y-89369800D01*
X147357731Y-89586166D01*
X146333100Y-90010582D01*
X145410957Y-90626738D01*
X144626738Y-91410957D01*
X144010582Y-92333100D01*
X143586166Y-93357731D01*
X143369800Y-94445474D01*
X136482599Y-94445474D01*
X136482599Y-93482599D01*
X140406864Y-93482599D01*
X140425916Y-93480722D01*
X140737716Y-93455912D01*
X140776417Y-93448984D01*
X140815363Y-93443303D01*
X140821892Y-93441639D01*
X141199449Y-93342595D01*
X141240471Y-93327421D01*
X141281703Y-93312821D01*
X141287785Y-93309921D01*
X141638914Y-93139429D01*
X141676209Y-93116576D01*
X141713819Y-93094246D01*
X141719217Y-93090222D01*
X141719223Y-93090219D01*
X141719228Y-93090215D01*
X142030549Y-92854774D01*
X142062700Y-92825107D01*
X142095252Y-92795901D01*
X142099770Y-92790901D01*
X142359436Y-92499469D01*
X142385198Y-92464142D01*
X142411472Y-92429150D01*
X142414932Y-92423368D01*
X142613046Y-92087051D01*
X142614557Y-92083796D01*
X142619056Y-92076568D01*
X143129152Y-91158221D01*
X143745226Y-90350971D01*
X144471384Y-89641105D01*
X145292407Y-89043502D01*
X146191099Y-88570677D01*
X147148628Y-88232538D01*
X148144952Y-88036165D01*
X149159179Y-87985673D01*
X150170067Y-88082121D01*
X150170067Y-88082121D01*
G37*
X150170067Y-88082121D02*
X151156458Y-88323489D01*
X152097664Y-88704716D01*
X152973980Y-89217821D01*
X153767050Y-89852054D01*
X154460257Y-90594128D01*
X155039080Y-91428499D01*
X155491393Y-92337683D01*
X155807724Y-93302646D01*
X155982383Y-94308579D01*
X156017443Y-95012850D01*
X156017453Y-95015656D01*
X156017708Y-95018162D01*
X156017998Y-95023995D01*
X156019581Y-95036891D01*
X156019436Y-95057703D01*
X156020094Y-95064409D01*
X156060895Y-95452601D01*
X156069683Y-95495413D01*
X156077886Y-95538414D01*
X156079834Y-95544864D01*
X156195258Y-95917739D01*
X156212206Y-95958057D01*
X156228593Y-95998617D01*
X156231756Y-96004566D01*
X156417407Y-96347922D01*
X156441874Y-96384195D01*
X156465818Y-96420785D01*
X156470077Y-96426007D01*
X156718883Y-96726762D01*
X156749935Y-96757597D01*
X156780523Y-96788833D01*
X156785715Y-96793128D01*
X157088200Y-97039829D01*
X157124610Y-97064020D01*
X157160723Y-97088747D01*
X157166650Y-97091951D01*
X157511291Y-97275201D01*
X157551729Y-97291869D01*
X157591936Y-97309101D01*
X157598373Y-97311094D01*
X157972044Y-97423911D01*
X158014956Y-97432408D01*
X158057736Y-97441501D01*
X158064437Y-97442206D01*
X158452906Y-97480296D01*
X158452910Y-97480296D01*
X158476293Y-97482599D01*
X164517400Y-97482599D01*
X164517401Y-112517400D01*
X158476293Y-112517400D01*
X158454748Y-112519522D01*
X158442297Y-112519435D01*
X158435591Y-112520093D01*
X158047398Y-112560894D01*
X158004580Y-112569683D01*
X157961586Y-112577885D01*
X157955136Y-112579833D01*
X157582260Y-112695256D01*
X157541921Y-112712213D01*
X157501382Y-112728592D01*
X157495437Y-112731753D01*
X157495433Y-112731755D01*
X157495432Y-112731756D01*
X157152078Y-112917407D01*
X157115843Y-112941848D01*
X157079215Y-112965816D01*
X157073994Y-112970075D01*
X156773238Y-113218882D01*
X156742402Y-113249934D01*
X156711166Y-113280523D01*
X156706871Y-113285714D01*
X156460170Y-113588199D01*
X156435957Y-113624643D01*
X156411252Y-113660723D01*
X156408047Y-113666650D01*
X156224797Y-114011292D01*
X156208123Y-114051747D01*
X156190898Y-114091936D01*
X156188905Y-114098373D01*
X156076087Y-114472045D01*
X156067586Y-114514980D01*
X156058498Y-114557736D01*
X156057793Y-114564437D01*
X156019703Y-114952906D01*
X156019703Y-114956622D01*
X156018665Y-114965075D01*
X155942642Y-116012821D01*
X155723718Y-117004424D01*
X155363941Y-117954041D01*
X154870850Y-118841774D01*
X154254776Y-119649024D01*
X153528615Y-120358893D01*
X152707593Y-120956497D01*
X151808901Y-121429322D01*
X150851372Y-121767461D01*
X149855048Y-121963834D01*
X148840821Y-122014326D01*
X147829934Y-121917878D01*
X146843543Y-121676510D01*
X145902337Y-121295283D01*
X145026021Y-120782179D01*
X144232951Y-120147945D01*
X143539744Y-119405871D01*
X142957785Y-118566980D01*
X142624321Y-117933185D01*
X142621985Y-117929432D01*
X142620739Y-117926504D01*
X142617467Y-117920614D01*
X142461470Y-117644333D01*
X142438875Y-117612125D01*
X142417339Y-117579214D01*
X142413080Y-117573992D01*
X142164273Y-117273237D01*
X142133240Y-117242420D01*
X142102633Y-117211165D01*
X142097441Y-117206870D01*
X141794955Y-116960169D01*
X141758518Y-116935961D01*
X141722432Y-116911252D01*
X141716505Y-116908047D01*
X141371863Y-116724798D01*
X141331442Y-116708138D01*
X141291221Y-116690899D01*
X141284785Y-116688907D01*
X140911112Y-116576088D01*
X140868215Y-116567594D01*
X140825419Y-116558497D01*
X140818722Y-116557793D01*
X140818718Y-116557793D01*
X140430249Y-116519704D01*
X140430247Y-116519704D01*
X140406864Y-116517401D01*
X125482599Y-116517401D01*
X125482599Y-114740000D01*
X129913202Y-114740000D01*
X129919577Y-114804731D01*
X129938459Y-114866974D01*
X129969120Y-114924337D01*
X130010383Y-114974617D01*
X130060663Y-115015880D01*
X130118026Y-115046541D01*
X130180269Y-115065423D01*
X130245000Y-115071798D01*
X130705650Y-115070200D01*
X130788200Y-114987650D01*
X130788200Y-114321800D01*
X131651800Y-114321800D01*
X131651800Y-114987650D01*
X131734350Y-115070200D01*
X132195000Y-115071798D01*
X132259731Y-115065423D01*
X132321974Y-115046541D01*
X132379337Y-115015880D01*
X132429617Y-114974617D01*
X132470880Y-114924337D01*
X132501541Y-114866974D01*
X132520423Y-114804731D01*
X132526798Y-114740000D01*
X137533202Y-114740000D01*
X137539577Y-114804731D01*
X137558459Y-114866974D01*
X137589120Y-114924337D01*
X137630383Y-114974617D01*
X137680663Y-115015880D01*
X137738026Y-115046541D01*
X137800269Y-115065423D01*
X137865000Y-115071798D01*
X138325650Y-115070200D01*
X138408200Y-114987650D01*
X138408200Y-114321800D01*
X139271800Y-114321800D01*
X139271800Y-114987650D01*
X139354350Y-115070200D01*
X139815000Y-115071798D01*
X139879731Y-115065423D01*
X139941974Y-115046541D01*
X139999337Y-115015880D01*
X140049617Y-114974617D01*
X140090880Y-114924337D01*
X140121541Y-114866974D01*
X140140423Y-114804731D01*
X140146798Y-114740000D01*
X140145396Y-114445474D01*
X143369800Y-114445474D01*
X143369800Y-115554526D01*
X143586166Y-116642269D01*
X144010582Y-117666900D01*
X144626738Y-118589043D01*
X145410957Y-119373262D01*
X146333100Y-119989418D01*
X147357731Y-120413834D01*
X148445474Y-120630200D01*
X149554526Y-120630200D01*
X150642269Y-120413834D01*
X151666900Y-119989418D01*
X152589043Y-119373262D01*
X153373262Y-118589043D01*
X153989418Y-117666900D01*
X154413834Y-116642269D01*
X154630200Y-115554526D01*
X154630200Y-114445474D01*
X154413834Y-113357731D01*
X153989418Y-112333100D01*
X153373262Y-111410957D01*
X152589043Y-110626738D01*
X151666900Y-110010582D01*
X150642269Y-109586166D01*
X149554526Y-109369800D01*
X148445474Y-109369800D01*
X147357731Y-109586166D01*
X146333100Y-110010582D01*
X145410957Y-110626738D01*
X144626738Y-111410957D01*
X144010582Y-112333100D01*
X143586166Y-113357731D01*
X143369800Y-114445474D01*
X140145396Y-114445474D01*
X140145200Y-114404350D01*
X140062650Y-114321800D01*
X139271800Y-114321800D01*
X138408200Y-114321800D01*
X137617350Y-114321800D01*
X137534800Y-114404350D01*
X137533202Y-114740000D01*
X132526798Y-114740000D01*
X132525200Y-114404350D01*
X132442650Y-114321800D01*
X131651800Y-114321800D01*
X130788200Y-114321800D01*
X129997350Y-114321800D01*
X129914800Y-114404350D01*
X129913202Y-114740000D01*
X125482599Y-114740000D01*
X125482599Y-113040000D01*
X129913202Y-113040000D01*
X129914800Y-113375650D01*
X129997350Y-113458200D01*
X130788200Y-113458200D01*
X130788200Y-112792350D01*
X131651800Y-112792350D01*
X131651800Y-113458200D01*
X132442650Y-113458200D01*
X132525200Y-113375650D01*
X132526798Y-113040000D01*
X137533202Y-113040000D01*
X137534800Y-113375650D01*
X137617350Y-113458200D01*
X138408200Y-113458200D01*
X138408200Y-112792350D01*
X139271800Y-112792350D01*
X139271800Y-113458200D01*
X140062650Y-113458200D01*
X140145200Y-113375650D01*
X140146798Y-113040000D01*
X140140423Y-112975269D01*
X140121541Y-112913026D01*
X140090880Y-112855663D01*
X140049617Y-112805383D01*
X139999337Y-112764120D01*
X139941974Y-112733459D01*
X139879731Y-112714577D01*
X139815000Y-112708202D01*
X139354350Y-112709800D01*
X139271800Y-112792350D01*
X138408200Y-112792350D01*
X138325650Y-112709800D01*
X137865000Y-112708202D01*
X137800269Y-112714577D01*
X137738026Y-112733459D01*
X137680663Y-112764120D01*
X137630383Y-112805383D01*
X137589120Y-112855663D01*
X137558459Y-112913026D01*
X137539577Y-112975269D01*
X137533202Y-113040000D01*
X132526798Y-113040000D01*
X132520423Y-112975269D01*
X132501541Y-112913026D01*
X132470880Y-112855663D01*
X132429617Y-112805383D01*
X132379337Y-112764120D01*
X132321974Y-112733459D01*
X132259731Y-112714577D01*
X132195000Y-112708202D01*
X131734350Y-112709800D01*
X131651800Y-112792350D01*
X130788200Y-112792350D01*
X130705650Y-112709800D01*
X130245000Y-112708202D01*
X130180269Y-112714577D01*
X130118026Y-112733459D01*
X130060663Y-112764120D01*
X130010383Y-112805383D01*
X129969120Y-112855663D01*
X129938459Y-112913026D01*
X129919577Y-112975269D01*
X129913202Y-113040000D01*
X125482599Y-113040000D01*
X125482599Y-106390000D01*
X129909090Y-106390000D01*
X129931877Y-106621360D01*
X129999362Y-106843828D01*
X130108952Y-107048856D01*
X130256435Y-107228565D01*
X130436144Y-107376048D01*
X130641172Y-107485638D01*
X130863640Y-107553123D01*
X131037025Y-107570200D01*
X131402975Y-107570200D01*
X131576360Y-107553123D01*
X131798828Y-107485638D01*
X132003856Y-107376048D01*
X132183565Y-107228565D01*
X132288090Y-107101200D01*
X137771910Y-107101200D01*
X137876435Y-107228565D01*
X138056144Y-107376048D01*
X138261172Y-107485638D01*
X138483640Y-107553123D01*
X138657025Y-107570200D01*
X139022975Y-107570200D01*
X139196360Y-107553123D01*
X139418828Y-107485638D01*
X139623856Y-107376048D01*
X139803565Y-107228565D01*
X139908090Y-107101200D01*
X141860074Y-107101200D01*
X141895000Y-107104640D01*
X141929926Y-107101200D01*
X141929936Y-107101200D01*
X142034420Y-107090909D01*
X142168481Y-107050242D01*
X142292033Y-106984202D01*
X142400327Y-106895327D01*
X142422602Y-106868185D01*
X143833588Y-105457200D01*
X144175272Y-105457200D01*
X144091018Y-105482758D01*
X143967467Y-105548798D01*
X143886309Y-105615402D01*
X143886304Y-105615407D01*
X143859173Y-105637673D01*
X143836907Y-105664804D01*
X141322913Y-108178800D01*
X139908090Y-108178800D01*
X139803565Y-108051435D01*
X139623856Y-107903952D01*
X139418828Y-107794362D01*
X139196360Y-107726877D01*
X139022975Y-107709800D01*
X138657025Y-107709800D01*
X138483640Y-107726877D01*
X138261172Y-107794362D01*
X138056144Y-107903952D01*
X137876435Y-108051435D01*
X137771910Y-108178800D01*
X132288090Y-108178800D01*
X132183565Y-108051435D01*
X132003856Y-107903952D01*
X131798828Y-107794362D01*
X131576360Y-107726877D01*
X131402975Y-107709800D01*
X131037025Y-107709800D01*
X130863640Y-107726877D01*
X130641172Y-107794362D01*
X130436144Y-107903952D01*
X130256435Y-108051435D01*
X130108952Y-108231144D01*
X129999362Y-108436172D01*
X129931877Y-108658640D01*
X129909090Y-108890000D01*
X129931877Y-109121360D01*
X129999362Y-109343828D01*
X130108952Y-109548856D01*
X130256435Y-109728565D01*
X130436144Y-109876048D01*
X130641172Y-109985638D01*
X130863640Y-110053123D01*
X131037025Y-110070200D01*
X131402975Y-110070200D01*
X131576360Y-110053123D01*
X131798828Y-109985638D01*
X132003856Y-109876048D01*
X132183565Y-109728565D01*
X132288090Y-109601200D01*
X137771910Y-109601200D01*
X137876435Y-109728565D01*
X138056144Y-109876048D01*
X138261172Y-109985638D01*
X138483640Y-110053123D01*
X138657025Y-110070200D01*
X139022975Y-110070200D01*
X139196360Y-110053123D01*
X139418828Y-109985638D01*
X139623856Y-109876048D01*
X139803565Y-109728565D01*
X139908090Y-109601200D01*
X141582574Y-109601200D01*
X141617500Y-109604640D01*
X141652426Y-109601200D01*
X141652436Y-109601200D01*
X141756920Y-109590909D01*
X141890981Y-109550242D01*
X142014533Y-109484202D01*
X142122827Y-109395327D01*
X142145102Y-109368185D01*
X144659089Y-106854200D01*
X145000772Y-106854200D01*
X144916519Y-106879758D01*
X144792967Y-106945798D01*
X144711808Y-107012403D01*
X144711804Y-107012407D01*
X144684673Y-107034673D01*
X144662407Y-107061804D01*
X141045413Y-110678800D01*
X139908090Y-110678800D01*
X139803565Y-110551435D01*
X139623856Y-110403952D01*
X139418828Y-110294362D01*
X139196360Y-110226877D01*
X139022975Y-110209800D01*
X138657025Y-110209800D01*
X138483640Y-110226877D01*
X138261172Y-110294362D01*
X138056144Y-110403952D01*
X137876435Y-110551435D01*
X137771910Y-110678800D01*
X132288090Y-110678800D01*
X132183565Y-110551435D01*
X132003856Y-110403952D01*
X131798828Y-110294362D01*
X131576360Y-110226877D01*
X131402975Y-110209800D01*
X131037025Y-110209800D01*
X130863640Y-110226877D01*
X130641172Y-110294362D01*
X130436144Y-110403952D01*
X130256435Y-110551435D01*
X130108952Y-110731144D01*
X129999362Y-110936172D01*
X129931877Y-111158640D01*
X129909090Y-111390000D01*
X129931877Y-111621360D01*
X129999362Y-111843828D01*
X130108952Y-112048856D01*
X130256435Y-112228565D01*
X130436144Y-112376048D01*
X130641172Y-112485638D01*
X130863640Y-112553123D01*
X131037025Y-112570200D01*
X131402975Y-112570200D01*
X131576360Y-112553123D01*
X131798828Y-112485638D01*
X132003856Y-112376048D01*
X132183565Y-112228565D01*
X132288090Y-112101200D01*
X137771910Y-112101200D01*
X137876435Y-112228565D01*
X138056144Y-112376048D01*
X138261172Y-112485638D01*
X138483640Y-112553123D01*
X138657025Y-112570200D01*
X139022975Y-112570200D01*
X139196360Y-112553123D01*
X139418828Y-112485638D01*
X139623856Y-112376048D01*
X139803565Y-112228565D01*
X139908090Y-112101200D01*
X141305074Y-112101200D01*
X141340000Y-112104640D01*
X141374926Y-112101200D01*
X141374936Y-112101200D01*
X141479420Y-112090909D01*
X141613481Y-112050242D01*
X141737033Y-111984202D01*
X141845327Y-111895327D01*
X141867602Y-111868185D01*
X145484589Y-108251200D01*
X158199315Y-108251200D01*
X158311772Y-108388228D01*
X158493551Y-108537411D01*
X158700942Y-108648264D01*
X158925974Y-108716526D01*
X159101356Y-108733800D01*
X159218644Y-108733800D01*
X159394026Y-108716526D01*
X159571532Y-108662681D01*
X159386856Y-108847357D01*
X159358918Y-108841800D01*
X159215082Y-108841800D01*
X159119562Y-108860800D01*
X158438438Y-108860800D01*
X158342918Y-108841800D01*
X158199082Y-108841800D01*
X158103562Y-108860800D01*
X157422438Y-108860800D01*
X157326918Y-108841800D01*
X157183082Y-108841800D01*
X157042009Y-108869861D01*
X156909121Y-108924905D01*
X156789525Y-109004817D01*
X156687817Y-109106525D01*
X156607905Y-109226121D01*
X156552861Y-109359009D01*
X156524800Y-109500082D01*
X156524800Y-109643918D01*
X156552861Y-109784991D01*
X156607905Y-109917879D01*
X156687817Y-110037475D01*
X156789525Y-110139183D01*
X156909121Y-110219095D01*
X157042009Y-110274139D01*
X157183082Y-110302200D01*
X157326918Y-110302200D01*
X157422438Y-110283200D01*
X158103562Y-110283200D01*
X158199082Y-110302200D01*
X158342918Y-110302200D01*
X158438438Y-110283200D01*
X159119562Y-110283200D01*
X159215082Y-110302200D01*
X159358918Y-110302200D01*
X159454438Y-110283200D01*
X159633074Y-110283200D01*
X159668000Y-110286640D01*
X159702926Y-110283200D01*
X159702936Y-110283200D01*
X159807420Y-110272909D01*
X159941481Y-110232242D01*
X160065033Y-110166202D01*
X160173327Y-110077327D01*
X160195602Y-110050185D01*
X161510391Y-108735397D01*
X162563600Y-108735397D01*
X162628330Y-108729022D01*
X162690573Y-108710140D01*
X162747937Y-108679479D01*
X162798216Y-108638216D01*
X162839479Y-108587937D01*
X162870140Y-108530573D01*
X162889022Y-108468330D01*
X162895397Y-108403600D01*
X162895397Y-106676400D01*
X162889022Y-106611670D01*
X162870140Y-106549427D01*
X162839479Y-106492063D01*
X162798216Y-106441784D01*
X162747937Y-106400521D01*
X162690573Y-106369860D01*
X162628330Y-106350978D01*
X162563600Y-106344603D01*
X160836400Y-106344603D01*
X160771670Y-106350978D01*
X160709427Y-106369860D01*
X160652063Y-106400521D01*
X160601784Y-106441784D01*
X160560521Y-106492063D01*
X160529860Y-106549427D01*
X160510978Y-106611670D01*
X160504603Y-106676400D01*
X160504603Y-107729609D01*
X160282681Y-107951532D01*
X160336526Y-107774026D01*
X160359576Y-107540000D01*
X160336526Y-107305974D01*
X160268264Y-107080942D01*
X160157411Y-106873551D01*
X160008228Y-106691772D01*
X159826449Y-106542589D01*
X159619058Y-106431736D01*
X159394026Y-106363474D01*
X159218644Y-106346200D01*
X159101356Y-106346200D01*
X158925974Y-106363474D01*
X158700942Y-106431736D01*
X158493551Y-106542589D01*
X158311772Y-106691772D01*
X158199315Y-106828800D01*
X156936228Y-106828800D01*
X157020481Y-106803242D01*
X157144033Y-106737202D01*
X157252327Y-106648327D01*
X157274602Y-106621185D01*
X158184588Y-105711200D01*
X158199315Y-105711200D01*
X158311772Y-105848228D01*
X158493551Y-105997411D01*
X158700942Y-106108264D01*
X158925974Y-106176526D01*
X159101356Y-106193800D01*
X159218644Y-106193800D01*
X159394026Y-106176526D01*
X159619058Y-106108264D01*
X159826449Y-105997411D01*
X160008228Y-105848228D01*
X160157411Y-105666449D01*
X160192612Y-105600591D01*
X160668279Y-105600591D01*
X160750292Y-105723369D01*
X160909663Y-105894748D01*
X161099406Y-106031743D01*
X161268200Y-106030444D01*
X161268200Y-105431800D01*
X162131800Y-105431800D01*
X162131800Y-106030444D01*
X162300594Y-106031743D01*
X162490337Y-105894748D01*
X162649708Y-105723369D01*
X162731721Y-105600591D01*
X162723926Y-105431800D01*
X162131800Y-105431800D01*
X161268200Y-105431800D01*
X160676074Y-105431800D01*
X160668279Y-105600591D01*
X160192612Y-105600591D01*
X160268264Y-105459058D01*
X160336526Y-105234026D01*
X160359576Y-105000000D01*
X160336526Y-104765974D01*
X160268264Y-104540942D01*
X160192613Y-104399409D01*
X160668279Y-104399409D01*
X160676074Y-104568200D01*
X161268200Y-104568200D01*
X161268200Y-103969556D01*
X162131800Y-103969556D01*
X162131800Y-104568200D01*
X162723926Y-104568200D01*
X162731721Y-104399409D01*
X162649708Y-104276631D01*
X162490337Y-104105252D01*
X162300594Y-103968257D01*
X162131800Y-103969556D01*
X161268200Y-103969556D01*
X161099406Y-103968257D01*
X160909663Y-104105252D01*
X160750292Y-104276631D01*
X160668279Y-104399409D01*
X160192613Y-104399409D01*
X160157411Y-104333551D01*
X160008228Y-104151772D01*
X159826449Y-104002589D01*
X159619058Y-103891736D01*
X159394026Y-103823474D01*
X159218644Y-103806200D01*
X159101356Y-103806200D01*
X158925974Y-103823474D01*
X158700942Y-103891736D01*
X158493551Y-104002589D01*
X158311772Y-104151772D01*
X158199315Y-104288800D01*
X157924925Y-104288800D01*
X157889999Y-104285360D01*
X157855073Y-104288800D01*
X157855064Y-104288800D01*
X157750580Y-104299091D01*
X157616519Y-104339758D01*
X157492967Y-104405798D01*
X157384673Y-104494673D01*
X157362403Y-104521809D01*
X156452413Y-105431800D01*
X151792437Y-105431800D01*
X151885879Y-105393095D01*
X152005475Y-105313183D01*
X152107183Y-105211475D01*
X152187095Y-105091879D01*
X152242139Y-104958991D01*
X152270200Y-104817918D01*
X152270200Y-104674082D01*
X152242139Y-104533009D01*
X152187095Y-104400121D01*
X152107183Y-104280525D01*
X152005475Y-104178817D01*
X151885879Y-104098905D01*
X151752991Y-104043861D01*
X151611918Y-104015800D01*
X151468082Y-104015800D01*
X151372562Y-104034800D01*
X150691438Y-104034800D01*
X150595918Y-104015800D01*
X150452082Y-104015800D01*
X150356562Y-104034800D01*
X149675438Y-104034800D01*
X149579918Y-104015800D01*
X149436082Y-104015800D01*
X149340562Y-104034800D01*
X143573925Y-104034800D01*
X143538999Y-104031360D01*
X143504073Y-104034800D01*
X143504064Y-104034800D01*
X143399580Y-104045091D01*
X143265519Y-104085758D01*
X143141967Y-104151798D01*
X143033673Y-104240673D01*
X143011403Y-104267809D01*
X141600413Y-105678800D01*
X139908090Y-105678800D01*
X139803565Y-105551435D01*
X139623856Y-105403952D01*
X139418828Y-105294362D01*
X139196360Y-105226877D01*
X139022975Y-105209800D01*
X138657025Y-105209800D01*
X138483640Y-105226877D01*
X138261172Y-105294362D01*
X138056144Y-105403952D01*
X137876435Y-105551435D01*
X137771910Y-105678800D01*
X132288090Y-105678800D01*
X132183565Y-105551435D01*
X132003856Y-105403952D01*
X131798828Y-105294362D01*
X131576360Y-105226877D01*
X131402975Y-105209800D01*
X131037025Y-105209800D01*
X130863640Y-105226877D01*
X130641172Y-105294362D01*
X130436144Y-105403952D01*
X130256435Y-105551435D01*
X130108952Y-105731144D01*
X129999362Y-105936172D01*
X129931877Y-106158640D01*
X129909090Y-106390000D01*
X125482599Y-106390000D01*
X125482599Y-103482600D01*
X134023707Y-103482600D01*
X134045252Y-103480478D01*
X134057703Y-103480565D01*
X134064409Y-103479907D01*
X134452601Y-103439106D01*
X134495413Y-103430318D01*
X134538414Y-103422115D01*
X134544864Y-103420167D01*
X134917739Y-103304743D01*
X134958057Y-103287795D01*
X134998617Y-103271408D01*
X135004566Y-103268245D01*
X135347922Y-103082594D01*
X135384195Y-103058127D01*
X135420785Y-103034183D01*
X135426007Y-103029924D01*
X135726762Y-102781118D01*
X135757597Y-102750066D01*
X135788833Y-102719478D01*
X135793128Y-102714286D01*
X136039829Y-102411801D01*
X136064020Y-102375391D01*
X136088747Y-102339278D01*
X136091951Y-102333351D01*
X136275201Y-101988710D01*
X136291869Y-101948272D01*
X136309101Y-101908065D01*
X136311094Y-101901628D01*
X136423911Y-101527957D01*
X136432408Y-101485045D01*
X136441501Y-101442265D01*
X136442206Y-101435564D01*
X136480296Y-101047095D01*
X136480296Y-101047091D01*
X136482599Y-101023708D01*
X136482599Y-96110000D01*
X137504090Y-96110000D01*
X137526877Y-96341360D01*
X137594362Y-96563828D01*
X137703952Y-96768856D01*
X137851435Y-96948565D01*
X138031144Y-97096048D01*
X138236172Y-97205638D01*
X138458640Y-97273123D01*
X138632025Y-97290200D01*
X139047975Y-97290200D01*
X139221360Y-97273123D01*
X139443828Y-97205638D01*
X139648856Y-97096048D01*
X139828565Y-96948565D01*
X139976048Y-96768856D01*
X140014472Y-96696971D01*
X140135401Y-96817900D01*
X140135400Y-97610295D01*
X140133065Y-97634000D01*
X140135400Y-97657705D01*
X140135400Y-97657706D01*
X140142383Y-97728605D01*
X140169978Y-97819576D01*
X140214791Y-97903415D01*
X140275099Y-97976901D01*
X140293518Y-97992017D01*
X140428901Y-98127400D01*
X140171797Y-98127400D01*
X140171797Y-98010000D01*
X140160618Y-97896497D01*
X140127510Y-97787356D01*
X140073747Y-97686771D01*
X140001393Y-97598607D01*
X139913229Y-97526253D01*
X139812644Y-97472490D01*
X139703503Y-97439382D01*
X139590000Y-97428203D01*
X138090000Y-97428203D01*
X137976497Y-97439382D01*
X137867356Y-97472490D01*
X137766771Y-97526253D01*
X137678607Y-97598607D01*
X137606253Y-97686771D01*
X137552490Y-97787356D01*
X137519382Y-97896497D01*
X137508203Y-98010000D01*
X137508203Y-99210000D01*
X137519382Y-99323503D01*
X137552490Y-99432644D01*
X137606253Y-99533229D01*
X137678607Y-99621393D01*
X137766771Y-99693747D01*
X137867356Y-99747510D01*
X137976497Y-99780618D01*
X138090000Y-99791797D01*
X139590000Y-99791797D01*
X139703503Y-99780618D01*
X139812644Y-99747510D01*
X139913229Y-99693747D01*
X140001393Y-99621393D01*
X140073747Y-99533229D01*
X140127510Y-99432644D01*
X140160618Y-99323503D01*
X140171797Y-99210000D01*
X140171797Y-99092600D01*
X140378101Y-99092600D01*
X144069983Y-102784482D01*
X144085099Y-102802901D01*
X144158585Y-102863209D01*
X144242423Y-102908022D01*
X144333394Y-102935617D01*
X144404293Y-102942600D01*
X144404294Y-102942600D01*
X144427999Y-102944935D01*
X144451704Y-102942600D01*
X158064319Y-102942600D01*
X158162589Y-103126449D01*
X158311772Y-103308228D01*
X158493551Y-103457411D01*
X158700942Y-103568264D01*
X158925974Y-103636526D01*
X159101356Y-103653800D01*
X159218644Y-103653800D01*
X159394026Y-103636526D01*
X159619058Y-103568264D01*
X159826449Y-103457411D01*
X160008228Y-103308228D01*
X160157411Y-103126449D01*
X160268264Y-102919058D01*
X160336526Y-102694026D01*
X160359576Y-102460000D01*
X160336526Y-102225974D01*
X160268264Y-102000942D01*
X160157411Y-101793551D01*
X160008228Y-101611772D01*
X159826449Y-101462589D01*
X159744152Y-101418600D01*
X159976101Y-101418600D01*
X160583987Y-102026486D01*
X160523474Y-102225974D01*
X160500424Y-102460000D01*
X160523474Y-102694026D01*
X160591736Y-102919058D01*
X160702589Y-103126449D01*
X160851772Y-103308228D01*
X161033551Y-103457411D01*
X161240942Y-103568264D01*
X161465974Y-103636526D01*
X161641356Y-103653800D01*
X161758644Y-103653800D01*
X161934026Y-103636526D01*
X162159058Y-103568264D01*
X162366449Y-103457411D01*
X162548228Y-103308228D01*
X162697411Y-103126449D01*
X162808264Y-102919058D01*
X162876526Y-102694026D01*
X162899576Y-102460000D01*
X162876526Y-102225974D01*
X162808264Y-102000942D01*
X162697411Y-101793551D01*
X162548228Y-101611772D01*
X162366449Y-101462589D01*
X162159058Y-101351736D01*
X161934026Y-101283474D01*
X161758644Y-101266200D01*
X161641356Y-101266200D01*
X161465974Y-101283474D01*
X161266486Y-101343987D01*
X160534017Y-100611518D01*
X160518901Y-100593099D01*
X160445415Y-100532791D01*
X160361577Y-100487978D01*
X160270606Y-100460383D01*
X160199707Y-100453400D01*
X160199705Y-100453400D01*
X160176000Y-100451065D01*
X160152295Y-100453400D01*
X158421707Y-100453400D01*
X158398000Y-100451065D01*
X158303393Y-100460383D01*
X158212423Y-100487978D01*
X158128585Y-100532791D01*
X158055099Y-100593099D01*
X158039987Y-100611513D01*
X157436101Y-101215400D01*
X144881900Y-101215400D01*
X141100600Y-97434101D01*
X141100600Y-96641696D01*
X141102934Y-96617999D01*
X141100600Y-96594302D01*
X141100600Y-96594293D01*
X141093617Y-96523394D01*
X141066022Y-96432423D01*
X141021209Y-96348585D01*
X140960901Y-96275099D01*
X140942482Y-96259983D01*
X140468017Y-95785518D01*
X140452901Y-95767099D01*
X140379415Y-95706791D01*
X140295577Y-95661978D01*
X140204606Y-95634383D01*
X140133707Y-95627400D01*
X140133705Y-95627400D01*
X140110000Y-95625065D01*
X140086295Y-95627400D01*
X140070259Y-95627400D01*
X139976048Y-95451144D01*
X139828565Y-95271435D01*
X139648856Y-95123952D01*
X139443828Y-95014362D01*
X139221360Y-94946877D01*
X139047975Y-94929800D01*
X138632025Y-94929800D01*
X138458640Y-94946877D01*
X138236172Y-95014362D01*
X138031144Y-95123952D01*
X137851435Y-95271435D01*
X137703952Y-95451144D01*
X137594362Y-95656172D01*
X137526877Y-95878640D01*
X137504090Y-96110000D01*
X136482599Y-96110000D01*
X136482599Y-94445474D01*
X143369800Y-94445474D01*
X143369800Y-95554526D01*
X143586166Y-96642269D01*
X144010582Y-97666900D01*
X144626738Y-98589043D01*
X145410957Y-99373262D01*
X146333100Y-99989418D01*
X147357731Y-100413834D01*
X148445474Y-100630200D01*
X149554526Y-100630200D01*
X150642269Y-100413834D01*
X151666900Y-99989418D01*
X152589043Y-99373262D01*
X153373262Y-98589043D01*
X153989418Y-97666900D01*
X154413834Y-96642269D01*
X154630200Y-95554526D01*
X154630200Y-94445474D01*
X154413834Y-93357731D01*
X153989418Y-92333100D01*
X153373262Y-91410957D01*
X152589043Y-90626738D01*
X151666900Y-90010582D01*
X150642269Y-89586166D01*
X149554526Y-89369800D01*
X148445474Y-89369800D01*
X147357731Y-89586166D01*
X146333100Y-90010582D01*
X145410957Y-90626738D01*
X144626738Y-91410957D01*
X144010582Y-92333100D01*
X143586166Y-93357731D01*
X143369800Y-94445474D01*
X136482599Y-94445474D01*
X136482599Y-93482599D01*
X140406864Y-93482599D01*
X140425916Y-93480722D01*
X140737716Y-93455912D01*
X140776417Y-93448984D01*
X140815363Y-93443303D01*
X140821892Y-93441639D01*
X141199449Y-93342595D01*
X141240471Y-93327421D01*
X141281703Y-93312821D01*
X141287785Y-93309921D01*
X141638914Y-93139429D01*
X141676209Y-93116576D01*
X141713819Y-93094246D01*
X141719217Y-93090222D01*
X141719223Y-93090219D01*
X141719228Y-93090215D01*
X142030549Y-92854774D01*
X142062700Y-92825107D01*
X142095252Y-92795901D01*
X142099770Y-92790901D01*
X142359436Y-92499469D01*
X142385198Y-92464142D01*
X142411472Y-92429150D01*
X142414932Y-92423368D01*
X142613046Y-92087051D01*
X142614557Y-92083796D01*
X142619056Y-92076568D01*
X143129152Y-91158221D01*
X143745226Y-90350971D01*
X144471384Y-89641105D01*
X145292407Y-89043502D01*
X146191099Y-88570677D01*
X147148628Y-88232538D01*
X148144952Y-88036165D01*
X149159179Y-87985673D01*
X150170067Y-88082121D01*
M02*
