G04 #@! TF.GenerationSoftware,KiCad,Pcbnew,(5.1.4)-1*
G04 #@! TF.CreationDate,2020-03-27T15:17:00-04:00*
G04 #@! TF.ProjectId,heatbed_breakout,68656174-6265-4645-9f62-7265616b6f75,rev?*
G04 #@! TF.SameCoordinates,PX8b91fb0PY68e7780*
G04 #@! TF.FileFunction,Paste,Top*
G04 #@! TF.FilePolarity,Positive*
%FSLAX46Y46*%
G04 Gerber Fmt 4.6, Leading zero omitted, Abs format (unit mm)*
G04 Created by KiCad (PCBNEW (5.1.4)-1) date 2020-03-27 15:17:00*
%MOMM*%
%LPD*%
G04 APERTURE LIST*
%ADD10C,0.100000*%
%ADD11C,0.950000*%
G04 APERTURE END LIST*
D10*
G36*
X6610779Y2188856D02*
G01*
X6633834Y2185437D01*
X6656443Y2179773D01*
X6678387Y2171921D01*
X6699457Y2161956D01*
X6719448Y2149974D01*
X6738168Y2136090D01*
X6755438Y2120438D01*
X6771090Y2103168D01*
X6784974Y2084448D01*
X6796956Y2064457D01*
X6806921Y2043387D01*
X6814773Y2021443D01*
X6820437Y1998834D01*
X6823856Y1975779D01*
X6825000Y1952500D01*
X6825000Y1377500D01*
X6823856Y1354221D01*
X6820437Y1331166D01*
X6814773Y1308557D01*
X6806921Y1286613D01*
X6796956Y1265543D01*
X6784974Y1245552D01*
X6771090Y1226832D01*
X6755438Y1209562D01*
X6738168Y1193910D01*
X6719448Y1180026D01*
X6699457Y1168044D01*
X6678387Y1158079D01*
X6656443Y1150227D01*
X6633834Y1144563D01*
X6610779Y1141144D01*
X6587500Y1140000D01*
X6112500Y1140000D01*
X6089221Y1141144D01*
X6066166Y1144563D01*
X6043557Y1150227D01*
X6021613Y1158079D01*
X6000543Y1168044D01*
X5980552Y1180026D01*
X5961832Y1193910D01*
X5944562Y1209562D01*
X5928910Y1226832D01*
X5915026Y1245552D01*
X5903044Y1265543D01*
X5893079Y1286613D01*
X5885227Y1308557D01*
X5879563Y1331166D01*
X5876144Y1354221D01*
X5875000Y1377500D01*
X5875000Y1952500D01*
X5876144Y1975779D01*
X5879563Y1998834D01*
X5885227Y2021443D01*
X5893079Y2043387D01*
X5903044Y2064457D01*
X5915026Y2084448D01*
X5928910Y2103168D01*
X5944562Y2120438D01*
X5961832Y2136090D01*
X5980552Y2149974D01*
X6000543Y2161956D01*
X6021613Y2171921D01*
X6043557Y2179773D01*
X6066166Y2185437D01*
X6089221Y2188856D01*
X6112500Y2190000D01*
X6587500Y2190000D01*
X6610779Y2188856D01*
X6610779Y2188856D01*
G37*
D11*
X6350000Y1665000D03*
D10*
G36*
X6610779Y3938856D02*
G01*
X6633834Y3935437D01*
X6656443Y3929773D01*
X6678387Y3921921D01*
X6699457Y3911956D01*
X6719448Y3899974D01*
X6738168Y3886090D01*
X6755438Y3870438D01*
X6771090Y3853168D01*
X6784974Y3834448D01*
X6796956Y3814457D01*
X6806921Y3793387D01*
X6814773Y3771443D01*
X6820437Y3748834D01*
X6823856Y3725779D01*
X6825000Y3702500D01*
X6825000Y3127500D01*
X6823856Y3104221D01*
X6820437Y3081166D01*
X6814773Y3058557D01*
X6806921Y3036613D01*
X6796956Y3015543D01*
X6784974Y2995552D01*
X6771090Y2976832D01*
X6755438Y2959562D01*
X6738168Y2943910D01*
X6719448Y2930026D01*
X6699457Y2918044D01*
X6678387Y2908079D01*
X6656443Y2900227D01*
X6633834Y2894563D01*
X6610779Y2891144D01*
X6587500Y2890000D01*
X6112500Y2890000D01*
X6089221Y2891144D01*
X6066166Y2894563D01*
X6043557Y2900227D01*
X6021613Y2908079D01*
X6000543Y2918044D01*
X5980552Y2930026D01*
X5961832Y2943910D01*
X5944562Y2959562D01*
X5928910Y2976832D01*
X5915026Y2995552D01*
X5903044Y3015543D01*
X5893079Y3036613D01*
X5885227Y3058557D01*
X5879563Y3081166D01*
X5876144Y3104221D01*
X5875000Y3127500D01*
X5875000Y3702500D01*
X5876144Y3725779D01*
X5879563Y3748834D01*
X5885227Y3771443D01*
X5893079Y3793387D01*
X5903044Y3814457D01*
X5915026Y3834448D01*
X5928910Y3853168D01*
X5944562Y3870438D01*
X5961832Y3886090D01*
X5980552Y3899974D01*
X6000543Y3911956D01*
X6021613Y3921921D01*
X6043557Y3929773D01*
X6066166Y3935437D01*
X6089221Y3938856D01*
X6112500Y3940000D01*
X6587500Y3940000D01*
X6610779Y3938856D01*
X6610779Y3938856D01*
G37*
D11*
X6350000Y3415000D03*
D10*
G36*
X6610779Y-1141144D02*
G01*
X6633834Y-1144563D01*
X6656443Y-1150227D01*
X6678387Y-1158079D01*
X6699457Y-1168044D01*
X6719448Y-1180026D01*
X6738168Y-1193910D01*
X6755438Y-1209562D01*
X6771090Y-1226832D01*
X6784974Y-1245552D01*
X6796956Y-1265543D01*
X6806921Y-1286613D01*
X6814773Y-1308557D01*
X6820437Y-1331166D01*
X6823856Y-1354221D01*
X6825000Y-1377500D01*
X6825000Y-1952500D01*
X6823856Y-1975779D01*
X6820437Y-1998834D01*
X6814773Y-2021443D01*
X6806921Y-2043387D01*
X6796956Y-2064457D01*
X6784974Y-2084448D01*
X6771090Y-2103168D01*
X6755438Y-2120438D01*
X6738168Y-2136090D01*
X6719448Y-2149974D01*
X6699457Y-2161956D01*
X6678387Y-2171921D01*
X6656443Y-2179773D01*
X6633834Y-2185437D01*
X6610779Y-2188856D01*
X6587500Y-2190000D01*
X6112500Y-2190000D01*
X6089221Y-2188856D01*
X6066166Y-2185437D01*
X6043557Y-2179773D01*
X6021613Y-2171921D01*
X6000543Y-2161956D01*
X5980552Y-2149974D01*
X5961832Y-2136090D01*
X5944562Y-2120438D01*
X5928910Y-2103168D01*
X5915026Y-2084448D01*
X5903044Y-2064457D01*
X5893079Y-2043387D01*
X5885227Y-2021443D01*
X5879563Y-1998834D01*
X5876144Y-1975779D01*
X5875000Y-1952500D01*
X5875000Y-1377500D01*
X5876144Y-1354221D01*
X5879563Y-1331166D01*
X5885227Y-1308557D01*
X5893079Y-1286613D01*
X5903044Y-1265543D01*
X5915026Y-1245552D01*
X5928910Y-1226832D01*
X5944562Y-1209562D01*
X5961832Y-1193910D01*
X5980552Y-1180026D01*
X6000543Y-1168044D01*
X6021613Y-1158079D01*
X6043557Y-1150227D01*
X6066166Y-1144563D01*
X6089221Y-1141144D01*
X6112500Y-1140000D01*
X6587500Y-1140000D01*
X6610779Y-1141144D01*
X6610779Y-1141144D01*
G37*
D11*
X6350000Y-1665000D03*
D10*
G36*
X6610779Y-2891144D02*
G01*
X6633834Y-2894563D01*
X6656443Y-2900227D01*
X6678387Y-2908079D01*
X6699457Y-2918044D01*
X6719448Y-2930026D01*
X6738168Y-2943910D01*
X6755438Y-2959562D01*
X6771090Y-2976832D01*
X6784974Y-2995552D01*
X6796956Y-3015543D01*
X6806921Y-3036613D01*
X6814773Y-3058557D01*
X6820437Y-3081166D01*
X6823856Y-3104221D01*
X6825000Y-3127500D01*
X6825000Y-3702500D01*
X6823856Y-3725779D01*
X6820437Y-3748834D01*
X6814773Y-3771443D01*
X6806921Y-3793387D01*
X6796956Y-3814457D01*
X6784974Y-3834448D01*
X6771090Y-3853168D01*
X6755438Y-3870438D01*
X6738168Y-3886090D01*
X6719448Y-3899974D01*
X6699457Y-3911956D01*
X6678387Y-3921921D01*
X6656443Y-3929773D01*
X6633834Y-3935437D01*
X6610779Y-3938856D01*
X6587500Y-3940000D01*
X6112500Y-3940000D01*
X6089221Y-3938856D01*
X6066166Y-3935437D01*
X6043557Y-3929773D01*
X6021613Y-3921921D01*
X6000543Y-3911956D01*
X5980552Y-3899974D01*
X5961832Y-3886090D01*
X5944562Y-3870438D01*
X5928910Y-3853168D01*
X5915026Y-3834448D01*
X5903044Y-3814457D01*
X5893079Y-3793387D01*
X5885227Y-3771443D01*
X5879563Y-3748834D01*
X5876144Y-3725779D01*
X5875000Y-3702500D01*
X5875000Y-3127500D01*
X5876144Y-3104221D01*
X5879563Y-3081166D01*
X5885227Y-3058557D01*
X5893079Y-3036613D01*
X5903044Y-3015543D01*
X5915026Y-2995552D01*
X5928910Y-2976832D01*
X5944562Y-2959562D01*
X5961832Y-2943910D01*
X5980552Y-2930026D01*
X6000543Y-2918044D01*
X6021613Y-2908079D01*
X6043557Y-2900227D01*
X6066166Y-2894563D01*
X6089221Y-2891144D01*
X6112500Y-2890000D01*
X6587500Y-2890000D01*
X6610779Y-2891144D01*
X6610779Y-2891144D01*
G37*
D11*
X6350000Y-3415000D03*
M02*
