G04 #@! TF.GenerationSoftware,KiCad,Pcbnew,(5.1.4)-1*
G04 #@! TF.CreationDate,2020-03-27T15:17:00-04:00*
G04 #@! TF.ProjectId,heatbed_breakout,68656174-6265-4645-9f62-7265616b6f75,rev?*
G04 #@! TF.SameCoordinates,PX8b91fb0PY68e7780*
G04 #@! TF.FileFunction,Legend,Top*
G04 #@! TF.FilePolarity,Positive*
%FSLAX46Y46*%
G04 Gerber Fmt 4.6, Leading zero omitted, Abs format (unit mm)*
G04 Created by KiCad (PCBNEW (5.1.4)-1) date 2020-03-27 15:17:00*
%MOMM*%
%LPD*%
G04 APERTURE LIST*
%ADD10C,0.254000*%
%ADD11C,0.750000*%
%ADD12C,0.120000*%
%ADD13C,0.100000*%
%ADD14C,6.102000*%
%ADD15C,10.702000*%
%ADD16C,1.052000*%
%ADD17O,2.102000X1.802000*%
%ADD18C,1.802000*%
%ADD19O,1.829200X1.829200*%
%ADD20R,1.829200X1.829200*%
G04 APERTURE END LIST*
D10*
X-42290983Y-1250000D02*
G75*
G03X-42290983Y-1250000I-559017J0D01*
G01*
D11*
X3750000Y7500000D02*
X3750000Y-4000000D01*
X-3750000Y7500000D02*
X-3750000Y-4000000D01*
D12*
X5840000Y2711267D02*
X5840000Y2368733D01*
X6860000Y2711267D02*
X6860000Y2368733D01*
X3385000Y-9596000D02*
X2135000Y-9596000D01*
X3385000Y-10846000D02*
X3385000Y-9596000D01*
X-2115000Y-16746000D02*
X-2115000Y-13696000D01*
X835000Y-16746000D02*
X-2115000Y-16746000D01*
X835000Y-17496000D02*
X835000Y-16746000D01*
X-2115000Y-10646000D02*
X-2115000Y-13696000D01*
X835000Y-10646000D02*
X-2115000Y-10646000D01*
X835000Y-9896000D02*
X835000Y-10646000D01*
X3085000Y-17496000D02*
X3085000Y-15696000D01*
X2335000Y-17496000D02*
X3085000Y-17496000D01*
X2335000Y-15696000D02*
X2335000Y-17496000D01*
X3085000Y-15696000D02*
X2335000Y-15696000D01*
X3085000Y-11696000D02*
X3085000Y-9896000D01*
X2335000Y-11696000D02*
X3085000Y-11696000D01*
X2335000Y-9896000D02*
X2335000Y-11696000D01*
X3085000Y-9896000D02*
X2335000Y-9896000D01*
X3085000Y-14196000D02*
X3085000Y-13196000D01*
X2335000Y-14196000D02*
X3085000Y-14196000D01*
X2335000Y-13196000D02*
X2335000Y-14196000D01*
X3085000Y-13196000D02*
X2335000Y-13196000D01*
X3095000Y-17506000D02*
X3095000Y-9886000D01*
X-2875000Y-17506000D02*
X3095000Y-17506000D01*
X-2875000Y-9886000D02*
X-2875000Y-17506000D01*
X3095000Y-9886000D02*
X-2875000Y-9886000D01*
X-49415000Y-4925000D02*
X-49415000Y-2385000D01*
X-49415000Y-4925000D02*
X-46875000Y-4925000D01*
X-49165000Y-4675000D02*
X-49165000Y4675000D01*
X-7985000Y-4675000D02*
X-49165000Y-4675000D01*
X-7985000Y4675000D02*
X-7985000Y-4675000D01*
X-49165000Y4675000D02*
X-7985000Y4675000D01*
X7085000Y-4200000D02*
X7085000Y-1740000D01*
X5615000Y-4200000D02*
X7085000Y-4200000D01*
X5615000Y-1740000D02*
X5615000Y-4200000D01*
%LPC*%
D13*
G36*
X2500610Y6623062D02*
G01*
X2559844Y6614275D01*
X2617932Y6599725D01*
X2674313Y6579551D01*
X2728446Y6553948D01*
X2779809Y6523163D01*
X2827907Y6487491D01*
X2872277Y6447277D01*
X2912491Y6402907D01*
X2948163Y6354809D01*
X2978948Y6303446D01*
X3004551Y6249313D01*
X3024725Y6192932D01*
X3039275Y6134844D01*
X3048062Y6075610D01*
X3051000Y6015800D01*
X3051000Y1134200D01*
X3048062Y1074390D01*
X3039275Y1015156D01*
X3024725Y957068D01*
X3004551Y900687D01*
X2978948Y846554D01*
X2948163Y795191D01*
X2912491Y747093D01*
X2872277Y702723D01*
X2827907Y662509D01*
X2779809Y626837D01*
X2728446Y596052D01*
X2674313Y570449D01*
X2617932Y550275D01*
X2559844Y535725D01*
X2500610Y526938D01*
X2440800Y524000D01*
X-2440800Y524000D01*
X-2500610Y526938D01*
X-2559844Y535725D01*
X-2617932Y550275D01*
X-2674313Y570449D01*
X-2728446Y596052D01*
X-2779809Y626837D01*
X-2827907Y662509D01*
X-2872277Y702723D01*
X-2912491Y747093D01*
X-2948163Y795191D01*
X-2978948Y846554D01*
X-3004551Y900687D01*
X-3024725Y957068D01*
X-3039275Y1015156D01*
X-3048062Y1074390D01*
X-3051000Y1134200D01*
X-3051000Y6015800D01*
X-3048062Y6075610D01*
X-3039275Y6134844D01*
X-3024725Y6192932D01*
X-3004551Y6249313D01*
X-2978948Y6303446D01*
X-2948163Y6354809D01*
X-2912491Y6402907D01*
X-2872277Y6447277D01*
X-2827907Y6487491D01*
X-2779809Y6523163D01*
X-2728446Y6553948D01*
X-2674313Y6579551D01*
X-2617932Y6599725D01*
X-2559844Y6614275D01*
X-2500610Y6623062D01*
X-2440800Y6626000D01*
X2440800Y6626000D01*
X2500610Y6623062D01*
X2500610Y6623062D01*
G37*
D14*
X0Y3575000D03*
D13*
G36*
X2500610Y-526938D02*
G01*
X2559844Y-535725D01*
X2617932Y-550275D01*
X2674313Y-570449D01*
X2728446Y-596052D01*
X2779809Y-626837D01*
X2827907Y-662509D01*
X2872277Y-702723D01*
X2912491Y-747093D01*
X2948163Y-795191D01*
X2978948Y-846554D01*
X3004551Y-900687D01*
X3024725Y-957068D01*
X3039275Y-1015156D01*
X3048062Y-1074390D01*
X3051000Y-1134200D01*
X3051000Y-6015800D01*
X3048062Y-6075610D01*
X3039275Y-6134844D01*
X3024725Y-6192932D01*
X3004551Y-6249313D01*
X2978948Y-6303446D01*
X2948163Y-6354809D01*
X2912491Y-6402907D01*
X2872277Y-6447277D01*
X2827907Y-6487491D01*
X2779809Y-6523163D01*
X2728446Y-6553948D01*
X2674313Y-6579551D01*
X2617932Y-6599725D01*
X2559844Y-6614275D01*
X2500610Y-6623062D01*
X2440800Y-6626000D01*
X-2440800Y-6626000D01*
X-2500610Y-6623062D01*
X-2559844Y-6614275D01*
X-2617932Y-6599725D01*
X-2674313Y-6579551D01*
X-2728446Y-6553948D01*
X-2779809Y-6523163D01*
X-2827907Y-6487491D01*
X-2872277Y-6447277D01*
X-2912491Y-6402907D01*
X-2948163Y-6354809D01*
X-2978948Y-6303446D01*
X-3004551Y-6249313D01*
X-3024725Y-6192932D01*
X-3039275Y-6134844D01*
X-3048062Y-6075610D01*
X-3051000Y-6015800D01*
X-3051000Y-1134200D01*
X-3048062Y-1074390D01*
X-3039275Y-1015156D01*
X-3024725Y-957068D01*
X-3004551Y-900687D01*
X-2978948Y-846554D01*
X-2948163Y-795191D01*
X-2912491Y-747093D01*
X-2872277Y-702723D01*
X-2827907Y-662509D01*
X-2779809Y-626837D01*
X-2728446Y-596052D01*
X-2674313Y-570449D01*
X-2617932Y-550275D01*
X-2559844Y-535725D01*
X-2500610Y-526938D01*
X-2440800Y-524000D01*
X2440800Y-524000D01*
X2500610Y-526938D01*
X2500610Y-526938D01*
G37*
D14*
X0Y-3575000D03*
D15*
X13650000Y0D03*
X-56350000Y0D03*
D13*
G36*
X6638779Y2239734D02*
G01*
X6664309Y2235947D01*
X6689345Y2229675D01*
X6713646Y2220980D01*
X6736977Y2209945D01*
X6759115Y2196677D01*
X6779845Y2181302D01*
X6798969Y2163969D01*
X6816302Y2144845D01*
X6831677Y2124115D01*
X6844945Y2101977D01*
X6855980Y2078646D01*
X6864675Y2054345D01*
X6870947Y2029309D01*
X6874734Y2003779D01*
X6876000Y1978000D01*
X6876000Y1352000D01*
X6874734Y1326221D01*
X6870947Y1300691D01*
X6864675Y1275655D01*
X6855980Y1251354D01*
X6844945Y1228023D01*
X6831677Y1205885D01*
X6816302Y1185155D01*
X6798969Y1166031D01*
X6779845Y1148698D01*
X6759115Y1133323D01*
X6736977Y1120055D01*
X6713646Y1109020D01*
X6689345Y1100325D01*
X6664309Y1094053D01*
X6638779Y1090266D01*
X6613000Y1089000D01*
X6087000Y1089000D01*
X6061221Y1090266D01*
X6035691Y1094053D01*
X6010655Y1100325D01*
X5986354Y1109020D01*
X5963023Y1120055D01*
X5940885Y1133323D01*
X5920155Y1148698D01*
X5901031Y1166031D01*
X5883698Y1185155D01*
X5868323Y1205885D01*
X5855055Y1228023D01*
X5844020Y1251354D01*
X5835325Y1275655D01*
X5829053Y1300691D01*
X5825266Y1326221D01*
X5824000Y1352000D01*
X5824000Y1978000D01*
X5825266Y2003779D01*
X5829053Y2029309D01*
X5835325Y2054345D01*
X5844020Y2078646D01*
X5855055Y2101977D01*
X5868323Y2124115D01*
X5883698Y2144845D01*
X5901031Y2163969D01*
X5920155Y2181302D01*
X5940885Y2196677D01*
X5963023Y2209945D01*
X5986354Y2220980D01*
X6010655Y2229675D01*
X6035691Y2235947D01*
X6061221Y2239734D01*
X6087000Y2241000D01*
X6613000Y2241000D01*
X6638779Y2239734D01*
X6638779Y2239734D01*
G37*
D16*
X6350000Y1665000D03*
D13*
G36*
X6638779Y3989734D02*
G01*
X6664309Y3985947D01*
X6689345Y3979675D01*
X6713646Y3970980D01*
X6736977Y3959945D01*
X6759115Y3946677D01*
X6779845Y3931302D01*
X6798969Y3913969D01*
X6816302Y3894845D01*
X6831677Y3874115D01*
X6844945Y3851977D01*
X6855980Y3828646D01*
X6864675Y3804345D01*
X6870947Y3779309D01*
X6874734Y3753779D01*
X6876000Y3728000D01*
X6876000Y3102000D01*
X6874734Y3076221D01*
X6870947Y3050691D01*
X6864675Y3025655D01*
X6855980Y3001354D01*
X6844945Y2978023D01*
X6831677Y2955885D01*
X6816302Y2935155D01*
X6798969Y2916031D01*
X6779845Y2898698D01*
X6759115Y2883323D01*
X6736977Y2870055D01*
X6713646Y2859020D01*
X6689345Y2850325D01*
X6664309Y2844053D01*
X6638779Y2840266D01*
X6613000Y2839000D01*
X6087000Y2839000D01*
X6061221Y2840266D01*
X6035691Y2844053D01*
X6010655Y2850325D01*
X5986354Y2859020D01*
X5963023Y2870055D01*
X5940885Y2883323D01*
X5920155Y2898698D01*
X5901031Y2916031D01*
X5883698Y2935155D01*
X5868323Y2955885D01*
X5855055Y2978023D01*
X5844020Y3001354D01*
X5835325Y3025655D01*
X5829053Y3050691D01*
X5825266Y3076221D01*
X5824000Y3102000D01*
X5824000Y3728000D01*
X5825266Y3753779D01*
X5829053Y3779309D01*
X5835325Y3804345D01*
X5844020Y3828646D01*
X5855055Y3851977D01*
X5868323Y3874115D01*
X5883698Y3894845D01*
X5901031Y3913969D01*
X5920155Y3931302D01*
X5940885Y3946677D01*
X5963023Y3959945D01*
X5986354Y3970980D01*
X6010655Y3979675D01*
X6035691Y3985947D01*
X6061221Y3989734D01*
X6087000Y3991000D01*
X6613000Y3991000D01*
X6638779Y3989734D01*
X6638779Y3989734D01*
G37*
D16*
X6350000Y3415000D03*
D17*
X635000Y-14946000D03*
D13*
G36*
X1446975Y-11546276D02*
G01*
X1472699Y-11550092D01*
X1497925Y-11556411D01*
X1522411Y-11565172D01*
X1545920Y-11576291D01*
X1568226Y-11589661D01*
X1589114Y-11605152D01*
X1608383Y-11622617D01*
X1625848Y-11641886D01*
X1641339Y-11662774D01*
X1654709Y-11685080D01*
X1665828Y-11708589D01*
X1674589Y-11733075D01*
X1680908Y-11758301D01*
X1684724Y-11784025D01*
X1686000Y-11810000D01*
X1686000Y-13082000D01*
X1684724Y-13107975D01*
X1680908Y-13133699D01*
X1674589Y-13158925D01*
X1665828Y-13183411D01*
X1654709Y-13206920D01*
X1641339Y-13229226D01*
X1625848Y-13250114D01*
X1608383Y-13269383D01*
X1589114Y-13286848D01*
X1568226Y-13302339D01*
X1545920Y-13315709D01*
X1522411Y-13326828D01*
X1497925Y-13335589D01*
X1472699Y-13341908D01*
X1446975Y-13345724D01*
X1421000Y-13347000D01*
X-151000Y-13347000D01*
X-176975Y-13345724D01*
X-202699Y-13341908D01*
X-227925Y-13335589D01*
X-252411Y-13326828D01*
X-275920Y-13315709D01*
X-298226Y-13302339D01*
X-319114Y-13286848D01*
X-338383Y-13269383D01*
X-355848Y-13250114D01*
X-371339Y-13229226D01*
X-384709Y-13206920D01*
X-395828Y-13183411D01*
X-404589Y-13158925D01*
X-410908Y-13133699D01*
X-414724Y-13107975D01*
X-416000Y-13082000D01*
X-416000Y-11810000D01*
X-414724Y-11784025D01*
X-410908Y-11758301D01*
X-404589Y-11733075D01*
X-395828Y-11708589D01*
X-384709Y-11685080D01*
X-371339Y-11662774D01*
X-355848Y-11641886D01*
X-338383Y-11622617D01*
X-319114Y-11605152D01*
X-298226Y-11589661D01*
X-275920Y-11576291D01*
X-252411Y-11565172D01*
X-227925Y-11556411D01*
X-202699Y-11550092D01*
X-176975Y-11546276D01*
X-151000Y-11545000D01*
X1421000Y-11545000D01*
X1446975Y-11546276D01*
X1446975Y-11546276D01*
G37*
D18*
X635000Y-12446000D03*
D19*
X-13335000Y1270000D03*
X-13335000Y-1270000D03*
X-15875000Y1270000D03*
X-15875000Y-1270000D03*
X-18415000Y1270000D03*
X-18415000Y-1270000D03*
X-20955000Y1270000D03*
X-20955000Y-1270000D03*
X-23495000Y1270000D03*
X-23495000Y-1270000D03*
X-26035000Y1270000D03*
X-26035000Y-1270000D03*
X-28575000Y1270000D03*
X-28575000Y-1270000D03*
X-31115000Y1270000D03*
X-31115000Y-1270000D03*
X-33655000Y1270000D03*
X-33655000Y-1270000D03*
X-36195000Y1270000D03*
X-36195000Y-1270000D03*
X-38735000Y1270000D03*
X-38735000Y-1270000D03*
X-41275000Y1270000D03*
X-41275000Y-1270000D03*
X-43815000Y1270000D03*
D20*
X-43815000Y-1270000D03*
D13*
G36*
X6638779Y-1090266D02*
G01*
X6664309Y-1094053D01*
X6689345Y-1100325D01*
X6713646Y-1109020D01*
X6736977Y-1120055D01*
X6759115Y-1133323D01*
X6779845Y-1148698D01*
X6798969Y-1166031D01*
X6816302Y-1185155D01*
X6831677Y-1205885D01*
X6844945Y-1228023D01*
X6855980Y-1251354D01*
X6864675Y-1275655D01*
X6870947Y-1300691D01*
X6874734Y-1326221D01*
X6876000Y-1352000D01*
X6876000Y-1978000D01*
X6874734Y-2003779D01*
X6870947Y-2029309D01*
X6864675Y-2054345D01*
X6855980Y-2078646D01*
X6844945Y-2101977D01*
X6831677Y-2124115D01*
X6816302Y-2144845D01*
X6798969Y-2163969D01*
X6779845Y-2181302D01*
X6759115Y-2196677D01*
X6736977Y-2209945D01*
X6713646Y-2220980D01*
X6689345Y-2229675D01*
X6664309Y-2235947D01*
X6638779Y-2239734D01*
X6613000Y-2241000D01*
X6087000Y-2241000D01*
X6061221Y-2239734D01*
X6035691Y-2235947D01*
X6010655Y-2229675D01*
X5986354Y-2220980D01*
X5963023Y-2209945D01*
X5940885Y-2196677D01*
X5920155Y-2181302D01*
X5901031Y-2163969D01*
X5883698Y-2144845D01*
X5868323Y-2124115D01*
X5855055Y-2101977D01*
X5844020Y-2078646D01*
X5835325Y-2054345D01*
X5829053Y-2029309D01*
X5825266Y-2003779D01*
X5824000Y-1978000D01*
X5824000Y-1352000D01*
X5825266Y-1326221D01*
X5829053Y-1300691D01*
X5835325Y-1275655D01*
X5844020Y-1251354D01*
X5855055Y-1228023D01*
X5868323Y-1205885D01*
X5883698Y-1185155D01*
X5901031Y-1166031D01*
X5920155Y-1148698D01*
X5940885Y-1133323D01*
X5963023Y-1120055D01*
X5986354Y-1109020D01*
X6010655Y-1100325D01*
X6035691Y-1094053D01*
X6061221Y-1090266D01*
X6087000Y-1089000D01*
X6613000Y-1089000D01*
X6638779Y-1090266D01*
X6638779Y-1090266D01*
G37*
D16*
X6350000Y-1665000D03*
D13*
G36*
X6638779Y-2840266D02*
G01*
X6664309Y-2844053D01*
X6689345Y-2850325D01*
X6713646Y-2859020D01*
X6736977Y-2870055D01*
X6759115Y-2883323D01*
X6779845Y-2898698D01*
X6798969Y-2916031D01*
X6816302Y-2935155D01*
X6831677Y-2955885D01*
X6844945Y-2978023D01*
X6855980Y-3001354D01*
X6864675Y-3025655D01*
X6870947Y-3050691D01*
X6874734Y-3076221D01*
X6876000Y-3102000D01*
X6876000Y-3728000D01*
X6874734Y-3753779D01*
X6870947Y-3779309D01*
X6864675Y-3804345D01*
X6855980Y-3828646D01*
X6844945Y-3851977D01*
X6831677Y-3874115D01*
X6816302Y-3894845D01*
X6798969Y-3913969D01*
X6779845Y-3931302D01*
X6759115Y-3946677D01*
X6736977Y-3959945D01*
X6713646Y-3970980D01*
X6689345Y-3979675D01*
X6664309Y-3985947D01*
X6638779Y-3989734D01*
X6613000Y-3991000D01*
X6087000Y-3991000D01*
X6061221Y-3989734D01*
X6035691Y-3985947D01*
X6010655Y-3979675D01*
X5986354Y-3970980D01*
X5963023Y-3959945D01*
X5940885Y-3946677D01*
X5920155Y-3931302D01*
X5901031Y-3913969D01*
X5883698Y-3894845D01*
X5868323Y-3874115D01*
X5855055Y-3851977D01*
X5844020Y-3828646D01*
X5835325Y-3804345D01*
X5829053Y-3779309D01*
X5825266Y-3753779D01*
X5824000Y-3728000D01*
X5824000Y-3102000D01*
X5825266Y-3076221D01*
X5829053Y-3050691D01*
X5835325Y-3025655D01*
X5844020Y-3001354D01*
X5855055Y-2978023D01*
X5868323Y-2955885D01*
X5883698Y-2935155D01*
X5901031Y-2916031D01*
X5920155Y-2898698D01*
X5940885Y-2883323D01*
X5963023Y-2870055D01*
X5986354Y-2859020D01*
X6010655Y-2850325D01*
X6035691Y-2844053D01*
X6061221Y-2840266D01*
X6087000Y-2839000D01*
X6613000Y-2839000D01*
X6638779Y-2840266D01*
X6638779Y-2840266D01*
G37*
D16*
X6350000Y-3415000D03*
M02*
