G04 #@! TF.GenerationSoftware,KiCad,Pcbnew,(5.1.4)-1*
G04 #@! TF.CreationDate,2020-03-27T16:00:02-04:00*
G04 #@! TF.ProjectId,Placeholder Board,506c6163-6568-46f6-9c64-657220426f61,rev?*
G04 #@! TF.SameCoordinates,PX9157080PY695f190*
G04 #@! TF.FileFunction,Legend,Top*
G04 #@! TF.FilePolarity,Positive*
%FSLAX46Y46*%
G04 Gerber Fmt 4.6, Leading zero omitted, Abs format (unit mm)*
G04 Created by KiCad (PCBNEW (5.1.4)-1) date 2020-03-27 16:00:02*
%MOMM*%
%LPD*%
G04 APERTURE LIST*
%ADD10C,0.250000*%
G04 APERTURE END LIST*
D10*
X-6928572Y821429D02*
X-6928572Y-250000D01*
X-7000000Y-464285D01*
X-7142858Y-607142D01*
X-7357143Y-678571D01*
X-7500000Y-678571D01*
X-5500000Y-678571D02*
X-6214286Y-678571D01*
X-6214286Y821429D01*
X-4142858Y-535714D02*
X-4214286Y-607142D01*
X-4428572Y-678571D01*
X-4571429Y-678571D01*
X-4785715Y-607142D01*
X-4928572Y-464285D01*
X-5000000Y-321428D01*
X-5071429Y-35714D01*
X-5071429Y178572D01*
X-5000000Y464286D01*
X-4928572Y607143D01*
X-4785715Y750000D01*
X-4571429Y821429D01*
X-4428572Y821429D01*
X-4214286Y750000D01*
X-4142858Y678572D01*
X-3071429Y821429D02*
X-3071429Y-250000D01*
X-3142858Y-464285D01*
X-3285715Y-607142D01*
X-3500000Y-678571D01*
X-3642858Y-678571D01*
X-1642858Y-678571D02*
X-2357143Y-678571D01*
X-2357143Y821429D01*
X-285715Y-535714D02*
X-357143Y-607142D01*
X-571429Y-678571D01*
X-714286Y-678571D01*
X-928572Y-607142D01*
X-1071429Y-464285D01*
X-1142858Y-321428D01*
X-1214286Y-35714D01*
X-1214286Y178572D01*
X-1142858Y464286D01*
X-1071429Y607143D01*
X-928572Y750000D01*
X-714286Y821429D01*
X-571429Y821429D01*
X-357143Y750000D01*
X-285715Y678572D01*
X785714Y821429D02*
X785714Y-250000D01*
X714285Y-464285D01*
X571428Y-607142D01*
X357142Y-678571D01*
X214285Y-678571D01*
X2214285Y-678571D02*
X1500000Y-678571D01*
X1500000Y821429D01*
X3571428Y-535714D02*
X3500000Y-607142D01*
X3285714Y-678571D01*
X3142857Y-678571D01*
X2928571Y-607142D01*
X2785714Y-464285D01*
X2714285Y-321428D01*
X2642857Y-35714D01*
X2642857Y178572D01*
X2714285Y464286D01*
X2785714Y607143D01*
X2928571Y750000D01*
X3142857Y821429D01*
X3285714Y821429D01*
X3500000Y750000D01*
X3571428Y678572D01*
X4642857Y821429D02*
X4642857Y-250000D01*
X4571428Y-464285D01*
X4428571Y-607142D01*
X4214285Y-678571D01*
X4071428Y-678571D01*
X6071428Y-678571D02*
X5357142Y-678571D01*
X5357142Y821429D01*
X7428571Y-535714D02*
X7357142Y-607142D01*
X7142857Y-678571D01*
X7000000Y-678571D01*
X6785714Y-607142D01*
X6642857Y-464285D01*
X6571428Y-321428D01*
X6500000Y-35714D01*
X6500000Y178572D01*
X6571428Y464286D01*
X6642857Y607143D01*
X6785714Y750000D01*
X7000000Y821429D01*
X7142857Y821429D01*
X7357142Y750000D01*
X7428571Y678572D01*
%LPC*%
M02*
