M48
; DRILL file {KiCad (5.1.4)-1} date 3/28/2020 2:45:06 AM
; FORMAT={-:-/ absolute / inch / decimal}
; #@! TF.CreationDate,2020-03-28T02:45:06-04:00
; #@! TF.GenerationSoftware,Kicad,Pcbnew,(5.1.4)-1
; #@! TF.FileFunction,Plated,1,2,PTH
FMAT,2
INCH
T1C0.0150
T2C0.0300
T3C0.0362
T4C0.0374
T5C0.0394
T6C0.0400
T7C0.0472
T8C0.0630
T9C0.0906
T10C0.1260
T11C0.1772
T12C0.2087
%
G90
G05
T1
X5.5705Y-5.0075
X5.6055Y-5.8375
X5.6355Y-5.8228
X5.6655Y-5.8075
X5.7355Y-5.8425
X5.7655Y-5.8275
X5.7705Y-6.5925
X5.7705Y-6.6225
X5.7705Y-6.6525
X5.7955Y-5.8125
X5.8255Y-5.7975
X5.8555Y-5.7825
X5.8905Y-6.7675
X6.3805Y-8.6025
X6.4105Y-8.5875
X6.4405Y-8.5725
X6.4705Y-8.5575
X6.5005Y-8.5425
X6.5055Y-8.9175
X6.5055Y-8.9525
X6.5305Y-8.5275
X6.5605Y-8.5125
X6.5905Y-8.4975
X6.6655Y-8.8175
X6.6805Y-8.3825
X6.6805Y-8.5325
X6.6905Y-8.8425
X6.77Y-8.3831
X6.7805Y-5.8825
X6.7805Y-8.5325
X6.8555Y-7.7675
X6.8755Y-5.4775
X6.8755Y-5.5075
X6.8755Y-5.5375
X6.8755Y-5.5675
X6.8755Y-5.5975
X6.9055Y-5.4775
X6.9055Y-5.5075
X6.9055Y-5.5375
X6.9055Y-5.5675
X6.9055Y-5.5975
X6.9055Y-5.6275
X6.9205Y-8.6425
X6.9355Y-5.4775
X6.9355Y-5.5075
X6.9355Y-5.5375
X6.9355Y-5.5675
X6.9355Y-5.5975
X6.9355Y-5.6275
X6.9355Y-5.6575
X6.9355Y-5.6875
X6.9505Y-5.9975
X6.9655Y-5.4775
X6.9655Y-5.6575
X6.9655Y-5.6875
X6.9705Y-7.2125
X6.9705Y-7.2725
X6.9755Y-8.3575
X6.9805Y-5.9675
X6.9805Y-5.9975
X6.9955Y-5.4775
X6.9955Y-5.6575
X6.9955Y-5.6875
X7.0105Y-5.9375
X7.0105Y-5.9675
X7.0105Y-5.9975
X7.0255Y-5.4775
X7.0255Y-5.6575
X7.0255Y-5.6875
X7.0405Y-5.9375
X7.0405Y-5.9675
X7.0405Y-5.9975
X7.0555Y-5.4775
X7.0555Y-5.5075
X7.0555Y-5.5375
X7.0555Y-5.5675
X7.0555Y-5.5975
X7.0555Y-5.6275
X7.0555Y-5.6575
X7.0555Y-5.6875
X7.0705Y-5.9375
X7.0705Y-5.9675
X7.0705Y-5.9975
X7.0855Y-5.4775
X7.0855Y-5.6275
X7.0855Y-5.6575
X7.1005Y-5.9375
X7.1005Y-5.9675
X7.1005Y-5.9975
X7.1055Y-8.355
X7.1155Y-5.4775
X7.118Y-8.38
X7.1305Y-5.9375
X7.1305Y-5.9675
X7.1305Y-5.9975
X7.1305Y-8.355
X7.143Y-8.38
X7.1455Y-5.4775
X7.1455Y-5.6275
X7.1455Y-5.6575
X7.1455Y-5.6875
X7.1555Y-8.355
X7.1605Y-5.9375
X7.1605Y-5.9675
X7.1605Y-5.9975
X7.168Y-8.38
X7.1755Y-5.4775
X7.1755Y-5.5075
X7.1755Y-5.5375
X7.1755Y-5.5675
X7.1755Y-5.5975
X7.1755Y-5.6275
X7.1755Y-5.6575
X7.1755Y-5.6875
X7.1805Y-8.355
X7.193Y-8.38
X7.2055Y-5.4775
X7.2055Y-5.5075
X7.2055Y-5.5375
X7.2055Y-5.5675
X7.2055Y-5.5975
X7.2055Y-5.6275
X7.2055Y-5.6575
X7.2055Y-8.355
X7.2355Y-5.4775
X7.2355Y-5.5075
X7.2355Y-5.5375
X7.2355Y-5.5675
X7.2355Y-5.5975
X7.2355Y-5.6275
X7.2355Y-5.6575
X7.2555Y-4.4275
X7.2555Y-6.2825
X7.2555Y-8.4525
X7.2655Y-5.4775
X7.2655Y-5.6575
X7.2955Y-5.4775
X7.2955Y-5.6575
X7.3055Y-8.3025
X7.3255Y-5.4775
X7.3255Y-5.6575
X7.3255Y-5.6875
X7.3305Y-5.8025
X7.3305Y-8.1525
X7.3305Y-8.2325
X7.3555Y-5.4775
X7.3555Y-5.5075
X7.3555Y-5.5375
X7.3555Y-5.5675
X7.3555Y-5.5975
X7.3555Y-5.6275
X7.3555Y-5.6575
X7.3555Y-5.6875
X7.3855Y-5.4775
X7.3855Y-5.5075
X7.3855Y-5.5375
X7.3855Y-5.5675
X7.3855Y-5.5975
X7.3855Y-5.6275
X7.3855Y-5.6575
X7.3855Y-5.6875
X7.3955Y-8.5331
X7.4155Y-5.4775
X7.4155Y-5.5075
X7.4155Y-5.5375
X7.4155Y-5.5675
X7.4155Y-5.5975
X7.4155Y-5.6275
X7.4155Y-5.6575
X7.4155Y-5.6875
X7.4355Y-4.8925
X7.4455Y-5.4775
X7.4455Y-5.5075
X7.4455Y-5.5375
X7.4455Y-5.5675
X7.4455Y-5.5975
X7.4455Y-5.6275
X7.4455Y-5.6575
X7.4455Y-5.6875
X7.4655Y-8.5325
X7.4705Y-4.3975
X7.4705Y-4.4475
X7.4755Y-5.4775
X7.4755Y-5.5075
X7.4755Y-5.5375
X7.4755Y-5.5675
X7.4755Y-5.5975
X7.4755Y-5.6275
X7.4755Y-5.6575
X7.4755Y-5.6875
X7.4805Y-8.3025
X7.4805Y-8.4525
X7.4955Y-4.4225
X7.4955Y-5.8125
X7.4955Y-5.8525
X7.4955Y-5.9475
X7.5305Y-5.9475
X7.5505Y-8.5325
X7.5805Y-8.9325
X8.0955Y-9.1275
X8.1255Y-9.1125
X8.1555Y-9.0975
X8.1855Y-9.0825
X8.2155Y-9.0675
X8.2455Y-9.0525
X8.6606Y-5.4224
X8.6606Y-5.4624
X8.6606Y-5.7224
X8.6606Y-5.7624
X8.6606Y-6.3224
X8.6606Y-6.3624
X8.6606Y-6.6224
X8.6606Y-6.6624
X8.6606Y-7.2224
X8.6606Y-7.2624
X8.6606Y-7.5224
X8.6606Y-7.5624
X8.6606Y-8.1224
X8.6606Y-8.1624
X8.6606Y-8.4224
X8.6606Y-8.4624
X8.7005Y-5.1175
X8.7905Y-8.7525
X8.9055Y-5.1675
X8.9055Y-5.2025
X8.9055Y-5.2375
X8.9055Y-5.4725
X8.9055Y-5.5075
X8.9055Y-5.5425
X8.9205Y-9.0425
X8.9355Y-9.0725
X9.0205Y-5.3675
X9.0455Y-5.2725
X9.0455Y-5.3075
X9.0455Y-5.3425
X9.0455Y-5.3925
X9.0655Y-7.7075
X9.0655Y-7.7425
X9.1005Y-6.9375
X9.1005Y-6.6325
X9.1005Y-6.9775
X9.1405Y-5.2675
X9.1405Y-6.6325
X9.1955Y-8.3375
X9.1955Y-8.4175
X9.2255Y-8.3075
X9.2605Y-5.2925
X9.2605Y-5.5375
X9.2655Y-8.3075
X9.4705Y-8.5875
X9.4955Y-8.3075
X9.5555Y-7.2975
X9.5755Y-5.0375
X9.5755Y-5.0675
X9.5755Y-5.0975
X9.5755Y-5.1275
X9.5755Y-5.1575
X9.5755Y-5.1875
X9.5755Y-5.4375
X9.5755Y-5.4675
X9.5755Y-5.4975
X9.5755Y-6.7625
X9.5755Y-6.7925
X9.5755Y-6.8225
X9.5755Y-6.9625
X9.5755Y-6.9925
X9.5755Y-7.0225
X9.5905Y-8.3075
X9.6055Y-5.0375
X9.6055Y-5.0675
X9.6055Y-5.0975
X9.6055Y-5.1275
X9.6055Y-5.1575
X9.6055Y-5.4375
X9.6055Y-5.4675
X9.6055Y-5.4975
X9.6055Y-6.7625
X9.6055Y-6.7925
X9.6055Y-6.8225
X9.6055Y-6.9625
X9.6055Y-6.9925
X9.6055Y-7.0225
X9.6355Y-5.0375
X9.6355Y-5.0675
X9.6355Y-5.0975
X9.6355Y-5.1275
X9.6355Y-5.4375
X9.6355Y-5.4675
X9.6355Y-5.4975
X9.6355Y-6.7625
X9.6355Y-6.7925
X9.6355Y-6.8225
X9.6355Y-6.9625
X9.6355Y-6.9925
X9.6355Y-7.0225
X9.6555Y-7.4375
X9.6555Y-7.5625
X9.6655Y-5.0375
X9.6655Y-5.0675
X9.6655Y-5.0975
X9.6655Y-5.4375
X9.6655Y-5.4675
X9.6655Y-5.4975
X9.6655Y-6.7625
X9.6655Y-6.7925
X9.6655Y-6.8225
X9.6655Y-6.9625
X9.6655Y-6.9925
X9.6655Y-7.0225
X9.6705Y-7.2975
X9.6823Y-7.1848
X9.6955Y-5.0375
X9.6955Y-5.0675
X9.6955Y-5.4675
X9.6955Y-5.4975
X9.6955Y-6.7625
X9.6955Y-6.7925
X9.6955Y-6.8225
X9.6955Y-6.9625
X9.6955Y-6.9925
X9.6955Y-7.0225
X9.7255Y-5.4975
X9.7255Y-6.7625
X9.7255Y-6.7925
X9.7255Y-6.8225
X9.7255Y-6.9625
X9.7255Y-6.9925
X9.7255Y-7.0225
X9.7455Y-5.0525
X9.7455Y-5.4625
X9.7555Y-5.4975
X9.7555Y-6.7625
X9.7555Y-6.7925
X9.7555Y-6.8225
X9.7555Y-6.9625
X9.7555Y-6.9925
X9.7555Y-7.0225
X9.7855Y-5.4975
X9.7855Y-6.7625
X9.7855Y-6.7925
X9.7855Y-6.8225
X9.7855Y-6.9625
X9.7855Y-6.9925
X9.7855Y-7.0225
X9.7905Y-5.2175
X9.7955Y-8.5875
X9.8205Y-8.3075
X9.8555Y-4.8375
X9.8805Y-8.6425
X9.9005Y-4.9375
X9.9305Y-4.8375
X9.9383Y-5.3297
X9.9905Y-8.6025
X10.0805Y-8.1725
X10.0905Y-8.3225
X10.1205Y-8.4325
X10.1255Y-7.1575
X10.1305Y-4.8375
X10.1305Y-5.0125
X10.1455Y-7.7275
X10.1555Y-8.1725
X10.1555Y-8.4325
X10.1605Y-7.1575
X10.1805Y-4.8375
X10.1805Y-5.2625
X10.1905Y-8.4325
X10.2305Y-7.7275
X10.2305Y-8.1725
X10.2555Y-4.8375
X10.2955Y-4.8375
X10.2955Y-7.1125
X10.2955Y-7.2375
X10.2955Y-7.2725
X10.2955Y-7.3075
X10.2961Y-5.777
X10.3055Y-7.7275
X10.3055Y-8.1725
X10.3255Y-5.9225
X10.3305Y-5.6675
X10.3305Y-7.1125
X10.3555Y-8.4275
X10.3805Y-7.7275
X10.3805Y-8.1725
X10.4105Y-5.9225
X10.4411Y-5.777
X10.4555Y-7.7275
X10.4555Y-8.1725
X10.4555Y-8.3325
X10.4905Y-5.4525
X10.5505Y-7.2075
X10.5505Y-7.4775
X10.5955Y-7.3425
X10.6555Y-7.1725
X10.6555Y-7.5125
X10.7805Y-6.5775
X10.8055Y-7.2625
X10.8055Y-7.4225
X10.8605Y-5.9825
X10.8605Y-6.0125
X10.8605Y-6.0425
X10.8855Y-5.9975
X10.8855Y-6.0275
X10.9105Y-5.9825
X10.9105Y-6.0125
X10.9105Y-6.0425
X10.9655Y-5.9325
X11.0405Y-5.9825
X11.0405Y-6.0125
X11.0405Y-6.0425
X11.0405Y-6.2175
X11.0655Y-5.9975
X11.0655Y-6.0275
X11.0755Y-6.3325
X11.0905Y-5.9825
X11.0905Y-6.0125
X11.0905Y-6.0425
X11.0905Y-6.3625
X11.1055Y-6.3925
X11.1205Y-6.4225
X11.2855Y-7.6925
X11.3555Y-5.7475
X11.3605Y-5.4475
X11.3655Y-6.2275
X11.3755Y-5.4725
X11.3855Y-5.7475
X11.3905Y-5.4475
X11.4105Y-6.9925
X11.4155Y-5.7475
X11.4205Y-5.4475
X11.4455Y-5.7475
X11.4455Y-6.6925
X11.4505Y-5.4475
X11.4505Y-6.4075
X11.4755Y-5.7475
X11.4805Y-5.4475
X11.493Y-6.93
X11.5055Y-5.7475
X11.5155Y-6.9525
X11.535Y-6.38
X11.535Y-6.43
X11.535Y-6.48
X11.538Y-6.975
X11.5405Y-6.1425
X11.6305Y-6.7775
X11.68Y-6.505
X11.6855Y-6.2525
X11.7605Y-6.4075
X11.7755Y-5.1925
X11.8855Y-6.8775
X12.0199Y-6.2687
X12.1155Y-5.9025
X12.1155Y-6.8675
X12.1205Y-6.5625
X12.1355Y-5.8775
X12.1355Y-6.8925
X12.145Y-6.825
X12.1555Y-5.9025
X12.1555Y-6.8675
X12.1755Y-5.8775
X12.1755Y-6.8925
X12.1955Y-5.9025
X12.1955Y-6.8675
X12.9605Y-5.8175
X12.9605Y-6.8675
X12.9805Y-5.7925
X12.9805Y-6.8925
X13.0005Y-5.8175
X13.0005Y-6.8675
X13.005Y-6.975
X13.0205Y-5.7925
X13.0205Y-6.8925
X13.0405Y-5.8175
X13.0405Y-6.8675
T2
X11.2055Y-7.0425
X11.2055Y-7.1425
X11.2055Y-7.2425
X11.2055Y-7.3425
X11.2055Y-7.4425
X11.2055Y-7.5425
X11.2055Y-7.6425
X11.2055Y-7.7425
X11.2055Y-7.8425
X11.2055Y-7.9425
X11.2055Y-8.0425
X11.2055Y-8.1425
X11.2055Y-8.2425
X11.2055Y-8.3425
X11.2055Y-8.4425
X11.2055Y-8.5425
X11.2055Y-8.6425
X11.2055Y-8.7425
X11.2055Y-8.8425
X12.2055Y-7.0425
X12.2055Y-7.1425
X12.2055Y-7.2425
X12.2055Y-7.3425
X12.2055Y-7.4425
X12.2055Y-7.5425
X12.2055Y-7.6425
X12.2055Y-7.7425
X12.2055Y-7.8425
X12.2055Y-7.9425
X12.2055Y-8.0425
X12.2055Y-8.1425
X12.2055Y-8.2425
X12.2055Y-8.3425
X12.2055Y-8.4425
X12.2055Y-8.5425
X12.2055Y-8.6425
X12.2055Y-8.7425
X12.2055Y-8.8425
T3
X12.5055Y-5.3425
X12.5055Y-5.4409
X12.5843Y-5.3425
X12.5843Y-5.4409
T4
X6.1055Y-7.7175
X6.1055Y-7.8159
X6.1055Y-7.9144
X6.1055Y-8.0128
X8.9075Y-4.4425
X9.0059Y-4.4425
X9.1043Y-4.4425
X9.2028Y-4.4425
T5
X8.2555Y-7.9425
X8.2555Y-8.0425
X8.2555Y-8.1425
X8.2555Y-8.2425
X8.2555Y-8.3425
X8.2555Y-8.4425
X8.2555Y-8.5425
X8.2555Y-8.6425
X8.5555Y-8.6425
X8.6555Y-8.6425
X8.7555Y-7.9425
X8.7555Y-8.0425
X8.7555Y-8.1425
X8.7555Y-8.2425
X8.7555Y-8.3425
X8.7555Y-8.4425
X8.7555Y-8.5425
X8.7555Y-8.6425
X8.2555Y-5.2425
X8.2555Y-5.3425
X8.2555Y-5.4425
X8.2555Y-5.5425
X8.2555Y-5.6425
X8.2555Y-5.7425
X8.2555Y-5.8425
X8.2555Y-5.9425
X8.5555Y-5.9425
X8.6555Y-5.9425
X8.7555Y-5.2425
X8.7555Y-5.3425
X8.7555Y-5.4425
X8.7555Y-5.5425
X8.7555Y-5.6425
X8.7555Y-5.7425
X8.7555Y-5.8425
X8.7555Y-5.9425
X8.2555Y-6.1425
X8.2555Y-6.2425
X8.2555Y-6.3425
X8.2555Y-6.4425
X8.2555Y-6.5425
X8.2555Y-6.6425
X8.2555Y-6.7425
X8.2555Y-6.8425
X8.5555Y-6.8425
X8.6555Y-6.8425
X8.7555Y-6.1425
X8.7555Y-6.2425
X8.7555Y-6.3425
X8.7555Y-6.4425
X8.7555Y-6.5425
X8.7555Y-6.6425
X8.7555Y-6.7425
X8.7555Y-6.8425
X6.1055Y-9.1675
X6.1055Y-9.2659
X8.2555Y-7.0425
X8.2555Y-7.1425
X8.2555Y-7.2425
X8.2555Y-7.3425
X8.2555Y-7.4425
X8.2555Y-7.5425
X8.2555Y-7.6425
X8.2555Y-7.7425
X8.5555Y-7.7425
X8.6555Y-7.7425
X8.7555Y-7.0425
X8.7555Y-7.1425
X8.7555Y-7.2425
X8.7555Y-7.3425
X8.7555Y-7.4425
X8.7555Y-7.5425
X8.7555Y-7.6425
X8.7555Y-7.7425
T6
X10.6805Y-4.6675
X10.6805Y-4.7675
X10.6805Y-4.8675
X10.7805Y-4.6675
X10.7805Y-4.7675
X10.7805Y-4.8675
X8.4055Y-8.8925
X8.4055Y-8.9925
X8.5055Y-8.8925
X8.5055Y-8.9925
X8.6055Y-8.8925
X8.6055Y-8.9925
X9.0055Y-5.9325
X9.0055Y-6.0325
X9.0055Y-6.1325
X9.0055Y-6.2325
X9.0055Y-6.3325
X9.0055Y-6.4325
X9.0055Y-6.5325
X9.0055Y-6.6325
X9.0055Y-6.7325
X9.0055Y-6.8325
X9.0055Y-6.9925
X9.0055Y-7.0925
X9.0055Y-7.1925
X9.0055Y-7.2925
X9.0055Y-7.3925
X9.0055Y-7.4925
X9.0055Y-7.5925
X9.0055Y-7.6925
X9.0055Y-7.8925
X9.0055Y-7.9925
X9.0055Y-8.0925
X9.0055Y-8.1925
X9.0055Y-8.2925
X9.0055Y-8.3925
X9.0055Y-8.4925
X9.0055Y-8.5925
X9.0055Y-8.8925
X9.0055Y-8.9925
X9.1055Y-8.8925
X9.1055Y-8.9925
X9.2055Y-8.8925
X9.2055Y-8.9925
X9.3055Y-8.8925
X9.3055Y-8.9925
X9.4055Y-8.8925
X9.4055Y-8.9925
X9.5055Y-8.8925
X9.5055Y-8.9925
X9.6055Y-8.8925
X9.6055Y-8.9925
X9.7055Y-8.8925
X9.7055Y-8.9925
X9.8055Y-7.6975
X9.8055Y-7.7975
X9.8055Y-8.8925
X9.8055Y-8.9925
X9.9055Y-7.6975
X9.9055Y-7.7975
X9.9055Y-8.8925
X9.9055Y-8.9925
X10.0055Y-7.6975
X10.0055Y-7.7975
X10.0055Y-8.8925
X10.0055Y-8.9925
X10.1055Y-8.8925
X10.1055Y-8.9925
X10.2055Y-8.8925
X10.2055Y-8.9925
X10.3055Y-8.8925
X10.3055Y-8.9925
X10.4055Y-8.8925
X10.4055Y-8.9925
X10.5055Y-8.8925
X10.5055Y-8.9925
X10.6055Y-8.8925
X10.6055Y-8.9925
X10.7055Y-8.8925
X10.7055Y-8.9925
X10.9055Y-6.2925
X10.9055Y-6.3925
X10.9055Y-6.4925
X10.9055Y-6.5925
X10.9055Y-6.6925
X10.9055Y-6.7925
X10.9055Y-6.8925
X10.9055Y-6.9925
X10.9055Y-7.1925
X10.9055Y-7.2925
X10.9055Y-7.3925
X10.9055Y-7.4925
X10.9055Y-7.5925
X10.9055Y-7.6925
X10.9055Y-7.7925
X10.9055Y-7.8925
X10.9055Y-8.0925
X10.9055Y-8.1925
X10.9055Y-8.2925
X10.9055Y-8.3925
X10.9055Y-8.4925
X10.9055Y-8.5925
X10.9055Y-8.6925
X10.9055Y-8.7925
X8.4055Y-4.8925
X8.4055Y-4.9925
X8.5055Y-4.8925
X8.5055Y-4.9925
X8.6055Y-4.8925
X8.6055Y-4.9925
X7.3555Y-6.4425
X7.3555Y-6.5425
X7.3555Y-6.6425
X7.3555Y-6.7425
X7.3555Y-6.8425
X7.3555Y-6.9425
X7.3555Y-7.0425
X7.3555Y-7.1425
X7.3555Y-7.2425
X7.3555Y-7.3425
X7.4555Y-6.4425
X7.4555Y-6.5425
X7.4555Y-6.6425
X7.4555Y-6.7425
X7.4555Y-6.8425
X7.4555Y-6.9425
X7.4555Y-7.0425
X7.4555Y-7.1425
X7.4555Y-7.2425
X7.4555Y-7.3425
X11.6055Y-4.7175
X11.6055Y-5.0175
X11.7055Y-4.7175
X11.7055Y-5.0175
X12.2055Y-4.7175
X12.2055Y-4.8175
X12.2055Y-4.9175
X12.2055Y-5.0175
X6.1055Y-4.8925
X6.1055Y-4.9925
X6.2055Y-4.8925
X6.2055Y-4.9925
X6.3055Y-4.8925
X6.3055Y-4.9925
X6.4055Y-4.8925
X6.4055Y-4.9925
X6.5055Y-4.8925
X6.5055Y-4.9925
X6.6055Y-4.8925
X6.6055Y-4.9925
X6.7055Y-4.8925
X6.7055Y-4.9925
X6.8055Y-4.8925
X6.8055Y-4.9925
X6.9055Y-4.8925
X6.9055Y-4.9925
X7.0055Y-4.8925
X7.0055Y-4.9925
X7.1055Y-4.8925
X7.1055Y-4.9925
X7.2055Y-4.8925
X7.2055Y-4.9925
X7.3055Y-4.8925
X7.3055Y-4.9925
X11.6805Y-5.3925
X11.6805Y-5.4925
X11.6805Y-5.5925
X11.6805Y-5.6925
X11.6805Y-5.7925
X11.7805Y-5.3925
X11.7805Y-5.4925
X11.7805Y-5.5925
X11.7805Y-5.6925
X11.7805Y-5.7925
T7
X6.9087Y-6.9425
X7.1055Y-6.9425
X7.7587Y-6.9425
X7.9555Y-6.9425
X7.7587Y-8.4425
X7.9555Y-8.4425
X7.7587Y-7.6925
X7.9555Y-7.6925
X7.7587Y-6.1925
X7.9555Y-6.1925
X7.7587Y-5.4425
X7.9555Y-5.4425
T8
X6.4386Y-5.7012
X6.4386Y-6.0839
X6.5724Y-5.7012
X6.5724Y-6.0839
X6.4386Y-6.3512
X6.4386Y-6.7339
X6.5724Y-6.3512
X6.5724Y-6.7339
T9
X12.6909Y-5.1547
X12.6909Y-5.6287
T10
X5.689Y-7.1654
X7.9331Y-4.5079
X11.0236Y-9.2717
X5.689Y-4.5079
X12.4213Y-9.2717
X12.4213Y-4.5079
X10.1772Y-4.5079
X6.4567Y-9.2717
X12.4213Y-7.4803
X7.8543Y-9.2717
T11
X6.0805Y-8.3768
X6.0805Y-8.6583
T12
X7.2835Y-9.8425
X7.7756Y-3.937
X6.5945Y-3.937
X11.4173Y-9.8425
X10.3346Y-3.937
X11.5157Y-3.937
T0
M30
