G04 #@! TF.GenerationSoftware,KiCad,Pcbnew,(5.1.4)-1*
G04 #@! TF.CreationDate,2020-03-28T02:45:04-04:00*
G04 #@! TF.ProjectId,quickstep_controller,71756963-6b73-4746-9570-5f636f6e7472,rev?*
G04 #@! TF.SameCoordinates,Original*
G04 #@! TF.FileFunction,Profile,NP*
%FSLAX46Y46*%
G04 Gerber Fmt 4.6, Leading zero omitted, Abs format (unit mm)*
G04 Created by KiCad (PCBNEW (5.1.4)-1) date 2020-03-28 02:45:04*
%MOMM*%
%LPD*%
G04 APERTURE LIST*
%ADD10C,0.304799*%
G04 APERTURE END LIST*
D10*
X255970232Y-95586583D02*
X251278504Y-106913418D01*
X255970232Y-95586583D02*
G75*
G02X260589630Y-92500000I4619398J-1913417D01*
G01*
X294410369Y-92500001D02*
X260589630Y-92500000D01*
X149500001Y-190271386D02*
X149500001Y-238000000D01*
X294410368Y-92500000D02*
G75*
G02X299029767Y-95586583I1J-5000001D01*
G01*
X320000000Y-236999999D02*
G75*
G02X317000000Y-239999999I-3000000J0D01*
G01*
X303721495Y-106913418D02*
X299029767Y-95586583D01*
X308340894Y-110000001D02*
G75*
G02X303721495Y-106913418I-1J5000001D01*
G01*
X180589631Y-257500000D02*
G75*
G02X175970233Y-254413417I0J5000000D01*
G01*
X308340893Y-239999999D02*
X317000000Y-239999999D01*
X317000000Y-110000000D02*
X308340893Y-110000000D01*
X321234633Y-123011402D02*
G75*
G02X320000000Y-121163643I765367J1847759D01*
G01*
X332500000Y-178485973D02*
X332500000Y-129014027D01*
X321234633Y-184488598D02*
X331265366Y-180333732D01*
X332500000Y-178485974D02*
G75*
G02X331265366Y-180333732I-2000000J1D01*
G01*
X320000000Y-236999999D02*
X320000000Y-186336357D01*
X303721495Y-243086582D02*
G75*
G02X308340893Y-239999999I4619398J-1913417D01*
G01*
X285589630Y-257500000D02*
X294410369Y-257500000D01*
X285589630Y-257500000D02*
G75*
G02X280970232Y-254413417I0J5000000D01*
G01*
X276278504Y-243086582D02*
X280970232Y-254413417D01*
X198721496Y-243086583D02*
G75*
G02X203340894Y-240000000I4619398J-1913417D01*
G01*
X194029768Y-254413417D02*
G75*
G02X189410370Y-257500000I-4619398J1913417D01*
G01*
X180589631Y-257500000D02*
X189410370Y-257500000D01*
X148265368Y-188423627D02*
G75*
G02X149500001Y-190271386I-765367J-1847759D01*
G01*
X151500001Y-240000000D02*
X166659107Y-240000000D01*
X140000001Y-113000001D02*
X140000001Y-183663642D01*
X156278506Y-106913418D02*
G75*
G02X151659107Y-110000001I-4619399J1913418D01*
G01*
X160970233Y-95586583D02*
G75*
G02X165589631Y-92500000I4619398J-1913417D01*
G01*
X203340894Y-240000000D02*
X271659106Y-240000000D01*
X317000000Y-110000000D02*
G75*
G02X320000000Y-113000000I0J-3000000D01*
G01*
X320000000Y-121163643D02*
X320000000Y-113000000D01*
X141234634Y-185511401D02*
X148265367Y-188423627D01*
X141234634Y-185511401D02*
G75*
G02X140000001Y-183663642I765367J1847759D01*
G01*
X160970233Y-95586583D02*
X156278505Y-106913418D01*
X271659105Y-239999999D02*
G75*
G02X276278504Y-243086582I1J-5000001D01*
G01*
X331265366Y-127166268D02*
X321234633Y-123011402D01*
X194029768Y-254413417D02*
X198721496Y-243086582D01*
X331265366Y-127166267D02*
G75*
G02X332500000Y-129014027I-765367J-1847760D01*
G01*
X299029767Y-254413417D02*
X303721495Y-243086582D01*
X171278505Y-243086582D02*
X175970233Y-254413417D01*
X320000000Y-186336357D02*
G75*
G02X321234633Y-184488598I2000000J0D01*
G01*
X299029767Y-254413417D02*
G75*
G02X294410369Y-257500000I-4619398J1913417D01*
G01*
X166659106Y-239999999D02*
G75*
G02X171278505Y-243086582I1J-5000001D01*
G01*
X151500001Y-240000000D02*
G75*
G02X149500001Y-238000000I0J2000000D01*
G01*
X140000001Y-113000001D02*
G75*
G02X143000001Y-110000001I3000000J0D01*
G01*
X151659107Y-110000001D02*
X143000001Y-110000001D01*
X199410370Y-92500000D02*
G75*
G02X204029768Y-95586583I0J-5000000D01*
G01*
X251278504Y-106913417D02*
G75*
G02X246659106Y-110000000I-4619398J1913417D01*
G01*
X208721496Y-106913418D02*
X204029768Y-95586583D01*
X246659106Y-110000000D02*
X213340894Y-110000000D01*
X213340895Y-110000001D02*
G75*
G02X208721496Y-106913418I-1J5000001D01*
G01*
X199410370Y-92500000D02*
X165589631Y-92500000D01*
M02*
