G04 #@! TF.GenerationSoftware,KiCad,Pcbnew,(5.1.4)-1*
G04 #@! TF.CreationDate,2020-03-28T02:45:04-04:00*
G04 #@! TF.ProjectId,quickstep_controller,71756963-6b73-4746-9570-5f636f6e7472,rev?*
G04 #@! TF.SameCoordinates,Original*
G04 #@! TF.FileFunction,Legend,Bot*
G04 #@! TF.FilePolarity,Positive*
%FSLAX46Y46*%
G04 Gerber Fmt 4.6, Leading zero omitted, Abs format (unit mm)*
G04 Created by KiCad (PCBNEW (5.1.4)-1) date 2020-03-28 02:45:04*
%MOMM*%
%LPD*%
G04 APERTURE LIST*
%ADD10C,0.375000*%
%ADD11C,0.750000*%
%ADD12C,0.010000*%
%ADD13C,0.120000*%
%ADD14C,2.133600*%
%ADD15C,0.100000*%
%ADD16C,1.625600*%
%ADD17R,1.625600X1.625600*%
%ADD18C,10.701600*%
%ADD19C,6.501600*%
%ADD20O,2.051600X1.801600*%
%ADD21C,1.801600*%
%ADD22O,1.828800X1.828800*%
%ADD23C,1.976600*%
%ADD24R,1.976600X1.976600*%
%ADD25C,2.851600*%
%ADD26C,1.201600*%
%ADD27C,1.701600*%
%ADD28C,6.101600*%
%ADD29C,3.101600*%
%ADD30O,2.101600X1.801600*%
%ADD31C,3.417600*%
%ADD32C,1.529600*%
%ADD33R,1.529600X1.529600*%
%ADD34R,1.828800X1.828800*%
%ADD35O,1.801600X2.051600*%
%ADD36C,2.501600*%
%ADD37R,2.501600X2.501600*%
G04 APERTURE END LIST*
D10*
X152647142Y-196596428D02*
X152647142Y-195453571D01*
X153218571Y-196025000D02*
X152075714Y-196025000D01*
X152647142Y-201676428D02*
X152647142Y-200533571D01*
X153218571Y-201105000D02*
X152075714Y-201105000D01*
X152647142Y-199136428D02*
X152647142Y-197993571D01*
X152647142Y-204216428D02*
X152647142Y-203073571D01*
X152833571Y-232033571D02*
X152547857Y-232033571D01*
X152405000Y-232105000D01*
X152262142Y-232247857D01*
X152190714Y-232533571D01*
X152190714Y-233033571D01*
X152262142Y-233319285D01*
X152405000Y-233462142D01*
X152547857Y-233533571D01*
X152833571Y-233533571D01*
X152976428Y-233462142D01*
X153119285Y-233319285D01*
X153190714Y-233033571D01*
X153190714Y-232533571D01*
X153119285Y-232247857D01*
X152976428Y-232105000D01*
X152833571Y-232033571D01*
X151547857Y-233533571D02*
X151547857Y-232033571D01*
X150690714Y-233533571D01*
X150690714Y-232033571D01*
X152190714Y-234573571D02*
X152905000Y-234573571D01*
X152976428Y-235287857D01*
X152905000Y-235216428D01*
X152762142Y-235145000D01*
X152405000Y-235145000D01*
X152262142Y-235216428D01*
X152190714Y-235287857D01*
X152119285Y-235430714D01*
X152119285Y-235787857D01*
X152190714Y-235930714D01*
X152262142Y-236002142D01*
X152405000Y-236073571D01*
X152762142Y-236073571D01*
X152905000Y-236002142D01*
X152976428Y-235930714D01*
X151690714Y-234573571D02*
X151190714Y-236073571D01*
X150690714Y-234573571D01*
D11*
X204369330Y-218670714D02*
X203958616Y-218813571D01*
X203833616Y-218956428D01*
X203726473Y-219242142D01*
X203780044Y-219670714D01*
X203958616Y-219956428D01*
X204119330Y-220099285D01*
X204422901Y-220242142D01*
X205565758Y-220242142D01*
X205190758Y-217242142D01*
X204190758Y-217242142D01*
X203922901Y-217385000D01*
X203797901Y-217527857D01*
X203690758Y-217813571D01*
X203726473Y-218099285D01*
X203905044Y-218385000D01*
X204065758Y-218527857D01*
X204369330Y-218670714D01*
X205369330Y-218670714D01*
X202601473Y-218242142D02*
X202137187Y-220242142D01*
X201172901Y-218242142D02*
X202137187Y-220242142D01*
X202512187Y-220956428D01*
X202672901Y-221099285D01*
X202976473Y-221242142D01*
X197994330Y-220242142D02*
X197619330Y-217242142D01*
X196690758Y-220099285D02*
X196422901Y-220242142D01*
X195851473Y-220242142D01*
X195547901Y-220099285D01*
X195369330Y-219813571D01*
X195351473Y-219670714D01*
X195458616Y-219385000D01*
X195726473Y-219242142D01*
X196155044Y-219242142D01*
X196422901Y-219099285D01*
X196530044Y-218813571D01*
X196512187Y-218670714D01*
X196333616Y-218385000D01*
X196030044Y-218242142D01*
X195601473Y-218242142D01*
X195333616Y-218385000D01*
X194137187Y-220242142D02*
X193762187Y-217242142D01*
X192851473Y-220242142D02*
X192655044Y-218670714D01*
X192762187Y-218385000D01*
X193030044Y-218242142D01*
X193458616Y-218242142D01*
X193762187Y-218385000D01*
X193922901Y-218527857D01*
X190137187Y-220242142D02*
X189940758Y-218670714D01*
X190047901Y-218385000D01*
X190315758Y-218242142D01*
X190887187Y-218242142D01*
X191190758Y-218385000D01*
X190119330Y-220099285D02*
X190422901Y-220242142D01*
X191137187Y-220242142D01*
X191405044Y-220099285D01*
X191512187Y-219813571D01*
X191476473Y-219527857D01*
X191297901Y-219242142D01*
X190994330Y-219099285D01*
X190280044Y-219099285D01*
X189976473Y-218956428D01*
X187422901Y-220242142D02*
X187226473Y-218670714D01*
X187333616Y-218385000D01*
X187601473Y-218242142D01*
X188172901Y-218242142D01*
X188476473Y-218385000D01*
X187405044Y-220099285D02*
X187708616Y-220242142D01*
X188422901Y-220242142D01*
X188690758Y-220099285D01*
X188797901Y-219813571D01*
X188762187Y-219527857D01*
X188583616Y-219242142D01*
X188280044Y-219099285D01*
X187565758Y-219099285D01*
X187262187Y-218956428D01*
X185744330Y-218242142D02*
X185994330Y-220242142D01*
X185780044Y-218527857D02*
X185619330Y-218385000D01*
X185315758Y-218242142D01*
X184887187Y-218242142D01*
X184619330Y-218385000D01*
X184512187Y-218670714D01*
X184708616Y-220242142D01*
X179065758Y-217385000D02*
X179333616Y-217242142D01*
X179762187Y-217242142D01*
X180208616Y-217385000D01*
X180530044Y-217670714D01*
X180708616Y-217956428D01*
X180922901Y-218527857D01*
X180976473Y-218956428D01*
X180905044Y-219527857D01*
X180797901Y-219813571D01*
X180547901Y-220099285D01*
X180137187Y-220242142D01*
X179851473Y-220242142D01*
X179405044Y-220099285D01*
X179244330Y-219956428D01*
X179119330Y-218956428D01*
X179690758Y-218956428D01*
X177565758Y-220242142D02*
X177833616Y-220099285D01*
X177958616Y-219956428D01*
X178065758Y-219670714D01*
X177958616Y-218813571D01*
X177780044Y-218527857D01*
X177619330Y-218385000D01*
X177315758Y-218242142D01*
X176887187Y-218242142D01*
X176619330Y-218385000D01*
X176494330Y-218527857D01*
X176387187Y-218813571D01*
X176494330Y-219670714D01*
X176672901Y-219956428D01*
X176833616Y-220099285D01*
X177137187Y-220242142D01*
X177565758Y-220242142D01*
X175315758Y-218242142D02*
X174851473Y-220242142D01*
X173887187Y-218242142D01*
D12*
G36*
X258799538Y-135016171D02*
G01*
X256939243Y-135016189D01*
X255159948Y-135016224D01*
X253459820Y-135016281D01*
X251837025Y-135016365D01*
X250289730Y-135016480D01*
X248816102Y-135016630D01*
X247414307Y-135016820D01*
X246082512Y-135017055D01*
X244818884Y-135017339D01*
X243621589Y-135017676D01*
X242488794Y-135018072D01*
X241418666Y-135018531D01*
X240409372Y-135019056D01*
X239459077Y-135019654D01*
X238565949Y-135020328D01*
X237728154Y-135021082D01*
X236943860Y-135021922D01*
X236211232Y-135022852D01*
X235528437Y-135023876D01*
X234893643Y-135025000D01*
X234305015Y-135026226D01*
X233760721Y-135027561D01*
X233258926Y-135029008D01*
X232797799Y-135030573D01*
X232375505Y-135032259D01*
X231990211Y-135034071D01*
X231640083Y-135036013D01*
X231323289Y-135038091D01*
X231037995Y-135040309D01*
X230782368Y-135042671D01*
X230554574Y-135045182D01*
X230352781Y-135047846D01*
X230175154Y-135050668D01*
X230019860Y-135053652D01*
X229885067Y-135056803D01*
X229768940Y-135060125D01*
X229669647Y-135063624D01*
X229585354Y-135067303D01*
X229514227Y-135071167D01*
X229454434Y-135075221D01*
X229404141Y-135079468D01*
X229361515Y-135083915D01*
X229324722Y-135088564D01*
X229291930Y-135093421D01*
X229289000Y-135093887D01*
X228378918Y-135280252D01*
X227500479Y-135542208D01*
X226657649Y-135876863D01*
X225854391Y-136281322D01*
X225094672Y-136752691D01*
X224382456Y-137288077D01*
X223721709Y-137884586D01*
X223116396Y-138539324D01*
X222570482Y-139249398D01*
X222087932Y-140011913D01*
X221796576Y-140561833D01*
X221470462Y-141284865D01*
X221211928Y-141992546D01*
X221015020Y-142706627D01*
X220873786Y-143448858D01*
X220782272Y-144240988D01*
X220779192Y-144278601D01*
X220775641Y-144356704D01*
X220772282Y-144500932D01*
X220769114Y-144712036D01*
X220766137Y-144990766D01*
X220763349Y-145337869D01*
X220760749Y-145754097D01*
X220758337Y-146240199D01*
X220756110Y-146796924D01*
X220754070Y-147425023D01*
X220752213Y-148125243D01*
X220750540Y-148898336D01*
X220749049Y-149745051D01*
X220747740Y-150666137D01*
X220746611Y-151662344D01*
X220745661Y-152734421D01*
X220744890Y-153883118D01*
X220744296Y-155109186D01*
X220743879Y-156413372D01*
X220743638Y-157796427D01*
X220743571Y-159259101D01*
X220743677Y-160802142D01*
X220743956Y-162426302D01*
X220744407Y-164132328D01*
X220745028Y-165920971D01*
X220745819Y-167792981D01*
X220746507Y-169221500D01*
X220758833Y-193605500D01*
X220850361Y-193844725D01*
X221040123Y-194233295D01*
X221287873Y-194561254D01*
X221591230Y-194826341D01*
X221947812Y-195026296D01*
X222188826Y-195114830D01*
X222374640Y-195162996D01*
X222548834Y-195185800D01*
X222751052Y-195187351D01*
X222846750Y-195183047D01*
X223135617Y-195155061D01*
X223376679Y-195099405D01*
X223605062Y-195005481D01*
X223805122Y-194893926D01*
X223860800Y-194850330D01*
X223964535Y-194757700D01*
X224117145Y-194615225D01*
X224319450Y-194422098D01*
X224572271Y-194177510D01*
X224876428Y-193880651D01*
X225232740Y-193530714D01*
X225642027Y-193126889D01*
X226105109Y-192668368D01*
X226622806Y-192154341D01*
X227195938Y-191584001D01*
X227825324Y-190956538D01*
X228511785Y-190271143D01*
X229256140Y-189527009D01*
X229978789Y-188803842D01*
X230693849Y-188087825D01*
X231351365Y-187429112D01*
X231953759Y-186825230D01*
X232503449Y-186273710D01*
X233002856Y-185772080D01*
X233454398Y-185317870D01*
X233860496Y-184908608D01*
X234223569Y-184541824D01*
X234546036Y-184215046D01*
X234830319Y-183925804D01*
X235078836Y-183671628D01*
X235294007Y-183450045D01*
X235478251Y-183258585D01*
X235633989Y-183094777D01*
X235763640Y-182956150D01*
X235869624Y-182840234D01*
X235954360Y-182744558D01*
X236020268Y-182666649D01*
X236069769Y-182604039D01*
X236105281Y-182554255D01*
X236117370Y-182535333D01*
X236326803Y-182163377D01*
X236488242Y-181802577D01*
X236620132Y-181411602D01*
X236622596Y-181403188D01*
X236718500Y-181074833D01*
X236739666Y-167062500D01*
X236760833Y-153050166D01*
X236854962Y-152775000D01*
X237038821Y-152354221D01*
X237284314Y-151976889D01*
X237582997Y-151653037D01*
X237926424Y-151392698D01*
X238100125Y-151295516D01*
X238141448Y-151273258D01*
X238175655Y-151252114D01*
X238204910Y-151232057D01*
X238231373Y-151213059D01*
X238257206Y-151195093D01*
X238284572Y-151178132D01*
X238315631Y-151162147D01*
X238352546Y-151147112D01*
X238397479Y-151132999D01*
X238452591Y-151119780D01*
X238520043Y-151107430D01*
X238601999Y-151095918D01*
X238700618Y-151085220D01*
X238818065Y-151075306D01*
X238956499Y-151066151D01*
X239118083Y-151057725D01*
X239304978Y-151050003D01*
X239519347Y-151042955D01*
X239763351Y-151036556D01*
X240039152Y-151030778D01*
X240348911Y-151025592D01*
X240694791Y-151020973D01*
X241078952Y-151016892D01*
X241503558Y-151013322D01*
X241970769Y-151010235D01*
X242482748Y-151007605D01*
X243041656Y-151005403D01*
X243649655Y-151003603D01*
X244308907Y-151002176D01*
X245021573Y-151001096D01*
X245789816Y-151000336D01*
X246615796Y-150999867D01*
X247501677Y-150999662D01*
X248449619Y-150999694D01*
X249461784Y-150999936D01*
X250540334Y-151000359D01*
X251687431Y-151000937D01*
X252905237Y-151001643D01*
X254195913Y-151002448D01*
X255561621Y-151003326D01*
X257004524Y-151004249D01*
X258526781Y-151005189D01*
X260130557Y-151006120D01*
X260890833Y-151006534D01*
X282734833Y-151018166D01*
X283051378Y-151133689D01*
X283463863Y-151326330D01*
X283835243Y-151584398D01*
X284154564Y-151898220D01*
X284410871Y-152258126D01*
X284488094Y-152402160D01*
X284507073Y-152438163D01*
X284525096Y-152468344D01*
X284542187Y-152494868D01*
X284558372Y-152519906D01*
X284573674Y-152545625D01*
X284588119Y-152574193D01*
X284601731Y-152607779D01*
X284614534Y-152648552D01*
X284626553Y-152698678D01*
X284637813Y-152760328D01*
X284648338Y-152835668D01*
X284658153Y-152926868D01*
X284667282Y-153036095D01*
X284675750Y-153165518D01*
X284683581Y-153317306D01*
X284690801Y-153493625D01*
X284697433Y-153696646D01*
X284703502Y-153928536D01*
X284709033Y-154191463D01*
X284714051Y-154487596D01*
X284718579Y-154819103D01*
X284722643Y-155188152D01*
X284726266Y-155596912D01*
X284729475Y-156047551D01*
X284732293Y-156542237D01*
X284734744Y-157083138D01*
X284736854Y-157672424D01*
X284738647Y-158312261D01*
X284740147Y-159004819D01*
X284741379Y-159752265D01*
X284742368Y-160556769D01*
X284743138Y-161420498D01*
X284743714Y-162345620D01*
X284744121Y-163334305D01*
X284744382Y-164388720D01*
X284744523Y-165511033D01*
X284744568Y-166703413D01*
X284744541Y-167968028D01*
X284744468Y-169307046D01*
X284744373Y-170722637D01*
X284744280Y-172216967D01*
X284744213Y-173792206D01*
X284744196Y-175000000D01*
X284744226Y-176635804D01*
X284744297Y-178189110D01*
X284744387Y-179662085D01*
X284744471Y-181056898D01*
X284744526Y-182375716D01*
X284744527Y-183620707D01*
X284744450Y-184794040D01*
X284744272Y-185897883D01*
X284743968Y-186934402D01*
X284743514Y-187905768D01*
X284742886Y-188814146D01*
X284742061Y-189661707D01*
X284741015Y-190450616D01*
X284739722Y-191183043D01*
X284738160Y-191861156D01*
X284736304Y-192487122D01*
X284734130Y-193063110D01*
X284731615Y-193591287D01*
X284728734Y-194073822D01*
X284725463Y-194512882D01*
X284721778Y-194910636D01*
X284717656Y-195269251D01*
X284713072Y-195590897D01*
X284708002Y-195877739D01*
X284702423Y-196131947D01*
X284696309Y-196355689D01*
X284689638Y-196551133D01*
X284682385Y-196720446D01*
X284674526Y-196865797D01*
X284666038Y-196989353D01*
X284656896Y-197093283D01*
X284647076Y-197179755D01*
X284636554Y-197250937D01*
X284625306Y-197308996D01*
X284613309Y-197356101D01*
X284600537Y-197394419D01*
X284586968Y-197426120D01*
X284572577Y-197453370D01*
X284557340Y-197478337D01*
X284541234Y-197503191D01*
X284524233Y-197530098D01*
X284506315Y-197561228D01*
X284494125Y-197584833D01*
X284267130Y-197954163D01*
X283973479Y-198286801D01*
X283627774Y-198569846D01*
X283244614Y-198790395D01*
X283031166Y-198877599D01*
X282734833Y-198981833D01*
X268722500Y-199003000D01*
X254710166Y-199024166D01*
X254380653Y-199118050D01*
X254045598Y-199231443D01*
X253696654Y-199380666D01*
X253365644Y-199550676D01*
X253084389Y-199726426D01*
X253065791Y-199739706D01*
X253010120Y-199788195D01*
X252897702Y-199893716D01*
X252731532Y-200053303D01*
X252514605Y-200263993D01*
X252249915Y-200522820D01*
X251940456Y-200826821D01*
X251589225Y-201173032D01*
X251199215Y-201558489D01*
X250773421Y-201980227D01*
X250314838Y-202435282D01*
X249826460Y-202920689D01*
X249311283Y-203433485D01*
X248772300Y-203970706D01*
X248212507Y-204529387D01*
X247634898Y-205106564D01*
X247042469Y-205699272D01*
X246831334Y-205910680D01*
X246098733Y-206644582D01*
X245424030Y-207320921D01*
X244805106Y-207941857D01*
X244239845Y-208509548D01*
X243726127Y-209026153D01*
X243261834Y-209493829D01*
X242844849Y-209914736D01*
X242473054Y-210291032D01*
X242144330Y-210624876D01*
X241856560Y-210918425D01*
X241607625Y-211173840D01*
X241395407Y-211393277D01*
X241217789Y-211578896D01*
X241072652Y-211732855D01*
X240957879Y-211857313D01*
X240871350Y-211954427D01*
X240810950Y-212026358D01*
X240774558Y-212075263D01*
X240763186Y-212094834D01*
X240618385Y-212494810D01*
X240554697Y-212896105D01*
X240570798Y-213290633D01*
X240665367Y-213670307D01*
X240837081Y-214027042D01*
X241084618Y-214352752D01*
X241142157Y-214412509D01*
X241450186Y-214669732D01*
X241788912Y-214852083D01*
X242053980Y-214940106D01*
X242077689Y-214944698D01*
X242114031Y-214949067D01*
X242165011Y-214953219D01*
X242232629Y-214957159D01*
X242318889Y-214960891D01*
X242425792Y-214964420D01*
X242555341Y-214967751D01*
X242709538Y-214970889D01*
X242890386Y-214973838D01*
X243099886Y-214976604D01*
X243340041Y-214979191D01*
X243612854Y-214981603D01*
X243920327Y-214983846D01*
X244264462Y-214985925D01*
X244647261Y-214987843D01*
X245070727Y-214989607D01*
X245536863Y-214991220D01*
X246047669Y-214992688D01*
X246605149Y-214994015D01*
X247211305Y-214995206D01*
X247868140Y-214996266D01*
X248577655Y-214997200D01*
X249341853Y-214998012D01*
X250162737Y-214998707D01*
X251042308Y-214999290D01*
X251982569Y-214999766D01*
X252985522Y-215000139D01*
X254053170Y-215000415D01*
X255187515Y-215000598D01*
X256390559Y-215000692D01*
X257664305Y-215000703D01*
X259010754Y-215000636D01*
X260431910Y-215000495D01*
X261929774Y-215000284D01*
X263506349Y-215000010D01*
X265163638Y-214999675D01*
X266858144Y-214999297D01*
X268441445Y-214998864D01*
X269990144Y-214998308D01*
X271502305Y-214997635D01*
X272975991Y-214996846D01*
X274409264Y-214995946D01*
X275800189Y-214994938D01*
X277146828Y-214993825D01*
X278447245Y-214992610D01*
X279699503Y-214991299D01*
X280901664Y-214989892D01*
X282051793Y-214988395D01*
X283147952Y-214986810D01*
X284188204Y-214985141D01*
X285170614Y-214983391D01*
X286093243Y-214981564D01*
X286954155Y-214979663D01*
X287751413Y-214977692D01*
X288483081Y-214975654D01*
X289147222Y-214973552D01*
X289741898Y-214971390D01*
X290265174Y-214969171D01*
X290715112Y-214966899D01*
X291089775Y-214964577D01*
X291387227Y-214962208D01*
X291605530Y-214959796D01*
X291742749Y-214957345D01*
X291794166Y-214955235D01*
X292666139Y-214825237D01*
X293528746Y-214612878D01*
X294376413Y-214320379D01*
X295203566Y-213949959D01*
X296004629Y-213503839D01*
X296774029Y-212984239D01*
X296810666Y-212957042D01*
X297061943Y-212755330D01*
X297347605Y-212502073D01*
X297651444Y-212213611D01*
X297957251Y-211906288D01*
X298248819Y-211596444D01*
X298509939Y-211300422D01*
X298724402Y-211034564D01*
X298746031Y-211005736D01*
X299260402Y-210244483D01*
X299702710Y-209443806D01*
X300070509Y-208609995D01*
X300361355Y-207749341D01*
X300572805Y-206868135D01*
X300702413Y-205972668D01*
X300702667Y-205970064D01*
X300705535Y-205898229D01*
X300708314Y-205744325D01*
X300711004Y-205510948D01*
X300713604Y-205200696D01*
X300716115Y-204816165D01*
X300718536Y-204359954D01*
X300720868Y-203834658D01*
X300723111Y-203242876D01*
X300725265Y-202587204D01*
X300727329Y-201870239D01*
X300729303Y-201094579D01*
X300731189Y-200262820D01*
X300732985Y-199377559D01*
X300734691Y-198441395D01*
X300736309Y-197456923D01*
X300737837Y-196426741D01*
X300739275Y-195353446D01*
X300740624Y-194239636D01*
X300741884Y-193087906D01*
X300743055Y-191900855D01*
X300744136Y-190681079D01*
X300745128Y-189431176D01*
X300746030Y-188153743D01*
X300746844Y-186851376D01*
X300747567Y-185526673D01*
X300748201Y-184182231D01*
X300748746Y-182820647D01*
X300749202Y-181444518D01*
X300749568Y-180056442D01*
X300749845Y-178659015D01*
X300750033Y-177254834D01*
X300750131Y-175846497D01*
X300750140Y-174436601D01*
X300750060Y-173027742D01*
X300749890Y-171622518D01*
X300749631Y-170223526D01*
X300749282Y-168833363D01*
X300748844Y-167454627D01*
X300748317Y-166089914D01*
X300747701Y-164741821D01*
X300746996Y-163412945D01*
X300746201Y-162105885D01*
X300745316Y-160823235D01*
X300744342Y-159567595D01*
X300743279Y-158341561D01*
X300742127Y-157147729D01*
X300740885Y-155988698D01*
X300739553Y-154867064D01*
X300738133Y-153785424D01*
X300736623Y-152746376D01*
X300735023Y-151752516D01*
X300733335Y-150806442D01*
X300731556Y-149910750D01*
X300729689Y-149068039D01*
X300727732Y-148280904D01*
X300725686Y-147551943D01*
X300723551Y-146883754D01*
X300721326Y-146278932D01*
X300719012Y-145740076D01*
X300716608Y-145269783D01*
X300714115Y-144870649D01*
X300711533Y-144545272D01*
X300708862Y-144296248D01*
X300706101Y-144126175D01*
X300703250Y-144037651D01*
X300702667Y-144029935D01*
X300573299Y-143134435D01*
X300362082Y-142253179D01*
X300071462Y-141392457D01*
X299703882Y-140558560D01*
X299261786Y-139757778D01*
X298747619Y-138996401D01*
X298746031Y-138994263D01*
X298533426Y-138727287D01*
X298271269Y-138428037D01*
X297976170Y-138113237D01*
X297664738Y-137799610D01*
X297353583Y-137503881D01*
X297059314Y-137242773D01*
X296798541Y-137033010D01*
X296797060Y-137031902D01*
X296022804Y-136503004D01*
X295219662Y-136053209D01*
X294384780Y-135681313D01*
X293515301Y-135386113D01*
X292608368Y-135166407D01*
X292194824Y-135093042D01*
X292162200Y-135088217D01*
X292125342Y-135083598D01*
X292082420Y-135079181D01*
X292031599Y-135074960D01*
X291971048Y-135070932D01*
X291898935Y-135067091D01*
X291813427Y-135063434D01*
X291712692Y-135059957D01*
X291594896Y-135056653D01*
X291458209Y-135053520D01*
X291300797Y-135050552D01*
X291120828Y-135047745D01*
X290916470Y-135045095D01*
X290685890Y-135042597D01*
X290427256Y-135040247D01*
X290138735Y-135038039D01*
X289818496Y-135035971D01*
X289464705Y-135034036D01*
X289075530Y-135032232D01*
X288649140Y-135030552D01*
X288183700Y-135028993D01*
X287677380Y-135027551D01*
X287128347Y-135026220D01*
X286534768Y-135024997D01*
X285894810Y-135023876D01*
X285206642Y-135022854D01*
X284468432Y-135021926D01*
X283678346Y-135021087D01*
X282834552Y-135020333D01*
X281935218Y-135019660D01*
X280978512Y-135019062D01*
X279962601Y-135018536D01*
X278885652Y-135018077D01*
X277745834Y-135017681D01*
X276541313Y-135017343D01*
X275270259Y-135017058D01*
X273930837Y-135016822D01*
X272521216Y-135016631D01*
X271039563Y-135016480D01*
X269484046Y-135016365D01*
X267852833Y-135016281D01*
X266144091Y-135016223D01*
X264355988Y-135016188D01*
X262486691Y-135016170D01*
X260742666Y-135016166D01*
X258799538Y-135016171D01*
X258799538Y-135016171D01*
G37*
X258799538Y-135016171D02*
X256939243Y-135016189D01*
X255159948Y-135016224D01*
X253459820Y-135016281D01*
X251837025Y-135016365D01*
X250289730Y-135016480D01*
X248816102Y-135016630D01*
X247414307Y-135016820D01*
X246082512Y-135017055D01*
X244818884Y-135017339D01*
X243621589Y-135017676D01*
X242488794Y-135018072D01*
X241418666Y-135018531D01*
X240409372Y-135019056D01*
X239459077Y-135019654D01*
X238565949Y-135020328D01*
X237728154Y-135021082D01*
X236943860Y-135021922D01*
X236211232Y-135022852D01*
X235528437Y-135023876D01*
X234893643Y-135025000D01*
X234305015Y-135026226D01*
X233760721Y-135027561D01*
X233258926Y-135029008D01*
X232797799Y-135030573D01*
X232375505Y-135032259D01*
X231990211Y-135034071D01*
X231640083Y-135036013D01*
X231323289Y-135038091D01*
X231037995Y-135040309D01*
X230782368Y-135042671D01*
X230554574Y-135045182D01*
X230352781Y-135047846D01*
X230175154Y-135050668D01*
X230019860Y-135053652D01*
X229885067Y-135056803D01*
X229768940Y-135060125D01*
X229669647Y-135063624D01*
X229585354Y-135067303D01*
X229514227Y-135071167D01*
X229454434Y-135075221D01*
X229404141Y-135079468D01*
X229361515Y-135083915D01*
X229324722Y-135088564D01*
X229291930Y-135093421D01*
X229289000Y-135093887D01*
X228378918Y-135280252D01*
X227500479Y-135542208D01*
X226657649Y-135876863D01*
X225854391Y-136281322D01*
X225094672Y-136752691D01*
X224382456Y-137288077D01*
X223721709Y-137884586D01*
X223116396Y-138539324D01*
X222570482Y-139249398D01*
X222087932Y-140011913D01*
X221796576Y-140561833D01*
X221470462Y-141284865D01*
X221211928Y-141992546D01*
X221015020Y-142706627D01*
X220873786Y-143448858D01*
X220782272Y-144240988D01*
X220779192Y-144278601D01*
X220775641Y-144356704D01*
X220772282Y-144500932D01*
X220769114Y-144712036D01*
X220766137Y-144990766D01*
X220763349Y-145337869D01*
X220760749Y-145754097D01*
X220758337Y-146240199D01*
X220756110Y-146796924D01*
X220754070Y-147425023D01*
X220752213Y-148125243D01*
X220750540Y-148898336D01*
X220749049Y-149745051D01*
X220747740Y-150666137D01*
X220746611Y-151662344D01*
X220745661Y-152734421D01*
X220744890Y-153883118D01*
X220744296Y-155109186D01*
X220743879Y-156413372D01*
X220743638Y-157796427D01*
X220743571Y-159259101D01*
X220743677Y-160802142D01*
X220743956Y-162426302D01*
X220744407Y-164132328D01*
X220745028Y-165920971D01*
X220745819Y-167792981D01*
X220746507Y-169221500D01*
X220758833Y-193605500D01*
X220850361Y-193844725D01*
X221040123Y-194233295D01*
X221287873Y-194561254D01*
X221591230Y-194826341D01*
X221947812Y-195026296D01*
X222188826Y-195114830D01*
X222374640Y-195162996D01*
X222548834Y-195185800D01*
X222751052Y-195187351D01*
X222846750Y-195183047D01*
X223135617Y-195155061D01*
X223376679Y-195099405D01*
X223605062Y-195005481D01*
X223805122Y-194893926D01*
X223860800Y-194850330D01*
X223964535Y-194757700D01*
X224117145Y-194615225D01*
X224319450Y-194422098D01*
X224572271Y-194177510D01*
X224876428Y-193880651D01*
X225232740Y-193530714D01*
X225642027Y-193126889D01*
X226105109Y-192668368D01*
X226622806Y-192154341D01*
X227195938Y-191584001D01*
X227825324Y-190956538D01*
X228511785Y-190271143D01*
X229256140Y-189527009D01*
X229978789Y-188803842D01*
X230693849Y-188087825D01*
X231351365Y-187429112D01*
X231953759Y-186825230D01*
X232503449Y-186273710D01*
X233002856Y-185772080D01*
X233454398Y-185317870D01*
X233860496Y-184908608D01*
X234223569Y-184541824D01*
X234546036Y-184215046D01*
X234830319Y-183925804D01*
X235078836Y-183671628D01*
X235294007Y-183450045D01*
X235478251Y-183258585D01*
X235633989Y-183094777D01*
X235763640Y-182956150D01*
X235869624Y-182840234D01*
X235954360Y-182744558D01*
X236020268Y-182666649D01*
X236069769Y-182604039D01*
X236105281Y-182554255D01*
X236117370Y-182535333D01*
X236326803Y-182163377D01*
X236488242Y-181802577D01*
X236620132Y-181411602D01*
X236622596Y-181403188D01*
X236718500Y-181074833D01*
X236739666Y-167062500D01*
X236760833Y-153050166D01*
X236854962Y-152775000D01*
X237038821Y-152354221D01*
X237284314Y-151976889D01*
X237582997Y-151653037D01*
X237926424Y-151392698D01*
X238100125Y-151295516D01*
X238141448Y-151273258D01*
X238175655Y-151252114D01*
X238204910Y-151232057D01*
X238231373Y-151213059D01*
X238257206Y-151195093D01*
X238284572Y-151178132D01*
X238315631Y-151162147D01*
X238352546Y-151147112D01*
X238397479Y-151132999D01*
X238452591Y-151119780D01*
X238520043Y-151107430D01*
X238601999Y-151095918D01*
X238700618Y-151085220D01*
X238818065Y-151075306D01*
X238956499Y-151066151D01*
X239118083Y-151057725D01*
X239304978Y-151050003D01*
X239519347Y-151042955D01*
X239763351Y-151036556D01*
X240039152Y-151030778D01*
X240348911Y-151025592D01*
X240694791Y-151020973D01*
X241078952Y-151016892D01*
X241503558Y-151013322D01*
X241970769Y-151010235D01*
X242482748Y-151007605D01*
X243041656Y-151005403D01*
X243649655Y-151003603D01*
X244308907Y-151002176D01*
X245021573Y-151001096D01*
X245789816Y-151000336D01*
X246615796Y-150999867D01*
X247501677Y-150999662D01*
X248449619Y-150999694D01*
X249461784Y-150999936D01*
X250540334Y-151000359D01*
X251687431Y-151000937D01*
X252905237Y-151001643D01*
X254195913Y-151002448D01*
X255561621Y-151003326D01*
X257004524Y-151004249D01*
X258526781Y-151005189D01*
X260130557Y-151006120D01*
X260890833Y-151006534D01*
X282734833Y-151018166D01*
X283051378Y-151133689D01*
X283463863Y-151326330D01*
X283835243Y-151584398D01*
X284154564Y-151898220D01*
X284410871Y-152258126D01*
X284488094Y-152402160D01*
X284507073Y-152438163D01*
X284525096Y-152468344D01*
X284542187Y-152494868D01*
X284558372Y-152519906D01*
X284573674Y-152545625D01*
X284588119Y-152574193D01*
X284601731Y-152607779D01*
X284614534Y-152648552D01*
X284626553Y-152698678D01*
X284637813Y-152760328D01*
X284648338Y-152835668D01*
X284658153Y-152926868D01*
X284667282Y-153036095D01*
X284675750Y-153165518D01*
X284683581Y-153317306D01*
X284690801Y-153493625D01*
X284697433Y-153696646D01*
X284703502Y-153928536D01*
X284709033Y-154191463D01*
X284714051Y-154487596D01*
X284718579Y-154819103D01*
X284722643Y-155188152D01*
X284726266Y-155596912D01*
X284729475Y-156047551D01*
X284732293Y-156542237D01*
X284734744Y-157083138D01*
X284736854Y-157672424D01*
X284738647Y-158312261D01*
X284740147Y-159004819D01*
X284741379Y-159752265D01*
X284742368Y-160556769D01*
X284743138Y-161420498D01*
X284743714Y-162345620D01*
X284744121Y-163334305D01*
X284744382Y-164388720D01*
X284744523Y-165511033D01*
X284744568Y-166703413D01*
X284744541Y-167968028D01*
X284744468Y-169307046D01*
X284744373Y-170722637D01*
X284744280Y-172216967D01*
X284744213Y-173792206D01*
X284744196Y-175000000D01*
X284744226Y-176635804D01*
X284744297Y-178189110D01*
X284744387Y-179662085D01*
X284744471Y-181056898D01*
X284744526Y-182375716D01*
X284744527Y-183620707D01*
X284744450Y-184794040D01*
X284744272Y-185897883D01*
X284743968Y-186934402D01*
X284743514Y-187905768D01*
X284742886Y-188814146D01*
X284742061Y-189661707D01*
X284741015Y-190450616D01*
X284739722Y-191183043D01*
X284738160Y-191861156D01*
X284736304Y-192487122D01*
X284734130Y-193063110D01*
X284731615Y-193591287D01*
X284728734Y-194073822D01*
X284725463Y-194512882D01*
X284721778Y-194910636D01*
X284717656Y-195269251D01*
X284713072Y-195590897D01*
X284708002Y-195877739D01*
X284702423Y-196131947D01*
X284696309Y-196355689D01*
X284689638Y-196551133D01*
X284682385Y-196720446D01*
X284674526Y-196865797D01*
X284666038Y-196989353D01*
X284656896Y-197093283D01*
X284647076Y-197179755D01*
X284636554Y-197250937D01*
X284625306Y-197308996D01*
X284613309Y-197356101D01*
X284600537Y-197394419D01*
X284586968Y-197426120D01*
X284572577Y-197453370D01*
X284557340Y-197478337D01*
X284541234Y-197503191D01*
X284524233Y-197530098D01*
X284506315Y-197561228D01*
X284494125Y-197584833D01*
X284267130Y-197954163D01*
X283973479Y-198286801D01*
X283627774Y-198569846D01*
X283244614Y-198790395D01*
X283031166Y-198877599D01*
X282734833Y-198981833D01*
X268722500Y-199003000D01*
X254710166Y-199024166D01*
X254380653Y-199118050D01*
X254045598Y-199231443D01*
X253696654Y-199380666D01*
X253365644Y-199550676D01*
X253084389Y-199726426D01*
X253065791Y-199739706D01*
X253010120Y-199788195D01*
X252897702Y-199893716D01*
X252731532Y-200053303D01*
X252514605Y-200263993D01*
X252249915Y-200522820D01*
X251940456Y-200826821D01*
X251589225Y-201173032D01*
X251199215Y-201558489D01*
X250773421Y-201980227D01*
X250314838Y-202435282D01*
X249826460Y-202920689D01*
X249311283Y-203433485D01*
X248772300Y-203970706D01*
X248212507Y-204529387D01*
X247634898Y-205106564D01*
X247042469Y-205699272D01*
X246831334Y-205910680D01*
X246098733Y-206644582D01*
X245424030Y-207320921D01*
X244805106Y-207941857D01*
X244239845Y-208509548D01*
X243726127Y-209026153D01*
X243261834Y-209493829D01*
X242844849Y-209914736D01*
X242473054Y-210291032D01*
X242144330Y-210624876D01*
X241856560Y-210918425D01*
X241607625Y-211173840D01*
X241395407Y-211393277D01*
X241217789Y-211578896D01*
X241072652Y-211732855D01*
X240957879Y-211857313D01*
X240871350Y-211954427D01*
X240810950Y-212026358D01*
X240774558Y-212075263D01*
X240763186Y-212094834D01*
X240618385Y-212494810D01*
X240554697Y-212896105D01*
X240570798Y-213290633D01*
X240665367Y-213670307D01*
X240837081Y-214027042D01*
X241084618Y-214352752D01*
X241142157Y-214412509D01*
X241450186Y-214669732D01*
X241788912Y-214852083D01*
X242053980Y-214940106D01*
X242077689Y-214944698D01*
X242114031Y-214949067D01*
X242165011Y-214953219D01*
X242232629Y-214957159D01*
X242318889Y-214960891D01*
X242425792Y-214964420D01*
X242555341Y-214967751D01*
X242709538Y-214970889D01*
X242890386Y-214973838D01*
X243099886Y-214976604D01*
X243340041Y-214979191D01*
X243612854Y-214981603D01*
X243920327Y-214983846D01*
X244264462Y-214985925D01*
X244647261Y-214987843D01*
X245070727Y-214989607D01*
X245536863Y-214991220D01*
X246047669Y-214992688D01*
X246605149Y-214994015D01*
X247211305Y-214995206D01*
X247868140Y-214996266D01*
X248577655Y-214997200D01*
X249341853Y-214998012D01*
X250162737Y-214998707D01*
X251042308Y-214999290D01*
X251982569Y-214999766D01*
X252985522Y-215000139D01*
X254053170Y-215000415D01*
X255187515Y-215000598D01*
X256390559Y-215000692D01*
X257664305Y-215000703D01*
X259010754Y-215000636D01*
X260431910Y-215000495D01*
X261929774Y-215000284D01*
X263506349Y-215000010D01*
X265163638Y-214999675D01*
X266858144Y-214999297D01*
X268441445Y-214998864D01*
X269990144Y-214998308D01*
X271502305Y-214997635D01*
X272975991Y-214996846D01*
X274409264Y-214995946D01*
X275800189Y-214994938D01*
X277146828Y-214993825D01*
X278447245Y-214992610D01*
X279699503Y-214991299D01*
X280901664Y-214989892D01*
X282051793Y-214988395D01*
X283147952Y-214986810D01*
X284188204Y-214985141D01*
X285170614Y-214983391D01*
X286093243Y-214981564D01*
X286954155Y-214979663D01*
X287751413Y-214977692D01*
X288483081Y-214975654D01*
X289147222Y-214973552D01*
X289741898Y-214971390D01*
X290265174Y-214969171D01*
X290715112Y-214966899D01*
X291089775Y-214964577D01*
X291387227Y-214962208D01*
X291605530Y-214959796D01*
X291742749Y-214957345D01*
X291794166Y-214955235D01*
X292666139Y-214825237D01*
X293528746Y-214612878D01*
X294376413Y-214320379D01*
X295203566Y-213949959D01*
X296004629Y-213503839D01*
X296774029Y-212984239D01*
X296810666Y-212957042D01*
X297061943Y-212755330D01*
X297347605Y-212502073D01*
X297651444Y-212213611D01*
X297957251Y-211906288D01*
X298248819Y-211596444D01*
X298509939Y-211300422D01*
X298724402Y-211034564D01*
X298746031Y-211005736D01*
X299260402Y-210244483D01*
X299702710Y-209443806D01*
X300070509Y-208609995D01*
X300361355Y-207749341D01*
X300572805Y-206868135D01*
X300702413Y-205972668D01*
X300702667Y-205970064D01*
X300705535Y-205898229D01*
X300708314Y-205744325D01*
X300711004Y-205510948D01*
X300713604Y-205200696D01*
X300716115Y-204816165D01*
X300718536Y-204359954D01*
X300720868Y-203834658D01*
X300723111Y-203242876D01*
X300725265Y-202587204D01*
X300727329Y-201870239D01*
X300729303Y-201094579D01*
X300731189Y-200262820D01*
X300732985Y-199377559D01*
X300734691Y-198441395D01*
X300736309Y-197456923D01*
X300737837Y-196426741D01*
X300739275Y-195353446D01*
X300740624Y-194239636D01*
X300741884Y-193087906D01*
X300743055Y-191900855D01*
X300744136Y-190681079D01*
X300745128Y-189431176D01*
X300746030Y-188153743D01*
X300746844Y-186851376D01*
X300747567Y-185526673D01*
X300748201Y-184182231D01*
X300748746Y-182820647D01*
X300749202Y-181444518D01*
X300749568Y-180056442D01*
X300749845Y-178659015D01*
X300750033Y-177254834D01*
X300750131Y-175846497D01*
X300750140Y-174436601D01*
X300750060Y-173027742D01*
X300749890Y-171622518D01*
X300749631Y-170223526D01*
X300749282Y-168833363D01*
X300748844Y-167454627D01*
X300748317Y-166089914D01*
X300747701Y-164741821D01*
X300746996Y-163412945D01*
X300746201Y-162105885D01*
X300745316Y-160823235D01*
X300744342Y-159567595D01*
X300743279Y-158341561D01*
X300742127Y-157147729D01*
X300740885Y-155988698D01*
X300739553Y-154867064D01*
X300738133Y-153785424D01*
X300736623Y-152746376D01*
X300735023Y-151752516D01*
X300733335Y-150806442D01*
X300731556Y-149910750D01*
X300729689Y-149068039D01*
X300727732Y-148280904D01*
X300725686Y-147551943D01*
X300723551Y-146883754D01*
X300721326Y-146278932D01*
X300719012Y-145740076D01*
X300716608Y-145269783D01*
X300714115Y-144870649D01*
X300711533Y-144545272D01*
X300708862Y-144296248D01*
X300706101Y-144126175D01*
X300703250Y-144037651D01*
X300702667Y-144029935D01*
X300573299Y-143134435D01*
X300362082Y-142253179D01*
X300071462Y-141392457D01*
X299703882Y-140558560D01*
X299261786Y-139757778D01*
X298747619Y-138996401D01*
X298746031Y-138994263D01*
X298533426Y-138727287D01*
X298271269Y-138428037D01*
X297976170Y-138113237D01*
X297664738Y-137799610D01*
X297353583Y-137503881D01*
X297059314Y-137242773D01*
X296798541Y-137033010D01*
X296797060Y-137031902D01*
X296022804Y-136503004D01*
X295219662Y-136053209D01*
X294384780Y-135681313D01*
X293515301Y-135386113D01*
X292608368Y-135166407D01*
X292194824Y-135093042D01*
X292162200Y-135088217D01*
X292125342Y-135083598D01*
X292082420Y-135079181D01*
X292031599Y-135074960D01*
X291971048Y-135070932D01*
X291898935Y-135067091D01*
X291813427Y-135063434D01*
X291712692Y-135059957D01*
X291594896Y-135056653D01*
X291458209Y-135053520D01*
X291300797Y-135050552D01*
X291120828Y-135047745D01*
X290916470Y-135045095D01*
X290685890Y-135042597D01*
X290427256Y-135040247D01*
X290138735Y-135038039D01*
X289818496Y-135035971D01*
X289464705Y-135034036D01*
X289075530Y-135032232D01*
X288649140Y-135030552D01*
X288183700Y-135028993D01*
X287677380Y-135027551D01*
X287128347Y-135026220D01*
X286534768Y-135024997D01*
X285894810Y-135023876D01*
X285206642Y-135022854D01*
X284468432Y-135021926D01*
X283678346Y-135021087D01*
X282834552Y-135020333D01*
X281935218Y-135019660D01*
X280978512Y-135019062D01*
X279962601Y-135018536D01*
X278885652Y-135018077D01*
X277745834Y-135017681D01*
X276541313Y-135017343D01*
X275270259Y-135017058D01*
X273930837Y-135016822D01*
X272521216Y-135016631D01*
X271039563Y-135016480D01*
X269484046Y-135016365D01*
X267852833Y-135016281D01*
X266144091Y-135016223D01*
X264355988Y-135016188D01*
X262486691Y-135016170D01*
X260742666Y-135016166D01*
X258799538Y-135016171D01*
G36*
X177890311Y-151003068D02*
G01*
X177111384Y-151003301D01*
X176391292Y-151003707D01*
X175727688Y-151004294D01*
X175118223Y-151005067D01*
X174560549Y-151006035D01*
X174052317Y-151007202D01*
X173591180Y-151008577D01*
X173174789Y-151010166D01*
X172800796Y-151011975D01*
X172466852Y-151014012D01*
X172170610Y-151016282D01*
X171909721Y-151018794D01*
X171681836Y-151021552D01*
X171484608Y-151024565D01*
X171315688Y-151027838D01*
X171172729Y-151031379D01*
X171053381Y-151035193D01*
X170955296Y-151039289D01*
X170876127Y-151043672D01*
X170813525Y-151048350D01*
X170765141Y-151053328D01*
X170728628Y-151058614D01*
X170710098Y-151062229D01*
X170283683Y-151198123D01*
X169893720Y-151405979D01*
X169548229Y-151678010D01*
X169255228Y-152006429D01*
X169022736Y-152383449D01*
X168858772Y-152801282D01*
X168836879Y-152881306D01*
X168824949Y-152929736D01*
X168814198Y-152979925D01*
X168804563Y-153036298D01*
X168795983Y-153103281D01*
X168788398Y-153185299D01*
X168781745Y-153286778D01*
X168775965Y-153412142D01*
X168770995Y-153565819D01*
X168766775Y-153752233D01*
X168763244Y-153975809D01*
X168760340Y-154240973D01*
X168758001Y-154552152D01*
X168756168Y-154913769D01*
X168754778Y-155330251D01*
X168753771Y-155806023D01*
X168753086Y-156345511D01*
X168752660Y-156953140D01*
X168752434Y-157633335D01*
X168752346Y-158390523D01*
X168752333Y-158998000D01*
X168752359Y-159814529D01*
X168752478Y-160550817D01*
X168752752Y-161211290D01*
X168753240Y-161800372D01*
X168754005Y-162322490D01*
X168755108Y-162782069D01*
X168756610Y-163183534D01*
X168758571Y-163531311D01*
X168761054Y-163829825D01*
X168764119Y-164083501D01*
X168767828Y-164296767D01*
X168772241Y-164474046D01*
X168777420Y-164619764D01*
X168783426Y-164738347D01*
X168790321Y-164834221D01*
X168798164Y-164911810D01*
X168807018Y-164975540D01*
X168816944Y-165029837D01*
X168828003Y-165079127D01*
X168836879Y-165114693D01*
X168989338Y-165544843D01*
X169216726Y-165935669D01*
X169510865Y-166279333D01*
X169844231Y-166558978D01*
X170208395Y-166766040D01*
X170620775Y-166910329D01*
X170640231Y-166915372D01*
X170671747Y-166923159D01*
X170705266Y-166930446D01*
X170743567Y-166937251D01*
X170789427Y-166943590D01*
X170845624Y-166949480D01*
X170914936Y-166954937D01*
X171000142Y-166959978D01*
X171104020Y-166964619D01*
X171229347Y-166968877D01*
X171378901Y-166972768D01*
X171555462Y-166976309D01*
X171761805Y-166979516D01*
X172000711Y-166982405D01*
X172274956Y-166984994D01*
X172587320Y-166987299D01*
X172940579Y-166989337D01*
X173337512Y-166991123D01*
X173780897Y-166992674D01*
X174273512Y-166994007D01*
X174818135Y-166995139D01*
X175417544Y-166996085D01*
X176074517Y-166996863D01*
X176791833Y-166997489D01*
X177572269Y-166997979D01*
X178418603Y-166998350D01*
X179333613Y-166998618D01*
X180320078Y-166998800D01*
X181380775Y-166998913D01*
X182518483Y-166998973D01*
X183735980Y-166998996D01*
X184710997Y-166998999D01*
X186153919Y-166999112D01*
X187513095Y-166999452D01*
X188789446Y-167000023D01*
X189983891Y-167000826D01*
X191097353Y-167001866D01*
X192130751Y-167003145D01*
X193085005Y-167004666D01*
X193961037Y-167006433D01*
X194759766Y-167008447D01*
X195482114Y-167010713D01*
X196129000Y-167013232D01*
X196701345Y-167016008D01*
X197200071Y-167019045D01*
X197626096Y-167022344D01*
X197980342Y-167025909D01*
X198263729Y-167029743D01*
X198477179Y-167033848D01*
X198621610Y-167038229D01*
X198697944Y-167042887D01*
X198705975Y-167043999D01*
X198857509Y-167083373D01*
X199051530Y-167150860D01*
X199255803Y-167234756D01*
X199345627Y-167276257D01*
X199736588Y-167506702D01*
X200063141Y-167791186D01*
X200328669Y-168133027D01*
X200461914Y-168370713D01*
X200529895Y-168512606D01*
X200586491Y-168644127D01*
X200632741Y-168774592D01*
X200669681Y-168913318D01*
X200698352Y-169069624D01*
X200719790Y-169252825D01*
X200735035Y-169472239D01*
X200745125Y-169737184D01*
X200751098Y-170056977D01*
X200753992Y-170440934D01*
X200754846Y-170898374D01*
X200754863Y-170999500D01*
X200754293Y-171472754D01*
X200751890Y-171870662D01*
X200746616Y-172202543D01*
X200737433Y-172477712D01*
X200723302Y-172705487D01*
X200703185Y-172895185D01*
X200676044Y-173056124D01*
X200640840Y-173197621D01*
X200596536Y-173328993D01*
X200542092Y-173459557D01*
X200476471Y-173598631D01*
X200461914Y-173628286D01*
X200238294Y-173996420D01*
X199954264Y-174312641D01*
X199605607Y-174580550D01*
X199188106Y-174803749D01*
X198989987Y-174885494D01*
X198745500Y-174978833D01*
X188225666Y-175001299D01*
X187096282Y-175003643D01*
X186048248Y-175005731D01*
X185078245Y-175007651D01*
X184182959Y-175009490D01*
X183359072Y-175011338D01*
X182603267Y-175013281D01*
X181912228Y-175015408D01*
X181282638Y-175017807D01*
X180711181Y-175020564D01*
X180194539Y-175023769D01*
X179729396Y-175027509D01*
X179312435Y-175031873D01*
X178940340Y-175036947D01*
X178609793Y-175042820D01*
X178317479Y-175049580D01*
X178060080Y-175057314D01*
X177834280Y-175066111D01*
X177636762Y-175076059D01*
X177464209Y-175087244D01*
X177313305Y-175099756D01*
X177180733Y-175113683D01*
X177063176Y-175129111D01*
X176957317Y-175146129D01*
X176859840Y-175164825D01*
X176767429Y-175185287D01*
X176676765Y-175207602D01*
X176584534Y-175231859D01*
X176487417Y-175258146D01*
X176382099Y-175286549D01*
X176265262Y-175317158D01*
X176260434Y-175318396D01*
X175393625Y-175583009D01*
X174564129Y-175921186D01*
X173775405Y-176328887D01*
X173030911Y-176802073D01*
X172334105Y-177336704D01*
X171688445Y-177928742D01*
X171097390Y-178574146D01*
X170564397Y-179268877D01*
X170092925Y-180008895D01*
X169686432Y-180790162D01*
X169348376Y-181608638D01*
X169082215Y-182460283D01*
X168891408Y-183341059D01*
X168798174Y-184034935D01*
X168793196Y-184128100D01*
X168788491Y-184301433D01*
X168784057Y-184550435D01*
X168779894Y-184870608D01*
X168776004Y-185257452D01*
X168772385Y-185706470D01*
X168769037Y-186213162D01*
X168765962Y-186773031D01*
X168763158Y-187381577D01*
X168760625Y-188034303D01*
X168758365Y-188726708D01*
X168756376Y-189454296D01*
X168754659Y-190212567D01*
X168753213Y-190997023D01*
X168752039Y-191803165D01*
X168751137Y-192626494D01*
X168750507Y-193462513D01*
X168750148Y-194306722D01*
X168750061Y-195154623D01*
X168750245Y-196001717D01*
X168750702Y-196843506D01*
X168751430Y-197675491D01*
X168752429Y-198493173D01*
X168753700Y-199292054D01*
X168755243Y-200067636D01*
X168757058Y-200815420D01*
X168759144Y-201530907D01*
X168761502Y-202209598D01*
X168764132Y-202846996D01*
X168767034Y-203438601D01*
X168770207Y-203979915D01*
X168773651Y-204466440D01*
X168777368Y-204893676D01*
X168781356Y-205257125D01*
X168785616Y-205552290D01*
X168790147Y-205774670D01*
X168794950Y-205919767D01*
X168798174Y-205970064D01*
X168930341Y-206877454D01*
X169144149Y-207766304D01*
X169437665Y-208631637D01*
X169808956Y-209468479D01*
X170256091Y-210271853D01*
X170753969Y-211005736D01*
X170983907Y-211293936D01*
X171265442Y-211613275D01*
X171580955Y-211946135D01*
X171912827Y-212274895D01*
X172243439Y-212581937D01*
X172555171Y-212849642D01*
X172751597Y-213003364D01*
X173512850Y-213517735D01*
X174313527Y-213960043D01*
X175147338Y-214327842D01*
X176007991Y-214618688D01*
X176889197Y-214830138D01*
X177784665Y-214959746D01*
X177787269Y-214960000D01*
X177856258Y-214963428D01*
X177991656Y-214966703D01*
X178194170Y-214969825D01*
X178464509Y-214972797D01*
X178803383Y-214975618D01*
X179211500Y-214978290D01*
X179689568Y-214980814D01*
X180238297Y-214983192D01*
X180858395Y-214985424D01*
X181550571Y-214987511D01*
X182315533Y-214989455D01*
X183153991Y-214991257D01*
X184066653Y-214992917D01*
X185054229Y-214994437D01*
X186117425Y-214995819D01*
X187256953Y-214997062D01*
X188473519Y-214998169D01*
X189767834Y-214999140D01*
X191140605Y-214999977D01*
X192592541Y-215000680D01*
X194124352Y-215001251D01*
X195736746Y-215001691D01*
X197430431Y-215002001D01*
X199206117Y-215002182D01*
X201064512Y-215002235D01*
X203006324Y-215002161D01*
X204541936Y-215002021D01*
X206329667Y-215001812D01*
X208034716Y-215001595D01*
X209659065Y-215001364D01*
X211204700Y-215001114D01*
X212673604Y-215000838D01*
X214067760Y-215000530D01*
X215389153Y-215000186D01*
X216639767Y-214999798D01*
X217821585Y-214999361D01*
X218936591Y-214998869D01*
X219986769Y-214998316D01*
X220974104Y-214997696D01*
X221900578Y-214997004D01*
X222768177Y-214996233D01*
X223578883Y-214995377D01*
X224334680Y-214994431D01*
X225037553Y-214993388D01*
X225689485Y-214992243D01*
X226292461Y-214990990D01*
X226848464Y-214989623D01*
X227359478Y-214988136D01*
X227827486Y-214986523D01*
X228254474Y-214984778D01*
X228642424Y-214982896D01*
X228993320Y-214980870D01*
X229309147Y-214978694D01*
X229591889Y-214976363D01*
X229843528Y-214973871D01*
X230066050Y-214971212D01*
X230261437Y-214968379D01*
X230431675Y-214965368D01*
X230578746Y-214962171D01*
X230704635Y-214958784D01*
X230811325Y-214955200D01*
X230900801Y-214951413D01*
X230975046Y-214947418D01*
X231036044Y-214943208D01*
X231085779Y-214938778D01*
X231126235Y-214934122D01*
X231159396Y-214929233D01*
X231187246Y-214924107D01*
X231194000Y-214922705D01*
X231756962Y-214762398D01*
X232291885Y-214528797D01*
X232537458Y-214390099D01*
X232575124Y-214365031D01*
X232622365Y-214329552D01*
X232681208Y-214281665D01*
X232753680Y-214219372D01*
X232841808Y-214140674D01*
X232947619Y-214043573D01*
X233073140Y-213926073D01*
X233220399Y-213786174D01*
X233391423Y-213621878D01*
X233588238Y-213431189D01*
X233812872Y-213212107D01*
X234067352Y-212962634D01*
X234353704Y-212680774D01*
X234673957Y-212364527D01*
X235030137Y-212011895D01*
X235424271Y-211620882D01*
X235858386Y-211189488D01*
X236334510Y-210715715D01*
X236854669Y-210197567D01*
X237420891Y-209633044D01*
X238035202Y-209020149D01*
X238699631Y-208356883D01*
X239416203Y-207641250D01*
X240186946Y-206871250D01*
X241013888Y-206044885D01*
X241701383Y-205357744D01*
X250536600Y-196526500D01*
X250697216Y-196187833D01*
X250857833Y-195849166D01*
X250869184Y-191429357D01*
X250871106Y-190701459D01*
X250872754Y-190053090D01*
X250873874Y-189479112D01*
X250874217Y-188974387D01*
X250873529Y-188533777D01*
X250871559Y-188152144D01*
X250868056Y-187824352D01*
X250862768Y-187545260D01*
X250855442Y-187309733D01*
X250845828Y-187112632D01*
X250833673Y-186948818D01*
X250818726Y-186813155D01*
X250800735Y-186700505D01*
X250779448Y-186605729D01*
X250754613Y-186523690D01*
X250725980Y-186449250D01*
X250693295Y-186377271D01*
X250656308Y-186302615D01*
X250614766Y-186220144D01*
X250613864Y-186218333D01*
X250451912Y-185957370D01*
X250231859Y-185693028D01*
X249976235Y-185447754D01*
X249707573Y-185243992D01*
X249535068Y-185143659D01*
X249448286Y-185099737D01*
X249369621Y-185060684D01*
X249293834Y-185026212D01*
X249215687Y-184996036D01*
X249129939Y-184969870D01*
X249031353Y-184947427D01*
X248914688Y-184928421D01*
X248774706Y-184912566D01*
X248606168Y-184899575D01*
X248403835Y-184889162D01*
X248162468Y-184881042D01*
X247876828Y-184874928D01*
X247541675Y-184870533D01*
X247151771Y-184867572D01*
X246701877Y-184865758D01*
X246186753Y-184864805D01*
X245601161Y-184864427D01*
X244939862Y-184864337D01*
X244421477Y-184864292D01*
X243705416Y-184864164D01*
X243068840Y-184864170D01*
X242506571Y-184864561D01*
X242013428Y-184865587D01*
X241584231Y-184867499D01*
X241213799Y-184870549D01*
X240896953Y-184874987D01*
X240628512Y-184881064D01*
X240403295Y-184889031D01*
X240216124Y-184899139D01*
X240061817Y-184911638D01*
X239935195Y-184926780D01*
X239831076Y-184944816D01*
X239744282Y-184965996D01*
X239669631Y-184990572D01*
X239601944Y-185018793D01*
X239536041Y-185050912D01*
X239466740Y-185087179D01*
X239431002Y-185106001D01*
X239392169Y-185132797D01*
X239326778Y-185186978D01*
X239232971Y-185270370D01*
X239108892Y-185384798D01*
X238952683Y-185532090D01*
X238762488Y-185714069D01*
X238536449Y-185932563D01*
X238272709Y-186189396D01*
X237969412Y-186486395D01*
X237624700Y-186825385D01*
X237236716Y-187208193D01*
X236803603Y-187636643D01*
X236323504Y-188112563D01*
X235794563Y-188637776D01*
X235214921Y-189214110D01*
X234582722Y-189843390D01*
X233896108Y-190527442D01*
X233153224Y-191268091D01*
X232464000Y-191955621D01*
X231711853Y-192706031D01*
X231017212Y-193398920D01*
X230377693Y-194036617D01*
X229790913Y-194621450D01*
X229254488Y-195155747D01*
X228766037Y-195641836D01*
X228323175Y-196082045D01*
X227923519Y-196478702D01*
X227564687Y-196834136D01*
X227244296Y-197150675D01*
X226959961Y-197430647D01*
X226709301Y-197676379D01*
X226489932Y-197890200D01*
X226299470Y-198074439D01*
X226135534Y-198231423D01*
X225995739Y-198363480D01*
X225877703Y-198472938D01*
X225779042Y-198562127D01*
X225697374Y-198633373D01*
X225630315Y-198689004D01*
X225575482Y-198731350D01*
X225530492Y-198762738D01*
X225492963Y-198785496D01*
X225460510Y-198801953D01*
X225452182Y-198805673D01*
X225273987Y-198874285D01*
X225085842Y-198933117D01*
X224970154Y-198960827D01*
X224907440Y-198964617D01*
X224760473Y-198968232D01*
X224529668Y-198971670D01*
X224215438Y-198974930D01*
X223818199Y-198978011D01*
X223338364Y-198980912D01*
X222776347Y-198983634D01*
X222132563Y-198986173D01*
X221407425Y-198988531D01*
X220601348Y-198990705D01*
X219714745Y-198992696D01*
X218748031Y-198994501D01*
X217701621Y-198996120D01*
X216575927Y-198997553D01*
X215371365Y-198998798D01*
X214088348Y-198999854D01*
X212727291Y-199000721D01*
X211288607Y-199001398D01*
X209772711Y-199001883D01*
X208180017Y-199002176D01*
X206510939Y-199002276D01*
X205883472Y-199002264D01*
X204362008Y-199002237D01*
X202922874Y-199002255D01*
X201563736Y-199002290D01*
X200282258Y-199002313D01*
X199076104Y-199002294D01*
X197942939Y-199002203D01*
X196880426Y-199002011D01*
X195886231Y-199001689D01*
X194958017Y-199001206D01*
X194093449Y-199000534D01*
X193290192Y-198999644D01*
X192545909Y-198998505D01*
X191858265Y-198997087D01*
X191224925Y-198995363D01*
X190643553Y-198993302D01*
X190111813Y-198990874D01*
X189627370Y-198988051D01*
X189187887Y-198984802D01*
X188791030Y-198981099D01*
X188434463Y-198976911D01*
X188115849Y-198972209D01*
X187832855Y-198966965D01*
X187583143Y-198961147D01*
X187364378Y-198954728D01*
X187174225Y-198947677D01*
X187010347Y-198939965D01*
X186870411Y-198931562D01*
X186752078Y-198922439D01*
X186653015Y-198912567D01*
X186570886Y-198901915D01*
X186503354Y-198890455D01*
X186448084Y-198878157D01*
X186402741Y-198864992D01*
X186364989Y-198850930D01*
X186332492Y-198835941D01*
X186302915Y-198819997D01*
X186273922Y-198803067D01*
X186243177Y-198785122D01*
X186208345Y-198766133D01*
X186183264Y-198753626D01*
X185815526Y-198532545D01*
X185483463Y-198244321D01*
X185199855Y-197903328D01*
X184977479Y-197523934D01*
X184880384Y-197288500D01*
X184855479Y-197215725D01*
X184834860Y-197147321D01*
X184818057Y-197074677D01*
X184804596Y-196989176D01*
X184794007Y-196882207D01*
X184785817Y-196745156D01*
X184779555Y-196569409D01*
X184774748Y-196346352D01*
X184770925Y-196067372D01*
X184767614Y-195723855D01*
X184764342Y-195307189D01*
X184763167Y-195148884D01*
X184760061Y-194656988D01*
X184759136Y-194241098D01*
X184761156Y-193892565D01*
X184766886Y-193602743D01*
X184777092Y-193362981D01*
X184792539Y-193164632D01*
X184813991Y-192999048D01*
X184842213Y-192857579D01*
X184877972Y-192731577D01*
X184922031Y-192612394D01*
X184975157Y-192491382D01*
X185003589Y-192431177D01*
X185224888Y-192063067D01*
X185513429Y-191730729D01*
X185855009Y-191446800D01*
X186235425Y-191223919D01*
X186468833Y-191127400D01*
X186765166Y-191023166D01*
X197285000Y-191001046D01*
X207804833Y-190978926D01*
X208315146Y-190886024D01*
X209220109Y-190687747D01*
X210069236Y-190431006D01*
X210871504Y-190111811D01*
X211635890Y-189726172D01*
X212371373Y-189270101D01*
X213013322Y-188798248D01*
X213245523Y-188602850D01*
X213510997Y-188360040D01*
X213790631Y-188088922D01*
X214065315Y-187808601D01*
X214315939Y-187538181D01*
X214523392Y-187296767D01*
X214556552Y-187255500D01*
X215093361Y-186510554D01*
X215560266Y-185720191D01*
X215954870Y-184890093D01*
X216274778Y-184025945D01*
X216517593Y-183133429D01*
X216680918Y-182218229D01*
X216680970Y-182217833D01*
X216687339Y-182127104D01*
X216693364Y-181956406D01*
X216699045Y-181710149D01*
X216704382Y-181392744D01*
X216709376Y-181008600D01*
X216714026Y-180562130D01*
X216718333Y-180057741D01*
X216722296Y-179499846D01*
X216725917Y-178892855D01*
X216729195Y-178241177D01*
X216732130Y-177549224D01*
X216734722Y-176821405D01*
X216736972Y-176062131D01*
X216738880Y-175275813D01*
X216740445Y-174466860D01*
X216741669Y-173639684D01*
X216742550Y-172798694D01*
X216743090Y-171948302D01*
X216743289Y-171092916D01*
X216743146Y-170236948D01*
X216742661Y-169384809D01*
X216741836Y-168540907D01*
X216740669Y-167709655D01*
X216739162Y-166895462D01*
X216737314Y-166102739D01*
X216735126Y-165335895D01*
X216732597Y-164599342D01*
X216729728Y-163897490D01*
X216726519Y-163234749D01*
X216722970Y-162615529D01*
X216719081Y-162044242D01*
X216714852Y-161525296D01*
X216710284Y-161063104D01*
X216705377Y-160662074D01*
X216700130Y-160326618D01*
X216694545Y-160061145D01*
X216688620Y-159870067D01*
X216682357Y-159757794D01*
X216680222Y-159738833D01*
X216498935Y-158791765D01*
X216244877Y-157885546D01*
X215919233Y-157022075D01*
X215523188Y-156203250D01*
X215057925Y-155430972D01*
X214524629Y-154707138D01*
X213924483Y-154033647D01*
X213258673Y-153412399D01*
X212528382Y-152845292D01*
X212271000Y-152668730D01*
X211539460Y-152225083D01*
X210778938Y-151849188D01*
X209980226Y-151537446D01*
X209134115Y-151286258D01*
X208242496Y-151094013D01*
X208206213Y-151088250D01*
X208161732Y-151082798D01*
X208106680Y-151077646D01*
X208038682Y-151072782D01*
X207955367Y-151068197D01*
X207854360Y-151063879D01*
X207733289Y-151059817D01*
X207589779Y-151056002D01*
X207421457Y-151052421D01*
X207225951Y-151049065D01*
X207000887Y-151045923D01*
X206743891Y-151042983D01*
X206452590Y-151040236D01*
X206124611Y-151037669D01*
X205757580Y-151035274D01*
X205349124Y-151033038D01*
X204896870Y-151030952D01*
X204398444Y-151029004D01*
X203851474Y-151027183D01*
X203253585Y-151025480D01*
X202602404Y-151023883D01*
X201895558Y-151022381D01*
X201130674Y-151020963D01*
X200305378Y-151019620D01*
X199417296Y-151018339D01*
X198464057Y-151017111D01*
X197443285Y-151015925D01*
X196352609Y-151014770D01*
X195189654Y-151013634D01*
X193952047Y-151012508D01*
X192637415Y-151011381D01*
X191243384Y-151010242D01*
X189767582Y-151009080D01*
X189432166Y-151008820D01*
X187935728Y-151007685D01*
X186521607Y-151006656D01*
X185187457Y-151005740D01*
X183930928Y-151004945D01*
X182749673Y-151004276D01*
X181641343Y-151003741D01*
X180603590Y-151003346D01*
X179634066Y-151003098D01*
X178730423Y-151003003D01*
X177890311Y-151003068D01*
X177890311Y-151003068D01*
G37*
X177890311Y-151003068D02*
X177111384Y-151003301D01*
X176391292Y-151003707D01*
X175727688Y-151004294D01*
X175118223Y-151005067D01*
X174560549Y-151006035D01*
X174052317Y-151007202D01*
X173591180Y-151008577D01*
X173174789Y-151010166D01*
X172800796Y-151011975D01*
X172466852Y-151014012D01*
X172170610Y-151016282D01*
X171909721Y-151018794D01*
X171681836Y-151021552D01*
X171484608Y-151024565D01*
X171315688Y-151027838D01*
X171172729Y-151031379D01*
X171053381Y-151035193D01*
X170955296Y-151039289D01*
X170876127Y-151043672D01*
X170813525Y-151048350D01*
X170765141Y-151053328D01*
X170728628Y-151058614D01*
X170710098Y-151062229D01*
X170283683Y-151198123D01*
X169893720Y-151405979D01*
X169548229Y-151678010D01*
X169255228Y-152006429D01*
X169022736Y-152383449D01*
X168858772Y-152801282D01*
X168836879Y-152881306D01*
X168824949Y-152929736D01*
X168814198Y-152979925D01*
X168804563Y-153036298D01*
X168795983Y-153103281D01*
X168788398Y-153185299D01*
X168781745Y-153286778D01*
X168775965Y-153412142D01*
X168770995Y-153565819D01*
X168766775Y-153752233D01*
X168763244Y-153975809D01*
X168760340Y-154240973D01*
X168758001Y-154552152D01*
X168756168Y-154913769D01*
X168754778Y-155330251D01*
X168753771Y-155806023D01*
X168753086Y-156345511D01*
X168752660Y-156953140D01*
X168752434Y-157633335D01*
X168752346Y-158390523D01*
X168752333Y-158998000D01*
X168752359Y-159814529D01*
X168752478Y-160550817D01*
X168752752Y-161211290D01*
X168753240Y-161800372D01*
X168754005Y-162322490D01*
X168755108Y-162782069D01*
X168756610Y-163183534D01*
X168758571Y-163531311D01*
X168761054Y-163829825D01*
X168764119Y-164083501D01*
X168767828Y-164296767D01*
X168772241Y-164474046D01*
X168777420Y-164619764D01*
X168783426Y-164738347D01*
X168790321Y-164834221D01*
X168798164Y-164911810D01*
X168807018Y-164975540D01*
X168816944Y-165029837D01*
X168828003Y-165079127D01*
X168836879Y-165114693D01*
X168989338Y-165544843D01*
X169216726Y-165935669D01*
X169510865Y-166279333D01*
X169844231Y-166558978D01*
X170208395Y-166766040D01*
X170620775Y-166910329D01*
X170640231Y-166915372D01*
X170671747Y-166923159D01*
X170705266Y-166930446D01*
X170743567Y-166937251D01*
X170789427Y-166943590D01*
X170845624Y-166949480D01*
X170914936Y-166954937D01*
X171000142Y-166959978D01*
X171104020Y-166964619D01*
X171229347Y-166968877D01*
X171378901Y-166972768D01*
X171555462Y-166976309D01*
X171761805Y-166979516D01*
X172000711Y-166982405D01*
X172274956Y-166984994D01*
X172587320Y-166987299D01*
X172940579Y-166989337D01*
X173337512Y-166991123D01*
X173780897Y-166992674D01*
X174273512Y-166994007D01*
X174818135Y-166995139D01*
X175417544Y-166996085D01*
X176074517Y-166996863D01*
X176791833Y-166997489D01*
X177572269Y-166997979D01*
X178418603Y-166998350D01*
X179333613Y-166998618D01*
X180320078Y-166998800D01*
X181380775Y-166998913D01*
X182518483Y-166998973D01*
X183735980Y-166998996D01*
X184710997Y-166998999D01*
X186153919Y-166999112D01*
X187513095Y-166999452D01*
X188789446Y-167000023D01*
X189983891Y-167000826D01*
X191097353Y-167001866D01*
X192130751Y-167003145D01*
X193085005Y-167004666D01*
X193961037Y-167006433D01*
X194759766Y-167008447D01*
X195482114Y-167010713D01*
X196129000Y-167013232D01*
X196701345Y-167016008D01*
X197200071Y-167019045D01*
X197626096Y-167022344D01*
X197980342Y-167025909D01*
X198263729Y-167029743D01*
X198477179Y-167033848D01*
X198621610Y-167038229D01*
X198697944Y-167042887D01*
X198705975Y-167043999D01*
X198857509Y-167083373D01*
X199051530Y-167150860D01*
X199255803Y-167234756D01*
X199345627Y-167276257D01*
X199736588Y-167506702D01*
X200063141Y-167791186D01*
X200328669Y-168133027D01*
X200461914Y-168370713D01*
X200529895Y-168512606D01*
X200586491Y-168644127D01*
X200632741Y-168774592D01*
X200669681Y-168913318D01*
X200698352Y-169069624D01*
X200719790Y-169252825D01*
X200735035Y-169472239D01*
X200745125Y-169737184D01*
X200751098Y-170056977D01*
X200753992Y-170440934D01*
X200754846Y-170898374D01*
X200754863Y-170999500D01*
X200754293Y-171472754D01*
X200751890Y-171870662D01*
X200746616Y-172202543D01*
X200737433Y-172477712D01*
X200723302Y-172705487D01*
X200703185Y-172895185D01*
X200676044Y-173056124D01*
X200640840Y-173197621D01*
X200596536Y-173328993D01*
X200542092Y-173459557D01*
X200476471Y-173598631D01*
X200461914Y-173628286D01*
X200238294Y-173996420D01*
X199954264Y-174312641D01*
X199605607Y-174580550D01*
X199188106Y-174803749D01*
X198989987Y-174885494D01*
X198745500Y-174978833D01*
X188225666Y-175001299D01*
X187096282Y-175003643D01*
X186048248Y-175005731D01*
X185078245Y-175007651D01*
X184182959Y-175009490D01*
X183359072Y-175011338D01*
X182603267Y-175013281D01*
X181912228Y-175015408D01*
X181282638Y-175017807D01*
X180711181Y-175020564D01*
X180194539Y-175023769D01*
X179729396Y-175027509D01*
X179312435Y-175031873D01*
X178940340Y-175036947D01*
X178609793Y-175042820D01*
X178317479Y-175049580D01*
X178060080Y-175057314D01*
X177834280Y-175066111D01*
X177636762Y-175076059D01*
X177464209Y-175087244D01*
X177313305Y-175099756D01*
X177180733Y-175113683D01*
X177063176Y-175129111D01*
X176957317Y-175146129D01*
X176859840Y-175164825D01*
X176767429Y-175185287D01*
X176676765Y-175207602D01*
X176584534Y-175231859D01*
X176487417Y-175258146D01*
X176382099Y-175286549D01*
X176265262Y-175317158D01*
X176260434Y-175318396D01*
X175393625Y-175583009D01*
X174564129Y-175921186D01*
X173775405Y-176328887D01*
X173030911Y-176802073D01*
X172334105Y-177336704D01*
X171688445Y-177928742D01*
X171097390Y-178574146D01*
X170564397Y-179268877D01*
X170092925Y-180008895D01*
X169686432Y-180790162D01*
X169348376Y-181608638D01*
X169082215Y-182460283D01*
X168891408Y-183341059D01*
X168798174Y-184034935D01*
X168793196Y-184128100D01*
X168788491Y-184301433D01*
X168784057Y-184550435D01*
X168779894Y-184870608D01*
X168776004Y-185257452D01*
X168772385Y-185706470D01*
X168769037Y-186213162D01*
X168765962Y-186773031D01*
X168763158Y-187381577D01*
X168760625Y-188034303D01*
X168758365Y-188726708D01*
X168756376Y-189454296D01*
X168754659Y-190212567D01*
X168753213Y-190997023D01*
X168752039Y-191803165D01*
X168751137Y-192626494D01*
X168750507Y-193462513D01*
X168750148Y-194306722D01*
X168750061Y-195154623D01*
X168750245Y-196001717D01*
X168750702Y-196843506D01*
X168751430Y-197675491D01*
X168752429Y-198493173D01*
X168753700Y-199292054D01*
X168755243Y-200067636D01*
X168757058Y-200815420D01*
X168759144Y-201530907D01*
X168761502Y-202209598D01*
X168764132Y-202846996D01*
X168767034Y-203438601D01*
X168770207Y-203979915D01*
X168773651Y-204466440D01*
X168777368Y-204893676D01*
X168781356Y-205257125D01*
X168785616Y-205552290D01*
X168790147Y-205774670D01*
X168794950Y-205919767D01*
X168798174Y-205970064D01*
X168930341Y-206877454D01*
X169144149Y-207766304D01*
X169437665Y-208631637D01*
X169808956Y-209468479D01*
X170256091Y-210271853D01*
X170753969Y-211005736D01*
X170983907Y-211293936D01*
X171265442Y-211613275D01*
X171580955Y-211946135D01*
X171912827Y-212274895D01*
X172243439Y-212581937D01*
X172555171Y-212849642D01*
X172751597Y-213003364D01*
X173512850Y-213517735D01*
X174313527Y-213960043D01*
X175147338Y-214327842D01*
X176007991Y-214618688D01*
X176889197Y-214830138D01*
X177784665Y-214959746D01*
X177787269Y-214960000D01*
X177856258Y-214963428D01*
X177991656Y-214966703D01*
X178194170Y-214969825D01*
X178464509Y-214972797D01*
X178803383Y-214975618D01*
X179211500Y-214978290D01*
X179689568Y-214980814D01*
X180238297Y-214983192D01*
X180858395Y-214985424D01*
X181550571Y-214987511D01*
X182315533Y-214989455D01*
X183153991Y-214991257D01*
X184066653Y-214992917D01*
X185054229Y-214994437D01*
X186117425Y-214995819D01*
X187256953Y-214997062D01*
X188473519Y-214998169D01*
X189767834Y-214999140D01*
X191140605Y-214999977D01*
X192592541Y-215000680D01*
X194124352Y-215001251D01*
X195736746Y-215001691D01*
X197430431Y-215002001D01*
X199206117Y-215002182D01*
X201064512Y-215002235D01*
X203006324Y-215002161D01*
X204541936Y-215002021D01*
X206329667Y-215001812D01*
X208034716Y-215001595D01*
X209659065Y-215001364D01*
X211204700Y-215001114D01*
X212673604Y-215000838D01*
X214067760Y-215000530D01*
X215389153Y-215000186D01*
X216639767Y-214999798D01*
X217821585Y-214999361D01*
X218936591Y-214998869D01*
X219986769Y-214998316D01*
X220974104Y-214997696D01*
X221900578Y-214997004D01*
X222768177Y-214996233D01*
X223578883Y-214995377D01*
X224334680Y-214994431D01*
X225037553Y-214993388D01*
X225689485Y-214992243D01*
X226292461Y-214990990D01*
X226848464Y-214989623D01*
X227359478Y-214988136D01*
X227827486Y-214986523D01*
X228254474Y-214984778D01*
X228642424Y-214982896D01*
X228993320Y-214980870D01*
X229309147Y-214978694D01*
X229591889Y-214976363D01*
X229843528Y-214973871D01*
X230066050Y-214971212D01*
X230261437Y-214968379D01*
X230431675Y-214965368D01*
X230578746Y-214962171D01*
X230704635Y-214958784D01*
X230811325Y-214955200D01*
X230900801Y-214951413D01*
X230975046Y-214947418D01*
X231036044Y-214943208D01*
X231085779Y-214938778D01*
X231126235Y-214934122D01*
X231159396Y-214929233D01*
X231187246Y-214924107D01*
X231194000Y-214922705D01*
X231756962Y-214762398D01*
X232291885Y-214528797D01*
X232537458Y-214390099D01*
X232575124Y-214365031D01*
X232622365Y-214329552D01*
X232681208Y-214281665D01*
X232753680Y-214219372D01*
X232841808Y-214140674D01*
X232947619Y-214043573D01*
X233073140Y-213926073D01*
X233220399Y-213786174D01*
X233391423Y-213621878D01*
X233588238Y-213431189D01*
X233812872Y-213212107D01*
X234067352Y-212962634D01*
X234353704Y-212680774D01*
X234673957Y-212364527D01*
X235030137Y-212011895D01*
X235424271Y-211620882D01*
X235858386Y-211189488D01*
X236334510Y-210715715D01*
X236854669Y-210197567D01*
X237420891Y-209633044D01*
X238035202Y-209020149D01*
X238699631Y-208356883D01*
X239416203Y-207641250D01*
X240186946Y-206871250D01*
X241013888Y-206044885D01*
X241701383Y-205357744D01*
X250536600Y-196526500D01*
X250697216Y-196187833D01*
X250857833Y-195849166D01*
X250869184Y-191429357D01*
X250871106Y-190701459D01*
X250872754Y-190053090D01*
X250873874Y-189479112D01*
X250874217Y-188974387D01*
X250873529Y-188533777D01*
X250871559Y-188152144D01*
X250868056Y-187824352D01*
X250862768Y-187545260D01*
X250855442Y-187309733D01*
X250845828Y-187112632D01*
X250833673Y-186948818D01*
X250818726Y-186813155D01*
X250800735Y-186700505D01*
X250779448Y-186605729D01*
X250754613Y-186523690D01*
X250725980Y-186449250D01*
X250693295Y-186377271D01*
X250656308Y-186302615D01*
X250614766Y-186220144D01*
X250613864Y-186218333D01*
X250451912Y-185957370D01*
X250231859Y-185693028D01*
X249976235Y-185447754D01*
X249707573Y-185243992D01*
X249535068Y-185143659D01*
X249448286Y-185099737D01*
X249369621Y-185060684D01*
X249293834Y-185026212D01*
X249215687Y-184996036D01*
X249129939Y-184969870D01*
X249031353Y-184947427D01*
X248914688Y-184928421D01*
X248774706Y-184912566D01*
X248606168Y-184899575D01*
X248403835Y-184889162D01*
X248162468Y-184881042D01*
X247876828Y-184874928D01*
X247541675Y-184870533D01*
X247151771Y-184867572D01*
X246701877Y-184865758D01*
X246186753Y-184864805D01*
X245601161Y-184864427D01*
X244939862Y-184864337D01*
X244421477Y-184864292D01*
X243705416Y-184864164D01*
X243068840Y-184864170D01*
X242506571Y-184864561D01*
X242013428Y-184865587D01*
X241584231Y-184867499D01*
X241213799Y-184870549D01*
X240896953Y-184874987D01*
X240628512Y-184881064D01*
X240403295Y-184889031D01*
X240216124Y-184899139D01*
X240061817Y-184911638D01*
X239935195Y-184926780D01*
X239831076Y-184944816D01*
X239744282Y-184965996D01*
X239669631Y-184990572D01*
X239601944Y-185018793D01*
X239536041Y-185050912D01*
X239466740Y-185087179D01*
X239431002Y-185106001D01*
X239392169Y-185132797D01*
X239326778Y-185186978D01*
X239232971Y-185270370D01*
X239108892Y-185384798D01*
X238952683Y-185532090D01*
X238762488Y-185714069D01*
X238536449Y-185932563D01*
X238272709Y-186189396D01*
X237969412Y-186486395D01*
X237624700Y-186825385D01*
X237236716Y-187208193D01*
X236803603Y-187636643D01*
X236323504Y-188112563D01*
X235794563Y-188637776D01*
X235214921Y-189214110D01*
X234582722Y-189843390D01*
X233896108Y-190527442D01*
X233153224Y-191268091D01*
X232464000Y-191955621D01*
X231711853Y-192706031D01*
X231017212Y-193398920D01*
X230377693Y-194036617D01*
X229790913Y-194621450D01*
X229254488Y-195155747D01*
X228766037Y-195641836D01*
X228323175Y-196082045D01*
X227923519Y-196478702D01*
X227564687Y-196834136D01*
X227244296Y-197150675D01*
X226959961Y-197430647D01*
X226709301Y-197676379D01*
X226489932Y-197890200D01*
X226299470Y-198074439D01*
X226135534Y-198231423D01*
X225995739Y-198363480D01*
X225877703Y-198472938D01*
X225779042Y-198562127D01*
X225697374Y-198633373D01*
X225630315Y-198689004D01*
X225575482Y-198731350D01*
X225530492Y-198762738D01*
X225492963Y-198785496D01*
X225460510Y-198801953D01*
X225452182Y-198805673D01*
X225273987Y-198874285D01*
X225085842Y-198933117D01*
X224970154Y-198960827D01*
X224907440Y-198964617D01*
X224760473Y-198968232D01*
X224529668Y-198971670D01*
X224215438Y-198974930D01*
X223818199Y-198978011D01*
X223338364Y-198980912D01*
X222776347Y-198983634D01*
X222132563Y-198986173D01*
X221407425Y-198988531D01*
X220601348Y-198990705D01*
X219714745Y-198992696D01*
X218748031Y-198994501D01*
X217701621Y-198996120D01*
X216575927Y-198997553D01*
X215371365Y-198998798D01*
X214088348Y-198999854D01*
X212727291Y-199000721D01*
X211288607Y-199001398D01*
X209772711Y-199001883D01*
X208180017Y-199002176D01*
X206510939Y-199002276D01*
X205883472Y-199002264D01*
X204362008Y-199002237D01*
X202922874Y-199002255D01*
X201563736Y-199002290D01*
X200282258Y-199002313D01*
X199076104Y-199002294D01*
X197942939Y-199002203D01*
X196880426Y-199002011D01*
X195886231Y-199001689D01*
X194958017Y-199001206D01*
X194093449Y-199000534D01*
X193290192Y-198999644D01*
X192545909Y-198998505D01*
X191858265Y-198997087D01*
X191224925Y-198995363D01*
X190643553Y-198993302D01*
X190111813Y-198990874D01*
X189627370Y-198988051D01*
X189187887Y-198984802D01*
X188791030Y-198981099D01*
X188434463Y-198976911D01*
X188115849Y-198972209D01*
X187832855Y-198966965D01*
X187583143Y-198961147D01*
X187364378Y-198954728D01*
X187174225Y-198947677D01*
X187010347Y-198939965D01*
X186870411Y-198931562D01*
X186752078Y-198922439D01*
X186653015Y-198912567D01*
X186570886Y-198901915D01*
X186503354Y-198890455D01*
X186448084Y-198878157D01*
X186402741Y-198864992D01*
X186364989Y-198850930D01*
X186332492Y-198835941D01*
X186302915Y-198819997D01*
X186273922Y-198803067D01*
X186243177Y-198785122D01*
X186208345Y-198766133D01*
X186183264Y-198753626D01*
X185815526Y-198532545D01*
X185483463Y-198244321D01*
X185199855Y-197903328D01*
X184977479Y-197523934D01*
X184880384Y-197288500D01*
X184855479Y-197215725D01*
X184834860Y-197147321D01*
X184818057Y-197074677D01*
X184804596Y-196989176D01*
X184794007Y-196882207D01*
X184785817Y-196745156D01*
X184779555Y-196569409D01*
X184774748Y-196346352D01*
X184770925Y-196067372D01*
X184767614Y-195723855D01*
X184764342Y-195307189D01*
X184763167Y-195148884D01*
X184760061Y-194656988D01*
X184759136Y-194241098D01*
X184761156Y-193892565D01*
X184766886Y-193602743D01*
X184777092Y-193362981D01*
X184792539Y-193164632D01*
X184813991Y-192999048D01*
X184842213Y-192857579D01*
X184877972Y-192731577D01*
X184922031Y-192612394D01*
X184975157Y-192491382D01*
X185003589Y-192431177D01*
X185224888Y-192063067D01*
X185513429Y-191730729D01*
X185855009Y-191446800D01*
X186235425Y-191223919D01*
X186468833Y-191127400D01*
X186765166Y-191023166D01*
X197285000Y-191001046D01*
X207804833Y-190978926D01*
X208315146Y-190886024D01*
X209220109Y-190687747D01*
X210069236Y-190431006D01*
X210871504Y-190111811D01*
X211635890Y-189726172D01*
X212371373Y-189270101D01*
X213013322Y-188798248D01*
X213245523Y-188602850D01*
X213510997Y-188360040D01*
X213790631Y-188088922D01*
X214065315Y-187808601D01*
X214315939Y-187538181D01*
X214523392Y-187296767D01*
X214556552Y-187255500D01*
X215093361Y-186510554D01*
X215560266Y-185720191D01*
X215954870Y-184890093D01*
X216274778Y-184025945D01*
X216517593Y-183133429D01*
X216680918Y-182218229D01*
X216680970Y-182217833D01*
X216687339Y-182127104D01*
X216693364Y-181956406D01*
X216699045Y-181710149D01*
X216704382Y-181392744D01*
X216709376Y-181008600D01*
X216714026Y-180562130D01*
X216718333Y-180057741D01*
X216722296Y-179499846D01*
X216725917Y-178892855D01*
X216729195Y-178241177D01*
X216732130Y-177549224D01*
X216734722Y-176821405D01*
X216736972Y-176062131D01*
X216738880Y-175275813D01*
X216740445Y-174466860D01*
X216741669Y-173639684D01*
X216742550Y-172798694D01*
X216743090Y-171948302D01*
X216743289Y-171092916D01*
X216743146Y-170236948D01*
X216742661Y-169384809D01*
X216741836Y-168540907D01*
X216740669Y-167709655D01*
X216739162Y-166895462D01*
X216737314Y-166102739D01*
X216735126Y-165335895D01*
X216732597Y-164599342D01*
X216729728Y-163897490D01*
X216726519Y-163234749D01*
X216722970Y-162615529D01*
X216719081Y-162044242D01*
X216714852Y-161525296D01*
X216710284Y-161063104D01*
X216705377Y-160662074D01*
X216700130Y-160326618D01*
X216694545Y-160061145D01*
X216688620Y-159870067D01*
X216682357Y-159757794D01*
X216680222Y-159738833D01*
X216498935Y-158791765D01*
X216244877Y-157885546D01*
X215919233Y-157022075D01*
X215523188Y-156203250D01*
X215057925Y-155430972D01*
X214524629Y-154707138D01*
X213924483Y-154033647D01*
X213258673Y-153412399D01*
X212528382Y-152845292D01*
X212271000Y-152668730D01*
X211539460Y-152225083D01*
X210778938Y-151849188D01*
X209980226Y-151537446D01*
X209134115Y-151286258D01*
X208242496Y-151094013D01*
X208206213Y-151088250D01*
X208161732Y-151082798D01*
X208106680Y-151077646D01*
X208038682Y-151072782D01*
X207955367Y-151068197D01*
X207854360Y-151063879D01*
X207733289Y-151059817D01*
X207589779Y-151056002D01*
X207421457Y-151052421D01*
X207225951Y-151049065D01*
X207000887Y-151045923D01*
X206743891Y-151042983D01*
X206452590Y-151040236D01*
X206124611Y-151037669D01*
X205757580Y-151035274D01*
X205349124Y-151033038D01*
X204896870Y-151030952D01*
X204398444Y-151029004D01*
X203851474Y-151027183D01*
X203253585Y-151025480D01*
X202602404Y-151023883D01*
X201895558Y-151022381D01*
X201130674Y-151020963D01*
X200305378Y-151019620D01*
X199417296Y-151018339D01*
X198464057Y-151017111D01*
X197443285Y-151015925D01*
X196352609Y-151014770D01*
X195189654Y-151013634D01*
X193952047Y-151012508D01*
X192637415Y-151011381D01*
X191243384Y-151010242D01*
X189767582Y-151009080D01*
X189432166Y-151008820D01*
X187935728Y-151007685D01*
X186521607Y-151006656D01*
X185187457Y-151005740D01*
X183930928Y-151004945D01*
X182749673Y-151004276D01*
X181641343Y-151003741D01*
X180603590Y-151003346D01*
X179634066Y-151003098D01*
X178730423Y-151003003D01*
X177890311Y-151003068D01*
D13*
X183175000Y-192100000D02*
X185715000Y-192100000D01*
X183175000Y-192100000D02*
X183175000Y-189560000D01*
X183425000Y-191850000D02*
X192775000Y-191850000D01*
X183425000Y-158290000D02*
X183425000Y-191850000D01*
X192775000Y-158290000D02*
X183425000Y-158290000D01*
X192775000Y-191850000D02*
X192775000Y-158290000D01*
X267630000Y-129235000D02*
X270170000Y-129235000D01*
X267630000Y-129235000D02*
X267630000Y-126695000D01*
X267880000Y-128985000D02*
X277230000Y-128985000D01*
X267880000Y-113205000D02*
X267880000Y-128985000D01*
X277230000Y-113205000D02*
X267880000Y-113205000D01*
X277230000Y-128985000D02*
X277230000Y-113205000D01*
X302880000Y-131370000D02*
X300340000Y-131370000D01*
X302880000Y-131370000D02*
X302880000Y-133910000D01*
X302630000Y-131620000D02*
X293280000Y-131620000D01*
X302630000Y-152480000D02*
X302630000Y-131620000D01*
X293280000Y-152480000D02*
X302630000Y-152480000D01*
X293280000Y-131620000D02*
X293280000Y-152480000D01*
X191160000Y-130465000D02*
X191160000Y-127925000D01*
X191160000Y-130465000D02*
X188620000Y-130465000D01*
X190910000Y-130215000D02*
X190910000Y-120865000D01*
X149730000Y-130215000D02*
X190910000Y-130215000D01*
X149730000Y-120865000D02*
X149730000Y-130215000D01*
X190910000Y-120865000D02*
X149730000Y-120865000D01*
X224180000Y-232065000D02*
X224180000Y-229525000D01*
X224180000Y-232065000D02*
X221640000Y-232065000D01*
X223930000Y-231815000D02*
X223930000Y-222465000D01*
X208150000Y-231815000D02*
X223930000Y-231815000D01*
X208150000Y-222465000D02*
X208150000Y-231815000D01*
X223930000Y-222465000D02*
X208150000Y-222465000D01*
X207900000Y-120615000D02*
X207900000Y-123155000D01*
X207900000Y-120615000D02*
X210440000Y-120615000D01*
X208150000Y-120865000D02*
X208150000Y-130215000D01*
X223930000Y-120865000D02*
X208150000Y-120865000D01*
X223930000Y-130215000D02*
X223930000Y-120865000D01*
X208150000Y-130215000D02*
X223930000Y-130215000D01*
%LPC*%
D14*
X297320000Y-127445000D03*
X294780000Y-127445000D03*
X297320000Y-119825000D03*
X294780000Y-119825000D03*
X310020000Y-119825000D03*
X310020000Y-122365000D03*
X310020000Y-124905000D03*
D15*
G36*
X310846241Y-126379484D02*
G01*
X310872131Y-126383325D01*
X310897519Y-126389684D01*
X310922162Y-126398501D01*
X310945822Y-126409692D01*
X310968271Y-126423147D01*
X310989293Y-126438738D01*
X311008685Y-126456315D01*
X311026262Y-126475707D01*
X311041853Y-126496729D01*
X311055308Y-126519178D01*
X311066499Y-126542838D01*
X311075316Y-126567481D01*
X311081675Y-126592869D01*
X311085516Y-126618759D01*
X311086800Y-126644900D01*
X311086800Y-128245100D01*
X311085516Y-128271241D01*
X311081675Y-128297131D01*
X311075316Y-128322519D01*
X311066499Y-128347162D01*
X311055308Y-128370822D01*
X311041853Y-128393271D01*
X311026262Y-128414293D01*
X311008685Y-128433685D01*
X310989293Y-128451262D01*
X310968271Y-128466853D01*
X310945822Y-128480308D01*
X310922162Y-128491499D01*
X310897519Y-128500316D01*
X310872131Y-128506675D01*
X310846241Y-128510516D01*
X310820100Y-128511800D01*
X309219900Y-128511800D01*
X309193759Y-128510516D01*
X309167869Y-128506675D01*
X309142481Y-128500316D01*
X309117838Y-128491499D01*
X309094178Y-128480308D01*
X309071729Y-128466853D01*
X309050707Y-128451262D01*
X309031315Y-128433685D01*
X309013738Y-128414293D01*
X308998147Y-128393271D01*
X308984692Y-128370822D01*
X308973501Y-128347162D01*
X308964684Y-128322519D01*
X308958325Y-128297131D01*
X308954484Y-128271241D01*
X308953200Y-128245100D01*
X308953200Y-126644900D01*
X308954484Y-126618759D01*
X308958325Y-126592869D01*
X308964684Y-126567481D01*
X308973501Y-126542838D01*
X308984692Y-126519178D01*
X308998147Y-126496729D01*
X309013738Y-126475707D01*
X309031315Y-126456315D01*
X309050707Y-126438738D01*
X309071729Y-126423147D01*
X309094178Y-126409692D01*
X309117838Y-126398501D01*
X309142481Y-126389684D01*
X309167869Y-126383325D01*
X309193759Y-126379484D01*
X309219900Y-126378200D01*
X310820100Y-126378200D01*
X310846241Y-126379484D01*
X310846241Y-126379484D01*
G37*
D14*
X310020000Y-127445000D03*
D16*
X284620000Y-224600000D03*
X284620000Y-222060000D03*
X284620000Y-219520000D03*
X284620000Y-216980000D03*
X284620000Y-214440000D03*
X284620000Y-211900000D03*
X284620000Y-209360000D03*
X284620000Y-206820000D03*
X284620000Y-204280000D03*
X284620000Y-201740000D03*
X284620000Y-199200000D03*
X284620000Y-196660000D03*
X284620000Y-194120000D03*
X284620000Y-191580000D03*
X284620000Y-189040000D03*
X284620000Y-186500000D03*
X284620000Y-183960000D03*
X284620000Y-181420000D03*
X284620000Y-178880000D03*
X310020000Y-178880000D03*
X310020000Y-181420000D03*
X310020000Y-183960000D03*
X310020000Y-186500000D03*
X310020000Y-189040000D03*
X310020000Y-191580000D03*
X310020000Y-194120000D03*
X310020000Y-196660000D03*
X310020000Y-199200000D03*
X310020000Y-201740000D03*
X310020000Y-204280000D03*
X310020000Y-206820000D03*
X310020000Y-209360000D03*
X310020000Y-211900000D03*
X310020000Y-214440000D03*
X310020000Y-216980000D03*
X310020000Y-219520000D03*
X310020000Y-222060000D03*
D17*
X310020000Y-224600000D03*
D18*
X185000000Y-250000000D03*
X290000000Y-250000000D03*
X167500000Y-100000000D03*
X262500000Y-100000000D03*
X197500000Y-100000000D03*
X292500000Y-100000000D03*
D19*
X144500000Y-182000000D03*
X315500000Y-190000000D03*
X280000000Y-235500000D03*
X144500000Y-114500000D03*
X164000000Y-235500000D03*
X315500000Y-235500000D03*
X201500000Y-114500000D03*
X199500000Y-235500000D03*
X258500000Y-114500000D03*
X315500000Y-114500000D03*
D20*
X155080000Y-203525000D03*
X155080000Y-201025000D03*
X155080000Y-198525000D03*
D15*
G36*
X155866828Y-195125476D02*
G01*
X155892546Y-195129291D01*
X155917767Y-195135608D01*
X155942248Y-195144367D01*
X155965751Y-195155484D01*
X155988052Y-195168851D01*
X156008936Y-195184339D01*
X156028201Y-195201799D01*
X156045661Y-195221064D01*
X156061149Y-195241948D01*
X156074516Y-195264249D01*
X156085633Y-195287752D01*
X156094392Y-195312233D01*
X156100709Y-195337454D01*
X156104524Y-195363172D01*
X156105800Y-195389141D01*
X156105800Y-196660859D01*
X156104524Y-196686828D01*
X156100709Y-196712546D01*
X156094392Y-196737767D01*
X156085633Y-196762248D01*
X156074516Y-196785751D01*
X156061149Y-196808052D01*
X156045661Y-196828936D01*
X156028201Y-196848201D01*
X156008936Y-196865661D01*
X155988052Y-196881149D01*
X155965751Y-196894516D01*
X155942248Y-196905633D01*
X155917767Y-196914392D01*
X155892546Y-196920709D01*
X155866828Y-196924524D01*
X155840859Y-196925800D01*
X154319141Y-196925800D01*
X154293172Y-196924524D01*
X154267454Y-196920709D01*
X154242233Y-196914392D01*
X154217752Y-196905633D01*
X154194249Y-196894516D01*
X154171948Y-196881149D01*
X154151064Y-196865661D01*
X154131799Y-196848201D01*
X154114339Y-196828936D01*
X154098851Y-196808052D01*
X154085484Y-196785751D01*
X154074367Y-196762248D01*
X154065608Y-196737767D01*
X154059291Y-196712546D01*
X154055476Y-196686828D01*
X154054200Y-196660859D01*
X154054200Y-195389141D01*
X154055476Y-195363172D01*
X154059291Y-195337454D01*
X154065608Y-195312233D01*
X154074367Y-195287752D01*
X154085484Y-195264249D01*
X154098851Y-195241948D01*
X154114339Y-195221064D01*
X154131799Y-195201799D01*
X154151064Y-195184339D01*
X154171948Y-195168851D01*
X154194249Y-195155484D01*
X154217752Y-195144367D01*
X154242233Y-195135608D01*
X154267454Y-195129291D01*
X154293172Y-195125476D01*
X154319141Y-195124200D01*
X155840859Y-195124200D01*
X155866828Y-195125476D01*
X155866828Y-195125476D01*
G37*
D21*
X155080000Y-196025000D03*
D22*
X254140000Y-195517000D03*
X254140000Y-198057000D03*
X251600000Y-198057000D03*
X251600000Y-195517000D03*
X249060000Y-198057000D03*
X277000000Y-182690000D03*
X277000000Y-177610000D03*
X277000000Y-175070000D03*
X277000000Y-172530000D03*
X277000000Y-169990000D03*
X277000000Y-167450000D03*
X277000000Y-164910000D03*
X277000000Y-162370000D03*
X228740000Y-218250000D03*
X228740000Y-215710000D03*
X228740000Y-213170000D03*
X228740000Y-210630000D03*
X228740000Y-208090000D03*
X228740000Y-205550000D03*
X228740000Y-203010000D03*
X228740000Y-200470000D03*
X228740000Y-195390000D03*
X228740000Y-192850000D03*
X228740000Y-190310000D03*
X228740000Y-187770000D03*
X228740000Y-185230000D03*
X228740000Y-182690000D03*
X228740000Y-180150000D03*
X228740000Y-177610000D03*
X228740000Y-158306000D03*
X228740000Y-173546000D03*
X228740000Y-171006000D03*
X228740000Y-168466000D03*
X228740000Y-150686000D03*
X228740000Y-153226000D03*
X228740000Y-155766000D03*
X228740000Y-160846000D03*
X228740000Y-163386000D03*
X228740000Y-165926000D03*
X277000000Y-159830000D03*
X277000000Y-185230000D03*
X277000000Y-187770000D03*
X277000000Y-190310000D03*
X277000000Y-192850000D03*
X277000000Y-195390000D03*
X277000000Y-197930000D03*
X277000000Y-200470000D03*
X277000000Y-205550000D03*
X277000000Y-208090000D03*
X277000000Y-210630000D03*
X277000000Y-213170000D03*
X277000000Y-215710000D03*
X277000000Y-218250000D03*
X277000000Y-220790000D03*
X277000000Y-223330000D03*
X228740000Y-225870000D03*
X228740000Y-228410000D03*
X231280000Y-225870000D03*
X231280000Y-228410000D03*
X233820000Y-225870000D03*
X233820000Y-228410000D03*
X236360000Y-225870000D03*
X236360000Y-228410000D03*
X238900000Y-225870000D03*
X238900000Y-228410000D03*
X241440000Y-225870000D03*
X241440000Y-228410000D03*
X243980000Y-225870000D03*
X243980000Y-228410000D03*
X246520000Y-225870000D03*
X246520000Y-228410000D03*
X249060000Y-225870000D03*
X249060000Y-228410000D03*
X251600000Y-225870000D03*
X251600000Y-228410000D03*
X254140000Y-225870000D03*
X254140000Y-228410000D03*
X256680000Y-225870000D03*
X256680000Y-228410000D03*
X259220000Y-225870000D03*
X259220000Y-228410000D03*
X261760000Y-225870000D03*
X261760000Y-228410000D03*
X264300000Y-225870000D03*
X264300000Y-228410000D03*
X266840000Y-225870000D03*
X266840000Y-228410000D03*
X269380000Y-225870000D03*
X269380000Y-228410000D03*
X271920000Y-225870000D03*
X271920000Y-228410000D03*
X249060000Y-195517000D03*
D23*
X219850000Y-219520000D03*
X217310000Y-219520000D03*
X209690000Y-219520000D03*
X209690000Y-216980000D03*
X209690000Y-214440000D03*
X209690000Y-211900000D03*
X209690000Y-209360000D03*
X209690000Y-206820000D03*
X209690000Y-204280000D03*
X209690000Y-201740000D03*
X222390000Y-201740000D03*
X222390000Y-204280000D03*
X222390000Y-206820000D03*
X222390000Y-209360000D03*
X222390000Y-211900000D03*
X222390000Y-214440000D03*
X222390000Y-216980000D03*
D24*
X222390000Y-219520000D03*
D25*
X163540000Y-154530000D03*
X166940000Y-154530000D03*
X166940000Y-144810000D03*
X163540000Y-144810000D03*
X166940000Y-161320000D03*
X163540000Y-161320000D03*
X163540000Y-171040000D03*
X166940000Y-171040000D03*
D26*
X309735000Y-172600000D03*
D27*
X309735000Y-151600000D03*
D15*
G36*
X156945446Y-209722138D02*
G01*
X157004676Y-209730924D01*
X157062760Y-209745473D01*
X157119138Y-209765646D01*
X157173267Y-209791247D01*
X157224627Y-209822031D01*
X157272721Y-209857700D01*
X157317088Y-209897912D01*
X157357300Y-209942279D01*
X157392969Y-209990373D01*
X157423753Y-210041733D01*
X157449354Y-210095862D01*
X157469527Y-210152240D01*
X157484076Y-210210324D01*
X157492862Y-210269554D01*
X157495800Y-210329360D01*
X157495800Y-215210640D01*
X157492862Y-215270446D01*
X157484076Y-215329676D01*
X157469527Y-215387760D01*
X157449354Y-215444138D01*
X157423753Y-215498267D01*
X157392969Y-215549627D01*
X157357300Y-215597721D01*
X157317088Y-215642088D01*
X157272721Y-215682300D01*
X157224627Y-215717969D01*
X157173267Y-215748753D01*
X157119138Y-215774354D01*
X157062760Y-215794527D01*
X157004676Y-215809076D01*
X156945446Y-215817862D01*
X156885640Y-215820800D01*
X152004360Y-215820800D01*
X151944554Y-215817862D01*
X151885324Y-215809076D01*
X151827240Y-215794527D01*
X151770862Y-215774354D01*
X151716733Y-215748753D01*
X151665373Y-215717969D01*
X151617279Y-215682300D01*
X151572912Y-215642088D01*
X151532700Y-215597721D01*
X151497031Y-215549627D01*
X151466247Y-215498267D01*
X151440646Y-215444138D01*
X151420473Y-215387760D01*
X151405924Y-215329676D01*
X151397138Y-215270446D01*
X151394200Y-215210640D01*
X151394200Y-210329360D01*
X151397138Y-210269554D01*
X151405924Y-210210324D01*
X151420473Y-210152240D01*
X151440646Y-210095862D01*
X151466247Y-210041733D01*
X151497031Y-209990373D01*
X151532700Y-209942279D01*
X151572912Y-209897912D01*
X151617279Y-209857700D01*
X151665373Y-209822031D01*
X151716733Y-209791247D01*
X151770862Y-209765646D01*
X151827240Y-209745473D01*
X151885324Y-209730924D01*
X151944554Y-209722138D01*
X152004360Y-209719200D01*
X156885640Y-209719200D01*
X156945446Y-209722138D01*
X156945446Y-209722138D01*
G37*
D28*
X154445000Y-212770000D03*
D15*
G36*
X156945446Y-216872138D02*
G01*
X157004676Y-216880924D01*
X157062760Y-216895473D01*
X157119138Y-216915646D01*
X157173267Y-216941247D01*
X157224627Y-216972031D01*
X157272721Y-217007700D01*
X157317088Y-217047912D01*
X157357300Y-217092279D01*
X157392969Y-217140373D01*
X157423753Y-217191733D01*
X157449354Y-217245862D01*
X157469527Y-217302240D01*
X157484076Y-217360324D01*
X157492862Y-217419554D01*
X157495800Y-217479360D01*
X157495800Y-222360640D01*
X157492862Y-222420446D01*
X157484076Y-222479676D01*
X157469527Y-222537760D01*
X157449354Y-222594138D01*
X157423753Y-222648267D01*
X157392969Y-222699627D01*
X157357300Y-222747721D01*
X157317088Y-222792088D01*
X157272721Y-222832300D01*
X157224627Y-222867969D01*
X157173267Y-222898753D01*
X157119138Y-222924354D01*
X157062760Y-222944527D01*
X157004676Y-222959076D01*
X156945446Y-222967862D01*
X156885640Y-222970800D01*
X152004360Y-222970800D01*
X151944554Y-222967862D01*
X151885324Y-222959076D01*
X151827240Y-222944527D01*
X151770862Y-222924354D01*
X151716733Y-222898753D01*
X151665373Y-222867969D01*
X151617279Y-222832300D01*
X151572912Y-222792088D01*
X151532700Y-222747721D01*
X151497031Y-222699627D01*
X151466247Y-222648267D01*
X151440646Y-222594138D01*
X151420473Y-222537760D01*
X151405924Y-222479676D01*
X151397138Y-222420446D01*
X151394200Y-222360640D01*
X151394200Y-217479360D01*
X151397138Y-217419554D01*
X151405924Y-217360324D01*
X151420473Y-217302240D01*
X151440646Y-217245862D01*
X151466247Y-217191733D01*
X151497031Y-217140373D01*
X151532700Y-217092279D01*
X151572912Y-217047912D01*
X151617279Y-217007700D01*
X151665373Y-216972031D01*
X151716733Y-216941247D01*
X151770862Y-216915646D01*
X151827240Y-216895473D01*
X151885324Y-216880924D01*
X151944554Y-216872138D01*
X152004360Y-216869200D01*
X156885640Y-216869200D01*
X156945446Y-216872138D01*
X156945446Y-216872138D01*
G37*
D28*
X154445000Y-219920000D03*
D15*
G36*
X157216041Y-207445694D02*
G01*
X157246149Y-207450160D01*
X157275675Y-207457555D01*
X157304333Y-207467810D01*
X157331848Y-207480823D01*
X157357956Y-207496471D01*
X157382403Y-207514603D01*
X157404956Y-207535044D01*
X157425397Y-207557597D01*
X157443529Y-207582044D01*
X157459177Y-207608152D01*
X157472190Y-207635667D01*
X157482445Y-207664325D01*
X157489840Y-207693851D01*
X157494306Y-207723959D01*
X157495800Y-207754360D01*
X157495800Y-210235640D01*
X157494306Y-210266041D01*
X157489840Y-210296149D01*
X157482445Y-210325675D01*
X157472190Y-210354333D01*
X157459177Y-210381848D01*
X157443529Y-210407956D01*
X157425397Y-210432403D01*
X157404956Y-210454956D01*
X157382403Y-210475397D01*
X157357956Y-210493529D01*
X157331848Y-210509177D01*
X157304333Y-210522190D01*
X157275675Y-210532445D01*
X157246149Y-210539840D01*
X157216041Y-210544306D01*
X157185640Y-210545800D01*
X151704360Y-210545800D01*
X151673959Y-210544306D01*
X151643851Y-210539840D01*
X151614325Y-210532445D01*
X151585667Y-210522190D01*
X151558152Y-210509177D01*
X151532044Y-210493529D01*
X151507597Y-210475397D01*
X151485044Y-210454956D01*
X151464603Y-210432403D01*
X151446471Y-210407956D01*
X151430823Y-210381848D01*
X151417810Y-210354333D01*
X151407555Y-210325675D01*
X151400160Y-210296149D01*
X151395694Y-210266041D01*
X151394200Y-210235640D01*
X151394200Y-207754360D01*
X151395694Y-207723959D01*
X151400160Y-207693851D01*
X151407555Y-207664325D01*
X151417810Y-207635667D01*
X151430823Y-207608152D01*
X151446471Y-207582044D01*
X151464603Y-207557597D01*
X151485044Y-207535044D01*
X151507597Y-207514603D01*
X151532044Y-207496471D01*
X151558152Y-207480823D01*
X151585667Y-207467810D01*
X151614325Y-207457555D01*
X151643851Y-207450160D01*
X151673959Y-207445694D01*
X151704360Y-207444200D01*
X157185640Y-207444200D01*
X157216041Y-207445694D01*
X157216041Y-207445694D01*
G37*
D29*
X154445000Y-208995000D03*
D15*
G36*
X157216041Y-222145694D02*
G01*
X157246149Y-222150160D01*
X157275675Y-222157555D01*
X157304333Y-222167810D01*
X157331848Y-222180823D01*
X157357956Y-222196471D01*
X157382403Y-222214603D01*
X157404956Y-222235044D01*
X157425397Y-222257597D01*
X157443529Y-222282044D01*
X157459177Y-222308152D01*
X157472190Y-222335667D01*
X157482445Y-222364325D01*
X157489840Y-222393851D01*
X157494306Y-222423959D01*
X157495800Y-222454360D01*
X157495800Y-224935640D01*
X157494306Y-224966041D01*
X157489840Y-224996149D01*
X157482445Y-225025675D01*
X157472190Y-225054333D01*
X157459177Y-225081848D01*
X157443529Y-225107956D01*
X157425397Y-225132403D01*
X157404956Y-225154956D01*
X157382403Y-225175397D01*
X157357956Y-225193529D01*
X157331848Y-225209177D01*
X157304333Y-225222190D01*
X157275675Y-225232445D01*
X157246149Y-225239840D01*
X157216041Y-225244306D01*
X157185640Y-225245800D01*
X151704360Y-225245800D01*
X151673959Y-225244306D01*
X151643851Y-225239840D01*
X151614325Y-225232445D01*
X151585667Y-225222190D01*
X151558152Y-225209177D01*
X151532044Y-225193529D01*
X151507597Y-225175397D01*
X151485044Y-225154956D01*
X151464603Y-225132403D01*
X151446471Y-225107956D01*
X151430823Y-225081848D01*
X151417810Y-225054333D01*
X151407555Y-225025675D01*
X151400160Y-224996149D01*
X151395694Y-224966041D01*
X151394200Y-224935640D01*
X151394200Y-222454360D01*
X151395694Y-222423959D01*
X151400160Y-222393851D01*
X151407555Y-222364325D01*
X151417810Y-222335667D01*
X151430823Y-222308152D01*
X151446471Y-222282044D01*
X151464603Y-222257597D01*
X151485044Y-222235044D01*
X151507597Y-222214603D01*
X151532044Y-222196471D01*
X151558152Y-222180823D01*
X151585667Y-222167810D01*
X151614325Y-222157555D01*
X151643851Y-222150160D01*
X151673959Y-222145694D01*
X151704360Y-222144200D01*
X157185640Y-222144200D01*
X157216041Y-222145694D01*
X157216041Y-222145694D01*
G37*
D29*
X154445000Y-223695000D03*
D30*
X155080000Y-235355000D03*
D15*
G36*
X155891828Y-231955476D02*
G01*
X155917546Y-231959291D01*
X155942767Y-231965608D01*
X155967248Y-231974367D01*
X155990751Y-231985484D01*
X156013052Y-231998851D01*
X156033936Y-232014339D01*
X156053201Y-232031799D01*
X156070661Y-232051064D01*
X156086149Y-232071948D01*
X156099516Y-232094249D01*
X156110633Y-232117752D01*
X156119392Y-232142233D01*
X156125709Y-232167454D01*
X156129524Y-232193172D01*
X156130800Y-232219141D01*
X156130800Y-233490859D01*
X156129524Y-233516828D01*
X156125709Y-233542546D01*
X156119392Y-233567767D01*
X156110633Y-233592248D01*
X156099516Y-233615751D01*
X156086149Y-233638052D01*
X156070661Y-233658936D01*
X156053201Y-233678201D01*
X156033936Y-233695661D01*
X156013052Y-233711149D01*
X155990751Y-233724516D01*
X155967248Y-233735633D01*
X155942767Y-233744392D01*
X155917546Y-233750709D01*
X155891828Y-233754524D01*
X155865859Y-233755800D01*
X154294141Y-233755800D01*
X154268172Y-233754524D01*
X154242454Y-233750709D01*
X154217233Y-233744392D01*
X154192752Y-233735633D01*
X154169249Y-233724516D01*
X154146948Y-233711149D01*
X154126064Y-233695661D01*
X154106799Y-233678201D01*
X154089339Y-233658936D01*
X154073851Y-233638052D01*
X154060484Y-233615751D01*
X154049367Y-233592248D01*
X154040608Y-233567767D01*
X154034291Y-233542546D01*
X154030476Y-233516828D01*
X154029200Y-233490859D01*
X154029200Y-232219141D01*
X154030476Y-232193172D01*
X154034291Y-232167454D01*
X154040608Y-232142233D01*
X154049367Y-232117752D01*
X154060484Y-232094249D01*
X154073851Y-232071948D01*
X154089339Y-232051064D01*
X154106799Y-232031799D01*
X154126064Y-232014339D01*
X154146948Y-231998851D01*
X154169249Y-231985484D01*
X154192752Y-231974367D01*
X154217233Y-231965608D01*
X154242454Y-231959291D01*
X154268172Y-231955476D01*
X154294141Y-231954200D01*
X155865859Y-231954200D01*
X155891828Y-231955476D01*
X155891828Y-231955476D01*
G37*
D21*
X155080000Y-232855000D03*
D31*
X322350000Y-130930000D03*
X322350000Y-142970000D03*
D32*
X319640000Y-135700000D03*
X319640000Y-138200000D03*
D33*
X317640000Y-135700000D03*
D32*
X317640000Y-138200000D03*
D23*
X219850000Y-196660000D03*
X217310000Y-196660000D03*
X209690000Y-196660000D03*
X209690000Y-194120000D03*
X209690000Y-191580000D03*
X209690000Y-189040000D03*
X209690000Y-186500000D03*
X209690000Y-183960000D03*
X209690000Y-181420000D03*
X209690000Y-178880000D03*
X222390000Y-178880000D03*
X222390000Y-181420000D03*
X222390000Y-183960000D03*
X222390000Y-186500000D03*
X222390000Y-189040000D03*
X222390000Y-191580000D03*
X222390000Y-194120000D03*
D24*
X222390000Y-196660000D03*
D23*
X219850000Y-150940000D03*
X217310000Y-150940000D03*
X209690000Y-150940000D03*
X209690000Y-148400000D03*
X209690000Y-145860000D03*
X209690000Y-143320000D03*
X209690000Y-140780000D03*
X209690000Y-138240000D03*
X209690000Y-135700000D03*
X209690000Y-133160000D03*
X222390000Y-133160000D03*
X222390000Y-135700000D03*
X222390000Y-138240000D03*
X222390000Y-140780000D03*
X222390000Y-143320000D03*
X222390000Y-145860000D03*
X222390000Y-148400000D03*
D24*
X222390000Y-150940000D03*
D23*
X219850000Y-173800000D03*
X217310000Y-173800000D03*
X209690000Y-173800000D03*
X209690000Y-171260000D03*
X209690000Y-168720000D03*
X209690000Y-166180000D03*
X209690000Y-163640000D03*
X209690000Y-161100000D03*
X209690000Y-158560000D03*
X209690000Y-156020000D03*
X222390000Y-156020000D03*
X222390000Y-158560000D03*
X222390000Y-161100000D03*
X222390000Y-163640000D03*
X222390000Y-166180000D03*
X222390000Y-168720000D03*
X222390000Y-171260000D03*
D24*
X222390000Y-173800000D03*
D22*
X189370000Y-163640000D03*
X186830000Y-163640000D03*
X189370000Y-166180000D03*
X186830000Y-166180000D03*
X189370000Y-168720000D03*
X186830000Y-168720000D03*
X189370000Y-171260000D03*
X186830000Y-171260000D03*
X189370000Y-173800000D03*
X186830000Y-173800000D03*
X189370000Y-176340000D03*
X186830000Y-176340000D03*
X189370000Y-178880000D03*
X186830000Y-178880000D03*
X189370000Y-181420000D03*
X186830000Y-181420000D03*
X189370000Y-183960000D03*
X186830000Y-183960000D03*
X189370000Y-186500000D03*
D34*
X186830000Y-186500000D03*
D22*
X273825000Y-118555000D03*
X271285000Y-118555000D03*
X273825000Y-121095000D03*
X271285000Y-121095000D03*
X273825000Y-123635000D03*
D34*
X271285000Y-123635000D03*
D22*
X296685000Y-147130000D03*
X299225000Y-147130000D03*
X296685000Y-144590000D03*
X299225000Y-144590000D03*
X296685000Y-142050000D03*
X299225000Y-142050000D03*
X296685000Y-139510000D03*
X299225000Y-139510000D03*
X296685000Y-136970000D03*
D34*
X299225000Y-136970000D03*
D22*
X155080000Y-124270000D03*
X155080000Y-126810000D03*
X157620000Y-124270000D03*
X157620000Y-126810000D03*
X160160000Y-124270000D03*
X160160000Y-126810000D03*
X162700000Y-124270000D03*
X162700000Y-126810000D03*
X165240000Y-124270000D03*
X165240000Y-126810000D03*
X167780000Y-124270000D03*
X167780000Y-126810000D03*
X170320000Y-124270000D03*
X170320000Y-126810000D03*
X172860000Y-124270000D03*
X172860000Y-126810000D03*
X175400000Y-124270000D03*
X175400000Y-126810000D03*
X177940000Y-124270000D03*
X177940000Y-126810000D03*
X180480000Y-124270000D03*
X180480000Y-126810000D03*
X183020000Y-124270000D03*
X183020000Y-126810000D03*
X185560000Y-124270000D03*
D34*
X185560000Y-126810000D03*
D22*
X213500000Y-225870000D03*
X213500000Y-228410000D03*
X216040000Y-225870000D03*
X216040000Y-228410000D03*
X218580000Y-225870000D03*
D34*
X218580000Y-228410000D03*
D22*
X218580000Y-126810000D03*
X218580000Y-124270000D03*
X216040000Y-126810000D03*
X216040000Y-124270000D03*
X213500000Y-126810000D03*
D34*
X213500000Y-124270000D03*
D35*
X233750000Y-112840000D03*
X231250000Y-112840000D03*
X228750000Y-112840000D03*
D15*
G36*
X226911828Y-111815476D02*
G01*
X226937546Y-111819291D01*
X226962767Y-111825608D01*
X226987248Y-111834367D01*
X227010751Y-111845484D01*
X227033052Y-111858851D01*
X227053936Y-111874339D01*
X227073201Y-111891799D01*
X227090661Y-111911064D01*
X227106149Y-111931948D01*
X227119516Y-111954249D01*
X227130633Y-111977752D01*
X227139392Y-112002233D01*
X227145709Y-112027454D01*
X227149524Y-112053172D01*
X227150800Y-112079141D01*
X227150800Y-113600859D01*
X227149524Y-113626828D01*
X227145709Y-113652546D01*
X227139392Y-113677767D01*
X227130633Y-113702248D01*
X227119516Y-113725751D01*
X227106149Y-113748052D01*
X227090661Y-113768936D01*
X227073201Y-113788201D01*
X227053936Y-113805661D01*
X227033052Y-113821149D01*
X227010751Y-113834516D01*
X226987248Y-113845633D01*
X226962767Y-113854392D01*
X226937546Y-113860709D01*
X226911828Y-113864524D01*
X226885859Y-113865800D01*
X225614141Y-113865800D01*
X225588172Y-113864524D01*
X225562454Y-113860709D01*
X225537233Y-113854392D01*
X225512752Y-113845633D01*
X225489249Y-113834516D01*
X225466948Y-113821149D01*
X225446064Y-113805661D01*
X225426799Y-113788201D01*
X225409339Y-113768936D01*
X225393851Y-113748052D01*
X225380484Y-113725751D01*
X225369367Y-113702248D01*
X225360608Y-113677767D01*
X225354291Y-113652546D01*
X225350476Y-113626828D01*
X225349200Y-113600859D01*
X225349200Y-112079141D01*
X225350476Y-112053172D01*
X225354291Y-112027454D01*
X225360608Y-112002233D01*
X225369367Y-111977752D01*
X225380484Y-111954249D01*
X225393851Y-111931948D01*
X225409339Y-111911064D01*
X225426799Y-111891799D01*
X225446064Y-111874339D01*
X225466948Y-111858851D01*
X225489249Y-111845484D01*
X225512752Y-111834367D01*
X225537233Y-111825608D01*
X225562454Y-111819291D01*
X225588172Y-111815476D01*
X225614141Y-111814200D01*
X226885859Y-111814200D01*
X226911828Y-111815476D01*
X226911828Y-111815476D01*
G37*
D21*
X226250000Y-112840000D03*
D36*
X197070000Y-214440000D03*
D37*
X202070000Y-214440000D03*
D36*
X175480000Y-176340000D03*
D37*
X180480000Y-176340000D03*
D36*
X197070000Y-157290000D03*
D37*
X202070000Y-157290000D03*
D36*
X197070000Y-138240000D03*
D37*
X202070000Y-138240000D03*
D36*
X197070000Y-176340000D03*
D37*
X202070000Y-176340000D03*
D36*
X197070000Y-195390000D03*
D37*
X202070000Y-195390000D03*
M02*
