G04 #@! TF.GenerationSoftware,KiCad,Pcbnew,(5.1.4)-1*
G04 #@! TF.CreationDate,2020-03-27T15:16:42-04:00*
G04 #@! TF.ProjectId,extruder_breakout,65787472-7564-4657-925f-627265616b6f,rev?*
G04 #@! TF.SameCoordinates,PX8f0d180PY5f5e100*
G04 #@! TF.FileFunction,Soldermask,Bot*
G04 #@! TF.FilePolarity,Negative*
%FSLAX46Y46*%
G04 Gerber Fmt 4.6, Leading zero omitted, Abs format (unit mm)*
G04 Created by KiCad (PCBNEW (5.1.4)-1) date 2020-03-27 15:16:42*
%MOMM*%
%LPD*%
G04 APERTURE LIST*
%ADD10C,0.100000*%
G04 APERTURE END LIST*
D10*
G36*
X-10473909Y9313497D02*
G01*
X-10273576Y9230516D01*
X-10093281Y9110047D01*
X-9939953Y8956719D01*
X-9819484Y8776424D01*
X-9736503Y8576091D01*
X-9694200Y8363419D01*
X-9694200Y8146581D01*
X-9736503Y7933909D01*
X-9819484Y7733576D01*
X-9939953Y7553281D01*
X-10093281Y7399953D01*
X-10273576Y7279484D01*
X-10473909Y7196503D01*
X-10686581Y7154200D01*
X-10903419Y7154200D01*
X-11116091Y7196503D01*
X-11316424Y7279484D01*
X-11496719Y7399953D01*
X-11650047Y7553281D01*
X-11770516Y7733576D01*
X-11853497Y7933909D01*
X-11895800Y8146581D01*
X-11895800Y8363419D01*
X-11853497Y8576091D01*
X-11770516Y8776424D01*
X-11650047Y8956719D01*
X-11496719Y9110047D01*
X-11316424Y9230516D01*
X-11116091Y9313497D01*
X-10903419Y9355800D01*
X-10686581Y9355800D01*
X-10473909Y9313497D01*
X-10473909Y9313497D01*
G37*
G36*
X11011957Y9150933D02*
G01*
X11058266Y9136885D01*
X11100951Y9114069D01*
X11138365Y9083365D01*
X11169069Y9045951D01*
X11191885Y9003266D01*
X11205933Y8956957D01*
X11210800Y8907538D01*
X11210800Y7602462D01*
X11205933Y7553043D01*
X11191885Y7506734D01*
X11169069Y7464049D01*
X11138365Y7426635D01*
X11100951Y7395931D01*
X11058266Y7373115D01*
X11011957Y7359067D01*
X10962538Y7354200D01*
X9357462Y7354200D01*
X9308043Y7359067D01*
X9261734Y7373115D01*
X9219049Y7395931D01*
X9181635Y7426635D01*
X9150931Y7464049D01*
X9128115Y7506734D01*
X9114067Y7553043D01*
X9109200Y7602462D01*
X9109200Y8907538D01*
X9114067Y8956957D01*
X9128115Y9003266D01*
X9150931Y9045951D01*
X9181635Y9083365D01*
X9219049Y9114069D01*
X9261734Y9136885D01*
X9308043Y9150933D01*
X9357462Y9155800D01*
X10962538Y9155800D01*
X11011957Y9150933D01*
X11011957Y9150933D01*
G37*
G36*
X4026957Y9150933D02*
G01*
X4073266Y9136885D01*
X4115951Y9114069D01*
X4153365Y9083365D01*
X4184069Y9045951D01*
X4206885Y9003266D01*
X4220933Y8956957D01*
X4225800Y8907538D01*
X4225800Y7602462D01*
X4220933Y7553043D01*
X4206885Y7506734D01*
X4184069Y7464049D01*
X4153365Y7426635D01*
X4115951Y7395931D01*
X4073266Y7373115D01*
X4026957Y7359067D01*
X3977538Y7354200D01*
X2372462Y7354200D01*
X2323043Y7359067D01*
X2276734Y7373115D01*
X2234049Y7395931D01*
X2196635Y7426635D01*
X2165931Y7464049D01*
X2143115Y7506734D01*
X2129067Y7553043D01*
X2124200Y7602462D01*
X2124200Y8907538D01*
X2129067Y8956957D01*
X2143115Y9003266D01*
X2165931Y9045951D01*
X2196635Y9083365D01*
X2234049Y9114069D01*
X2276734Y9136885D01*
X2323043Y9150933D01*
X2372462Y9155800D01*
X3977538Y9155800D01*
X4026957Y9150933D01*
X4026957Y9150933D01*
G37*
G36*
X-2958043Y9150933D02*
G01*
X-2911734Y9136885D01*
X-2869049Y9114069D01*
X-2831635Y9083365D01*
X-2800931Y9045951D01*
X-2778115Y9003266D01*
X-2764067Y8956957D01*
X-2759200Y8907538D01*
X-2759200Y7602462D01*
X-2764067Y7553043D01*
X-2778115Y7506734D01*
X-2800931Y7464049D01*
X-2831635Y7426635D01*
X-2869049Y7395931D01*
X-2911734Y7373115D01*
X-2958043Y7359067D01*
X-3007462Y7354200D01*
X-4612538Y7354200D01*
X-4661957Y7359067D01*
X-4708266Y7373115D01*
X-4750951Y7395931D01*
X-4788365Y7426635D01*
X-4819069Y7464049D01*
X-4841885Y7506734D01*
X-4855933Y7553043D01*
X-4860800Y7602462D01*
X-4860800Y8907538D01*
X-4855933Y8956957D01*
X-4841885Y9003266D01*
X-4819069Y9045951D01*
X-4788365Y9083365D01*
X-4750951Y9114069D01*
X-4708266Y9136885D01*
X-4661957Y9150933D01*
X-4612538Y9155800D01*
X-3007462Y9155800D01*
X-2958043Y9150933D01*
X-2958043Y9150933D01*
G37*
G36*
X-9694200Y9694200D02*
G01*
X-11895800Y9694200D01*
X-11895800Y11895800D01*
X-9694200Y11895800D01*
X-9694200Y9694200D01*
X-9694200Y9694200D01*
G37*
G36*
X3501588Y11642766D02*
G01*
X3501591Y11642765D01*
X3671388Y11591258D01*
X3827878Y11507612D01*
X3965043Y11395043D01*
X4077612Y11257878D01*
X4161258Y11101388D01*
X4206875Y10951008D01*
X4212766Y10931588D01*
X4230158Y10755000D01*
X4212766Y10578412D01*
X4212765Y10578409D01*
X4161258Y10408612D01*
X4077612Y10252122D01*
X3965043Y10114957D01*
X3827878Y10002388D01*
X3671388Y9918742D01*
X3521008Y9873125D01*
X3501588Y9867234D01*
X3369249Y9854200D01*
X2980751Y9854200D01*
X2848412Y9867234D01*
X2828992Y9873125D01*
X2678612Y9918742D01*
X2522122Y10002388D01*
X2384957Y10114957D01*
X2272388Y10252122D01*
X2188742Y10408612D01*
X2137235Y10578409D01*
X2137234Y10578412D01*
X2119842Y10755000D01*
X2137234Y10931588D01*
X2143125Y10951008D01*
X2188742Y11101388D01*
X2272388Y11257878D01*
X2384957Y11395043D01*
X2522122Y11507612D01*
X2678612Y11591258D01*
X2848409Y11642765D01*
X2848412Y11642766D01*
X2980751Y11655800D01*
X3369249Y11655800D01*
X3501588Y11642766D01*
X3501588Y11642766D01*
G37*
G36*
X10486588Y11642766D02*
G01*
X10486591Y11642765D01*
X10656388Y11591258D01*
X10812878Y11507612D01*
X10950043Y11395043D01*
X11062612Y11257878D01*
X11146258Y11101388D01*
X11191875Y10951008D01*
X11197766Y10931588D01*
X11215158Y10755000D01*
X11197766Y10578412D01*
X11197765Y10578409D01*
X11146258Y10408612D01*
X11062612Y10252122D01*
X10950043Y10114957D01*
X10812878Y10002388D01*
X10656388Y9918742D01*
X10506008Y9873125D01*
X10486588Y9867234D01*
X10354249Y9854200D01*
X9965751Y9854200D01*
X9833412Y9867234D01*
X9813992Y9873125D01*
X9663612Y9918742D01*
X9507122Y10002388D01*
X9369957Y10114957D01*
X9257388Y10252122D01*
X9173742Y10408612D01*
X9122235Y10578409D01*
X9122234Y10578412D01*
X9104842Y10755000D01*
X9122234Y10931588D01*
X9128125Y10951008D01*
X9173742Y11101388D01*
X9257388Y11257878D01*
X9369957Y11395043D01*
X9507122Y11507612D01*
X9663612Y11591258D01*
X9833409Y11642765D01*
X9833412Y11642766D01*
X9965751Y11655800D01*
X10354249Y11655800D01*
X10486588Y11642766D01*
X10486588Y11642766D01*
G37*
G36*
X-3483412Y11642766D02*
G01*
X-3483409Y11642765D01*
X-3313612Y11591258D01*
X-3157122Y11507612D01*
X-3019957Y11395043D01*
X-2907388Y11257878D01*
X-2823742Y11101388D01*
X-2778125Y10951008D01*
X-2772234Y10931588D01*
X-2754842Y10755000D01*
X-2772234Y10578412D01*
X-2772235Y10578409D01*
X-2823742Y10408612D01*
X-2907388Y10252122D01*
X-3019957Y10114957D01*
X-3157122Y10002388D01*
X-3313612Y9918742D01*
X-3463992Y9873125D01*
X-3483412Y9867234D01*
X-3615751Y9854200D01*
X-4004249Y9854200D01*
X-4136588Y9867234D01*
X-4156008Y9873125D01*
X-4306388Y9918742D01*
X-4462878Y10002388D01*
X-4600043Y10114957D01*
X-4712612Y10252122D01*
X-4796258Y10408612D01*
X-4847765Y10578409D01*
X-4847766Y10578412D01*
X-4865158Y10755000D01*
X-4847766Y10931588D01*
X-4841875Y10951008D01*
X-4796258Y11101388D01*
X-4712612Y11257878D01*
X-4600043Y11395043D01*
X-4462878Y11507612D01*
X-4306388Y11591258D01*
X-4136591Y11642765D01*
X-4136588Y11642766D01*
X-4004249Y11655800D01*
X-3615751Y11655800D01*
X-3483412Y11642766D01*
X-3483412Y11642766D01*
G37*
G36*
X-10116804Y19751989D02*
G01*
X-9908636Y19665763D01*
X-9743578Y19597394D01*
X-9407693Y19372962D01*
X-9122038Y19087307D01*
X-8897606Y18751422D01*
X-8829237Y18586364D01*
X-8743011Y18378196D01*
X-8664200Y17981986D01*
X-8664200Y17578014D01*
X-8743011Y17181804D01*
X-8828359Y16975756D01*
X-8897606Y16808578D01*
X-9122038Y16472693D01*
X-9407693Y16187038D01*
X-9743578Y15962606D01*
X-9908636Y15894237D01*
X-10116804Y15808011D01*
X-10513014Y15729200D01*
X-10916986Y15729200D01*
X-11313196Y15808011D01*
X-11521364Y15894237D01*
X-11686422Y15962606D01*
X-12022307Y16187038D01*
X-12307962Y16472693D01*
X-12532394Y16808578D01*
X-12601641Y16975756D01*
X-12686989Y17181804D01*
X-12765800Y17578014D01*
X-12765800Y17981986D01*
X-12686989Y18378196D01*
X-12600763Y18586364D01*
X-12532394Y18751422D01*
X-12307962Y19087307D01*
X-12022307Y19372962D01*
X-11686422Y19597394D01*
X-11521364Y19665763D01*
X-11313196Y19751989D01*
X-10916986Y19830800D01*
X-10513014Y19830800D01*
X-10116804Y19751989D01*
X-10116804Y19751989D01*
G37*
G36*
X-3764200Y15829200D02*
G01*
X-7665800Y15829200D01*
X-7665800Y19730800D01*
X-3764200Y19730800D01*
X-3764200Y15829200D01*
X-3764200Y15829200D01*
G37*
G36*
X3471588Y18157766D02*
G01*
X3471591Y18157765D01*
X3641388Y18106258D01*
X3797878Y18022612D01*
X3935043Y17910043D01*
X4047612Y17772878D01*
X4131258Y17616388D01*
X4142898Y17578014D01*
X4182766Y17446587D01*
X4195800Y17314248D01*
X4195800Y16975751D01*
X4182766Y16843412D01*
X4182765Y16843410D01*
X4182765Y16843409D01*
X4131258Y16673612D01*
X4047612Y16517122D01*
X3935043Y16379957D01*
X3797877Y16267388D01*
X3641387Y16183742D01*
X3495101Y16139367D01*
X3471587Y16132234D01*
X3295000Y16114842D01*
X3118412Y16132234D01*
X3094898Y16139367D01*
X2948612Y16183742D01*
X2792122Y16267388D01*
X2654957Y16379957D01*
X2542388Y16517123D01*
X2458742Y16673613D01*
X2407235Y16843410D01*
X2407234Y16843413D01*
X2394200Y16975752D01*
X2394200Y17314249D01*
X2407234Y17446588D01*
X2413125Y17466008D01*
X2458742Y17616388D01*
X2542388Y17772878D01*
X2654957Y17910043D01*
X2792123Y18022612D01*
X2948613Y18106258D01*
X3118410Y18157765D01*
X3118413Y18157766D01*
X3295000Y18175158D01*
X3471588Y18157766D01*
X3471588Y18157766D01*
G37*
G36*
X5971588Y18157766D02*
G01*
X5971591Y18157765D01*
X6141388Y18106258D01*
X6297878Y18022612D01*
X6435043Y17910043D01*
X6547612Y17772878D01*
X6631258Y17616388D01*
X6642898Y17578014D01*
X6682766Y17446587D01*
X6695800Y17314248D01*
X6695800Y16975751D01*
X6682766Y16843412D01*
X6682765Y16843410D01*
X6682765Y16843409D01*
X6631258Y16673612D01*
X6547612Y16517122D01*
X6435043Y16379957D01*
X6297877Y16267388D01*
X6141387Y16183742D01*
X5995101Y16139367D01*
X5971587Y16132234D01*
X5795000Y16114842D01*
X5618412Y16132234D01*
X5594898Y16139367D01*
X5448612Y16183742D01*
X5292122Y16267388D01*
X5154957Y16379957D01*
X5042388Y16517123D01*
X4958742Y16673613D01*
X4907235Y16843410D01*
X4907234Y16843413D01*
X4894200Y16975752D01*
X4894200Y17314249D01*
X4907234Y17446588D01*
X4913125Y17466008D01*
X4958742Y17616388D01*
X5042388Y17772878D01*
X5154957Y17910043D01*
X5292123Y18022612D01*
X5448613Y18106258D01*
X5618410Y18157765D01*
X5618413Y18157766D01*
X5795000Y18175158D01*
X5971588Y18157766D01*
X5971588Y18157766D01*
G37*
G36*
X8471588Y18157766D02*
G01*
X8471591Y18157765D01*
X8641388Y18106258D01*
X8797878Y18022612D01*
X8935043Y17910043D01*
X9047612Y17772878D01*
X9131258Y17616388D01*
X9142898Y17578014D01*
X9182766Y17446587D01*
X9195800Y17314248D01*
X9195800Y16975751D01*
X9182766Y16843412D01*
X9182765Y16843410D01*
X9182765Y16843409D01*
X9131258Y16673612D01*
X9047612Y16517122D01*
X8935043Y16379957D01*
X8797877Y16267388D01*
X8641387Y16183742D01*
X8495101Y16139367D01*
X8471587Y16132234D01*
X8295000Y16114842D01*
X8118412Y16132234D01*
X8094898Y16139367D01*
X7948612Y16183742D01*
X7792122Y16267388D01*
X7654957Y16379957D01*
X7542388Y16517123D01*
X7458742Y16673613D01*
X7407235Y16843410D01*
X7407234Y16843413D01*
X7394200Y16975752D01*
X7394200Y17314249D01*
X7407234Y17446588D01*
X7413125Y17466008D01*
X7458742Y17616388D01*
X7542388Y17772878D01*
X7654957Y17910043D01*
X7792123Y18022612D01*
X7948613Y18106258D01*
X8118410Y18157765D01*
X8118413Y18157766D01*
X8295000Y18175158D01*
X8471588Y18157766D01*
X8471588Y18157766D01*
G37*
G36*
X11496957Y18165933D02*
G01*
X11543266Y18151885D01*
X11585951Y18129069D01*
X11623365Y18098365D01*
X11654069Y18060951D01*
X11676885Y18018266D01*
X11690933Y17971957D01*
X11695800Y17922538D01*
X11695800Y16367462D01*
X11690933Y16318043D01*
X11676885Y16271734D01*
X11654069Y16229049D01*
X11623365Y16191635D01*
X11585951Y16160931D01*
X11543266Y16138115D01*
X11496957Y16124067D01*
X11447538Y16119200D01*
X10142462Y16119200D01*
X10093043Y16124067D01*
X10046734Y16138115D01*
X10004049Y16160931D01*
X9966635Y16191635D01*
X9935931Y16229049D01*
X9913115Y16271734D01*
X9899067Y16318043D01*
X9894200Y16367462D01*
X9894200Y17922538D01*
X9899067Y17971957D01*
X9913115Y18018266D01*
X9935931Y18060951D01*
X9966635Y18098365D01*
X10004049Y18129069D01*
X10046734Y18151885D01*
X10093043Y18165933D01*
X10142462Y18170800D01*
X11447538Y18170800D01*
X11496957Y18165933D01*
X11496957Y18165933D01*
G37*
G36*
X6428502Y29991092D02*
G01*
X6529257Y29981169D01*
X6701617Y29928884D01*
X6860471Y29843975D01*
X6909833Y29803464D01*
X6999707Y29729707D01*
X7073464Y29639833D01*
X7113975Y29590471D01*
X7198884Y29431617D01*
X7251169Y29259257D01*
X7268824Y29080000D01*
X7251169Y28900743D01*
X7198884Y28728383D01*
X7113975Y28569529D01*
X7073464Y28520167D01*
X6999707Y28430293D01*
X6909833Y28356536D01*
X6860471Y28316025D01*
X6701617Y28231116D01*
X6529257Y28178831D01*
X6428502Y28168908D01*
X6394918Y28165600D01*
X6305082Y28165600D01*
X6271498Y28168908D01*
X6170743Y28178831D01*
X5998383Y28231116D01*
X5839529Y28316025D01*
X5790167Y28356536D01*
X5700293Y28430293D01*
X5626536Y28520167D01*
X5586025Y28569529D01*
X5501116Y28728383D01*
X5448831Y28900743D01*
X5431176Y29080000D01*
X5448831Y29259257D01*
X5501116Y29431617D01*
X5586025Y29590471D01*
X5626536Y29639833D01*
X5700293Y29729707D01*
X5790167Y29803464D01*
X5839529Y29843975D01*
X5998383Y29928884D01*
X6170743Y29981169D01*
X6271498Y29991092D01*
X6305082Y29994400D01*
X6394918Y29994400D01*
X6428502Y29991092D01*
X6428502Y29991092D01*
G37*
G36*
X3888502Y29991092D02*
G01*
X3989257Y29981169D01*
X4161617Y29928884D01*
X4320471Y29843975D01*
X4369833Y29803464D01*
X4459707Y29729707D01*
X4533464Y29639833D01*
X4573975Y29590471D01*
X4658884Y29431617D01*
X4711169Y29259257D01*
X4728824Y29080000D01*
X4711169Y28900743D01*
X4658884Y28728383D01*
X4573975Y28569529D01*
X4533464Y28520167D01*
X4459707Y28430293D01*
X4369833Y28356536D01*
X4320471Y28316025D01*
X4161617Y28231116D01*
X3989257Y28178831D01*
X3888502Y28168908D01*
X3854918Y28165600D01*
X3765082Y28165600D01*
X3731498Y28168908D01*
X3630743Y28178831D01*
X3458383Y28231116D01*
X3299529Y28316025D01*
X3250167Y28356536D01*
X3160293Y28430293D01*
X3086536Y28520167D01*
X3046025Y28569529D01*
X2961116Y28728383D01*
X2908831Y28900743D01*
X2891176Y29080000D01*
X2908831Y29259257D01*
X2961116Y29431617D01*
X3046025Y29590471D01*
X3086536Y29639833D01*
X3160293Y29729707D01*
X3250167Y29803464D01*
X3299529Y29843975D01*
X3458383Y29928884D01*
X3630743Y29981169D01*
X3731498Y29991092D01*
X3765082Y29994400D01*
X3854918Y29994400D01*
X3888502Y29991092D01*
X3888502Y29991092D01*
G37*
G36*
X-3731498Y29991092D02*
G01*
X-3630743Y29981169D01*
X-3458383Y29928884D01*
X-3299529Y29843975D01*
X-3250167Y29803464D01*
X-3160293Y29729707D01*
X-3086536Y29639833D01*
X-3046025Y29590471D01*
X-2961116Y29431617D01*
X-2908831Y29259257D01*
X-2891176Y29080000D01*
X-2908831Y28900743D01*
X-2961116Y28728383D01*
X-3046025Y28569529D01*
X-3086536Y28520167D01*
X-3160293Y28430293D01*
X-3250167Y28356536D01*
X-3299529Y28316025D01*
X-3458383Y28231116D01*
X-3630743Y28178831D01*
X-3731498Y28168908D01*
X-3765082Y28165600D01*
X-3854918Y28165600D01*
X-3888502Y28168908D01*
X-3989257Y28178831D01*
X-4161617Y28231116D01*
X-4320471Y28316025D01*
X-4369833Y28356536D01*
X-4459707Y28430293D01*
X-4533464Y28520167D01*
X-4573975Y28569529D01*
X-4658884Y28728383D01*
X-4711169Y28900743D01*
X-4728824Y29080000D01*
X-4711169Y29259257D01*
X-4658884Y29431617D01*
X-4573975Y29590471D01*
X-4533464Y29639833D01*
X-4459707Y29729707D01*
X-4369833Y29803464D01*
X-4320471Y29843975D01*
X-4161617Y29928884D01*
X-3989257Y29981169D01*
X-3888502Y29991092D01*
X-3854918Y29994400D01*
X-3765082Y29994400D01*
X-3731498Y29991092D01*
X-3731498Y29991092D01*
G37*
G36*
X8968502Y29991092D02*
G01*
X9069257Y29981169D01*
X9241617Y29928884D01*
X9400471Y29843975D01*
X9449833Y29803464D01*
X9539707Y29729707D01*
X9613464Y29639833D01*
X9653975Y29590471D01*
X9738884Y29431617D01*
X9791169Y29259257D01*
X9808824Y29080000D01*
X9791169Y28900743D01*
X9738884Y28728383D01*
X9653975Y28569529D01*
X9613464Y28520167D01*
X9539707Y28430293D01*
X9449833Y28356536D01*
X9400471Y28316025D01*
X9241617Y28231116D01*
X9069257Y28178831D01*
X8968502Y28168908D01*
X8934918Y28165600D01*
X8845082Y28165600D01*
X8811498Y28168908D01*
X8710743Y28178831D01*
X8538383Y28231116D01*
X8379529Y28316025D01*
X8330167Y28356536D01*
X8240293Y28430293D01*
X8166536Y28520167D01*
X8126025Y28569529D01*
X8041116Y28728383D01*
X7988831Y28900743D01*
X7971176Y29080000D01*
X7988831Y29259257D01*
X8041116Y29431617D01*
X8126025Y29590471D01*
X8166536Y29639833D01*
X8240293Y29729707D01*
X8330167Y29803464D01*
X8379529Y29843975D01*
X8538383Y29928884D01*
X8710743Y29981169D01*
X8811498Y29991092D01*
X8845082Y29994400D01*
X8934918Y29994400D01*
X8968502Y29991092D01*
X8968502Y29991092D01*
G37*
G36*
X1348502Y29991092D02*
G01*
X1449257Y29981169D01*
X1621617Y29928884D01*
X1780471Y29843975D01*
X1829833Y29803464D01*
X1919707Y29729707D01*
X1993464Y29639833D01*
X2033975Y29590471D01*
X2118884Y29431617D01*
X2171169Y29259257D01*
X2188824Y29080000D01*
X2171169Y28900743D01*
X2118884Y28728383D01*
X2033975Y28569529D01*
X1993464Y28520167D01*
X1919707Y28430293D01*
X1829833Y28356536D01*
X1780471Y28316025D01*
X1621617Y28231116D01*
X1449257Y28178831D01*
X1348502Y28168908D01*
X1314918Y28165600D01*
X1225082Y28165600D01*
X1191498Y28168908D01*
X1090743Y28178831D01*
X918383Y28231116D01*
X759529Y28316025D01*
X710167Y28356536D01*
X620293Y28430293D01*
X546536Y28520167D01*
X506025Y28569529D01*
X421116Y28728383D01*
X368831Y28900743D01*
X351176Y29080000D01*
X368831Y29259257D01*
X421116Y29431617D01*
X506025Y29590471D01*
X546536Y29639833D01*
X620293Y29729707D01*
X710167Y29803464D01*
X759529Y29843975D01*
X918383Y29928884D01*
X1090743Y29981169D01*
X1191498Y29991092D01*
X1225082Y29994400D01*
X1314918Y29994400D01*
X1348502Y29991092D01*
X1348502Y29991092D01*
G37*
G36*
X-1191498Y29991092D02*
G01*
X-1090743Y29981169D01*
X-918383Y29928884D01*
X-759529Y29843975D01*
X-710167Y29803464D01*
X-620293Y29729707D01*
X-546536Y29639833D01*
X-506025Y29590471D01*
X-421116Y29431617D01*
X-368831Y29259257D01*
X-351176Y29080000D01*
X-368831Y28900743D01*
X-421116Y28728383D01*
X-506025Y28569529D01*
X-546536Y28520167D01*
X-620293Y28430293D01*
X-710167Y28356536D01*
X-759529Y28316025D01*
X-918383Y28231116D01*
X-1090743Y28178831D01*
X-1191498Y28168908D01*
X-1225082Y28165600D01*
X-1314918Y28165600D01*
X-1348502Y28168908D01*
X-1449257Y28178831D01*
X-1621617Y28231116D01*
X-1780471Y28316025D01*
X-1829833Y28356536D01*
X-1919707Y28430293D01*
X-1993464Y28520167D01*
X-2033975Y28569529D01*
X-2118884Y28728383D01*
X-2171169Y28900743D01*
X-2188824Y29080000D01*
X-2171169Y29259257D01*
X-2118884Y29431617D01*
X-2033975Y29590471D01*
X-1993464Y29639833D01*
X-1919707Y29729707D01*
X-1829833Y29803464D01*
X-1780471Y29843975D01*
X-1621617Y29928884D01*
X-1449257Y29981169D01*
X-1348502Y29991092D01*
X-1314918Y29994400D01*
X-1225082Y29994400D01*
X-1191498Y29991092D01*
X-1191498Y29991092D01*
G37*
G36*
X-8811498Y29991092D02*
G01*
X-8710743Y29981169D01*
X-8538383Y29928884D01*
X-8379529Y29843975D01*
X-8330167Y29803464D01*
X-8240293Y29729707D01*
X-8166536Y29639833D01*
X-8126025Y29590471D01*
X-8041116Y29431617D01*
X-7988831Y29259257D01*
X-7971176Y29080000D01*
X-7988831Y28900743D01*
X-8041116Y28728383D01*
X-8126025Y28569529D01*
X-8166536Y28520167D01*
X-8240293Y28430293D01*
X-8330167Y28356536D01*
X-8379529Y28316025D01*
X-8538383Y28231116D01*
X-8710743Y28178831D01*
X-8811498Y28168908D01*
X-8845082Y28165600D01*
X-8934918Y28165600D01*
X-8968502Y28168908D01*
X-9069257Y28178831D01*
X-9241617Y28231116D01*
X-9400471Y28316025D01*
X-9449833Y28356536D01*
X-9539707Y28430293D01*
X-9613464Y28520167D01*
X-9653975Y28569529D01*
X-9738884Y28728383D01*
X-9791169Y28900743D01*
X-9808824Y29080000D01*
X-9791169Y29259257D01*
X-9738884Y29431617D01*
X-9653975Y29590471D01*
X-9613464Y29639833D01*
X-9539707Y29729707D01*
X-9449833Y29803464D01*
X-9400471Y29843975D01*
X-9241617Y29928884D01*
X-9069257Y29981169D01*
X-8968502Y29991092D01*
X-8934918Y29994400D01*
X-8845082Y29994400D01*
X-8811498Y29991092D01*
X-8811498Y29991092D01*
G37*
G36*
X-6271498Y29991092D02*
G01*
X-6170743Y29981169D01*
X-5998383Y29928884D01*
X-5839529Y29843975D01*
X-5790167Y29803464D01*
X-5700293Y29729707D01*
X-5626536Y29639833D01*
X-5586025Y29590471D01*
X-5501116Y29431617D01*
X-5448831Y29259257D01*
X-5431176Y29080000D01*
X-5448831Y28900743D01*
X-5501116Y28728383D01*
X-5586025Y28569529D01*
X-5626536Y28520167D01*
X-5700293Y28430293D01*
X-5790167Y28356536D01*
X-5839529Y28316025D01*
X-5998383Y28231116D01*
X-6170743Y28178831D01*
X-6271498Y28168908D01*
X-6305082Y28165600D01*
X-6394918Y28165600D01*
X-6428502Y28168908D01*
X-6529257Y28178831D01*
X-6701617Y28231116D01*
X-6860471Y28316025D01*
X-6909833Y28356536D01*
X-6999707Y28430293D01*
X-7073464Y28520167D01*
X-7113975Y28569529D01*
X-7198884Y28728383D01*
X-7251169Y28900743D01*
X-7268824Y29080000D01*
X-7251169Y29259257D01*
X-7198884Y29431617D01*
X-7113975Y29590471D01*
X-7073464Y29639833D01*
X-6999707Y29729707D01*
X-6909833Y29803464D01*
X-6860471Y29843975D01*
X-6701617Y29928884D01*
X-6529257Y29981169D01*
X-6428502Y29991092D01*
X-6394918Y29994400D01*
X-6305082Y29994400D01*
X-6271498Y29991092D01*
X-6271498Y29991092D01*
G37*
G36*
X9804400Y30705600D02*
G01*
X7975600Y30705600D01*
X7975600Y32534400D01*
X9804400Y32534400D01*
X9804400Y30705600D01*
X9804400Y30705600D01*
G37*
G36*
X-6271498Y32531092D02*
G01*
X-6170743Y32521169D01*
X-5998383Y32468884D01*
X-5839529Y32383975D01*
X-5790167Y32343464D01*
X-5700293Y32269707D01*
X-5626536Y32179833D01*
X-5586025Y32130471D01*
X-5501116Y31971617D01*
X-5448831Y31799257D01*
X-5431176Y31620000D01*
X-5448831Y31440743D01*
X-5501116Y31268383D01*
X-5586025Y31109529D01*
X-5626536Y31060167D01*
X-5700293Y30970293D01*
X-5790167Y30896536D01*
X-5839529Y30856025D01*
X-5998383Y30771116D01*
X-6170743Y30718831D01*
X-6271498Y30708908D01*
X-6305082Y30705600D01*
X-6394918Y30705600D01*
X-6428502Y30708908D01*
X-6529257Y30718831D01*
X-6701617Y30771116D01*
X-6860471Y30856025D01*
X-6909833Y30896536D01*
X-6999707Y30970293D01*
X-7073464Y31060167D01*
X-7113975Y31109529D01*
X-7198884Y31268383D01*
X-7251169Y31440743D01*
X-7268824Y31620000D01*
X-7251169Y31799257D01*
X-7198884Y31971617D01*
X-7113975Y32130471D01*
X-7073464Y32179833D01*
X-6999707Y32269707D01*
X-6909833Y32343464D01*
X-6860471Y32383975D01*
X-6701617Y32468884D01*
X-6529257Y32521169D01*
X-6428502Y32531092D01*
X-6394918Y32534400D01*
X-6305082Y32534400D01*
X-6271498Y32531092D01*
X-6271498Y32531092D01*
G37*
G36*
X6428502Y32531092D02*
G01*
X6529257Y32521169D01*
X6701617Y32468884D01*
X6860471Y32383975D01*
X6909833Y32343464D01*
X6999707Y32269707D01*
X7073464Y32179833D01*
X7113975Y32130471D01*
X7198884Y31971617D01*
X7251169Y31799257D01*
X7268824Y31620000D01*
X7251169Y31440743D01*
X7198884Y31268383D01*
X7113975Y31109529D01*
X7073464Y31060167D01*
X6999707Y30970293D01*
X6909833Y30896536D01*
X6860471Y30856025D01*
X6701617Y30771116D01*
X6529257Y30718831D01*
X6428502Y30708908D01*
X6394918Y30705600D01*
X6305082Y30705600D01*
X6271498Y30708908D01*
X6170743Y30718831D01*
X5998383Y30771116D01*
X5839529Y30856025D01*
X5790167Y30896536D01*
X5700293Y30970293D01*
X5626536Y31060167D01*
X5586025Y31109529D01*
X5501116Y31268383D01*
X5448831Y31440743D01*
X5431176Y31620000D01*
X5448831Y31799257D01*
X5501116Y31971617D01*
X5586025Y32130471D01*
X5626536Y32179833D01*
X5700293Y32269707D01*
X5790167Y32343464D01*
X5839529Y32383975D01*
X5998383Y32468884D01*
X6170743Y32521169D01*
X6271498Y32531092D01*
X6305082Y32534400D01*
X6394918Y32534400D01*
X6428502Y32531092D01*
X6428502Y32531092D01*
G37*
G36*
X3888502Y32531092D02*
G01*
X3989257Y32521169D01*
X4161617Y32468884D01*
X4320471Y32383975D01*
X4369833Y32343464D01*
X4459707Y32269707D01*
X4533464Y32179833D01*
X4573975Y32130471D01*
X4658884Y31971617D01*
X4711169Y31799257D01*
X4728824Y31620000D01*
X4711169Y31440743D01*
X4658884Y31268383D01*
X4573975Y31109529D01*
X4533464Y31060167D01*
X4459707Y30970293D01*
X4369833Y30896536D01*
X4320471Y30856025D01*
X4161617Y30771116D01*
X3989257Y30718831D01*
X3888502Y30708908D01*
X3854918Y30705600D01*
X3765082Y30705600D01*
X3731498Y30708908D01*
X3630743Y30718831D01*
X3458383Y30771116D01*
X3299529Y30856025D01*
X3250167Y30896536D01*
X3160293Y30970293D01*
X3086536Y31060167D01*
X3046025Y31109529D01*
X2961116Y31268383D01*
X2908831Y31440743D01*
X2891176Y31620000D01*
X2908831Y31799257D01*
X2961116Y31971617D01*
X3046025Y32130471D01*
X3086536Y32179833D01*
X3160293Y32269707D01*
X3250167Y32343464D01*
X3299529Y32383975D01*
X3458383Y32468884D01*
X3630743Y32521169D01*
X3731498Y32531092D01*
X3765082Y32534400D01*
X3854918Y32534400D01*
X3888502Y32531092D01*
X3888502Y32531092D01*
G37*
G36*
X1348502Y32531092D02*
G01*
X1449257Y32521169D01*
X1621617Y32468884D01*
X1780471Y32383975D01*
X1829833Y32343464D01*
X1919707Y32269707D01*
X1993464Y32179833D01*
X2033975Y32130471D01*
X2118884Y31971617D01*
X2171169Y31799257D01*
X2188824Y31620000D01*
X2171169Y31440743D01*
X2118884Y31268383D01*
X2033975Y31109529D01*
X1993464Y31060167D01*
X1919707Y30970293D01*
X1829833Y30896536D01*
X1780471Y30856025D01*
X1621617Y30771116D01*
X1449257Y30718831D01*
X1348502Y30708908D01*
X1314918Y30705600D01*
X1225082Y30705600D01*
X1191498Y30708908D01*
X1090743Y30718831D01*
X918383Y30771116D01*
X759529Y30856025D01*
X710167Y30896536D01*
X620293Y30970293D01*
X546536Y31060167D01*
X506025Y31109529D01*
X421116Y31268383D01*
X368831Y31440743D01*
X351176Y31620000D01*
X368831Y31799257D01*
X421116Y31971617D01*
X506025Y32130471D01*
X546536Y32179833D01*
X620293Y32269707D01*
X710167Y32343464D01*
X759529Y32383975D01*
X918383Y32468884D01*
X1090743Y32521169D01*
X1191498Y32531092D01*
X1225082Y32534400D01*
X1314918Y32534400D01*
X1348502Y32531092D01*
X1348502Y32531092D01*
G37*
G36*
X-1191498Y32531092D02*
G01*
X-1090743Y32521169D01*
X-918383Y32468884D01*
X-759529Y32383975D01*
X-710167Y32343464D01*
X-620293Y32269707D01*
X-546536Y32179833D01*
X-506025Y32130471D01*
X-421116Y31971617D01*
X-368831Y31799257D01*
X-351176Y31620000D01*
X-368831Y31440743D01*
X-421116Y31268383D01*
X-506025Y31109529D01*
X-546536Y31060167D01*
X-620293Y30970293D01*
X-710167Y30896536D01*
X-759529Y30856025D01*
X-918383Y30771116D01*
X-1090743Y30718831D01*
X-1191498Y30708908D01*
X-1225082Y30705600D01*
X-1314918Y30705600D01*
X-1348502Y30708908D01*
X-1449257Y30718831D01*
X-1621617Y30771116D01*
X-1780471Y30856025D01*
X-1829833Y30896536D01*
X-1919707Y30970293D01*
X-1993464Y31060167D01*
X-2033975Y31109529D01*
X-2118884Y31268383D01*
X-2171169Y31440743D01*
X-2188824Y31620000D01*
X-2171169Y31799257D01*
X-2118884Y31971617D01*
X-2033975Y32130471D01*
X-1993464Y32179833D01*
X-1919707Y32269707D01*
X-1829833Y32343464D01*
X-1780471Y32383975D01*
X-1621617Y32468884D01*
X-1449257Y32521169D01*
X-1348502Y32531092D01*
X-1314918Y32534400D01*
X-1225082Y32534400D01*
X-1191498Y32531092D01*
X-1191498Y32531092D01*
G37*
G36*
X-3731498Y32531092D02*
G01*
X-3630743Y32521169D01*
X-3458383Y32468884D01*
X-3299529Y32383975D01*
X-3250167Y32343464D01*
X-3160293Y32269707D01*
X-3086536Y32179833D01*
X-3046025Y32130471D01*
X-2961116Y31971617D01*
X-2908831Y31799257D01*
X-2891176Y31620000D01*
X-2908831Y31440743D01*
X-2961116Y31268383D01*
X-3046025Y31109529D01*
X-3086536Y31060167D01*
X-3160293Y30970293D01*
X-3250167Y30896536D01*
X-3299529Y30856025D01*
X-3458383Y30771116D01*
X-3630743Y30718831D01*
X-3731498Y30708908D01*
X-3765082Y30705600D01*
X-3854918Y30705600D01*
X-3888502Y30708908D01*
X-3989257Y30718831D01*
X-4161617Y30771116D01*
X-4320471Y30856025D01*
X-4369833Y30896536D01*
X-4459707Y30970293D01*
X-4533464Y31060167D01*
X-4573975Y31109529D01*
X-4658884Y31268383D01*
X-4711169Y31440743D01*
X-4728824Y31620000D01*
X-4711169Y31799257D01*
X-4658884Y31971617D01*
X-4573975Y32130471D01*
X-4533464Y32179833D01*
X-4459707Y32269707D01*
X-4369833Y32343464D01*
X-4320471Y32383975D01*
X-4161617Y32468884D01*
X-3989257Y32521169D01*
X-3888502Y32531092D01*
X-3854918Y32534400D01*
X-3765082Y32534400D01*
X-3731498Y32531092D01*
X-3731498Y32531092D01*
G37*
G36*
X-8811498Y32531092D02*
G01*
X-8710743Y32521169D01*
X-8538383Y32468884D01*
X-8379529Y32383975D01*
X-8330167Y32343464D01*
X-8240293Y32269707D01*
X-8166536Y32179833D01*
X-8126025Y32130471D01*
X-8041116Y31971617D01*
X-7988831Y31799257D01*
X-7971176Y31620000D01*
X-7988831Y31440743D01*
X-8041116Y31268383D01*
X-8126025Y31109529D01*
X-8166536Y31060167D01*
X-8240293Y30970293D01*
X-8330167Y30896536D01*
X-8379529Y30856025D01*
X-8538383Y30771116D01*
X-8710743Y30718831D01*
X-8811498Y30708908D01*
X-8845082Y30705600D01*
X-8934918Y30705600D01*
X-8968502Y30708908D01*
X-9069257Y30718831D01*
X-9241617Y30771116D01*
X-9400471Y30856025D01*
X-9449833Y30896536D01*
X-9539707Y30970293D01*
X-9613464Y31060167D01*
X-9653975Y31109529D01*
X-9738884Y31268383D01*
X-9791169Y31440743D01*
X-9808824Y31620000D01*
X-9791169Y31799257D01*
X-9738884Y31971617D01*
X-9653975Y32130471D01*
X-9613464Y32179833D01*
X-9539707Y32269707D01*
X-9449833Y32343464D01*
X-9400471Y32383975D01*
X-9241617Y32468884D01*
X-9069257Y32521169D01*
X-8968502Y32531092D01*
X-8934918Y32534400D01*
X-8845082Y32534400D01*
X-8811498Y32531092D01*
X-8811498Y32531092D01*
G37*
G36*
X-8051777Y47625873D02*
G01*
X-7721802Y47489193D01*
X-7460165Y47380820D01*
X-6927738Y47025063D01*
X-6474937Y46572262D01*
X-6119180Y46039835D01*
X-6010807Y45778198D01*
X-5874127Y45448223D01*
X-5749200Y44820176D01*
X-5749200Y44179824D01*
X-5874127Y43551777D01*
X-6010807Y43221802D01*
X-6119180Y42960165D01*
X-6474937Y42427738D01*
X-6927738Y41974937D01*
X-7460165Y41619180D01*
X-7721802Y41510807D01*
X-8051777Y41374127D01*
X-8679824Y41249200D01*
X-9320176Y41249200D01*
X-9948223Y41374127D01*
X-10278198Y41510807D01*
X-10539835Y41619180D01*
X-11072262Y41974937D01*
X-11525063Y42427738D01*
X-11880820Y42960165D01*
X-11989193Y43221802D01*
X-12125873Y43551777D01*
X-12250800Y44179824D01*
X-12250800Y44820176D01*
X-12125873Y45448223D01*
X-11989193Y45778198D01*
X-11880820Y46039835D01*
X-11525063Y46572262D01*
X-11072262Y47025063D01*
X-10539835Y47380820D01*
X-10278198Y47489193D01*
X-9948223Y47625873D01*
X-9320176Y47750800D01*
X-8679824Y47750800D01*
X-8051777Y47625873D01*
X-8051777Y47625873D01*
G37*
G36*
X9948223Y47625873D02*
G01*
X10278198Y47489193D01*
X10539835Y47380820D01*
X11072262Y47025063D01*
X11525063Y46572262D01*
X11880820Y46039835D01*
X11989193Y45778198D01*
X12125873Y45448223D01*
X12250800Y44820176D01*
X12250800Y44179824D01*
X12125873Y43551777D01*
X11989193Y43221802D01*
X11880820Y42960165D01*
X11525063Y42427738D01*
X11072262Y41974937D01*
X10539835Y41619180D01*
X10278198Y41510807D01*
X9948223Y41374127D01*
X9320176Y41249200D01*
X8679824Y41249200D01*
X8051777Y41374127D01*
X7721802Y41510807D01*
X7460165Y41619180D01*
X6927738Y41974937D01*
X6474937Y42427738D01*
X6119180Y42960165D01*
X6010807Y43221802D01*
X5874127Y43551777D01*
X5749200Y44179824D01*
X5749200Y44820176D01*
X5874127Y45448223D01*
X6010807Y45778198D01*
X6119180Y46039835D01*
X6474937Y46572262D01*
X6927738Y47025063D01*
X7460165Y47380820D01*
X7721802Y47489193D01*
X8051777Y47625873D01*
X8679824Y47750800D01*
X9320176Y47750800D01*
X9948223Y47625873D01*
X9948223Y47625873D01*
G37*
M02*
