G04 #@! TF.GenerationSoftware,KiCad,Pcbnew,(5.1.4)-1*
G04 #@! TF.CreationDate,2020-03-27T15:16:42-04:00*
G04 #@! TF.ProjectId,extruder_breakout,65787472-7564-4657-925f-627265616b6f,rev?*
G04 #@! TF.SameCoordinates,PX8f0d180PY5f5e100*
G04 #@! TF.FileFunction,Legend,Top*
G04 #@! TF.FilePolarity,Positive*
%FSLAX46Y46*%
G04 Gerber Fmt 4.6, Leading zero omitted, Abs format (unit mm)*
G04 Created by KiCad (PCBNEW (5.1.4)-1) date 2020-03-27 15:16:42*
%MOMM*%
%LPD*%
G04 APERTURE LIST*
%ADD10C,0.254000*%
%ADD11C,0.381000*%
%ADD12C,0.120000*%
%ADD13C,0.150000*%
%ADD14C,6.501600*%
%ADD15C,4.101600*%
%ADD16R,3.901600X3.901600*%
%ADD17C,0.100000*%
%ADD18C,1.051600*%
%ADD19O,2.101600X1.801600*%
%ADD20C,1.801600*%
%ADD21O,1.801600X2.051600*%
%ADD22C,2.201600*%
%ADD23R,2.201600X2.201600*%
%ADD24O,1.828800X1.828800*%
%ADD25R,1.828800X1.828800*%
G04 APERTURE END LIST*
D10*
X12065000Y31750000D02*
G75*
G03X12065000Y31750000I-635000J0D01*
G01*
X3634619Y1251858D02*
X2618619Y1251858D01*
X2618619Y1638905D01*
X2667000Y1735667D01*
X2715380Y1784048D01*
X2812142Y1832429D01*
X2957285Y1832429D01*
X3054047Y1784048D01*
X3102428Y1735667D01*
X3150809Y1638905D01*
X3150809Y1251858D01*
X3102428Y2606524D02*
X3102428Y2267858D01*
X3634619Y2267858D02*
X2618619Y2267858D01*
X2618619Y2751667D01*
X3344333Y3090334D02*
X3344333Y3574143D01*
X3634619Y2993572D02*
X2618619Y3332239D01*
X3634619Y3670905D01*
X3634619Y4009572D02*
X2618619Y4009572D01*
X3634619Y4590143D01*
X2618619Y4590143D01*
X-1953381Y1100667D02*
X-2969381Y1100667D01*
X-2485572Y1100667D02*
X-2485572Y1681239D01*
X-1953381Y1681239D02*
X-2969381Y1681239D01*
X-2485572Y2503715D02*
X-2485572Y2165048D01*
X-1953381Y2165048D02*
X-2969381Y2165048D01*
X-2969381Y2648858D01*
X-2243667Y2987524D02*
X-2243667Y3471334D01*
X-1953381Y2890762D02*
X-2969381Y3229429D01*
X-1953381Y3568096D01*
X-1953381Y3906762D02*
X-2969381Y3906762D01*
X-1953381Y4487334D01*
X-2969381Y4487334D01*
X-7922381Y1348620D02*
X-8938381Y1348620D01*
X-8454572Y1348620D02*
X-8454572Y1929191D01*
X-7922381Y1929191D02*
X-8938381Y1929191D01*
X-8454572Y2413000D02*
X-8454572Y2751667D01*
X-7922381Y2896810D02*
X-7922381Y2413000D01*
X-8938381Y2413000D01*
X-8938381Y2896810D01*
X-8212667Y3283858D02*
X-8212667Y3767667D01*
X-7922381Y3187096D02*
X-8938381Y3525762D01*
X-7922381Y3864429D01*
X-8938381Y4057953D02*
X-8938381Y4638524D01*
X-7922381Y4348239D02*
X-8938381Y4348239D01*
D11*
X-9779000Y21717000D02*
X10033000Y21717000D01*
X-6223000Y13970000D02*
X13589000Y13970000D01*
X-635000Y21717000D02*
X-635000Y13970000D01*
X-10740572Y22551572D02*
X-11466286Y22551572D01*
X-11466286Y24075572D01*
X-10232572Y22551572D02*
X-10232572Y24075572D01*
X-9506858Y22551572D02*
X-9506858Y24075572D01*
X-8998858Y22987000D01*
X-8490858Y24075572D01*
X-8490858Y22551572D01*
X-6604000Y23132143D02*
X-5442858Y23132143D01*
X-3556000Y22551572D02*
X-3556000Y24075572D01*
X-3556000Y23349858D02*
X-2685143Y23349858D01*
X-2685143Y22551572D02*
X-2685143Y24075572D01*
X-1451429Y23349858D02*
X-1959429Y23349858D01*
X-1959429Y22551572D02*
X-1959429Y24075572D01*
X-1233715Y24075572D01*
X-725715Y22987000D02*
X0Y22987000D01*
X-870858Y22551572D02*
X-362858Y24075572D01*
X145142Y22551572D01*
X653142Y22551572D02*
X653142Y24075572D01*
X1524000Y22551572D01*
X1524000Y24075572D01*
X3410857Y23132143D02*
X4572000Y23132143D01*
X6458857Y22551572D02*
X6458857Y24075572D01*
X7039428Y24075572D01*
X7184571Y24003000D01*
X7257142Y23930429D01*
X7329714Y23785286D01*
X7329714Y23567572D01*
X7257142Y23422429D01*
X7184571Y23349858D01*
X7039428Y23277286D01*
X6458857Y23277286D01*
X8490857Y23349858D02*
X7982857Y23349858D01*
X7982857Y22551572D02*
X7982857Y24075572D01*
X8708571Y24075572D01*
X9216571Y22987000D02*
X9942285Y22987000D01*
X9071428Y22551572D02*
X9579428Y24075572D01*
X10087428Y22551572D01*
X10595428Y22551572D02*
X10595428Y24075572D01*
X11466285Y22551572D01*
X11466285Y24075572D01*
D12*
X-3005000Y16370000D02*
X-3005000Y19190000D01*
X-3005000Y19190000D02*
X-4705000Y20490000D01*
X-3005000Y16370000D02*
X-4705000Y15070000D01*
X-4705000Y20490000D02*
X-13425000Y20490000D01*
X-13425000Y15070000D02*
X-13425000Y20490000D01*
X-4705000Y15070000D02*
X-13425000Y15070000D01*
X-5886267Y1395000D02*
X-5543733Y1395000D01*
X-5886267Y2415000D02*
X-5543733Y2415000D01*
X5543733Y1395000D02*
X5886267Y1395000D01*
X5543733Y2415000D02*
X5886267Y2415000D01*
X-171267Y1395000D02*
X171267Y1395000D01*
X-171267Y2415000D02*
X171267Y2415000D01*
X425000Y5405000D02*
X1675000Y5405000D01*
X425000Y6655000D02*
X425000Y5405000D01*
X5925000Y12555000D02*
X5925000Y9505000D01*
X2975000Y12555000D02*
X5925000Y12555000D01*
X2975000Y13305000D02*
X2975000Y12555000D01*
X5925000Y6455000D02*
X5925000Y9505000D01*
X2975000Y6455000D02*
X5925000Y6455000D01*
X2975000Y5705000D02*
X2975000Y6455000D01*
X725000Y13305000D02*
X725000Y11505000D01*
X1475000Y13305000D02*
X725000Y13305000D01*
X1475000Y11505000D02*
X1475000Y13305000D01*
X725000Y11505000D02*
X1475000Y11505000D01*
X725000Y7505000D02*
X725000Y5705000D01*
X1475000Y7505000D02*
X725000Y7505000D01*
X1475000Y5705000D02*
X1475000Y7505000D01*
X725000Y5705000D02*
X1475000Y5705000D01*
X725000Y10005000D02*
X725000Y9005000D01*
X1475000Y10005000D02*
X725000Y10005000D01*
X1475000Y9005000D02*
X1475000Y10005000D01*
X725000Y9005000D02*
X1475000Y9005000D01*
X715000Y13315000D02*
X715000Y5695000D01*
X6685000Y13315000D02*
X715000Y13315000D01*
X6685000Y5695000D02*
X6685000Y13315000D01*
X715000Y5695000D02*
X6685000Y5695000D01*
X7410000Y5405000D02*
X8660000Y5405000D01*
X7410000Y6655000D02*
X7410000Y5405000D01*
X12910000Y12555000D02*
X12910000Y9505000D01*
X9960000Y12555000D02*
X12910000Y12555000D01*
X9960000Y13305000D02*
X9960000Y12555000D01*
X12910000Y6455000D02*
X12910000Y9505000D01*
X9960000Y6455000D02*
X12910000Y6455000D01*
X9960000Y5705000D02*
X9960000Y6455000D01*
X7710000Y13305000D02*
X7710000Y11505000D01*
X8460000Y13305000D02*
X7710000Y13305000D01*
X8460000Y11505000D02*
X8460000Y13305000D01*
X7710000Y11505000D02*
X8460000Y11505000D01*
X7710000Y7505000D02*
X7710000Y5705000D01*
X8460000Y7505000D02*
X7710000Y7505000D01*
X8460000Y5705000D02*
X8460000Y7505000D01*
X7710000Y5705000D02*
X8460000Y5705000D01*
X7710000Y10005000D02*
X7710000Y9005000D01*
X8460000Y10005000D02*
X7710000Y10005000D01*
X8460000Y9005000D02*
X8460000Y10005000D01*
X7710000Y9005000D02*
X8460000Y9005000D01*
X7700000Y13315000D02*
X7700000Y5695000D01*
X13670000Y13315000D02*
X7700000Y13315000D01*
X13670000Y5695000D02*
X13670000Y13315000D01*
X7700000Y5695000D02*
X13670000Y5695000D01*
X-6560000Y5405000D02*
X-5310000Y5405000D01*
X-6560000Y6655000D02*
X-6560000Y5405000D01*
X-1060000Y12555000D02*
X-1060000Y9505000D01*
X-4010000Y12555000D02*
X-1060000Y12555000D01*
X-4010000Y13305000D02*
X-4010000Y12555000D01*
X-1060000Y6455000D02*
X-1060000Y9505000D01*
X-4010000Y6455000D02*
X-1060000Y6455000D01*
X-4010000Y5705000D02*
X-4010000Y6455000D01*
X-6260000Y13305000D02*
X-6260000Y11505000D01*
X-5510000Y13305000D02*
X-6260000Y13305000D01*
X-5510000Y11505000D02*
X-5510000Y13305000D01*
X-6260000Y11505000D02*
X-5510000Y11505000D01*
X-6260000Y7505000D02*
X-6260000Y5705000D01*
X-5510000Y7505000D02*
X-6260000Y7505000D01*
X-5510000Y5705000D02*
X-5510000Y7505000D01*
X-6260000Y5705000D02*
X-5510000Y5705000D01*
X-6260000Y10005000D02*
X-6260000Y9005000D01*
X-5510000Y10005000D02*
X-6260000Y10005000D01*
X-5510000Y9005000D02*
X-5510000Y10005000D01*
X-6260000Y9005000D02*
X-5510000Y9005000D01*
X-6270000Y13315000D02*
X-6270000Y5695000D01*
X-300000Y13315000D02*
X-6270000Y13315000D01*
X-300000Y5695000D02*
X-300000Y13315000D01*
X-6270000Y5695000D02*
X-300000Y5695000D01*
X13645000Y14395000D02*
X13645000Y15645000D01*
X12395000Y14395000D02*
X13645000Y14395000D01*
X1495000Y19895000D02*
X7045000Y19895000D01*
X1495000Y16945000D02*
X1495000Y19895000D01*
X745000Y16945000D02*
X1495000Y16945000D01*
X12595000Y19895000D02*
X7045000Y19895000D01*
X12595000Y16945000D02*
X12595000Y19895000D01*
X13345000Y16945000D02*
X12595000Y16945000D01*
X745000Y14695000D02*
X2545000Y14695000D01*
X745000Y15445000D02*
X745000Y14695000D01*
X2545000Y15445000D02*
X745000Y15445000D01*
X2545000Y14695000D02*
X2545000Y15445000D01*
X11545000Y14695000D02*
X13345000Y14695000D01*
X11545000Y15445000D02*
X11545000Y14695000D01*
X13345000Y15445000D02*
X11545000Y15445000D01*
X13345000Y14695000D02*
X13345000Y15445000D01*
X4045000Y14695000D02*
X10045000Y14695000D01*
X4045000Y15445000D02*
X4045000Y14695000D01*
X10045000Y15445000D02*
X4045000Y15445000D01*
X10045000Y14695000D02*
X10045000Y15445000D01*
X735000Y14685000D02*
X13355000Y14685000D01*
X735000Y20655000D02*
X735000Y14685000D01*
X13355000Y20655000D02*
X735000Y20655000D01*
X13355000Y14685000D02*
X13355000Y20655000D01*
X-14405000Y12655000D02*
X-14405000Y12255000D01*
X-13765000Y12655000D02*
X-14405000Y12655000D01*
X-7425000Y6635000D02*
X-14165000Y6635000D01*
X-7425000Y12415000D02*
X-14165000Y12415000D01*
X-14165000Y12415000D02*
X-14165000Y6635000D01*
X-7425000Y12415000D02*
X-7425000Y6635000D01*
X-8545000Y12415000D02*
X-8545000Y6635000D01*
X-13645000Y12415000D02*
X-13645000Y6635000D01*
X14490000Y35275000D02*
X14490000Y32735000D01*
X14490000Y35275000D02*
X11950000Y35275000D01*
X14240000Y35025000D02*
X14240000Y25675000D01*
X-14240000Y35025000D02*
X14240000Y35025000D01*
X-14240000Y25675000D02*
X-14240000Y35025000D01*
X14240000Y25675000D02*
X-14240000Y25675000D01*
X-4055000Y4545000D02*
X-6515000Y4545000D01*
X-4055000Y3075000D02*
X-4055000Y4545000D01*
X-6515000Y3075000D02*
X-4055000Y3075000D01*
X7375000Y4545000D02*
X4915000Y4545000D01*
X7375000Y3075000D02*
X7375000Y4545000D01*
X4915000Y3075000D02*
X7375000Y3075000D01*
X1660000Y4545000D02*
X-800000Y4545000D01*
X1660000Y3075000D02*
X1660000Y4545000D01*
X-800000Y3075000D02*
X1660000Y3075000D01*
D13*
X-2286429Y17672858D02*
X-1143572Y17672858D01*
X-15286429Y17672858D02*
X-14143572Y17672858D01*
X-14715000Y17101429D02*
X-14715000Y18244286D01*
%LPC*%
D14*
X9000000Y44500000D03*
X-9000000Y44500000D03*
D15*
X-10715000Y17780000D03*
D16*
X-5715000Y17780000D03*
D17*
G36*
X-4501331Y2429534D02*
G01*
X-4475811Y2425748D01*
X-4450784Y2419480D01*
X-4426493Y2410788D01*
X-4403170Y2399757D01*
X-4381041Y2386493D01*
X-4360318Y2371124D01*
X-4341202Y2353798D01*
X-4323876Y2334682D01*
X-4308507Y2313959D01*
X-4295243Y2291830D01*
X-4284212Y2268507D01*
X-4275520Y2244216D01*
X-4269252Y2219189D01*
X-4265466Y2193669D01*
X-4264200Y2167900D01*
X-4264200Y1642100D01*
X-4265466Y1616331D01*
X-4269252Y1590811D01*
X-4275520Y1565784D01*
X-4284212Y1541493D01*
X-4295243Y1518170D01*
X-4308507Y1496041D01*
X-4323876Y1475318D01*
X-4341202Y1456202D01*
X-4360318Y1438876D01*
X-4381041Y1423507D01*
X-4403170Y1410243D01*
X-4426493Y1399212D01*
X-4450784Y1390520D01*
X-4475811Y1384252D01*
X-4501331Y1380466D01*
X-4527100Y1379200D01*
X-5152900Y1379200D01*
X-5178669Y1380466D01*
X-5204189Y1384252D01*
X-5229216Y1390520D01*
X-5253507Y1399212D01*
X-5276830Y1410243D01*
X-5298959Y1423507D01*
X-5319682Y1438876D01*
X-5338798Y1456202D01*
X-5356124Y1475318D01*
X-5371493Y1496041D01*
X-5384757Y1518170D01*
X-5395788Y1541493D01*
X-5404480Y1565784D01*
X-5410748Y1590811D01*
X-5414534Y1616331D01*
X-5415800Y1642100D01*
X-5415800Y2167900D01*
X-5414534Y2193669D01*
X-5410748Y2219189D01*
X-5404480Y2244216D01*
X-5395788Y2268507D01*
X-5384757Y2291830D01*
X-5371493Y2313959D01*
X-5356124Y2334682D01*
X-5338798Y2353798D01*
X-5319682Y2371124D01*
X-5298959Y2386493D01*
X-5276830Y2399757D01*
X-5253507Y2410788D01*
X-5229216Y2419480D01*
X-5204189Y2425748D01*
X-5178669Y2429534D01*
X-5152900Y2430800D01*
X-4527100Y2430800D01*
X-4501331Y2429534D01*
X-4501331Y2429534D01*
G37*
D18*
X-4840000Y1905000D03*
D17*
G36*
X-6251331Y2429534D02*
G01*
X-6225811Y2425748D01*
X-6200784Y2419480D01*
X-6176493Y2410788D01*
X-6153170Y2399757D01*
X-6131041Y2386493D01*
X-6110318Y2371124D01*
X-6091202Y2353798D01*
X-6073876Y2334682D01*
X-6058507Y2313959D01*
X-6045243Y2291830D01*
X-6034212Y2268507D01*
X-6025520Y2244216D01*
X-6019252Y2219189D01*
X-6015466Y2193669D01*
X-6014200Y2167900D01*
X-6014200Y1642100D01*
X-6015466Y1616331D01*
X-6019252Y1590811D01*
X-6025520Y1565784D01*
X-6034212Y1541493D01*
X-6045243Y1518170D01*
X-6058507Y1496041D01*
X-6073876Y1475318D01*
X-6091202Y1456202D01*
X-6110318Y1438876D01*
X-6131041Y1423507D01*
X-6153170Y1410243D01*
X-6176493Y1399212D01*
X-6200784Y1390520D01*
X-6225811Y1384252D01*
X-6251331Y1380466D01*
X-6277100Y1379200D01*
X-6902900Y1379200D01*
X-6928669Y1380466D01*
X-6954189Y1384252D01*
X-6979216Y1390520D01*
X-7003507Y1399212D01*
X-7026830Y1410243D01*
X-7048959Y1423507D01*
X-7069682Y1438876D01*
X-7088798Y1456202D01*
X-7106124Y1475318D01*
X-7121493Y1496041D01*
X-7134757Y1518170D01*
X-7145788Y1541493D01*
X-7154480Y1565784D01*
X-7160748Y1590811D01*
X-7164534Y1616331D01*
X-7165800Y1642100D01*
X-7165800Y2167900D01*
X-7164534Y2193669D01*
X-7160748Y2219189D01*
X-7154480Y2244216D01*
X-7145788Y2268507D01*
X-7134757Y2291830D01*
X-7121493Y2313959D01*
X-7106124Y2334682D01*
X-7088798Y2353798D01*
X-7069682Y2371124D01*
X-7048959Y2386493D01*
X-7026830Y2399757D01*
X-7003507Y2410788D01*
X-6979216Y2419480D01*
X-6954189Y2425748D01*
X-6928669Y2429534D01*
X-6902900Y2430800D01*
X-6277100Y2430800D01*
X-6251331Y2429534D01*
X-6251331Y2429534D01*
G37*
D18*
X-6590000Y1905000D03*
D17*
G36*
X6928669Y2429534D02*
G01*
X6954189Y2425748D01*
X6979216Y2419480D01*
X7003507Y2410788D01*
X7026830Y2399757D01*
X7048959Y2386493D01*
X7069682Y2371124D01*
X7088798Y2353798D01*
X7106124Y2334682D01*
X7121493Y2313959D01*
X7134757Y2291830D01*
X7145788Y2268507D01*
X7154480Y2244216D01*
X7160748Y2219189D01*
X7164534Y2193669D01*
X7165800Y2167900D01*
X7165800Y1642100D01*
X7164534Y1616331D01*
X7160748Y1590811D01*
X7154480Y1565784D01*
X7145788Y1541493D01*
X7134757Y1518170D01*
X7121493Y1496041D01*
X7106124Y1475318D01*
X7088798Y1456202D01*
X7069682Y1438876D01*
X7048959Y1423507D01*
X7026830Y1410243D01*
X7003507Y1399212D01*
X6979216Y1390520D01*
X6954189Y1384252D01*
X6928669Y1380466D01*
X6902900Y1379200D01*
X6277100Y1379200D01*
X6251331Y1380466D01*
X6225811Y1384252D01*
X6200784Y1390520D01*
X6176493Y1399212D01*
X6153170Y1410243D01*
X6131041Y1423507D01*
X6110318Y1438876D01*
X6091202Y1456202D01*
X6073876Y1475318D01*
X6058507Y1496041D01*
X6045243Y1518170D01*
X6034212Y1541493D01*
X6025520Y1565784D01*
X6019252Y1590811D01*
X6015466Y1616331D01*
X6014200Y1642100D01*
X6014200Y2167900D01*
X6015466Y2193669D01*
X6019252Y2219189D01*
X6025520Y2244216D01*
X6034212Y2268507D01*
X6045243Y2291830D01*
X6058507Y2313959D01*
X6073876Y2334682D01*
X6091202Y2353798D01*
X6110318Y2371124D01*
X6131041Y2386493D01*
X6153170Y2399757D01*
X6176493Y2410788D01*
X6200784Y2419480D01*
X6225811Y2425748D01*
X6251331Y2429534D01*
X6277100Y2430800D01*
X6902900Y2430800D01*
X6928669Y2429534D01*
X6928669Y2429534D01*
G37*
D18*
X6590000Y1905000D03*
D17*
G36*
X5178669Y2429534D02*
G01*
X5204189Y2425748D01*
X5229216Y2419480D01*
X5253507Y2410788D01*
X5276830Y2399757D01*
X5298959Y2386493D01*
X5319682Y2371124D01*
X5338798Y2353798D01*
X5356124Y2334682D01*
X5371493Y2313959D01*
X5384757Y2291830D01*
X5395788Y2268507D01*
X5404480Y2244216D01*
X5410748Y2219189D01*
X5414534Y2193669D01*
X5415800Y2167900D01*
X5415800Y1642100D01*
X5414534Y1616331D01*
X5410748Y1590811D01*
X5404480Y1565784D01*
X5395788Y1541493D01*
X5384757Y1518170D01*
X5371493Y1496041D01*
X5356124Y1475318D01*
X5338798Y1456202D01*
X5319682Y1438876D01*
X5298959Y1423507D01*
X5276830Y1410243D01*
X5253507Y1399212D01*
X5229216Y1390520D01*
X5204189Y1384252D01*
X5178669Y1380466D01*
X5152900Y1379200D01*
X4527100Y1379200D01*
X4501331Y1380466D01*
X4475811Y1384252D01*
X4450784Y1390520D01*
X4426493Y1399212D01*
X4403170Y1410243D01*
X4381041Y1423507D01*
X4360318Y1438876D01*
X4341202Y1456202D01*
X4323876Y1475318D01*
X4308507Y1496041D01*
X4295243Y1518170D01*
X4284212Y1541493D01*
X4275520Y1565784D01*
X4269252Y1590811D01*
X4265466Y1616331D01*
X4264200Y1642100D01*
X4264200Y2167900D01*
X4265466Y2193669D01*
X4269252Y2219189D01*
X4275520Y2244216D01*
X4284212Y2268507D01*
X4295243Y2291830D01*
X4308507Y2313959D01*
X4323876Y2334682D01*
X4341202Y2353798D01*
X4360318Y2371124D01*
X4381041Y2386493D01*
X4403170Y2399757D01*
X4426493Y2410788D01*
X4450784Y2419480D01*
X4475811Y2425748D01*
X4501331Y2429534D01*
X4527100Y2430800D01*
X5152900Y2430800D01*
X5178669Y2429534D01*
X5178669Y2429534D01*
G37*
D18*
X4840000Y1905000D03*
D17*
G36*
X1213669Y2429534D02*
G01*
X1239189Y2425748D01*
X1264216Y2419480D01*
X1288507Y2410788D01*
X1311830Y2399757D01*
X1333959Y2386493D01*
X1354682Y2371124D01*
X1373798Y2353798D01*
X1391124Y2334682D01*
X1406493Y2313959D01*
X1419757Y2291830D01*
X1430788Y2268507D01*
X1439480Y2244216D01*
X1445748Y2219189D01*
X1449534Y2193669D01*
X1450800Y2167900D01*
X1450800Y1642100D01*
X1449534Y1616331D01*
X1445748Y1590811D01*
X1439480Y1565784D01*
X1430788Y1541493D01*
X1419757Y1518170D01*
X1406493Y1496041D01*
X1391124Y1475318D01*
X1373798Y1456202D01*
X1354682Y1438876D01*
X1333959Y1423507D01*
X1311830Y1410243D01*
X1288507Y1399212D01*
X1264216Y1390520D01*
X1239189Y1384252D01*
X1213669Y1380466D01*
X1187900Y1379200D01*
X562100Y1379200D01*
X536331Y1380466D01*
X510811Y1384252D01*
X485784Y1390520D01*
X461493Y1399212D01*
X438170Y1410243D01*
X416041Y1423507D01*
X395318Y1438876D01*
X376202Y1456202D01*
X358876Y1475318D01*
X343507Y1496041D01*
X330243Y1518170D01*
X319212Y1541493D01*
X310520Y1565784D01*
X304252Y1590811D01*
X300466Y1616331D01*
X299200Y1642100D01*
X299200Y2167900D01*
X300466Y2193669D01*
X304252Y2219189D01*
X310520Y2244216D01*
X319212Y2268507D01*
X330243Y2291830D01*
X343507Y2313959D01*
X358876Y2334682D01*
X376202Y2353798D01*
X395318Y2371124D01*
X416041Y2386493D01*
X438170Y2399757D01*
X461493Y2410788D01*
X485784Y2419480D01*
X510811Y2425748D01*
X536331Y2429534D01*
X562100Y2430800D01*
X1187900Y2430800D01*
X1213669Y2429534D01*
X1213669Y2429534D01*
G37*
D18*
X875000Y1905000D03*
D17*
G36*
X-536331Y2429534D02*
G01*
X-510811Y2425748D01*
X-485784Y2419480D01*
X-461493Y2410788D01*
X-438170Y2399757D01*
X-416041Y2386493D01*
X-395318Y2371124D01*
X-376202Y2353798D01*
X-358876Y2334682D01*
X-343507Y2313959D01*
X-330243Y2291830D01*
X-319212Y2268507D01*
X-310520Y2244216D01*
X-304252Y2219189D01*
X-300466Y2193669D01*
X-299200Y2167900D01*
X-299200Y1642100D01*
X-300466Y1616331D01*
X-304252Y1590811D01*
X-310520Y1565784D01*
X-319212Y1541493D01*
X-330243Y1518170D01*
X-343507Y1496041D01*
X-358876Y1475318D01*
X-376202Y1456202D01*
X-395318Y1438876D01*
X-416041Y1423507D01*
X-438170Y1410243D01*
X-461493Y1399212D01*
X-485784Y1390520D01*
X-510811Y1384252D01*
X-536331Y1380466D01*
X-562100Y1379200D01*
X-1187900Y1379200D01*
X-1213669Y1380466D01*
X-1239189Y1384252D01*
X-1264216Y1390520D01*
X-1288507Y1399212D01*
X-1311830Y1410243D01*
X-1333959Y1423507D01*
X-1354682Y1438876D01*
X-1373798Y1456202D01*
X-1391124Y1475318D01*
X-1406493Y1496041D01*
X-1419757Y1518170D01*
X-1430788Y1541493D01*
X-1439480Y1565784D01*
X-1445748Y1590811D01*
X-1449534Y1616331D01*
X-1450800Y1642100D01*
X-1450800Y2167900D01*
X-1449534Y2193669D01*
X-1445748Y2219189D01*
X-1439480Y2244216D01*
X-1430788Y2268507D01*
X-1419757Y2291830D01*
X-1406493Y2313959D01*
X-1391124Y2334682D01*
X-1373798Y2353798D01*
X-1354682Y2371124D01*
X-1333959Y2386493D01*
X-1311830Y2399757D01*
X-1288507Y2410788D01*
X-1264216Y2419480D01*
X-1239189Y2425748D01*
X-1213669Y2429534D01*
X-1187900Y2430800D01*
X-562100Y2430800D01*
X-536331Y2429534D01*
X-536331Y2429534D01*
G37*
D18*
X-875000Y1905000D03*
D19*
X3175000Y10755000D03*
D17*
G36*
X3986828Y9154524D02*
G01*
X4012546Y9150709D01*
X4037767Y9144392D01*
X4062248Y9135633D01*
X4085751Y9124516D01*
X4108052Y9111149D01*
X4128936Y9095661D01*
X4148201Y9078201D01*
X4165661Y9058936D01*
X4181149Y9038052D01*
X4194516Y9015751D01*
X4205633Y8992248D01*
X4214392Y8967767D01*
X4220709Y8942546D01*
X4224524Y8916828D01*
X4225800Y8890859D01*
X4225800Y7619141D01*
X4224524Y7593172D01*
X4220709Y7567454D01*
X4214392Y7542233D01*
X4205633Y7517752D01*
X4194516Y7494249D01*
X4181149Y7471948D01*
X4165661Y7451064D01*
X4148201Y7431799D01*
X4128936Y7414339D01*
X4108052Y7398851D01*
X4085751Y7385484D01*
X4062248Y7374367D01*
X4037767Y7365608D01*
X4012546Y7359291D01*
X3986828Y7355476D01*
X3960859Y7354200D01*
X2389141Y7354200D01*
X2363172Y7355476D01*
X2337454Y7359291D01*
X2312233Y7365608D01*
X2287752Y7374367D01*
X2264249Y7385484D01*
X2241948Y7398851D01*
X2221064Y7414339D01*
X2201799Y7431799D01*
X2184339Y7451064D01*
X2168851Y7471948D01*
X2155484Y7494249D01*
X2144367Y7517752D01*
X2135608Y7542233D01*
X2129291Y7567454D01*
X2125476Y7593172D01*
X2124200Y7619141D01*
X2124200Y8890859D01*
X2125476Y8916828D01*
X2129291Y8942546D01*
X2135608Y8967767D01*
X2144367Y8992248D01*
X2155484Y9015751D01*
X2168851Y9038052D01*
X2184339Y9058936D01*
X2201799Y9078201D01*
X2221064Y9095661D01*
X2241948Y9111149D01*
X2264249Y9124516D01*
X2287752Y9135633D01*
X2312233Y9144392D01*
X2337454Y9150709D01*
X2363172Y9154524D01*
X2389141Y9155800D01*
X3960859Y9155800D01*
X3986828Y9154524D01*
X3986828Y9154524D01*
G37*
D20*
X3175000Y8255000D03*
D19*
X10160000Y10755000D03*
D17*
G36*
X10971828Y9154524D02*
G01*
X10997546Y9150709D01*
X11022767Y9144392D01*
X11047248Y9135633D01*
X11070751Y9124516D01*
X11093052Y9111149D01*
X11113936Y9095661D01*
X11133201Y9078201D01*
X11150661Y9058936D01*
X11166149Y9038052D01*
X11179516Y9015751D01*
X11190633Y8992248D01*
X11199392Y8967767D01*
X11205709Y8942546D01*
X11209524Y8916828D01*
X11210800Y8890859D01*
X11210800Y7619141D01*
X11209524Y7593172D01*
X11205709Y7567454D01*
X11199392Y7542233D01*
X11190633Y7517752D01*
X11179516Y7494249D01*
X11166149Y7471948D01*
X11150661Y7451064D01*
X11133201Y7431799D01*
X11113936Y7414339D01*
X11093052Y7398851D01*
X11070751Y7385484D01*
X11047248Y7374367D01*
X11022767Y7365608D01*
X10997546Y7359291D01*
X10971828Y7355476D01*
X10945859Y7354200D01*
X9374141Y7354200D01*
X9348172Y7355476D01*
X9322454Y7359291D01*
X9297233Y7365608D01*
X9272752Y7374367D01*
X9249249Y7385484D01*
X9226948Y7398851D01*
X9206064Y7414339D01*
X9186799Y7431799D01*
X9169339Y7451064D01*
X9153851Y7471948D01*
X9140484Y7494249D01*
X9129367Y7517752D01*
X9120608Y7542233D01*
X9114291Y7567454D01*
X9110476Y7593172D01*
X9109200Y7619141D01*
X9109200Y8890859D01*
X9110476Y8916828D01*
X9114291Y8942546D01*
X9120608Y8967767D01*
X9129367Y8992248D01*
X9140484Y9015751D01*
X9153851Y9038052D01*
X9169339Y9058936D01*
X9186799Y9078201D01*
X9206064Y9095661D01*
X9226948Y9111149D01*
X9249249Y9124516D01*
X9272752Y9135633D01*
X9297233Y9144392D01*
X9322454Y9150709D01*
X9348172Y9154524D01*
X9374141Y9155800D01*
X10945859Y9155800D01*
X10971828Y9154524D01*
X10971828Y9154524D01*
G37*
D20*
X10160000Y8255000D03*
D19*
X-3810000Y10755000D03*
D17*
G36*
X-2998172Y9154524D02*
G01*
X-2972454Y9150709D01*
X-2947233Y9144392D01*
X-2922752Y9135633D01*
X-2899249Y9124516D01*
X-2876948Y9111149D01*
X-2856064Y9095661D01*
X-2836799Y9078201D01*
X-2819339Y9058936D01*
X-2803851Y9038052D01*
X-2790484Y9015751D01*
X-2779367Y8992248D01*
X-2770608Y8967767D01*
X-2764291Y8942546D01*
X-2760476Y8916828D01*
X-2759200Y8890859D01*
X-2759200Y7619141D01*
X-2760476Y7593172D01*
X-2764291Y7567454D01*
X-2770608Y7542233D01*
X-2779367Y7517752D01*
X-2790484Y7494249D01*
X-2803851Y7471948D01*
X-2819339Y7451064D01*
X-2836799Y7431799D01*
X-2856064Y7414339D01*
X-2876948Y7398851D01*
X-2899249Y7385484D01*
X-2922752Y7374367D01*
X-2947233Y7365608D01*
X-2972454Y7359291D01*
X-2998172Y7355476D01*
X-3024141Y7354200D01*
X-4595859Y7354200D01*
X-4621828Y7355476D01*
X-4647546Y7359291D01*
X-4672767Y7365608D01*
X-4697248Y7374367D01*
X-4720751Y7385484D01*
X-4743052Y7398851D01*
X-4763936Y7414339D01*
X-4783201Y7431799D01*
X-4800661Y7451064D01*
X-4816149Y7471948D01*
X-4829516Y7494249D01*
X-4840633Y7517752D01*
X-4849392Y7542233D01*
X-4855709Y7567454D01*
X-4859524Y7593172D01*
X-4860800Y7619141D01*
X-4860800Y8890859D01*
X-4859524Y8916828D01*
X-4855709Y8942546D01*
X-4849392Y8967767D01*
X-4840633Y8992248D01*
X-4829516Y9015751D01*
X-4816149Y9038052D01*
X-4800661Y9058936D01*
X-4783201Y9078201D01*
X-4763936Y9095661D01*
X-4743052Y9111149D01*
X-4720751Y9124516D01*
X-4697248Y9135633D01*
X-4672767Y9144392D01*
X-4647546Y9150709D01*
X-4621828Y9154524D01*
X-4595859Y9155800D01*
X-3024141Y9155800D01*
X-2998172Y9154524D01*
X-2998172Y9154524D01*
G37*
D20*
X-3810000Y8255000D03*
D21*
X3295000Y17145000D03*
X5795000Y17145000D03*
X8295000Y17145000D03*
D17*
G36*
X11456828Y18169524D02*
G01*
X11482546Y18165709D01*
X11507767Y18159392D01*
X11532248Y18150633D01*
X11555751Y18139516D01*
X11578052Y18126149D01*
X11598936Y18110661D01*
X11618201Y18093201D01*
X11635661Y18073936D01*
X11651149Y18053052D01*
X11664516Y18030751D01*
X11675633Y18007248D01*
X11684392Y17982767D01*
X11690709Y17957546D01*
X11694524Y17931828D01*
X11695800Y17905859D01*
X11695800Y16384141D01*
X11694524Y16358172D01*
X11690709Y16332454D01*
X11684392Y16307233D01*
X11675633Y16282752D01*
X11664516Y16259249D01*
X11651149Y16236948D01*
X11635661Y16216064D01*
X11618201Y16196799D01*
X11598936Y16179339D01*
X11578052Y16163851D01*
X11555751Y16150484D01*
X11532248Y16139367D01*
X11507767Y16130608D01*
X11482546Y16124291D01*
X11456828Y16120476D01*
X11430859Y16119200D01*
X10159141Y16119200D01*
X10133172Y16120476D01*
X10107454Y16124291D01*
X10082233Y16130608D01*
X10057752Y16139367D01*
X10034249Y16150484D01*
X10011948Y16163851D01*
X9991064Y16179339D01*
X9971799Y16196799D01*
X9954339Y16216064D01*
X9938851Y16236948D01*
X9925484Y16259249D01*
X9914367Y16282752D01*
X9905608Y16307233D01*
X9899291Y16332454D01*
X9895476Y16358172D01*
X9894200Y16384141D01*
X9894200Y17905859D01*
X9895476Y17931828D01*
X9899291Y17957546D01*
X9905608Y17982767D01*
X9914367Y18007248D01*
X9925484Y18030751D01*
X9938851Y18053052D01*
X9954339Y18073936D01*
X9971799Y18093201D01*
X9991064Y18110661D01*
X10011948Y18126149D01*
X10034249Y18139516D01*
X10057752Y18150633D01*
X10082233Y18159392D01*
X10107454Y18165709D01*
X10133172Y18169524D01*
X10159141Y18170800D01*
X11430859Y18170800D01*
X11456828Y18169524D01*
X11456828Y18169524D01*
G37*
D20*
X10795000Y17145000D03*
D22*
X-10795000Y8255000D03*
D23*
X-10795000Y10795000D03*
D24*
X-8890000Y29080000D03*
X-8890000Y31620000D03*
X-6350000Y29080000D03*
X-6350000Y31620000D03*
X-3810000Y29080000D03*
X-3810000Y31620000D03*
X-1270000Y29080000D03*
X-1270000Y31620000D03*
X1270000Y29080000D03*
X1270000Y31620000D03*
X3810000Y29080000D03*
X3810000Y31620000D03*
X6350000Y29080000D03*
X6350000Y31620000D03*
X8890000Y29080000D03*
D25*
X8890000Y31620000D03*
D17*
G36*
X-6251331Y4334534D02*
G01*
X-6225811Y4330748D01*
X-6200784Y4324480D01*
X-6176493Y4315788D01*
X-6153170Y4304757D01*
X-6131041Y4291493D01*
X-6110318Y4276124D01*
X-6091202Y4258798D01*
X-6073876Y4239682D01*
X-6058507Y4218959D01*
X-6045243Y4196830D01*
X-6034212Y4173507D01*
X-6025520Y4149216D01*
X-6019252Y4124189D01*
X-6015466Y4098669D01*
X-6014200Y4072900D01*
X-6014200Y3547100D01*
X-6015466Y3521331D01*
X-6019252Y3495811D01*
X-6025520Y3470784D01*
X-6034212Y3446493D01*
X-6045243Y3423170D01*
X-6058507Y3401041D01*
X-6073876Y3380318D01*
X-6091202Y3361202D01*
X-6110318Y3343876D01*
X-6131041Y3328507D01*
X-6153170Y3315243D01*
X-6176493Y3304212D01*
X-6200784Y3295520D01*
X-6225811Y3289252D01*
X-6251331Y3285466D01*
X-6277100Y3284200D01*
X-6902900Y3284200D01*
X-6928669Y3285466D01*
X-6954189Y3289252D01*
X-6979216Y3295520D01*
X-7003507Y3304212D01*
X-7026830Y3315243D01*
X-7048959Y3328507D01*
X-7069682Y3343876D01*
X-7088798Y3361202D01*
X-7106124Y3380318D01*
X-7121493Y3401041D01*
X-7134757Y3423170D01*
X-7145788Y3446493D01*
X-7154480Y3470784D01*
X-7160748Y3495811D01*
X-7164534Y3521331D01*
X-7165800Y3547100D01*
X-7165800Y4072900D01*
X-7164534Y4098669D01*
X-7160748Y4124189D01*
X-7154480Y4149216D01*
X-7145788Y4173507D01*
X-7134757Y4196830D01*
X-7121493Y4218959D01*
X-7106124Y4239682D01*
X-7088798Y4258798D01*
X-7069682Y4276124D01*
X-7048959Y4291493D01*
X-7026830Y4304757D01*
X-7003507Y4315788D01*
X-6979216Y4324480D01*
X-6954189Y4330748D01*
X-6928669Y4334534D01*
X-6902900Y4335800D01*
X-6277100Y4335800D01*
X-6251331Y4334534D01*
X-6251331Y4334534D01*
G37*
D18*
X-6590000Y3810000D03*
D17*
G36*
X-4501331Y4334534D02*
G01*
X-4475811Y4330748D01*
X-4450784Y4324480D01*
X-4426493Y4315788D01*
X-4403170Y4304757D01*
X-4381041Y4291493D01*
X-4360318Y4276124D01*
X-4341202Y4258798D01*
X-4323876Y4239682D01*
X-4308507Y4218959D01*
X-4295243Y4196830D01*
X-4284212Y4173507D01*
X-4275520Y4149216D01*
X-4269252Y4124189D01*
X-4265466Y4098669D01*
X-4264200Y4072900D01*
X-4264200Y3547100D01*
X-4265466Y3521331D01*
X-4269252Y3495811D01*
X-4275520Y3470784D01*
X-4284212Y3446493D01*
X-4295243Y3423170D01*
X-4308507Y3401041D01*
X-4323876Y3380318D01*
X-4341202Y3361202D01*
X-4360318Y3343876D01*
X-4381041Y3328507D01*
X-4403170Y3315243D01*
X-4426493Y3304212D01*
X-4450784Y3295520D01*
X-4475811Y3289252D01*
X-4501331Y3285466D01*
X-4527100Y3284200D01*
X-5152900Y3284200D01*
X-5178669Y3285466D01*
X-5204189Y3289252D01*
X-5229216Y3295520D01*
X-5253507Y3304212D01*
X-5276830Y3315243D01*
X-5298959Y3328507D01*
X-5319682Y3343876D01*
X-5338798Y3361202D01*
X-5356124Y3380318D01*
X-5371493Y3401041D01*
X-5384757Y3423170D01*
X-5395788Y3446493D01*
X-5404480Y3470784D01*
X-5410748Y3495811D01*
X-5414534Y3521331D01*
X-5415800Y3547100D01*
X-5415800Y4072900D01*
X-5414534Y4098669D01*
X-5410748Y4124189D01*
X-5404480Y4149216D01*
X-5395788Y4173507D01*
X-5384757Y4196830D01*
X-5371493Y4218959D01*
X-5356124Y4239682D01*
X-5338798Y4258798D01*
X-5319682Y4276124D01*
X-5298959Y4291493D01*
X-5276830Y4304757D01*
X-5253507Y4315788D01*
X-5229216Y4324480D01*
X-5204189Y4330748D01*
X-5178669Y4334534D01*
X-5152900Y4335800D01*
X-4527100Y4335800D01*
X-4501331Y4334534D01*
X-4501331Y4334534D01*
G37*
D18*
X-4840000Y3810000D03*
D17*
G36*
X5178669Y4334534D02*
G01*
X5204189Y4330748D01*
X5229216Y4324480D01*
X5253507Y4315788D01*
X5276830Y4304757D01*
X5298959Y4291493D01*
X5319682Y4276124D01*
X5338798Y4258798D01*
X5356124Y4239682D01*
X5371493Y4218959D01*
X5384757Y4196830D01*
X5395788Y4173507D01*
X5404480Y4149216D01*
X5410748Y4124189D01*
X5414534Y4098669D01*
X5415800Y4072900D01*
X5415800Y3547100D01*
X5414534Y3521331D01*
X5410748Y3495811D01*
X5404480Y3470784D01*
X5395788Y3446493D01*
X5384757Y3423170D01*
X5371493Y3401041D01*
X5356124Y3380318D01*
X5338798Y3361202D01*
X5319682Y3343876D01*
X5298959Y3328507D01*
X5276830Y3315243D01*
X5253507Y3304212D01*
X5229216Y3295520D01*
X5204189Y3289252D01*
X5178669Y3285466D01*
X5152900Y3284200D01*
X4527100Y3284200D01*
X4501331Y3285466D01*
X4475811Y3289252D01*
X4450784Y3295520D01*
X4426493Y3304212D01*
X4403170Y3315243D01*
X4381041Y3328507D01*
X4360318Y3343876D01*
X4341202Y3361202D01*
X4323876Y3380318D01*
X4308507Y3401041D01*
X4295243Y3423170D01*
X4284212Y3446493D01*
X4275520Y3470784D01*
X4269252Y3495811D01*
X4265466Y3521331D01*
X4264200Y3547100D01*
X4264200Y4072900D01*
X4265466Y4098669D01*
X4269252Y4124189D01*
X4275520Y4149216D01*
X4284212Y4173507D01*
X4295243Y4196830D01*
X4308507Y4218959D01*
X4323876Y4239682D01*
X4341202Y4258798D01*
X4360318Y4276124D01*
X4381041Y4291493D01*
X4403170Y4304757D01*
X4426493Y4315788D01*
X4450784Y4324480D01*
X4475811Y4330748D01*
X4501331Y4334534D01*
X4527100Y4335800D01*
X5152900Y4335800D01*
X5178669Y4334534D01*
X5178669Y4334534D01*
G37*
D18*
X4840000Y3810000D03*
D17*
G36*
X6928669Y4334534D02*
G01*
X6954189Y4330748D01*
X6979216Y4324480D01*
X7003507Y4315788D01*
X7026830Y4304757D01*
X7048959Y4291493D01*
X7069682Y4276124D01*
X7088798Y4258798D01*
X7106124Y4239682D01*
X7121493Y4218959D01*
X7134757Y4196830D01*
X7145788Y4173507D01*
X7154480Y4149216D01*
X7160748Y4124189D01*
X7164534Y4098669D01*
X7165800Y4072900D01*
X7165800Y3547100D01*
X7164534Y3521331D01*
X7160748Y3495811D01*
X7154480Y3470784D01*
X7145788Y3446493D01*
X7134757Y3423170D01*
X7121493Y3401041D01*
X7106124Y3380318D01*
X7088798Y3361202D01*
X7069682Y3343876D01*
X7048959Y3328507D01*
X7026830Y3315243D01*
X7003507Y3304212D01*
X6979216Y3295520D01*
X6954189Y3289252D01*
X6928669Y3285466D01*
X6902900Y3284200D01*
X6277100Y3284200D01*
X6251331Y3285466D01*
X6225811Y3289252D01*
X6200784Y3295520D01*
X6176493Y3304212D01*
X6153170Y3315243D01*
X6131041Y3328507D01*
X6110318Y3343876D01*
X6091202Y3361202D01*
X6073876Y3380318D01*
X6058507Y3401041D01*
X6045243Y3423170D01*
X6034212Y3446493D01*
X6025520Y3470784D01*
X6019252Y3495811D01*
X6015466Y3521331D01*
X6014200Y3547100D01*
X6014200Y4072900D01*
X6015466Y4098669D01*
X6019252Y4124189D01*
X6025520Y4149216D01*
X6034212Y4173507D01*
X6045243Y4196830D01*
X6058507Y4218959D01*
X6073876Y4239682D01*
X6091202Y4258798D01*
X6110318Y4276124D01*
X6131041Y4291493D01*
X6153170Y4304757D01*
X6176493Y4315788D01*
X6200784Y4324480D01*
X6225811Y4330748D01*
X6251331Y4334534D01*
X6277100Y4335800D01*
X6902900Y4335800D01*
X6928669Y4334534D01*
X6928669Y4334534D01*
G37*
D18*
X6590000Y3810000D03*
D17*
G36*
X-536331Y4334534D02*
G01*
X-510811Y4330748D01*
X-485784Y4324480D01*
X-461493Y4315788D01*
X-438170Y4304757D01*
X-416041Y4291493D01*
X-395318Y4276124D01*
X-376202Y4258798D01*
X-358876Y4239682D01*
X-343507Y4218959D01*
X-330243Y4196830D01*
X-319212Y4173507D01*
X-310520Y4149216D01*
X-304252Y4124189D01*
X-300466Y4098669D01*
X-299200Y4072900D01*
X-299200Y3547100D01*
X-300466Y3521331D01*
X-304252Y3495811D01*
X-310520Y3470784D01*
X-319212Y3446493D01*
X-330243Y3423170D01*
X-343507Y3401041D01*
X-358876Y3380318D01*
X-376202Y3361202D01*
X-395318Y3343876D01*
X-416041Y3328507D01*
X-438170Y3315243D01*
X-461493Y3304212D01*
X-485784Y3295520D01*
X-510811Y3289252D01*
X-536331Y3285466D01*
X-562100Y3284200D01*
X-1187900Y3284200D01*
X-1213669Y3285466D01*
X-1239189Y3289252D01*
X-1264216Y3295520D01*
X-1288507Y3304212D01*
X-1311830Y3315243D01*
X-1333959Y3328507D01*
X-1354682Y3343876D01*
X-1373798Y3361202D01*
X-1391124Y3380318D01*
X-1406493Y3401041D01*
X-1419757Y3423170D01*
X-1430788Y3446493D01*
X-1439480Y3470784D01*
X-1445748Y3495811D01*
X-1449534Y3521331D01*
X-1450800Y3547100D01*
X-1450800Y4072900D01*
X-1449534Y4098669D01*
X-1445748Y4124189D01*
X-1439480Y4149216D01*
X-1430788Y4173507D01*
X-1419757Y4196830D01*
X-1406493Y4218959D01*
X-1391124Y4239682D01*
X-1373798Y4258798D01*
X-1354682Y4276124D01*
X-1333959Y4291493D01*
X-1311830Y4304757D01*
X-1288507Y4315788D01*
X-1264216Y4324480D01*
X-1239189Y4330748D01*
X-1213669Y4334534D01*
X-1187900Y4335800D01*
X-562100Y4335800D01*
X-536331Y4334534D01*
X-536331Y4334534D01*
G37*
D18*
X-875000Y3810000D03*
D17*
G36*
X1213669Y4334534D02*
G01*
X1239189Y4330748D01*
X1264216Y4324480D01*
X1288507Y4315788D01*
X1311830Y4304757D01*
X1333959Y4291493D01*
X1354682Y4276124D01*
X1373798Y4258798D01*
X1391124Y4239682D01*
X1406493Y4218959D01*
X1419757Y4196830D01*
X1430788Y4173507D01*
X1439480Y4149216D01*
X1445748Y4124189D01*
X1449534Y4098669D01*
X1450800Y4072900D01*
X1450800Y3547100D01*
X1449534Y3521331D01*
X1445748Y3495811D01*
X1439480Y3470784D01*
X1430788Y3446493D01*
X1419757Y3423170D01*
X1406493Y3401041D01*
X1391124Y3380318D01*
X1373798Y3361202D01*
X1354682Y3343876D01*
X1333959Y3328507D01*
X1311830Y3315243D01*
X1288507Y3304212D01*
X1264216Y3295520D01*
X1239189Y3289252D01*
X1213669Y3285466D01*
X1187900Y3284200D01*
X562100Y3284200D01*
X536331Y3285466D01*
X510811Y3289252D01*
X485784Y3295520D01*
X461493Y3304212D01*
X438170Y3315243D01*
X416041Y3328507D01*
X395318Y3343876D01*
X376202Y3361202D01*
X358876Y3380318D01*
X343507Y3401041D01*
X330243Y3423170D01*
X319212Y3446493D01*
X310520Y3470784D01*
X304252Y3495811D01*
X300466Y3521331D01*
X299200Y3547100D01*
X299200Y4072900D01*
X300466Y4098669D01*
X304252Y4124189D01*
X310520Y4149216D01*
X319212Y4173507D01*
X330243Y4196830D01*
X343507Y4218959D01*
X358876Y4239682D01*
X376202Y4258798D01*
X395318Y4276124D01*
X416041Y4291493D01*
X438170Y4304757D01*
X461493Y4315788D01*
X485784Y4324480D01*
X510811Y4330748D01*
X536331Y4334534D01*
X562100Y4335800D01*
X1187900Y4335800D01*
X1213669Y4334534D01*
X1213669Y4334534D01*
G37*
D18*
X875000Y3810000D03*
M02*
