G04 #@! TF.GenerationSoftware,KiCad,Pcbnew,(5.1.4)-1*
G04 #@! TF.CreationDate,2020-03-27T15:16:42-04:00*
G04 #@! TF.ProjectId,extruder_breakout,65787472-7564-4657-925f-627265616b6f,rev?*
G04 #@! TF.SameCoordinates,PX8f0d180PY5f5e100*
G04 #@! TF.FileFunction,Copper,L2,Bot*
G04 #@! TF.FilePolarity,Positive*
%FSLAX46Y46*%
G04 Gerber Fmt 4.6, Leading zero omitted, Abs format (unit mm)*
G04 Created by KiCad (PCBNEW (5.1.4)-1) date 2020-03-27 15:16:42*
%MOMM*%
%LPD*%
G04 APERTURE LIST*
%ADD10C,6.400000*%
%ADD11C,4.000000*%
%ADD12R,3.800000X3.800000*%
%ADD13O,2.000000X1.700000*%
%ADD14C,0.100000*%
%ADD15C,1.700000*%
%ADD16O,1.700000X1.950000*%
%ADD17C,2.100000*%
%ADD18R,2.100000X2.100000*%
%ADD19O,1.727200X1.727200*%
%ADD20R,1.727200X1.727200*%
%ADD21C,0.800000*%
%ADD22C,0.508000*%
%ADD23C,0.152400*%
G04 APERTURE END LIST*
D10*
X9000000Y44500000D03*
X-9000000Y44500000D03*
D11*
X-10715000Y17780000D03*
D12*
X-5715000Y17780000D03*
D13*
X3175000Y10755000D03*
D14*
G36*
X3949504Y9103796D02*
G01*
X3973773Y9100196D01*
X3997571Y9094235D01*
X4020671Y9085970D01*
X4042849Y9075480D01*
X4063893Y9062867D01*
X4083598Y9048253D01*
X4101777Y9031777D01*
X4118253Y9013598D01*
X4132867Y8993893D01*
X4145480Y8972849D01*
X4155970Y8950671D01*
X4164235Y8927571D01*
X4170196Y8903773D01*
X4173796Y8879504D01*
X4175000Y8855000D01*
X4175000Y7655000D01*
X4173796Y7630496D01*
X4170196Y7606227D01*
X4164235Y7582429D01*
X4155970Y7559329D01*
X4145480Y7537151D01*
X4132867Y7516107D01*
X4118253Y7496402D01*
X4101777Y7478223D01*
X4083598Y7461747D01*
X4063893Y7447133D01*
X4042849Y7434520D01*
X4020671Y7424030D01*
X3997571Y7415765D01*
X3973773Y7409804D01*
X3949504Y7406204D01*
X3925000Y7405000D01*
X2425000Y7405000D01*
X2400496Y7406204D01*
X2376227Y7409804D01*
X2352429Y7415765D01*
X2329329Y7424030D01*
X2307151Y7434520D01*
X2286107Y7447133D01*
X2266402Y7461747D01*
X2248223Y7478223D01*
X2231747Y7496402D01*
X2217133Y7516107D01*
X2204520Y7537151D01*
X2194030Y7559329D01*
X2185765Y7582429D01*
X2179804Y7606227D01*
X2176204Y7630496D01*
X2175000Y7655000D01*
X2175000Y8855000D01*
X2176204Y8879504D01*
X2179804Y8903773D01*
X2185765Y8927571D01*
X2194030Y8950671D01*
X2204520Y8972849D01*
X2217133Y8993893D01*
X2231747Y9013598D01*
X2248223Y9031777D01*
X2266402Y9048253D01*
X2286107Y9062867D01*
X2307151Y9075480D01*
X2329329Y9085970D01*
X2352429Y9094235D01*
X2376227Y9100196D01*
X2400496Y9103796D01*
X2425000Y9105000D01*
X3925000Y9105000D01*
X3949504Y9103796D01*
X3949504Y9103796D01*
G37*
D15*
X3175000Y8255000D03*
D13*
X10160000Y10755000D03*
D14*
G36*
X10934504Y9103796D02*
G01*
X10958773Y9100196D01*
X10982571Y9094235D01*
X11005671Y9085970D01*
X11027849Y9075480D01*
X11048893Y9062867D01*
X11068598Y9048253D01*
X11086777Y9031777D01*
X11103253Y9013598D01*
X11117867Y8993893D01*
X11130480Y8972849D01*
X11140970Y8950671D01*
X11149235Y8927571D01*
X11155196Y8903773D01*
X11158796Y8879504D01*
X11160000Y8855000D01*
X11160000Y7655000D01*
X11158796Y7630496D01*
X11155196Y7606227D01*
X11149235Y7582429D01*
X11140970Y7559329D01*
X11130480Y7537151D01*
X11117867Y7516107D01*
X11103253Y7496402D01*
X11086777Y7478223D01*
X11068598Y7461747D01*
X11048893Y7447133D01*
X11027849Y7434520D01*
X11005671Y7424030D01*
X10982571Y7415765D01*
X10958773Y7409804D01*
X10934504Y7406204D01*
X10910000Y7405000D01*
X9410000Y7405000D01*
X9385496Y7406204D01*
X9361227Y7409804D01*
X9337429Y7415765D01*
X9314329Y7424030D01*
X9292151Y7434520D01*
X9271107Y7447133D01*
X9251402Y7461747D01*
X9233223Y7478223D01*
X9216747Y7496402D01*
X9202133Y7516107D01*
X9189520Y7537151D01*
X9179030Y7559329D01*
X9170765Y7582429D01*
X9164804Y7606227D01*
X9161204Y7630496D01*
X9160000Y7655000D01*
X9160000Y8855000D01*
X9161204Y8879504D01*
X9164804Y8903773D01*
X9170765Y8927571D01*
X9179030Y8950671D01*
X9189520Y8972849D01*
X9202133Y8993893D01*
X9216747Y9013598D01*
X9233223Y9031777D01*
X9251402Y9048253D01*
X9271107Y9062867D01*
X9292151Y9075480D01*
X9314329Y9085970D01*
X9337429Y9094235D01*
X9361227Y9100196D01*
X9385496Y9103796D01*
X9410000Y9105000D01*
X10910000Y9105000D01*
X10934504Y9103796D01*
X10934504Y9103796D01*
G37*
D15*
X10160000Y8255000D03*
D13*
X-3810000Y10755000D03*
D14*
G36*
X-3035496Y9103796D02*
G01*
X-3011227Y9100196D01*
X-2987429Y9094235D01*
X-2964329Y9085970D01*
X-2942151Y9075480D01*
X-2921107Y9062867D01*
X-2901402Y9048253D01*
X-2883223Y9031777D01*
X-2866747Y9013598D01*
X-2852133Y8993893D01*
X-2839520Y8972849D01*
X-2829030Y8950671D01*
X-2820765Y8927571D01*
X-2814804Y8903773D01*
X-2811204Y8879504D01*
X-2810000Y8855000D01*
X-2810000Y7655000D01*
X-2811204Y7630496D01*
X-2814804Y7606227D01*
X-2820765Y7582429D01*
X-2829030Y7559329D01*
X-2839520Y7537151D01*
X-2852133Y7516107D01*
X-2866747Y7496402D01*
X-2883223Y7478223D01*
X-2901402Y7461747D01*
X-2921107Y7447133D01*
X-2942151Y7434520D01*
X-2964329Y7424030D01*
X-2987429Y7415765D01*
X-3011227Y7409804D01*
X-3035496Y7406204D01*
X-3060000Y7405000D01*
X-4560000Y7405000D01*
X-4584504Y7406204D01*
X-4608773Y7409804D01*
X-4632571Y7415765D01*
X-4655671Y7424030D01*
X-4677849Y7434520D01*
X-4698893Y7447133D01*
X-4718598Y7461747D01*
X-4736777Y7478223D01*
X-4753253Y7496402D01*
X-4767867Y7516107D01*
X-4780480Y7537151D01*
X-4790970Y7559329D01*
X-4799235Y7582429D01*
X-4805196Y7606227D01*
X-4808796Y7630496D01*
X-4810000Y7655000D01*
X-4810000Y8855000D01*
X-4808796Y8879504D01*
X-4805196Y8903773D01*
X-4799235Y8927571D01*
X-4790970Y8950671D01*
X-4780480Y8972849D01*
X-4767867Y8993893D01*
X-4753253Y9013598D01*
X-4736777Y9031777D01*
X-4718598Y9048253D01*
X-4698893Y9062867D01*
X-4677849Y9075480D01*
X-4655671Y9085970D01*
X-4632571Y9094235D01*
X-4608773Y9100196D01*
X-4584504Y9103796D01*
X-4560000Y9105000D01*
X-3060000Y9105000D01*
X-3035496Y9103796D01*
X-3035496Y9103796D01*
G37*
D15*
X-3810000Y8255000D03*
D16*
X3295000Y17145000D03*
X5795000Y17145000D03*
X8295000Y17145000D03*
D14*
G36*
X11419504Y18118796D02*
G01*
X11443773Y18115196D01*
X11467571Y18109235D01*
X11490671Y18100970D01*
X11512849Y18090480D01*
X11533893Y18077867D01*
X11553598Y18063253D01*
X11571777Y18046777D01*
X11588253Y18028598D01*
X11602867Y18008893D01*
X11615480Y17987849D01*
X11625970Y17965671D01*
X11634235Y17942571D01*
X11640196Y17918773D01*
X11643796Y17894504D01*
X11645000Y17870000D01*
X11645000Y16420000D01*
X11643796Y16395496D01*
X11640196Y16371227D01*
X11634235Y16347429D01*
X11625970Y16324329D01*
X11615480Y16302151D01*
X11602867Y16281107D01*
X11588253Y16261402D01*
X11571777Y16243223D01*
X11553598Y16226747D01*
X11533893Y16212133D01*
X11512849Y16199520D01*
X11490671Y16189030D01*
X11467571Y16180765D01*
X11443773Y16174804D01*
X11419504Y16171204D01*
X11395000Y16170000D01*
X10195000Y16170000D01*
X10170496Y16171204D01*
X10146227Y16174804D01*
X10122429Y16180765D01*
X10099329Y16189030D01*
X10077151Y16199520D01*
X10056107Y16212133D01*
X10036402Y16226747D01*
X10018223Y16243223D01*
X10001747Y16261402D01*
X9987133Y16281107D01*
X9974520Y16302151D01*
X9964030Y16324329D01*
X9955765Y16347429D01*
X9949804Y16371227D01*
X9946204Y16395496D01*
X9945000Y16420000D01*
X9945000Y17870000D01*
X9946204Y17894504D01*
X9949804Y17918773D01*
X9955765Y17942571D01*
X9964030Y17965671D01*
X9974520Y17987849D01*
X9987133Y18008893D01*
X10001747Y18028598D01*
X10018223Y18046777D01*
X10036402Y18063253D01*
X10056107Y18077867D01*
X10077151Y18090480D01*
X10099329Y18100970D01*
X10122429Y18109235D01*
X10146227Y18115196D01*
X10170496Y18118796D01*
X10195000Y18120000D01*
X11395000Y18120000D01*
X11419504Y18118796D01*
X11419504Y18118796D01*
G37*
D15*
X10795000Y17145000D03*
D17*
X-10795000Y8255000D03*
D18*
X-10795000Y10795000D03*
D19*
X-8890000Y29080000D03*
X-8890000Y31620000D03*
X-6350000Y29080000D03*
X-6350000Y31620000D03*
X-3810000Y29080000D03*
X-3810000Y31620000D03*
X-1270000Y29080000D03*
X-1270000Y31620000D03*
X1270000Y29080000D03*
X1270000Y31620000D03*
X3810000Y29080000D03*
X3810000Y31620000D03*
X6350000Y29080000D03*
X6350000Y31620000D03*
X8890000Y29080000D03*
D20*
X8890000Y31620000D03*
D21*
X-3683000Y3810000D03*
X7747000Y1905000D03*
X2032000Y1905000D03*
X-3683000Y1905000D03*
D22*
X-5715000Y15372000D02*
X-5715000Y17780000D01*
X-5715000Y5842000D02*
X-5715000Y19182000D01*
X-3683000Y3810000D02*
X-5715000Y5842000D01*
D23*
G36*
X13619877Y49605419D02*
G01*
X13735187Y49570605D01*
X13841540Y49514056D01*
X13934884Y49437926D01*
X14011659Y49345121D01*
X14068951Y49239162D01*
X14104568Y49124102D01*
X14119002Y48986773D01*
X14119001Y1018629D01*
X14105420Y880124D01*
X14070606Y764814D01*
X14014057Y658460D01*
X13937927Y565117D01*
X13845122Y488341D01*
X13739163Y431049D01*
X13624103Y395432D01*
X13486782Y380999D01*
X-13481362Y380999D01*
X-13619876Y394581D01*
X-13735189Y429395D01*
X-13841537Y485942D01*
X-13934883Y562072D01*
X-14011660Y654880D01*
X-14068951Y760837D01*
X-14104568Y875897D01*
X-14119001Y1013218D01*
X-14119001Y11845000D01*
X-12122536Y11845000D01*
X-12122536Y9745000D01*
X-12117203Y9690855D01*
X-12101410Y9638792D01*
X-12075763Y9590809D01*
X-12041248Y9548752D01*
X-11999191Y9514237D01*
X-11951208Y9488590D01*
X-11899145Y9472797D01*
X-11845000Y9467464D01*
X-11333380Y9467464D01*
X-11423191Y9430263D01*
X-11640403Y9285127D01*
X-11825127Y9100403D01*
X-11970263Y8883191D01*
X-12070235Y8641838D01*
X-12121200Y8385619D01*
X-12121200Y8124381D01*
X-12070235Y7868162D01*
X-11970263Y7626809D01*
X-11825127Y7409597D01*
X-11640403Y7224873D01*
X-11423191Y7079737D01*
X-11181838Y6979765D01*
X-10925619Y6928800D01*
X-10664381Y6928800D01*
X-10408162Y6979765D01*
X-10166809Y7079737D01*
X-9949597Y7224873D01*
X-9764873Y7409597D01*
X-9619737Y7626809D01*
X-9519765Y7868162D01*
X-9468800Y8124381D01*
X-9468800Y8385619D01*
X-9519765Y8641838D01*
X-9619737Y8883191D01*
X-9764873Y9100403D01*
X-9949597Y9285127D01*
X-10166809Y9430263D01*
X-10256620Y9467464D01*
X-9745000Y9467464D01*
X-9690855Y9472797D01*
X-9638792Y9488590D01*
X-9590809Y9514237D01*
X-9548752Y9548752D01*
X-9514237Y9590809D01*
X-9488590Y9638792D01*
X-9472797Y9690855D01*
X-9467464Y9745000D01*
X-9467464Y11845000D01*
X-9472797Y11899145D01*
X-9488590Y11951208D01*
X-9514237Y11999191D01*
X-9548752Y12041248D01*
X-9590809Y12075763D01*
X-9638792Y12101410D01*
X-9690855Y12117203D01*
X-9745000Y12122536D01*
X-11845000Y12122536D01*
X-11899145Y12117203D01*
X-11951208Y12101410D01*
X-11999191Y12075763D01*
X-12041248Y12041248D01*
X-12075763Y11999191D01*
X-12101410Y11951208D01*
X-12117203Y11899145D01*
X-12122536Y11845000D01*
X-14119001Y11845000D01*
X-14119001Y15906824D01*
X-11977519Y15906824D01*
X-11718346Y15664390D01*
X-11286332Y15509298D01*
X-10832362Y15441467D01*
X-10373882Y15463505D01*
X-9928511Y15574565D01*
X-9711654Y15664390D01*
X-9452481Y15906824D01*
X-10715000Y17169343D01*
X-11977519Y15906824D01*
X-14119001Y15906824D01*
X-14119001Y17897362D01*
X-13053533Y17897362D01*
X-13031495Y17438882D01*
X-12920435Y16993511D01*
X-12830610Y16776654D01*
X-12588176Y16517481D01*
X-11325657Y17780000D01*
X-10104343Y17780000D01*
X-8841824Y16517481D01*
X-8599390Y16776654D01*
X-8531200Y16966600D01*
X-8531200Y14605000D01*
X-8528837Y14568949D01*
X-8507200Y14404599D01*
X-8488538Y14334953D01*
X-8425101Y14181803D01*
X-8389051Y14119361D01*
X-8288138Y13987848D01*
X-8237152Y13936862D01*
X-8105639Y13835949D01*
X-8043197Y13799899D01*
X-7890047Y13736462D01*
X-7820401Y13717800D01*
X-7656051Y13696163D01*
X-7620000Y13693800D01*
X-6245199Y13693800D01*
X-6245200Y5868040D01*
X-6247765Y5842000D01*
X-6245200Y5815960D01*
X-6245200Y5815958D01*
X-6237528Y5738064D01*
X-6207211Y5638121D01*
X-6157978Y5546012D01*
X-6091722Y5465278D01*
X-6071486Y5448671D01*
X-4357458Y3734642D01*
X-4333214Y3612760D01*
X-4282241Y3489699D01*
X-4208239Y3378948D01*
X-4114052Y3284761D01*
X-4003301Y3210759D01*
X-3880240Y3159786D01*
X-3749600Y3133800D01*
X-3616400Y3133800D01*
X-3485760Y3159786D01*
X-3362699Y3210759D01*
X-3251948Y3284761D01*
X-3157761Y3378948D01*
X-3083759Y3489699D01*
X-3032786Y3612760D01*
X-3006800Y3743400D01*
X-3006800Y3876600D01*
X-3032786Y4007240D01*
X-3083759Y4130301D01*
X-3157761Y4241052D01*
X-3251948Y4335239D01*
X-3362699Y4409241D01*
X-3485760Y4460214D01*
X-3607642Y4484458D01*
X-5184800Y6061615D01*
X-5184800Y8855000D01*
X-5087536Y8855000D01*
X-5087536Y7655000D01*
X-5077400Y7552083D01*
X-5047380Y7453121D01*
X-4998630Y7361917D01*
X-4933024Y7281976D01*
X-4853083Y7216370D01*
X-4761879Y7167620D01*
X-4662917Y7137600D01*
X-4560000Y7127464D01*
X-3060000Y7127464D01*
X-2957083Y7137600D01*
X-2858121Y7167620D01*
X-2766917Y7216370D01*
X-2686976Y7281976D01*
X-2621370Y7361917D01*
X-2598342Y7405000D01*
X1843202Y7405000D01*
X1849577Y7340269D01*
X1868459Y7278026D01*
X1899120Y7220663D01*
X1940383Y7170383D01*
X1990663Y7129120D01*
X2048026Y7098459D01*
X2110269Y7079577D01*
X2175000Y7073202D01*
X2660650Y7074800D01*
X2743200Y7157350D01*
X2743200Y7823200D01*
X3606800Y7823200D01*
X3606800Y7157350D01*
X3689350Y7074800D01*
X4175000Y7073202D01*
X4239731Y7079577D01*
X4301974Y7098459D01*
X4359337Y7129120D01*
X4409617Y7170383D01*
X4450880Y7220663D01*
X4481541Y7278026D01*
X4500423Y7340269D01*
X4506798Y7405000D01*
X8828202Y7405000D01*
X8834577Y7340269D01*
X8853459Y7278026D01*
X8884120Y7220663D01*
X8925383Y7170383D01*
X8975663Y7129120D01*
X9033026Y7098459D01*
X9095269Y7079577D01*
X9160000Y7073202D01*
X9645650Y7074800D01*
X9728200Y7157350D01*
X9728200Y7823200D01*
X10591800Y7823200D01*
X10591800Y7157350D01*
X10674350Y7074800D01*
X11160000Y7073202D01*
X11224731Y7079577D01*
X11286974Y7098459D01*
X11344337Y7129120D01*
X11394617Y7170383D01*
X11435880Y7220663D01*
X11466541Y7278026D01*
X11485423Y7340269D01*
X11491798Y7405000D01*
X11490200Y7740650D01*
X11407650Y7823200D01*
X10591800Y7823200D01*
X9728200Y7823200D01*
X8912350Y7823200D01*
X8829800Y7740650D01*
X8828202Y7405000D01*
X4506798Y7405000D01*
X4505200Y7740650D01*
X4422650Y7823200D01*
X3606800Y7823200D01*
X2743200Y7823200D01*
X1927350Y7823200D01*
X1844800Y7740650D01*
X1843202Y7405000D01*
X-2598342Y7405000D01*
X-2572620Y7453121D01*
X-2542600Y7552083D01*
X-2532464Y7655000D01*
X-2532464Y8855000D01*
X-2542600Y8957917D01*
X-2572620Y9056879D01*
X-2598341Y9105000D01*
X1843202Y9105000D01*
X1844800Y8769350D01*
X1927350Y8686800D01*
X2743200Y8686800D01*
X2743200Y9352650D01*
X3606800Y9352650D01*
X3606800Y8686800D01*
X4422650Y8686800D01*
X4505200Y8769350D01*
X4506798Y9105000D01*
X8828202Y9105000D01*
X8829800Y8769350D01*
X8912350Y8686800D01*
X9728200Y8686800D01*
X9728200Y9352650D01*
X10591800Y9352650D01*
X10591800Y8686800D01*
X11407650Y8686800D01*
X11490200Y8769350D01*
X11491798Y9105000D01*
X11485423Y9169731D01*
X11466541Y9231974D01*
X11435880Y9289337D01*
X11394617Y9339617D01*
X11344337Y9380880D01*
X11286974Y9411541D01*
X11224731Y9430423D01*
X11160000Y9436798D01*
X10674350Y9435200D01*
X10591800Y9352650D01*
X9728200Y9352650D01*
X9645650Y9435200D01*
X9160000Y9436798D01*
X9095269Y9430423D01*
X9033026Y9411541D01*
X8975663Y9380880D01*
X8925383Y9339617D01*
X8884120Y9289337D01*
X8853459Y9231974D01*
X8834577Y9169731D01*
X8828202Y9105000D01*
X4506798Y9105000D01*
X4500423Y9169731D01*
X4481541Y9231974D01*
X4450880Y9289337D01*
X4409617Y9339617D01*
X4359337Y9380880D01*
X4301974Y9411541D01*
X4239731Y9430423D01*
X4175000Y9436798D01*
X3689350Y9435200D01*
X3606800Y9352650D01*
X2743200Y9352650D01*
X2660650Y9435200D01*
X2175000Y9436798D01*
X2110269Y9430423D01*
X2048026Y9411541D01*
X1990663Y9380880D01*
X1940383Y9339617D01*
X1899120Y9289337D01*
X1868459Y9231974D01*
X1849577Y9169731D01*
X1843202Y9105000D01*
X-2598341Y9105000D01*
X-2621370Y9148083D01*
X-2686976Y9228024D01*
X-2766917Y9293630D01*
X-2858121Y9342380D01*
X-2957083Y9372400D01*
X-3060000Y9382536D01*
X-4560000Y9382536D01*
X-4662917Y9372400D01*
X-4761879Y9342380D01*
X-4853083Y9293630D01*
X-4933024Y9228024D01*
X-4998630Y9148083D01*
X-5047380Y9056879D01*
X-5077400Y8957917D01*
X-5087536Y8855000D01*
X-5184800Y8855000D01*
X-5184800Y10755000D01*
X-5091649Y10755000D01*
X-5069905Y10534226D01*
X-5005507Y10321937D01*
X-4900932Y10126290D01*
X-4760197Y9954803D01*
X-4588710Y9814068D01*
X-4393063Y9709493D01*
X-4180774Y9645095D01*
X-4015325Y9628800D01*
X-3604675Y9628800D01*
X-3439226Y9645095D01*
X-3226937Y9709493D01*
X-3031290Y9814068D01*
X-2859803Y9954803D01*
X-2719068Y10126290D01*
X-2614493Y10321937D01*
X-2550095Y10534226D01*
X-2528351Y10755000D01*
X1893351Y10755000D01*
X1915095Y10534226D01*
X1979493Y10321937D01*
X2084068Y10126290D01*
X2224803Y9954803D01*
X2396290Y9814068D01*
X2591937Y9709493D01*
X2804226Y9645095D01*
X2969675Y9628800D01*
X3380325Y9628800D01*
X3545774Y9645095D01*
X3758063Y9709493D01*
X3953710Y9814068D01*
X4125197Y9954803D01*
X4265932Y10126290D01*
X4370507Y10321937D01*
X4434905Y10534226D01*
X4456649Y10755000D01*
X8878351Y10755000D01*
X8900095Y10534226D01*
X8964493Y10321937D01*
X9069068Y10126290D01*
X9209803Y9954803D01*
X9381290Y9814068D01*
X9576937Y9709493D01*
X9789226Y9645095D01*
X9954675Y9628800D01*
X10365325Y9628800D01*
X10530774Y9645095D01*
X10743063Y9709493D01*
X10938710Y9814068D01*
X11110197Y9954803D01*
X11250932Y10126290D01*
X11355507Y10321937D01*
X11419905Y10534226D01*
X11441649Y10755000D01*
X11419905Y10975774D01*
X11355507Y11188063D01*
X11250932Y11383710D01*
X11110197Y11555197D01*
X10938710Y11695932D01*
X10743063Y11800507D01*
X10530774Y11864905D01*
X10365325Y11881200D01*
X9954675Y11881200D01*
X9789226Y11864905D01*
X9576937Y11800507D01*
X9381290Y11695932D01*
X9209803Y11555197D01*
X9069068Y11383710D01*
X8964493Y11188063D01*
X8900095Y10975774D01*
X8878351Y10755000D01*
X4456649Y10755000D01*
X4434905Y10975774D01*
X4370507Y11188063D01*
X4265932Y11383710D01*
X4125197Y11555197D01*
X3953710Y11695932D01*
X3758063Y11800507D01*
X3545774Y11864905D01*
X3380325Y11881200D01*
X2969675Y11881200D01*
X2804226Y11864905D01*
X2591937Y11800507D01*
X2396290Y11695932D01*
X2224803Y11555197D01*
X2084068Y11383710D01*
X1979493Y11188063D01*
X1915095Y10975774D01*
X1893351Y10755000D01*
X-2528351Y10755000D01*
X-2550095Y10975774D01*
X-2614493Y11188063D01*
X-2719068Y11383710D01*
X-2859803Y11555197D01*
X-3031290Y11695932D01*
X-3226937Y11800507D01*
X-3439226Y11864905D01*
X-3604675Y11881200D01*
X-4015325Y11881200D01*
X-4180774Y11864905D01*
X-4393063Y11800507D01*
X-4588710Y11695932D01*
X-4760197Y11555197D01*
X-4900932Y11383710D01*
X-5005507Y11188063D01*
X-5069905Y10975774D01*
X-5091649Y10755000D01*
X-5184800Y10755000D01*
X-5184800Y13693800D01*
X-2168026Y13693800D01*
X-2131975Y13696163D01*
X-1967625Y13717800D01*
X-1897979Y13736462D01*
X-1744829Y13799899D01*
X-1682387Y13835949D01*
X-1550874Y13936862D01*
X-1523710Y13960684D01*
X2284887Y17769281D01*
X2249493Y17703063D01*
X2185095Y17490774D01*
X2168800Y17325325D01*
X2168800Y16964676D01*
X2185095Y16799227D01*
X2249493Y16586938D01*
X2354068Y16391290D01*
X2494803Y16219803D01*
X2666290Y16079068D01*
X2861937Y15974493D01*
X3074226Y15910095D01*
X3295000Y15888351D01*
X3515773Y15910095D01*
X3728062Y15974493D01*
X3923710Y16079068D01*
X4095197Y16219803D01*
X4235932Y16391290D01*
X4340507Y16586937D01*
X4404905Y16799226D01*
X4421200Y16964675D01*
X4421200Y17325324D01*
X4421200Y17325325D01*
X4668800Y17325325D01*
X4668800Y16964676D01*
X4685095Y16799227D01*
X4749493Y16586938D01*
X4854068Y16391290D01*
X4994803Y16219803D01*
X5166290Y16079068D01*
X5361937Y15974493D01*
X5574226Y15910095D01*
X5795000Y15888351D01*
X6015773Y15910095D01*
X6228062Y15974493D01*
X6423710Y16079068D01*
X6595197Y16219803D01*
X6735932Y16391290D01*
X6840507Y16586937D01*
X6904905Y16799226D01*
X6921200Y16964675D01*
X6921200Y17325324D01*
X6921200Y17325325D01*
X7168800Y17325325D01*
X7168800Y16964676D01*
X7185095Y16799227D01*
X7249493Y16586938D01*
X7354068Y16391290D01*
X7494803Y16219803D01*
X7666290Y16079068D01*
X7861937Y15974493D01*
X8074226Y15910095D01*
X8295000Y15888351D01*
X8515773Y15910095D01*
X8728062Y15974493D01*
X8923710Y16079068D01*
X9095197Y16219803D01*
X9235932Y16391290D01*
X9340507Y16586937D01*
X9404905Y16799226D01*
X9421200Y16964675D01*
X9421200Y17325324D01*
X9404905Y17490773D01*
X9340507Y17703062D01*
X9251278Y17870000D01*
X9667464Y17870000D01*
X9667464Y16420000D01*
X9677600Y16317083D01*
X9707620Y16218121D01*
X9756370Y16126917D01*
X9821976Y16046976D01*
X9901917Y15981370D01*
X9993121Y15932620D01*
X10092083Y15902600D01*
X10195000Y15892464D01*
X11395000Y15892464D01*
X11497917Y15902600D01*
X11596879Y15932620D01*
X11688083Y15981370D01*
X11768024Y16046976D01*
X11833630Y16126917D01*
X11882380Y16218121D01*
X11912400Y16317083D01*
X11922536Y16420000D01*
X11922536Y17870000D01*
X11912400Y17972917D01*
X11882380Y18071879D01*
X11833630Y18163083D01*
X11768024Y18243024D01*
X11688083Y18308630D01*
X11596879Y18357380D01*
X11497917Y18387400D01*
X11395000Y18397536D01*
X10195000Y18397536D01*
X10092083Y18387400D01*
X9993121Y18357380D01*
X9901917Y18308630D01*
X9821976Y18243024D01*
X9756370Y18163083D01*
X9707620Y18071879D01*
X9677600Y17972917D01*
X9667464Y17870000D01*
X9251278Y17870000D01*
X9235932Y17898710D01*
X9095197Y18070197D01*
X8923710Y18210932D01*
X8728063Y18315507D01*
X8515774Y18379905D01*
X8295000Y18401649D01*
X8074227Y18379905D01*
X7861938Y18315507D01*
X7666291Y18210932D01*
X7494804Y18070197D01*
X7354068Y17898710D01*
X7249493Y17703063D01*
X7185095Y17490774D01*
X7168800Y17325325D01*
X6921200Y17325325D01*
X6904905Y17490773D01*
X6840507Y17703062D01*
X6735932Y17898710D01*
X6595197Y18070197D01*
X6423710Y18210932D01*
X6228063Y18315507D01*
X6015774Y18379905D01*
X5795000Y18401649D01*
X5574227Y18379905D01*
X5361938Y18315507D01*
X5166291Y18210932D01*
X4994804Y18070197D01*
X4854068Y17898710D01*
X4749493Y17703063D01*
X4685095Y17490774D01*
X4668800Y17325325D01*
X4421200Y17325325D01*
X4404905Y17490773D01*
X4340507Y17703062D01*
X4235932Y17898710D01*
X4095197Y18070197D01*
X3923710Y18210932D01*
X3728063Y18315507D01*
X3515774Y18379905D01*
X3295000Y18401649D01*
X3074227Y18379905D01*
X2861938Y18315507D01*
X2795718Y18280112D01*
X5089316Y20573710D01*
X5113138Y20600874D01*
X5214051Y20732387D01*
X5250101Y20794829D01*
X5313538Y20947979D01*
X5332200Y21017625D01*
X5353837Y21181975D01*
X5356200Y21218026D01*
X5356200Y28521348D01*
X5397705Y28443697D01*
X5540140Y28270140D01*
X5713697Y28127705D01*
X5911707Y28021867D01*
X6126560Y27956692D01*
X6294005Y27940200D01*
X6405995Y27940200D01*
X6573440Y27956692D01*
X6788293Y28021867D01*
X6986303Y28127705D01*
X7159860Y28270140D01*
X7302295Y28443697D01*
X7408133Y28641707D01*
X7473308Y28856560D01*
X7495315Y29080000D01*
X7744685Y29080000D01*
X7766692Y28856560D01*
X7831867Y28641707D01*
X7937705Y28443697D01*
X8080140Y28270140D01*
X8253697Y28127705D01*
X8451707Y28021867D01*
X8666560Y27956692D01*
X8834005Y27940200D01*
X8945995Y27940200D01*
X9113440Y27956692D01*
X9328293Y28021867D01*
X9526303Y28127705D01*
X9699860Y28270140D01*
X9842295Y28443697D01*
X9948133Y28641707D01*
X10013308Y28856560D01*
X10035315Y29080000D01*
X10013308Y29303440D01*
X9948133Y29518293D01*
X9842295Y29716303D01*
X9699860Y29889860D01*
X9526303Y30032295D01*
X9328293Y30138133D01*
X9113440Y30203308D01*
X8945995Y30219800D01*
X8834005Y30219800D01*
X8666560Y30203308D01*
X8451707Y30138133D01*
X8253697Y30032295D01*
X8080140Y29889860D01*
X7937705Y29716303D01*
X7831867Y29518293D01*
X7766692Y29303440D01*
X7744685Y29080000D01*
X7495315Y29080000D01*
X7473308Y29303440D01*
X7408133Y29518293D01*
X7302295Y29716303D01*
X7159860Y29889860D01*
X6986303Y30032295D01*
X6788293Y30138133D01*
X6573440Y30203308D01*
X6405995Y30219800D01*
X6294005Y30219800D01*
X6126560Y30203308D01*
X5911707Y30138133D01*
X5713697Y30032295D01*
X5540140Y29889860D01*
X5397705Y29716303D01*
X5356200Y29638652D01*
X5356200Y31061348D01*
X5397705Y30983697D01*
X5540140Y30810140D01*
X5713697Y30667705D01*
X5911707Y30561867D01*
X6126560Y30496692D01*
X6294005Y30480200D01*
X6405995Y30480200D01*
X6573440Y30496692D01*
X6788293Y30561867D01*
X6986303Y30667705D01*
X7159860Y30810140D01*
X7302295Y30983697D01*
X7408133Y31181707D01*
X7473308Y31396560D01*
X7495315Y31620000D01*
X7473308Y31843440D01*
X7408133Y32058293D01*
X7302295Y32256303D01*
X7159860Y32429860D01*
X7094378Y32483600D01*
X7748864Y32483600D01*
X7748864Y30756400D01*
X7754197Y30702255D01*
X7769990Y30650192D01*
X7795637Y30602209D01*
X7830152Y30560152D01*
X7872209Y30525637D01*
X7920192Y30499990D01*
X7972255Y30484197D01*
X8026400Y30478864D01*
X9753600Y30478864D01*
X9807745Y30484197D01*
X9859808Y30499990D01*
X9907791Y30525637D01*
X9949848Y30560152D01*
X9984363Y30602209D01*
X10010010Y30650192D01*
X10025803Y30702255D01*
X10031136Y30756400D01*
X10031136Y32483600D01*
X10025803Y32537745D01*
X10010010Y32589808D01*
X9984363Y32637791D01*
X9949848Y32679848D01*
X9907791Y32714363D01*
X9859808Y32740010D01*
X9807745Y32755803D01*
X9753600Y32761136D01*
X8026400Y32761136D01*
X7972255Y32755803D01*
X7920192Y32740010D01*
X7872209Y32714363D01*
X7830152Y32679848D01*
X7795637Y32637791D01*
X7769990Y32589808D01*
X7754197Y32537745D01*
X7748864Y32483600D01*
X7094378Y32483600D01*
X6986303Y32572295D01*
X6788293Y32678133D01*
X6573440Y32743308D01*
X6405995Y32759800D01*
X6294005Y32759800D01*
X6126560Y32743308D01*
X5911707Y32678133D01*
X5713697Y32572295D01*
X5540140Y32429860D01*
X5397705Y32256303D01*
X5356200Y32178652D01*
X5356200Y32385000D01*
X5353837Y32421051D01*
X5332200Y32585401D01*
X5313538Y32655047D01*
X5250101Y32808197D01*
X5214051Y32870639D01*
X5113138Y33002152D01*
X5062152Y33053138D01*
X4930639Y33154051D01*
X4868197Y33190101D01*
X4715047Y33253538D01*
X4645401Y33272200D01*
X4481051Y33293837D01*
X4445000Y33296200D01*
X-1905000Y33296200D01*
X-1941051Y33293837D01*
X-2105401Y33272200D01*
X-2175047Y33253538D01*
X-2328197Y33190101D01*
X-2390639Y33154051D01*
X-2522152Y33053138D01*
X-2573138Y33002152D01*
X-2674051Y32870639D01*
X-2710101Y32808197D01*
X-2773538Y32655047D01*
X-2792200Y32585401D01*
X-2813837Y32421051D01*
X-2816200Y32385000D01*
X-2816200Y32273146D01*
X-2915252Y32410337D01*
X-3086631Y32569708D01*
X-3209409Y32651721D01*
X-3378200Y32643926D01*
X-3378200Y32051800D01*
X-3358200Y32051800D01*
X-3358200Y31188200D01*
X-3378200Y31188200D01*
X-3378200Y30596074D01*
X-3209409Y30588279D01*
X-3086631Y30670292D01*
X-2915252Y30829663D01*
X-2816200Y30966854D01*
X-2816200Y29638652D01*
X-2857705Y29716303D01*
X-3000140Y29889860D01*
X-3173697Y30032295D01*
X-3371707Y30138133D01*
X-3586560Y30203308D01*
X-3754005Y30219800D01*
X-3865995Y30219800D01*
X-4033440Y30203308D01*
X-4248293Y30138133D01*
X-4446303Y30032295D01*
X-4619860Y29889860D01*
X-4762295Y29716303D01*
X-4868133Y29518293D01*
X-4933308Y29303440D01*
X-4955315Y29080000D01*
X-4933308Y28856560D01*
X-4868133Y28641707D01*
X-4762295Y28443697D01*
X-4619860Y28270140D01*
X-4446303Y28127705D01*
X-4248293Y28021867D01*
X-4033440Y27956692D01*
X-3865995Y27940200D01*
X-3754005Y27940200D01*
X-3586560Y27956692D01*
X-3371707Y28021867D01*
X-3173697Y28127705D01*
X-3000140Y28270140D01*
X-2857705Y28443697D01*
X-2816200Y28521348D01*
X-2816200Y23776128D01*
X-2830728Y23665777D01*
X-2866333Y23579819D01*
X-2934091Y23491515D01*
X-4441515Y21984091D01*
X-4529819Y21916333D01*
X-4615777Y21880728D01*
X-4726128Y21866200D01*
X-7620000Y21866200D01*
X-7656051Y21863837D01*
X-7820401Y21842200D01*
X-7890047Y21823538D01*
X-8043197Y21760101D01*
X-8105639Y21724051D01*
X-8237152Y21623138D01*
X-8288138Y21572152D01*
X-8389051Y21440639D01*
X-8425101Y21378197D01*
X-8488538Y21225047D01*
X-8507200Y21155401D01*
X-8528837Y20991051D01*
X-8531200Y20955000D01*
X-8531200Y18618721D01*
X-8599390Y18783346D01*
X-8841824Y19042519D01*
X-10104343Y17780000D01*
X-11325657Y17780000D01*
X-12588176Y19042519D01*
X-12830610Y18783346D01*
X-12985702Y18351332D01*
X-13053533Y17897362D01*
X-14119001Y17897362D01*
X-14119001Y19653176D01*
X-11977519Y19653176D01*
X-10715000Y18390657D01*
X-9452481Y19653176D01*
X-9711654Y19895610D01*
X-10143668Y20050702D01*
X-10597638Y20118533D01*
X-11056118Y20096495D01*
X-11501489Y19985435D01*
X-11718346Y19895610D01*
X-11977519Y19653176D01*
X-14119001Y19653176D01*
X-14119001Y29080000D01*
X-10035315Y29080000D01*
X-10013308Y28856560D01*
X-9948133Y28641707D01*
X-9842295Y28443697D01*
X-9699860Y28270140D01*
X-9526303Y28127705D01*
X-9328293Y28021867D01*
X-9113440Y27956692D01*
X-8945995Y27940200D01*
X-8834005Y27940200D01*
X-8666560Y27956692D01*
X-8451707Y28021867D01*
X-8253697Y28127705D01*
X-8080140Y28270140D01*
X-7937705Y28443697D01*
X-7831867Y28641707D01*
X-7766692Y28856560D01*
X-7744685Y29080000D01*
X-7495315Y29080000D01*
X-7473308Y28856560D01*
X-7408133Y28641707D01*
X-7302295Y28443697D01*
X-7159860Y28270140D01*
X-6986303Y28127705D01*
X-6788293Y28021867D01*
X-6573440Y27956692D01*
X-6405995Y27940200D01*
X-6294005Y27940200D01*
X-6126560Y27956692D01*
X-5911707Y28021867D01*
X-5713697Y28127705D01*
X-5540140Y28270140D01*
X-5397705Y28443697D01*
X-5291867Y28641707D01*
X-5226692Y28856560D01*
X-5204685Y29080000D01*
X-5226692Y29303440D01*
X-5291867Y29518293D01*
X-5397705Y29716303D01*
X-5540140Y29889860D01*
X-5713697Y30032295D01*
X-5911707Y30138133D01*
X-6126560Y30203308D01*
X-6294005Y30219800D01*
X-6405995Y30219800D01*
X-6573440Y30203308D01*
X-6788293Y30138133D01*
X-6986303Y30032295D01*
X-7159860Y29889860D01*
X-7302295Y29716303D01*
X-7408133Y29518293D01*
X-7473308Y29303440D01*
X-7495315Y29080000D01*
X-7744685Y29080000D01*
X-7766692Y29303440D01*
X-7831867Y29518293D01*
X-7937705Y29716303D01*
X-8080140Y29889860D01*
X-8253697Y30032295D01*
X-8451707Y30138133D01*
X-8666560Y30203308D01*
X-8834005Y30219800D01*
X-8945995Y30219800D01*
X-9113440Y30203308D01*
X-9328293Y30138133D01*
X-9526303Y30032295D01*
X-9699860Y29889860D01*
X-9842295Y29716303D01*
X-9948133Y29518293D01*
X-10013308Y29303440D01*
X-10035315Y29080000D01*
X-14119001Y29080000D01*
X-14119001Y31019406D01*
X-9921743Y31019406D01*
X-9784748Y30829663D01*
X-9613369Y30670292D01*
X-9490591Y30588279D01*
X-9321800Y30596074D01*
X-9321800Y31188200D01*
X-8458200Y31188200D01*
X-8458200Y30596074D01*
X-8289409Y30588279D01*
X-8166631Y30670292D01*
X-7995252Y30829663D01*
X-7858257Y31019406D01*
X-7381743Y31019406D01*
X-7244748Y30829663D01*
X-7073369Y30670292D01*
X-6950591Y30588279D01*
X-6781800Y30596074D01*
X-6781800Y31188200D01*
X-5918200Y31188200D01*
X-5918200Y30596074D01*
X-5749409Y30588279D01*
X-5626631Y30670292D01*
X-5455252Y30829663D01*
X-5318257Y31019406D01*
X-4841743Y31019406D01*
X-4704748Y30829663D01*
X-4533369Y30670292D01*
X-4410591Y30588279D01*
X-4241800Y30596074D01*
X-4241800Y31188200D01*
X-4840444Y31188200D01*
X-4841743Y31019406D01*
X-5318257Y31019406D01*
X-5319556Y31188200D01*
X-5918200Y31188200D01*
X-6781800Y31188200D01*
X-7380444Y31188200D01*
X-7381743Y31019406D01*
X-7858257Y31019406D01*
X-7859556Y31188200D01*
X-8458200Y31188200D01*
X-9321800Y31188200D01*
X-9920444Y31188200D01*
X-9921743Y31019406D01*
X-14119001Y31019406D01*
X-14119001Y32220594D01*
X-9921743Y32220594D01*
X-9920444Y32051800D01*
X-9321800Y32051800D01*
X-9321800Y32643926D01*
X-8458200Y32643926D01*
X-8458200Y32051800D01*
X-7859556Y32051800D01*
X-7858257Y32220594D01*
X-7381743Y32220594D01*
X-7380444Y32051800D01*
X-6781800Y32051800D01*
X-6781800Y32643926D01*
X-5918200Y32643926D01*
X-5918200Y32051800D01*
X-5319556Y32051800D01*
X-5318257Y32220594D01*
X-4841743Y32220594D01*
X-4840444Y32051800D01*
X-4241800Y32051800D01*
X-4241800Y32643926D01*
X-4410591Y32651721D01*
X-4533369Y32569708D01*
X-4704748Y32410337D01*
X-4841743Y32220594D01*
X-5318257Y32220594D01*
X-5455252Y32410337D01*
X-5626631Y32569708D01*
X-5749409Y32651721D01*
X-5918200Y32643926D01*
X-6781800Y32643926D01*
X-6950591Y32651721D01*
X-7073369Y32569708D01*
X-7244748Y32410337D01*
X-7381743Y32220594D01*
X-7858257Y32220594D01*
X-7995252Y32410337D01*
X-8166631Y32569708D01*
X-8289409Y32651721D01*
X-8458200Y32643926D01*
X-9321800Y32643926D01*
X-9490591Y32651721D01*
X-9613369Y32569708D01*
X-9784748Y32410337D01*
X-9921743Y32220594D01*
X-14119001Y32220594D01*
X-14119001Y44842376D01*
X-12476200Y44842376D01*
X-12476200Y44157624D01*
X-12342612Y43486030D01*
X-12080569Y42853402D01*
X-11700141Y42284052D01*
X-11215948Y41799859D01*
X-10646598Y41419431D01*
X-10013970Y41157388D01*
X-9342376Y41023800D01*
X-8657624Y41023800D01*
X-7986030Y41157388D01*
X-7353402Y41419431D01*
X-6784052Y41799859D01*
X-6299859Y42284052D01*
X-5919431Y42853402D01*
X-5657388Y43486030D01*
X-5523800Y44157624D01*
X-5523800Y44842376D01*
X5523800Y44842376D01*
X5523800Y44157624D01*
X5657388Y43486030D01*
X5919431Y42853402D01*
X6299859Y42284052D01*
X6784052Y41799859D01*
X7353402Y41419431D01*
X7986030Y41157388D01*
X8657624Y41023800D01*
X9342376Y41023800D01*
X10013970Y41157388D01*
X10646598Y41419431D01*
X11215948Y41799859D01*
X11700141Y42284052D01*
X12080569Y42853402D01*
X12342612Y43486030D01*
X12476200Y44157624D01*
X12476200Y44842376D01*
X12342612Y45513970D01*
X12080569Y46146598D01*
X11700141Y46715948D01*
X11215948Y47200141D01*
X10646598Y47580569D01*
X10013970Y47842612D01*
X9342376Y47976200D01*
X8657624Y47976200D01*
X7986030Y47842612D01*
X7353402Y47580569D01*
X6784052Y47200141D01*
X6299859Y46715948D01*
X5919431Y46146598D01*
X5657388Y45513970D01*
X5523800Y44842376D01*
X-5523800Y44842376D01*
X-5657388Y45513970D01*
X-5919431Y46146598D01*
X-6299859Y46715948D01*
X-6784052Y47200141D01*
X-7353402Y47580569D01*
X-7986030Y47842612D01*
X-8657624Y47976200D01*
X-9342376Y47976200D01*
X-10013970Y47842612D01*
X-10646598Y47580569D01*
X-11215948Y47200141D01*
X-11700141Y46715948D01*
X-12080569Y46146598D01*
X-12342612Y45513970D01*
X-12476200Y44842376D01*
X-14119001Y44842376D01*
X-14119001Y48981360D01*
X-14105419Y49119876D01*
X-14070606Y49235185D01*
X-14014058Y49341537D01*
X-13937927Y49434883D01*
X-13845119Y49511660D01*
X-13739163Y49568951D01*
X-13624102Y49604568D01*
X-13486783Y49619001D01*
X13481362Y49619001D01*
X13619877Y49605419D01*
X13619877Y49605419D01*
G37*
X13619877Y49605419D02*
X13735187Y49570605D01*
X13841540Y49514056D01*
X13934884Y49437926D01*
X14011659Y49345121D01*
X14068951Y49239162D01*
X14104568Y49124102D01*
X14119002Y48986773D01*
X14119001Y1018629D01*
X14105420Y880124D01*
X14070606Y764814D01*
X14014057Y658460D01*
X13937927Y565117D01*
X13845122Y488341D01*
X13739163Y431049D01*
X13624103Y395432D01*
X13486782Y380999D01*
X-13481362Y380999D01*
X-13619876Y394581D01*
X-13735189Y429395D01*
X-13841537Y485942D01*
X-13934883Y562072D01*
X-14011660Y654880D01*
X-14068951Y760837D01*
X-14104568Y875897D01*
X-14119001Y1013218D01*
X-14119001Y11845000D01*
X-12122536Y11845000D01*
X-12122536Y9745000D01*
X-12117203Y9690855D01*
X-12101410Y9638792D01*
X-12075763Y9590809D01*
X-12041248Y9548752D01*
X-11999191Y9514237D01*
X-11951208Y9488590D01*
X-11899145Y9472797D01*
X-11845000Y9467464D01*
X-11333380Y9467464D01*
X-11423191Y9430263D01*
X-11640403Y9285127D01*
X-11825127Y9100403D01*
X-11970263Y8883191D01*
X-12070235Y8641838D01*
X-12121200Y8385619D01*
X-12121200Y8124381D01*
X-12070235Y7868162D01*
X-11970263Y7626809D01*
X-11825127Y7409597D01*
X-11640403Y7224873D01*
X-11423191Y7079737D01*
X-11181838Y6979765D01*
X-10925619Y6928800D01*
X-10664381Y6928800D01*
X-10408162Y6979765D01*
X-10166809Y7079737D01*
X-9949597Y7224873D01*
X-9764873Y7409597D01*
X-9619737Y7626809D01*
X-9519765Y7868162D01*
X-9468800Y8124381D01*
X-9468800Y8385619D01*
X-9519765Y8641838D01*
X-9619737Y8883191D01*
X-9764873Y9100403D01*
X-9949597Y9285127D01*
X-10166809Y9430263D01*
X-10256620Y9467464D01*
X-9745000Y9467464D01*
X-9690855Y9472797D01*
X-9638792Y9488590D01*
X-9590809Y9514237D01*
X-9548752Y9548752D01*
X-9514237Y9590809D01*
X-9488590Y9638792D01*
X-9472797Y9690855D01*
X-9467464Y9745000D01*
X-9467464Y11845000D01*
X-9472797Y11899145D01*
X-9488590Y11951208D01*
X-9514237Y11999191D01*
X-9548752Y12041248D01*
X-9590809Y12075763D01*
X-9638792Y12101410D01*
X-9690855Y12117203D01*
X-9745000Y12122536D01*
X-11845000Y12122536D01*
X-11899145Y12117203D01*
X-11951208Y12101410D01*
X-11999191Y12075763D01*
X-12041248Y12041248D01*
X-12075763Y11999191D01*
X-12101410Y11951208D01*
X-12117203Y11899145D01*
X-12122536Y11845000D01*
X-14119001Y11845000D01*
X-14119001Y15906824D01*
X-11977519Y15906824D01*
X-11718346Y15664390D01*
X-11286332Y15509298D01*
X-10832362Y15441467D01*
X-10373882Y15463505D01*
X-9928511Y15574565D01*
X-9711654Y15664390D01*
X-9452481Y15906824D01*
X-10715000Y17169343D01*
X-11977519Y15906824D01*
X-14119001Y15906824D01*
X-14119001Y17897362D01*
X-13053533Y17897362D01*
X-13031495Y17438882D01*
X-12920435Y16993511D01*
X-12830610Y16776654D01*
X-12588176Y16517481D01*
X-11325657Y17780000D01*
X-10104343Y17780000D01*
X-8841824Y16517481D01*
X-8599390Y16776654D01*
X-8531200Y16966600D01*
X-8531200Y14605000D01*
X-8528837Y14568949D01*
X-8507200Y14404599D01*
X-8488538Y14334953D01*
X-8425101Y14181803D01*
X-8389051Y14119361D01*
X-8288138Y13987848D01*
X-8237152Y13936862D01*
X-8105639Y13835949D01*
X-8043197Y13799899D01*
X-7890047Y13736462D01*
X-7820401Y13717800D01*
X-7656051Y13696163D01*
X-7620000Y13693800D01*
X-6245199Y13693800D01*
X-6245200Y5868040D01*
X-6247765Y5842000D01*
X-6245200Y5815960D01*
X-6245200Y5815958D01*
X-6237528Y5738064D01*
X-6207211Y5638121D01*
X-6157978Y5546012D01*
X-6091722Y5465278D01*
X-6071486Y5448671D01*
X-4357458Y3734642D01*
X-4333214Y3612760D01*
X-4282241Y3489699D01*
X-4208239Y3378948D01*
X-4114052Y3284761D01*
X-4003301Y3210759D01*
X-3880240Y3159786D01*
X-3749600Y3133800D01*
X-3616400Y3133800D01*
X-3485760Y3159786D01*
X-3362699Y3210759D01*
X-3251948Y3284761D01*
X-3157761Y3378948D01*
X-3083759Y3489699D01*
X-3032786Y3612760D01*
X-3006800Y3743400D01*
X-3006800Y3876600D01*
X-3032786Y4007240D01*
X-3083759Y4130301D01*
X-3157761Y4241052D01*
X-3251948Y4335239D01*
X-3362699Y4409241D01*
X-3485760Y4460214D01*
X-3607642Y4484458D01*
X-5184800Y6061615D01*
X-5184800Y8855000D01*
X-5087536Y8855000D01*
X-5087536Y7655000D01*
X-5077400Y7552083D01*
X-5047380Y7453121D01*
X-4998630Y7361917D01*
X-4933024Y7281976D01*
X-4853083Y7216370D01*
X-4761879Y7167620D01*
X-4662917Y7137600D01*
X-4560000Y7127464D01*
X-3060000Y7127464D01*
X-2957083Y7137600D01*
X-2858121Y7167620D01*
X-2766917Y7216370D01*
X-2686976Y7281976D01*
X-2621370Y7361917D01*
X-2598342Y7405000D01*
X1843202Y7405000D01*
X1849577Y7340269D01*
X1868459Y7278026D01*
X1899120Y7220663D01*
X1940383Y7170383D01*
X1990663Y7129120D01*
X2048026Y7098459D01*
X2110269Y7079577D01*
X2175000Y7073202D01*
X2660650Y7074800D01*
X2743200Y7157350D01*
X2743200Y7823200D01*
X3606800Y7823200D01*
X3606800Y7157350D01*
X3689350Y7074800D01*
X4175000Y7073202D01*
X4239731Y7079577D01*
X4301974Y7098459D01*
X4359337Y7129120D01*
X4409617Y7170383D01*
X4450880Y7220663D01*
X4481541Y7278026D01*
X4500423Y7340269D01*
X4506798Y7405000D01*
X8828202Y7405000D01*
X8834577Y7340269D01*
X8853459Y7278026D01*
X8884120Y7220663D01*
X8925383Y7170383D01*
X8975663Y7129120D01*
X9033026Y7098459D01*
X9095269Y7079577D01*
X9160000Y7073202D01*
X9645650Y7074800D01*
X9728200Y7157350D01*
X9728200Y7823200D01*
X10591800Y7823200D01*
X10591800Y7157350D01*
X10674350Y7074800D01*
X11160000Y7073202D01*
X11224731Y7079577D01*
X11286974Y7098459D01*
X11344337Y7129120D01*
X11394617Y7170383D01*
X11435880Y7220663D01*
X11466541Y7278026D01*
X11485423Y7340269D01*
X11491798Y7405000D01*
X11490200Y7740650D01*
X11407650Y7823200D01*
X10591800Y7823200D01*
X9728200Y7823200D01*
X8912350Y7823200D01*
X8829800Y7740650D01*
X8828202Y7405000D01*
X4506798Y7405000D01*
X4505200Y7740650D01*
X4422650Y7823200D01*
X3606800Y7823200D01*
X2743200Y7823200D01*
X1927350Y7823200D01*
X1844800Y7740650D01*
X1843202Y7405000D01*
X-2598342Y7405000D01*
X-2572620Y7453121D01*
X-2542600Y7552083D01*
X-2532464Y7655000D01*
X-2532464Y8855000D01*
X-2542600Y8957917D01*
X-2572620Y9056879D01*
X-2598341Y9105000D01*
X1843202Y9105000D01*
X1844800Y8769350D01*
X1927350Y8686800D01*
X2743200Y8686800D01*
X2743200Y9352650D01*
X3606800Y9352650D01*
X3606800Y8686800D01*
X4422650Y8686800D01*
X4505200Y8769350D01*
X4506798Y9105000D01*
X8828202Y9105000D01*
X8829800Y8769350D01*
X8912350Y8686800D01*
X9728200Y8686800D01*
X9728200Y9352650D01*
X10591800Y9352650D01*
X10591800Y8686800D01*
X11407650Y8686800D01*
X11490200Y8769350D01*
X11491798Y9105000D01*
X11485423Y9169731D01*
X11466541Y9231974D01*
X11435880Y9289337D01*
X11394617Y9339617D01*
X11344337Y9380880D01*
X11286974Y9411541D01*
X11224731Y9430423D01*
X11160000Y9436798D01*
X10674350Y9435200D01*
X10591800Y9352650D01*
X9728200Y9352650D01*
X9645650Y9435200D01*
X9160000Y9436798D01*
X9095269Y9430423D01*
X9033026Y9411541D01*
X8975663Y9380880D01*
X8925383Y9339617D01*
X8884120Y9289337D01*
X8853459Y9231974D01*
X8834577Y9169731D01*
X8828202Y9105000D01*
X4506798Y9105000D01*
X4500423Y9169731D01*
X4481541Y9231974D01*
X4450880Y9289337D01*
X4409617Y9339617D01*
X4359337Y9380880D01*
X4301974Y9411541D01*
X4239731Y9430423D01*
X4175000Y9436798D01*
X3689350Y9435200D01*
X3606800Y9352650D01*
X2743200Y9352650D01*
X2660650Y9435200D01*
X2175000Y9436798D01*
X2110269Y9430423D01*
X2048026Y9411541D01*
X1990663Y9380880D01*
X1940383Y9339617D01*
X1899120Y9289337D01*
X1868459Y9231974D01*
X1849577Y9169731D01*
X1843202Y9105000D01*
X-2598341Y9105000D01*
X-2621370Y9148083D01*
X-2686976Y9228024D01*
X-2766917Y9293630D01*
X-2858121Y9342380D01*
X-2957083Y9372400D01*
X-3060000Y9382536D01*
X-4560000Y9382536D01*
X-4662917Y9372400D01*
X-4761879Y9342380D01*
X-4853083Y9293630D01*
X-4933024Y9228024D01*
X-4998630Y9148083D01*
X-5047380Y9056879D01*
X-5077400Y8957917D01*
X-5087536Y8855000D01*
X-5184800Y8855000D01*
X-5184800Y10755000D01*
X-5091649Y10755000D01*
X-5069905Y10534226D01*
X-5005507Y10321937D01*
X-4900932Y10126290D01*
X-4760197Y9954803D01*
X-4588710Y9814068D01*
X-4393063Y9709493D01*
X-4180774Y9645095D01*
X-4015325Y9628800D01*
X-3604675Y9628800D01*
X-3439226Y9645095D01*
X-3226937Y9709493D01*
X-3031290Y9814068D01*
X-2859803Y9954803D01*
X-2719068Y10126290D01*
X-2614493Y10321937D01*
X-2550095Y10534226D01*
X-2528351Y10755000D01*
X1893351Y10755000D01*
X1915095Y10534226D01*
X1979493Y10321937D01*
X2084068Y10126290D01*
X2224803Y9954803D01*
X2396290Y9814068D01*
X2591937Y9709493D01*
X2804226Y9645095D01*
X2969675Y9628800D01*
X3380325Y9628800D01*
X3545774Y9645095D01*
X3758063Y9709493D01*
X3953710Y9814068D01*
X4125197Y9954803D01*
X4265932Y10126290D01*
X4370507Y10321937D01*
X4434905Y10534226D01*
X4456649Y10755000D01*
X8878351Y10755000D01*
X8900095Y10534226D01*
X8964493Y10321937D01*
X9069068Y10126290D01*
X9209803Y9954803D01*
X9381290Y9814068D01*
X9576937Y9709493D01*
X9789226Y9645095D01*
X9954675Y9628800D01*
X10365325Y9628800D01*
X10530774Y9645095D01*
X10743063Y9709493D01*
X10938710Y9814068D01*
X11110197Y9954803D01*
X11250932Y10126290D01*
X11355507Y10321937D01*
X11419905Y10534226D01*
X11441649Y10755000D01*
X11419905Y10975774D01*
X11355507Y11188063D01*
X11250932Y11383710D01*
X11110197Y11555197D01*
X10938710Y11695932D01*
X10743063Y11800507D01*
X10530774Y11864905D01*
X10365325Y11881200D01*
X9954675Y11881200D01*
X9789226Y11864905D01*
X9576937Y11800507D01*
X9381290Y11695932D01*
X9209803Y11555197D01*
X9069068Y11383710D01*
X8964493Y11188063D01*
X8900095Y10975774D01*
X8878351Y10755000D01*
X4456649Y10755000D01*
X4434905Y10975774D01*
X4370507Y11188063D01*
X4265932Y11383710D01*
X4125197Y11555197D01*
X3953710Y11695932D01*
X3758063Y11800507D01*
X3545774Y11864905D01*
X3380325Y11881200D01*
X2969675Y11881200D01*
X2804226Y11864905D01*
X2591937Y11800507D01*
X2396290Y11695932D01*
X2224803Y11555197D01*
X2084068Y11383710D01*
X1979493Y11188063D01*
X1915095Y10975774D01*
X1893351Y10755000D01*
X-2528351Y10755000D01*
X-2550095Y10975774D01*
X-2614493Y11188063D01*
X-2719068Y11383710D01*
X-2859803Y11555197D01*
X-3031290Y11695932D01*
X-3226937Y11800507D01*
X-3439226Y11864905D01*
X-3604675Y11881200D01*
X-4015325Y11881200D01*
X-4180774Y11864905D01*
X-4393063Y11800507D01*
X-4588710Y11695932D01*
X-4760197Y11555197D01*
X-4900932Y11383710D01*
X-5005507Y11188063D01*
X-5069905Y10975774D01*
X-5091649Y10755000D01*
X-5184800Y10755000D01*
X-5184800Y13693800D01*
X-2168026Y13693800D01*
X-2131975Y13696163D01*
X-1967625Y13717800D01*
X-1897979Y13736462D01*
X-1744829Y13799899D01*
X-1682387Y13835949D01*
X-1550874Y13936862D01*
X-1523710Y13960684D01*
X2284887Y17769281D01*
X2249493Y17703063D01*
X2185095Y17490774D01*
X2168800Y17325325D01*
X2168800Y16964676D01*
X2185095Y16799227D01*
X2249493Y16586938D01*
X2354068Y16391290D01*
X2494803Y16219803D01*
X2666290Y16079068D01*
X2861937Y15974493D01*
X3074226Y15910095D01*
X3295000Y15888351D01*
X3515773Y15910095D01*
X3728062Y15974493D01*
X3923710Y16079068D01*
X4095197Y16219803D01*
X4235932Y16391290D01*
X4340507Y16586937D01*
X4404905Y16799226D01*
X4421200Y16964675D01*
X4421200Y17325324D01*
X4421200Y17325325D01*
X4668800Y17325325D01*
X4668800Y16964676D01*
X4685095Y16799227D01*
X4749493Y16586938D01*
X4854068Y16391290D01*
X4994803Y16219803D01*
X5166290Y16079068D01*
X5361937Y15974493D01*
X5574226Y15910095D01*
X5795000Y15888351D01*
X6015773Y15910095D01*
X6228062Y15974493D01*
X6423710Y16079068D01*
X6595197Y16219803D01*
X6735932Y16391290D01*
X6840507Y16586937D01*
X6904905Y16799226D01*
X6921200Y16964675D01*
X6921200Y17325324D01*
X6921200Y17325325D01*
X7168800Y17325325D01*
X7168800Y16964676D01*
X7185095Y16799227D01*
X7249493Y16586938D01*
X7354068Y16391290D01*
X7494803Y16219803D01*
X7666290Y16079068D01*
X7861937Y15974493D01*
X8074226Y15910095D01*
X8295000Y15888351D01*
X8515773Y15910095D01*
X8728062Y15974493D01*
X8923710Y16079068D01*
X9095197Y16219803D01*
X9235932Y16391290D01*
X9340507Y16586937D01*
X9404905Y16799226D01*
X9421200Y16964675D01*
X9421200Y17325324D01*
X9404905Y17490773D01*
X9340507Y17703062D01*
X9251278Y17870000D01*
X9667464Y17870000D01*
X9667464Y16420000D01*
X9677600Y16317083D01*
X9707620Y16218121D01*
X9756370Y16126917D01*
X9821976Y16046976D01*
X9901917Y15981370D01*
X9993121Y15932620D01*
X10092083Y15902600D01*
X10195000Y15892464D01*
X11395000Y15892464D01*
X11497917Y15902600D01*
X11596879Y15932620D01*
X11688083Y15981370D01*
X11768024Y16046976D01*
X11833630Y16126917D01*
X11882380Y16218121D01*
X11912400Y16317083D01*
X11922536Y16420000D01*
X11922536Y17870000D01*
X11912400Y17972917D01*
X11882380Y18071879D01*
X11833630Y18163083D01*
X11768024Y18243024D01*
X11688083Y18308630D01*
X11596879Y18357380D01*
X11497917Y18387400D01*
X11395000Y18397536D01*
X10195000Y18397536D01*
X10092083Y18387400D01*
X9993121Y18357380D01*
X9901917Y18308630D01*
X9821976Y18243024D01*
X9756370Y18163083D01*
X9707620Y18071879D01*
X9677600Y17972917D01*
X9667464Y17870000D01*
X9251278Y17870000D01*
X9235932Y17898710D01*
X9095197Y18070197D01*
X8923710Y18210932D01*
X8728063Y18315507D01*
X8515774Y18379905D01*
X8295000Y18401649D01*
X8074227Y18379905D01*
X7861938Y18315507D01*
X7666291Y18210932D01*
X7494804Y18070197D01*
X7354068Y17898710D01*
X7249493Y17703063D01*
X7185095Y17490774D01*
X7168800Y17325325D01*
X6921200Y17325325D01*
X6904905Y17490773D01*
X6840507Y17703062D01*
X6735932Y17898710D01*
X6595197Y18070197D01*
X6423710Y18210932D01*
X6228063Y18315507D01*
X6015774Y18379905D01*
X5795000Y18401649D01*
X5574227Y18379905D01*
X5361938Y18315507D01*
X5166291Y18210932D01*
X4994804Y18070197D01*
X4854068Y17898710D01*
X4749493Y17703063D01*
X4685095Y17490774D01*
X4668800Y17325325D01*
X4421200Y17325325D01*
X4404905Y17490773D01*
X4340507Y17703062D01*
X4235932Y17898710D01*
X4095197Y18070197D01*
X3923710Y18210932D01*
X3728063Y18315507D01*
X3515774Y18379905D01*
X3295000Y18401649D01*
X3074227Y18379905D01*
X2861938Y18315507D01*
X2795718Y18280112D01*
X5089316Y20573710D01*
X5113138Y20600874D01*
X5214051Y20732387D01*
X5250101Y20794829D01*
X5313538Y20947979D01*
X5332200Y21017625D01*
X5353837Y21181975D01*
X5356200Y21218026D01*
X5356200Y28521348D01*
X5397705Y28443697D01*
X5540140Y28270140D01*
X5713697Y28127705D01*
X5911707Y28021867D01*
X6126560Y27956692D01*
X6294005Y27940200D01*
X6405995Y27940200D01*
X6573440Y27956692D01*
X6788293Y28021867D01*
X6986303Y28127705D01*
X7159860Y28270140D01*
X7302295Y28443697D01*
X7408133Y28641707D01*
X7473308Y28856560D01*
X7495315Y29080000D01*
X7744685Y29080000D01*
X7766692Y28856560D01*
X7831867Y28641707D01*
X7937705Y28443697D01*
X8080140Y28270140D01*
X8253697Y28127705D01*
X8451707Y28021867D01*
X8666560Y27956692D01*
X8834005Y27940200D01*
X8945995Y27940200D01*
X9113440Y27956692D01*
X9328293Y28021867D01*
X9526303Y28127705D01*
X9699860Y28270140D01*
X9842295Y28443697D01*
X9948133Y28641707D01*
X10013308Y28856560D01*
X10035315Y29080000D01*
X10013308Y29303440D01*
X9948133Y29518293D01*
X9842295Y29716303D01*
X9699860Y29889860D01*
X9526303Y30032295D01*
X9328293Y30138133D01*
X9113440Y30203308D01*
X8945995Y30219800D01*
X8834005Y30219800D01*
X8666560Y30203308D01*
X8451707Y30138133D01*
X8253697Y30032295D01*
X8080140Y29889860D01*
X7937705Y29716303D01*
X7831867Y29518293D01*
X7766692Y29303440D01*
X7744685Y29080000D01*
X7495315Y29080000D01*
X7473308Y29303440D01*
X7408133Y29518293D01*
X7302295Y29716303D01*
X7159860Y29889860D01*
X6986303Y30032295D01*
X6788293Y30138133D01*
X6573440Y30203308D01*
X6405995Y30219800D01*
X6294005Y30219800D01*
X6126560Y30203308D01*
X5911707Y30138133D01*
X5713697Y30032295D01*
X5540140Y29889860D01*
X5397705Y29716303D01*
X5356200Y29638652D01*
X5356200Y31061348D01*
X5397705Y30983697D01*
X5540140Y30810140D01*
X5713697Y30667705D01*
X5911707Y30561867D01*
X6126560Y30496692D01*
X6294005Y30480200D01*
X6405995Y30480200D01*
X6573440Y30496692D01*
X6788293Y30561867D01*
X6986303Y30667705D01*
X7159860Y30810140D01*
X7302295Y30983697D01*
X7408133Y31181707D01*
X7473308Y31396560D01*
X7495315Y31620000D01*
X7473308Y31843440D01*
X7408133Y32058293D01*
X7302295Y32256303D01*
X7159860Y32429860D01*
X7094378Y32483600D01*
X7748864Y32483600D01*
X7748864Y30756400D01*
X7754197Y30702255D01*
X7769990Y30650192D01*
X7795637Y30602209D01*
X7830152Y30560152D01*
X7872209Y30525637D01*
X7920192Y30499990D01*
X7972255Y30484197D01*
X8026400Y30478864D01*
X9753600Y30478864D01*
X9807745Y30484197D01*
X9859808Y30499990D01*
X9907791Y30525637D01*
X9949848Y30560152D01*
X9984363Y30602209D01*
X10010010Y30650192D01*
X10025803Y30702255D01*
X10031136Y30756400D01*
X10031136Y32483600D01*
X10025803Y32537745D01*
X10010010Y32589808D01*
X9984363Y32637791D01*
X9949848Y32679848D01*
X9907791Y32714363D01*
X9859808Y32740010D01*
X9807745Y32755803D01*
X9753600Y32761136D01*
X8026400Y32761136D01*
X7972255Y32755803D01*
X7920192Y32740010D01*
X7872209Y32714363D01*
X7830152Y32679848D01*
X7795637Y32637791D01*
X7769990Y32589808D01*
X7754197Y32537745D01*
X7748864Y32483600D01*
X7094378Y32483600D01*
X6986303Y32572295D01*
X6788293Y32678133D01*
X6573440Y32743308D01*
X6405995Y32759800D01*
X6294005Y32759800D01*
X6126560Y32743308D01*
X5911707Y32678133D01*
X5713697Y32572295D01*
X5540140Y32429860D01*
X5397705Y32256303D01*
X5356200Y32178652D01*
X5356200Y32385000D01*
X5353837Y32421051D01*
X5332200Y32585401D01*
X5313538Y32655047D01*
X5250101Y32808197D01*
X5214051Y32870639D01*
X5113138Y33002152D01*
X5062152Y33053138D01*
X4930639Y33154051D01*
X4868197Y33190101D01*
X4715047Y33253538D01*
X4645401Y33272200D01*
X4481051Y33293837D01*
X4445000Y33296200D01*
X-1905000Y33296200D01*
X-1941051Y33293837D01*
X-2105401Y33272200D01*
X-2175047Y33253538D01*
X-2328197Y33190101D01*
X-2390639Y33154051D01*
X-2522152Y33053138D01*
X-2573138Y33002152D01*
X-2674051Y32870639D01*
X-2710101Y32808197D01*
X-2773538Y32655047D01*
X-2792200Y32585401D01*
X-2813837Y32421051D01*
X-2816200Y32385000D01*
X-2816200Y32273146D01*
X-2915252Y32410337D01*
X-3086631Y32569708D01*
X-3209409Y32651721D01*
X-3378200Y32643926D01*
X-3378200Y32051800D01*
X-3358200Y32051800D01*
X-3358200Y31188200D01*
X-3378200Y31188200D01*
X-3378200Y30596074D01*
X-3209409Y30588279D01*
X-3086631Y30670292D01*
X-2915252Y30829663D01*
X-2816200Y30966854D01*
X-2816200Y29638652D01*
X-2857705Y29716303D01*
X-3000140Y29889860D01*
X-3173697Y30032295D01*
X-3371707Y30138133D01*
X-3586560Y30203308D01*
X-3754005Y30219800D01*
X-3865995Y30219800D01*
X-4033440Y30203308D01*
X-4248293Y30138133D01*
X-4446303Y30032295D01*
X-4619860Y29889860D01*
X-4762295Y29716303D01*
X-4868133Y29518293D01*
X-4933308Y29303440D01*
X-4955315Y29080000D01*
X-4933308Y28856560D01*
X-4868133Y28641707D01*
X-4762295Y28443697D01*
X-4619860Y28270140D01*
X-4446303Y28127705D01*
X-4248293Y28021867D01*
X-4033440Y27956692D01*
X-3865995Y27940200D01*
X-3754005Y27940200D01*
X-3586560Y27956692D01*
X-3371707Y28021867D01*
X-3173697Y28127705D01*
X-3000140Y28270140D01*
X-2857705Y28443697D01*
X-2816200Y28521348D01*
X-2816200Y23776128D01*
X-2830728Y23665777D01*
X-2866333Y23579819D01*
X-2934091Y23491515D01*
X-4441515Y21984091D01*
X-4529819Y21916333D01*
X-4615777Y21880728D01*
X-4726128Y21866200D01*
X-7620000Y21866200D01*
X-7656051Y21863837D01*
X-7820401Y21842200D01*
X-7890047Y21823538D01*
X-8043197Y21760101D01*
X-8105639Y21724051D01*
X-8237152Y21623138D01*
X-8288138Y21572152D01*
X-8389051Y21440639D01*
X-8425101Y21378197D01*
X-8488538Y21225047D01*
X-8507200Y21155401D01*
X-8528837Y20991051D01*
X-8531200Y20955000D01*
X-8531200Y18618721D01*
X-8599390Y18783346D01*
X-8841824Y19042519D01*
X-10104343Y17780000D01*
X-11325657Y17780000D01*
X-12588176Y19042519D01*
X-12830610Y18783346D01*
X-12985702Y18351332D01*
X-13053533Y17897362D01*
X-14119001Y17897362D01*
X-14119001Y19653176D01*
X-11977519Y19653176D01*
X-10715000Y18390657D01*
X-9452481Y19653176D01*
X-9711654Y19895610D01*
X-10143668Y20050702D01*
X-10597638Y20118533D01*
X-11056118Y20096495D01*
X-11501489Y19985435D01*
X-11718346Y19895610D01*
X-11977519Y19653176D01*
X-14119001Y19653176D01*
X-14119001Y29080000D01*
X-10035315Y29080000D01*
X-10013308Y28856560D01*
X-9948133Y28641707D01*
X-9842295Y28443697D01*
X-9699860Y28270140D01*
X-9526303Y28127705D01*
X-9328293Y28021867D01*
X-9113440Y27956692D01*
X-8945995Y27940200D01*
X-8834005Y27940200D01*
X-8666560Y27956692D01*
X-8451707Y28021867D01*
X-8253697Y28127705D01*
X-8080140Y28270140D01*
X-7937705Y28443697D01*
X-7831867Y28641707D01*
X-7766692Y28856560D01*
X-7744685Y29080000D01*
X-7495315Y29080000D01*
X-7473308Y28856560D01*
X-7408133Y28641707D01*
X-7302295Y28443697D01*
X-7159860Y28270140D01*
X-6986303Y28127705D01*
X-6788293Y28021867D01*
X-6573440Y27956692D01*
X-6405995Y27940200D01*
X-6294005Y27940200D01*
X-6126560Y27956692D01*
X-5911707Y28021867D01*
X-5713697Y28127705D01*
X-5540140Y28270140D01*
X-5397705Y28443697D01*
X-5291867Y28641707D01*
X-5226692Y28856560D01*
X-5204685Y29080000D01*
X-5226692Y29303440D01*
X-5291867Y29518293D01*
X-5397705Y29716303D01*
X-5540140Y29889860D01*
X-5713697Y30032295D01*
X-5911707Y30138133D01*
X-6126560Y30203308D01*
X-6294005Y30219800D01*
X-6405995Y30219800D01*
X-6573440Y30203308D01*
X-6788293Y30138133D01*
X-6986303Y30032295D01*
X-7159860Y29889860D01*
X-7302295Y29716303D01*
X-7408133Y29518293D01*
X-7473308Y29303440D01*
X-7495315Y29080000D01*
X-7744685Y29080000D01*
X-7766692Y29303440D01*
X-7831867Y29518293D01*
X-7937705Y29716303D01*
X-8080140Y29889860D01*
X-8253697Y30032295D01*
X-8451707Y30138133D01*
X-8666560Y30203308D01*
X-8834005Y30219800D01*
X-8945995Y30219800D01*
X-9113440Y30203308D01*
X-9328293Y30138133D01*
X-9526303Y30032295D01*
X-9699860Y29889860D01*
X-9842295Y29716303D01*
X-9948133Y29518293D01*
X-10013308Y29303440D01*
X-10035315Y29080000D01*
X-14119001Y29080000D01*
X-14119001Y31019406D01*
X-9921743Y31019406D01*
X-9784748Y30829663D01*
X-9613369Y30670292D01*
X-9490591Y30588279D01*
X-9321800Y30596074D01*
X-9321800Y31188200D01*
X-8458200Y31188200D01*
X-8458200Y30596074D01*
X-8289409Y30588279D01*
X-8166631Y30670292D01*
X-7995252Y30829663D01*
X-7858257Y31019406D01*
X-7381743Y31019406D01*
X-7244748Y30829663D01*
X-7073369Y30670292D01*
X-6950591Y30588279D01*
X-6781800Y30596074D01*
X-6781800Y31188200D01*
X-5918200Y31188200D01*
X-5918200Y30596074D01*
X-5749409Y30588279D01*
X-5626631Y30670292D01*
X-5455252Y30829663D01*
X-5318257Y31019406D01*
X-4841743Y31019406D01*
X-4704748Y30829663D01*
X-4533369Y30670292D01*
X-4410591Y30588279D01*
X-4241800Y30596074D01*
X-4241800Y31188200D01*
X-4840444Y31188200D01*
X-4841743Y31019406D01*
X-5318257Y31019406D01*
X-5319556Y31188200D01*
X-5918200Y31188200D01*
X-6781800Y31188200D01*
X-7380444Y31188200D01*
X-7381743Y31019406D01*
X-7858257Y31019406D01*
X-7859556Y31188200D01*
X-8458200Y31188200D01*
X-9321800Y31188200D01*
X-9920444Y31188200D01*
X-9921743Y31019406D01*
X-14119001Y31019406D01*
X-14119001Y32220594D01*
X-9921743Y32220594D01*
X-9920444Y32051800D01*
X-9321800Y32051800D01*
X-9321800Y32643926D01*
X-8458200Y32643926D01*
X-8458200Y32051800D01*
X-7859556Y32051800D01*
X-7858257Y32220594D01*
X-7381743Y32220594D01*
X-7380444Y32051800D01*
X-6781800Y32051800D01*
X-6781800Y32643926D01*
X-5918200Y32643926D01*
X-5918200Y32051800D01*
X-5319556Y32051800D01*
X-5318257Y32220594D01*
X-4841743Y32220594D01*
X-4840444Y32051800D01*
X-4241800Y32051800D01*
X-4241800Y32643926D01*
X-4410591Y32651721D01*
X-4533369Y32569708D01*
X-4704748Y32410337D01*
X-4841743Y32220594D01*
X-5318257Y32220594D01*
X-5455252Y32410337D01*
X-5626631Y32569708D01*
X-5749409Y32651721D01*
X-5918200Y32643926D01*
X-6781800Y32643926D01*
X-6950591Y32651721D01*
X-7073369Y32569708D01*
X-7244748Y32410337D01*
X-7381743Y32220594D01*
X-7858257Y32220594D01*
X-7995252Y32410337D01*
X-8166631Y32569708D01*
X-8289409Y32651721D01*
X-8458200Y32643926D01*
X-9321800Y32643926D01*
X-9490591Y32651721D01*
X-9613369Y32569708D01*
X-9784748Y32410337D01*
X-9921743Y32220594D01*
X-14119001Y32220594D01*
X-14119001Y44842376D01*
X-12476200Y44842376D01*
X-12476200Y44157624D01*
X-12342612Y43486030D01*
X-12080569Y42853402D01*
X-11700141Y42284052D01*
X-11215948Y41799859D01*
X-10646598Y41419431D01*
X-10013970Y41157388D01*
X-9342376Y41023800D01*
X-8657624Y41023800D01*
X-7986030Y41157388D01*
X-7353402Y41419431D01*
X-6784052Y41799859D01*
X-6299859Y42284052D01*
X-5919431Y42853402D01*
X-5657388Y43486030D01*
X-5523800Y44157624D01*
X-5523800Y44842376D01*
X5523800Y44842376D01*
X5523800Y44157624D01*
X5657388Y43486030D01*
X5919431Y42853402D01*
X6299859Y42284052D01*
X6784052Y41799859D01*
X7353402Y41419431D01*
X7986030Y41157388D01*
X8657624Y41023800D01*
X9342376Y41023800D01*
X10013970Y41157388D01*
X10646598Y41419431D01*
X11215948Y41799859D01*
X11700141Y42284052D01*
X12080569Y42853402D01*
X12342612Y43486030D01*
X12476200Y44157624D01*
X12476200Y44842376D01*
X12342612Y45513970D01*
X12080569Y46146598D01*
X11700141Y46715948D01*
X11215948Y47200141D01*
X10646598Y47580569D01*
X10013970Y47842612D01*
X9342376Y47976200D01*
X8657624Y47976200D01*
X7986030Y47842612D01*
X7353402Y47580569D01*
X6784052Y47200141D01*
X6299859Y46715948D01*
X5919431Y46146598D01*
X5657388Y45513970D01*
X5523800Y44842376D01*
X-5523800Y44842376D01*
X-5657388Y45513970D01*
X-5919431Y46146598D01*
X-6299859Y46715948D01*
X-6784052Y47200141D01*
X-7353402Y47580569D01*
X-7986030Y47842612D01*
X-8657624Y47976200D01*
X-9342376Y47976200D01*
X-10013970Y47842612D01*
X-10646598Y47580569D01*
X-11215948Y47200141D01*
X-11700141Y46715948D01*
X-12080569Y46146598D01*
X-12342612Y45513970D01*
X-12476200Y44842376D01*
X-14119001Y44842376D01*
X-14119001Y48981360D01*
X-14105419Y49119876D01*
X-14070606Y49235185D01*
X-14014058Y49341537D01*
X-13937927Y49434883D01*
X-13845119Y49511660D01*
X-13739163Y49568951D01*
X-13624102Y49604568D01*
X-13486783Y49619001D01*
X13481362Y49619001D01*
X13619877Y49605419D01*
G36*
X4589455Y32924125D02*
G01*
X4724073Y32868364D01*
X4839667Y32779667D01*
X4928364Y32664073D01*
X4984125Y32529455D01*
X5003800Y32380006D01*
X5003800Y32051802D01*
X4840444Y32051802D01*
X4841743Y32220594D01*
X4704748Y32410337D01*
X4533369Y32569708D01*
X4410591Y32651721D01*
X4241800Y32643926D01*
X4241800Y32051800D01*
X4261800Y32051800D01*
X4261800Y31188200D01*
X4241800Y31188200D01*
X4241800Y30596074D01*
X4410591Y30588279D01*
X4533369Y30670292D01*
X4704748Y30829663D01*
X4841743Y31019406D01*
X4840444Y31188198D01*
X5003800Y31188198D01*
X5003800Y21223020D01*
X4984125Y21073571D01*
X4928364Y20938953D01*
X4836603Y20819367D01*
X-1769367Y14213397D01*
X-1888953Y14121636D01*
X-2023571Y14065875D01*
X-2173020Y14046200D01*
X-7615006Y14046200D01*
X-7764455Y14065875D01*
X-7899073Y14121636D01*
X-8014667Y14210333D01*
X-8103364Y14325927D01*
X-8159125Y14460545D01*
X-8178800Y14609994D01*
X-8178800Y15880000D01*
X-7946798Y15880000D01*
X-7940423Y15815269D01*
X-7921541Y15753026D01*
X-7890880Y15695663D01*
X-7849617Y15645383D01*
X-7799337Y15604120D01*
X-7741974Y15573459D01*
X-7679731Y15554577D01*
X-7615000Y15548202D01*
X-6229350Y15549800D01*
X-6146800Y15632350D01*
X-6146800Y17348200D01*
X-5283200Y17348200D01*
X-5283200Y15632350D01*
X-5200650Y15549800D01*
X-3815000Y15548202D01*
X-3750269Y15554577D01*
X-3688026Y15573459D01*
X-3630663Y15604120D01*
X-3580383Y15645383D01*
X-3539120Y15695663D01*
X-3508459Y15753026D01*
X-3489577Y15815269D01*
X-3483202Y15880000D01*
X-3484800Y17265650D01*
X-3567350Y17348200D01*
X-5283200Y17348200D01*
X-6146800Y17348200D01*
X-7862650Y17348200D01*
X-7945200Y17265650D01*
X-7946798Y15880000D01*
X-8178800Y15880000D01*
X-8178800Y19680000D01*
X-7946798Y19680000D01*
X-7945200Y18294350D01*
X-7862650Y18211800D01*
X-6146800Y18211800D01*
X-6146800Y19927650D01*
X-5283200Y19927650D01*
X-5283200Y18211800D01*
X-3567350Y18211800D01*
X-3484800Y18294350D01*
X-3483202Y19680000D01*
X-3489577Y19744731D01*
X-3508459Y19806974D01*
X-3539120Y19864337D01*
X-3580383Y19914617D01*
X-3630663Y19955880D01*
X-3688026Y19986541D01*
X-3750269Y20005423D01*
X-3815000Y20011798D01*
X-5200650Y20010200D01*
X-5283200Y19927650D01*
X-6146800Y19927650D01*
X-6229350Y20010200D01*
X-7615000Y20011798D01*
X-7679731Y20005423D01*
X-7741974Y19986541D01*
X-7799337Y19955880D01*
X-7849617Y19914617D01*
X-7890880Y19864337D01*
X-7921541Y19806974D01*
X-7940423Y19744731D01*
X-7946798Y19680000D01*
X-8178800Y19680000D01*
X-8178800Y20950006D01*
X-8159125Y21099455D01*
X-8103364Y21234073D01*
X-8014667Y21349667D01*
X-7899073Y21438364D01*
X-7764455Y21494125D01*
X-7615006Y21513800D01*
X-4708026Y21513800D01*
X-4698080Y21514452D01*
X-4533730Y21536089D01*
X-4514515Y21541237D01*
X-4361365Y21604674D01*
X-4344139Y21614620D01*
X-4212626Y21715533D01*
X-4205131Y21722105D01*
X-2672105Y23255131D01*
X-2665533Y23262626D01*
X-2564620Y23394139D01*
X-2554674Y23411365D01*
X-2491237Y23564515D01*
X-2486089Y23583730D01*
X-2464452Y23748080D01*
X-2463800Y23758026D01*
X-2463800Y29080000D01*
X-2415315Y29080000D01*
X-2393308Y28856560D01*
X-2328133Y28641707D01*
X-2222295Y28443697D01*
X-2079860Y28270140D01*
X-1906303Y28127705D01*
X-1708293Y28021867D01*
X-1493440Y27956692D01*
X-1325995Y27940200D01*
X-1214005Y27940200D01*
X-1046560Y27956692D01*
X-831707Y28021867D01*
X-633697Y28127705D01*
X-460140Y28270140D01*
X-317705Y28443697D01*
X-211867Y28641707D01*
X-146692Y28856560D01*
X-124685Y29080000D01*
X124685Y29080000D01*
X146692Y28856560D01*
X211867Y28641707D01*
X317705Y28443697D01*
X460140Y28270140D01*
X633697Y28127705D01*
X831707Y28021867D01*
X1046560Y27956692D01*
X1214005Y27940200D01*
X1325995Y27940200D01*
X1493440Y27956692D01*
X1708293Y28021867D01*
X1906303Y28127705D01*
X2079860Y28270140D01*
X2222295Y28443697D01*
X2328133Y28641707D01*
X2393308Y28856560D01*
X2415315Y29080000D01*
X2664685Y29080000D01*
X2686692Y28856560D01*
X2751867Y28641707D01*
X2857705Y28443697D01*
X3000140Y28270140D01*
X3173697Y28127705D01*
X3371707Y28021867D01*
X3586560Y27956692D01*
X3754005Y27940200D01*
X3865995Y27940200D01*
X4033440Y27956692D01*
X4248293Y28021867D01*
X4446303Y28127705D01*
X4619860Y28270140D01*
X4762295Y28443697D01*
X4868133Y28641707D01*
X4933308Y28856560D01*
X4955315Y29080000D01*
X4933308Y29303440D01*
X4868133Y29518293D01*
X4762295Y29716303D01*
X4619860Y29889860D01*
X4446303Y30032295D01*
X4248293Y30138133D01*
X4033440Y30203308D01*
X3865995Y30219800D01*
X3754005Y30219800D01*
X3586560Y30203308D01*
X3371707Y30138133D01*
X3173697Y30032295D01*
X3000140Y29889860D01*
X2857705Y29716303D01*
X2751867Y29518293D01*
X2686692Y29303440D01*
X2664685Y29080000D01*
X2415315Y29080000D01*
X2393308Y29303440D01*
X2328133Y29518293D01*
X2222295Y29716303D01*
X2079860Y29889860D01*
X1906303Y30032295D01*
X1708293Y30138133D01*
X1493440Y30203308D01*
X1325995Y30219800D01*
X1214005Y30219800D01*
X1046560Y30203308D01*
X831707Y30138133D01*
X633697Y30032295D01*
X460140Y29889860D01*
X317705Y29716303D01*
X211867Y29518293D01*
X146692Y29303440D01*
X124685Y29080000D01*
X-124685Y29080000D01*
X-146692Y29303440D01*
X-211867Y29518293D01*
X-317705Y29716303D01*
X-460140Y29889860D01*
X-633697Y30032295D01*
X-831707Y30138133D01*
X-1046560Y30203308D01*
X-1214005Y30219800D01*
X-1325995Y30219800D01*
X-1493440Y30203308D01*
X-1708293Y30138133D01*
X-1906303Y30032295D01*
X-2079860Y29889860D01*
X-2222295Y29716303D01*
X-2328133Y29518293D01*
X-2393308Y29303440D01*
X-2415315Y29080000D01*
X-2463800Y29080000D01*
X-2463800Y31188198D01*
X-2300444Y31188198D01*
X-2301743Y31019406D01*
X-2164748Y30829663D01*
X-1993369Y30670292D01*
X-1870591Y30588279D01*
X-1701800Y30596074D01*
X-1701800Y31188200D01*
X-838200Y31188200D01*
X-838200Y30596074D01*
X-669409Y30588279D01*
X-546631Y30670292D01*
X-375252Y30829663D01*
X-238257Y31019406D01*
X238257Y31019406D01*
X375252Y30829663D01*
X546631Y30670292D01*
X669409Y30588279D01*
X838200Y30596074D01*
X838200Y31188200D01*
X1701800Y31188200D01*
X1701800Y30596074D01*
X1870591Y30588279D01*
X1993369Y30670292D01*
X2164748Y30829663D01*
X2301743Y31019406D01*
X2778257Y31019406D01*
X2915252Y30829663D01*
X3086631Y30670292D01*
X3209409Y30588279D01*
X3378200Y30596074D01*
X3378200Y31188200D01*
X2779556Y31188200D01*
X2778257Y31019406D01*
X2301743Y31019406D01*
X2300444Y31188200D01*
X1701800Y31188200D01*
X838200Y31188200D01*
X239556Y31188200D01*
X238257Y31019406D01*
X-238257Y31019406D01*
X-239556Y31188200D01*
X-838200Y31188200D01*
X-1701800Y31188200D01*
X-1721800Y31188200D01*
X-1721800Y32051800D01*
X-1701800Y32051800D01*
X-1701800Y32643926D01*
X-838200Y32643926D01*
X-838200Y32051800D01*
X-239556Y32051800D01*
X-238257Y32220594D01*
X238257Y32220594D01*
X239556Y32051800D01*
X838200Y32051800D01*
X838200Y32643926D01*
X1701800Y32643926D01*
X1701800Y32051800D01*
X2300444Y32051800D01*
X2301743Y32220594D01*
X2778257Y32220594D01*
X2779556Y32051800D01*
X3378200Y32051800D01*
X3378200Y32643926D01*
X3209409Y32651721D01*
X3086631Y32569708D01*
X2915252Y32410337D01*
X2778257Y32220594D01*
X2301743Y32220594D01*
X2164748Y32410337D01*
X1993369Y32569708D01*
X1870591Y32651721D01*
X1701800Y32643926D01*
X838200Y32643926D01*
X669409Y32651721D01*
X546631Y32569708D01*
X375252Y32410337D01*
X238257Y32220594D01*
X-238257Y32220594D01*
X-375252Y32410337D01*
X-546631Y32569708D01*
X-669409Y32651721D01*
X-838200Y32643926D01*
X-1701800Y32643926D01*
X-1870591Y32651721D01*
X-1993369Y32569708D01*
X-2164748Y32410337D01*
X-2301743Y32220594D01*
X-2300444Y32051802D01*
X-2463800Y32051802D01*
X-2463800Y32380006D01*
X-2444125Y32529455D01*
X-2388364Y32664073D01*
X-2299667Y32779667D01*
X-2184073Y32868364D01*
X-2049455Y32924125D01*
X-1900006Y32943800D01*
X4440006Y32943800D01*
X4589455Y32924125D01*
X4589455Y32924125D01*
G37*
X4589455Y32924125D02*
X4724073Y32868364D01*
X4839667Y32779667D01*
X4928364Y32664073D01*
X4984125Y32529455D01*
X5003800Y32380006D01*
X5003800Y32051802D01*
X4840444Y32051802D01*
X4841743Y32220594D01*
X4704748Y32410337D01*
X4533369Y32569708D01*
X4410591Y32651721D01*
X4241800Y32643926D01*
X4241800Y32051800D01*
X4261800Y32051800D01*
X4261800Y31188200D01*
X4241800Y31188200D01*
X4241800Y30596074D01*
X4410591Y30588279D01*
X4533369Y30670292D01*
X4704748Y30829663D01*
X4841743Y31019406D01*
X4840444Y31188198D01*
X5003800Y31188198D01*
X5003800Y21223020D01*
X4984125Y21073571D01*
X4928364Y20938953D01*
X4836603Y20819367D01*
X-1769367Y14213397D01*
X-1888953Y14121636D01*
X-2023571Y14065875D01*
X-2173020Y14046200D01*
X-7615006Y14046200D01*
X-7764455Y14065875D01*
X-7899073Y14121636D01*
X-8014667Y14210333D01*
X-8103364Y14325927D01*
X-8159125Y14460545D01*
X-8178800Y14609994D01*
X-8178800Y15880000D01*
X-7946798Y15880000D01*
X-7940423Y15815269D01*
X-7921541Y15753026D01*
X-7890880Y15695663D01*
X-7849617Y15645383D01*
X-7799337Y15604120D01*
X-7741974Y15573459D01*
X-7679731Y15554577D01*
X-7615000Y15548202D01*
X-6229350Y15549800D01*
X-6146800Y15632350D01*
X-6146800Y17348200D01*
X-5283200Y17348200D01*
X-5283200Y15632350D01*
X-5200650Y15549800D01*
X-3815000Y15548202D01*
X-3750269Y15554577D01*
X-3688026Y15573459D01*
X-3630663Y15604120D01*
X-3580383Y15645383D01*
X-3539120Y15695663D01*
X-3508459Y15753026D01*
X-3489577Y15815269D01*
X-3483202Y15880000D01*
X-3484800Y17265650D01*
X-3567350Y17348200D01*
X-5283200Y17348200D01*
X-6146800Y17348200D01*
X-7862650Y17348200D01*
X-7945200Y17265650D01*
X-7946798Y15880000D01*
X-8178800Y15880000D01*
X-8178800Y19680000D01*
X-7946798Y19680000D01*
X-7945200Y18294350D01*
X-7862650Y18211800D01*
X-6146800Y18211800D01*
X-6146800Y19927650D01*
X-5283200Y19927650D01*
X-5283200Y18211800D01*
X-3567350Y18211800D01*
X-3484800Y18294350D01*
X-3483202Y19680000D01*
X-3489577Y19744731D01*
X-3508459Y19806974D01*
X-3539120Y19864337D01*
X-3580383Y19914617D01*
X-3630663Y19955880D01*
X-3688026Y19986541D01*
X-3750269Y20005423D01*
X-3815000Y20011798D01*
X-5200650Y20010200D01*
X-5283200Y19927650D01*
X-6146800Y19927650D01*
X-6229350Y20010200D01*
X-7615000Y20011798D01*
X-7679731Y20005423D01*
X-7741974Y19986541D01*
X-7799337Y19955880D01*
X-7849617Y19914617D01*
X-7890880Y19864337D01*
X-7921541Y19806974D01*
X-7940423Y19744731D01*
X-7946798Y19680000D01*
X-8178800Y19680000D01*
X-8178800Y20950006D01*
X-8159125Y21099455D01*
X-8103364Y21234073D01*
X-8014667Y21349667D01*
X-7899073Y21438364D01*
X-7764455Y21494125D01*
X-7615006Y21513800D01*
X-4708026Y21513800D01*
X-4698080Y21514452D01*
X-4533730Y21536089D01*
X-4514515Y21541237D01*
X-4361365Y21604674D01*
X-4344139Y21614620D01*
X-4212626Y21715533D01*
X-4205131Y21722105D01*
X-2672105Y23255131D01*
X-2665533Y23262626D01*
X-2564620Y23394139D01*
X-2554674Y23411365D01*
X-2491237Y23564515D01*
X-2486089Y23583730D01*
X-2464452Y23748080D01*
X-2463800Y23758026D01*
X-2463800Y29080000D01*
X-2415315Y29080000D01*
X-2393308Y28856560D01*
X-2328133Y28641707D01*
X-2222295Y28443697D01*
X-2079860Y28270140D01*
X-1906303Y28127705D01*
X-1708293Y28021867D01*
X-1493440Y27956692D01*
X-1325995Y27940200D01*
X-1214005Y27940200D01*
X-1046560Y27956692D01*
X-831707Y28021867D01*
X-633697Y28127705D01*
X-460140Y28270140D01*
X-317705Y28443697D01*
X-211867Y28641707D01*
X-146692Y28856560D01*
X-124685Y29080000D01*
X124685Y29080000D01*
X146692Y28856560D01*
X211867Y28641707D01*
X317705Y28443697D01*
X460140Y28270140D01*
X633697Y28127705D01*
X831707Y28021867D01*
X1046560Y27956692D01*
X1214005Y27940200D01*
X1325995Y27940200D01*
X1493440Y27956692D01*
X1708293Y28021867D01*
X1906303Y28127705D01*
X2079860Y28270140D01*
X2222295Y28443697D01*
X2328133Y28641707D01*
X2393308Y28856560D01*
X2415315Y29080000D01*
X2664685Y29080000D01*
X2686692Y28856560D01*
X2751867Y28641707D01*
X2857705Y28443697D01*
X3000140Y28270140D01*
X3173697Y28127705D01*
X3371707Y28021867D01*
X3586560Y27956692D01*
X3754005Y27940200D01*
X3865995Y27940200D01*
X4033440Y27956692D01*
X4248293Y28021867D01*
X4446303Y28127705D01*
X4619860Y28270140D01*
X4762295Y28443697D01*
X4868133Y28641707D01*
X4933308Y28856560D01*
X4955315Y29080000D01*
X4933308Y29303440D01*
X4868133Y29518293D01*
X4762295Y29716303D01*
X4619860Y29889860D01*
X4446303Y30032295D01*
X4248293Y30138133D01*
X4033440Y30203308D01*
X3865995Y30219800D01*
X3754005Y30219800D01*
X3586560Y30203308D01*
X3371707Y30138133D01*
X3173697Y30032295D01*
X3000140Y29889860D01*
X2857705Y29716303D01*
X2751867Y29518293D01*
X2686692Y29303440D01*
X2664685Y29080000D01*
X2415315Y29080000D01*
X2393308Y29303440D01*
X2328133Y29518293D01*
X2222295Y29716303D01*
X2079860Y29889860D01*
X1906303Y30032295D01*
X1708293Y30138133D01*
X1493440Y30203308D01*
X1325995Y30219800D01*
X1214005Y30219800D01*
X1046560Y30203308D01*
X831707Y30138133D01*
X633697Y30032295D01*
X460140Y29889860D01*
X317705Y29716303D01*
X211867Y29518293D01*
X146692Y29303440D01*
X124685Y29080000D01*
X-124685Y29080000D01*
X-146692Y29303440D01*
X-211867Y29518293D01*
X-317705Y29716303D01*
X-460140Y29889860D01*
X-633697Y30032295D01*
X-831707Y30138133D01*
X-1046560Y30203308D01*
X-1214005Y30219800D01*
X-1325995Y30219800D01*
X-1493440Y30203308D01*
X-1708293Y30138133D01*
X-1906303Y30032295D01*
X-2079860Y29889860D01*
X-2222295Y29716303D01*
X-2328133Y29518293D01*
X-2393308Y29303440D01*
X-2415315Y29080000D01*
X-2463800Y29080000D01*
X-2463800Y31188198D01*
X-2300444Y31188198D01*
X-2301743Y31019406D01*
X-2164748Y30829663D01*
X-1993369Y30670292D01*
X-1870591Y30588279D01*
X-1701800Y30596074D01*
X-1701800Y31188200D01*
X-838200Y31188200D01*
X-838200Y30596074D01*
X-669409Y30588279D01*
X-546631Y30670292D01*
X-375252Y30829663D01*
X-238257Y31019406D01*
X238257Y31019406D01*
X375252Y30829663D01*
X546631Y30670292D01*
X669409Y30588279D01*
X838200Y30596074D01*
X838200Y31188200D01*
X1701800Y31188200D01*
X1701800Y30596074D01*
X1870591Y30588279D01*
X1993369Y30670292D01*
X2164748Y30829663D01*
X2301743Y31019406D01*
X2778257Y31019406D01*
X2915252Y30829663D01*
X3086631Y30670292D01*
X3209409Y30588279D01*
X3378200Y30596074D01*
X3378200Y31188200D01*
X2779556Y31188200D01*
X2778257Y31019406D01*
X2301743Y31019406D01*
X2300444Y31188200D01*
X1701800Y31188200D01*
X838200Y31188200D01*
X239556Y31188200D01*
X238257Y31019406D01*
X-238257Y31019406D01*
X-239556Y31188200D01*
X-838200Y31188200D01*
X-1701800Y31188200D01*
X-1721800Y31188200D01*
X-1721800Y32051800D01*
X-1701800Y32051800D01*
X-1701800Y32643926D01*
X-838200Y32643926D01*
X-838200Y32051800D01*
X-239556Y32051800D01*
X-238257Y32220594D01*
X238257Y32220594D01*
X239556Y32051800D01*
X838200Y32051800D01*
X838200Y32643926D01*
X1701800Y32643926D01*
X1701800Y32051800D01*
X2300444Y32051800D01*
X2301743Y32220594D01*
X2778257Y32220594D01*
X2779556Y32051800D01*
X3378200Y32051800D01*
X3378200Y32643926D01*
X3209409Y32651721D01*
X3086631Y32569708D01*
X2915252Y32410337D01*
X2778257Y32220594D01*
X2301743Y32220594D01*
X2164748Y32410337D01*
X1993369Y32569708D01*
X1870591Y32651721D01*
X1701800Y32643926D01*
X838200Y32643926D01*
X669409Y32651721D01*
X546631Y32569708D01*
X375252Y32410337D01*
X238257Y32220594D01*
X-238257Y32220594D01*
X-375252Y32410337D01*
X-546631Y32569708D01*
X-669409Y32651721D01*
X-838200Y32643926D01*
X-1701800Y32643926D01*
X-1870591Y32651721D01*
X-1993369Y32569708D01*
X-2164748Y32410337D01*
X-2301743Y32220594D01*
X-2300444Y32051802D01*
X-2463800Y32051802D01*
X-2463800Y32380006D01*
X-2444125Y32529455D01*
X-2388364Y32664073D01*
X-2299667Y32779667D01*
X-2184073Y32868364D01*
X-2049455Y32924125D01*
X-1900006Y32943800D01*
X4440006Y32943800D01*
X4589455Y32924125D01*
M02*
