M48
; DRILL file {KiCad (5.1.4)-1} date 3/27/2020 3:16:37 PM
; FORMAT={-:-/ absolute / inch / decimal}
; #@! TF.CreationDate,2020-03-27T15:16:37-04:00
; #@! TF.GenerationSoftware,Kicad,Pcbnew,(5.1.4)-1
; #@! TF.FileFunction,Plated,1,2,PTH
FMAT,2
INCH
T1C0.0157
T2C0.0374
T3C0.0394
T4C0.0400
T5C0.0433
T6C0.1063
T7C0.1260
%
G90
G05
T1
X-0.145Y0.15
X-0.145Y0.075
X0.08Y0.075
X0.305Y0.075
T2
X0.1297Y0.675
X0.2281Y0.675
X0.3266Y0.675
X0.425Y0.675
T3
X0.125Y0.4234
X0.125Y0.325
X-0.15Y0.4234
X-0.15Y0.325
X0.4Y0.4234
X0.4Y0.325
T4
X-0.35Y1.2449
X-0.35Y1.1449
X-0.25Y1.2449
X-0.25Y1.1449
X-0.15Y1.2449
X-0.15Y1.1449
X-0.05Y1.2449
X-0.05Y1.1449
X0.05Y1.2449
X0.05Y1.1449
X0.15Y1.2449
X0.15Y1.1449
X0.25Y1.2449
X0.25Y1.1449
X0.35Y1.2449
X0.35Y1.1449
T5
X-0.425Y0.425
X-0.425Y0.325
T6
X-0.4219Y0.7
X-0.225Y0.7
T7
X-0.3543Y1.752
X0.3543Y1.752
T0
M30
