G04 #@! TF.GenerationSoftware,KiCad,Pcbnew,(5.1.4)-1*
G04 #@! TF.CreationDate,2020-03-27T15:32:05-04:00*
G04 #@! TF.ProjectId,Encoder Daughterboard,456e636f-6465-4722-9044-617567687465,rev?*
G04 #@! TF.SameCoordinates,PX9d739e0PY5e78920*
G04 #@! TF.FileFunction,Copper,L2,Bot*
G04 #@! TF.FilePolarity,Positive*
%FSLAX46Y46*%
G04 Gerber Fmt 4.6, Leading zero omitted, Abs format (unit mm)*
G04 Created by KiCad (PCBNEW (5.1.4)-1) date 2020-03-27 15:32:05*
%MOMM*%
%LPD*%
G04 APERTURE LIST*
%ADD10C,3.750000*%
%ADD11C,1.750000*%
%ADD12C,2.000000*%
%ADD13O,1.700000X1.700000*%
%ADD14R,1.700000X1.700000*%
%ADD15C,0.254000*%
%ADD16C,0.152400*%
G04 APERTURE END LIST*
D10*
X0Y6600000D03*
X0Y-6600000D03*
D11*
X-7000000Y4000000D03*
X-7000000Y2000000D03*
X-7000000Y0D03*
X-7000000Y-2000000D03*
X-7000000Y-4000000D03*
D12*
X7500000Y2500000D03*
X7500000Y0D03*
X7500000Y-2500000D03*
D13*
X-11430000Y-3810000D03*
X-13970000Y-3810000D03*
X-11430000Y-1270000D03*
X-13970000Y-1270000D03*
X-11430000Y1270000D03*
X-13970000Y1270000D03*
X-11430000Y3810000D03*
D14*
X-13970000Y3810000D03*
D15*
X-12700000Y2540000D02*
X-13970000Y1270000D01*
X-12700000Y4445000D02*
X-12700000Y2540000D01*
X-11176000Y5969000D02*
X-12700000Y4445000D01*
X-5969000Y5969000D02*
X-11176000Y5969000D01*
X7500000Y2500000D02*
X-2500000Y2500000D01*
X-2500000Y2500000D02*
X-5969000Y5969000D01*
X-12700000Y-2540000D02*
X-10795000Y-2540000D01*
X-13970000Y-1270000D02*
X-12700000Y-2540000D01*
X-10795000Y-2540000D02*
X-7874000Y-5461000D01*
X6085787Y-2500000D02*
X7500000Y-2500000D01*
X-7874000Y-5461000D02*
X-5207000Y-5461000D01*
X-5207000Y-5461000D02*
X-2246000Y-2500000D01*
X-2246000Y-2500000D02*
X6085787Y-2500000D01*
D16*
G36*
X7376734Y8963393D02*
G01*
X7753541Y8849629D01*
X8101081Y8664838D01*
X8406108Y8416066D01*
X8657005Y8112782D01*
X8844217Y7766540D01*
X8960609Y7390538D01*
X9004301Y6974840D01*
X9004300Y-6959532D01*
X8963393Y-7376734D01*
X8849627Y-7753544D01*
X8664837Y-8101084D01*
X8416064Y-8406109D01*
X8112782Y-8657005D01*
X7766543Y-8844215D01*
X7390539Y-8960609D01*
X6974849Y-9004300D01*
X-13944532Y-9004300D01*
X-14361734Y-8963393D01*
X-14738544Y-8849627D01*
X-15086084Y-8664837D01*
X-15391109Y-8416064D01*
X-15642005Y-8112782D01*
X-15829215Y-7766543D01*
X-15945609Y-7390539D01*
X-15989300Y-6974849D01*
X-15989300Y-6382807D01*
X-2205200Y-6382807D01*
X-2205200Y-6817193D01*
X-2120455Y-7243233D01*
X-1954223Y-7644554D01*
X-1712891Y-8005733D01*
X-1405733Y-8312891D01*
X-1044554Y-8554223D01*
X-643233Y-8720455D01*
X-217193Y-8805200D01*
X217193Y-8805200D01*
X643233Y-8720455D01*
X1044554Y-8554223D01*
X1405733Y-8312891D01*
X1712891Y-8005733D01*
X1954223Y-7644554D01*
X2120455Y-7243233D01*
X2205200Y-6817193D01*
X2205200Y-6382807D01*
X2120455Y-5956767D01*
X1954223Y-5555446D01*
X1712891Y-5194267D01*
X1405733Y-4887109D01*
X1044554Y-4645777D01*
X643233Y-4479545D01*
X217193Y-4394800D01*
X-217193Y-4394800D01*
X-643233Y-4479545D01*
X-1044554Y-4645777D01*
X-1405733Y-4887109D01*
X-1712891Y-5194267D01*
X-1954223Y-5555446D01*
X-2120455Y-5956767D01*
X-2205200Y-6382807D01*
X-15989300Y-6382807D01*
X-15989300Y-3810000D01*
X-15155910Y-3810000D01*
X-15133123Y-4041360D01*
X-15065638Y-4263828D01*
X-14956048Y-4468856D01*
X-14808565Y-4648565D01*
X-14628856Y-4796048D01*
X-14423828Y-4905638D01*
X-14201360Y-4973123D01*
X-14027975Y-4990200D01*
X-13912025Y-4990200D01*
X-13738640Y-4973123D01*
X-13516172Y-4905638D01*
X-13311144Y-4796048D01*
X-13131435Y-4648565D01*
X-12983952Y-4468856D01*
X-12874362Y-4263828D01*
X-12806877Y-4041360D01*
X-12784090Y-3810000D01*
X-12806877Y-3578640D01*
X-12874362Y-3356172D01*
X-12983952Y-3151144D01*
X-13131435Y-2971435D01*
X-13311144Y-2823952D01*
X-13516172Y-2714362D01*
X-13738640Y-2646877D01*
X-13912025Y-2629800D01*
X-14027975Y-2629800D01*
X-14201360Y-2646877D01*
X-14423828Y-2714362D01*
X-14628856Y-2823952D01*
X-14808565Y-2971435D01*
X-14956048Y-3151144D01*
X-15065638Y-3356172D01*
X-15133123Y-3578640D01*
X-15155910Y-3810000D01*
X-15989300Y-3810000D01*
X-15989300Y-1270000D01*
X-15155910Y-1270000D01*
X-15133123Y-1501360D01*
X-15065638Y-1723828D01*
X-14956048Y-1928856D01*
X-14808565Y-2108565D01*
X-14628856Y-2256048D01*
X-14423828Y-2365638D01*
X-14201360Y-2433123D01*
X-14027975Y-2450200D01*
X-13912025Y-2450200D01*
X-13738640Y-2433123D01*
X-13519830Y-2366748D01*
X-13039171Y-2847407D01*
X-13024853Y-2864853D01*
X-13007408Y-2879170D01*
X-12955237Y-2921987D01*
X-12912783Y-2944678D01*
X-12875809Y-2964441D01*
X-12789627Y-2990585D01*
X-12722460Y-2997200D01*
X-12722451Y-2997200D01*
X-12700001Y-2999411D01*
X-12677551Y-2997200D01*
X-12289710Y-2997200D01*
X-12416048Y-3151144D01*
X-12525638Y-3356172D01*
X-12593123Y-3578640D01*
X-12615910Y-3810000D01*
X-12593123Y-4041360D01*
X-12525638Y-4263828D01*
X-12416048Y-4468856D01*
X-12268565Y-4648565D01*
X-12088856Y-4796048D01*
X-11883828Y-4905638D01*
X-11661360Y-4973123D01*
X-11487975Y-4990200D01*
X-11372025Y-4990200D01*
X-11198640Y-4973123D01*
X-10976172Y-4905638D01*
X-10771144Y-4796048D01*
X-10591435Y-4648565D01*
X-10443952Y-4468856D01*
X-10334362Y-4263828D01*
X-10266877Y-4041360D01*
X-10244090Y-3810000D01*
X-10252012Y-3729565D01*
X-8213170Y-5768408D01*
X-8198853Y-5785853D01*
X-8129236Y-5842987D01*
X-8049809Y-5885441D01*
X-7963627Y-5911585D01*
X-7896460Y-5918200D01*
X-7896450Y-5918200D01*
X-7874000Y-5920411D01*
X-7851550Y-5918200D01*
X-5229450Y-5918200D01*
X-5207000Y-5920411D01*
X-5184550Y-5918200D01*
X-5184540Y-5918200D01*
X-5117373Y-5911585D01*
X-5031191Y-5885441D01*
X-4951764Y-5842987D01*
X-4882147Y-5785853D01*
X-4867826Y-5768403D01*
X-2056622Y-2957200D01*
X6249580Y-2957200D01*
X6321192Y-3130086D01*
X6466766Y-3347953D01*
X6652047Y-3533234D01*
X6869914Y-3678808D01*
X7111995Y-3779081D01*
X7368987Y-3830200D01*
X7631013Y-3830200D01*
X7888005Y-3779081D01*
X8130086Y-3678808D01*
X8347953Y-3533234D01*
X8533234Y-3347953D01*
X8678808Y-3130086D01*
X8779081Y-2888005D01*
X8830200Y-2631013D01*
X8830200Y-2368987D01*
X8779081Y-2111995D01*
X8678808Y-1869914D01*
X8533234Y-1652047D01*
X8347953Y-1466766D01*
X8130086Y-1321192D01*
X7956744Y-1249392D01*
X8068172Y-1209866D01*
X8190307Y-1144585D01*
X8302259Y-963904D01*
X7500000Y-161645D01*
X6697741Y-963904D01*
X6809693Y-1144585D01*
X7036021Y-1252388D01*
X6869914Y-1321192D01*
X6652047Y-1466766D01*
X6466766Y-1652047D01*
X6321192Y-1869914D01*
X6249580Y-2042800D01*
X-2223551Y-2042800D01*
X-2246001Y-2040589D01*
X-2268451Y-2042800D01*
X-2268460Y-2042800D01*
X-2335627Y-2049415D01*
X-2421809Y-2075559D01*
X-2435356Y-2082800D01*
X-2501237Y-2118013D01*
X-2553408Y-2160830D01*
X-2570853Y-2175147D01*
X-2585170Y-2192592D01*
X-5396377Y-5003800D01*
X-6332991Y-5003800D01*
X-6231730Y-4936140D01*
X-6063860Y-4768270D01*
X-5931966Y-4570876D01*
X-5841116Y-4351544D01*
X-5794800Y-4118702D01*
X-5794800Y-3881298D01*
X-5841116Y-3648456D01*
X-5931966Y-3429124D01*
X-6063860Y-3231730D01*
X-6231730Y-3063860D01*
X-6327304Y-3000000D01*
X-6231730Y-2936140D01*
X-6063860Y-2768270D01*
X-5931966Y-2570876D01*
X-5841116Y-2351544D01*
X-5794800Y-2118702D01*
X-5794800Y-1881298D01*
X-5841116Y-1648456D01*
X-5931966Y-1429124D01*
X-6063860Y-1231730D01*
X-6231730Y-1063860D01*
X-6327304Y-1000000D01*
X-6231730Y-936140D01*
X-6063860Y-768270D01*
X-5931966Y-570876D01*
X-5841116Y-351544D01*
X-5794800Y-118702D01*
X-5794800Y-61928D01*
X6164799Y-61928D01*
X6202536Y-321222D01*
X6290134Y-568172D01*
X6355415Y-690307D01*
X6536096Y-802259D01*
X7338355Y0D01*
X7661645Y0D01*
X8463904Y-802259D01*
X8644585Y-690307D01*
X8757263Y-453745D01*
X8821627Y-199747D01*
X8835201Y61928D01*
X8797464Y321222D01*
X8709866Y568172D01*
X8644585Y690307D01*
X8463904Y802259D01*
X7661645Y0D01*
X7338355Y0D01*
X6536096Y802259D01*
X6355415Y690307D01*
X6242737Y453745D01*
X6178373Y199747D01*
X6164799Y-61928D01*
X-5794800Y-61928D01*
X-5794800Y118702D01*
X-5841116Y351544D01*
X-5931966Y570876D01*
X-6063860Y768270D01*
X-6231730Y936140D01*
X-6327304Y1000000D01*
X-6231730Y1063860D01*
X-6063860Y1231730D01*
X-5931966Y1429124D01*
X-5841116Y1648456D01*
X-5794800Y1881298D01*
X-5794800Y2118702D01*
X-5841116Y2351544D01*
X-5931966Y2570876D01*
X-6063860Y2768270D01*
X-6231730Y2936140D01*
X-6327304Y3000000D01*
X-6231730Y3063860D01*
X-6063860Y3231730D01*
X-5931966Y3429124D01*
X-5841116Y3648456D01*
X-5794800Y3881298D01*
X-5794800Y4118702D01*
X-5841116Y4351544D01*
X-5931966Y4570876D01*
X-6063860Y4768270D01*
X-6231730Y4936140D01*
X-6429124Y5068034D01*
X-6648456Y5158884D01*
X-6881298Y5205200D01*
X-7118702Y5205200D01*
X-7351544Y5158884D01*
X-7570876Y5068034D01*
X-7768270Y4936140D01*
X-7936140Y4768270D01*
X-8068034Y4570876D01*
X-8158884Y4351544D01*
X-8205200Y4118702D01*
X-8205200Y3881298D01*
X-8158884Y3648456D01*
X-8068034Y3429124D01*
X-7936140Y3231730D01*
X-7768270Y3063860D01*
X-7672696Y3000000D01*
X-7768270Y2936140D01*
X-7936140Y2768270D01*
X-8068034Y2570876D01*
X-8158884Y2351544D01*
X-8205200Y2118702D01*
X-8205200Y1881298D01*
X-8158884Y1648456D01*
X-8068034Y1429124D01*
X-7936140Y1231730D01*
X-7768270Y1063860D01*
X-7672696Y1000000D01*
X-7768270Y936140D01*
X-7936140Y768270D01*
X-8068034Y570876D01*
X-8158884Y351544D01*
X-8205200Y118702D01*
X-8205200Y-118702D01*
X-8158884Y-351544D01*
X-8068034Y-570876D01*
X-7936140Y-768270D01*
X-7768270Y-936140D01*
X-7672696Y-1000000D01*
X-7768270Y-1063860D01*
X-7936140Y-1231730D01*
X-8068034Y-1429124D01*
X-8158884Y-1648456D01*
X-8205200Y-1881298D01*
X-8205200Y-2118702D01*
X-8158884Y-2351544D01*
X-8068034Y-2570876D01*
X-7936140Y-2768270D01*
X-7768270Y-2936140D01*
X-7672696Y-3000000D01*
X-7768270Y-3063860D01*
X-7936140Y-3231730D01*
X-8068034Y-3429124D01*
X-8158884Y-3648456D01*
X-8205200Y-3881298D01*
X-8205200Y-4118702D01*
X-8158884Y-4351544D01*
X-8068034Y-4570876D01*
X-7968334Y-4720088D01*
X-10455826Y-2232597D01*
X-10470147Y-2215147D01*
X-10539764Y-2158013D01*
X-10607543Y-2121785D01*
X-10591435Y-2108565D01*
X-10443952Y-1928856D01*
X-10334362Y-1723828D01*
X-10266877Y-1501360D01*
X-10244090Y-1270000D01*
X-10266877Y-1038640D01*
X-10334362Y-816172D01*
X-10443952Y-611144D01*
X-10591435Y-431435D01*
X-10771144Y-283952D01*
X-10976172Y-174362D01*
X-11198640Y-106877D01*
X-11372025Y-89800D01*
X-11487975Y-89800D01*
X-11661360Y-106877D01*
X-11883828Y-174362D01*
X-12088856Y-283952D01*
X-12268565Y-431435D01*
X-12416048Y-611144D01*
X-12525638Y-816172D01*
X-12593123Y-1038640D01*
X-12615910Y-1270000D01*
X-12593123Y-1501360D01*
X-12525638Y-1723828D01*
X-12416048Y-1928856D01*
X-12289710Y-2082800D01*
X-12510622Y-2082800D01*
X-12873252Y-1720170D01*
X-12806877Y-1501360D01*
X-12784090Y-1270000D01*
X-12806877Y-1038640D01*
X-12874362Y-816172D01*
X-12983952Y-611144D01*
X-13131435Y-431435D01*
X-13311144Y-283952D01*
X-13516172Y-174362D01*
X-13738640Y-106877D01*
X-13912025Y-89800D01*
X-14027975Y-89800D01*
X-14201360Y-106877D01*
X-14423828Y-174362D01*
X-14628856Y-283952D01*
X-14808565Y-431435D01*
X-14956048Y-611144D01*
X-15065638Y-816172D01*
X-15133123Y-1038640D01*
X-15155910Y-1270000D01*
X-15989300Y-1270000D01*
X-15989300Y1270000D01*
X-15155910Y1270000D01*
X-15133123Y1038640D01*
X-15065638Y816172D01*
X-14956048Y611144D01*
X-14808565Y431435D01*
X-14628856Y283952D01*
X-14423828Y174362D01*
X-14201360Y106877D01*
X-14027975Y89800D01*
X-13912025Y89800D01*
X-13738640Y106877D01*
X-13516172Y174362D01*
X-13311144Y283952D01*
X-13131435Y431435D01*
X-12983952Y611144D01*
X-12874362Y816172D01*
X-12806877Y1038640D01*
X-12784090Y1270000D01*
X-12615910Y1270000D01*
X-12593123Y1038640D01*
X-12525638Y816172D01*
X-12416048Y611144D01*
X-12268565Y431435D01*
X-12088856Y283952D01*
X-11883828Y174362D01*
X-11661360Y106877D01*
X-11487975Y89800D01*
X-11372025Y89800D01*
X-11198640Y106877D01*
X-10976172Y174362D01*
X-10771144Y283952D01*
X-10591435Y431435D01*
X-10443952Y611144D01*
X-10334362Y816172D01*
X-10266877Y1038640D01*
X-10244090Y1270000D01*
X-10266877Y1501360D01*
X-10334362Y1723828D01*
X-10443952Y1928856D01*
X-10591435Y2108565D01*
X-10771144Y2256048D01*
X-10976172Y2365638D01*
X-11198640Y2433123D01*
X-11372025Y2450200D01*
X-11487975Y2450200D01*
X-11661360Y2433123D01*
X-11883828Y2365638D01*
X-12088856Y2256048D01*
X-12268565Y2108565D01*
X-12416048Y1928856D01*
X-12525638Y1723828D01*
X-12593123Y1501360D01*
X-12615910Y1270000D01*
X-12784090Y1270000D01*
X-12806877Y1501360D01*
X-12873252Y1720170D01*
X-12392592Y2200830D01*
X-12375147Y2215147D01*
X-12360830Y2232592D01*
X-12318013Y2284763D01*
X-12275560Y2364190D01*
X-12275559Y2364191D01*
X-12249415Y2450373D01*
X-12242800Y2517540D01*
X-12242800Y2517549D01*
X-12240589Y2539999D01*
X-12242800Y2562449D01*
X-12242800Y2961845D01*
X-12141214Y2868161D01*
X-11943805Y2747507D01*
X-11726650Y2667684D01*
X-11544300Y2717892D01*
X-11544300Y3695700D01*
X-11315700Y3695700D01*
X-11315700Y2717892D01*
X-11133350Y2667684D01*
X-10916195Y2747507D01*
X-10718786Y2868161D01*
X-10548708Y3025009D01*
X-10412498Y3212024D01*
X-10315390Y3422019D01*
X-10287690Y3513351D01*
X-10338317Y3695700D01*
X-11315700Y3695700D01*
X-11544300Y3695700D01*
X-11564300Y3695700D01*
X-11564300Y3924300D01*
X-11544300Y3924300D01*
X-11544300Y4902108D01*
X-11315700Y4902108D01*
X-11315700Y3924300D01*
X-10338317Y3924300D01*
X-10287690Y4106649D01*
X-10315390Y4197981D01*
X-10412498Y4407976D01*
X-10548708Y4594991D01*
X-10718786Y4751839D01*
X-10916195Y4872493D01*
X-11133350Y4952316D01*
X-11315700Y4902108D01*
X-11544300Y4902108D01*
X-11585085Y4913338D01*
X-10986622Y5511800D01*
X-6158377Y5511800D01*
X-2839170Y2192592D01*
X-2824853Y2175147D01*
X-2807408Y2160830D01*
X-2756076Y2118702D01*
X-2755236Y2118013D01*
X-2675809Y2075559D01*
X-2589627Y2049415D01*
X-2522460Y2042800D01*
X-2522450Y2042800D01*
X-2500000Y2040589D01*
X-2477550Y2042800D01*
X6249580Y2042800D01*
X6321192Y1869914D01*
X6466766Y1652047D01*
X6652047Y1466766D01*
X6869914Y1321192D01*
X7043256Y1249392D01*
X6931828Y1209866D01*
X6809693Y1144585D01*
X6697741Y963904D01*
X7500000Y161645D01*
X8302259Y963904D01*
X8190307Y1144585D01*
X7963979Y1252388D01*
X8130086Y1321192D01*
X8347953Y1466766D01*
X8533234Y1652047D01*
X8678808Y1869914D01*
X8779081Y2111995D01*
X8830200Y2368987D01*
X8830200Y2631013D01*
X8779081Y2888005D01*
X8678808Y3130086D01*
X8533234Y3347953D01*
X8347953Y3533234D01*
X8130086Y3678808D01*
X7888005Y3779081D01*
X7631013Y3830200D01*
X7368987Y3830200D01*
X7111995Y3779081D01*
X6869914Y3678808D01*
X6652047Y3533234D01*
X6466766Y3347953D01*
X6321192Y3130086D01*
X6249580Y2957200D01*
X-2310622Y2957200D01*
X-5629826Y6276403D01*
X-5644147Y6293853D01*
X-5713764Y6350987D01*
X-5793191Y6393441D01*
X-5879373Y6419585D01*
X-5946540Y6426200D01*
X-5946550Y6426200D01*
X-5969000Y6428411D01*
X-5991450Y6426200D01*
X-11153551Y6426200D01*
X-11176001Y6428411D01*
X-11198451Y6426200D01*
X-11198460Y6426200D01*
X-11265627Y6419585D01*
X-11351809Y6393441D01*
X-11371704Y6382807D01*
X-11431237Y6350987D01*
X-11483408Y6308170D01*
X-11500853Y6293853D01*
X-11515170Y6276408D01*
X-12891743Y4899834D01*
X-12935663Y4935879D01*
X-12993027Y4966540D01*
X-13055270Y4985422D01*
X-13120000Y4991797D01*
X-14820000Y4991797D01*
X-14884730Y4985422D01*
X-14946973Y4966540D01*
X-15004337Y4935879D01*
X-15054616Y4894616D01*
X-15095879Y4844337D01*
X-15126540Y4786973D01*
X-15145422Y4724730D01*
X-15151797Y4660000D01*
X-15151797Y2960000D01*
X-15145422Y2895270D01*
X-15126540Y2833027D01*
X-15095879Y2775663D01*
X-15054616Y2725384D01*
X-15004337Y2684121D01*
X-14946973Y2653460D01*
X-14884730Y2634578D01*
X-14820000Y2628203D01*
X-13258375Y2628203D01*
X-13519830Y2366748D01*
X-13738640Y2433123D01*
X-13912025Y2450200D01*
X-14027975Y2450200D01*
X-14201360Y2433123D01*
X-14423828Y2365638D01*
X-14628856Y2256048D01*
X-14808565Y2108565D01*
X-14956048Y1928856D01*
X-15065638Y1723828D01*
X-15133123Y1501360D01*
X-15155910Y1270000D01*
X-15989300Y1270000D01*
X-15989300Y6817193D01*
X-2205200Y6817193D01*
X-2205200Y6382807D01*
X-2120455Y5956767D01*
X-1954223Y5555446D01*
X-1712891Y5194267D01*
X-1405733Y4887109D01*
X-1044554Y4645777D01*
X-643233Y4479545D01*
X-217193Y4394800D01*
X217193Y4394800D01*
X643233Y4479545D01*
X1044554Y4645777D01*
X1405733Y4887109D01*
X1712891Y5194267D01*
X1954223Y5555446D01*
X2120455Y5956767D01*
X2205200Y6382807D01*
X2205200Y6817193D01*
X2120455Y7243233D01*
X1954223Y7644554D01*
X1712891Y8005733D01*
X1405733Y8312891D01*
X1044554Y8554223D01*
X643233Y8720455D01*
X217193Y8805200D01*
X-217193Y8805200D01*
X-643233Y8720455D01*
X-1044554Y8554223D01*
X-1405733Y8312891D01*
X-1712891Y8005733D01*
X-1954223Y7644554D01*
X-2120455Y7243233D01*
X-2205200Y6817193D01*
X-15989300Y6817193D01*
X-15989300Y6959532D01*
X-15948393Y7376734D01*
X-15834629Y7753541D01*
X-15649838Y8101081D01*
X-15401066Y8406108D01*
X-15097782Y8657005D01*
X-14751540Y8844217D01*
X-14375538Y8960609D01*
X-13959849Y9004300D01*
X6959532Y9004300D01*
X7376734Y8963393D01*
X7376734Y8963393D01*
G37*
X7376734Y8963393D02*
X7753541Y8849629D01*
X8101081Y8664838D01*
X8406108Y8416066D01*
X8657005Y8112782D01*
X8844217Y7766540D01*
X8960609Y7390538D01*
X9004301Y6974840D01*
X9004300Y-6959532D01*
X8963393Y-7376734D01*
X8849627Y-7753544D01*
X8664837Y-8101084D01*
X8416064Y-8406109D01*
X8112782Y-8657005D01*
X7766543Y-8844215D01*
X7390539Y-8960609D01*
X6974849Y-9004300D01*
X-13944532Y-9004300D01*
X-14361734Y-8963393D01*
X-14738544Y-8849627D01*
X-15086084Y-8664837D01*
X-15391109Y-8416064D01*
X-15642005Y-8112782D01*
X-15829215Y-7766543D01*
X-15945609Y-7390539D01*
X-15989300Y-6974849D01*
X-15989300Y-6382807D01*
X-2205200Y-6382807D01*
X-2205200Y-6817193D01*
X-2120455Y-7243233D01*
X-1954223Y-7644554D01*
X-1712891Y-8005733D01*
X-1405733Y-8312891D01*
X-1044554Y-8554223D01*
X-643233Y-8720455D01*
X-217193Y-8805200D01*
X217193Y-8805200D01*
X643233Y-8720455D01*
X1044554Y-8554223D01*
X1405733Y-8312891D01*
X1712891Y-8005733D01*
X1954223Y-7644554D01*
X2120455Y-7243233D01*
X2205200Y-6817193D01*
X2205200Y-6382807D01*
X2120455Y-5956767D01*
X1954223Y-5555446D01*
X1712891Y-5194267D01*
X1405733Y-4887109D01*
X1044554Y-4645777D01*
X643233Y-4479545D01*
X217193Y-4394800D01*
X-217193Y-4394800D01*
X-643233Y-4479545D01*
X-1044554Y-4645777D01*
X-1405733Y-4887109D01*
X-1712891Y-5194267D01*
X-1954223Y-5555446D01*
X-2120455Y-5956767D01*
X-2205200Y-6382807D01*
X-15989300Y-6382807D01*
X-15989300Y-3810000D01*
X-15155910Y-3810000D01*
X-15133123Y-4041360D01*
X-15065638Y-4263828D01*
X-14956048Y-4468856D01*
X-14808565Y-4648565D01*
X-14628856Y-4796048D01*
X-14423828Y-4905638D01*
X-14201360Y-4973123D01*
X-14027975Y-4990200D01*
X-13912025Y-4990200D01*
X-13738640Y-4973123D01*
X-13516172Y-4905638D01*
X-13311144Y-4796048D01*
X-13131435Y-4648565D01*
X-12983952Y-4468856D01*
X-12874362Y-4263828D01*
X-12806877Y-4041360D01*
X-12784090Y-3810000D01*
X-12806877Y-3578640D01*
X-12874362Y-3356172D01*
X-12983952Y-3151144D01*
X-13131435Y-2971435D01*
X-13311144Y-2823952D01*
X-13516172Y-2714362D01*
X-13738640Y-2646877D01*
X-13912025Y-2629800D01*
X-14027975Y-2629800D01*
X-14201360Y-2646877D01*
X-14423828Y-2714362D01*
X-14628856Y-2823952D01*
X-14808565Y-2971435D01*
X-14956048Y-3151144D01*
X-15065638Y-3356172D01*
X-15133123Y-3578640D01*
X-15155910Y-3810000D01*
X-15989300Y-3810000D01*
X-15989300Y-1270000D01*
X-15155910Y-1270000D01*
X-15133123Y-1501360D01*
X-15065638Y-1723828D01*
X-14956048Y-1928856D01*
X-14808565Y-2108565D01*
X-14628856Y-2256048D01*
X-14423828Y-2365638D01*
X-14201360Y-2433123D01*
X-14027975Y-2450200D01*
X-13912025Y-2450200D01*
X-13738640Y-2433123D01*
X-13519830Y-2366748D01*
X-13039171Y-2847407D01*
X-13024853Y-2864853D01*
X-13007408Y-2879170D01*
X-12955237Y-2921987D01*
X-12912783Y-2944678D01*
X-12875809Y-2964441D01*
X-12789627Y-2990585D01*
X-12722460Y-2997200D01*
X-12722451Y-2997200D01*
X-12700001Y-2999411D01*
X-12677551Y-2997200D01*
X-12289710Y-2997200D01*
X-12416048Y-3151144D01*
X-12525638Y-3356172D01*
X-12593123Y-3578640D01*
X-12615910Y-3810000D01*
X-12593123Y-4041360D01*
X-12525638Y-4263828D01*
X-12416048Y-4468856D01*
X-12268565Y-4648565D01*
X-12088856Y-4796048D01*
X-11883828Y-4905638D01*
X-11661360Y-4973123D01*
X-11487975Y-4990200D01*
X-11372025Y-4990200D01*
X-11198640Y-4973123D01*
X-10976172Y-4905638D01*
X-10771144Y-4796048D01*
X-10591435Y-4648565D01*
X-10443952Y-4468856D01*
X-10334362Y-4263828D01*
X-10266877Y-4041360D01*
X-10244090Y-3810000D01*
X-10252012Y-3729565D01*
X-8213170Y-5768408D01*
X-8198853Y-5785853D01*
X-8129236Y-5842987D01*
X-8049809Y-5885441D01*
X-7963627Y-5911585D01*
X-7896460Y-5918200D01*
X-7896450Y-5918200D01*
X-7874000Y-5920411D01*
X-7851550Y-5918200D01*
X-5229450Y-5918200D01*
X-5207000Y-5920411D01*
X-5184550Y-5918200D01*
X-5184540Y-5918200D01*
X-5117373Y-5911585D01*
X-5031191Y-5885441D01*
X-4951764Y-5842987D01*
X-4882147Y-5785853D01*
X-4867826Y-5768403D01*
X-2056622Y-2957200D01*
X6249580Y-2957200D01*
X6321192Y-3130086D01*
X6466766Y-3347953D01*
X6652047Y-3533234D01*
X6869914Y-3678808D01*
X7111995Y-3779081D01*
X7368987Y-3830200D01*
X7631013Y-3830200D01*
X7888005Y-3779081D01*
X8130086Y-3678808D01*
X8347953Y-3533234D01*
X8533234Y-3347953D01*
X8678808Y-3130086D01*
X8779081Y-2888005D01*
X8830200Y-2631013D01*
X8830200Y-2368987D01*
X8779081Y-2111995D01*
X8678808Y-1869914D01*
X8533234Y-1652047D01*
X8347953Y-1466766D01*
X8130086Y-1321192D01*
X7956744Y-1249392D01*
X8068172Y-1209866D01*
X8190307Y-1144585D01*
X8302259Y-963904D01*
X7500000Y-161645D01*
X6697741Y-963904D01*
X6809693Y-1144585D01*
X7036021Y-1252388D01*
X6869914Y-1321192D01*
X6652047Y-1466766D01*
X6466766Y-1652047D01*
X6321192Y-1869914D01*
X6249580Y-2042800D01*
X-2223551Y-2042800D01*
X-2246001Y-2040589D01*
X-2268451Y-2042800D01*
X-2268460Y-2042800D01*
X-2335627Y-2049415D01*
X-2421809Y-2075559D01*
X-2435356Y-2082800D01*
X-2501237Y-2118013D01*
X-2553408Y-2160830D01*
X-2570853Y-2175147D01*
X-2585170Y-2192592D01*
X-5396377Y-5003800D01*
X-6332991Y-5003800D01*
X-6231730Y-4936140D01*
X-6063860Y-4768270D01*
X-5931966Y-4570876D01*
X-5841116Y-4351544D01*
X-5794800Y-4118702D01*
X-5794800Y-3881298D01*
X-5841116Y-3648456D01*
X-5931966Y-3429124D01*
X-6063860Y-3231730D01*
X-6231730Y-3063860D01*
X-6327304Y-3000000D01*
X-6231730Y-2936140D01*
X-6063860Y-2768270D01*
X-5931966Y-2570876D01*
X-5841116Y-2351544D01*
X-5794800Y-2118702D01*
X-5794800Y-1881298D01*
X-5841116Y-1648456D01*
X-5931966Y-1429124D01*
X-6063860Y-1231730D01*
X-6231730Y-1063860D01*
X-6327304Y-1000000D01*
X-6231730Y-936140D01*
X-6063860Y-768270D01*
X-5931966Y-570876D01*
X-5841116Y-351544D01*
X-5794800Y-118702D01*
X-5794800Y-61928D01*
X6164799Y-61928D01*
X6202536Y-321222D01*
X6290134Y-568172D01*
X6355415Y-690307D01*
X6536096Y-802259D01*
X7338355Y0D01*
X7661645Y0D01*
X8463904Y-802259D01*
X8644585Y-690307D01*
X8757263Y-453745D01*
X8821627Y-199747D01*
X8835201Y61928D01*
X8797464Y321222D01*
X8709866Y568172D01*
X8644585Y690307D01*
X8463904Y802259D01*
X7661645Y0D01*
X7338355Y0D01*
X6536096Y802259D01*
X6355415Y690307D01*
X6242737Y453745D01*
X6178373Y199747D01*
X6164799Y-61928D01*
X-5794800Y-61928D01*
X-5794800Y118702D01*
X-5841116Y351544D01*
X-5931966Y570876D01*
X-6063860Y768270D01*
X-6231730Y936140D01*
X-6327304Y1000000D01*
X-6231730Y1063860D01*
X-6063860Y1231730D01*
X-5931966Y1429124D01*
X-5841116Y1648456D01*
X-5794800Y1881298D01*
X-5794800Y2118702D01*
X-5841116Y2351544D01*
X-5931966Y2570876D01*
X-6063860Y2768270D01*
X-6231730Y2936140D01*
X-6327304Y3000000D01*
X-6231730Y3063860D01*
X-6063860Y3231730D01*
X-5931966Y3429124D01*
X-5841116Y3648456D01*
X-5794800Y3881298D01*
X-5794800Y4118702D01*
X-5841116Y4351544D01*
X-5931966Y4570876D01*
X-6063860Y4768270D01*
X-6231730Y4936140D01*
X-6429124Y5068034D01*
X-6648456Y5158884D01*
X-6881298Y5205200D01*
X-7118702Y5205200D01*
X-7351544Y5158884D01*
X-7570876Y5068034D01*
X-7768270Y4936140D01*
X-7936140Y4768270D01*
X-8068034Y4570876D01*
X-8158884Y4351544D01*
X-8205200Y4118702D01*
X-8205200Y3881298D01*
X-8158884Y3648456D01*
X-8068034Y3429124D01*
X-7936140Y3231730D01*
X-7768270Y3063860D01*
X-7672696Y3000000D01*
X-7768270Y2936140D01*
X-7936140Y2768270D01*
X-8068034Y2570876D01*
X-8158884Y2351544D01*
X-8205200Y2118702D01*
X-8205200Y1881298D01*
X-8158884Y1648456D01*
X-8068034Y1429124D01*
X-7936140Y1231730D01*
X-7768270Y1063860D01*
X-7672696Y1000000D01*
X-7768270Y936140D01*
X-7936140Y768270D01*
X-8068034Y570876D01*
X-8158884Y351544D01*
X-8205200Y118702D01*
X-8205200Y-118702D01*
X-8158884Y-351544D01*
X-8068034Y-570876D01*
X-7936140Y-768270D01*
X-7768270Y-936140D01*
X-7672696Y-1000000D01*
X-7768270Y-1063860D01*
X-7936140Y-1231730D01*
X-8068034Y-1429124D01*
X-8158884Y-1648456D01*
X-8205200Y-1881298D01*
X-8205200Y-2118702D01*
X-8158884Y-2351544D01*
X-8068034Y-2570876D01*
X-7936140Y-2768270D01*
X-7768270Y-2936140D01*
X-7672696Y-3000000D01*
X-7768270Y-3063860D01*
X-7936140Y-3231730D01*
X-8068034Y-3429124D01*
X-8158884Y-3648456D01*
X-8205200Y-3881298D01*
X-8205200Y-4118702D01*
X-8158884Y-4351544D01*
X-8068034Y-4570876D01*
X-7968334Y-4720088D01*
X-10455826Y-2232597D01*
X-10470147Y-2215147D01*
X-10539764Y-2158013D01*
X-10607543Y-2121785D01*
X-10591435Y-2108565D01*
X-10443952Y-1928856D01*
X-10334362Y-1723828D01*
X-10266877Y-1501360D01*
X-10244090Y-1270000D01*
X-10266877Y-1038640D01*
X-10334362Y-816172D01*
X-10443952Y-611144D01*
X-10591435Y-431435D01*
X-10771144Y-283952D01*
X-10976172Y-174362D01*
X-11198640Y-106877D01*
X-11372025Y-89800D01*
X-11487975Y-89800D01*
X-11661360Y-106877D01*
X-11883828Y-174362D01*
X-12088856Y-283952D01*
X-12268565Y-431435D01*
X-12416048Y-611144D01*
X-12525638Y-816172D01*
X-12593123Y-1038640D01*
X-12615910Y-1270000D01*
X-12593123Y-1501360D01*
X-12525638Y-1723828D01*
X-12416048Y-1928856D01*
X-12289710Y-2082800D01*
X-12510622Y-2082800D01*
X-12873252Y-1720170D01*
X-12806877Y-1501360D01*
X-12784090Y-1270000D01*
X-12806877Y-1038640D01*
X-12874362Y-816172D01*
X-12983952Y-611144D01*
X-13131435Y-431435D01*
X-13311144Y-283952D01*
X-13516172Y-174362D01*
X-13738640Y-106877D01*
X-13912025Y-89800D01*
X-14027975Y-89800D01*
X-14201360Y-106877D01*
X-14423828Y-174362D01*
X-14628856Y-283952D01*
X-14808565Y-431435D01*
X-14956048Y-611144D01*
X-15065638Y-816172D01*
X-15133123Y-1038640D01*
X-15155910Y-1270000D01*
X-15989300Y-1270000D01*
X-15989300Y1270000D01*
X-15155910Y1270000D01*
X-15133123Y1038640D01*
X-15065638Y816172D01*
X-14956048Y611144D01*
X-14808565Y431435D01*
X-14628856Y283952D01*
X-14423828Y174362D01*
X-14201360Y106877D01*
X-14027975Y89800D01*
X-13912025Y89800D01*
X-13738640Y106877D01*
X-13516172Y174362D01*
X-13311144Y283952D01*
X-13131435Y431435D01*
X-12983952Y611144D01*
X-12874362Y816172D01*
X-12806877Y1038640D01*
X-12784090Y1270000D01*
X-12615910Y1270000D01*
X-12593123Y1038640D01*
X-12525638Y816172D01*
X-12416048Y611144D01*
X-12268565Y431435D01*
X-12088856Y283952D01*
X-11883828Y174362D01*
X-11661360Y106877D01*
X-11487975Y89800D01*
X-11372025Y89800D01*
X-11198640Y106877D01*
X-10976172Y174362D01*
X-10771144Y283952D01*
X-10591435Y431435D01*
X-10443952Y611144D01*
X-10334362Y816172D01*
X-10266877Y1038640D01*
X-10244090Y1270000D01*
X-10266877Y1501360D01*
X-10334362Y1723828D01*
X-10443952Y1928856D01*
X-10591435Y2108565D01*
X-10771144Y2256048D01*
X-10976172Y2365638D01*
X-11198640Y2433123D01*
X-11372025Y2450200D01*
X-11487975Y2450200D01*
X-11661360Y2433123D01*
X-11883828Y2365638D01*
X-12088856Y2256048D01*
X-12268565Y2108565D01*
X-12416048Y1928856D01*
X-12525638Y1723828D01*
X-12593123Y1501360D01*
X-12615910Y1270000D01*
X-12784090Y1270000D01*
X-12806877Y1501360D01*
X-12873252Y1720170D01*
X-12392592Y2200830D01*
X-12375147Y2215147D01*
X-12360830Y2232592D01*
X-12318013Y2284763D01*
X-12275560Y2364190D01*
X-12275559Y2364191D01*
X-12249415Y2450373D01*
X-12242800Y2517540D01*
X-12242800Y2517549D01*
X-12240589Y2539999D01*
X-12242800Y2562449D01*
X-12242800Y2961845D01*
X-12141214Y2868161D01*
X-11943805Y2747507D01*
X-11726650Y2667684D01*
X-11544300Y2717892D01*
X-11544300Y3695700D01*
X-11315700Y3695700D01*
X-11315700Y2717892D01*
X-11133350Y2667684D01*
X-10916195Y2747507D01*
X-10718786Y2868161D01*
X-10548708Y3025009D01*
X-10412498Y3212024D01*
X-10315390Y3422019D01*
X-10287690Y3513351D01*
X-10338317Y3695700D01*
X-11315700Y3695700D01*
X-11544300Y3695700D01*
X-11564300Y3695700D01*
X-11564300Y3924300D01*
X-11544300Y3924300D01*
X-11544300Y4902108D01*
X-11315700Y4902108D01*
X-11315700Y3924300D01*
X-10338317Y3924300D01*
X-10287690Y4106649D01*
X-10315390Y4197981D01*
X-10412498Y4407976D01*
X-10548708Y4594991D01*
X-10718786Y4751839D01*
X-10916195Y4872493D01*
X-11133350Y4952316D01*
X-11315700Y4902108D01*
X-11544300Y4902108D01*
X-11585085Y4913338D01*
X-10986622Y5511800D01*
X-6158377Y5511800D01*
X-2839170Y2192592D01*
X-2824853Y2175147D01*
X-2807408Y2160830D01*
X-2756076Y2118702D01*
X-2755236Y2118013D01*
X-2675809Y2075559D01*
X-2589627Y2049415D01*
X-2522460Y2042800D01*
X-2522450Y2042800D01*
X-2500000Y2040589D01*
X-2477550Y2042800D01*
X6249580Y2042800D01*
X6321192Y1869914D01*
X6466766Y1652047D01*
X6652047Y1466766D01*
X6869914Y1321192D01*
X7043256Y1249392D01*
X6931828Y1209866D01*
X6809693Y1144585D01*
X6697741Y963904D01*
X7500000Y161645D01*
X8302259Y963904D01*
X8190307Y1144585D01*
X7963979Y1252388D01*
X8130086Y1321192D01*
X8347953Y1466766D01*
X8533234Y1652047D01*
X8678808Y1869914D01*
X8779081Y2111995D01*
X8830200Y2368987D01*
X8830200Y2631013D01*
X8779081Y2888005D01*
X8678808Y3130086D01*
X8533234Y3347953D01*
X8347953Y3533234D01*
X8130086Y3678808D01*
X7888005Y3779081D01*
X7631013Y3830200D01*
X7368987Y3830200D01*
X7111995Y3779081D01*
X6869914Y3678808D01*
X6652047Y3533234D01*
X6466766Y3347953D01*
X6321192Y3130086D01*
X6249580Y2957200D01*
X-2310622Y2957200D01*
X-5629826Y6276403D01*
X-5644147Y6293853D01*
X-5713764Y6350987D01*
X-5793191Y6393441D01*
X-5879373Y6419585D01*
X-5946540Y6426200D01*
X-5946550Y6426200D01*
X-5969000Y6428411D01*
X-5991450Y6426200D01*
X-11153551Y6426200D01*
X-11176001Y6428411D01*
X-11198451Y6426200D01*
X-11198460Y6426200D01*
X-11265627Y6419585D01*
X-11351809Y6393441D01*
X-11371704Y6382807D01*
X-11431237Y6350987D01*
X-11483408Y6308170D01*
X-11500853Y6293853D01*
X-11515170Y6276408D01*
X-12891743Y4899834D01*
X-12935663Y4935879D01*
X-12993027Y4966540D01*
X-13055270Y4985422D01*
X-13120000Y4991797D01*
X-14820000Y4991797D01*
X-14884730Y4985422D01*
X-14946973Y4966540D01*
X-15004337Y4935879D01*
X-15054616Y4894616D01*
X-15095879Y4844337D01*
X-15126540Y4786973D01*
X-15145422Y4724730D01*
X-15151797Y4660000D01*
X-15151797Y2960000D01*
X-15145422Y2895270D01*
X-15126540Y2833027D01*
X-15095879Y2775663D01*
X-15054616Y2725384D01*
X-15004337Y2684121D01*
X-14946973Y2653460D01*
X-14884730Y2634578D01*
X-14820000Y2628203D01*
X-13258375Y2628203D01*
X-13519830Y2366748D01*
X-13738640Y2433123D01*
X-13912025Y2450200D01*
X-14027975Y2450200D01*
X-14201360Y2433123D01*
X-14423828Y2365638D01*
X-14628856Y2256048D01*
X-14808565Y2108565D01*
X-14956048Y1928856D01*
X-15065638Y1723828D01*
X-15133123Y1501360D01*
X-15155910Y1270000D01*
X-15989300Y1270000D01*
X-15989300Y6817193D01*
X-2205200Y6817193D01*
X-2205200Y6382807D01*
X-2120455Y5956767D01*
X-1954223Y5555446D01*
X-1712891Y5194267D01*
X-1405733Y4887109D01*
X-1044554Y4645777D01*
X-643233Y4479545D01*
X-217193Y4394800D01*
X217193Y4394800D01*
X643233Y4479545D01*
X1044554Y4645777D01*
X1405733Y4887109D01*
X1712891Y5194267D01*
X1954223Y5555446D01*
X2120455Y5956767D01*
X2205200Y6382807D01*
X2205200Y6817193D01*
X2120455Y7243233D01*
X1954223Y7644554D01*
X1712891Y8005733D01*
X1405733Y8312891D01*
X1044554Y8554223D01*
X643233Y8720455D01*
X217193Y8805200D01*
X-217193Y8805200D01*
X-643233Y8720455D01*
X-1044554Y8554223D01*
X-1405733Y8312891D01*
X-1712891Y8005733D01*
X-1954223Y7644554D01*
X-2120455Y7243233D01*
X-2205200Y6817193D01*
X-15989300Y6817193D01*
X-15989300Y6959532D01*
X-15948393Y7376734D01*
X-15834629Y7753541D01*
X-15649838Y8101081D01*
X-15401066Y8406108D01*
X-15097782Y8657005D01*
X-14751540Y8844217D01*
X-14375538Y8960609D01*
X-13959849Y9004300D01*
X6959532Y9004300D01*
X7376734Y8963393D01*
M02*
