M48
; DRILL file {KiCad (5.1.4)-1} date 3/27/2020 3:21:20 PM
; FORMAT={-:-/ absolute / inch / decimal}
; #@! TF.CreationDate,2020-03-27T15:21:20-04:00
; #@! TF.GenerationSoftware,Kicad,Pcbnew,(5.1.4)-1
; #@! TF.FileFunction,Plated,1,2,PTH
FMAT,2
INCH
T1C0.0157
T2C0.0374
T3C0.0394
T4C0.0400
T5C0.2087
%
G90
G05
T1
X0.02Y0.01
X0.06Y0.01
X0.1Y0.01
X0.325Y-0.18
X0.365Y-0.18
X0.405Y-0.18
T2
X-0.7Y-0.0547
X-0.7Y-0.1531
X-0.7Y-0.2516
X-0.7Y-0.35
X-0.4Y-0.0547
X-0.4Y-0.1531
X-0.4Y-0.2516
X-0.4Y-0.35
T3
X-0.4Y0.35
X-0.4Y0.2516
T4
X0.4Y0.1
X0.4Y0.0
X0.4Y-0.1
X0.5Y0.1
X0.5Y0.0
X0.5Y-0.1
T5
X0.0Y0.3937
X0.0Y-0.3937
T0
M30
