G04 #@! TF.GenerationSoftware,KiCad,Pcbnew,(5.1.4)-1*
G04 #@! TF.CreationDate,2020-03-27T15:21:16-04:00*
G04 #@! TF.ProjectId,RGB_endstop_breakout,5247425f-656e-4647-9374-6f705f627265,rev?*
G04 #@! TF.SameCoordinates,PX8e18f40PY6422c40*
G04 #@! TF.FileFunction,Legend,Bot*
G04 #@! TF.FilePolarity,Positive*
%FSLAX46Y46*%
G04 Gerber Fmt 4.6, Leading zero omitted, Abs format (unit mm)*
G04 Created by KiCad (PCBNEW (5.1.4)-1) date 2020-03-27 15:21:16*
%MOMM*%
%LPD*%
G04 APERTURE LIST*
%ADD10C,0.254000*%
%ADD11C,0.317500*%
%ADD12C,0.476250*%
%ADD13O,2.102000X1.802000*%
%ADD14C,0.100000*%
%ADD15C,1.802000*%
%ADD16O,2.052000X1.802000*%
%ADD17O,1.829200X1.829200*%
%ADD18R,1.829200X1.829200*%
%ADD19C,10.702000*%
G04 APERTURE END LIST*
D10*
X-21556381Y-307047D02*
X-20830667Y-307047D01*
X-20685524Y-258666D01*
X-20588762Y-161904D01*
X-20540381Y-16761D01*
X-20540381Y80000D01*
X-20540381Y-1274666D02*
X-20540381Y-790857D01*
X-21556381Y-790857D01*
X-20637143Y-2193904D02*
X-20588762Y-2145523D01*
X-20540381Y-2000380D01*
X-20540381Y-1903619D01*
X-20588762Y-1758476D01*
X-20685524Y-1661714D01*
X-20782286Y-1613333D01*
X-20975810Y-1564952D01*
X-21120953Y-1564952D01*
X-21314477Y-1613333D01*
X-21411239Y-1661714D01*
X-21508000Y-1758476D01*
X-21556381Y-1903619D01*
X-21556381Y-2000380D01*
X-21508000Y-2145523D01*
X-21459620Y-2193904D01*
X-21556381Y-2919619D02*
X-20830667Y-2919619D01*
X-20685524Y-2871238D01*
X-20588762Y-2774476D01*
X-20540381Y-2629333D01*
X-20540381Y-2532571D01*
X-20540381Y-3887238D02*
X-20540381Y-3403428D01*
X-21556381Y-3403428D01*
X-20637143Y-4806476D02*
X-20588762Y-4758095D01*
X-20540381Y-4612952D01*
X-20540381Y-4516190D01*
X-20588762Y-4371047D01*
X-20685524Y-4274285D01*
X-20782286Y-4225904D01*
X-20975810Y-4177523D01*
X-21120953Y-4177523D01*
X-21314477Y-4225904D01*
X-21411239Y-4274285D01*
X-21508000Y-4371047D01*
X-21556381Y-4516190D01*
X-21556381Y-4612952D01*
X-21508000Y-4758095D01*
X-21459620Y-4806476D01*
X-21556381Y-5532190D02*
X-20830667Y-5532190D01*
X-20685524Y-5483809D01*
X-20588762Y-5387047D01*
X-20540381Y-5241904D01*
X-20540381Y-5145142D01*
X-20540381Y-6499809D02*
X-20540381Y-6016000D01*
X-21556381Y-6016000D01*
X-20637143Y-7419047D02*
X-20588762Y-7370666D01*
X-20540381Y-7225523D01*
X-20540381Y-7128761D01*
X-20588762Y-6983619D01*
X-20685524Y-6886857D01*
X-20782286Y-6838476D01*
X-20975810Y-6790095D01*
X-21120953Y-6790095D01*
X-21314477Y-6838476D01*
X-21411239Y-6886857D01*
X-21508000Y-6983619D01*
X-21556381Y-7128761D01*
X-21556381Y-7225523D01*
X-21508000Y-7370666D01*
X-21459620Y-7419047D01*
X-21556381Y-8144761D02*
X-20830667Y-8144761D01*
X-20685524Y-8096380D01*
X-20588762Y-7999619D01*
X-20540381Y-7854476D01*
X-20540381Y-7757714D01*
X-20540381Y-9112380D02*
X-20540381Y-8628571D01*
X-21556381Y-8628571D01*
X-20637143Y-10031619D02*
X-20588762Y-9983238D01*
X-20540381Y-9838095D01*
X-20540381Y-9741333D01*
X-20588762Y-9596190D01*
X-20685524Y-9499428D01*
X-20782286Y-9451047D01*
X-20975810Y-9402666D01*
X-21120953Y-9402666D01*
X-21314477Y-9451047D01*
X-21411239Y-9499428D01*
X-21508000Y-9596190D01*
X-21556381Y-9741333D01*
X-21556381Y-9838095D01*
X-21508000Y-9983238D01*
X-21459620Y-10031619D01*
D11*
X7989285Y-1463273D02*
X7989285Y-193273D01*
X7445000Y-1402797D02*
X7324047Y-1463273D01*
X7082142Y-1463273D01*
X6961190Y-1402797D01*
X6900714Y-1281845D01*
X6900714Y-1221369D01*
X6961190Y-1100416D01*
X7082142Y-1039940D01*
X7263571Y-1039940D01*
X7384523Y-979464D01*
X7445000Y-858511D01*
X7445000Y-798035D01*
X7384523Y-677083D01*
X7263571Y-616607D01*
X7082142Y-616607D01*
X6961190Y-677083D01*
X6356428Y-1463273D02*
X6356428Y-193273D01*
X5812142Y-1463273D02*
X5812142Y-798035D01*
X5872619Y-677083D01*
X5993571Y-616607D01*
X6175000Y-616607D01*
X6295952Y-677083D01*
X6356428Y-737559D01*
X4663095Y-1463273D02*
X4663095Y-798035D01*
X4723571Y-677083D01*
X4844523Y-616607D01*
X5086428Y-616607D01*
X5207380Y-677083D01*
X4663095Y-1402797D02*
X4784047Y-1463273D01*
X5086428Y-1463273D01*
X5207380Y-1402797D01*
X5267857Y-1281845D01*
X5267857Y-1160892D01*
X5207380Y-1039940D01*
X5086428Y-979464D01*
X4784047Y-979464D01*
X4663095Y-918988D01*
X3514047Y-1463273D02*
X3514047Y-798035D01*
X3574523Y-677083D01*
X3695476Y-616607D01*
X3937380Y-616607D01*
X4058333Y-677083D01*
X3514047Y-1402797D02*
X3635000Y-1463273D01*
X3937380Y-1463273D01*
X4058333Y-1402797D01*
X4118809Y-1281845D01*
X4118809Y-1160892D01*
X4058333Y-1039940D01*
X3937380Y-979464D01*
X3635000Y-979464D01*
X3514047Y-918988D01*
X2909285Y-616607D02*
X2909285Y-1463273D01*
X2909285Y-737559D02*
X2848809Y-677083D01*
X2727857Y-616607D01*
X2546428Y-616607D01*
X2425476Y-677083D01*
X2365000Y-798035D01*
X2365000Y-1463273D01*
X127380Y-253750D02*
X248333Y-193273D01*
X429761Y-193273D01*
X611190Y-253750D01*
X732142Y-374702D01*
X792619Y-495654D01*
X853095Y-737559D01*
X853095Y-918988D01*
X792619Y-1160892D01*
X732142Y-1281845D01*
X611190Y-1402797D01*
X429761Y-1463273D01*
X308809Y-1463273D01*
X127380Y-1402797D01*
X66904Y-1342321D01*
X66904Y-918988D01*
X308809Y-918988D01*
X-658810Y-1463273D02*
X-537858Y-1402797D01*
X-477381Y-1342321D01*
X-416905Y-1221369D01*
X-416905Y-858511D01*
X-477381Y-737559D01*
X-537858Y-677083D01*
X-658810Y-616607D01*
X-840239Y-616607D01*
X-961191Y-677083D01*
X-1021667Y-737559D01*
X-1082143Y-858511D01*
X-1082143Y-1221369D01*
X-1021667Y-1342321D01*
X-961191Y-1402797D01*
X-840239Y-1463273D01*
X-658810Y-1463273D01*
X-1505477Y-616607D02*
X-1807858Y-1463273D01*
X-2110239Y-616607D01*
X6870476Y-2415773D02*
X6870476Y-3322916D01*
X6930952Y-3504345D01*
X7051904Y-3625297D01*
X7233333Y-3685773D01*
X7354285Y-3685773D01*
X5721428Y-3685773D02*
X5721428Y-3020535D01*
X5781904Y-2899583D01*
X5902857Y-2839107D01*
X6144761Y-2839107D01*
X6265714Y-2899583D01*
X5721428Y-3625297D02*
X5842380Y-3685773D01*
X6144761Y-3685773D01*
X6265714Y-3625297D01*
X6326190Y-3504345D01*
X6326190Y-3383392D01*
X6265714Y-3262440D01*
X6144761Y-3201964D01*
X5842380Y-3201964D01*
X5721428Y-3141488D01*
X5116666Y-2839107D02*
X5116666Y-3685773D01*
X5116666Y-2960059D02*
X5056190Y-2899583D01*
X4935238Y-2839107D01*
X4753809Y-2839107D01*
X4632857Y-2899583D01*
X4572380Y-3020535D01*
X4572380Y-3685773D01*
X3060476Y-2536726D02*
X3000000Y-2476250D01*
X2879047Y-2415773D01*
X2576666Y-2415773D01*
X2455714Y-2476250D01*
X2395238Y-2536726D01*
X2334761Y-2657678D01*
X2334761Y-2778630D01*
X2395238Y-2960059D01*
X3120952Y-3685773D01*
X2334761Y-3685773D01*
X1548571Y-2415773D02*
X1427619Y-2415773D01*
X1306666Y-2476250D01*
X1246190Y-2536726D01*
X1185714Y-2657678D01*
X1125238Y-2899583D01*
X1125238Y-3201964D01*
X1185714Y-3443869D01*
X1246190Y-3564821D01*
X1306666Y-3625297D01*
X1427619Y-3685773D01*
X1548571Y-3685773D01*
X1669523Y-3625297D01*
X1730000Y-3564821D01*
X1790476Y-3443869D01*
X1850952Y-3201964D01*
X1850952Y-2899583D01*
X1790476Y-2657678D01*
X1730000Y-2536726D01*
X1669523Y-2476250D01*
X1548571Y-2415773D01*
X641428Y-2536726D02*
X580952Y-2476250D01*
X460000Y-2415773D01*
X157619Y-2415773D01*
X36666Y-2476250D01*
X-23810Y-2536726D01*
X-84286Y-2657678D01*
X-84286Y-2778630D01*
X-23810Y-2960059D01*
X701904Y-3685773D01*
X-84286Y-3685773D01*
X-870477Y-2415773D02*
X-991429Y-2415773D01*
X-1112381Y-2476250D01*
X-1172858Y-2536726D01*
X-1233334Y-2657678D01*
X-1293810Y-2899583D01*
X-1293810Y-3201964D01*
X-1233334Y-3443869D01*
X-1172858Y-3564821D01*
X-1112381Y-3625297D01*
X-991429Y-3685773D01*
X-870477Y-3685773D01*
X-749524Y-3625297D01*
X-689048Y-3564821D01*
X-628572Y-3443869D01*
X-568096Y-3201964D01*
X-568096Y-2899583D01*
X-628572Y-2657678D01*
X-689048Y-2536726D01*
X-749524Y-2476250D01*
X-870477Y-2415773D01*
D12*
X7209642Y1138215D02*
X8116785Y1138215D01*
X8116785Y3043215D01*
X6574642Y2136072D02*
X5939642Y2136072D01*
X5667500Y1138215D02*
X6574642Y1138215D01*
X6574642Y3043215D01*
X5667500Y3043215D01*
X4851071Y1138215D02*
X4851071Y3043215D01*
X4397500Y3043215D01*
X4125357Y2952500D01*
X3943928Y2771072D01*
X3853214Y2589643D01*
X3762500Y2226786D01*
X3762500Y1954643D01*
X3853214Y1591786D01*
X3943928Y1410358D01*
X4125357Y1228929D01*
X4397500Y1138215D01*
X4851071Y1138215D01*
X859642Y2136072D02*
X587500Y2045358D01*
X496785Y1954643D01*
X406071Y1773215D01*
X406071Y1501072D01*
X496785Y1319643D01*
X587500Y1228929D01*
X768928Y1138215D01*
X1494642Y1138215D01*
X1494642Y3043215D01*
X859642Y3043215D01*
X678214Y2952500D01*
X587500Y2861786D01*
X496785Y2680358D01*
X496785Y2498929D01*
X587500Y2317500D01*
X678214Y2226786D01*
X859642Y2136072D01*
X1494642Y2136072D01*
X-410358Y1138215D02*
X-410358Y2408215D01*
X-410358Y2045358D02*
X-501072Y2226786D01*
X-591786Y2317500D01*
X-773215Y2408215D01*
X-954643Y2408215D01*
X-2315358Y1228929D02*
X-2133929Y1138215D01*
X-1771072Y1138215D01*
X-1589643Y1228929D01*
X-1498929Y1410358D01*
X-1498929Y2136072D01*
X-1589643Y2317500D01*
X-1771072Y2408215D01*
X-2133929Y2408215D01*
X-2315358Y2317500D01*
X-2406072Y2136072D01*
X-2406072Y1954643D01*
X-1498929Y1773215D01*
X-4038929Y1138215D02*
X-4038929Y2136072D01*
X-3948215Y2317500D01*
X-3766786Y2408215D01*
X-3403929Y2408215D01*
X-3222500Y2317500D01*
X-4038929Y1228929D02*
X-3857500Y1138215D01*
X-3403929Y1138215D01*
X-3222500Y1228929D01*
X-3131786Y1410358D01*
X-3131786Y1591786D01*
X-3222500Y1773215D01*
X-3403929Y1863929D01*
X-3857500Y1863929D01*
X-4038929Y1954643D01*
X-4946072Y1138215D02*
X-4946072Y3043215D01*
X-5127500Y1863929D02*
X-5671786Y1138215D01*
X-5671786Y2408215D02*
X-4946072Y1682500D01*
X-6760358Y1138215D02*
X-6578929Y1228929D01*
X-6488215Y1319643D01*
X-6397500Y1501072D01*
X-6397500Y2045358D01*
X-6488215Y2226786D01*
X-6578929Y2317500D01*
X-6760358Y2408215D01*
X-7032500Y2408215D01*
X-7213929Y2317500D01*
X-7304643Y2226786D01*
X-7395358Y2045358D01*
X-7395358Y1501072D01*
X-7304643Y1319643D01*
X-7213929Y1228929D01*
X-7032500Y1138215D01*
X-6760358Y1138215D01*
X-9028215Y2408215D02*
X-9028215Y1138215D01*
X-8211786Y2408215D02*
X-8211786Y1410358D01*
X-8302500Y1228929D01*
X-8483929Y1138215D01*
X-8756072Y1138215D01*
X-8937500Y1228929D01*
X-9028215Y1319643D01*
X-9663215Y2408215D02*
X-10388929Y2408215D01*
X-9935358Y3043215D02*
X-9935358Y1410358D01*
X-10026072Y1228929D01*
X-10207500Y1138215D01*
X-10388929Y1138215D01*
%LPC*%
D13*
X-10160000Y8890000D03*
D14*
G36*
X-9348025Y7289724D02*
G01*
X-9322301Y7285908D01*
X-9297075Y7279589D01*
X-9272589Y7270828D01*
X-9249080Y7259709D01*
X-9226774Y7246339D01*
X-9205886Y7230848D01*
X-9186617Y7213383D01*
X-9169152Y7194114D01*
X-9153661Y7173226D01*
X-9140291Y7150920D01*
X-9129172Y7127411D01*
X-9120411Y7102925D01*
X-9114092Y7077699D01*
X-9110276Y7051975D01*
X-9109000Y7026000D01*
X-9109000Y5754000D01*
X-9110276Y5728025D01*
X-9114092Y5702301D01*
X-9120411Y5677075D01*
X-9129172Y5652589D01*
X-9140291Y5629080D01*
X-9153661Y5606774D01*
X-9169152Y5585886D01*
X-9186617Y5566617D01*
X-9205886Y5549152D01*
X-9226774Y5533661D01*
X-9249080Y5520291D01*
X-9272589Y5509172D01*
X-9297075Y5500411D01*
X-9322301Y5494092D01*
X-9348025Y5490276D01*
X-9374000Y5489000D01*
X-10946000Y5489000D01*
X-10971975Y5490276D01*
X-10997699Y5494092D01*
X-11022925Y5500411D01*
X-11047411Y5509172D01*
X-11070920Y5520291D01*
X-11093226Y5533661D01*
X-11114114Y5549152D01*
X-11133383Y5566617D01*
X-11150848Y5585886D01*
X-11166339Y5606774D01*
X-11179709Y5629080D01*
X-11190828Y5652589D01*
X-11199589Y5677075D01*
X-11205908Y5702301D01*
X-11209724Y5728025D01*
X-11211000Y5754000D01*
X-11211000Y7026000D01*
X-11209724Y7051975D01*
X-11205908Y7077699D01*
X-11199589Y7102925D01*
X-11190828Y7127411D01*
X-11179709Y7150920D01*
X-11166339Y7173226D01*
X-11150848Y7194114D01*
X-11133383Y7213383D01*
X-11114114Y7230848D01*
X-11093226Y7246339D01*
X-11070920Y7259709D01*
X-11047411Y7270828D01*
X-11022925Y7279589D01*
X-10997699Y7285908D01*
X-10971975Y7289724D01*
X-10946000Y7291000D01*
X-9374000Y7291000D01*
X-9348025Y7289724D01*
X-9348025Y7289724D01*
G37*
D15*
X-10160000Y6390000D03*
D16*
X-10160000Y-1390000D03*
X-10160000Y-3890000D03*
X-10160000Y-6390000D03*
D14*
G36*
X-9373025Y-7990276D02*
G01*
X-9347301Y-7994092D01*
X-9322075Y-8000411D01*
X-9297589Y-8009172D01*
X-9274080Y-8020291D01*
X-9251774Y-8033661D01*
X-9230886Y-8049152D01*
X-9211617Y-8066617D01*
X-9194152Y-8085886D01*
X-9178661Y-8106774D01*
X-9165291Y-8129080D01*
X-9154172Y-8152589D01*
X-9145411Y-8177075D01*
X-9139092Y-8202301D01*
X-9135276Y-8228025D01*
X-9134000Y-8254000D01*
X-9134000Y-9526000D01*
X-9135276Y-9551975D01*
X-9139092Y-9577699D01*
X-9145411Y-9602925D01*
X-9154172Y-9627411D01*
X-9165291Y-9650920D01*
X-9178661Y-9673226D01*
X-9194152Y-9694114D01*
X-9211617Y-9713383D01*
X-9230886Y-9730848D01*
X-9251774Y-9746339D01*
X-9274080Y-9759709D01*
X-9297589Y-9770828D01*
X-9322075Y-9779589D01*
X-9347301Y-9785908D01*
X-9373025Y-9789724D01*
X-9399000Y-9791000D01*
X-10921000Y-9791000D01*
X-10946975Y-9789724D01*
X-10972699Y-9785908D01*
X-10997925Y-9779589D01*
X-11022411Y-9770828D01*
X-11045920Y-9759709D01*
X-11068226Y-9746339D01*
X-11089114Y-9730848D01*
X-11108383Y-9713383D01*
X-11125848Y-9694114D01*
X-11141339Y-9673226D01*
X-11154709Y-9650920D01*
X-11165828Y-9627411D01*
X-11174589Y-9602925D01*
X-11180908Y-9577699D01*
X-11184724Y-9551975D01*
X-11186000Y-9526000D01*
X-11186000Y-8254000D01*
X-11184724Y-8228025D01*
X-11180908Y-8202301D01*
X-11174589Y-8177075D01*
X-11165828Y-8152589D01*
X-11154709Y-8129080D01*
X-11141339Y-8106774D01*
X-11125848Y-8085886D01*
X-11108383Y-8066617D01*
X-11089114Y-8049152D01*
X-11068226Y-8033661D01*
X-11045920Y-8020291D01*
X-11022411Y-8009172D01*
X-10997925Y-8000411D01*
X-10972699Y-7994092D01*
X-10946975Y-7990276D01*
X-10921000Y-7989000D01*
X-9399000Y-7989000D01*
X-9373025Y-7990276D01*
X-9373025Y-7990276D01*
G37*
D15*
X-10160000Y-8890000D03*
D16*
X-17780000Y-1390000D03*
X-17780000Y-3890000D03*
X-17780000Y-6390000D03*
D14*
G36*
X-16993025Y-7990276D02*
G01*
X-16967301Y-7994092D01*
X-16942075Y-8000411D01*
X-16917589Y-8009172D01*
X-16894080Y-8020291D01*
X-16871774Y-8033661D01*
X-16850886Y-8049152D01*
X-16831617Y-8066617D01*
X-16814152Y-8085886D01*
X-16798661Y-8106774D01*
X-16785291Y-8129080D01*
X-16774172Y-8152589D01*
X-16765411Y-8177075D01*
X-16759092Y-8202301D01*
X-16755276Y-8228025D01*
X-16754000Y-8254000D01*
X-16754000Y-9526000D01*
X-16755276Y-9551975D01*
X-16759092Y-9577699D01*
X-16765411Y-9602925D01*
X-16774172Y-9627411D01*
X-16785291Y-9650920D01*
X-16798661Y-9673226D01*
X-16814152Y-9694114D01*
X-16831617Y-9713383D01*
X-16850886Y-9730848D01*
X-16871774Y-9746339D01*
X-16894080Y-9759709D01*
X-16917589Y-9770828D01*
X-16942075Y-9779589D01*
X-16967301Y-9785908D01*
X-16993025Y-9789724D01*
X-17019000Y-9791000D01*
X-18541000Y-9791000D01*
X-18566975Y-9789724D01*
X-18592699Y-9785908D01*
X-18617925Y-9779589D01*
X-18642411Y-9770828D01*
X-18665920Y-9759709D01*
X-18688226Y-9746339D01*
X-18709114Y-9730848D01*
X-18728383Y-9713383D01*
X-18745848Y-9694114D01*
X-18761339Y-9673226D01*
X-18774709Y-9650920D01*
X-18785828Y-9627411D01*
X-18794589Y-9602925D01*
X-18800908Y-9577699D01*
X-18804724Y-9551975D01*
X-18806000Y-9526000D01*
X-18806000Y-8254000D01*
X-18804724Y-8228025D01*
X-18800908Y-8202301D01*
X-18794589Y-8177075D01*
X-18785828Y-8152589D01*
X-18774709Y-8129080D01*
X-18761339Y-8106774D01*
X-18745848Y-8085886D01*
X-18728383Y-8066617D01*
X-18709114Y-8049152D01*
X-18688226Y-8033661D01*
X-18665920Y-8020291D01*
X-18642411Y-8009172D01*
X-18617925Y-8000411D01*
X-18592699Y-7994092D01*
X-18566975Y-7990276D01*
X-18541000Y-7989000D01*
X-17019000Y-7989000D01*
X-16993025Y-7990276D01*
X-16993025Y-7990276D01*
G37*
D15*
X-17780000Y-8890000D03*
D17*
X10160000Y2540000D03*
X12700000Y2540000D03*
X10160000Y0D03*
X12700000Y0D03*
X10160000Y-2540000D03*
D18*
X12700000Y-2540000D03*
D19*
X0Y-10000000D03*
X0Y10000000D03*
M02*
