G04 #@! TF.GenerationSoftware,KiCad,Pcbnew,(5.1.4)-1*
G04 #@! TF.CreationDate,2020-03-27T15:21:16-04:00*
G04 #@! TF.ProjectId,RGB_endstop_breakout,5247425f-656e-4647-9374-6f705f627265,rev?*
G04 #@! TF.SameCoordinates,PX8e18f40PY6422c40*
G04 #@! TF.FileFunction,Copper,L1,Top*
G04 #@! TF.FilePolarity,Positive*
%FSLAX46Y46*%
G04 Gerber Fmt 4.6, Leading zero omitted, Abs format (unit mm)*
G04 Created by KiCad (PCBNEW (5.1.4)-1) date 2020-03-27 15:21:16*
%MOMM*%
%LPD*%
G04 APERTURE LIST*
%ADD10O,2.000000X1.700000*%
%ADD11C,0.100000*%
%ADD12C,1.700000*%
%ADD13O,1.950000X1.700000*%
%ADD14O,1.727200X1.727200*%
%ADD15R,1.727200X1.727200*%
%ADD16C,10.600000*%
%ADD17C,0.800000*%
%ADD18C,0.304800*%
%ADD19C,0.762000*%
%ADD20C,0.152400*%
G04 APERTURE END LIST*
D10*
X-10160000Y8890000D03*
D11*
G36*
X-9385496Y7238796D02*
G01*
X-9361227Y7235196D01*
X-9337429Y7229235D01*
X-9314329Y7220970D01*
X-9292151Y7210480D01*
X-9271107Y7197867D01*
X-9251402Y7183253D01*
X-9233223Y7166777D01*
X-9216747Y7148598D01*
X-9202133Y7128893D01*
X-9189520Y7107849D01*
X-9179030Y7085671D01*
X-9170765Y7062571D01*
X-9164804Y7038773D01*
X-9161204Y7014504D01*
X-9160000Y6990000D01*
X-9160000Y5790000D01*
X-9161204Y5765496D01*
X-9164804Y5741227D01*
X-9170765Y5717429D01*
X-9179030Y5694329D01*
X-9189520Y5672151D01*
X-9202133Y5651107D01*
X-9216747Y5631402D01*
X-9233223Y5613223D01*
X-9251402Y5596747D01*
X-9271107Y5582133D01*
X-9292151Y5569520D01*
X-9314329Y5559030D01*
X-9337429Y5550765D01*
X-9361227Y5544804D01*
X-9385496Y5541204D01*
X-9410000Y5540000D01*
X-10910000Y5540000D01*
X-10934504Y5541204D01*
X-10958773Y5544804D01*
X-10982571Y5550765D01*
X-11005671Y5559030D01*
X-11027849Y5569520D01*
X-11048893Y5582133D01*
X-11068598Y5596747D01*
X-11086777Y5613223D01*
X-11103253Y5631402D01*
X-11117867Y5651107D01*
X-11130480Y5672151D01*
X-11140970Y5694329D01*
X-11149235Y5717429D01*
X-11155196Y5741227D01*
X-11158796Y5765496D01*
X-11160000Y5790000D01*
X-11160000Y6990000D01*
X-11158796Y7014504D01*
X-11155196Y7038773D01*
X-11149235Y7062571D01*
X-11140970Y7085671D01*
X-11130480Y7107849D01*
X-11117867Y7128893D01*
X-11103253Y7148598D01*
X-11086777Y7166777D01*
X-11068598Y7183253D01*
X-11048893Y7197867D01*
X-11027849Y7210480D01*
X-11005671Y7220970D01*
X-10982571Y7229235D01*
X-10958773Y7235196D01*
X-10934504Y7238796D01*
X-10910000Y7240000D01*
X-9410000Y7240000D01*
X-9385496Y7238796D01*
X-9385496Y7238796D01*
G37*
D12*
X-10160000Y6390000D03*
D13*
X-10160000Y-1390000D03*
X-10160000Y-3890000D03*
X-10160000Y-6390000D03*
D11*
G36*
X-9410496Y-8041204D02*
G01*
X-9386227Y-8044804D01*
X-9362429Y-8050765D01*
X-9339329Y-8059030D01*
X-9317151Y-8069520D01*
X-9296107Y-8082133D01*
X-9276402Y-8096747D01*
X-9258223Y-8113223D01*
X-9241747Y-8131402D01*
X-9227133Y-8151107D01*
X-9214520Y-8172151D01*
X-9204030Y-8194329D01*
X-9195765Y-8217429D01*
X-9189804Y-8241227D01*
X-9186204Y-8265496D01*
X-9185000Y-8290000D01*
X-9185000Y-9490000D01*
X-9186204Y-9514504D01*
X-9189804Y-9538773D01*
X-9195765Y-9562571D01*
X-9204030Y-9585671D01*
X-9214520Y-9607849D01*
X-9227133Y-9628893D01*
X-9241747Y-9648598D01*
X-9258223Y-9666777D01*
X-9276402Y-9683253D01*
X-9296107Y-9697867D01*
X-9317151Y-9710480D01*
X-9339329Y-9720970D01*
X-9362429Y-9729235D01*
X-9386227Y-9735196D01*
X-9410496Y-9738796D01*
X-9435000Y-9740000D01*
X-10885000Y-9740000D01*
X-10909504Y-9738796D01*
X-10933773Y-9735196D01*
X-10957571Y-9729235D01*
X-10980671Y-9720970D01*
X-11002849Y-9710480D01*
X-11023893Y-9697867D01*
X-11043598Y-9683253D01*
X-11061777Y-9666777D01*
X-11078253Y-9648598D01*
X-11092867Y-9628893D01*
X-11105480Y-9607849D01*
X-11115970Y-9585671D01*
X-11124235Y-9562571D01*
X-11130196Y-9538773D01*
X-11133796Y-9514504D01*
X-11135000Y-9490000D01*
X-11135000Y-8290000D01*
X-11133796Y-8265496D01*
X-11130196Y-8241227D01*
X-11124235Y-8217429D01*
X-11115970Y-8194329D01*
X-11105480Y-8172151D01*
X-11092867Y-8151107D01*
X-11078253Y-8131402D01*
X-11061777Y-8113223D01*
X-11043598Y-8096747D01*
X-11023893Y-8082133D01*
X-11002849Y-8069520D01*
X-10980671Y-8059030D01*
X-10957571Y-8050765D01*
X-10933773Y-8044804D01*
X-10909504Y-8041204D01*
X-10885000Y-8040000D01*
X-9435000Y-8040000D01*
X-9410496Y-8041204D01*
X-9410496Y-8041204D01*
G37*
D12*
X-10160000Y-8890000D03*
D13*
X-17780000Y-1390000D03*
X-17780000Y-3890000D03*
X-17780000Y-6390000D03*
D11*
G36*
X-17030496Y-8041204D02*
G01*
X-17006227Y-8044804D01*
X-16982429Y-8050765D01*
X-16959329Y-8059030D01*
X-16937151Y-8069520D01*
X-16916107Y-8082133D01*
X-16896402Y-8096747D01*
X-16878223Y-8113223D01*
X-16861747Y-8131402D01*
X-16847133Y-8151107D01*
X-16834520Y-8172151D01*
X-16824030Y-8194329D01*
X-16815765Y-8217429D01*
X-16809804Y-8241227D01*
X-16806204Y-8265496D01*
X-16805000Y-8290000D01*
X-16805000Y-9490000D01*
X-16806204Y-9514504D01*
X-16809804Y-9538773D01*
X-16815765Y-9562571D01*
X-16824030Y-9585671D01*
X-16834520Y-9607849D01*
X-16847133Y-9628893D01*
X-16861747Y-9648598D01*
X-16878223Y-9666777D01*
X-16896402Y-9683253D01*
X-16916107Y-9697867D01*
X-16937151Y-9710480D01*
X-16959329Y-9720970D01*
X-16982429Y-9729235D01*
X-17006227Y-9735196D01*
X-17030496Y-9738796D01*
X-17055000Y-9740000D01*
X-18505000Y-9740000D01*
X-18529504Y-9738796D01*
X-18553773Y-9735196D01*
X-18577571Y-9729235D01*
X-18600671Y-9720970D01*
X-18622849Y-9710480D01*
X-18643893Y-9697867D01*
X-18663598Y-9683253D01*
X-18681777Y-9666777D01*
X-18698253Y-9648598D01*
X-18712867Y-9628893D01*
X-18725480Y-9607849D01*
X-18735970Y-9585671D01*
X-18744235Y-9562571D01*
X-18750196Y-9538773D01*
X-18753796Y-9514504D01*
X-18755000Y-9490000D01*
X-18755000Y-8290000D01*
X-18753796Y-8265496D01*
X-18750196Y-8241227D01*
X-18744235Y-8217429D01*
X-18735970Y-8194329D01*
X-18725480Y-8172151D01*
X-18712867Y-8151107D01*
X-18698253Y-8131402D01*
X-18681777Y-8113223D01*
X-18663598Y-8096747D01*
X-18643893Y-8082133D01*
X-18622849Y-8069520D01*
X-18600671Y-8059030D01*
X-18577571Y-8050765D01*
X-18553773Y-8044804D01*
X-18529504Y-8041204D01*
X-18505000Y-8040000D01*
X-17055000Y-8040000D01*
X-17030496Y-8041204D01*
X-17030496Y-8041204D01*
G37*
D12*
X-17780000Y-8890000D03*
D14*
X10160000Y2540000D03*
X12700000Y2540000D03*
X10160000Y0D03*
X12700000Y0D03*
X10160000Y-2540000D03*
D15*
X12700000Y-2540000D03*
D16*
X0Y-10000000D03*
X0Y10000000D03*
D17*
X8255000Y-4572000D03*
X9271000Y-4572000D03*
X10287000Y-4572000D03*
X508000Y254000D03*
X1524000Y254000D03*
X2540000Y254000D03*
D18*
X-8422000Y6390000D02*
X-10160000Y6390000D01*
X10160000Y2540000D02*
X-4572000Y2540000D01*
X-4572000Y2540000D02*
X-8422000Y6390000D01*
X12700000Y2540000D02*
X11176000Y4064000D01*
X11176000Y4064000D02*
X9398000Y4064000D01*
X9398000Y4064000D02*
X8636000Y3302000D01*
X8636000Y3302000D02*
X-4318000Y3302000D01*
X-4318000Y3302000D02*
X-8382000Y7366000D01*
X-8382000Y7366000D02*
X-8382000Y8382000D01*
X-8382000Y8382000D02*
X-8890000Y8890000D01*
X-8890000Y8890000D02*
X-10160000Y8890000D01*
D19*
X-17780000Y-1390000D02*
X-10160000Y-1390000D01*
X10668000Y-4572000D02*
X12700000Y-2540000D01*
X8255000Y-4572000D02*
X9271000Y-4572000D01*
X9271000Y-4572000D02*
X10287000Y-4572000D01*
X10287000Y-4572000D02*
X10668000Y-4572000D01*
X-7105000Y-1390000D02*
X-10160000Y-1390000D01*
X2540000Y254000D02*
X-5461000Y254000D01*
X-5461000Y254000D02*
X-7105000Y-1390000D01*
X-10160000Y-6390000D02*
X-17780000Y-6390000D01*
X10160000Y-2540000D02*
X-3810000Y-2540000D01*
X-7660000Y-6390000D02*
X-10160000Y-6390000D01*
X-3810000Y-2540000D02*
X-7660000Y-6390000D01*
X-10160000Y-3890000D02*
X-17780000Y-3890000D01*
X-7382500Y-3890000D02*
X-10160000Y-3890000D01*
X-4635500Y-1143000D02*
X-7382500Y-3890000D01*
X7747000Y-1143000D02*
X-4635500Y-1143000D01*
X10160000Y0D02*
X8890000Y0D01*
X8890000Y0D02*
X7747000Y-1143000D01*
D20*
G36*
X1170067Y16917879D02*
G01*
X2156458Y16676511D01*
X3097664Y16295284D01*
X3973980Y15782179D01*
X4767050Y15147946D01*
X5460257Y14405872D01*
X6039080Y13571501D01*
X6491393Y12662317D01*
X6807724Y11697354D01*
X6982383Y10691421D01*
X7017443Y9987150D01*
X7017453Y9984344D01*
X7017708Y9981838D01*
X7017998Y9976005D01*
X7019581Y9963109D01*
X7019436Y9942297D01*
X7020094Y9935591D01*
X7060895Y9547399D01*
X7069683Y9504587D01*
X7077886Y9461586D01*
X7079834Y9455136D01*
X7195258Y9082261D01*
X7212206Y9041943D01*
X7228593Y9001383D01*
X7231756Y8995434D01*
X7417407Y8652078D01*
X7441874Y8615805D01*
X7465818Y8579215D01*
X7470077Y8573993D01*
X7718883Y8273238D01*
X7749935Y8242403D01*
X7780523Y8211167D01*
X7785715Y8206872D01*
X8088200Y7960171D01*
X8124610Y7935980D01*
X8160723Y7911253D01*
X8166650Y7908049D01*
X8511291Y7724799D01*
X8551729Y7708131D01*
X8591936Y7690899D01*
X8598373Y7688906D01*
X8972044Y7576089D01*
X9014956Y7567592D01*
X9057736Y7558499D01*
X9064437Y7557794D01*
X9452906Y7519704D01*
X9452910Y7519704D01*
X9476293Y7517401D01*
X15517400Y7517401D01*
X15517401Y-7517400D01*
X9476293Y-7517400D01*
X9454748Y-7519522D01*
X9442297Y-7519435D01*
X9435591Y-7520093D01*
X9047398Y-7560894D01*
X9004580Y-7569683D01*
X8961586Y-7577885D01*
X8955136Y-7579833D01*
X8582260Y-7695256D01*
X8541921Y-7712213D01*
X8501382Y-7728592D01*
X8495437Y-7731753D01*
X8495433Y-7731755D01*
X8495432Y-7731756D01*
X8152078Y-7917407D01*
X8115843Y-7941848D01*
X8079215Y-7965816D01*
X8073994Y-7970075D01*
X7773238Y-8218882D01*
X7742402Y-8249934D01*
X7711166Y-8280523D01*
X7706871Y-8285714D01*
X7460170Y-8588199D01*
X7435957Y-8624643D01*
X7411252Y-8660723D01*
X7408047Y-8666650D01*
X7224797Y-9011292D01*
X7208123Y-9051747D01*
X7190898Y-9091936D01*
X7188905Y-9098373D01*
X7076087Y-9472045D01*
X7067586Y-9514980D01*
X7058498Y-9557736D01*
X7057793Y-9564437D01*
X7019703Y-9952906D01*
X7019703Y-9956622D01*
X7018665Y-9965075D01*
X6942642Y-11012821D01*
X6723718Y-12004424D01*
X6363941Y-12954041D01*
X5870850Y-13841774D01*
X5254776Y-14649024D01*
X4528615Y-15358893D01*
X3707593Y-15956497D01*
X2808901Y-16429322D01*
X1851372Y-16767461D01*
X855048Y-16963834D01*
X-159179Y-17014326D01*
X-1170066Y-16917878D01*
X-2156457Y-16676510D01*
X-3097663Y-16295283D01*
X-3973979Y-15782179D01*
X-4767049Y-15147945D01*
X-5460256Y-14405871D01*
X-6042215Y-13566980D01*
X-6375679Y-12933185D01*
X-6378015Y-12929432D01*
X-6379261Y-12926504D01*
X-6382533Y-12920614D01*
X-6538530Y-12644333D01*
X-6561125Y-12612125D01*
X-6582661Y-12579214D01*
X-6586920Y-12573992D01*
X-6835727Y-12273237D01*
X-6866760Y-12242420D01*
X-6897367Y-12211165D01*
X-6902559Y-12206870D01*
X-7205045Y-11960169D01*
X-7241482Y-11935961D01*
X-7277568Y-11911252D01*
X-7283495Y-11908047D01*
X-7628137Y-11724798D01*
X-7668558Y-11708138D01*
X-7708779Y-11690899D01*
X-7715215Y-11688907D01*
X-8088888Y-11576088D01*
X-8131785Y-11567594D01*
X-8174581Y-11558497D01*
X-8181278Y-11557793D01*
X-8181282Y-11557793D01*
X-8569751Y-11519704D01*
X-8569753Y-11519704D01*
X-8593136Y-11517401D01*
X-23517401Y-11517401D01*
X-23517401Y-9740000D01*
X-19086798Y-9740000D01*
X-19080423Y-9804731D01*
X-19061541Y-9866974D01*
X-19030880Y-9924337D01*
X-18989617Y-9974617D01*
X-18939337Y-10015880D01*
X-18881974Y-10046541D01*
X-18819731Y-10065423D01*
X-18755000Y-10071798D01*
X-18294350Y-10070200D01*
X-18211800Y-9987650D01*
X-18211800Y-9321800D01*
X-17348200Y-9321800D01*
X-17348200Y-9987650D01*
X-17265650Y-10070200D01*
X-16805000Y-10071798D01*
X-16740269Y-10065423D01*
X-16678026Y-10046541D01*
X-16620663Y-10015880D01*
X-16570383Y-9974617D01*
X-16529120Y-9924337D01*
X-16498459Y-9866974D01*
X-16479577Y-9804731D01*
X-16473202Y-9740000D01*
X-11466798Y-9740000D01*
X-11460423Y-9804731D01*
X-11441541Y-9866974D01*
X-11410880Y-9924337D01*
X-11369617Y-9974617D01*
X-11319337Y-10015880D01*
X-11261974Y-10046541D01*
X-11199731Y-10065423D01*
X-11135000Y-10071798D01*
X-10674350Y-10070200D01*
X-10591800Y-9987650D01*
X-10591800Y-9321800D01*
X-9728200Y-9321800D01*
X-9728200Y-9987650D01*
X-9645650Y-10070200D01*
X-9185000Y-10071798D01*
X-9120269Y-10065423D01*
X-9058026Y-10046541D01*
X-9000663Y-10015880D01*
X-8950383Y-9974617D01*
X-8909120Y-9924337D01*
X-8878459Y-9866974D01*
X-8859577Y-9804731D01*
X-8853202Y-9740000D01*
X-8854604Y-9445474D01*
X-5630200Y-9445474D01*
X-5630200Y-10554526D01*
X-5413834Y-11642269D01*
X-4989418Y-12666900D01*
X-4373262Y-13589043D01*
X-3589043Y-14373262D01*
X-2666900Y-14989418D01*
X-1642269Y-15413834D01*
X-554526Y-15630200D01*
X554526Y-15630200D01*
X1642269Y-15413834D01*
X2666900Y-14989418D01*
X3589043Y-14373262D01*
X4373262Y-13589043D01*
X4989418Y-12666900D01*
X5413834Y-11642269D01*
X5630200Y-10554526D01*
X5630200Y-9445474D01*
X5413834Y-8357731D01*
X4989418Y-7333100D01*
X4373262Y-6410957D01*
X3589043Y-5626738D01*
X2666900Y-5010582D01*
X1642269Y-4586166D01*
X554526Y-4369800D01*
X-554526Y-4369800D01*
X-1642269Y-4586166D01*
X-2666900Y-5010582D01*
X-3589043Y-5626738D01*
X-4373262Y-6410957D01*
X-4989418Y-7333100D01*
X-5413834Y-8357731D01*
X-5630200Y-9445474D01*
X-8854604Y-9445474D01*
X-8854800Y-9404350D01*
X-8937350Y-9321800D01*
X-9728200Y-9321800D01*
X-10591800Y-9321800D01*
X-11382650Y-9321800D01*
X-11465200Y-9404350D01*
X-11466798Y-9740000D01*
X-16473202Y-9740000D01*
X-16474800Y-9404350D01*
X-16557350Y-9321800D01*
X-17348200Y-9321800D01*
X-18211800Y-9321800D01*
X-19002650Y-9321800D01*
X-19085200Y-9404350D01*
X-19086798Y-9740000D01*
X-23517401Y-9740000D01*
X-23517401Y-8040000D01*
X-19086798Y-8040000D01*
X-19085200Y-8375650D01*
X-19002650Y-8458200D01*
X-18211800Y-8458200D01*
X-18211800Y-7792350D01*
X-17348200Y-7792350D01*
X-17348200Y-8458200D01*
X-16557350Y-8458200D01*
X-16474800Y-8375650D01*
X-16473202Y-8040000D01*
X-11466798Y-8040000D01*
X-11465200Y-8375650D01*
X-11382650Y-8458200D01*
X-10591800Y-8458200D01*
X-10591800Y-7792350D01*
X-9728200Y-7792350D01*
X-9728200Y-8458200D01*
X-8937350Y-8458200D01*
X-8854800Y-8375650D01*
X-8853202Y-8040000D01*
X-8859577Y-7975269D01*
X-8878459Y-7913026D01*
X-8909120Y-7855663D01*
X-8950383Y-7805383D01*
X-9000663Y-7764120D01*
X-9058026Y-7733459D01*
X-9120269Y-7714577D01*
X-9185000Y-7708202D01*
X-9645650Y-7709800D01*
X-9728200Y-7792350D01*
X-10591800Y-7792350D01*
X-10674350Y-7709800D01*
X-11135000Y-7708202D01*
X-11199731Y-7714577D01*
X-11261974Y-7733459D01*
X-11319337Y-7764120D01*
X-11369617Y-7805383D01*
X-11410880Y-7855663D01*
X-11441541Y-7913026D01*
X-11460423Y-7975269D01*
X-11466798Y-8040000D01*
X-16473202Y-8040000D01*
X-16479577Y-7975269D01*
X-16498459Y-7913026D01*
X-16529120Y-7855663D01*
X-16570383Y-7805383D01*
X-16620663Y-7764120D01*
X-16678026Y-7733459D01*
X-16740269Y-7714577D01*
X-16805000Y-7708202D01*
X-17265650Y-7709800D01*
X-17348200Y-7792350D01*
X-18211800Y-7792350D01*
X-18294350Y-7709800D01*
X-18755000Y-7708202D01*
X-18819731Y-7714577D01*
X-18881974Y-7733459D01*
X-18939337Y-7764120D01*
X-18989617Y-7805383D01*
X-19030880Y-7855663D01*
X-19061541Y-7913026D01*
X-19080423Y-7975269D01*
X-19086798Y-8040000D01*
X-23517401Y-8040000D01*
X-23517401Y-1390000D01*
X-19090910Y-1390000D01*
X-19068123Y-1621360D01*
X-19000638Y-1843828D01*
X-18891048Y-2048856D01*
X-18743565Y-2228565D01*
X-18563856Y-2376048D01*
X-18358828Y-2485638D01*
X-18136360Y-2553123D01*
X-17962975Y-2570200D01*
X-17597025Y-2570200D01*
X-17423640Y-2553123D01*
X-17201172Y-2485638D01*
X-16996144Y-2376048D01*
X-16816435Y-2228565D01*
X-16711910Y-2101200D01*
X-11228090Y-2101200D01*
X-11123565Y-2228565D01*
X-10943856Y-2376048D01*
X-10738828Y-2485638D01*
X-10516360Y-2553123D01*
X-10342975Y-2570200D01*
X-9977025Y-2570200D01*
X-9803640Y-2553123D01*
X-9581172Y-2485638D01*
X-9376144Y-2376048D01*
X-9196435Y-2228565D01*
X-9091910Y-2101200D01*
X-7139926Y-2101200D01*
X-7105000Y-2104640D01*
X-7070074Y-2101200D01*
X-7070064Y-2101200D01*
X-6965580Y-2090909D01*
X-6831519Y-2050242D01*
X-6707967Y-1984202D01*
X-6599673Y-1895327D01*
X-6577398Y-1868185D01*
X-5166412Y-457200D01*
X-4824728Y-457200D01*
X-4908982Y-482758D01*
X-5032533Y-548798D01*
X-5113691Y-615402D01*
X-5113696Y-615407D01*
X-5140827Y-637673D01*
X-5163093Y-664804D01*
X-7677087Y-3178800D01*
X-9091910Y-3178800D01*
X-9196435Y-3051435D01*
X-9376144Y-2903952D01*
X-9581172Y-2794362D01*
X-9803640Y-2726877D01*
X-9977025Y-2709800D01*
X-10342975Y-2709800D01*
X-10516360Y-2726877D01*
X-10738828Y-2794362D01*
X-10943856Y-2903952D01*
X-11123565Y-3051435D01*
X-11228090Y-3178800D01*
X-16711910Y-3178800D01*
X-16816435Y-3051435D01*
X-16996144Y-2903952D01*
X-17201172Y-2794362D01*
X-17423640Y-2726877D01*
X-17597025Y-2709800D01*
X-17962975Y-2709800D01*
X-18136360Y-2726877D01*
X-18358828Y-2794362D01*
X-18563856Y-2903952D01*
X-18743565Y-3051435D01*
X-18891048Y-3231144D01*
X-19000638Y-3436172D01*
X-19068123Y-3658640D01*
X-19090910Y-3890000D01*
X-19068123Y-4121360D01*
X-19000638Y-4343828D01*
X-18891048Y-4548856D01*
X-18743565Y-4728565D01*
X-18563856Y-4876048D01*
X-18358828Y-4985638D01*
X-18136360Y-5053123D01*
X-17962975Y-5070200D01*
X-17597025Y-5070200D01*
X-17423640Y-5053123D01*
X-17201172Y-4985638D01*
X-16996144Y-4876048D01*
X-16816435Y-4728565D01*
X-16711910Y-4601200D01*
X-11228090Y-4601200D01*
X-11123565Y-4728565D01*
X-10943856Y-4876048D01*
X-10738828Y-4985638D01*
X-10516360Y-5053123D01*
X-10342975Y-5070200D01*
X-9977025Y-5070200D01*
X-9803640Y-5053123D01*
X-9581172Y-4985638D01*
X-9376144Y-4876048D01*
X-9196435Y-4728565D01*
X-9091910Y-4601200D01*
X-7417426Y-4601200D01*
X-7382500Y-4604640D01*
X-7347574Y-4601200D01*
X-7347564Y-4601200D01*
X-7243080Y-4590909D01*
X-7109019Y-4550242D01*
X-6985467Y-4484202D01*
X-6877173Y-4395327D01*
X-6854898Y-4368185D01*
X-4340911Y-1854200D01*
X-3999228Y-1854200D01*
X-4083481Y-1879758D01*
X-4207033Y-1945798D01*
X-4288192Y-2012403D01*
X-4288196Y-2012407D01*
X-4315327Y-2034673D01*
X-4337593Y-2061804D01*
X-7954587Y-5678800D01*
X-9091910Y-5678800D01*
X-9196435Y-5551435D01*
X-9376144Y-5403952D01*
X-9581172Y-5294362D01*
X-9803640Y-5226877D01*
X-9977025Y-5209800D01*
X-10342975Y-5209800D01*
X-10516360Y-5226877D01*
X-10738828Y-5294362D01*
X-10943856Y-5403952D01*
X-11123565Y-5551435D01*
X-11228090Y-5678800D01*
X-16711910Y-5678800D01*
X-16816435Y-5551435D01*
X-16996144Y-5403952D01*
X-17201172Y-5294362D01*
X-17423640Y-5226877D01*
X-17597025Y-5209800D01*
X-17962975Y-5209800D01*
X-18136360Y-5226877D01*
X-18358828Y-5294362D01*
X-18563856Y-5403952D01*
X-18743565Y-5551435D01*
X-18891048Y-5731144D01*
X-19000638Y-5936172D01*
X-19068123Y-6158640D01*
X-19090910Y-6390000D01*
X-19068123Y-6621360D01*
X-19000638Y-6843828D01*
X-18891048Y-7048856D01*
X-18743565Y-7228565D01*
X-18563856Y-7376048D01*
X-18358828Y-7485638D01*
X-18136360Y-7553123D01*
X-17962975Y-7570200D01*
X-17597025Y-7570200D01*
X-17423640Y-7553123D01*
X-17201172Y-7485638D01*
X-16996144Y-7376048D01*
X-16816435Y-7228565D01*
X-16711910Y-7101200D01*
X-11228090Y-7101200D01*
X-11123565Y-7228565D01*
X-10943856Y-7376048D01*
X-10738828Y-7485638D01*
X-10516360Y-7553123D01*
X-10342975Y-7570200D01*
X-9977025Y-7570200D01*
X-9803640Y-7553123D01*
X-9581172Y-7485638D01*
X-9376144Y-7376048D01*
X-9196435Y-7228565D01*
X-9091910Y-7101200D01*
X-7694926Y-7101200D01*
X-7660000Y-7104640D01*
X-7625074Y-7101200D01*
X-7625064Y-7101200D01*
X-7520580Y-7090909D01*
X-7386519Y-7050242D01*
X-7262967Y-6984202D01*
X-7154673Y-6895327D01*
X-7132398Y-6868185D01*
X-3515411Y-3251200D01*
X9199315Y-3251200D01*
X9311772Y-3388228D01*
X9493551Y-3537411D01*
X9700942Y-3648264D01*
X9925974Y-3716526D01*
X10101356Y-3733800D01*
X10218644Y-3733800D01*
X10394026Y-3716526D01*
X10571532Y-3662681D01*
X10386856Y-3847357D01*
X10358918Y-3841800D01*
X10215082Y-3841800D01*
X10119562Y-3860800D01*
X9438438Y-3860800D01*
X9342918Y-3841800D01*
X9199082Y-3841800D01*
X9103562Y-3860800D01*
X8422438Y-3860800D01*
X8326918Y-3841800D01*
X8183082Y-3841800D01*
X8042009Y-3869861D01*
X7909121Y-3924905D01*
X7789525Y-4004817D01*
X7687817Y-4106525D01*
X7607905Y-4226121D01*
X7552861Y-4359009D01*
X7524800Y-4500082D01*
X7524800Y-4643918D01*
X7552861Y-4784991D01*
X7607905Y-4917879D01*
X7687817Y-5037475D01*
X7789525Y-5139183D01*
X7909121Y-5219095D01*
X8042009Y-5274139D01*
X8183082Y-5302200D01*
X8326918Y-5302200D01*
X8422438Y-5283200D01*
X9103562Y-5283200D01*
X9199082Y-5302200D01*
X9342918Y-5302200D01*
X9438438Y-5283200D01*
X10119562Y-5283200D01*
X10215082Y-5302200D01*
X10358918Y-5302200D01*
X10454438Y-5283200D01*
X10633074Y-5283200D01*
X10668000Y-5286640D01*
X10702926Y-5283200D01*
X10702936Y-5283200D01*
X10807420Y-5272909D01*
X10941481Y-5232242D01*
X11065033Y-5166202D01*
X11173327Y-5077327D01*
X11195602Y-5050185D01*
X12510391Y-3735397D01*
X13563600Y-3735397D01*
X13628330Y-3729022D01*
X13690573Y-3710140D01*
X13747937Y-3679479D01*
X13798216Y-3638216D01*
X13839479Y-3587937D01*
X13870140Y-3530573D01*
X13889022Y-3468330D01*
X13895397Y-3403600D01*
X13895397Y-1676400D01*
X13889022Y-1611670D01*
X13870140Y-1549427D01*
X13839479Y-1492063D01*
X13798216Y-1441784D01*
X13747937Y-1400521D01*
X13690573Y-1369860D01*
X13628330Y-1350978D01*
X13563600Y-1344603D01*
X11836400Y-1344603D01*
X11771670Y-1350978D01*
X11709427Y-1369860D01*
X11652063Y-1400521D01*
X11601784Y-1441784D01*
X11560521Y-1492063D01*
X11529860Y-1549427D01*
X11510978Y-1611670D01*
X11504603Y-1676400D01*
X11504603Y-2729609D01*
X11282681Y-2951532D01*
X11336526Y-2774026D01*
X11359576Y-2540000D01*
X11336526Y-2305974D01*
X11268264Y-2080942D01*
X11157411Y-1873551D01*
X11008228Y-1691772D01*
X10826449Y-1542589D01*
X10619058Y-1431736D01*
X10394026Y-1363474D01*
X10218644Y-1346200D01*
X10101356Y-1346200D01*
X9925974Y-1363474D01*
X9700942Y-1431736D01*
X9493551Y-1542589D01*
X9311772Y-1691772D01*
X9199315Y-1828800D01*
X7936228Y-1828800D01*
X8020481Y-1803242D01*
X8144033Y-1737202D01*
X8252327Y-1648327D01*
X8274602Y-1621185D01*
X9184588Y-711200D01*
X9199315Y-711200D01*
X9311772Y-848228D01*
X9493551Y-997411D01*
X9700942Y-1108264D01*
X9925974Y-1176526D01*
X10101356Y-1193800D01*
X10218644Y-1193800D01*
X10394026Y-1176526D01*
X10619058Y-1108264D01*
X10826449Y-997411D01*
X11008228Y-848228D01*
X11157411Y-666449D01*
X11192612Y-600591D01*
X11668279Y-600591D01*
X11750292Y-723369D01*
X11909663Y-894748D01*
X12099406Y-1031743D01*
X12268200Y-1030444D01*
X12268200Y-431800D01*
X13131800Y-431800D01*
X13131800Y-1030444D01*
X13300594Y-1031743D01*
X13490337Y-894748D01*
X13649708Y-723369D01*
X13731721Y-600591D01*
X13723926Y-431800D01*
X13131800Y-431800D01*
X12268200Y-431800D01*
X11676074Y-431800D01*
X11668279Y-600591D01*
X11192612Y-600591D01*
X11268264Y-459058D01*
X11336526Y-234026D01*
X11359576Y0D01*
X11336526Y234026D01*
X11268264Y459058D01*
X11192613Y600591D01*
X11668279Y600591D01*
X11676074Y431800D01*
X12268200Y431800D01*
X12268200Y1030444D01*
X13131800Y1030444D01*
X13131800Y431800D01*
X13723926Y431800D01*
X13731721Y600591D01*
X13649708Y723369D01*
X13490337Y894748D01*
X13300594Y1031743D01*
X13131800Y1030444D01*
X12268200Y1030444D01*
X12099406Y1031743D01*
X11909663Y894748D01*
X11750292Y723369D01*
X11668279Y600591D01*
X11192613Y600591D01*
X11157411Y666449D01*
X11008228Y848228D01*
X10826449Y997411D01*
X10619058Y1108264D01*
X10394026Y1176526D01*
X10218644Y1193800D01*
X10101356Y1193800D01*
X9925974Y1176526D01*
X9700942Y1108264D01*
X9493551Y997411D01*
X9311772Y848228D01*
X9199315Y711200D01*
X8924925Y711200D01*
X8889999Y714640D01*
X8855073Y711200D01*
X8855064Y711200D01*
X8750580Y700909D01*
X8616519Y660242D01*
X8492967Y594202D01*
X8384673Y505327D01*
X8362403Y478191D01*
X7452413Y-431800D01*
X2792437Y-431800D01*
X2885879Y-393095D01*
X3005475Y-313183D01*
X3107183Y-211475D01*
X3187095Y-91879D01*
X3242139Y41009D01*
X3270200Y182082D01*
X3270200Y325918D01*
X3242139Y466991D01*
X3187095Y599879D01*
X3107183Y719475D01*
X3005475Y821183D01*
X2885879Y901095D01*
X2752991Y956139D01*
X2611918Y984200D01*
X2468082Y984200D01*
X2372562Y965200D01*
X1691438Y965200D01*
X1595918Y984200D01*
X1452082Y984200D01*
X1356562Y965200D01*
X675438Y965200D01*
X579918Y984200D01*
X436082Y984200D01*
X340562Y965200D01*
X-5426075Y965200D01*
X-5461001Y968640D01*
X-5495927Y965200D01*
X-5495936Y965200D01*
X-5600420Y954909D01*
X-5734481Y914242D01*
X-5858033Y848202D01*
X-5966327Y759327D01*
X-5988597Y732191D01*
X-7399587Y-678800D01*
X-9091910Y-678800D01*
X-9196435Y-551435D01*
X-9376144Y-403952D01*
X-9581172Y-294362D01*
X-9803640Y-226877D01*
X-9977025Y-209800D01*
X-10342975Y-209800D01*
X-10516360Y-226877D01*
X-10738828Y-294362D01*
X-10943856Y-403952D01*
X-11123565Y-551435D01*
X-11228090Y-678800D01*
X-16711910Y-678800D01*
X-16816435Y-551435D01*
X-16996144Y-403952D01*
X-17201172Y-294362D01*
X-17423640Y-226877D01*
X-17597025Y-209800D01*
X-17962975Y-209800D01*
X-18136360Y-226877D01*
X-18358828Y-294362D01*
X-18563856Y-403952D01*
X-18743565Y-551435D01*
X-18891048Y-731144D01*
X-19000638Y-936172D01*
X-19068123Y-1158640D01*
X-19090910Y-1390000D01*
X-23517401Y-1390000D01*
X-23517401Y1517400D01*
X-14976293Y1517400D01*
X-14954748Y1519522D01*
X-14942297Y1519435D01*
X-14935591Y1520093D01*
X-14547399Y1560894D01*
X-14504587Y1569682D01*
X-14461586Y1577885D01*
X-14455136Y1579833D01*
X-14082261Y1695257D01*
X-14041943Y1712205D01*
X-14001383Y1728592D01*
X-13995434Y1731755D01*
X-13652078Y1917406D01*
X-13615805Y1941873D01*
X-13579215Y1965817D01*
X-13573993Y1970076D01*
X-13273238Y2218882D01*
X-13242403Y2249934D01*
X-13211167Y2280522D01*
X-13206872Y2285714D01*
X-12960171Y2588199D01*
X-12935980Y2624609D01*
X-12911253Y2660722D01*
X-12908049Y2666649D01*
X-12724799Y3011290D01*
X-12708131Y3051728D01*
X-12690899Y3091935D01*
X-12688906Y3098372D01*
X-12576089Y3472043D01*
X-12567592Y3514955D01*
X-12558499Y3557735D01*
X-12557794Y3564436D01*
X-12519704Y3952905D01*
X-12519704Y3952909D01*
X-12517401Y3976292D01*
X-12517401Y8890000D01*
X-11495910Y8890000D01*
X-11473123Y8658640D01*
X-11405638Y8436172D01*
X-11296048Y8231144D01*
X-11148565Y8051435D01*
X-10968856Y7903952D01*
X-10763828Y7794362D01*
X-10541360Y7726877D01*
X-10367975Y7709800D01*
X-9952025Y7709800D01*
X-9778640Y7726877D01*
X-9556172Y7794362D01*
X-9351144Y7903952D01*
X-9171435Y8051435D01*
X-9023952Y8231144D01*
X-8985528Y8303029D01*
X-8864599Y8182100D01*
X-8864600Y7389705D01*
X-8866935Y7366000D01*
X-8864600Y7342295D01*
X-8864600Y7342294D01*
X-8857617Y7271395D01*
X-8830022Y7180424D01*
X-8785209Y7096585D01*
X-8724901Y7023099D01*
X-8706482Y7007983D01*
X-8571099Y6872600D01*
X-8828203Y6872600D01*
X-8828203Y6990000D01*
X-8839382Y7103503D01*
X-8872490Y7212644D01*
X-8926253Y7313229D01*
X-8998607Y7401393D01*
X-9086771Y7473747D01*
X-9187356Y7527510D01*
X-9296497Y7560618D01*
X-9410000Y7571797D01*
X-10910000Y7571797D01*
X-11023503Y7560618D01*
X-11132644Y7527510D01*
X-11233229Y7473747D01*
X-11321393Y7401393D01*
X-11393747Y7313229D01*
X-11447510Y7212644D01*
X-11480618Y7103503D01*
X-11491797Y6990000D01*
X-11491797Y5790000D01*
X-11480618Y5676497D01*
X-11447510Y5567356D01*
X-11393747Y5466771D01*
X-11321393Y5378607D01*
X-11233229Y5306253D01*
X-11132644Y5252490D01*
X-11023503Y5219382D01*
X-10910000Y5208203D01*
X-9410000Y5208203D01*
X-9296497Y5219382D01*
X-9187356Y5252490D01*
X-9086771Y5306253D01*
X-8998607Y5378607D01*
X-8926253Y5466771D01*
X-8872490Y5567356D01*
X-8839382Y5676497D01*
X-8828203Y5790000D01*
X-8828203Y5907400D01*
X-8621899Y5907400D01*
X-4930017Y2215518D01*
X-4914901Y2197099D01*
X-4841415Y2136791D01*
X-4757577Y2091978D01*
X-4666606Y2064383D01*
X-4595707Y2057400D01*
X-4595706Y2057400D01*
X-4572001Y2055065D01*
X-4548296Y2057400D01*
X9064319Y2057400D01*
X9162589Y1873551D01*
X9311772Y1691772D01*
X9493551Y1542589D01*
X9700942Y1431736D01*
X9925974Y1363474D01*
X10101356Y1346200D01*
X10218644Y1346200D01*
X10394026Y1363474D01*
X10619058Y1431736D01*
X10826449Y1542589D01*
X11008228Y1691772D01*
X11157411Y1873551D01*
X11268264Y2080942D01*
X11336526Y2305974D01*
X11359576Y2540000D01*
X11336526Y2774026D01*
X11268264Y2999058D01*
X11157411Y3206449D01*
X11008228Y3388228D01*
X10826449Y3537411D01*
X10744152Y3581400D01*
X10976101Y3581400D01*
X11583987Y2973514D01*
X11523474Y2774026D01*
X11500424Y2540000D01*
X11523474Y2305974D01*
X11591736Y2080942D01*
X11702589Y1873551D01*
X11851772Y1691772D01*
X12033551Y1542589D01*
X12240942Y1431736D01*
X12465974Y1363474D01*
X12641356Y1346200D01*
X12758644Y1346200D01*
X12934026Y1363474D01*
X13159058Y1431736D01*
X13366449Y1542589D01*
X13548228Y1691772D01*
X13697411Y1873551D01*
X13808264Y2080942D01*
X13876526Y2305974D01*
X13899576Y2540000D01*
X13876526Y2774026D01*
X13808264Y2999058D01*
X13697411Y3206449D01*
X13548228Y3388228D01*
X13366449Y3537411D01*
X13159058Y3648264D01*
X12934026Y3716526D01*
X12758644Y3733800D01*
X12641356Y3733800D01*
X12465974Y3716526D01*
X12266486Y3656013D01*
X11534017Y4388482D01*
X11518901Y4406901D01*
X11445415Y4467209D01*
X11361577Y4512022D01*
X11270606Y4539617D01*
X11199707Y4546600D01*
X11199705Y4546600D01*
X11176000Y4548935D01*
X11152295Y4546600D01*
X9421707Y4546600D01*
X9398000Y4548935D01*
X9303393Y4539617D01*
X9212423Y4512022D01*
X9128585Y4467209D01*
X9055099Y4406901D01*
X9039987Y4388487D01*
X8436101Y3784600D01*
X-4118100Y3784600D01*
X-7899400Y7565899D01*
X-7899400Y8358304D01*
X-7897066Y8382001D01*
X-7899400Y8405698D01*
X-7899400Y8405707D01*
X-7906383Y8476606D01*
X-7933978Y8567577D01*
X-7978791Y8651415D01*
X-8039099Y8724901D01*
X-8057518Y8740017D01*
X-8531983Y9214482D01*
X-8547099Y9232901D01*
X-8620585Y9293209D01*
X-8704423Y9338022D01*
X-8795394Y9365617D01*
X-8866293Y9372600D01*
X-8866295Y9372600D01*
X-8890000Y9374935D01*
X-8913705Y9372600D01*
X-8929741Y9372600D01*
X-9023952Y9548856D01*
X-9171435Y9728565D01*
X-9351144Y9876048D01*
X-9556172Y9985638D01*
X-9778640Y10053123D01*
X-9952025Y10070200D01*
X-10367975Y10070200D01*
X-10541360Y10053123D01*
X-10763828Y9985638D01*
X-10968856Y9876048D01*
X-11148565Y9728565D01*
X-11296048Y9548856D01*
X-11405638Y9343828D01*
X-11473123Y9121360D01*
X-11495910Y8890000D01*
X-12517401Y8890000D01*
X-12517401Y10554526D01*
X-5630200Y10554526D01*
X-5630200Y9445474D01*
X-5413834Y8357731D01*
X-4989418Y7333100D01*
X-4373262Y6410957D01*
X-3589043Y5626738D01*
X-2666900Y5010582D01*
X-1642269Y4586166D01*
X-554526Y4369800D01*
X554526Y4369800D01*
X1642269Y4586166D01*
X2666900Y5010582D01*
X3589043Y5626738D01*
X4373262Y6410957D01*
X4989418Y7333100D01*
X5413834Y8357731D01*
X5630200Y9445474D01*
X5630200Y10554526D01*
X5413834Y11642269D01*
X4989418Y12666900D01*
X4373262Y13589043D01*
X3589043Y14373262D01*
X2666900Y14989418D01*
X1642269Y15413834D01*
X554526Y15630200D01*
X-554526Y15630200D01*
X-1642269Y15413834D01*
X-2666900Y14989418D01*
X-3589043Y14373262D01*
X-4373262Y13589043D01*
X-4989418Y12666900D01*
X-5413834Y11642269D01*
X-5630200Y10554526D01*
X-12517401Y10554526D01*
X-12517401Y11517401D01*
X-8593136Y11517401D01*
X-8574084Y11519278D01*
X-8262284Y11544088D01*
X-8223583Y11551016D01*
X-8184637Y11556697D01*
X-8178108Y11558361D01*
X-7800551Y11657405D01*
X-7759529Y11672579D01*
X-7718297Y11687179D01*
X-7712215Y11690079D01*
X-7361086Y11860571D01*
X-7323791Y11883424D01*
X-7286181Y11905754D01*
X-7280783Y11909778D01*
X-7280777Y11909781D01*
X-7280772Y11909785D01*
X-6969451Y12145226D01*
X-6937300Y12174893D01*
X-6904748Y12204099D01*
X-6900230Y12209099D01*
X-6640564Y12500531D01*
X-6614802Y12535858D01*
X-6588528Y12570850D01*
X-6585068Y12576632D01*
X-6386954Y12912949D01*
X-6385443Y12916204D01*
X-6380944Y12923432D01*
X-5870848Y13841779D01*
X-5254774Y14649029D01*
X-4528616Y15358895D01*
X-3707593Y15956498D01*
X-2808901Y16429323D01*
X-1851372Y16767462D01*
X-855048Y16963835D01*
X159179Y17014327D01*
X1170067Y16917879D01*
X1170067Y16917879D01*
G37*
X1170067Y16917879D02*
X2156458Y16676511D01*
X3097664Y16295284D01*
X3973980Y15782179D01*
X4767050Y15147946D01*
X5460257Y14405872D01*
X6039080Y13571501D01*
X6491393Y12662317D01*
X6807724Y11697354D01*
X6982383Y10691421D01*
X7017443Y9987150D01*
X7017453Y9984344D01*
X7017708Y9981838D01*
X7017998Y9976005D01*
X7019581Y9963109D01*
X7019436Y9942297D01*
X7020094Y9935591D01*
X7060895Y9547399D01*
X7069683Y9504587D01*
X7077886Y9461586D01*
X7079834Y9455136D01*
X7195258Y9082261D01*
X7212206Y9041943D01*
X7228593Y9001383D01*
X7231756Y8995434D01*
X7417407Y8652078D01*
X7441874Y8615805D01*
X7465818Y8579215D01*
X7470077Y8573993D01*
X7718883Y8273238D01*
X7749935Y8242403D01*
X7780523Y8211167D01*
X7785715Y8206872D01*
X8088200Y7960171D01*
X8124610Y7935980D01*
X8160723Y7911253D01*
X8166650Y7908049D01*
X8511291Y7724799D01*
X8551729Y7708131D01*
X8591936Y7690899D01*
X8598373Y7688906D01*
X8972044Y7576089D01*
X9014956Y7567592D01*
X9057736Y7558499D01*
X9064437Y7557794D01*
X9452906Y7519704D01*
X9452910Y7519704D01*
X9476293Y7517401D01*
X15517400Y7517401D01*
X15517401Y-7517400D01*
X9476293Y-7517400D01*
X9454748Y-7519522D01*
X9442297Y-7519435D01*
X9435591Y-7520093D01*
X9047398Y-7560894D01*
X9004580Y-7569683D01*
X8961586Y-7577885D01*
X8955136Y-7579833D01*
X8582260Y-7695256D01*
X8541921Y-7712213D01*
X8501382Y-7728592D01*
X8495437Y-7731753D01*
X8495433Y-7731755D01*
X8495432Y-7731756D01*
X8152078Y-7917407D01*
X8115843Y-7941848D01*
X8079215Y-7965816D01*
X8073994Y-7970075D01*
X7773238Y-8218882D01*
X7742402Y-8249934D01*
X7711166Y-8280523D01*
X7706871Y-8285714D01*
X7460170Y-8588199D01*
X7435957Y-8624643D01*
X7411252Y-8660723D01*
X7408047Y-8666650D01*
X7224797Y-9011292D01*
X7208123Y-9051747D01*
X7190898Y-9091936D01*
X7188905Y-9098373D01*
X7076087Y-9472045D01*
X7067586Y-9514980D01*
X7058498Y-9557736D01*
X7057793Y-9564437D01*
X7019703Y-9952906D01*
X7019703Y-9956622D01*
X7018665Y-9965075D01*
X6942642Y-11012821D01*
X6723718Y-12004424D01*
X6363941Y-12954041D01*
X5870850Y-13841774D01*
X5254776Y-14649024D01*
X4528615Y-15358893D01*
X3707593Y-15956497D01*
X2808901Y-16429322D01*
X1851372Y-16767461D01*
X855048Y-16963834D01*
X-159179Y-17014326D01*
X-1170066Y-16917878D01*
X-2156457Y-16676510D01*
X-3097663Y-16295283D01*
X-3973979Y-15782179D01*
X-4767049Y-15147945D01*
X-5460256Y-14405871D01*
X-6042215Y-13566980D01*
X-6375679Y-12933185D01*
X-6378015Y-12929432D01*
X-6379261Y-12926504D01*
X-6382533Y-12920614D01*
X-6538530Y-12644333D01*
X-6561125Y-12612125D01*
X-6582661Y-12579214D01*
X-6586920Y-12573992D01*
X-6835727Y-12273237D01*
X-6866760Y-12242420D01*
X-6897367Y-12211165D01*
X-6902559Y-12206870D01*
X-7205045Y-11960169D01*
X-7241482Y-11935961D01*
X-7277568Y-11911252D01*
X-7283495Y-11908047D01*
X-7628137Y-11724798D01*
X-7668558Y-11708138D01*
X-7708779Y-11690899D01*
X-7715215Y-11688907D01*
X-8088888Y-11576088D01*
X-8131785Y-11567594D01*
X-8174581Y-11558497D01*
X-8181278Y-11557793D01*
X-8181282Y-11557793D01*
X-8569751Y-11519704D01*
X-8569753Y-11519704D01*
X-8593136Y-11517401D01*
X-23517401Y-11517401D01*
X-23517401Y-9740000D01*
X-19086798Y-9740000D01*
X-19080423Y-9804731D01*
X-19061541Y-9866974D01*
X-19030880Y-9924337D01*
X-18989617Y-9974617D01*
X-18939337Y-10015880D01*
X-18881974Y-10046541D01*
X-18819731Y-10065423D01*
X-18755000Y-10071798D01*
X-18294350Y-10070200D01*
X-18211800Y-9987650D01*
X-18211800Y-9321800D01*
X-17348200Y-9321800D01*
X-17348200Y-9987650D01*
X-17265650Y-10070200D01*
X-16805000Y-10071798D01*
X-16740269Y-10065423D01*
X-16678026Y-10046541D01*
X-16620663Y-10015880D01*
X-16570383Y-9974617D01*
X-16529120Y-9924337D01*
X-16498459Y-9866974D01*
X-16479577Y-9804731D01*
X-16473202Y-9740000D01*
X-11466798Y-9740000D01*
X-11460423Y-9804731D01*
X-11441541Y-9866974D01*
X-11410880Y-9924337D01*
X-11369617Y-9974617D01*
X-11319337Y-10015880D01*
X-11261974Y-10046541D01*
X-11199731Y-10065423D01*
X-11135000Y-10071798D01*
X-10674350Y-10070200D01*
X-10591800Y-9987650D01*
X-10591800Y-9321800D01*
X-9728200Y-9321800D01*
X-9728200Y-9987650D01*
X-9645650Y-10070200D01*
X-9185000Y-10071798D01*
X-9120269Y-10065423D01*
X-9058026Y-10046541D01*
X-9000663Y-10015880D01*
X-8950383Y-9974617D01*
X-8909120Y-9924337D01*
X-8878459Y-9866974D01*
X-8859577Y-9804731D01*
X-8853202Y-9740000D01*
X-8854604Y-9445474D01*
X-5630200Y-9445474D01*
X-5630200Y-10554526D01*
X-5413834Y-11642269D01*
X-4989418Y-12666900D01*
X-4373262Y-13589043D01*
X-3589043Y-14373262D01*
X-2666900Y-14989418D01*
X-1642269Y-15413834D01*
X-554526Y-15630200D01*
X554526Y-15630200D01*
X1642269Y-15413834D01*
X2666900Y-14989418D01*
X3589043Y-14373262D01*
X4373262Y-13589043D01*
X4989418Y-12666900D01*
X5413834Y-11642269D01*
X5630200Y-10554526D01*
X5630200Y-9445474D01*
X5413834Y-8357731D01*
X4989418Y-7333100D01*
X4373262Y-6410957D01*
X3589043Y-5626738D01*
X2666900Y-5010582D01*
X1642269Y-4586166D01*
X554526Y-4369800D01*
X-554526Y-4369800D01*
X-1642269Y-4586166D01*
X-2666900Y-5010582D01*
X-3589043Y-5626738D01*
X-4373262Y-6410957D01*
X-4989418Y-7333100D01*
X-5413834Y-8357731D01*
X-5630200Y-9445474D01*
X-8854604Y-9445474D01*
X-8854800Y-9404350D01*
X-8937350Y-9321800D01*
X-9728200Y-9321800D01*
X-10591800Y-9321800D01*
X-11382650Y-9321800D01*
X-11465200Y-9404350D01*
X-11466798Y-9740000D01*
X-16473202Y-9740000D01*
X-16474800Y-9404350D01*
X-16557350Y-9321800D01*
X-17348200Y-9321800D01*
X-18211800Y-9321800D01*
X-19002650Y-9321800D01*
X-19085200Y-9404350D01*
X-19086798Y-9740000D01*
X-23517401Y-9740000D01*
X-23517401Y-8040000D01*
X-19086798Y-8040000D01*
X-19085200Y-8375650D01*
X-19002650Y-8458200D01*
X-18211800Y-8458200D01*
X-18211800Y-7792350D01*
X-17348200Y-7792350D01*
X-17348200Y-8458200D01*
X-16557350Y-8458200D01*
X-16474800Y-8375650D01*
X-16473202Y-8040000D01*
X-11466798Y-8040000D01*
X-11465200Y-8375650D01*
X-11382650Y-8458200D01*
X-10591800Y-8458200D01*
X-10591800Y-7792350D01*
X-9728200Y-7792350D01*
X-9728200Y-8458200D01*
X-8937350Y-8458200D01*
X-8854800Y-8375650D01*
X-8853202Y-8040000D01*
X-8859577Y-7975269D01*
X-8878459Y-7913026D01*
X-8909120Y-7855663D01*
X-8950383Y-7805383D01*
X-9000663Y-7764120D01*
X-9058026Y-7733459D01*
X-9120269Y-7714577D01*
X-9185000Y-7708202D01*
X-9645650Y-7709800D01*
X-9728200Y-7792350D01*
X-10591800Y-7792350D01*
X-10674350Y-7709800D01*
X-11135000Y-7708202D01*
X-11199731Y-7714577D01*
X-11261974Y-7733459D01*
X-11319337Y-7764120D01*
X-11369617Y-7805383D01*
X-11410880Y-7855663D01*
X-11441541Y-7913026D01*
X-11460423Y-7975269D01*
X-11466798Y-8040000D01*
X-16473202Y-8040000D01*
X-16479577Y-7975269D01*
X-16498459Y-7913026D01*
X-16529120Y-7855663D01*
X-16570383Y-7805383D01*
X-16620663Y-7764120D01*
X-16678026Y-7733459D01*
X-16740269Y-7714577D01*
X-16805000Y-7708202D01*
X-17265650Y-7709800D01*
X-17348200Y-7792350D01*
X-18211800Y-7792350D01*
X-18294350Y-7709800D01*
X-18755000Y-7708202D01*
X-18819731Y-7714577D01*
X-18881974Y-7733459D01*
X-18939337Y-7764120D01*
X-18989617Y-7805383D01*
X-19030880Y-7855663D01*
X-19061541Y-7913026D01*
X-19080423Y-7975269D01*
X-19086798Y-8040000D01*
X-23517401Y-8040000D01*
X-23517401Y-1390000D01*
X-19090910Y-1390000D01*
X-19068123Y-1621360D01*
X-19000638Y-1843828D01*
X-18891048Y-2048856D01*
X-18743565Y-2228565D01*
X-18563856Y-2376048D01*
X-18358828Y-2485638D01*
X-18136360Y-2553123D01*
X-17962975Y-2570200D01*
X-17597025Y-2570200D01*
X-17423640Y-2553123D01*
X-17201172Y-2485638D01*
X-16996144Y-2376048D01*
X-16816435Y-2228565D01*
X-16711910Y-2101200D01*
X-11228090Y-2101200D01*
X-11123565Y-2228565D01*
X-10943856Y-2376048D01*
X-10738828Y-2485638D01*
X-10516360Y-2553123D01*
X-10342975Y-2570200D01*
X-9977025Y-2570200D01*
X-9803640Y-2553123D01*
X-9581172Y-2485638D01*
X-9376144Y-2376048D01*
X-9196435Y-2228565D01*
X-9091910Y-2101200D01*
X-7139926Y-2101200D01*
X-7105000Y-2104640D01*
X-7070074Y-2101200D01*
X-7070064Y-2101200D01*
X-6965580Y-2090909D01*
X-6831519Y-2050242D01*
X-6707967Y-1984202D01*
X-6599673Y-1895327D01*
X-6577398Y-1868185D01*
X-5166412Y-457200D01*
X-4824728Y-457200D01*
X-4908982Y-482758D01*
X-5032533Y-548798D01*
X-5113691Y-615402D01*
X-5113696Y-615407D01*
X-5140827Y-637673D01*
X-5163093Y-664804D01*
X-7677087Y-3178800D01*
X-9091910Y-3178800D01*
X-9196435Y-3051435D01*
X-9376144Y-2903952D01*
X-9581172Y-2794362D01*
X-9803640Y-2726877D01*
X-9977025Y-2709800D01*
X-10342975Y-2709800D01*
X-10516360Y-2726877D01*
X-10738828Y-2794362D01*
X-10943856Y-2903952D01*
X-11123565Y-3051435D01*
X-11228090Y-3178800D01*
X-16711910Y-3178800D01*
X-16816435Y-3051435D01*
X-16996144Y-2903952D01*
X-17201172Y-2794362D01*
X-17423640Y-2726877D01*
X-17597025Y-2709800D01*
X-17962975Y-2709800D01*
X-18136360Y-2726877D01*
X-18358828Y-2794362D01*
X-18563856Y-2903952D01*
X-18743565Y-3051435D01*
X-18891048Y-3231144D01*
X-19000638Y-3436172D01*
X-19068123Y-3658640D01*
X-19090910Y-3890000D01*
X-19068123Y-4121360D01*
X-19000638Y-4343828D01*
X-18891048Y-4548856D01*
X-18743565Y-4728565D01*
X-18563856Y-4876048D01*
X-18358828Y-4985638D01*
X-18136360Y-5053123D01*
X-17962975Y-5070200D01*
X-17597025Y-5070200D01*
X-17423640Y-5053123D01*
X-17201172Y-4985638D01*
X-16996144Y-4876048D01*
X-16816435Y-4728565D01*
X-16711910Y-4601200D01*
X-11228090Y-4601200D01*
X-11123565Y-4728565D01*
X-10943856Y-4876048D01*
X-10738828Y-4985638D01*
X-10516360Y-5053123D01*
X-10342975Y-5070200D01*
X-9977025Y-5070200D01*
X-9803640Y-5053123D01*
X-9581172Y-4985638D01*
X-9376144Y-4876048D01*
X-9196435Y-4728565D01*
X-9091910Y-4601200D01*
X-7417426Y-4601200D01*
X-7382500Y-4604640D01*
X-7347574Y-4601200D01*
X-7347564Y-4601200D01*
X-7243080Y-4590909D01*
X-7109019Y-4550242D01*
X-6985467Y-4484202D01*
X-6877173Y-4395327D01*
X-6854898Y-4368185D01*
X-4340911Y-1854200D01*
X-3999228Y-1854200D01*
X-4083481Y-1879758D01*
X-4207033Y-1945798D01*
X-4288192Y-2012403D01*
X-4288196Y-2012407D01*
X-4315327Y-2034673D01*
X-4337593Y-2061804D01*
X-7954587Y-5678800D01*
X-9091910Y-5678800D01*
X-9196435Y-5551435D01*
X-9376144Y-5403952D01*
X-9581172Y-5294362D01*
X-9803640Y-5226877D01*
X-9977025Y-5209800D01*
X-10342975Y-5209800D01*
X-10516360Y-5226877D01*
X-10738828Y-5294362D01*
X-10943856Y-5403952D01*
X-11123565Y-5551435D01*
X-11228090Y-5678800D01*
X-16711910Y-5678800D01*
X-16816435Y-5551435D01*
X-16996144Y-5403952D01*
X-17201172Y-5294362D01*
X-17423640Y-5226877D01*
X-17597025Y-5209800D01*
X-17962975Y-5209800D01*
X-18136360Y-5226877D01*
X-18358828Y-5294362D01*
X-18563856Y-5403952D01*
X-18743565Y-5551435D01*
X-18891048Y-5731144D01*
X-19000638Y-5936172D01*
X-19068123Y-6158640D01*
X-19090910Y-6390000D01*
X-19068123Y-6621360D01*
X-19000638Y-6843828D01*
X-18891048Y-7048856D01*
X-18743565Y-7228565D01*
X-18563856Y-7376048D01*
X-18358828Y-7485638D01*
X-18136360Y-7553123D01*
X-17962975Y-7570200D01*
X-17597025Y-7570200D01*
X-17423640Y-7553123D01*
X-17201172Y-7485638D01*
X-16996144Y-7376048D01*
X-16816435Y-7228565D01*
X-16711910Y-7101200D01*
X-11228090Y-7101200D01*
X-11123565Y-7228565D01*
X-10943856Y-7376048D01*
X-10738828Y-7485638D01*
X-10516360Y-7553123D01*
X-10342975Y-7570200D01*
X-9977025Y-7570200D01*
X-9803640Y-7553123D01*
X-9581172Y-7485638D01*
X-9376144Y-7376048D01*
X-9196435Y-7228565D01*
X-9091910Y-7101200D01*
X-7694926Y-7101200D01*
X-7660000Y-7104640D01*
X-7625074Y-7101200D01*
X-7625064Y-7101200D01*
X-7520580Y-7090909D01*
X-7386519Y-7050242D01*
X-7262967Y-6984202D01*
X-7154673Y-6895327D01*
X-7132398Y-6868185D01*
X-3515411Y-3251200D01*
X9199315Y-3251200D01*
X9311772Y-3388228D01*
X9493551Y-3537411D01*
X9700942Y-3648264D01*
X9925974Y-3716526D01*
X10101356Y-3733800D01*
X10218644Y-3733800D01*
X10394026Y-3716526D01*
X10571532Y-3662681D01*
X10386856Y-3847357D01*
X10358918Y-3841800D01*
X10215082Y-3841800D01*
X10119562Y-3860800D01*
X9438438Y-3860800D01*
X9342918Y-3841800D01*
X9199082Y-3841800D01*
X9103562Y-3860800D01*
X8422438Y-3860800D01*
X8326918Y-3841800D01*
X8183082Y-3841800D01*
X8042009Y-3869861D01*
X7909121Y-3924905D01*
X7789525Y-4004817D01*
X7687817Y-4106525D01*
X7607905Y-4226121D01*
X7552861Y-4359009D01*
X7524800Y-4500082D01*
X7524800Y-4643918D01*
X7552861Y-4784991D01*
X7607905Y-4917879D01*
X7687817Y-5037475D01*
X7789525Y-5139183D01*
X7909121Y-5219095D01*
X8042009Y-5274139D01*
X8183082Y-5302200D01*
X8326918Y-5302200D01*
X8422438Y-5283200D01*
X9103562Y-5283200D01*
X9199082Y-5302200D01*
X9342918Y-5302200D01*
X9438438Y-5283200D01*
X10119562Y-5283200D01*
X10215082Y-5302200D01*
X10358918Y-5302200D01*
X10454438Y-5283200D01*
X10633074Y-5283200D01*
X10668000Y-5286640D01*
X10702926Y-5283200D01*
X10702936Y-5283200D01*
X10807420Y-5272909D01*
X10941481Y-5232242D01*
X11065033Y-5166202D01*
X11173327Y-5077327D01*
X11195602Y-5050185D01*
X12510391Y-3735397D01*
X13563600Y-3735397D01*
X13628330Y-3729022D01*
X13690573Y-3710140D01*
X13747937Y-3679479D01*
X13798216Y-3638216D01*
X13839479Y-3587937D01*
X13870140Y-3530573D01*
X13889022Y-3468330D01*
X13895397Y-3403600D01*
X13895397Y-1676400D01*
X13889022Y-1611670D01*
X13870140Y-1549427D01*
X13839479Y-1492063D01*
X13798216Y-1441784D01*
X13747937Y-1400521D01*
X13690573Y-1369860D01*
X13628330Y-1350978D01*
X13563600Y-1344603D01*
X11836400Y-1344603D01*
X11771670Y-1350978D01*
X11709427Y-1369860D01*
X11652063Y-1400521D01*
X11601784Y-1441784D01*
X11560521Y-1492063D01*
X11529860Y-1549427D01*
X11510978Y-1611670D01*
X11504603Y-1676400D01*
X11504603Y-2729609D01*
X11282681Y-2951532D01*
X11336526Y-2774026D01*
X11359576Y-2540000D01*
X11336526Y-2305974D01*
X11268264Y-2080942D01*
X11157411Y-1873551D01*
X11008228Y-1691772D01*
X10826449Y-1542589D01*
X10619058Y-1431736D01*
X10394026Y-1363474D01*
X10218644Y-1346200D01*
X10101356Y-1346200D01*
X9925974Y-1363474D01*
X9700942Y-1431736D01*
X9493551Y-1542589D01*
X9311772Y-1691772D01*
X9199315Y-1828800D01*
X7936228Y-1828800D01*
X8020481Y-1803242D01*
X8144033Y-1737202D01*
X8252327Y-1648327D01*
X8274602Y-1621185D01*
X9184588Y-711200D01*
X9199315Y-711200D01*
X9311772Y-848228D01*
X9493551Y-997411D01*
X9700942Y-1108264D01*
X9925974Y-1176526D01*
X10101356Y-1193800D01*
X10218644Y-1193800D01*
X10394026Y-1176526D01*
X10619058Y-1108264D01*
X10826449Y-997411D01*
X11008228Y-848228D01*
X11157411Y-666449D01*
X11192612Y-600591D01*
X11668279Y-600591D01*
X11750292Y-723369D01*
X11909663Y-894748D01*
X12099406Y-1031743D01*
X12268200Y-1030444D01*
X12268200Y-431800D01*
X13131800Y-431800D01*
X13131800Y-1030444D01*
X13300594Y-1031743D01*
X13490337Y-894748D01*
X13649708Y-723369D01*
X13731721Y-600591D01*
X13723926Y-431800D01*
X13131800Y-431800D01*
X12268200Y-431800D01*
X11676074Y-431800D01*
X11668279Y-600591D01*
X11192612Y-600591D01*
X11268264Y-459058D01*
X11336526Y-234026D01*
X11359576Y0D01*
X11336526Y234026D01*
X11268264Y459058D01*
X11192613Y600591D01*
X11668279Y600591D01*
X11676074Y431800D01*
X12268200Y431800D01*
X12268200Y1030444D01*
X13131800Y1030444D01*
X13131800Y431800D01*
X13723926Y431800D01*
X13731721Y600591D01*
X13649708Y723369D01*
X13490337Y894748D01*
X13300594Y1031743D01*
X13131800Y1030444D01*
X12268200Y1030444D01*
X12099406Y1031743D01*
X11909663Y894748D01*
X11750292Y723369D01*
X11668279Y600591D01*
X11192613Y600591D01*
X11157411Y666449D01*
X11008228Y848228D01*
X10826449Y997411D01*
X10619058Y1108264D01*
X10394026Y1176526D01*
X10218644Y1193800D01*
X10101356Y1193800D01*
X9925974Y1176526D01*
X9700942Y1108264D01*
X9493551Y997411D01*
X9311772Y848228D01*
X9199315Y711200D01*
X8924925Y711200D01*
X8889999Y714640D01*
X8855073Y711200D01*
X8855064Y711200D01*
X8750580Y700909D01*
X8616519Y660242D01*
X8492967Y594202D01*
X8384673Y505327D01*
X8362403Y478191D01*
X7452413Y-431800D01*
X2792437Y-431800D01*
X2885879Y-393095D01*
X3005475Y-313183D01*
X3107183Y-211475D01*
X3187095Y-91879D01*
X3242139Y41009D01*
X3270200Y182082D01*
X3270200Y325918D01*
X3242139Y466991D01*
X3187095Y599879D01*
X3107183Y719475D01*
X3005475Y821183D01*
X2885879Y901095D01*
X2752991Y956139D01*
X2611918Y984200D01*
X2468082Y984200D01*
X2372562Y965200D01*
X1691438Y965200D01*
X1595918Y984200D01*
X1452082Y984200D01*
X1356562Y965200D01*
X675438Y965200D01*
X579918Y984200D01*
X436082Y984200D01*
X340562Y965200D01*
X-5426075Y965200D01*
X-5461001Y968640D01*
X-5495927Y965200D01*
X-5495936Y965200D01*
X-5600420Y954909D01*
X-5734481Y914242D01*
X-5858033Y848202D01*
X-5966327Y759327D01*
X-5988597Y732191D01*
X-7399587Y-678800D01*
X-9091910Y-678800D01*
X-9196435Y-551435D01*
X-9376144Y-403952D01*
X-9581172Y-294362D01*
X-9803640Y-226877D01*
X-9977025Y-209800D01*
X-10342975Y-209800D01*
X-10516360Y-226877D01*
X-10738828Y-294362D01*
X-10943856Y-403952D01*
X-11123565Y-551435D01*
X-11228090Y-678800D01*
X-16711910Y-678800D01*
X-16816435Y-551435D01*
X-16996144Y-403952D01*
X-17201172Y-294362D01*
X-17423640Y-226877D01*
X-17597025Y-209800D01*
X-17962975Y-209800D01*
X-18136360Y-226877D01*
X-18358828Y-294362D01*
X-18563856Y-403952D01*
X-18743565Y-551435D01*
X-18891048Y-731144D01*
X-19000638Y-936172D01*
X-19068123Y-1158640D01*
X-19090910Y-1390000D01*
X-23517401Y-1390000D01*
X-23517401Y1517400D01*
X-14976293Y1517400D01*
X-14954748Y1519522D01*
X-14942297Y1519435D01*
X-14935591Y1520093D01*
X-14547399Y1560894D01*
X-14504587Y1569682D01*
X-14461586Y1577885D01*
X-14455136Y1579833D01*
X-14082261Y1695257D01*
X-14041943Y1712205D01*
X-14001383Y1728592D01*
X-13995434Y1731755D01*
X-13652078Y1917406D01*
X-13615805Y1941873D01*
X-13579215Y1965817D01*
X-13573993Y1970076D01*
X-13273238Y2218882D01*
X-13242403Y2249934D01*
X-13211167Y2280522D01*
X-13206872Y2285714D01*
X-12960171Y2588199D01*
X-12935980Y2624609D01*
X-12911253Y2660722D01*
X-12908049Y2666649D01*
X-12724799Y3011290D01*
X-12708131Y3051728D01*
X-12690899Y3091935D01*
X-12688906Y3098372D01*
X-12576089Y3472043D01*
X-12567592Y3514955D01*
X-12558499Y3557735D01*
X-12557794Y3564436D01*
X-12519704Y3952905D01*
X-12519704Y3952909D01*
X-12517401Y3976292D01*
X-12517401Y8890000D01*
X-11495910Y8890000D01*
X-11473123Y8658640D01*
X-11405638Y8436172D01*
X-11296048Y8231144D01*
X-11148565Y8051435D01*
X-10968856Y7903952D01*
X-10763828Y7794362D01*
X-10541360Y7726877D01*
X-10367975Y7709800D01*
X-9952025Y7709800D01*
X-9778640Y7726877D01*
X-9556172Y7794362D01*
X-9351144Y7903952D01*
X-9171435Y8051435D01*
X-9023952Y8231144D01*
X-8985528Y8303029D01*
X-8864599Y8182100D01*
X-8864600Y7389705D01*
X-8866935Y7366000D01*
X-8864600Y7342295D01*
X-8864600Y7342294D01*
X-8857617Y7271395D01*
X-8830022Y7180424D01*
X-8785209Y7096585D01*
X-8724901Y7023099D01*
X-8706482Y7007983D01*
X-8571099Y6872600D01*
X-8828203Y6872600D01*
X-8828203Y6990000D01*
X-8839382Y7103503D01*
X-8872490Y7212644D01*
X-8926253Y7313229D01*
X-8998607Y7401393D01*
X-9086771Y7473747D01*
X-9187356Y7527510D01*
X-9296497Y7560618D01*
X-9410000Y7571797D01*
X-10910000Y7571797D01*
X-11023503Y7560618D01*
X-11132644Y7527510D01*
X-11233229Y7473747D01*
X-11321393Y7401393D01*
X-11393747Y7313229D01*
X-11447510Y7212644D01*
X-11480618Y7103503D01*
X-11491797Y6990000D01*
X-11491797Y5790000D01*
X-11480618Y5676497D01*
X-11447510Y5567356D01*
X-11393747Y5466771D01*
X-11321393Y5378607D01*
X-11233229Y5306253D01*
X-11132644Y5252490D01*
X-11023503Y5219382D01*
X-10910000Y5208203D01*
X-9410000Y5208203D01*
X-9296497Y5219382D01*
X-9187356Y5252490D01*
X-9086771Y5306253D01*
X-8998607Y5378607D01*
X-8926253Y5466771D01*
X-8872490Y5567356D01*
X-8839382Y5676497D01*
X-8828203Y5790000D01*
X-8828203Y5907400D01*
X-8621899Y5907400D01*
X-4930017Y2215518D01*
X-4914901Y2197099D01*
X-4841415Y2136791D01*
X-4757577Y2091978D01*
X-4666606Y2064383D01*
X-4595707Y2057400D01*
X-4595706Y2057400D01*
X-4572001Y2055065D01*
X-4548296Y2057400D01*
X9064319Y2057400D01*
X9162589Y1873551D01*
X9311772Y1691772D01*
X9493551Y1542589D01*
X9700942Y1431736D01*
X9925974Y1363474D01*
X10101356Y1346200D01*
X10218644Y1346200D01*
X10394026Y1363474D01*
X10619058Y1431736D01*
X10826449Y1542589D01*
X11008228Y1691772D01*
X11157411Y1873551D01*
X11268264Y2080942D01*
X11336526Y2305974D01*
X11359576Y2540000D01*
X11336526Y2774026D01*
X11268264Y2999058D01*
X11157411Y3206449D01*
X11008228Y3388228D01*
X10826449Y3537411D01*
X10744152Y3581400D01*
X10976101Y3581400D01*
X11583987Y2973514D01*
X11523474Y2774026D01*
X11500424Y2540000D01*
X11523474Y2305974D01*
X11591736Y2080942D01*
X11702589Y1873551D01*
X11851772Y1691772D01*
X12033551Y1542589D01*
X12240942Y1431736D01*
X12465974Y1363474D01*
X12641356Y1346200D01*
X12758644Y1346200D01*
X12934026Y1363474D01*
X13159058Y1431736D01*
X13366449Y1542589D01*
X13548228Y1691772D01*
X13697411Y1873551D01*
X13808264Y2080942D01*
X13876526Y2305974D01*
X13899576Y2540000D01*
X13876526Y2774026D01*
X13808264Y2999058D01*
X13697411Y3206449D01*
X13548228Y3388228D01*
X13366449Y3537411D01*
X13159058Y3648264D01*
X12934026Y3716526D01*
X12758644Y3733800D01*
X12641356Y3733800D01*
X12465974Y3716526D01*
X12266486Y3656013D01*
X11534017Y4388482D01*
X11518901Y4406901D01*
X11445415Y4467209D01*
X11361577Y4512022D01*
X11270606Y4539617D01*
X11199707Y4546600D01*
X11199705Y4546600D01*
X11176000Y4548935D01*
X11152295Y4546600D01*
X9421707Y4546600D01*
X9398000Y4548935D01*
X9303393Y4539617D01*
X9212423Y4512022D01*
X9128585Y4467209D01*
X9055099Y4406901D01*
X9039987Y4388487D01*
X8436101Y3784600D01*
X-4118100Y3784600D01*
X-7899400Y7565899D01*
X-7899400Y8358304D01*
X-7897066Y8382001D01*
X-7899400Y8405698D01*
X-7899400Y8405707D01*
X-7906383Y8476606D01*
X-7933978Y8567577D01*
X-7978791Y8651415D01*
X-8039099Y8724901D01*
X-8057518Y8740017D01*
X-8531983Y9214482D01*
X-8547099Y9232901D01*
X-8620585Y9293209D01*
X-8704423Y9338022D01*
X-8795394Y9365617D01*
X-8866293Y9372600D01*
X-8866295Y9372600D01*
X-8890000Y9374935D01*
X-8913705Y9372600D01*
X-8929741Y9372600D01*
X-9023952Y9548856D01*
X-9171435Y9728565D01*
X-9351144Y9876048D01*
X-9556172Y9985638D01*
X-9778640Y10053123D01*
X-9952025Y10070200D01*
X-10367975Y10070200D01*
X-10541360Y10053123D01*
X-10763828Y9985638D01*
X-10968856Y9876048D01*
X-11148565Y9728565D01*
X-11296048Y9548856D01*
X-11405638Y9343828D01*
X-11473123Y9121360D01*
X-11495910Y8890000D01*
X-12517401Y8890000D01*
X-12517401Y10554526D01*
X-5630200Y10554526D01*
X-5630200Y9445474D01*
X-5413834Y8357731D01*
X-4989418Y7333100D01*
X-4373262Y6410957D01*
X-3589043Y5626738D01*
X-2666900Y5010582D01*
X-1642269Y4586166D01*
X-554526Y4369800D01*
X554526Y4369800D01*
X1642269Y4586166D01*
X2666900Y5010582D01*
X3589043Y5626738D01*
X4373262Y6410957D01*
X4989418Y7333100D01*
X5413834Y8357731D01*
X5630200Y9445474D01*
X5630200Y10554526D01*
X5413834Y11642269D01*
X4989418Y12666900D01*
X4373262Y13589043D01*
X3589043Y14373262D01*
X2666900Y14989418D01*
X1642269Y15413834D01*
X554526Y15630200D01*
X-554526Y15630200D01*
X-1642269Y15413834D01*
X-2666900Y14989418D01*
X-3589043Y14373262D01*
X-4373262Y13589043D01*
X-4989418Y12666900D01*
X-5413834Y11642269D01*
X-5630200Y10554526D01*
X-12517401Y10554526D01*
X-12517401Y11517401D01*
X-8593136Y11517401D01*
X-8574084Y11519278D01*
X-8262284Y11544088D01*
X-8223583Y11551016D01*
X-8184637Y11556697D01*
X-8178108Y11558361D01*
X-7800551Y11657405D01*
X-7759529Y11672579D01*
X-7718297Y11687179D01*
X-7712215Y11690079D01*
X-7361086Y11860571D01*
X-7323791Y11883424D01*
X-7286181Y11905754D01*
X-7280783Y11909778D01*
X-7280777Y11909781D01*
X-7280772Y11909785D01*
X-6969451Y12145226D01*
X-6937300Y12174893D01*
X-6904748Y12204099D01*
X-6900230Y12209099D01*
X-6640564Y12500531D01*
X-6614802Y12535858D01*
X-6588528Y12570850D01*
X-6585068Y12576632D01*
X-6386954Y12912949D01*
X-6385443Y12916204D01*
X-6380944Y12923432D01*
X-5870848Y13841779D01*
X-5254774Y14649029D01*
X-4528616Y15358895D01*
X-3707593Y15956498D01*
X-2808901Y16429323D01*
X-1851372Y16767462D01*
X-855048Y16963835D01*
X159179Y17014327D01*
X1170067Y16917879D01*
M02*
